<svg width="82" height="83" viewBox="0 0 82 83" fill="none" xmlns="http://www.w3.org/2000/svg">
<g filter="url(#filter0_dd_96_9896)">
<rect x="5" y="1.05005" width="72" height="72" rx="36" fill="#EC2227"/>
<path d="M30.8504 51.55V47.1182L41.2055 37.5302C42.0862 36.6779 42.8248 35.9108 43.4214 35.229C44.0275 34.5472 44.4868 33.8796 44.7993 33.2262C45.1118 32.5633 45.268 31.8483 45.268 31.0813C45.268 30.229 45.0739 29.4951 44.6856 28.8796C44.2974 28.2546 43.7671 27.7764 43.0947 27.4449C42.4224 27.104 41.66 26.9336 40.8078 26.9336C39.9176 26.9336 39.1411 27.1135 38.4782 27.4733C37.8153 27.8332 37.304 28.3493 36.9441 29.0216C36.5843 29.694 36.4044 30.4942 36.4044 31.4222H30.5663C30.5663 29.5188 30.9972 27.8663 31.8589 26.4648C32.7207 25.0633 33.928 23.979 35.4811 23.212C37.0341 22.4449 38.8239 22.0614 40.8504 22.0614C42.9337 22.0614 44.7472 22.4307 46.2907 23.1694C47.8438 23.8985 49.0511 24.9118 49.9129 26.2091C50.7746 27.5065 51.2055 28.9932 51.2055 30.6694C51.2055 31.7679 50.9877 32.8521 50.5521 33.9222C50.126 34.9923 49.3636 36.1807 48.2652 37.4875C47.1667 38.7849 45.6184 40.3427 43.6203 42.1608L39.3731 46.3228V46.5216H51.589V51.55H30.8504Z" fill="white"/>
</g>
<defs>
<filter id="filter0_dd_96_9896" x="0" y="0.0500488" width="82" height="82" filterUnits="userSpaceOnUse" color-interpolation-filters="sRGB">
<feFlood flood-opacity="0" result="BackgroundImageFix"/>
<feColorMatrix in="SourceAlpha" type="matrix" values="0 0 0 0 0 0 0 0 0 0 0 0 0 0 0 0 0 0 127 0" result="hardAlpha"/>
<feMorphology radius="2" operator="erode" in="SourceAlpha" result="effect1_dropShadow_96_9896"/>
<feOffset dy="2"/>
<feGaussianBlur stdDeviation="2"/>
<feComposite in2="hardAlpha" operator="out"/>
<feColorMatrix type="matrix" values="0 0 0 0 0 0 0 0 0 0 0 0 0 0 0 0 0 0 0.1 0"/>
<feBlend mode="normal" in2="BackgroundImageFix" result="effect1_dropShadow_96_9896"/>
<feColorMatrix in="SourceAlpha" type="matrix" values="0 0 0 0 0 0 0 0 0 0 0 0 0 0 0 0 0 0 127 0" result="hardAlpha"/>
<feMorphology radius="1" operator="erode" in="SourceAlpha" result="effect2_dropShadow_96_9896"/>
<feOffset dy="4"/>
<feGaussianBlur stdDeviation="3"/>
<feComposite in2="hardAlpha" operator="out"/>
<feColorMatrix type="matrix" values="0 0 0 0 0 0 0 0 0 0 0 0 0 0 0 0 0 0 0.1 0"/>
<feBlend mode="normal" in2="effect1_dropShadow_96_9896" result="effect2_dropShadow_96_9896"/>
<feBlend mode="normal" in="SourceGraphic" in2="effect2_dropShadow_96_9896" result="shape"/>
</filter>
</defs>
</svg>
