<svg width="82" height="83" viewBox="0 0 82 83" fill="none" xmlns="http://www.w3.org/2000/svg">
<g filter="url(#filter0_dd_96_9910)">
<rect x="5" y="1.05005" width="72" height="72" rx="36" fill="#EC2227"/>
<path d="M41.0221 51.9478C38.9009 51.9478 37.0117 51.5832 35.3545 50.854C33.7068 50.1154 32.4047 49.1021 31.4483 47.8143C30.5013 46.5169 30.0136 45.0207 29.9852 43.3256H36.1784C36.2162 44.0358 36.4483 44.6608 36.8744 45.2006C37.31 45.7309 37.8876 46.1429 38.6073 46.4364C39.327 46.73 40.1367 46.8768 41.0363 46.8768C41.9738 46.8768 42.8024 46.711 43.5221 46.3796C44.2418 46.0482 44.8053 45.5889 45.2125 45.0018C45.6197 44.4146 45.8233 43.7375 45.8233 42.9705C45.8233 42.194 45.6054 41.5074 45.1698 40.9108C44.7437 40.3048 44.1282 39.8313 43.3233 39.4904C42.5278 39.1495 41.5808 38.979 40.4823 38.979H37.7693V34.462H40.4823C41.4104 34.462 42.2295 34.301 42.9397 33.979C43.6594 33.6571 44.2181 33.212 44.6159 32.6438C45.0136 32.0661 45.2125 31.3938 45.2125 30.6268C45.2125 29.8976 45.0373 29.2584 44.6869 28.7091C44.346 28.1504 43.863 27.7148 43.238 27.4023C42.6225 27.0898 41.9028 26.9336 41.0789 26.9336C40.2456 26.9336 39.4833 27.0851 38.792 27.3881C38.1007 27.6817 37.5467 28.1031 37.1301 28.6523C36.7134 29.2016 36.4909 29.8455 36.4625 30.5841H30.5676C30.596 28.908 31.0742 27.4307 32.0022 26.1523C32.9303 24.8739 34.1803 23.8749 35.7522 23.1552C37.3337 22.426 39.1187 22.0614 41.1073 22.0614C43.1149 22.0614 44.8715 22.426 46.3772 23.1552C47.8829 23.8843 49.0524 24.8692 49.8858 26.1097C50.7286 27.3408 51.1452 28.7233 51.1358 30.2574C51.1452 31.8862 50.6386 33.2451 49.6159 34.3341C48.6026 35.4232 47.2816 36.1144 45.6528 36.408V36.6353C47.7929 36.9099 49.4217 37.6533 50.5392 38.8654C51.6661 40.068 52.2248 41.5737 52.2153 43.3824C52.2248 45.0396 51.7465 46.5122 50.7806 47.8C49.8242 49.0879 48.5032 50.1012 46.8176 50.8398C45.132 51.5785 43.2001 51.9478 41.0221 51.9478Z" fill="white"/>
</g>
<defs>
<filter id="filter0_dd_96_9910" x="0" y="0.0500488" width="82" height="82" filterUnits="userSpaceOnUse" color-interpolation-filters="sRGB">
<feFlood flood-opacity="0" result="BackgroundImageFix"/>
<feColorMatrix in="SourceAlpha" type="matrix" values="0 0 0 0 0 0 0 0 0 0 0 0 0 0 0 0 0 0 127 0" result="hardAlpha"/>
<feMorphology radius="2" operator="erode" in="SourceAlpha" result="effect1_dropShadow_96_9910"/>
<feOffset dy="2"/>
<feGaussianBlur stdDeviation="2"/>
<feComposite in2="hardAlpha" operator="out"/>
<feColorMatrix type="matrix" values="0 0 0 0 0 0 0 0 0 0 0 0 0 0 0 0 0 0 0.1 0"/>
<feBlend mode="normal" in2="BackgroundImageFix" result="effect1_dropShadow_96_9910"/>
<feColorMatrix in="SourceAlpha" type="matrix" values="0 0 0 0 0 0 0 0 0 0 0 0 0 0 0 0 0 0 127 0" result="hardAlpha"/>
<feMorphology radius="1" operator="erode" in="SourceAlpha" result="effect2_dropShadow_96_9910"/>
<feOffset dy="4"/>
<feGaussianBlur stdDeviation="3"/>
<feComposite in2="hardAlpha" operator="out"/>
<feColorMatrix type="matrix" values="0 0 0 0 0 0 0 0 0 0 0 0 0 0 0 0 0 0 0.1 0"/>
<feBlend mode="normal" in2="effect1_dropShadow_96_9910" result="effect2_dropShadow_96_9910"/>
<feBlend mode="normal" in="SourceGraphic" in2="effect2_dropShadow_96_9910" result="shape"/>
</filter>
</defs>
</svg>
