<svg width="156" height="30" viewBox="0 0 156 30" fill="none" xmlns="http://www.w3.org/2000/svg">
<g opacity="0.8" clip-path="url(#clip0_782_18886)">
<path d="M39.5657 14.1234H33.2227V13.2336C33.2899 13.2562 33.3983 13.2675 33.5404 13.2675C33.8805 13.2675 34.1833 13.1657 34.4561 12.9621C34.7252 12.7585 34.8635 12.3966 34.8635 11.8725V3.63824C34.8635 3.12172 34.7327 2.756 34.4673 2.54487C34.202 2.33373 33.9067 2.22439 33.5777 2.22439C33.4806 2.22439 33.361 2.24325 33.2227 2.27718V1.37608C33.6039 1.34215 34.2431 1.30068 35.1476 1.25544C36.0596 1.20642 39.8348 1.07446 40.1712 1.07446C41.6401 1.07446 42.911 1.21396 43.9912 1.49673C45.0714 1.7795 45.9722 2.198 46.6974 2.756C47.4225 3.314 47.9645 3.99642 48.3233 4.80703C48.6821 5.61763 48.8616 6.55266 48.8616 7.61587C48.8616 8.67909 48.6709 9.54625 48.2934 10.3455C47.9122 11.1448 47.3403 11.8235 46.574 12.389C45.8078 12.9508 44.8397 13.3844 43.6698 13.6822C42.4998 13.9839 41.1318 14.1309 39.5657 14.1309M39.076 11.684C39.076 12.2307 39.1732 12.6228 39.3638 12.8641C39.5582 13.1054 39.8946 13.226 40.3805 13.226C40.9449 13.226 41.4719 13.1167 41.9653 12.8942C42.4587 12.6718 42.8886 12.3362 43.2586 11.88C43.6287 11.4238 43.9165 10.8545 44.1146 10.1683C44.3127 9.48215 44.4136 8.69417 44.4136 7.80062C44.4136 6.48856 44.2005 5.40273 43.7782 4.53934C43.3558 3.67595 42.769 3.035 42.0214 2.6165C41.2738 2.19423 40.4104 1.97933 39.4311 1.96802C39.3227 1.96802 39.2368 2.03588 39.1732 2.16784C39.1097 2.2998 39.0798 2.43176 39.0798 2.55995V11.6764L39.076 11.684Z" fill="white"/>
<path d="M55.6567 4.21509C56.9014 4.21509 57.8545 4.49409 58.5236 5.05209C59.1927 5.61009 59.63 6.23595 59.843 6.93722C60.0561 7.63849 60.1645 8.29451 60.1645 8.90907H53.9224C53.9747 9.44822 54.0308 9.87803 54.0906 10.1985C54.1504 10.519 54.2326 10.8244 54.3298 11.1222C54.4793 11.5407 54.6699 11.8876 54.9092 12.1666C55.1446 12.4456 55.425 12.6605 55.7464 12.8075C56.0679 12.9546 56.4043 13.03 56.7556 13.03C57.335 13.03 57.8807 12.8603 58.3853 12.5172C58.8936 12.1741 59.3422 11.7292 59.7421 11.175L60.3476 11.7669C59.8991 12.34 59.4468 12.8226 58.9871 13.2147C58.5311 13.6068 57.9928 13.9122 57.3724 14.1271C56.7519 14.3458 56.0081 14.4551 55.1334 14.4551C54.3672 14.4476 53.657 14.3194 53.0029 14.0706C52.345 13.8217 51.7844 13.4749 51.3171 13.0337C50.8462 12.5926 50.4911 12.0799 50.2481 11.4955C50.0014 10.9111 49.8818 10.2814 49.8818 9.6028C49.8818 8.54712 50.1061 7.6121 50.5546 6.79395C51.0032 5.97957 51.6648 5.34617 52.5394 4.89374C53.414 4.4413 54.4569 4.21509 55.6642 4.21509M53.9299 8.13993H56.4753C56.4566 7.91372 56.4416 7.6875 56.423 7.46506C56.4043 7.24261 56.3893 7.02017 56.3706 6.79772C56.2024 5.6591 55.7913 5.08979 55.1372 5.08979C54.5952 5.16519 54.2364 5.74582 54.0569 6.83165C54.0383 6.94099 54.0196 7.14081 53.9934 7.42735C53.9672 7.71389 53.9448 7.95142 53.9299 8.13616" fill="white"/>
<path d="M68.3199 13.2601C68.8843 13.2601 69.4188 13.1055 69.9197 12.7963C70.4243 12.4872 70.8803 12.0762 71.2877 11.5635L71.8409 12.0084C71.5755 12.3854 71.2653 12.7322 70.9102 13.0452C70.5514 13.3581 70.1552 13.6183 69.7141 13.8294C69.2731 14.0368 68.8021 14.1951 68.305 14.3007C67.8041 14.4062 67.2846 14.459 66.7501 14.459C66.0249 14.459 65.3297 14.3572 64.6644 14.1536C63.9991 13.95 63.4234 13.6522 62.93 13.2563C62.4367 12.8604 62.0517 12.3741 61.7751 11.7897C61.4947 11.2053 61.3564 10.5417 61.3564 9.79898C61.3564 8.95067 61.5022 8.19662 61.7863 7.54059C62.0741 6.8808 62.4703 6.32657 62.9749 5.87791C63.4832 5.42925 64.0589 5.07107 64.7092 4.80715C65.3596 4.54323 66.0511 4.36226 66.78 4.26423C67.0977 4.21145 67.5275 4.18506 68.0732 4.18506C69.131 4.19637 70.0318 4.35095 70.7757 4.64126C71.5195 4.93534 71.8895 5.41794 71.8895 6.08904C71.8895 6.48869 71.7251 6.80162 71.3961 7.02407C71.0672 7.24651 70.6262 7.35962 70.0692 7.35962C69.3665 7.25028 68.8245 6.77146 68.447 5.93069C68.3162 5.6253 68.1704 5.37269 68.0172 5.18041C67.8602 4.98812 67.6471 4.89387 67.3705 4.89387C66.9444 4.89387 66.5893 5.11631 66.309 5.56498C66.0287 6.01364 65.8231 6.55278 65.6923 7.18996C65.5615 7.82713 65.4979 8.453 65.4979 9.06755C65.4979 9.93094 65.6063 10.6812 65.8268 11.3109C66.0474 11.9405 66.3651 12.4231 66.7874 12.7624C67.2098 13.098 67.7219 13.2676 68.3199 13.2676" fill="white"/>
<path d="M78.9875 14.4552C77.7203 14.4552 76.6364 14.2592 75.7393 13.8708C74.8385 13.4825 74.1433 12.917 73.6574 12.178C73.1715 11.439 72.921 10.5681 72.9023 9.56897C72.9023 8.87147 73.0033 8.23807 73.2014 7.66122C73.3995 7.08813 73.6947 6.58292 74.0835 6.14557C74.4722 5.70822 74.9544 5.3425 75.53 5.04465C76.1056 4.7468 76.7597 4.52435 77.4886 4.37731C78.139 4.24535 78.7744 4.17749 79.3949 4.17749C80.4377 4.17749 81.3946 4.36223 82.273 4.72795C83.1513 5.09366 83.8541 5.67052 84.3848 6.45473C84.9156 7.24272 85.181 8.23053 85.181 9.41816C85.181 10.3532 84.9343 11.2015 84.4372 11.9593C83.9438 12.7209 83.2261 13.3242 82.2879 13.769C81.3497 14.2139 80.2508 14.4439 78.9912 14.4477M78.3184 4.99187C77.8287 4.99187 77.4699 5.203 77.2419 5.6215C77.0139 6.04377 76.9018 6.59423 76.9018 7.28042C76.9018 8.01185 77.0251 8.83754 77.2718 9.75371C77.44 10.3456 77.6605 10.93 77.9409 11.5069C78.2212 12.0837 78.5277 12.5512 78.8678 12.9094C79.208 13.2676 79.5519 13.4448 79.9032 13.4448C80.0714 13.4448 80.2546 13.392 80.4564 13.2865C80.6807 13.1356 80.8563 12.834 80.9872 12.3816C81.118 11.9292 81.1815 11.3975 81.1815 10.7905C81.1815 9.90829 81.047 9.09769 80.7741 8.36248C80.0041 6.11541 79.1818 4.99187 78.3147 4.99187" fill="white"/>
<path d="M87.8463 7.6084V7.23515C87.8463 6.97877 87.8164 6.79403 87.7566 6.68092C87.6968 6.56781 87.5697 6.46978 87.3716 6.38684C87.1772 6.30389 86.781 6.17193 86.1904 5.99096V5.40657C87.9621 5.25576 89.6815 4.85611 91.3523 4.20385L91.8607 4.42253V7.06171L92.9558 5.25953C93.1988 4.87496 93.423 4.59973 93.6324 4.4263C93.8417 4.25287 94.0921 4.16992 94.3874 4.16992C94.6528 4.16992 95.0004 4.25287 95.434 4.42253L97.0749 5.10118L95.804 7.86101L94.2678 7.2163C93.8753 7.05417 93.5688 6.97123 93.3446 6.97123C92.9708 6.97123 92.6531 7.15974 92.3952 7.53677L91.8607 8.2682V11.4616C91.8607 12.129 92.0401 12.5965 92.3989 12.8642C92.7577 13.1318 93.1801 13.2638 93.6623 13.2638C93.8865 13.2638 94.0659 13.2449 94.2042 13.211V14.1159C92.7203 13.9839 91.3598 13.9161 90.1226 13.9161C88.8854 13.9161 87.6295 13.9839 86.2016 14.1159V13.211C86.3848 13.2563 86.5268 13.2789 86.624 13.2789C86.9866 13.2789 87.2819 13.1092 87.5061 12.7661C87.7304 12.423 87.8425 11.9404 87.8425 11.3108V7.60086L87.8463 7.6084Z" fill="white"/>
<path d="M100.173 9.19575C100.173 9.19575 100.353 9.11658 100.715 8.99216C101.078 8.86774 101.665 8.66037 102.472 8.3776C103.28 8.09483 103.829 7.90255 104.117 7.80452V6.4133C104.117 5.95332 104.053 5.62531 103.922 5.42926C103.792 5.2332 103.564 5.13517 103.227 5.13517C102.891 5.13517 102.64 5.24074 102.45 5.45565C102.259 5.67055 102.166 5.92693 102.166 6.22101C102.166 6.46608 102.237 6.70738 102.382 6.95244L98.9549 8.35498C98.8689 8.07598 98.8241 7.79321 98.8241 7.49913C98.8241 6.82802 99.0633 6.2474 99.5417 5.76858C100.02 5.28599 100.674 4.92404 101.5 4.6752C102.33 4.43014 103.227 4.30195 104.203 4.28687C105.077 4.28687 105.803 4.41128 106.374 4.65635C106.946 4.90519 107.372 5.25582 107.645 5.71203C107.918 6.172 108.056 6.71492 108.056 7.34078V11.9217C108.056 12.6003 108.195 12.9396 108.471 12.9396C108.632 12.9396 108.89 12.8303 109.249 12.6154L109.723 13.1131C109.447 13.4562 109.002 13.7653 108.385 14.0405C107.769 14.3158 107.197 14.4553 106.666 14.4553C106.344 14.4553 106.008 14.4063 105.657 14.3082C105.305 14.2102 104.991 14.0556 104.715 13.852C104.438 13.6447 104.259 13.3996 104.169 13.1168C103.952 13.3958 103.62 13.6786 103.175 13.9727C102.73 14.263 102.068 14.4063 101.183 14.4063C99.1156 14.4063 98.084 13.5843 98.084 11.9405C98.1064 11.4768 98.1625 11.0922 98.2522 10.7868C98.3419 10.4814 98.54 10.1911 98.8428 9.9121C99.1493 9.6331 99.5903 9.39558 100.173 9.19952M104.117 8.50202C104.117 8.4794 104.113 8.46809 104.102 8.46809C104.016 8.47563 103.874 8.50956 103.676 8.57366C103.478 8.63775 103.25 8.76594 102.995 8.96199C102.738 9.15805 102.513 9.46721 102.315 9.89325C102.117 10.3193 102.016 10.8773 102.016 11.571C102.016 12.0574 102.117 12.4118 102.319 12.6229C102.521 12.8378 102.816 12.9472 103.201 12.9472C103.65 12.9472 103.956 12.8152 104.124 12.5551V8.50579L104.117 8.50202Z" fill="white"/>
<path d="M111.877 5.57255H110.729V5.11258C111.07 5.03718 111.485 4.89768 111.97 4.69031C112.46 4.48295 112.924 4.22657 113.361 3.90987C114.247 3.29908 114.867 2.55634 115.226 1.68164H115.891V4.53573H119.061L118.74 5.57255H115.891V11.4052C115.891 11.8802 115.981 12.2384 116.168 12.4797C116.351 12.721 116.59 12.8416 116.886 12.8416C117.203 12.8416 117.536 12.721 117.887 12.4759C118.239 12.2308 118.53 11.9292 118.758 11.5597L119.364 12.0725C119.072 12.6229 118.702 13.0754 118.265 13.426C117.824 13.7767 117.33 14.0368 116.781 14.2027C116.232 14.3686 115.63 14.4515 114.983 14.4515C113.993 14.4515 113.23 14.2253 112.692 13.7729C112.154 13.3204 111.884 12.7474 111.884 12.0574V5.57255H111.877Z" fill="white"/>
<path d="M127.561 14.1234C126.249 13.9915 125.045 13.9236 123.954 13.9236C122.862 13.9236 121.685 13.9915 120.369 14.1234V13.1733C120.485 13.2148 120.601 13.2336 120.724 13.2336C121.087 13.2336 121.393 13.0866 121.647 12.7887C121.902 12.4909 122.029 12.0385 122.029 11.4314L122.01 7.6084C122.01 6.89582 121.883 6.44715 121.625 6.26241C121.367 6.08144 120.948 5.98718 120.369 5.98718V5.40279C121.008 5.34247 121.588 5.26706 122.115 5.16903C122.638 5.07101 123.184 4.94659 123.744 4.79578C124.395 4.62235 124.997 4.42252 125.55 4.20385L126.024 4.42252V11.4314C126.024 11.9932 126.125 12.4268 126.327 12.7246C126.529 13.0225 126.94 13.1733 127.561 13.1733V14.1234ZM121.18 2.0284C121.18 1.45909 121.408 0.980269 121.861 0.588161C122.317 0.196054 122.915 0 123.655 0C124.062 0 124.425 0.056554 124.739 0.173432C125.053 0.29031 125.314 0.452432 125.527 0.656026C125.74 0.863391 125.894 1.08207 125.995 1.31582C126.092 1.54958 126.14 1.79465 126.14 2.05102C126.14 2.63542 125.909 3.11801 125.449 3.49504C124.989 3.87206 124.402 4.06058 123.688 4.06058C122.93 4.06058 122.324 3.86075 121.872 3.46487C121.419 3.06523 121.188 2.5864 121.177 2.02463" fill="white"/>
<path d="M134.658 14.4552C133.391 14.4552 132.307 14.2592 131.41 13.8708C130.509 13.4825 129.814 12.917 129.328 12.178C128.842 11.439 128.592 10.5681 128.573 9.56897C128.573 8.87147 128.674 8.23807 128.872 7.66122C129.07 7.08813 129.366 6.58292 129.754 6.14557C130.143 5.70822 130.625 5.3425 131.201 5.04465C131.777 4.7468 132.431 4.52435 133.16 4.37731C133.81 4.24535 134.445 4.17749 135.066 4.17749C136.109 4.17749 137.065 4.36223 137.944 4.72795C138.822 5.09366 139.525 5.67052 140.056 6.45473C140.586 7.24272 140.852 8.23053 140.852 9.41816C140.852 10.3532 140.605 11.2015 140.108 11.9593C139.615 12.7209 138.897 13.3242 137.959 13.769C137.021 14.2139 135.922 14.4439 134.662 14.4477M133.989 4.99187C133.5 4.99187 133.141 5.203 132.913 5.6215C132.685 6.04377 132.573 6.59423 132.573 7.28042C132.573 8.01185 132.696 8.83754 132.943 9.75371C133.111 10.3456 133.331 10.93 133.612 11.5069C133.892 12.0837 134.199 12.5512 134.539 12.9094C134.879 13.2676 135.223 13.4448 135.574 13.4448C135.742 13.4448 135.925 13.392 136.127 13.2865C136.352 13.1356 136.527 12.834 136.658 12.3816C136.789 11.9292 136.852 11.3975 136.852 10.7905C136.852 9.90829 136.718 9.09769 136.445 8.36248C135.675 6.11541 134.853 4.99187 133.986 4.99187" fill="white"/>
<path d="M141.891 14.1235L141.857 13.2337C141.996 13.2677 142.138 13.2865 142.28 13.2865C142.631 13.2865 142.923 13.1395 143.158 12.8416C143.394 12.5438 143.513 12.0537 143.513 11.3637V7.60851C143.513 7.1787 143.487 6.89216 143.439 6.74512C143.39 6.60185 143.274 6.48497 143.091 6.40202C142.908 6.31908 142.497 6.17958 141.857 5.98729V5.4029C142.497 5.34258 143.076 5.26717 143.603 5.16915C144.126 5.07112 144.672 4.9467 145.233 4.79589C145.905 4.61115 146.503 4.41132 147.019 4.20396L147.513 4.42263V5.66682C148.944 4.64508 150.159 4.13232 151.153 4.13232C151.688 4.13232 152.189 4.27559 152.652 4.55836C153.116 4.84113 153.478 5.25963 153.744 5.80255C154.009 6.34924 154.14 6.99396 154.14 7.7367L154.087 11.4089C154.087 12.6456 154.394 13.2639 155.003 13.2639C155.13 13.2639 155.28 13.2413 155.452 13.196V14.1198C154.271 13.9878 153.194 13.9199 152.215 13.9199C151.236 13.9199 150.193 13.9878 149.045 14.1198V13.196C149.269 13.196 149.453 13.1546 149.595 13.0679C149.737 12.9849 149.853 12.819 149.939 12.5739C150.028 12.3327 150.092 11.9782 150.133 11.522C150.174 11.0621 150.193 10.4287 150.193 9.62183C150.193 8.60763 150.148 7.84604 150.054 7.34082C149.987 6.91855 149.841 6.59431 149.628 6.36809C149.411 6.14565 149.127 6.03254 148.776 6.03254C148.384 6.03254 147.961 6.17581 147.509 6.45858V11.4391C147.509 11.8086 147.531 12.1291 147.572 12.393C147.614 12.6569 147.703 12.8643 147.83 13.0151C147.961 13.1659 148.141 13.2413 148.369 13.2413C148.421 13.2413 148.529 13.23 148.69 13.2074V14.1122C147.453 13.9803 146.32 13.9124 145.296 13.9124C144.272 13.9124 143.125 13.9803 141.887 14.1122" fill="white"/>
<path d="M41.2664 30C40.231 30 39.2442 29.8982 38.306 29.6908C37.3679 29.4835 36.5194 29.1404 35.7569 28.6578C34.9944 28.1752 34.3814 27.5078 33.9179 26.6482C33.4544 25.7886 33.2227 24.7367 33.2227 23.4887C33.2227 22.3878 33.4133 21.4038 33.7908 20.5479C34.1721 19.6883 34.7066 18.972 35.4018 18.3951C36.097 17.822 36.9119 17.3884 37.8538 17.0981C38.7957 16.8078 39.8086 16.6646 40.8963 16.6646C42.0476 16.6646 43.0979 16.8418 44.0435 17.1962C44.9892 17.5506 45.7928 18.0369 46.4507 18.6553C47.1085 19.2736 47.6169 19.9862 47.972 20.793C48.327 21.5998 48.5102 22.4481 48.5214 23.3341C48.5214 24.5595 48.2224 25.6679 47.6281 26.6633C47.03 27.6586 46.1816 28.4504 45.0826 29.0386C43.9837 29.6267 42.7092 29.9472 41.2701 30M40.7281 17.5845C39.7376 17.5845 38.9938 18.1161 38.5004 19.1831C38.0033 20.2463 37.7566 21.4943 37.7566 22.9232C37.7566 24.2051 37.9024 25.3135 38.1976 26.241C38.4892 27.1685 38.8966 27.8698 39.4199 28.3448C39.9395 28.8199 40.5338 29.0536 41.2028 29.0536C42.2494 29.0235 42.9895 28.5183 43.4193 27.5305C43.8529 26.5426 44.066 25.3286 44.066 23.8846C44.0361 22.6932 43.894 21.6262 43.6399 20.6761C43.3857 19.726 43.0119 18.9757 42.5185 18.4253C42.0251 17.8748 41.4308 17.5958 40.7281 17.5883" fill="white"/>
<path d="M49.56 29.6833L49.5264 28.7936C49.6647 28.8275 49.8067 28.8463 49.9487 28.8463C50.3001 28.8463 50.5916 28.6993 50.8271 28.4015C51.0626 28.1036 51.1822 27.6135 51.1822 26.9235V23.1683C51.1822 22.7385 51.156 22.452 51.1075 22.3049C51.0589 22.1617 50.943 22.0448 50.7598 21.9618C50.5767 21.8789 50.1655 21.7394 49.5264 21.5471V20.9627C50.1655 20.9024 50.7449 20.827 51.2719 20.729C51.7952 20.6309 52.3409 20.5065 52.9016 20.3557C53.5744 20.171 54.1724 19.9711 54.6882 19.7638L55.1816 19.9824V21.2266C56.6132 20.2049 57.828 19.6921 58.8222 19.6921C59.3567 19.6921 59.8576 19.8354 60.3211 20.1182C60.7846 20.4009 61.1471 20.8194 61.4125 21.3624C61.6779 21.9091 61.8087 22.5538 61.8087 23.2965L61.7564 26.9725C61.7564 28.2092 62.0629 28.8275 62.6722 28.8275C62.7992 28.8275 62.9488 28.8049 63.1207 28.7596V29.6833C61.9396 29.5514 60.8631 29.4835 59.8838 29.4835C58.9045 29.4835 57.8616 29.5514 56.7141 29.6833V28.7596C56.9384 28.7596 57.1215 28.7182 57.2636 28.6314C57.4056 28.5485 57.5215 28.3826 57.6075 28.1375C57.6972 27.8962 57.7607 27.5418 57.8018 27.0856C57.8429 26.6257 57.8616 25.9923 57.8616 25.1854C57.8616 24.1712 57.8168 23.4096 57.7233 22.9044C57.6561 22.4821 57.5103 22.1579 57.2972 21.9317C57.0804 21.7092 56.7964 21.5961 56.445 21.5961C56.0525 21.5961 55.6302 21.7394 55.1779 22.0222V27.0027C55.1779 27.3722 55.2003 27.6926 55.2414 27.9566C55.2826 28.2205 55.3723 28.4278 55.4994 28.5787C55.6302 28.7295 55.8096 28.8049 56.0376 28.8049C56.0899 28.8049 56.1946 28.7936 56.359 28.7709V29.6758C55.1218 29.5438 53.9893 29.476 52.9651 29.476C51.941 29.476 50.7935 29.5438 49.5563 29.6758" fill="white"/>
<path d="M69.9165 19.76C71.1612 19.76 72.1143 20.039 72.7834 20.597C73.4524 21.155 73.8897 21.7809 74.1028 22.4821C74.3159 23.1834 74.4242 23.8394 74.4242 24.454H68.1821C68.2345 24.9931 68.2905 25.4229 68.3503 25.7434C68.4102 26.0639 68.4886 26.3693 68.5896 26.6671C68.7391 27.0856 68.9297 27.4325 69.1689 27.7115C69.4044 27.9905 69.6847 28.2054 70.0062 28.3524C70.3276 28.4995 70.664 28.5749 71.0154 28.5749C71.5947 28.5749 72.1405 28.4052 72.6451 28.0621C73.1534 27.719 73.6019 27.2741 74.0019 26.7199L74.6074 27.3119C74.1589 27.8849 73.7066 28.3675 73.2468 28.7596C72.7908 29.1517 72.2526 29.4571 71.6321 29.672C71.0116 29.8907 70.2678 30 69.3932 30C68.6269 29.9925 67.9168 29.8643 67.2626 29.6155C66.6048 29.3666 66.0441 29.0198 65.5769 28.5787C65.1059 28.1375 64.7509 27.6248 64.5079 27.0404C64.2612 26.456 64.1416 25.8264 64.1416 25.1477C64.1416 24.092 64.3659 23.157 64.8144 22.3389C65.2629 21.5245 65.9245 20.8911 66.7992 20.4387C67.6738 19.9862 68.7167 19.76 69.924 19.76M68.1896 23.6849H70.7351C70.7164 23.4586 70.7014 23.2324 70.6827 23.01C70.664 22.7875 70.6491 22.5651 70.6304 22.3426C70.4622 21.204 70.051 20.6347 69.3969 20.6347C68.8549 20.7101 68.4961 21.2907 68.3167 22.3766C68.298 22.4859 68.2793 22.6857 68.2532 22.9723C68.227 23.2588 68.2046 23.4963 68.1896 23.6811" fill="white"/>
<path d="M81.107 26.7199C81.107 27.2176 81.036 27.6549 80.8977 28.032C80.7594 28.4128 80.565 28.7257 80.3221 28.9783C80.0754 29.2309 79.7838 29.4232 79.4512 29.5514C79.1148 29.6833 78.7522 29.7474 78.3635 29.7474C77.9748 29.7474 77.6085 29.6833 77.2758 29.5514C76.9394 29.4194 76.6516 29.2309 76.4049 28.9783C76.1582 28.7257 75.9676 28.4128 75.8255 28.032C75.6872 27.6549 75.6162 27.2138 75.6162 26.7199C75.6162 26.226 75.6872 25.7887 75.8293 25.4116C75.9713 25.0346 76.1657 24.7217 76.4124 24.4653C76.6591 24.2127 76.9506 24.0166 77.2833 23.8884C77.6197 23.7565 77.9785 23.6924 78.3635 23.6924C78.7485 23.6924 79.1073 23.7565 79.4437 23.8884C79.7764 24.0204 80.0679 24.2127 80.3146 24.4653C80.5613 24.7217 80.7557 25.0346 80.8977 25.4116C81.0397 25.7887 81.1108 26.2222 81.1108 26.7199M80.3258 26.7199C80.3258 25.9545 80.1464 25.3702 79.7913 24.963C79.4362 24.5558 78.9578 24.3522 78.3672 24.3522C78.0719 24.3522 77.8028 24.405 77.5636 24.5105C77.3244 24.6161 77.1188 24.7669 76.9469 24.9705C76.7749 25.1703 76.6441 25.4192 76.5544 25.7095C76.4647 26.0036 76.4161 26.3391 76.4161 26.7237C76.4161 27.489 76.5918 28.0734 76.9469 28.4806C77.302 28.8878 77.7729 29.0914 78.3672 29.0914C78.9615 29.0914 79.4437 28.8878 79.7988 28.4806C80.1501 28.0734 80.3296 27.4853 80.3296 26.7237" fill="white"/>
<path d="M83.0957 29.6078C83.062 29.6191 83.0172 29.6342 82.9537 29.6493C82.8901 29.6644 82.8191 29.6719 82.7443 29.6719C82.4715 29.6719 82.3369 29.5588 82.3369 29.3288V26.0902C82.3369 25.9431 82.3631 25.8262 82.4191 25.7395C82.4715 25.6528 82.5612 25.5699 82.6883 25.4869C82.8527 25.3776 83.0733 25.2833 83.3573 25.2041C83.6377 25.125 83.9554 25.0835 84.3105 25.0835C84.8151 25.0835 85.0692 25.2117 85.0692 25.4643C85.0692 25.5284 85.0618 25.5887 85.0393 25.6415C85.0206 25.6943 84.9945 25.7433 84.9646 25.781C84.901 25.7697 84.8188 25.7546 84.7179 25.7433C84.617 25.732 84.516 25.7244 84.4151 25.7244C84.1236 25.7244 83.8694 25.7546 83.6489 25.8149C83.4284 25.8753 83.2452 25.9469 83.0994 26.0298V29.604L83.0957 29.6078Z" fill="white"/>
<path d="M85.8916 23.8167C85.8916 23.6848 85.9365 23.5716 86.0299 23.4774C86.1196 23.3869 86.2392 23.3379 86.385 23.3379C86.5308 23.3379 86.6466 23.3831 86.7363 23.4774C86.826 23.5716 86.8709 23.681 86.8709 23.8167C86.8709 23.9524 86.826 24.0656 86.7363 24.156C86.6466 24.2465 86.5308 24.2955 86.385 24.2955C86.2392 24.2955 86.1196 24.2503 86.0299 24.156C85.9402 24.0656 85.8916 23.9487 85.8916 23.8167ZM86.7625 29.6041C86.7289 29.6154 86.684 29.6305 86.6205 29.6455C86.5569 29.6606 86.4859 29.6682 86.4112 29.6682C86.1383 29.6682 86.0037 29.5551 86.0037 29.3251V25.2268C86.0336 25.2155 86.086 25.2004 86.1495 25.1853C86.2168 25.1702 86.2878 25.1627 86.3626 25.1627C86.6279 25.1627 86.7588 25.2796 86.7588 25.5171V29.6041H86.7625Z" fill="white"/>
<path d="M88.777 27.866C88.9489 28.6992 89.4909 29.1177 90.4066 29.1177C90.672 29.1177 90.9112 29.0724 91.1243 28.982C91.3373 28.8915 91.5093 28.7972 91.6364 28.6954C91.7896 28.7859 91.8644 28.9065 91.8644 29.0574C91.8644 29.1478 91.8232 29.2308 91.7448 29.3137C91.6663 29.3967 91.5579 29.4683 91.4233 29.5324C91.2887 29.5965 91.128 29.6455 90.9486 29.687C90.7692 29.7247 90.5748 29.7435 90.3655 29.7435C89.6329 29.7435 89.0535 29.5437 88.6274 29.1403C88.2013 28.7407 87.9883 28.1525 87.9883 27.3834C87.9883 27.0214 88.0406 26.6972 88.1453 26.4144C88.2499 26.1316 88.3957 25.8903 88.5826 25.6943C88.7695 25.4982 88.99 25.3436 89.2516 25.2418C89.5096 25.1363 89.7936 25.0835 90.0964 25.0835C90.3805 25.0835 90.6421 25.1325 90.8813 25.2268C91.1205 25.321 91.3261 25.4568 91.5018 25.634C91.6737 25.8074 91.812 26.0148 91.9092 26.256C92.0064 26.4936 92.055 26.7575 92.055 27.044C92.055 27.1835 92.0251 27.2853 91.9615 27.3457C91.898 27.406 91.812 27.4437 91.6962 27.455L88.7807 27.866H88.777ZM90.0852 25.7056C89.7002 25.7056 89.3825 25.8413 89.1283 26.1128C88.8741 26.3842 88.7433 26.7688 88.7321 27.274L91.3373 26.9121C91.3037 26.5614 91.1841 26.2749 90.971 26.0487C90.758 25.8225 90.4664 25.7094 90.0852 25.7094" fill="white"/>
<path d="M95.8866 25.9659C95.6885 25.8 95.4194 25.717 95.0867 25.717C94.8326 25.717 94.6083 25.7472 94.4139 25.8113C94.2196 25.8754 94.0514 25.947 93.9131 26.03V29.6042C93.8832 29.6155 93.8346 29.6306 93.771 29.6457C93.7075 29.6607 93.6402 29.6683 93.5617 29.6683C93.2889 29.6683 93.1543 29.5552 93.1543 29.3252V26.0677C93.1543 25.9319 93.1805 25.8226 93.2365 25.7397C93.2889 25.6529 93.3823 25.57 93.5169 25.487C93.6813 25.3853 93.8981 25.291 94.171 25.2118C94.4438 25.1289 94.7503 25.0874 95.0905 25.0874C95.6661 25.0874 96.1184 25.2194 96.451 25.4795C96.7837 25.7397 96.9481 26.1506 96.9481 26.7124V29.6079C96.9182 29.6193 96.8659 29.6343 96.8024 29.6494C96.7351 29.6645 96.6678 29.672 96.5968 29.672C96.3239 29.672 96.1894 29.5589 96.1894 29.329V26.7501C96.1894 26.3919 96.0885 26.1318 95.8904 25.9659" fill="white"/>
<path d="M99.8597 29.7512C99.4187 29.7512 99.0598 29.6532 98.7832 29.4572C98.5066 29.2611 98.3721 28.9331 98.3721 28.4731V23.9337C98.402 23.9224 98.4543 23.9073 98.5178 23.8922C98.5851 23.8772 98.6562 23.8696 98.7309 23.8696C98.9963 23.8696 99.1271 23.9827 99.1271 24.2127V25.3099H100.682C100.701 25.34 100.719 25.3853 100.738 25.4381C100.757 25.4908 100.768 25.5512 100.768 25.6153C100.768 25.8302 100.675 25.9395 100.484 25.9395H99.1308V28.4241C99.1308 28.6805 99.2019 28.8577 99.3439 28.9633C99.4859 29.0688 99.6878 29.1216 99.9457 29.1216C100.054 29.1216 100.174 29.1028 100.305 29.0651C100.435 29.0273 100.547 28.9821 100.637 28.9331C100.675 28.9708 100.708 29.0198 100.742 29.0764C100.772 29.1329 100.79 29.2008 100.79 29.2762C100.79 29.4157 100.708 29.5326 100.544 29.6193C100.379 29.7098 100.151 29.7512 99.8635 29.7512" fill="white"/>
<path d="M103.496 25.0874C104.046 25.0874 104.483 25.2118 104.805 25.4607C105.126 25.7095 105.287 26.1016 105.287 26.637V28.9029C105.287 29.0424 105.261 29.1517 105.208 29.2234C105.156 29.295 105.074 29.3667 104.965 29.427C104.816 29.5175 104.614 29.5929 104.364 29.6607C104.113 29.7286 103.829 29.7625 103.508 29.7625C102.913 29.7625 102.454 29.6457 102.128 29.4081C101.803 29.1706 101.639 28.8313 101.639 28.3864C101.639 27.9679 101.773 27.6512 102.046 27.4363C102.319 27.2214 102.7 27.0894 103.194 27.0404L104.539 26.9047V26.637C104.539 26.3203 104.446 26.0865 104.255 25.9395C104.064 25.7924 103.81 25.7208 103.489 25.7208C103.223 25.7208 102.973 25.7585 102.741 25.8339C102.506 25.9093 102.3 25.996 102.117 26.0903C102.065 26.045 102.02 25.996 101.979 25.9357C101.938 25.8792 101.915 25.8151 101.915 25.7434C101.915 25.6529 101.938 25.5813 101.983 25.5248C102.027 25.4682 102.095 25.4154 102.192 25.3626C102.364 25.2721 102.558 25.2043 102.779 25.159C102.999 25.11 103.238 25.0874 103.5 25.0874M103.511 29.1291C103.777 29.1291 103.997 29.1027 104.169 29.0462C104.341 28.9934 104.468 28.9406 104.543 28.8878V27.5041L103.369 27.6286C103.04 27.6625 102.797 27.7341 102.64 27.851C102.483 27.9679 102.405 28.1413 102.405 28.3713C102.405 28.6126 102.495 28.8011 102.678 28.9293C102.861 29.0613 103.138 29.1254 103.511 29.1254" fill="white"/>
<path d="M107.361 29.6493C107.297 29.6644 107.226 29.6719 107.152 29.6719C106.879 29.6719 106.744 29.5588 106.744 29.3288V23.4359C106.774 23.4246 106.826 23.4095 106.89 23.3944C106.957 23.3794 107.024 23.3718 107.092 23.3718C107.365 23.3718 107.499 23.4849 107.499 23.7149V29.6078C107.469 29.6192 107.421 29.6342 107.357 29.6493" fill="white"/>
<path d="M116.186 26.7199C116.186 27.2176 116.115 27.6549 115.977 28.032C115.839 28.4128 115.644 28.7257 115.401 28.9783C115.154 29.2309 114.863 29.4232 114.53 29.5514C114.194 29.6833 113.831 29.7474 113.443 29.7474C113.054 29.7474 112.688 29.6833 112.355 29.5514C112.018 29.4194 111.731 29.2309 111.484 28.9783C111.237 28.7257 111.047 28.4128 110.905 28.032C110.766 27.6549 110.695 27.2138 110.695 26.7199C110.695 26.226 110.766 25.7887 110.908 25.4116C111.05 25.0346 111.245 24.7217 111.491 24.4653C111.738 24.2127 112.03 24.0166 112.362 23.8884C112.699 23.7565 113.058 23.6924 113.443 23.6924C113.828 23.6924 114.186 23.7565 114.523 23.8884C114.859 24.0204 115.147 24.2127 115.394 24.4653C115.64 24.7217 115.835 25.0346 115.977 25.4116C116.119 25.7887 116.19 26.2222 116.19 26.7199M115.405 26.7199C115.405 25.9545 115.226 25.3702 114.87 24.963C114.515 24.5558 114.037 24.3522 113.446 24.3522C113.151 24.3522 112.882 24.405 112.643 24.5105C112.403 24.6161 112.198 24.7669 112.026 24.9705C111.854 25.1703 111.723 25.4192 111.634 25.7095C111.544 26.0036 111.495 26.3391 111.495 26.7237C111.495 27.489 111.671 28.0734 112.026 28.4806C112.381 28.8878 112.852 29.0914 113.446 29.0914C114.041 29.0914 114.523 28.8878 114.878 28.4806C115.229 28.0734 115.409 27.4853 115.409 26.7237" fill="white"/>
<path d="M118.175 29.6078C118.141 29.6191 118.096 29.6342 118.033 29.6493C117.969 29.6644 117.898 29.6719 117.823 29.6719C117.551 29.6719 117.416 29.5588 117.416 29.3288V26.0902C117.416 25.9431 117.442 25.8262 117.498 25.7395C117.551 25.6528 117.64 25.5699 117.767 25.4869C117.932 25.3776 118.156 25.2833 118.436 25.2041C118.717 25.125 119.034 25.0835 119.39 25.0835C119.894 25.0835 120.148 25.2117 120.148 25.4643C120.148 25.5284 120.141 25.5887 120.122 25.6415C120.103 25.6943 120.077 25.7433 120.047 25.781C119.984 25.7697 119.902 25.7546 119.801 25.7433C119.7 25.732 119.599 25.7244 119.498 25.7244C119.206 25.7244 118.952 25.7546 118.732 25.8149C118.511 25.8753 118.328 25.9469 118.182 26.0298V29.604L118.175 29.6078Z" fill="white"/>
<path d="M123.722 25.9659C123.523 25.8 123.254 25.717 122.922 25.717C122.668 25.717 122.443 25.7472 122.249 25.8113C122.055 25.8754 121.886 25.947 121.748 26.03V29.6042C121.718 29.6155 121.67 29.6306 121.606 29.6457C121.542 29.6607 121.475 29.6683 121.397 29.6683C121.124 29.6683 120.989 29.5552 120.989 29.3252V26.0677C120.989 25.9319 121.015 25.8226 121.071 25.7397C121.124 25.6529 121.217 25.57 121.352 25.487C121.516 25.3853 121.733 25.291 122.006 25.2118C122.279 25.1289 122.585 25.0874 122.925 25.0874C123.501 25.0874 123.953 25.2194 124.286 25.4795C124.619 25.7397 124.783 26.1506 124.783 26.7124V29.6079C124.753 29.6193 124.701 29.6343 124.637 29.6494C124.57 29.6645 124.503 29.672 124.432 29.672C124.159 29.672 124.024 29.5589 124.024 29.329V26.7501C124.024 26.3919 123.923 26.1318 123.725 25.9659" fill="white"/>
<path d="M127.751 25.0874C128.301 25.0874 128.738 25.2118 129.059 25.4607C129.381 25.7095 129.542 26.1016 129.542 26.637V28.9029C129.542 29.0424 129.515 29.1517 129.463 29.2234C129.411 29.295 129.329 29.3667 129.22 29.427C129.071 29.5175 128.869 29.5929 128.618 29.6607C128.368 29.7286 128.084 29.7625 127.762 29.7625C127.168 29.7625 126.708 29.6457 126.383 29.4081C126.058 29.1706 125.894 28.8313 125.894 28.3864C125.894 27.9679 126.028 27.6512 126.301 27.4363C126.574 27.2214 126.955 27.0894 127.448 27.0404L128.794 26.9047V26.637C128.794 26.3203 128.701 26.0865 128.51 25.9395C128.319 25.7924 128.065 25.7208 127.744 25.7208C127.478 25.7208 127.228 25.7585 126.996 25.8339C126.761 25.9093 126.555 25.996 126.372 26.0903C126.32 26.045 126.275 25.996 126.234 25.9357C126.193 25.8792 126.17 25.8151 126.17 25.7434C126.17 25.6529 126.193 25.5813 126.237 25.5248C126.282 25.4682 126.35 25.4154 126.447 25.3626C126.619 25.2721 126.813 25.2043 127.034 25.159C127.254 25.11 127.493 25.0874 127.755 25.0874M127.766 29.1291C128.032 29.1291 128.252 29.1027 128.424 29.0462C128.596 28.9934 128.723 28.9406 128.798 28.8878V27.5041L127.624 27.6286C127.295 27.6625 127.052 27.7341 126.895 27.851C126.738 27.9679 126.66 28.1413 126.66 28.3713C126.66 28.6126 126.75 28.8011 126.933 28.9293C127.116 29.0613 127.392 29.1254 127.766 29.1254" fill="white"/>
<path d="M136.21 25.9395C136.034 25.7924 135.795 25.7208 135.5 25.7208C135.089 25.7208 134.722 25.8678 134.401 26.1619C134.438 26.2901 134.457 26.4258 134.457 26.5729V29.6117C134.423 29.623 134.375 29.6381 134.311 29.6532C134.244 29.6683 134.177 29.6758 134.109 29.6758C133.837 29.6758 133.702 29.5627 133.702 29.3327V26.6294C133.702 26.3165 133.612 26.0903 133.437 25.9433C133.261 25.7962 133.022 25.7246 132.715 25.7246C132.513 25.7246 132.323 25.7547 132.143 25.8188C131.964 25.8829 131.811 25.9546 131.684 26.0375V29.6117C131.654 29.623 131.605 29.6381 131.542 29.6532C131.478 29.6683 131.411 29.6758 131.332 29.6758C131.059 29.6758 130.925 29.5627 130.925 29.3327V26.0752C130.925 25.947 130.951 25.8415 131.007 25.7547C131.059 25.668 131.153 25.5813 131.287 25.4908C131.459 25.3815 131.672 25.2872 131.938 25.2081C132.199 25.1289 132.465 25.0874 132.73 25.0874C133.04 25.0874 133.313 25.1326 133.552 25.2269C133.792 25.3174 133.975 25.4456 134.102 25.6039C134.266 25.4569 134.472 25.3362 134.719 25.2344C134.965 25.1364 135.246 25.0874 135.563 25.0874C136.075 25.0874 136.483 25.2081 136.786 25.4531C137.088 25.6982 137.242 26.0752 137.242 26.5842V29.6042C137.212 29.6155 137.159 29.6306 137.096 29.6457C137.032 29.6607 136.961 29.6683 136.89 29.6683C136.617 29.6683 136.483 29.5552 136.483 29.3252V26.6219C136.483 26.309 136.393 26.0828 136.218 25.9357" fill="white"/>
<path d="M139.192 27.866C139.364 28.6992 139.906 29.1177 140.822 29.1177C141.087 29.1177 141.326 29.0724 141.543 28.982C141.756 28.8915 141.928 28.7972 142.055 28.6954C142.209 28.7859 142.283 28.9065 142.283 29.0574C142.283 29.1478 142.242 29.2308 142.164 29.3137C142.085 29.3967 141.977 29.4683 141.842 29.5324C141.708 29.5965 141.547 29.6455 141.368 29.687C141.188 29.7247 140.994 29.7435 140.784 29.7435C140.052 29.7435 139.472 29.5437 139.046 29.1403C138.62 28.7407 138.407 28.1525 138.407 27.3834C138.407 27.0214 138.46 26.6972 138.564 26.4144C138.669 26.1316 138.815 25.8903 139.002 25.6943C139.188 25.4982 139.409 25.3436 139.671 25.2418C139.929 25.1363 140.213 25.0835 140.515 25.0835C140.799 25.0835 141.061 25.1325 141.3 25.2268C141.539 25.321 141.745 25.4568 141.921 25.634C142.093 25.8074 142.231 26.0148 142.328 26.256C142.425 26.4936 142.474 26.7575 142.474 27.044C142.474 27.1835 142.444 27.2853 142.38 27.3457C142.317 27.406 142.227 27.4437 142.115 27.455L139.2 27.866H139.192ZM140.5 25.7056C140.115 25.7056 139.798 25.8413 139.544 26.1128C139.289 26.3842 139.159 26.7688 139.147 27.274L141.753 26.9121C141.719 26.5614 141.599 26.2749 141.386 26.0487C141.173 25.8225 140.882 25.7094 140.5 25.7094" fill="white"/>
<path d="M146.298 25.9659C146.1 25.8 145.831 25.717 145.498 25.717C145.244 25.717 145.019 25.7472 144.825 25.8113C144.631 25.8754 144.462 25.947 144.324 26.03V29.6042C144.294 29.6155 144.246 29.6306 144.182 29.6457C144.119 29.6607 144.051 29.6683 143.973 29.6683C143.7 29.6683 143.565 29.5552 143.565 29.3252V26.0677C143.565 25.9319 143.592 25.8226 143.648 25.7397C143.7 25.6529 143.793 25.57 143.928 25.487C144.092 25.3853 144.309 25.291 144.582 25.2118C144.855 25.1289 145.161 25.0874 145.502 25.0874C146.077 25.0874 146.529 25.2194 146.862 25.4795C147.195 25.7397 147.359 26.1506 147.359 26.7124V29.6079C147.329 29.6193 147.277 29.6343 147.214 29.6494C147.146 29.6645 147.079 29.672 147.008 29.672C146.735 29.672 146.601 29.5589 146.601 29.329V26.7501C146.601 26.3919 146.5 26.1318 146.301 25.9659" fill="white"/>
<path d="M150.271 29.7512C149.83 29.7512 149.471 29.6532 149.194 29.4572C148.918 29.2611 148.783 28.9331 148.783 28.4731V23.9337C148.813 23.9224 148.865 23.9073 148.929 23.8922C148.996 23.8772 149.067 23.8696 149.142 23.8696C149.407 23.8696 149.538 23.9827 149.538 24.2127V25.3099H151.093C151.112 25.34 151.131 25.3853 151.149 25.4381C151.168 25.4908 151.179 25.5512 151.179 25.6153C151.179 25.8302 151.086 25.9395 150.895 25.9395H149.542V28.4241C149.542 28.6805 149.613 28.8577 149.755 28.9633C149.897 29.0688 150.099 29.1216 150.357 29.1216C150.465 29.1216 150.585 29.1028 150.716 29.0651C150.846 29.0273 150.959 28.9821 151.048 28.9331C151.086 28.9708 151.119 29.0198 151.153 29.0764C151.183 29.1329 151.202 29.2008 151.202 29.2762C151.202 29.4157 151.119 29.5326 150.955 29.6193C150.79 29.7098 150.562 29.7512 150.275 29.7512" fill="white"/>
<path d="M155.452 28.4503C155.452 28.8575 155.302 29.178 155.007 29.4042C154.712 29.6342 154.282 29.7473 153.718 29.7473C153.478 29.7473 153.258 29.7285 153.056 29.687C152.854 29.6455 152.682 29.5927 152.54 29.5249C152.398 29.457 152.286 29.3816 152.207 29.2949C152.129 29.2082 152.088 29.1215 152.088 29.031C152.088 28.9556 152.107 28.8802 152.148 28.8123C152.189 28.7444 152.252 28.6803 152.331 28.6313C152.503 28.7595 152.701 28.8726 152.929 28.9706C153.157 29.0687 153.415 29.1177 153.706 29.1177C154.364 29.1177 154.693 28.8952 154.693 28.4503C154.693 28.0884 154.476 27.8509 154.039 27.7415L153.254 27.5304C152.869 27.4286 152.589 27.2816 152.409 27.0855C152.234 26.8895 152.144 26.6406 152.144 26.3352C152.144 26.1693 152.178 26.011 152.245 25.8564C152.312 25.7018 152.413 25.5699 152.551 25.4568C152.69 25.3436 152.862 25.2532 153.067 25.1853C153.273 25.1174 153.512 25.0835 153.792 25.0835C154.233 25.0835 154.592 25.1476 154.861 25.2796C155.134 25.4115 155.269 25.5623 155.269 25.732C155.269 25.8149 155.246 25.8866 155.209 25.9507C155.168 26.0148 155.112 26.0638 155.044 26.0939C154.932 26.0185 154.772 25.9356 154.562 25.8451C154.353 25.7546 154.106 25.7131 153.822 25.7131C153.538 25.7131 153.314 25.7659 153.146 25.8753C152.977 25.9846 152.895 26.1354 152.895 26.3352C152.895 26.4823 152.944 26.6067 153.037 26.7085C153.131 26.8103 153.291 26.8857 153.512 26.9385L154.166 27.1006C154.596 27.2099 154.917 27.3683 155.13 27.5832C155.343 27.7981 155.452 28.0846 155.452 28.4466" fill="white"/>
<path d="M24.8278 24.2163C24.7867 24.2804 24.7455 24.3332 24.7231 24.3897C24.6558 24.5896 24.5998 24.7894 24.5325 24.9892C24.4914 25.1099 24.4689 25.2267 24.5101 25.3474C24.5325 25.419 24.5549 25.4907 24.5773 25.5661C24.4054 25.6867 24.2036 25.7508 24.0017 25.7282C23.77 25.7018 23.5569 25.5887 23.3626 25.4492C23.2018 25.3361 23.1458 25.1664 23.2168 24.9817C23.2654 24.8497 23.3327 24.7253 23.385 24.5933C23.4112 24.5292 23.4635 24.4576 23.3476 24.4011C23.0486 24.6273 22.8355 24.9289 22.6524 25.2456C22.4618 25.5774 22.2637 25.8978 21.9235 26.0939C21.6058 26.2786 21.2731 26.3691 20.9143 26.2296C20.7798 26.1768 20.6527 26.0939 20.5218 26.0298C20.3574 25.9506 20.2452 25.6716 20.3163 25.4944C20.3761 25.3474 20.4396 25.2003 20.4957 25.0495C20.5144 25.0005 20.5032 24.944 20.5069 24.8874C20.4583 24.8987 20.4097 24.9063 20.3611 24.9213C20.3462 24.9213 20.335 24.9402 20.3237 24.9477C20.0658 25.1589 19.8042 25.3662 19.5575 25.5849C19.2659 25.8413 18.8959 26.1052 18.5109 26.1957C17.6811 26.388 15.7076 26.1957 16.2084 24.9138C16.2197 24.8874 16.2271 24.8573 16.2383 24.8271C16.1711 24.7894 16.1823 24.763 16.1 24.7479C15.973 24.7291 15.887 25.698 15.8833 25.796C15.8646 26.2334 15.8945 26.765 16.2084 27.1006C17.1279 28.0808 18.881 27.2815 19.5986 26.4634C19.6921 26.354 19.7556 26.2032 19.935 26.1882C19.9462 26.3804 19.95 26.569 19.9687 26.7537C19.9948 26.995 20.1182 27.1835 20.3163 27.323C20.4957 27.4512 20.6975 27.4927 20.9106 27.5266C21.3778 27.5982 21.7292 27.421 22.017 27.0629C22.2487 26.7763 22.3982 26.4483 22.5627 26.1241C22.6449 25.9582 22.6823 25.9431 22.8355 25.9883C22.8505 26.1278 22.8505 26.2598 22.8841 26.3804C22.9589 26.6217 23.1458 26.765 23.3663 26.8668C23.5906 26.9724 23.8298 26.9988 24.0765 26.9611C24.3157 26.9234 24.5138 26.8216 24.6334 26.6104C24.7194 26.4596 24.7754 26.2937 24.839 26.1316C24.9511 25.8488 25.0147 25.5548 25.0221 25.2494C25.0259 25.1136 25.0221 24.9741 25.0483 24.8422C25.1006 24.5971 25.0147 24.4086 24.824 24.2238" fill="white"/>
<path d="M21.4968 27.6624C21.3548 27.6699 21.2165 27.6963 21.0782 27.7039C20.7194 27.7302 20.3605 27.7529 20.0017 27.7755C19.7326 27.7906 19.4635 27.8094 19.1943 27.8207C18.6524 27.8471 18.1104 27.8697 17.5647 27.8924C17.1199 27.9112 16.6713 27.9225 16.2265 27.9376C15.7817 27.9527 15.3369 27.9829 14.8921 27.9829C14.2044 27.9829 13.5129 27.9602 12.8251 27.9376C12.5448 27.9263 12.2645 27.8886 11.9841 27.8471C11.5207 27.7755 11.0946 27.6134 10.7245 27.2929C10.8067 27.2213 10.8927 27.1609 10.96 27.0855C11.2179 26.8065 11.5431 26.6331 11.8758 26.4597C12.3953 26.1882 12.941 25.9695 13.4979 25.7886C13.7185 25.7169 13.9353 25.6377 14.1595 25.5623C14.1259 25.6415 14.0923 25.7169 14.0586 25.7923C13.9128 26.109 13.8381 26.4408 13.8867 26.7914C13.9315 27.1119 14.1932 27.3381 14.5109 27.3381C14.7127 27.3381 14.8323 27.2627 14.8772 27.0629C14.9146 26.9008 14.9146 26.7274 14.9258 26.5615C14.9258 26.5313 14.8884 26.4747 14.8735 26.4785C14.8361 26.4823 14.795 26.5087 14.7725 26.5388C14.7501 26.5652 14.7613 26.618 14.7426 26.6444C14.709 26.6934 14.6716 26.7537 14.6193 26.7764C14.466 26.8442 14.3203 26.7914 14.2119 26.6859C14.096 26.5728 14.0026 26.422 14.0586 26.2523C14.1408 26.0035 14.2492 25.7659 14.3502 25.5209C14.3614 25.4907 14.3875 25.4568 14.4174 25.4455C14.8211 25.2683 15.2099 25.0647 15.5762 24.8121C15.707 24.7216 15.849 24.714 15.9985 24.7593C16.0845 24.7744 16.1667 24.8121 16.2415 24.8535C16.2826 24.8347 16.3648 24.8799 16.4284 24.895C16.4396 24.895 16.4508 24.895 16.462 24.9025C16.7536 24.9704 17.0414 25.0534 17.3329 25.1024C17.617 25.1514 17.8936 25.1288 18.0954 24.8799C18.1627 24.797 18.2337 24.714 18.2935 24.6273C18.6 24.1673 18.7122 23.6433 18.7308 23.1041C18.7421 22.8063 18.6 22.5424 18.3645 22.3501C18.0244 22.0748 17.5946 21.9165 17.217 21.694C16.7461 21.4188 16.2564 21.1172 15.849 20.7477C15.7182 20.6271 15.5986 20.4084 15.4229 20.3594C15.307 20.5441 15.3556 20.7892 15.3332 20.9928C15.307 21.2416 15.2584 21.4829 15.1164 21.6903C15.1015 21.7129 15.0828 21.7318 15.0678 21.7544C14.922 21.9768 14.7538 22.188 14.6342 22.4255C14.4698 22.746 14.3427 23.089 14.2941 23.451C14.2679 23.6395 14.253 23.8318 14.3502 24.0052C14.4212 24.1296 14.5034 24.2465 14.5894 24.3747C14.2343 24.518 13.868 24.6688 13.4979 24.8083C13.0905 24.9666 12.6644 25.0873 12.2682 25.272C11.9542 25.4191 11.6702 25.6302 11.3824 25.8263C11.0347 26.0676 10.7806 26.3993 10.5488 26.7462C10.3545 27.0365 10.2349 27.3645 10.1339 27.6963C10.0255 28.0545 10.0779 28.3825 10.3769 28.62C10.5376 28.7482 10.7282 28.8462 10.9189 28.9254C11.4609 29.1441 12.0365 29.1856 12.6084 29.2044C13.1503 29.2233 13.6961 29.1931 14.238 29.1856C14.2605 29.1856 14.2829 29.1743 14.3053 29.1743C14.5072 29.1592 14.7127 29.1441 14.922 29.1328C14.9071 29.1893 14.8921 29.227 14.8921 29.2647C14.8884 29.4156 14.8585 29.5739 14.8921 29.7209C14.937 29.9245 15.1426 30.0452 15.3033 29.9962C15.5164 29.9321 15.6023 29.6719 15.4752 29.4419C15.4491 29.4834 15.4117 29.5211 15.4005 29.5588C15.3818 29.6455 15.3295 29.6569 15.2584 29.6569C15.1127 29.6569 14.9818 29.5287 14.9818 29.3778C14.9818 29.2987 15.0118 29.2233 15.0267 29.1516C15.1538 29.1366 15.2622 29.1177 15.3743 29.1139C15.6958 29.1064 16.0172 29.0951 16.3349 29.0649C16.6265 29.0385 16.9255 29.0348 17.2208 28.9933C17.5609 28.948 17.9048 28.8953 18.2449 28.8312C18.757 28.7331 19.2691 28.6351 19.7812 28.5182C20.2895 28.3976 20.7866 28.2392 21.2651 28.0281C21.3772 27.9791 21.4819 27.9188 21.5828 27.8471C21.6127 27.8245 21.6239 27.7529 21.6164 27.7114C21.6127 27.6888 21.5454 27.6624 21.508 27.6624M16.918 22.9382C17.2507 23.1117 17.5833 23.2851 17.9123 23.4623C17.9833 23.5 18.0506 23.5566 18.1104 23.6169C18.1777 23.6847 18.1627 23.7752 18.0767 23.8167C17.8973 23.9034 17.7104 23.8883 17.5273 23.862C17.2731 23.8242 17.0227 23.7602 16.776 23.6998C16.7498 23.6923 16.705 23.6433 16.7087 23.6207C16.7498 23.3944 16.7648 23.1569 16.9218 22.9382M14.9071 22.8327C15.0566 22.5914 15.2734 22.4293 15.5238 22.3086C15.7107 22.2181 15.864 22.2973 15.9836 22.4293C16.1667 22.6215 16.2901 22.8553 16.3835 23.1041C16.4246 23.2135 16.4022 23.3002 16.3312 23.3794C16.2602 23.4623 16.2004 23.5641 16.0322 23.5641C15.935 23.5302 15.8042 23.4962 15.6808 23.4435C15.4453 23.3454 15.2136 23.2436 14.9818 23.1418C14.8286 23.0702 14.8136 22.9872 14.9034 22.8364" fill="white"/>
<path d="M30.2919 12.8905C30.2247 12.5361 30.191 12.1704 30.0938 11.8235C29.9518 11.3108 29.7761 10.8093 29.6005 10.3041C29.3949 9.71216 29.1108 9.1617 28.8043 8.61879C28.3707 7.85342 27.8325 7.16346 27.2382 6.51498C27.1672 6.43957 27.1073 6.35663 27.0289 6.2586C26.9466 6.38679 26.8831 6.46219 26.8382 6.55268C26.6588 6.92971 26.6214 7.32558 26.6626 7.74031C26.7074 8.18143 26.7111 8.6301 26.7373 9.07122C26.7485 9.27858 26.7635 9.48595 26.7859 9.69331C26.8121 9.95346 26.8457 10.2098 26.8756 10.47C26.9018 10.6962 26.9205 10.9224 26.9466 11.1449C26.9877 11.4842 27.0363 11.8197 27.0849 12.1591C27.1148 12.374 27.1485 12.5926 27.1746 12.8076C27.2008 12.9998 27.2232 13.1959 27.2456 13.3919C27.2756 13.6144 27.3055 13.8406 27.3316 14.063C27.3578 14.2704 27.3204 14.4627 27.1522 14.5306C26.8831 14.6437 26.6102 14.7228 26.3112 14.7078C26.0682 14.6965 25.8552 14.6173 25.6907 14.4363C25.5562 14.2855 25.4478 14.1196 25.5038 13.9009C25.5337 13.7954 25.5786 13.6973 25.6122 13.5918C25.6234 13.5541 25.6197 13.5088 25.6197 13.4673C25.5786 13.4711 25.5375 13.4749 25.4926 13.4824C25.4739 13.4824 25.459 13.4975 25.444 13.5088C25.2385 13.7086 25.0291 13.9047 24.831 14.1083C24.6404 14.3081 24.4386 14.4966 24.1994 14.6324C23.863 14.8246 23.5004 14.8774 23.1191 14.8661C22.8126 14.8586 22.5435 14.7568 22.2856 14.5683C22.3753 14.5079 22.4538 14.4438 22.5398 14.3986C22.8238 14.2516 23.093 14.0819 23.4144 14.0216C23.5116 14.0027 23.5864 13.9575 23.6237 13.8519C23.7321 13.5616 23.848 13.2788 23.9601 12.9885C23.9863 12.9169 23.9676 12.8641 23.8966 12.8264C23.7134 12.7321 23.5378 12.6303 23.3509 12.5436C22.9023 12.3363 22.4314 12.2156 21.9455 12.1515C21.71 12.1176 21.4745 12.1101 21.239 12.0761C20.9101 12.0271 20.5849 12.046 20.2672 12.1138C19.9794 12.1741 19.6991 12.2722 19.4225 12.3664C19.344 12.3928 19.258 12.4607 19.2206 12.5361C19.101 12.7698 18.9851 13.0074 18.8992 13.2524C18.8319 13.4372 18.8132 13.6408 18.7721 13.8368L18.8095 13.8519C18.888 13.7991 18.9627 13.7388 19.0412 13.6936C19.1758 13.6144 19.3253 13.5277 19.4785 13.5691C19.6953 13.6257 19.9084 13.7162 20.1065 13.818C20.327 13.9311 20.5139 14.0932 20.6858 14.293C20.6372 14.327 20.6036 14.3571 20.5625 14.376C20.3121 14.474 20.0654 14.5871 19.8075 14.655C19.5271 14.7304 19.2393 14.7983 18.9515 14.8133C18.7272 14.8246 18.4918 14.7681 18.2712 14.7002C17.9498 14.6022 17.6919 14.3986 17.5125 14.1083C17.3517 13.8444 17.2471 13.5578 17.1947 13.2562C17.1162 12.8226 17.0527 12.3853 17.0079 11.9479C16.9667 11.5257 16.9555 11.0996 16.9331 10.6774C16.9181 10.372 16.9032 10.0666 16.8845 9.76118C16.877 9.62922 16.8583 9.49349 16.8397 9.36153C16.8135 9.19564 16.8434 9.14285 16.9555 9.05991C17.2545 8.84123 17.5498 8.62256 17.8376 8.3888C18.0021 8.25684 18.1479 8.10226 18.2936 7.95522C18.4319 7.81572 18.5815 7.68376 18.6861 7.52541C18.9216 7.16346 19.0823 6.76381 19.1608 6.334C19.1795 6.2209 19.1982 6.11156 19.3365 6.06632C19.4711 6.02484 19.6019 5.95698 19.7364 5.90419C19.9046 5.83633 20.0728 5.76469 20.2523 5.68929C20.1924 5.96452 20.1924 6.21713 20.2747 6.46973C20.2822 6.49613 20.2747 6.54137 20.256 6.56399C20.1812 6.65071 20.0953 6.72988 20.0205 6.82037C19.8187 7.06544 19.6991 7.35198 19.6131 7.65737C19.5533 7.87227 19.557 8.07964 19.6692 8.27946C19.8224 8.55469 20.1775 8.62256 20.3793 8.40388C20.5027 8.27192 20.5662 8.10603 20.5774 7.92506C20.5812 7.84965 20.5774 7.77802 20.5774 7.70261C20.5625 7.69507 20.5475 7.68753 20.5288 7.68376C20.4915 7.74031 20.4429 7.78933 20.413 7.84965C20.3569 7.97407 20.2635 8.01554 20.1326 7.99669C19.8897 7.96276 19.7252 7.62344 19.8523 7.38968C19.9196 7.26149 19.9794 7.12576 20.0541 7.00511C20.1364 6.87692 20.2373 6.75627 20.3307 6.63186C20.4018 6.72988 20.4429 6.82414 20.5139 6.87315C20.6447 6.96741 20.7905 7.04658 20.9363 7.11822C21.1194 7.20871 21.3175 7.2351 21.5156 7.20117C21.8558 7.14461 22.1361 6.97872 22.3641 6.71103C22.5921 6.43957 22.7491 6.13418 22.8463 5.79863C22.8874 5.65536 22.992 5.58749 23.0818 5.48946C23.0818 5.65913 23.0705 5.80617 23.0818 5.95321C23.1004 6.13795 23.2014 6.29253 23.3284 6.41695C23.534 6.61677 23.7994 6.70726 24.0685 6.77513C24.1956 6.80906 24.3526 6.80152 24.4759 6.76004C24.7899 6.65825 25.0067 6.44711 25.1002 6.1191C25.2048 5.74207 25.302 5.36505 25.302 4.96917C25.302 4.80705 25.3057 4.63738 25.2721 4.47903C25.2385 4.31314 25.1787 4.15102 25.1002 4.00021C25.0291 3.86071 24.9394 3.87202 24.8796 4.01906C24.8161 4.18118 24.7638 4.35084 24.7264 4.52051C24.6927 4.6864 24.6329 4.85606 24.7226 5.02572C24.7638 5.10113 24.7974 5.17653 24.8348 5.25194C24.9058 5.39144 24.8983 5.42537 24.7451 5.48569C24.6703 5.51586 24.5843 5.54225 24.5059 5.54602C24.1134 5.57241 23.777 5.43668 23.5191 5.13883C23.3359 4.9277 23.321 4.6223 23.4705 4.38478C23.5079 4.32822 23.5415 4.26413 23.5527 4.20003C23.5639 4.14348 23.5415 4.08316 23.534 4.0266C23.5191 4.0266 23.5079 4.0266 23.4929 4.02283C23.4144 4.12086 23.321 4.21134 23.2574 4.31691C23.0519 4.65247 22.85 4.98802 22.6556 5.33111C22.4276 5.72699 22.1025 5.96452 21.639 5.97206C21.2353 5.97583 20.9101 5.78732 20.6298 5.50832C20.5999 5.47815 20.5924 5.41029 20.6036 5.36505C20.6709 5.05588 20.7456 4.74672 20.8167 4.4451C20.2485 4.66378 19.6878 4.88245 19.1421 5.08982C18.9253 4.75426 18.7235 4.44133 18.5254 4.13217C18.8132 3.9512 19.1234 3.76645 19.4187 3.55909C19.714 3.35549 19.9943 3.12928 20.2896 2.9106C20.3606 3.00863 20.4317 3.10666 20.5064 3.20845C20.6784 3.08404 20.8054 2.92191 20.9138 2.74094C20.9923 2.60521 20.9961 2.48456 20.8914 2.36769C20.7942 2.25835 20.7905 2.14901 20.869 2.02836C20.8989 1.98312 20.9251 1.92656 20.9475 1.87378C21.0746 1.57593 21.1456 1.27808 20.9849 0.968917C20.9288 0.863349 20.8615 0.787944 20.7382 0.772863C20.5288 0.746471 20.3494 0.825647 20.2074 0.965146C20.0355 1.13104 19.8747 1.31201 19.7215 1.50052C19.5645 1.69281 19.5757 1.95673 19.729 2.14524C19.8448 2.29228 19.957 2.44309 20.0728 2.59013C20.1252 2.65423 20.1476 2.71078 20.0541 2.75979C19.9981 2.78995 19.957 2.84651 19.9046 2.88421C19.5084 3.16698 19.1122 3.44598 18.7123 3.72498C18.5889 3.8117 18.4619 3.8871 18.3236 3.97382C18.2937 3.9512 18.2525 3.92103 18.2114 3.89087C18.0395 3.76645 17.8675 3.63826 17.6433 3.63072C17.2695 3.61941 17.0191 3.81924 16.806 4.10201C16.5556 4.43756 16.4023 4.81459 16.2603 5.20292C16.1257 5.57241 16.2715 5.96452 16.4995 6.1568C16.7387 6.3604 17.034 6.44334 17.3405 6.45842C17.718 6.47727 18.0881 6.43957 18.4506 6.33023C18.5179 6.30761 18.6338 6.34155 18.6899 6.39056C18.7534 6.45088 18.7085 6.54137 18.6487 6.60546C18.5329 6.72988 18.4282 6.87692 18.2936 6.97872C17.9087 7.26526 17.5162 7.54049 17.1237 7.80818C17.0041 7.89112 16.8658 7.94768 16.72 8.02685C16.6378 7.5518 16.5593 7.09937 16.4808 6.64694H16.421C16.3313 6.91085 16.2416 7.17477 16.1556 7.44246C16.0622 7.72523 16.0472 8.01177 16.107 8.30208C16.122 8.36618 16.0846 8.3888 16.0286 8.40388C15.7968 8.47552 15.5688 8.55846 15.3371 8.62633C14.9633 8.73566 14.582 8.78468 14.197 8.68665C13.969 8.62633 13.7597 8.5283 13.5691 8.36995C13.741 8.21537 13.9018 8.06833 14.0662 7.92506C14.3129 7.71015 14.5671 7.51033 14.8063 7.28788C15.0717 7.04281 15.2773 6.74496 15.4081 6.40564C15.494 6.18696 15.5763 5.96452 15.6361 5.7383C15.6884 5.53471 15.7108 5.32357 15.7295 5.11621C15.7557 4.8636 15.7706 4.60722 15.7744 4.35461C15.7744 4.25659 15.7482 4.14725 15.7071 4.05676C15.5426 3.72875 15.3632 3.40828 15.1988 3.08027C15.0829 2.84651 15.0268 2.59767 15.0754 2.33375C15.0866 2.26589 15.1128 2.16786 15.0754 2.13016C14.9035 1.93787 14.7166 1.76067 14.5073 1.54954C14.4288 1.77198 14.3428 1.96804 14.2942 2.17163C14.2531 2.34506 14.1933 2.54112 14.2382 2.70324C14.3391 3.08027 14.4736 3.45352 14.6418 3.80416C14.8362 4.20757 15.0717 4.59591 15.3146 4.97294C15.4604 5.19915 15.4268 5.36882 15.3146 5.56487C15.1576 5.83633 14.9259 6.04369 14.6979 6.24729C14.3353 6.57153 13.9541 6.87692 13.5691 7.17854C13.4009 7.3105 13.214 7.41607 13.0271 7.54049C12.9598 7.15969 13.0421 6.8166 13.1878 6.50367C13.3486 6.16057 13.5728 5.84764 13.7597 5.51209C13.8569 5.34242 13.9429 5.16145 14.0101 4.97671C14.0737 4.79951 14.1298 4.61476 14.0886 4.41117C14.0662 4.43379 14.0513 4.4451 14.0401 4.46018C13.8793 4.70148 13.7149 4.93901 13.5579 5.1803C13.3448 5.50455 13.1505 5.84387 13.0234 6.21336C12.8626 6.6771 12.8028 7.16346 12.7318 7.64606C12.7243 7.70638 12.7094 7.7931 12.6683 7.81949C12.3618 8.03439 12.0515 8.24553 11.7301 8.44535C11.3601 8.67534 10.9825 8.89401 10.605 9.11269C10.377 9.24842 10.1528 9.39546 9.91354 9.5048C9.41267 9.73101 8.90433 9.93461 8.39973 10.1495C8.36609 10.1646 8.33245 10.1797 8.29881 10.1948C8.14182 9.98739 7.99231 9.78757 7.83533 9.57643C7.97362 9.51611 8.10818 9.46332 8.23527 9.39923C8.94919 9.04105 9.62946 8.6301 10.2873 8.17389C10.5377 8.00046 10.7471 7.78933 10.9265 7.54049C11.1545 7.22002 11.2704 6.85807 11.39 6.48858C11.4909 6.18319 11.5021 5.87026 11.4759 5.55733C11.4498 5.24817 11.3488 4.95409 11.218 4.67509C11.1022 4.42625 11.005 4.18872 11.1022 3.90595C11.1246 3.83809 11.0872 3.72498 11.0423 3.66089C10.9564 3.53647 10.8405 3.43467 10.7321 3.31779C10.7994 3.20091 10.8741 3.09535 10.9227 2.97847C11.0648 2.64291 11.2105 2.30736 11.3339 1.96427C11.3937 1.80215 11.4348 1.62117 11.4273 1.45151C11.4161 1.18382 11.3563 1.03678 11.0274 1.06694C10.7284 1.09711 10.4406 1.16874 10.1565 1.27054C9.45753 1.52315 8.79967 1.86247 8.16799 2.25081C7.48771 2.66931 6.81865 3.11797 6.15706 3.5704C5.75338 3.84563 5.36465 4.15102 4.97966 4.45641C4.81146 4.59214 4.65073 4.74672 4.51617 4.91261C4.30312 5.17653 4.20594 5.497 4.14613 5.82502C4.11623 5.98714 4.07138 6.16434 4.10875 6.31515C4.16482 6.54514 4.25826 6.77513 4.38161 6.97495C4.51243 7.18608 4.69185 7.36329 4.85257 7.55557C5.14038 7.90243 5.43193 8.24553 5.71974 8.59239C5.79449 8.68288 5.86551 8.77337 5.94401 8.87516C5.78328 8.89401 5.64498 8.92795 5.50669 8.92795C5.17028 8.92418 4.83762 8.87893 4.51991 8.74697C4.29564 8.65649 4.0639 8.57354 3.88449 8.40011C3.46585 8.00423 3.29765 7.51787 3.40605 6.94856C3.48081 6.55645 3.60041 6.18319 3.77983 5.82502C3.83216 5.71568 3.86206 5.59503 3.88822 5.47815C3.8957 5.44422 3.85832 5.40275 3.84337 5.36128C3.80599 5.38013 3.74993 5.38767 3.73497 5.41783C3.57425 5.70437 3.3911 5.9796 3.27523 6.28499C3.04348 6.89577 2.85286 7.52541 2.89397 8.19652C2.89397 8.23045 2.88276 8.27569 2.86033 8.29831C2.74446 8.43027 2.61738 8.54715 2.50898 8.68288C2.33704 8.89779 2.1651 9.11269 2.01559 9.34268C1.76516 9.72347 1.56332 10.1307 1.41007 10.5605C1.22318 11.0921 1.02882 11.6199 1.06246 12.2005C1.07741 12.4984 1.17085 12.7698 1.33905 13.0111C1.38391 13.0752 1.38017 13.1092 1.35401 13.1733C1.22692 13.4749 1.09236 13.7765 0.983964 14.0819C0.789599 14.7228 0.714844 15.3902 0.714844 16.0726C0.714844 16.4006 0.755959 16.7135 0.879306 17.0189C1.05872 17.4601 1.30541 17.8371 1.71283 18.0972C1.98569 18.2707 2.28098 18.3913 2.60243 18.4743C2.39311 18.791 2.25107 19.1303 2.16884 19.4922C2.12399 19.6921 2.11278 19.9032 2.08287 20.1068C2.02307 20.4876 2.09782 20.8382 2.31088 21.1587C2.42301 21.3284 2.59121 21.3736 2.77436 21.3359C2.93883 21.302 3.00611 21.1662 3.06217 21.0192C3.14814 20.7817 3.13319 20.5328 3.12945 20.284C3.12945 20.235 3.0846 20.1897 3.05844 20.1445C3.02106 20.1897 2.98368 20.2312 2.95004 20.2764C2.94256 20.2878 2.95004 20.3066 2.95004 20.3217C2.94256 20.4197 2.94256 20.5253 2.82669 20.5668C2.71456 20.6045 2.60616 20.612 2.50524 20.5253C2.28845 20.3368 2.20996 20.0879 2.26229 19.8202C2.35573 19.3603 2.46413 18.9041 2.73699 18.5157H4.04147C4.04147 18.5157 4.03026 18.5572 4.02278 18.5911C3.97419 18.7646 3.91439 18.9342 3.88449 19.1114C3.83216 19.4244 3.79852 19.7411 3.76488 20.0578C3.73124 20.3669 3.68265 20.6799 3.74245 20.9928C3.79852 21.302 3.85458 21.6073 3.9256 21.9127C3.9555 22.0372 3.98167 22.139 3.86953 22.237C3.82094 22.2785 3.79478 22.3539 3.76861 22.4142C3.58546 22.7988 3.50323 23.2022 3.51071 23.6282C3.51445 23.828 3.5892 23.9939 3.69386 24.1598C3.77983 24.2955 3.90318 24.3031 4.034 24.288C4.15734 24.2729 4.21715 24.1711 4.2321 24.0618C4.25826 23.8884 4.26948 23.7112 4.28069 23.534C4.28069 23.5 4.25453 23.4623 4.23958 23.4246C4.21341 23.451 4.18351 23.4774 4.16482 23.5076C4.14987 23.5264 4.14613 23.5566 4.14613 23.583C4.13492 23.7262 3.97793 23.8016 3.85458 23.7225C3.72002 23.6395 3.59668 23.3718 3.63779 23.2173C3.7275 22.8628 3.79852 22.5009 4.01157 22.2144C4.13118 22.3953 4.23584 22.6027 4.38161 22.7761C4.71801 23.172 5.1815 23.3605 5.65993 23.5189C6.05988 23.6471 6.47103 23.6998 6.88967 23.6358C7.09524 23.6056 7.3083 23.5867 7.50266 23.5189C7.91756 23.3718 8.32124 23.2059 8.72866 23.0363C9.27064 22.8101 9.80888 22.5763 10.3471 22.3388C10.919 22.0862 11.4722 21.7959 12.003 21.4565C12.3095 21.2605 12.616 21.0456 12.8178 20.744C13.128 20.2878 13.3299 19.7863 13.3224 19.2095C13.3149 18.7269 12.9748 18.331 12.5412 18.2292C12.3132 18.1764 12.0815 18.1462 11.8534 18.1085C12.2272 17.3017 12.3431 16.4383 12.2571 15.5335C12.5861 15.541 12.8925 15.4618 13.143 15.2695C13.4383 15.0395 13.6999 14.7643 13.9765 14.5042C14.0475 14.4363 14.1036 14.3571 14.1783 14.2742C14.1783 14.4665 14.1634 14.6361 14.1821 14.7983C14.2008 14.9491 14.2382 15.1074 14.3054 15.2431C14.4213 15.4844 14.6344 15.6126 14.8923 15.6767C14.9296 15.688 14.982 15.7408 14.9894 15.7785C15.0081 15.9142 15.0081 16.0575 15.0156 16.1932C15.0306 16.427 15.038 16.6645 15.0642 16.8983C15.1053 17.2942 15.1539 17.69 15.2025 18.0859C15.2287 18.282 15.2511 18.4818 15.2885 18.6779C15.367 19.0587 15.5127 19.4168 15.6922 19.7561C16.1369 20.5931 17.1312 21.0494 18.0507 20.9476C18.4058 20.9099 18.7422 20.8231 19.0636 20.6648C19.5645 20.4159 20.0392 20.1219 20.4877 19.7901C20.5588 19.7373 20.6372 19.6883 20.7195 19.6506C20.7419 19.6393 20.8054 19.6732 20.8129 19.6958C20.8652 19.873 20.9064 20.0502 20.9587 20.2425C20.9662 20.2387 20.9512 20.2538 20.9363 20.2576C20.5288 20.4386 20.2336 20.7402 20.0056 21.1172C19.8747 21.3359 19.7626 21.5546 19.8187 21.826C19.8897 22.1804 20.1625 22.3048 20.4242 22.2219C20.5849 22.1729 20.6709 22.0296 20.7419 21.8939C20.798 21.7846 20.8204 21.6564 20.8615 21.5244C20.7157 21.5357 20.7195 21.5395 20.6298 21.6564C20.5961 21.7016 20.5251 21.7582 20.4765 21.7506C20.1027 21.7091 20.0018 21.3057 20.1738 21.1059C20.3345 20.9174 20.484 20.7251 20.6597 20.5517C20.7643 20.4499 20.9064 20.382 21.0372 20.2953C21.082 20.3443 21.1157 20.3858 21.1568 20.4235C21.4297 20.6799 21.7735 20.7741 22.1249 20.7364C22.5136 20.6949 22.8238 20.465 23.0406 20.1332C23.1528 19.9635 23.235 19.7712 23.3247 19.5865C23.377 19.4809 23.4593 19.4244 23.5639 19.4131C23.6686 19.4017 23.6499 19.5186 23.6873 19.5789C23.6947 19.5865 23.6947 19.6016 23.6947 19.6129C23.7845 19.9409 24.005 20.1483 24.3227 20.2387C24.4647 20.2764 24.618 20.2764 24.7675 20.2764C25.0815 20.2764 25.3356 20.1143 25.4328 19.8014C25.5038 19.5714 25.5599 19.3376 25.6085 19.1039C25.6945 18.7118 25.7954 18.3197 25.7842 17.9125C25.7767 17.7014 25.6907 17.5392 25.4814 17.4337C25.4403 17.5053 25.388 17.5656 25.3693 17.6373C25.302 17.8899 25.2385 18.1462 25.1824 18.4026C25.1674 18.4743 25.1637 18.5647 25.1899 18.6326C25.2235 18.7231 25.2908 18.7985 25.3543 18.8928C25.2609 18.9305 25.1787 18.9682 25.0927 18.9946C24.8759 19.0587 24.6554 19.0964 24.4498 18.9682C24.3152 18.8852 24.1956 18.7759 24.0685 18.6779C23.9601 18.5949 23.9452 18.478 23.9826 18.3649C24.0349 18.199 24.1096 18.0407 24.1732 17.8786C24.1844 17.8522 24.1807 17.8182 24.1807 17.7881C24.147 17.7881 24.0984 17.7805 24.0797 17.7994C24.0162 17.8672 23.9564 17.9389 23.9041 18.0181C23.7209 18.3046 23.5527 18.5987 23.3621 18.8777C23.2537 19.0323 23.1229 19.1831 22.9734 19.2924C22.4874 19.643 21.7847 19.5752 21.31 19.1755C21.2801 19.1491 21.2502 19.0926 21.2577 19.0586C21.2764 18.9229 21.3063 18.791 21.3399 18.659C21.3698 18.5459 21.411 18.4366 21.4558 18.2971C21.3885 18.3197 21.3512 18.3234 21.325 18.3385C21.1045 18.4629 20.8765 18.5798 20.6597 18.7156C20.2485 18.9757 19.8486 19.2472 19.4038 19.447C19.0599 19.6016 18.6973 19.6883 18.3273 19.7109C18.0582 19.726 17.7816 19.7109 17.5125 19.6657C16.877 19.5601 16.4098 19.1944 16.0958 18.6288C15.7632 18.0294 15.6996 17.3583 15.6137 16.6985C15.5912 16.5326 15.5688 16.3629 15.5501 16.197C15.5352 16.0387 15.5277 15.8803 15.5202 15.722C15.5202 15.6956 15.5426 15.6541 15.5613 15.6503C15.7669 15.6202 15.9239 15.5071 16.0809 15.3864C16.2827 15.2318 16.4621 15.0546 16.5668 14.8133C16.6079 14.7228 16.6528 14.6324 16.7088 14.5532C16.7313 14.5192 16.7798 14.5004 16.8172 14.4778C16.8397 14.5193 16.8696 14.557 16.8845 14.6022C17.034 15.0094 17.1723 15.4166 17.5274 15.6993C17.789 15.9067 18.0843 16.0349 18.4133 16.0387C18.6674 16.0387 18.9253 16.0123 19.1758 15.9708C19.6168 15.8954 20.0355 15.7333 20.4391 15.5372C20.6709 15.4241 20.8951 15.2959 21.1269 15.179C21.2876 15.0961 21.4147 15.1225 21.4895 15.2469C21.6427 15.4995 21.8632 15.6843 22.1099 15.8313C22.2744 15.9293 22.4575 15.9972 22.637 16.0651C22.9061 16.1669 23.1827 16.1744 23.4593 16.099C23.9975 15.9482 24.3713 15.5749 24.7114 15.1527C24.7899 15.0509 24.8647 14.9453 24.9544 14.8548C25.0179 14.7869 25.0927 14.8209 25.1039 14.9151C25.1114 14.9792 25.1188 15.0433 25.1263 15.1074C25.1525 15.3374 25.2534 15.541 25.4253 15.6843C25.7169 15.9369 26.0645 16.0311 26.4458 15.9482C26.9541 15.8388 27.3204 15.5372 27.5447 15.081C27.6718 14.8209 27.7502 14.5343 27.8325 14.2516C27.9484 13.8519 27.9409 13.441 27.9072 13.0338C27.8811 12.6907 27.8138 12.3513 27.7727 12.0083C27.7278 11.6501 27.6979 11.2919 27.6531 10.9337C27.6045 10.5303 27.5447 10.1269 27.4923 9.72724C27.4438 9.35399 27.3989 8.98073 27.354 8.60747C27.3428 8.52453 27.3391 8.43781 27.3316 8.32093C27.4438 8.47551 27.5372 8.59993 27.6306 8.72435C28.0567 9.28612 28.4455 9.87805 28.7595 10.5115C28.9837 10.9601 29.1519 11.4389 29.3538 11.8989C29.3949 11.9932 29.3837 12.0384 29.2977 12.0874C29.2341 12.1214 29.1856 12.1779 29.1295 12.2269C28.8305 12.5172 28.6286 12.8679 28.4679 13.2487C28.3147 13.6182 28.2698 13.9876 28.4156 14.376C28.4791 14.5419 28.737 14.7078 28.8977 14.6324C28.9949 14.5871 29.0959 14.5004 29.1407 14.4061C29.2304 14.2252 29.2865 14.0253 29.35 13.8293C29.365 13.7878 29.3425 13.7313 29.3351 13.6823C29.294 13.7049 29.2528 13.7275 29.2155 13.7577C29.2005 13.769 29.193 13.7954 29.1856 13.818C29.1071 14.0442 28.9875 14.0103 28.8417 13.9273C28.6511 13.8218 28.595 13.5126 28.6436 13.2864C28.6959 13.0451 28.8492 12.8566 28.98 12.6567C29.0996 12.4645 29.2341 12.2873 29.4472 12.1478C29.8957 13.867 30.0266 15.5712 29.4995 17.3092C29.3089 16.9963 29.1183 16.7173 28.823 16.5363C28.6772 16.4459 28.5128 16.3818 28.3371 16.4044C28.0007 16.4459 27.7577 16.6495 27.5634 16.9209C27.3428 17.2301 27.1821 17.5732 27.1148 17.9502C27.0812 18.1425 26.9803 18.331 27.055 18.5346C27.0849 18.6175 27.126 18.6967 27.1634 18.7797C26.9578 18.938 26.7224 19.2057 26.5878 19.447C26.4757 19.6544 26.3747 19.8617 26.4196 20.1181C26.4757 20.4348 26.7822 20.6271 27.0588 20.4951C27.141 20.4574 27.212 20.3858 27.2681 20.3104C27.3727 20.1709 27.4475 20.0125 27.4288 19.8127C27.369 19.8391 27.3092 19.8655 27.2755 19.9145C27.2307 19.9748 27.2008 20.0351 27.1073 20.0314C26.9653 20.0314 26.842 19.9937 26.7709 19.8579C26.6925 19.7071 26.6626 19.5488 26.7784 19.4055C26.913 19.2321 27.0625 19.0737 27.2008 18.9041C27.2419 18.8551 27.2718 18.8701 27.3129 18.9041C27.6045 19.119 27.9409 19.2245 28.296 19.2509C28.5913 19.2736 28.8716 19.3188 29.1332 19.4734C29.3313 19.5903 29.3799 19.7825 29.2528 19.9748C29.1145 20.1784 28.9015 20.2878 28.7034 20.4084C28.2735 20.6723 27.84 20.9287 27.3952 21.1662C26.9952 21.3811 26.5878 21.5772 26.1766 21.7582C25.7356 21.9504 25.2908 22.1276 24.8385 22.2935C24.2704 22.5009 23.6985 22.7045 23.1229 22.8817C22.5884 23.0476 22.0464 23.1833 21.5044 23.319C21.1493 23.4095 20.7868 23.4661 20.4279 23.549C20.3233 23.5717 20.2261 23.6282 20.1326 23.6848C20.0654 23.7262 20.0766 23.7903 20.1513 23.8205C20.185 23.8356 20.2223 23.8469 20.2597 23.8469C20.6335 23.8657 21.0035 23.8921 21.3773 23.8921C21.71 23.8921 22.0464 23.8657 22.379 23.8469C22.5958 23.8356 22.8164 23.828 23.0294 23.7979C23.3621 23.7489 23.6948 23.681 24.0237 23.6131C24.6666 23.4812 25.287 23.27 25.8851 23.0061C26.0309 22.942 26.1766 22.8817 26.3224 22.8176C26.2439 23.074 26.158 23.319 26.0907 23.5679C26.0159 23.8356 25.9972 24.107 26.1019 24.371C26.1617 24.5218 26.2178 24.6877 26.3972 24.7367C26.6588 24.8045 26.8644 24.6801 26.9803 24.5029C27.1186 24.2955 27.2045 24.0618 27.2344 23.813C27.2494 23.6923 27.2606 23.5754 27.2718 23.4322C27.1036 23.4925 27.0662 23.6131 27.0251 23.73C26.9578 23.9223 26.7597 24.009 26.5803 23.9185C26.3934 23.8243 26.3523 23.6395 26.3299 23.4585C26.3037 23.2059 26.4345 22.9948 26.5392 22.7761C26.5654 22.7196 26.6214 22.663 26.6775 22.6366C27.0737 22.4293 27.4774 22.2332 27.8736 22.0258C28.2212 21.8449 28.5427 21.6149 28.8379 21.3547C29.1557 21.0757 29.3575 20.7213 29.5107 20.3292C29.7051 19.8353 29.7836 19.3188 29.8098 18.7947C29.8285 18.4441 29.7948 18.0935 29.6789 17.7579C29.6266 17.6109 29.6528 17.4978 29.7163 17.362C29.8546 17.0566 29.9817 16.7475 30.0901 16.4308C30.2733 15.9067 30.3667 15.36 30.3854 14.8096C30.4078 14.1724 30.4228 13.5314 30.2994 12.898M20.1102 1.51183C20.1326 1.45905 20.2037 1.40627 20.2635 1.39496C20.4541 1.36102 20.626 1.45151 20.6784 1.63625C20.712 1.74559 20.6784 1.87378 20.6784 1.99443L20.626 2.00197C20.4765 1.88886 20.327 1.78329 20.1812 1.66265C20.1401 1.62871 20.0915 1.54577 20.1065 1.51183M17.049 5.10867C16.9742 5.07851 16.9705 4.98425 17.0228 4.92015C17.1088 4.81082 17.2284 4.81459 17.3368 4.83721C17.5835 4.89753 17.7853 5.04457 17.9722 5.25194C17.6433 5.25194 17.3405 5.22555 17.0527 5.10867M5.42445 6.62054C5.25999 6.4358 5.0731 6.26614 4.88621 6.10025C4.68437 5.91928 4.75539 5.71568 4.91238 5.58749C5.14786 5.38767 5.39455 5.20292 5.64498 5.02195C6.03371 4.73541 6.42618 4.45641 6.81865 4.17364C6.93452 4.0907 7.05787 4.01906 7.18869 3.93989C7.06534 4.13971 6.942 4.32445 6.8336 4.51674C6.62428 4.89376 6.48972 5.30472 6.38507 5.72322C6.32152 5.96829 6.2991 6.21713 6.31778 6.46973C6.33647 6.71103 6.42244 6.93348 6.59064 7.11068C6.76258 7.29165 7.09524 7.24641 7.2784 7.08429C7.45781 6.92594 7.52883 6.69972 7.58863 6.48104C7.64096 6.29253 7.65591 6.09271 7.68208 5.89665C7.68581 5.85895 7.66339 5.81748 7.65217 5.77223C7.54752 5.76092 7.5064 5.83256 7.46902 5.90419C7.45781 5.92682 7.45033 5.95321 7.44286 5.9796C7.35689 6.2586 7.30082 6.2963 7.09524 6.31138C6.8635 6.33023 6.73642 6.16057 6.6654 5.96829C6.57943 5.7383 6.60186 5.50832 6.6953 5.28587C6.82612 4.97671 6.94947 4.66378 7.1102 4.3697C7.24102 4.1284 7.40174 3.8871 7.59237 3.69105C7.75309 3.52516 7.97362 3.41582 8.17173 3.2914C8.34367 3.18583 8.51934 3.08781 8.69875 2.98601C8.64269 3.17829 8.57541 3.35926 8.53803 3.54401C8.48196 3.82678 8.40347 4.11332 8.52308 4.39986C8.57167 4.51297 8.63521 4.63738 8.72492 4.70902C8.90433 4.85229 9.17345 4.75426 9.25195 4.52051C9.2968 4.39232 9.30801 4.25282 9.33044 4.11709C9.34165 4.04922 9.35287 3.98136 9.35287 3.91349C9.35287 3.87579 9.32296 3.84186 9.30428 3.80793C9.27811 3.83055 9.24821 3.8494 9.22578 3.87956C9.20709 3.90595 9.19962 3.94366 9.19214 3.97382C9.14355 4.17364 8.94171 4.23774 8.79594 4.09447C8.64643 3.94743 8.59783 3.75891 8.65764 3.55909C8.72118 3.35172 8.7922 3.14813 8.87069 2.94454C8.88564 2.90683 8.92302 2.86913 8.9604 2.85028C9.33792 2.67308 9.71169 2.48833 10.0967 2.32621C10.2873 2.24704 10.4929 2.20556 10.7097 2.20933C10.904 2.2131 10.9601 2.32998 10.8854 2.4921C10.8031 2.67308 10.7059 2.84651 10.6088 3.03502C10.5153 2.92945 10.4742 2.98601 10.4368 3.07649C10.2985 3.41959 10.1191 3.75514 10.1714 4.14348C10.1939 4.31691 10.2163 4.49788 10.2836 4.65247C10.5004 5.15391 10.7358 5.64405 10.9676 6.14172C11.0573 6.334 11.0685 6.38302 10.8966 6.57153C10.5938 6.90331 10.2312 7.15592 9.83878 7.36706C9.2968 7.66114 8.76977 7.97784 8.22032 8.25684C7.90261 8.41896 7.55873 8.53207 7.22233 8.66026C7.18869 8.67157 7.12141 8.65649 7.09524 8.62633C6.82612 8.30962 6.56074 7.98161 6.29536 7.66114C6.00755 7.31427 5.72348 6.95987 5.42072 6.62054M3.48828 17.2866C3.04348 17.2715 2.59869 17.2263 2.19127 17.0302C1.64181 16.7701 1.28299 16.3403 1.16338 15.7295C1.11852 15.4958 1.07741 15.2545 1.09984 15.0207C1.12974 14.6814 1.20449 14.342 1.28299 14.0065C1.35027 13.7237 1.45119 13.4485 1.53716 13.1657C1.89972 13.2901 2.28098 13.1959 2.50898 12.8603C2.72951 12.5361 2.8566 12.1779 2.90519 11.7858C2.92014 11.6689 2.95752 11.5558 2.96873 11.4389C2.97247 11.3824 2.93509 11.3258 2.9164 11.2655C2.86781 11.2844 2.80053 11.2919 2.7781 11.3258C2.71082 11.4314 2.6398 11.5407 2.6099 11.6576C2.53888 11.9328 2.4118 11.9592 2.22117 11.9932C1.89225 12.0497 1.72405 11.8612 1.60817 11.5596C1.48483 11.2353 1.53716 10.9262 1.67545 10.6246C1.83244 10.2852 1.99317 9.94969 2.15015 9.61036C2.3034 9.28989 2.51646 9.01089 2.73325 8.73566C2.808 8.64518 2.87902 8.55092 2.96499 8.43781C2.98742 8.53584 3.00611 8.61878 3.0248 8.70173C3.15562 9.21826 3.48454 9.57643 3.92934 9.83658C4.24705 10.0213 4.59093 10.142 4.95723 10.1646C5.22261 10.1797 5.488 10.2023 5.75338 10.1834C6.04119 10.1608 6.329 10.0892 6.61681 10.0439C6.64671 10.0402 6.70278 10.059 6.71773 10.0854C6.92331 10.4549 7.11767 10.8319 7.32325 11.2052C7.48024 11.4955 7.6447 11.7858 7.80542 12.0761C7.85401 12.1591 7.84654 12.2232 7.77552 12.2948C7.52135 12.5587 7.21485 12.7321 6.87471 12.8603C6.79622 12.8905 6.72147 12.9282 6.63923 12.9433C6.45608 12.9734 6.36638 13.0752 6.31778 13.2524C6.22808 13.5767 6.11968 13.8972 6.01129 14.2365C6.21686 14.293 6.41123 14.342 6.60186 14.3911C6.47477 14.5042 6.33647 14.606 6.2206 14.7304C6.03371 14.9415 5.86551 15.1677 5.79823 15.4543C5.71974 15.771 5.89168 16.0613 6.20565 16.1141C6.3589 16.1405 6.47477 16.0462 6.55327 15.9331C6.6355 15.8087 6.6953 15.6654 6.75511 15.5297C6.76632 15.5071 6.74763 15.4731 6.74015 15.4128C6.67661 15.4618 6.62055 15.4844 6.59438 15.5259C6.54579 15.6013 6.4972 15.6654 6.39628 15.6466C6.28788 15.6277 6.19444 15.5825 6.13463 15.4807C6.04866 15.3374 6.03745 15.1828 6.14211 15.0509C6.29536 14.8661 6.4673 14.6965 6.6355 14.5192C6.72147 14.4288 6.82612 14.4212 6.93826 14.4514C7.37184 14.5645 7.8129 14.6588 8.24274 14.7945C8.45206 14.8586 8.64269 14.9905 8.87069 15.1112C8.75108 15.2092 8.67259 15.2884 8.57915 15.3449C8.16425 15.6126 7.75309 15.8879 7.32699 16.1329C6.75137 16.4609 6.13837 16.7211 5.50669 16.9209C5.07684 17.0566 4.62831 17.1471 4.18351 17.2376C3.95924 17.2829 3.7275 17.2942 3.49949 17.2866M12.3992 19.5186C12.4963 19.5375 12.5861 19.6016 12.672 19.6581C12.7543 19.7147 12.7393 19.8353 12.6309 19.9107C12.4104 20.0653 12.1861 20.2161 11.9581 20.3556C11.6105 20.563 11.2629 20.7779 10.9003 20.9589C10.4966 21.1625 10.0817 21.3434 9.66684 21.5244C9.34913 21.6639 9.02394 21.7959 8.69502 21.909C8.26143 22.056 7.82037 22.1917 7.37558 22.3162C7.22233 22.3576 7.05413 22.335 6.8934 22.3539C6.46356 22.3991 6.04493 22.3501 5.63003 22.2332C5.16655 22.105 4.82267 21.8072 4.56103 21.4151C4.31059 21.0418 4.17977 20.612 4.2022 20.1671C4.22089 19.7561 4.29938 19.349 4.36666 18.9418C4.38909 18.7985 4.45263 18.6665 4.48627 18.527C4.51243 18.4177 4.57598 18.3725 4.6769 18.3348C5.11048 18.1802 5.5478 18.0294 5.97017 17.8484C6.47477 17.6335 6.97564 17.396 7.46528 17.1509C7.86149 16.9548 8.22779 16.7135 8.56046 16.4157C9.01647 16.0085 9.237 15.4882 9.34539 14.9038C9.38651 14.6701 9.4052 14.4363 9.33044 14.2139C9.21457 13.867 8.94919 13.6709 8.60905 13.5767C8.34367 13.5013 8.07828 13.4372 7.80916 13.3656C7.77926 13.358 7.75309 13.3467 7.71572 13.3316C8.09697 12.8528 8.14556 12.2458 8.37357 11.6878C9.08748 12.7585 9.73786 13.8444 10.5452 14.7907C10.2911 15.0056 10.0369 15.2017 9.80888 15.4241C9.56966 15.6503 9.39772 15.9331 9.23326 16.2196C9.10244 16.4496 8.99404 16.6909 8.96414 16.9548C8.93797 17.1811 8.94919 17.411 9.08375 17.6071C9.20709 17.7881 9.51733 17.8559 9.70048 17.6787C9.89111 17.5015 10.0331 17.2904 10.1154 17.0416C10.1378 16.9775 10.1752 16.9171 10.1939 16.853C10.2051 16.8116 10.1939 16.7626 10.1939 16.7173C10.0406 16.7324 9.9995 16.8455 9.93222 16.9322C9.80888 17.0906 9.60704 17.0755 9.48369 16.9134C9.33418 16.7173 9.35287 16.2423 9.54723 16.0123C9.75655 15.7634 9.96586 15.5108 10.1901 15.2733C10.3135 15.1451 10.4667 15.0471 10.6125 14.9415C10.6312 14.9264 10.6835 14.9302 10.7097 14.9453C10.9452 15.0886 11.1732 15.2545 11.4199 15.3751C11.5619 15.4467 11.5768 15.5561 11.5993 15.6767C11.6778 16.0839 11.7637 16.4911 11.8273 16.9021C11.8497 17.0453 11.775 17.1811 11.6479 17.2489C11.4086 17.3771 11.162 17.4978 10.9078 17.5996C10.676 17.6938 10.4256 17.7541 10.1901 17.8409C10.1378 17.8597 10.0929 17.9389 10.0705 17.9992C9.95465 18.3385 9.87242 18.6816 9.8799 19.0436C9.8799 19.07 9.92475 19.1114 9.95839 19.119C10.0518 19.1491 10.149 19.1642 10.2051 19.1604C10.1191 19.2698 10.0331 19.3867 9.94344 19.4922C9.73412 19.7373 9.55097 20.0012 9.47621 20.3217C9.45005 20.4461 9.45752 20.5856 9.48743 20.71C9.54349 20.9438 9.7715 20.9928 9.94344 20.8269C10.0743 20.6987 10.1602 20.5441 10.2126 20.3669C10.2238 20.333 10.22 20.2991 10.2238 20.2614C10.2126 20.2538 10.1976 20.2501 10.1864 20.2425C10.1453 20.284 10.1004 20.3255 10.0668 20.3745C9.99203 20.4763 9.90606 20.4876 9.81261 20.4009C9.70422 20.2991 9.67432 20.0502 9.7715 19.907C9.92849 19.6694 10.0967 19.4394 10.3284 19.2698C10.3658 19.2434 10.4219 19.2321 10.4667 19.2396C10.777 19.2811 11.0872 19.3339 11.4012 19.3791C11.7338 19.4281 12.0702 19.4658 12.4029 19.5262M16.4397 14.0668C16.3388 14.1686 16.1968 14.2365 16.0659 14.2968C15.8716 14.3873 15.6697 14.4778 15.4268 14.4589C15.4193 14.3911 15.4081 14.327 15.4043 14.2629C15.3782 13.6332 15.3595 12.9998 15.3333 12.3702C15.3184 12.046 15.3072 11.7217 15.2586 11.4012C15.2137 11.0808 15.1277 10.7678 15.0493 10.4549C15.0306 10.3795 14.9708 10.3116 14.9147 10.2211C14.8026 10.5793 14.6979 10.9073 14.6007 11.2353C14.5932 11.2655 14.6007 11.3032 14.6082 11.3334C14.6942 11.6652 14.7951 11.9932 14.8624 12.3287C14.911 12.5776 14.9296 12.8339 14.9371 13.0865C14.9483 13.5013 14.9371 13.9198 14.9371 14.3496C14.7203 14.2666 14.6045 14.1121 14.5671 13.9047C14.5222 13.6559 14.4998 13.4033 14.4662 13.1431C14.3578 13.2298 14.2344 13.3316 14.1148 13.4296C13.8606 13.637 13.6102 13.8519 13.3448 14.0404C12.986 14.293 12.5823 14.3609 12.1487 14.3043C12.0329 14.2893 11.9992 14.2591 11.9843 14.146C11.9245 13.7652 11.8534 13.3844 11.7824 13.0074C11.7189 12.653 11.6479 12.3023 11.5843 11.9517C11.517 11.5784 11.4535 11.2052 11.39 10.8357C11.3526 10.6283 11.3115 10.4247 11.2629 10.1834C11.1582 10.4398 11.0648 10.666 10.9713 10.896C10.9564 10.93 10.9452 10.9677 10.9265 11.0016C10.7844 11.2203 10.833 11.4503 10.8779 11.6802C10.9414 12.0007 11.0012 12.325 11.0573 12.6492C11.1358 13.079 11.2068 13.5126 11.289 13.9839C11.1507 13.8783 11.0349 13.7991 10.9265 13.7049C10.6088 13.4296 10.3396 13.1092 10.1079 12.7623C9.95091 12.5248 9.80514 12.2759 9.64441 12.0422C9.27064 11.4993 8.88564 10.9639 8.50813 10.4247C8.50065 10.4134 8.49318 10.3983 8.47823 10.3682C8.85948 10.3116 9.22578 10.2589 9.59208 10.2061C10.1266 10.1307 10.6686 10.0666 11.1806 9.87805C11.7264 9.67823 12.2235 9.39169 12.6907 9.04482C12.7655 8.98827 12.8402 8.93172 12.9187 8.86762C12.9524 8.96565 12.9785 9.05237 13.0122 9.13531C13.1019 9.36153 13.2551 9.53119 13.4607 9.66315C13.7111 9.82527 13.969 9.97231 14.2681 10.0062C14.5297 10.0364 14.7951 10.0251 15.0567 9.961C15.423 9.87051 15.7706 9.73101 16.1033 9.55758C16.1407 9.53873 16.1855 9.52742 16.2304 9.51234C16.2416 9.65184 16.2566 9.77249 16.264 9.8969C16.2939 10.3003 16.3276 10.7037 16.3575 11.1072C16.3687 11.2391 16.3724 11.3748 16.3799 11.5106C16.3949 11.782 16.4098 12.0497 16.4285 12.3212C16.4584 12.7397 16.4808 13.162 16.5257 13.5767C16.5444 13.7539 16.578 13.9349 16.4434 14.0668M21.7175 13.7124C21.6053 13.7765 21.4895 13.8293 21.3661 13.8934C21.2353 13.7124 21.1045 13.5277 20.9662 13.3354C21.1082 13.2524 21.7997 13.3618 22.0576 13.505C21.938 13.5767 21.8296 13.6483 21.7175 13.7124ZM28.0007 17.7881C27.9259 17.7617 27.8362 17.7391 27.8512 17.6335C27.8661 17.5242 27.9596 17.4902 28.053 17.4865C28.3034 17.4714 28.4941 17.5996 28.6772 17.7504C28.7295 17.7918 28.7707 17.8409 28.8193 17.8823C28.5314 17.8936 28.2623 17.8861 28.0007 17.7881Z" fill="white"/>
<path d="M17.7296 10.6284C17.8978 10.7981 18.0473 10.9413 18.1894 11.0884C18.2417 11.1412 18.2903 11.2015 18.3389 11.2618C18.3501 11.2769 18.3613 11.3071 18.3576 11.3259C18.2716 11.586 18.1782 11.85 18.0885 12.1177C17.9016 11.9178 17.7408 11.718 17.5502 11.5446C17.1577 11.1902 17.1914 10.8659 17.3745 10.4437C17.4418 10.2891 17.554 10.1533 17.6511 10.0138C17.7334 9.8932 17.8642 9.84796 17.9987 9.80648C18.4734 9.66321 18.9444 9.51994 19.4191 9.3729C20.0321 9.18062 20.6414 8.9808 21.2544 8.78851C21.7477 8.63393 22.2411 8.47935 22.7345 8.321C23.2615 8.15134 23.7923 7.97791 24.3193 7.80824C24.7268 7.68005 25.1342 7.55941 25.5416 7.43122C25.7135 7.37843 25.8817 7.31811 26.0873 7.25024C26.0275 7.45007 25.9677 7.61219 25.9303 7.77808C25.8929 7.93643 25.8182 8.00807 25.6575 8.04954C25.0819 8.20035 24.5137 8.36624 23.9456 8.5359C23.2802 8.73573 22.6149 8.93932 21.9533 9.15046C21.5347 9.28242 21.1198 9.42569 20.7049 9.56896C20.6713 9.58027 20.6301 9.60289 20.6115 9.63305C20.4918 9.8555 20.361 10.0779 20.2638 10.3117C20.204 10.4587 20.2937 10.5907 20.4059 10.6963C20.5068 10.7905 20.6264 10.7981 20.7498 10.7679C20.7909 10.7566 20.8208 10.7 20.8507 10.6586C20.8731 10.6284 20.8768 10.5832 20.8993 10.5568C20.9292 10.5304 20.9778 10.5191 21.0151 10.5002C21.0226 10.5379 21.0376 10.5756 21.0338 10.6133C21.0189 10.8433 20.9703 11.0582 20.7909 11.2241C20.6301 11.3711 20.3012 11.341 20.1779 11.1638C20.0097 10.9263 19.9723 10.6661 20.077 10.3946C20.1704 10.1533 20.2751 9.91582 20.376 9.67075C19.5125 9.98369 18.6342 10.3004 17.7334 10.6284" fill="white"/>
<path d="M12.4218 6.85441C12.3807 6.46985 12.3433 6.1079 12.3022 5.74596C12.2573 5.32369 12.2087 4.89765 12.1639 4.47538C12.1265 4.13228 12.0854 3.78919 12.048 3.44609C12.0069 3.08792 11.9733 2.72974 11.9321 2.37157C11.906 2.1265 11.8649 1.8852 11.8462 1.64014C11.8387 1.55719 11.8611 1.46294 11.8948 1.38376C12.0069 1.10099 12.1302 0.82199 12.2536 0.546761C12.2648 0.516598 12.3059 0.482666 12.3321 0.482666C12.3582 0.482666 12.3994 0.520369 12.4106 0.546761C12.4891 0.742814 12.5563 0.938868 12.6348 1.13115C12.6984 1.29327 12.7844 1.44785 12.8442 1.60998C12.8666 1.67407 12.8741 1.75702 12.8554 1.82488C12.7956 2.04733 12.7133 2.266 12.661 2.49222C12.6348 2.60156 12.6498 2.72597 12.661 2.84285C12.676 3.03514 12.7059 3.22365 12.7245 3.41216C12.7544 3.67231 12.7844 3.92869 12.8143 4.18884C12.8329 4.33588 12.8479 4.48669 12.8628 4.63373C12.8815 4.85994 12.9114 5.08993 12.9077 5.31615C12.9077 5.53105 12.8927 5.7535 12.8292 5.95332C12.7432 6.23609 12.6049 6.50001 12.4891 6.77147C12.4816 6.79032 12.4592 6.8054 12.4255 6.84687" fill="white"/>
<path d="M6.85969 25.2381C6.66533 25.5397 6.47844 25.8338 6.28408 26.1354C6.07476 26.0148 5.87292 25.8979 5.66734 25.7773C5.4954 25.6755 5.32346 25.5699 5.14779 25.4681C5.0992 25.4417 5.06182 25.4229 5.0992 25.355C5.25992 25.0421 5.41691 24.7291 5.5739 24.4162C5.58511 24.3936 5.61127 24.3785 5.6337 24.3521C6.00748 24.5557 6.37752 24.7593 6.76625 24.9667C6.95314 24.65 7.14377 24.3332 7.34187 24.0015C7.71938 24.2805 8.08943 24.5519 8.47068 24.8347C8.2651 25.1816 8.05579 25.5284 7.84647 25.8791C7.51381 25.6604 7.19236 25.453 6.85969 25.2343" fill="white"/>
<path d="M21.4108 16.4912C21.3024 16.7476 21.2089 16.9927 21.0968 17.2264C21.0706 17.2792 20.9847 17.3094 20.9211 17.3282C20.3193 17.4903 19.7176 17.6487 19.1158 17.807C18.6112 17.9428 18.1103 18.0823 17.6057 18.218C17.2544 18.3122 16.903 18.3952 16.5517 18.4857C16.5031 18.497 16.4545 18.5234 16.376 18.5535C16.4993 18.3273 16.6152 18.1426 16.7012 17.939C16.7946 17.7279 16.974 17.709 17.1572 17.66C17.5272 17.5657 17.8935 17.4564 18.2598 17.3508C19.2354 17.0794 20.2109 16.8117 21.1865 16.5402C21.25 16.5214 21.3173 16.5101 21.4108 16.4912Z" fill="white"/>
<path d="M26.345 9.04858C26.2404 9.30119 26.1432 9.55003 26.0385 9.7951C26.0273 9.82526 25.9862 9.85165 25.9526 9.86296C25.3919 10.0666 24.8312 10.2702 24.2668 10.4737C23.9678 10.5793 23.6688 10.6811 23.3698 10.7904C22.8502 10.9752 22.3307 11.1675 21.8148 11.3522C21.6579 11.4088 21.5009 11.4578 21.3252 11.5181C21.3626 11.454 21.3925 11.3975 21.4224 11.3409C21.5233 11.1449 21.628 10.9526 21.7251 10.7527C21.7737 10.6472 21.8784 10.6472 21.9606 10.6208C22.6372 10.3719 23.3212 10.1344 23.9977 9.88935C24.3603 9.75739 24.7191 9.62166 25.0817 9.48971C25.4816 9.34266 25.8853 9.19939 26.2852 9.05612C26.3002 9.05235 26.3226 9.05612 26.345 9.05612" fill="white"/>
<path d="M9.40527 25.6981C9.51741 25.4568 9.62206 25.2192 9.73794 24.993C9.76036 24.9515 9.82764 24.9289 9.87623 24.9101C10.3322 24.7216 10.7845 24.5368 11.2405 24.3483C11.719 24.1522 12.2011 23.9562 12.6796 23.7639C12.945 23.6583 13.2103 23.549 13.4795 23.4434C13.4944 23.4359 13.5131 23.4359 13.5393 23.4321C13.4608 23.647 13.3823 23.8544 13.3187 24.0618C13.2926 24.1409 13.2515 24.1862 13.1804 24.2126C12.6833 24.4124 12.1862 24.6122 11.6853 24.812C11.1732 25.0156 10.6612 25.2192 10.1491 25.4228C9.92109 25.5133 9.69308 25.6076 9.46508 25.6981C9.45386 25.7018 9.43518 25.6981 9.40527 25.6943" fill="white"/>
<path d="M8.92317 27.6058C8.94559 27.5116 8.9755 27.4211 8.99045 27.3268C9.05773 26.9347 9.1736 26.5577 9.43151 26.2523C9.7081 25.9205 10.0931 25.8866 10.4444 26.1505C10.4856 26.1806 10.5117 26.2862 10.493 26.3352C10.4407 26.4634 10.3547 26.5803 10.2837 26.7009C10.2538 26.7575 10.2277 26.7537 10.1791 26.7198C10.0183 26.6067 9.83893 26.5577 9.64082 26.5954C9.42777 26.6369 9.32311 26.7877 9.27452 26.9724C9.19976 27.2476 9.16239 27.5304 9.08016 27.8056C9.03904 27.9527 8.95307 28.0884 8.8671 28.2166C8.81477 28.292 8.74002 28.2882 8.68769 28.194C8.57929 27.9941 8.47837 27.7906 8.35503 27.602C8.26158 27.4588 8.1345 27.3343 8.01489 27.2099C7.98872 27.1835 7.90275 27.1685 7.88406 27.1873C7.78688 27.2853 7.68596 27.2401 7.58504 27.2099C7.48786 27.1798 7.39441 27.1345 7.30097 27.0931C7.22995 27.0591 7.1851 27.0176 7.22248 26.9196C7.28602 26.7575 7.33461 26.5878 7.39068 26.4219C7.42058 26.3352 7.49533 26.29 7.57757 26.3088C7.91397 26.3842 8.22046 26.5237 8.44473 26.799C8.62415 27.0176 8.75123 27.2703 8.85215 27.5379C8.85963 27.5643 8.87084 27.587 8.88205 27.6133C8.89327 27.6133 8.90822 27.6133 8.91943 27.6133" fill="white"/>
<path d="M13.9238 22.5121C13.9126 22.3236 13.8977 22.1615 13.8939 21.9956C13.879 21.6035 13.8117 21.2189 13.7108 20.8419C13.6136 20.4724 13.5015 20.1029 13.3968 19.7335C13.3295 19.5035 13.3893 19.281 13.4529 19.0623C13.4828 18.953 13.5538 18.8588 13.6734 18.8701C13.793 18.8851 13.8603 18.9907 13.8902 19.1001C13.9799 19.4243 14.0696 19.7448 14.1406 20.0728C14.1929 20.3141 14.2154 20.5629 14.2415 20.8118C14.264 21.0304 14.2939 21.2491 14.2864 21.4678C14.2752 21.8146 14.1892 22.1464 13.9911 22.4405C13.9762 22.4594 13.9612 22.4744 13.9313 22.5084" fill="white"/>
<path d="M23.1528 21.7093C23.0482 21.5434 22.9585 21.3963 22.865 21.2531C22.7678 21.1022 22.7716 20.9552 22.8874 20.8232C23.0444 20.6385 23.2014 20.45 23.4294 20.352C23.7172 20.2275 23.9041 20.3595 23.9303 20.6649C23.949 20.8987 23.8406 21.0985 23.7135 21.2795C23.65 21.3662 23.6574 21.434 23.7135 21.5019C23.7957 21.5999 23.7808 21.6942 23.7098 21.7809C23.6126 21.8978 23.5042 22.0071 23.392 22.1278C23.3322 22.026 23.2874 21.9506 23.2388 21.8714C22.9024 22.1504 22.5211 22.354 22.1287 22.5349C21.7437 22.7084 21.3662 22.9082 20.9326 22.9308C20.9251 22.9157 20.9176 22.8969 20.9102 22.8818C20.9999 22.829 21.0858 22.7725 21.1755 22.7272C21.5344 22.55 21.8969 22.3766 22.2558 22.1956C22.5548 22.041 22.8501 21.8789 23.1528 21.713M23.3023 20.7328C23.2687 20.7516 23.2126 20.7742 23.1753 20.8119C23.164 20.8232 23.1865 20.8911 23.2126 20.9175C23.3023 21.0118 23.392 21.0985 23.4892 21.1852C23.5042 21.1965 23.564 21.1852 23.5715 21.1663C23.6761 20.9891 23.5341 20.7441 23.3023 20.7328Z" fill="white"/>
<path d="M11.9577 23.2475C11.9726 23.1382 11.9913 23.0288 11.9988 22.9157C12.0175 22.6556 12.0885 22.4143 12.2081 22.1843C12.3763 21.8601 12.7202 21.7545 13.0267 21.9468C13.0977 21.992 13.1351 22.0523 13.0939 22.1391C13.0453 22.2446 12.9968 22.354 12.9631 22.4256C12.7874 22.403 12.6305 22.3577 12.4772 22.3728C12.2903 22.3917 12.2118 22.501 12.167 22.7913C12.1333 23.0062 12.1259 23.2287 12.0922 23.4436C12.0773 23.5454 12.0287 23.6434 11.9763 23.7339C11.924 23.8319 11.8567 23.7942 11.8081 23.7226C11.7409 23.6245 11.6736 23.519 11.61 23.4172C11.4979 23.24 11.3633 23.0854 11.1839 22.9798C11.1578 22.9648 11.1166 22.9798 11.083 22.9874C11.0344 23.0025 10.9821 23.0477 10.9372 23.0364C10.8326 23.0138 10.7317 22.9648 10.627 22.9308C10.5485 22.9044 10.5298 22.8441 10.5448 22.7762C10.5672 22.6556 10.5971 22.5387 10.6195 22.4181C10.6382 22.3276 10.6943 22.2899 10.784 22.2936C11.0456 22.3087 11.2886 22.403 11.468 22.5877C11.6212 22.7498 11.7371 22.9459 11.8679 23.1306C11.8941 23.1646 11.9128 23.206 11.9352 23.2438C11.9464 23.2438 11.9539 23.2438 11.9651 23.2438" fill="white"/>
<path d="M23.4403 17.2564C23.3618 17.4034 23.2833 17.5505 23.2048 17.6975C23.1039 17.886 23.0067 18.0746 22.9096 18.2668C22.8797 18.3234 22.8498 18.346 22.79 18.3045C22.532 18.1236 22.2741 17.9426 22.0162 17.7616C21.9751 17.7315 21.9303 17.7013 21.8779 17.6636C21.9527 17.5241 22.0237 17.3884 22.1022 17.2526C22.2143 17.0566 22.3302 16.8643 22.4386 16.6682C22.476 16.6004 22.5021 16.5815 22.5732 16.6305C22.8161 16.8115 23.0665 16.9887 23.3132 17.1659C23.3544 17.1961 23.3917 17.2225 23.4403 17.2564Z" fill="white"/>
<path d="M13.042 17.234C13.2513 16.8645 13.4531 16.5063 13.6587 16.1406C13.9764 16.3668 14.2942 16.5968 14.6119 16.823C14.4287 17.1661 14.2568 17.4904 14.0848 17.8146C14.0325 17.9089 13.9914 17.89 13.9129 17.8297C13.6288 17.6261 13.3373 17.4338 13.042 17.2302" fill="white"/>
<path d="M14.6942 1.131C14.9035 0.761516 15.1053 0.407111 15.3072 0.045166C15.6211 0.271382 15.9314 0.493828 16.2603 0.731354C16.0659 1.08953 15.8716 1.45147 15.6735 1.81342C15.3408 1.57966 15.0156 1.35722 14.6904 1.12723" fill="white"/>
<path d="M26.6144 9.75756C26.5621 9.79904 26.5135 9.84428 26.4612 9.88575C26.2668 10.0403 26.0538 10.1723 25.8818 10.3495C25.6575 10.5833 25.452 10.8396 25.2688 11.1073C25.138 11.2996 25.1193 11.5409 25.1866 11.7709C25.2314 11.9142 25.3398 12.0084 25.4893 12.0386C25.6127 12.065 25.6837 12.0009 25.7435 11.8915C25.7846 11.8161 25.8556 11.7596 25.9155 11.6917C25.9304 11.6955 25.9454 11.703 25.9603 11.7068C25.9678 11.7445 25.9902 11.7897 25.979 11.8237C25.8743 12.1291 25.7473 12.4231 25.5118 12.6531C25.2688 12.8907 24.8689 12.7512 24.7979 12.5023C24.6969 12.1705 24.7119 11.8312 24.8614 11.5145C25.0931 11.0093 25.4071 10.5606 25.822 10.1874C26.0351 9.99509 26.278 9.84428 26.5397 9.7274C26.5509 9.71986 26.5696 9.7274 26.5845 9.72363C26.592 9.73494 26.6032 9.74625 26.6144 9.75756Z" fill="white"/>
<path d="M22.5739 2.15663C22.5216 2.25088 22.4767 2.34891 22.4132 2.43563C22.1889 2.73725 22.0805 3.08411 21.9908 3.43852C21.9459 3.61949 22.0207 3.89472 22.2338 3.98521C22.3608 4.04176 22.4991 3.97767 22.5365 3.84571C22.5589 3.77407 22.5888 3.70244 22.615 3.6308C22.63 3.6308 22.6449 3.6308 22.6636 3.63457C22.6748 3.67604 22.7047 3.71752 22.6972 3.75522C22.6711 3.95127 22.6524 4.1511 22.6001 4.33961C22.529 4.58091 22.245 4.68648 22.0693 4.53189C21.9646 4.44141 21.8936 4.2906 21.8488 4.15487C21.7553 3.87587 21.8263 3.59687 21.8899 3.32164C21.9871 2.89937 22.1777 2.52611 22.458 2.20187C22.4842 2.17171 22.5141 2.15286 22.5403 2.12646C22.5515 2.13401 22.5627 2.14155 22.5739 2.14909" fill="white"/>
<path d="M17.9986 1.82867C18.0285 1.89276 18.0584 1.92292 18.0584 1.95308C18.0547 2.17176 18.0397 2.39044 17.9463 2.59403C17.8827 2.72976 17.7818 2.80516 17.6286 2.81648C17.4566 2.82779 17.3707 2.72222 17.2884 2.59403C17.1539 2.37535 17.1501 2.13406 17.1838 1.9003C17.2249 1.63638 17.2959 1.37246 17.3893 1.11986C17.4977 0.829546 17.6734 0.576938 17.8865 0.354492C17.8977 0.358262 17.9089 0.362033 17.9164 0.369573C17.9014 0.407276 17.8977 0.452519 17.8753 0.482681C17.6398 0.806924 17.4903 1.16887 17.3744 1.54967C17.3034 1.77965 17.337 1.97948 17.5015 2.15291C17.5725 2.22831 17.6547 2.24717 17.7594 2.21323C17.8566 2.18307 17.8753 2.11144 17.8977 2.02472C17.9126 1.9644 17.9537 1.91161 17.9949 1.82867" fill="white"/>
<path d="M26.2849 5.19162C26.24 5.25949 26.1989 5.32358 26.1578 5.38014C26.0344 5.55357 25.9634 5.74208 25.9709 5.95699C25.9784 6.11157 26.1391 6.25861 26.2924 6.25861C26.3671 6.25861 26.4045 6.23222 26.412 6.15304C26.412 6.12665 26.4419 6.10026 26.4606 6.07386C26.483 6.10026 26.5204 6.12665 26.5241 6.15304C26.5316 6.24353 26.5465 6.33778 26.5241 6.42073C26.5054 6.48859 26.4456 6.57154 26.3858 6.59793C26.2849 6.64317 26.1765 6.6017 26.0905 6.5263C25.8924 6.35286 25.8401 6.14173 25.8737 5.87404C25.9074 5.60635 26.0195 5.39522 26.2101 5.21424C26.2213 5.20293 26.2326 5.19162 26.2475 5.18408C26.2512 5.18408 26.2625 5.18408 26.2924 5.18785" fill="white"/>
<path d="M13.8642 1.70411C13.8642 1.67394 13.8642 1.64378 13.8754 1.61739C13.98 1.28561 13.9501 0.983986 13.696 0.723838C13.5913 0.61827 13.4979 0.501392 13.4044 0.380744C13.3857 0.354352 13.3895 0.305338 13.3857 0.271406C13.4231 0.271406 13.468 0.260095 13.4979 0.275176C13.8006 0.444838 13.9576 0.720067 14.0436 1.04431C14.1146 1.29692 13.98 1.49674 13.924 1.71919C13.9053 1.71542 13.8829 1.71165 13.8642 1.70411Z" fill="white"/>
<path d="M4.06368 15.937C4.08611 15.8541 4.11975 15.7787 4.12722 15.7033C4.15713 15.2848 4.23188 14.8776 4.3627 14.4817C4.46362 14.1725 4.57576 13.8709 4.86357 13.6824C5.03924 13.5693 5.23361 13.5882 5.4205 13.6636C5.46909 13.6824 5.5102 13.7201 5.55506 13.7503C5.66345 13.8257 5.71204 13.9539 5.66345 14.0821C5.59243 14.2819 5.51394 14.4779 5.43919 14.674C5.33827 14.6137 5.24482 14.542 5.1439 14.5006C4.84488 14.3799 4.58697 14.4855 4.48979 14.7946C4.41877 15.0171 4.38513 15.2546 4.34028 15.4846C4.273 15.8428 4.29916 16.2198 4.15339 16.5667C4.12722 16.6308 4.09732 16.6949 4.06742 16.7552C4.00761 16.8683 3.92912 16.8796 3.86184 16.7703C3.80204 16.6722 3.74971 16.5667 3.71233 16.4611C3.58898 16.0992 3.42452 15.7636 3.18904 15.4657C3.16661 15.4356 3.13671 15.4092 3.10681 15.3828C3.05074 15.33 3.00215 15.3262 2.96477 15.4054C2.92739 15.4808 2.87133 15.511 2.7891 15.4657C2.65454 15.3941 2.51997 15.33 2.38541 15.2584C2.27328 15.1981 2.28823 15.0963 2.30692 14.9982C2.34804 14.7909 2.38915 14.5797 2.43774 14.3724C2.47512 14.214 2.56483 14.1462 2.71808 14.1876C3.14045 14.3007 3.44695 14.5722 3.63757 14.9492C3.79082 15.2546 3.89548 15.5826 4.02256 15.8993C4.0263 15.9106 4.03752 15.9144 4.06742 15.9408" fill="white"/>
<path d="M5.63037 11.9819C5.09586 11.8009 4.57257 11.865 4.05302 12.0912C4.00069 11.9253 4.0904 11.7971 4.13525 11.6576C4.17263 11.5483 4.21001 11.4201 4.2885 11.3409C4.38942 11.2391 4.52398 11.1298 4.65854 11.111C5.05101 11.0582 5.45095 11.0469 5.84342 11.1449C5.98172 11.1788 6.12002 11.2128 6.26205 11.2391C6.35924 11.2542 6.3854 11.3372 6.37792 11.3975C6.35924 11.6237 6.34055 11.8575 6.17235 12.0234C6.03779 12.1553 5.87706 12.2684 5.7126 12.3702C5.52197 12.4871 5.32387 12.6002 5.11829 12.6832C4.95009 12.751 4.76694 12.7736 4.59126 12.8113C4.46418 12.8377 4.34083 12.8641 4.21001 12.8792C4.17637 12.883 4.14273 12.8566 4.10909 12.8453C4.12404 12.8038 4.13152 12.7472 4.16142 12.7246C4.2586 12.6605 4.35952 12.5964 4.46792 12.555C4.67349 12.4758 4.88655 12.4268 5.08839 12.3363C5.28275 12.2496 5.46217 12.1289 5.64532 12.0196C5.64158 12.0045 5.63411 11.9894 5.63037 11.9743" fill="white"/>
<path d="M7.36038 19.5112C7.551 19.1907 7.73789 18.8702 7.93226 18.5422C8.30604 18.8212 8.67608 19.0965 9.06107 19.3792C8.85549 19.7299 8.65365 20.0692 8.44434 20.4236C8.23876 20.2916 8.03692 20.1597 7.83881 20.0277C7.73789 19.9599 7.63697 19.892 7.53979 19.8204C7.47625 19.7789 7.44261 19.8015 7.40523 19.8618C7.23703 20.1333 7.06135 20.401 6.88568 20.68C6.47826 20.4387 6.07458 20.2012 5.6709 19.9599C5.84284 19.6243 6.01104 19.2963 6.1755 18.972C6.20166 18.923 6.20914 18.8816 6.28763 18.9268C6.63898 19.1266 7.00155 19.3151 7.36412 19.5074" fill="white"/>
<path d="M12.4293 13.4975C12.448 13.2863 12.4667 13.079 12.4816 12.8678C12.4854 12.8075 12.4854 12.7434 12.4816 12.6831C12.4741 12.34 12.4816 11.9931 12.4554 11.65C12.4218 11.2692 12.3471 10.8922 12.3059 10.5114C12.2723 10.2136 12.22 9.91571 12.3433 9.62163C12.3882 9.51229 12.4143 9.39541 12.4629 9.28984C12.5003 9.20313 12.5713 9.12772 12.676 9.1428C12.7806 9.15788 12.818 9.25214 12.833 9.3464C12.8666 9.58769 12.9077 9.83276 12.9264 10.0741C12.9563 10.485 13.0012 10.8997 12.99 11.3107C12.975 11.831 12.9825 12.3626 12.7918 12.8641C12.7059 13.0903 12.605 13.3089 12.4667 13.5088L12.4293 13.4975Z" fill="white"/>
<path d="M9.19967 7.06182C8.86327 6.83183 8.54182 6.60562 8.21289 6.37563C8.41847 6.01369 8.62031 5.65551 8.82963 5.28979C9.15107 5.51978 9.46131 5.74223 9.78276 5.96844C9.5884 6.33039 9.39777 6.68856 9.2034 7.05805" fill="white"/>
</g>
<defs>
<clipPath id="clip0_782_18886">
<rect width="154.737" height="30" fill="white" transform="translate(0.714844)"/>
</clipPath>
</defs>
</svg>
