<svg width="41" height="49" viewBox="0 0 41 49" fill="none" xmlns="http://www.w3.org/2000/svg">
<path d="M3.5106 48.5894C2.0117 48.16 0.860667 46.8951 0.554698 45.3409C0.413156 44.622 0.414504 4.28953 0.556092 3.58033C0.788022 2.41864 1.55947 1.29907 2.49245 0.770169C3.57001 0.159313 3.03915 0.185714 14.2444 0.185714C21.3982 0.185714 24.5701 0.217207 24.9019 0.291531C26.4149 0.630408 27.6784 1.97399 27.9947 3.58033C28.059 3.90721 28.0936 5.63876 28.0936 8.53488C28.0936 10.9835 28.1245 12.9869 28.1622 12.9869C28.2 12.9869 30.6565 12.0482 33.6212 10.9008C36.5858 9.75344 39.1242 8.81468 39.2619 8.81468C39.6822 8.81468 40.198 9.15869 40.3957 9.57077C40.5729 9.9403 40.5752 10.104 40.5752 22.5641C40.5752 35.0243 40.5729 35.188 40.3957 35.5575C40.1979 35.9699 39.6821 36.3136 39.2611 36.3136C39.1229 36.3136 37.6469 35.7861 35.9812 35.1413C34.3154 34.4966 32.8676 33.9408 32.7639 33.9063C32.5825 33.8459 32.5738 33.879 32.5331 34.7758C32.4819 35.9073 32.2384 36.5566 31.6175 37.2169C30.7486 38.1411 29.4058 38.4409 28.2494 37.9689C28.1028 37.9091 28.0936 38.111 28.0936 41.3719C28.0936 45.1209 28.0595 45.491 27.6297 46.4006C27.11 47.5006 26.0373 48.3775 24.9019 48.6303C24.5707 48.7041 21.3722 48.7337 14.2034 48.7293C5.69763 48.7241 3.89884 48.7006 3.5106 48.5894ZM24.7081 45.6999C25.2403 45.4111 25.419 44.9596 25.419 43.9033V43.0461H14.2666H3.11417L3.14457 44.018C3.17023 44.8381 3.20588 45.0361 3.37274 45.2849C3.80272 45.926 3.08677 45.8863 14.2559 45.8887C24.2048 45.8908 24.3615 45.888 24.7081 45.6999ZM25.3987 38.5226L25.3744 36.8437L24.3937 36.4562C23.8543 36.2431 23.1984 35.9441 22.9362 35.7917C22.0653 35.2858 21.284 34.1281 21.0616 33.0138C21.0064 32.7374 20.9613 31.7939 20.9613 30.917V29.3226L20.1812 29.0297C19.4081 28.7395 19.3827 28.7366 17.3505 28.7086C15.3477 28.6809 15.2885 28.6745 14.8096 28.4313C14.0824 28.0621 13.6104 27.5765 13.2754 26.8529L12.9819 26.2189V22.5661V18.9134L13.2169 18.3805C13.5472 17.6312 14.0189 17.1169 14.7055 16.7571L15.2955 16.448L17.3483 16.4201L19.4011 16.3921L22.4096 15.2348L25.4181 14.0774L25.4185 12.6313C25.4188 11.836 25.404 11.1853 25.3856 11.1853C25.3673 11.1853 25.1767 11.256 24.9621 11.3425C24.6903 11.4521 24.2882 11.5003 23.6359 11.5014C22.4453 11.5035 21.8 11.2709 20.8555 10.4992L20.5269 10.2307L20.0532 10.6122C19.7926 10.822 19.2785 11.1114 18.9107 11.2554C18.3376 11.4798 18.1147 11.516 17.3505 11.5091C16.2044 11.4987 15.536 11.2519 14.6147 10.4992L14.2861 10.2307L13.8124 10.6122C13.5518 10.822 13.0377 11.1114 12.6699 11.2554C12.0968 11.4798 11.8739 11.516 11.1097 11.5091C9.96361 11.4987 9.29519 11.2519 8.37394 10.4992L8.04533 10.2307L7.57155 10.6122C7.31097 10.822 6.79688 11.1114 6.42911 11.2554C5.85424 11.4804 5.63541 11.5158 4.86892 11.5074C4.27831 11.501 3.84569 11.445 3.58726 11.3415C3.3727 11.2556 3.18213 11.1853 3.16378 11.1853C3.14542 11.1853 3.13041 17.7139 3.13041 25.6933V40.2014H14.2767H25.4231L25.3987 38.5226ZM29.7393 35.2135C29.8575 35.0877 29.8777 34.8643 29.8571 33.9118L29.8321 32.762L26.734 31.5634L23.6359 30.3647V31.4047C23.6359 32.5515 23.7555 32.9802 24.1542 33.2626C24.4161 33.4482 29.2257 35.3552 29.4468 35.3613C29.5291 35.3635 29.6607 35.297 29.7393 35.2135ZM37.9006 22.5641C37.9006 16.9316 37.8705 12.3223 37.8337 12.3212C37.7969 12.3202 33.9856 13.7805 29.364 15.5665L20.9613 18.8138V22.5641V26.3144L29.3195 29.5537C33.9165 31.3353 37.7278 32.7957 37.7891 32.799C37.8776 32.8039 37.9006 30.697 37.9006 22.5641ZM18.2866 22.5641V19.2453H17.0894C16.1199 19.2453 15.8656 19.2737 15.7521 19.3943C15.6306 19.5235 15.612 19.9444 15.612 22.5641C15.612 25.1839 15.6306 25.6047 15.7521 25.734C15.8656 25.8546 16.1199 25.883 17.0894 25.883H18.2866V22.5641ZM5.91009 8.38189C6.11447 8.22878 6.37504 7.91544 6.48913 7.68559C6.68842 7.28409 6.69657 7.18421 6.69657 5.14238V3.01708L5.33697 3.04746C4.09879 3.07513 3.95247 3.09673 3.69861 3.28933C3.17977 3.68295 3.11563 3.97762 3.14698 5.82336L3.17498 7.47156L3.44244 7.87508C4.02399 8.75245 5.11606 8.97674 5.91009 8.38189ZM12.1509 8.38189C12.3553 8.22878 12.6158 7.91544 12.7299 7.68559C12.9292 7.2842 12.9374 7.1839 12.9374 5.14905V3.03043H11.1497H9.36204L9.38891 5.2509L9.41578 7.47137L9.68324 7.87498C10.2647 8.75243 11.3568 8.97677 12.1509 8.38189ZM18.3917 8.38189C18.5961 8.22878 18.8566 7.91544 18.9707 7.68559C19.17 7.2842 19.1782 7.1839 19.1782 5.14905V3.03043H17.3905H15.6028L15.6297 5.2509L15.6566 7.47137L15.924 7.87498C16.5055 8.75243 17.5976 8.97677 18.3917 8.38189ZM24.6325 8.38189C24.8369 8.22878 25.0974 7.91544 25.2115 7.68559C25.4043 7.29715 25.419 7.1577 25.419 5.70862C25.419 3.96862 25.348 3.66659 24.8508 3.28933C24.5968 3.09665 24.4507 3.07513 23.2078 3.04739L21.8436 3.01694L21.8705 5.24415L21.8974 7.47137L22.1648 7.87498C22.7463 8.75243 23.8384 8.97677 24.6325 8.38189Z" fill="white"/>
</svg>
