<svg width="20" height="21" viewBox="0 0 20 21" fill="none" xmlns="http://www.w3.org/2000/svg">
<path d="M18.9 0.100586H1.1C0.808262 0.100586 0.528473 0.216479 0.322183 0.422769C0.115893 0.629059 0 0.908848 0 1.20059V19.0006C0 19.2923 0.115893 19.5721 0.322183 19.7784C0.528473 19.9847 0.808262 20.1006 1.1 20.1006H10.68V12.3506H8.08V9.35059H10.68V7.10059C10.6261 6.57234 10.6885 6.03871 10.8627 5.53712C11.0369 5.03553 11.3188 4.57813 11.6885 4.197C12.0582 3.81586 12.5068 3.52023 13.0028 3.33082C13.4989 3.14142 14.0304 3.06284 14.56 3.10059C15.3383 3.0958 16.1163 3.13586 16.89 3.22059V5.92059H15.3C14.04 5.92059 13.8 6.52059 13.8 7.39059V9.32059H16.8L16.41 12.3206H13.8V20.1006H18.9C19.0445 20.1006 19.1875 20.0721 19.321 20.0169C19.4544 19.9616 19.5757 19.8805 19.6778 19.7784C19.78 19.6763 19.861 19.555 19.9163 19.4215C19.9715 19.2881 20 19.145 20 19.0006V1.20059C20 1.05613 19.9715 0.913092 19.9163 0.779634C19.861 0.646176 19.78 0.524913 19.6778 0.422769C19.5757 0.320624 19.4544 0.239599 19.321 0.184319C19.1875 0.129038 19.0445 0.100586 18.9 0.100586Z" fill="white"/>
</svg>
