<svg width="46" height="51" viewBox="0 0 46 51" fill="none" xmlns="http://www.w3.org/2000/svg">
<path d="M43.1899 10.7999L31.6699 4.14991L17.1799 23.5899L21.9299 27.3199V35.8699L9.48987 26.5199C8.46987 25.7499 8.2599 24.2999 9.0199 23.2699L25.7999 0.759929C24.1199 -0.150071 22.0799 -0.130094 20.4199 0.829906L3.15985 10.7999C1.44985 11.7799 0.399902 13.5999 0.399902 15.5699V35.4999C0.399902 37.4699 1.44985 39.2899 3.15985 40.2699L14.6299 46.8899L29.1799 27.8299L24.5699 24.6099V16.4099L36.7899 24.9399C37.8799 25.6999 38.1099 27.2099 37.3099 28.2599L20.4999 50.2799C22.1899 51.2199 24.2499 51.1999 25.9299 50.2299L43.1899 40.2699C44.8999 39.2899 45.9399 37.4699 45.9399 35.4999V15.5699C45.9399 13.5999 44.8899 11.7799 43.1899 10.7999Z" fill="url(#paint0_linear_0_14)"/>
<defs>
<linearGradient id="paint0_linear_0_14" x1="23.0199" y1="5.71992" x2="23.2499" y2="35.7299" gradientUnits="userSpaceOnUse">
<stop stop-color="#ED1C24"/>
<stop offset="1" stop-color="#BE1E2D"/>
</linearGradient>
</defs>
</svg>
