<svg width="817" height="154" viewBox="0 0 817 154" fill="none" xmlns="http://www.w3.org/2000/svg">
<g clip-path="url(#clip0_4_2)">
<path d="M211.744 97.4009C218.615 97.4009 223.943 95.6139 227.729 92.0389C231.515 88.4629 233.407 83.4519 233.407 76.9999C233.407 70.5509 231.515 65.5379 227.729 61.9619C223.943 58.3869 218.615 56.5979 211.744 56.5979H202.28V97.4009H211.744ZM184.192 40.1929H213.638C221.21 40.1929 227.869 41.7019 233.619 44.7149C239.366 47.7309 243.802 52.0249 246.921 57.5979C250.04 63.1719 251.601 69.6379 251.601 76.9999C251.601 84.3619 250.04 90.8289 246.921 96.4019C243.802 101.976 239.366 106.271 233.619 109.284C227.869 112.3 221.21 113.806 213.638 113.806H184.192V40.1929Z" fill="white"/>
<path d="M263.064 40.1929H313.12V54.6009H280.731V69.5339H310.386V83.7299H280.731V99.1899H314.382V113.806H263.064V40.1929Z" fill="white"/>
<path d="M368.855 87.9371L358.234 58.5971L347.403 87.9371H368.855ZM348.454 40.1931H367.804L395.987 113.806H377.374L372.746 100.977H343.512L338.884 113.806H319.956L348.454 40.1931Z" fill="white"/>
<path d="M404.927 40.1929H419.543L452.355 83.7299V40.1929H469.706V113.806H454.984L422.278 70.3749V113.806H404.927V40.1929Z" fill="white"/>
<path d="M494.419 112.177C489.09 110.459 484.357 108.022 480.221 104.867L488.003 91.8273C495.154 96.8063 502.655 99.2943 510.508 99.2943C514.223 99.2943 517.08 98.7343 519.078 97.6123C521.076 96.4903 522.075 94.9133 522.075 92.8803C522.075 90.9173 520.971 89.2513 518.764 87.8843C516.555 86.5183 512.68 85.0633 507.144 83.5203C498.94 81.3473 492.91 78.4193 489.055 74.7393C485.198 71.0583 483.272 66.2743 483.272 60.3843C483.272 56.2493 484.339 52.5863 486.479 49.3953C488.616 46.2053 491.736 43.7163 495.838 41.9293C499.94 40.1413 504.759 39.2473 510.298 39.2473C515.556 39.2473 520.566 40.0353 525.336 41.6133C530.103 43.1913 534.448 45.4163 538.376 48.2913L530.488 60.9103C527.965 58.9483 524.914 57.3703 521.34 56.1783C517.764 54.9873 514.294 54.3903 510.928 54.3903C507.913 54.3903 505.529 54.9163 503.777 55.9683C502.024 57.0193 501.148 58.4223 501.148 60.1743C501.148 61.9983 502.13 63.5573 504.093 64.8543C506.055 66.1523 509.735 67.5713 515.135 69.1133C523.759 71.4973 530.103 74.5813 534.17 78.3663C538.234 82.1533 540.268 86.9563 540.268 92.7753C540.268 97.1223 539.06 100.96 536.641 104.289C534.222 107.62 530.786 110.197 526.335 112.019C521.881 113.841 516.747 114.753 510.928 114.753C505.25 114.753 499.745 113.893 494.419 112.177Z" fill="white"/>
<path d="M565.666 110.337C559.671 107.112 555.026 102.608 551.731 96.8235C548.436 91.0385 546.789 84.4325 546.789 76.9995C546.789 69.7095 548.436 63.1715 551.731 57.3885C555.026 51.6035 559.618 47.0655 565.508 43.7695C571.396 40.4745 578.091 38.8265 585.593 38.8265C591.201 38.8265 596.512 39.7735 601.525 41.6655C606.537 43.5595 611.111 46.3985 615.249 50.1845L605.574 62.0665C603.12 59.6845 600.211 57.8605 596.846 56.5985C593.481 55.3365 590.011 54.7065 586.435 54.7065C582.158 54.7065 578.391 55.6515 575.13 57.5455C571.87 59.4385 569.328 62.0845 567.506 65.4845C565.682 68.8855 564.771 72.7245 564.771 76.9995C564.771 81.4175 565.682 85.3085 567.506 88.6725C569.328 92.0385 571.938 94.6505 575.34 96.5075C578.739 98.3655 582.719 99.2945 587.276 99.2945C593.165 99.2945 598.492 97.8925 603.261 95.0875V85.5185H582.544V71.7415H618.509V103.291C614.442 107.148 609.604 110.092 603.997 112.125C598.388 114.156 592.534 115.174 586.435 115.174C578.582 115.174 571.66 113.563 565.666 110.337Z" fill="white"/>
<path d="M672.139 87.9371L661.518 58.5971L650.687 87.9371H672.139ZM651.738 40.1931H671.088L699.272 113.806H680.658L676.031 100.977H646.796L642.169 113.806H623.24L651.738 40.1931Z" fill="white"/>
<path d="M715.467 56.8091H694.118V40.1931H755.007V56.8091H733.554V113.806H715.467V56.8091Z" fill="white"/>
<path d="M764.892 40.1929H814.949V54.6009H782.559V69.5339H812.214V83.7299H782.559V99.1899H816.21V113.806H764.892V40.1929Z" fill="white"/>
<path d="M90.6452 81.0386V81.7606C98.8662 81.7606 99.7312 86.9516 99.7312 97.4806V125.893C96.9902 126.614 93.8182 127.047 90.6452 127.047C87.1392 127.136 83.8812 126.619 80.8692 125.605V127.79C84.1042 127.975 87.3742 127.974 90.6452 127.768C97.2792 127.335 102.615 126.182 106.942 124.451C113.432 122.72 121.509 121.277 121.509 128.2H122.085V97.4806C122.23 86.9516 122.951 81.7606 131.171 81.7606V81.0386H90.6452Z" fill="#AF9656"/>
<path d="M76.5495 26.7554C76.8055 26.7264 77.0535 26.6804 77.3145 26.6574C105.634 24.4174 119.556 51.6184 119.556 61.5384H120.355V25.8004H119.556C119.556 36.6794 113.794 31.2984 106.435 29.3774C99.0735 27.4584 86.9145 25.0584 77.3145 26.0184C77.0575 26.0404 76.8045 26.0734 76.5495 26.0984V26.7554Z" fill="#AF9656"/>
<path d="M28.3259 25.8004H22.6469V26.5364C40.8569 26.8564 52.1229 40.2324 52.1229 76.2794C52.1229 112.326 40.8569 125.702 22.6469 126.022V126.758H28.3259C59.4779 126.758 78.0839 105.412 78.0839 76.2794C78.0839 47.0014 59.4779 25.8004 28.3259 25.8004Z" fill="#AF9656"/>
<path d="M10.028 143.882H143.791V10.117H10.028V143.882ZM153.294 153.384H0.525024V0.615021H153.294V153.384Z" fill="#AF9656"/>
<path d="M705.705 149.007C706.762 149.007 707.589 148.755 708.188 148.248C708.784 147.743 709.084 147.042 709.084 146.146C709.084 145.274 708.784 144.583 708.188 144.078C707.589 143.571 706.762 143.32 705.705 143.32H701.396V149.007H705.705ZM705.361 139.079C706.325 139.079 707.09 138.832 707.652 138.338C708.217 137.844 708.498 137.185 708.498 136.357C708.498 135.529 708.217 134.87 707.652 134.373C707.09 133.882 706.325 133.633 705.361 133.633H701.396V139.079H705.361ZM695.743 129.256H706.74C708.188 129.256 709.462 129.521 710.565 130.049C711.669 130.577 712.517 131.323 713.117 132.29C713.713 133.254 714.013 134.368 714.013 135.632C714.013 137.839 713.069 139.586 711.185 140.873C712.289 141.47 713.161 142.284 713.805 143.32C714.449 144.355 714.772 145.502 714.772 146.766C714.772 148.077 714.454 149.231 713.823 150.232C713.19 151.23 712.3 152.005 711.151 152.557C710.004 153.109 708.692 153.384 707.222 153.384H695.743V129.256Z" fill="#808081"/>
<path d="M723.662 144.458L714.976 129.257H721.734L724.456 134.256L726.663 138.564L728.972 134.256L731.727 129.257H738.277L729.592 144.458V153.385H723.662V144.458Z" fill="#808081"/>
<path d="M761.714 144.907L758.233 135.289L754.684 144.907H761.714ZM755.027 129.257H761.37L770.608 153.385H764.507L762.991 149.178H753.406L751.891 153.385H745.688L755.027 129.257Z" fill="#808081"/>
<path d="M782.569 148.006C784.821 148.006 786.568 147.42 787.808 146.248C789.048 145.076 789.671 143.435 789.671 141.319C789.671 139.207 789.048 137.563 787.808 136.391C786.568 135.22 784.821 134.634 782.569 134.634H779.466V148.006H782.569ZM773.537 129.256H783.189C785.673 129.256 787.852 129.749 789.739 130.737C791.623 131.728 793.076 133.134 794.097 134.962C795.12 136.788 795.632 138.908 795.632 141.319C795.632 143.732 795.12 145.852 794.097 147.68C793.076 149.506 791.623 150.914 789.739 151.902C787.852 152.89 785.673 153.384 783.189 153.384H773.537V129.256Z" fill="#808081"/>
<path d="M799.388 129.256H815.795V133.98H805.181V138.874H814.9V143.527H805.181V148.592H816.21V153.384H799.388V129.256Z" fill="#808081"/>
</g>
<defs>
<clipPath id="clip0_4_2">
<rect width="817" height="154" fill="white"/>
</clipPath>
</defs>
</svg>
