<svg width="318" height="301" viewBox="0 0 318 301" fill="none" xmlns="http://www.w3.org/2000/svg">
<path d="M83.2899 89.7756C63.112 113.65 50.5332 144.055 48.9897 175.275C47.4439 206.497 57.1389 238.327 77.5564 263.649C85.66 269.673 93.8755 275.548 102.196 281.27C108.201 285.4 114.3 289.474 120.956 292.449C130.751 296.831 141.508 298.717 152.222 299.354C190.196 301.61 228.866 287.887 257.059 262.268C288.167 227.979 299.805 177.113 286.794 133.207C296.003 128.282 305.589 124.067 315.443 120.608C313.761 118.886 311.356 118.119 309.05 117.42C302.728 115.509 296.387 113.666 289.71 112.027C292.094 104.494 294.478 96.9613 296.862 89.4286C295.916 88.5586 294.412 88.9788 293.217 89.456C285.447 92.5636 277.844 96.0936 270.437 99.7949C258.906 86.7251 245.514 75.3016 230.563 66.3783C240.411 52.0207 250.259 37.6631 260.107 23.3078C253.567 24.6116 247.025 25.9176 240.488 27.2214C239.949 27.3287 239.354 27.4292 238.876 27.1552C238.369 26.8675 238.162 26.2601 237.995 25.703C235.787 18.2274 234.639 10.4389 234.597 2.64362C232.147 5.18953 230.316 8.25605 228.505 11.2929C221.815 22.5223 215.127 33.7518 208.435 44.9835C207.976 45.7552 207.515 46.5339 207.22 47.381C206.279 50.0936 207.174 53.0642 207.939 55.7403C175.226 45.9653 138.398 50.9704 109.233 69.6207C102.648 59.421 96.2958 49.0684 90.1856 38.5764C89.464 39.1107 89.1627 40.0332 88.9093 40.8986C86.9137 47.7212 85.2856 54.6534 84.4864 62.1176C77.2072 60.0238 69.768 58.4894 62.2558 57.5395C63.5162 60.654 65.4159 63.4625 67.2997 66.2459C72.7432 74.2764 78.182 82.3046 83.2899 89.7756Z" fill="white"/>
<path d="M217.531 59.1447C217.271 59.1447 217.033 58.9689 216.969 58.7063L212.601 41.1817C212.524 40.8712 212.713 40.5561 213.024 40.4784C213.337 40.4031 213.647 40.5903 213.727 40.9009L218.095 58.4255C218.173 58.736 217.983 59.0511 217.673 59.1287C217.625 59.1401 217.579 59.1447 217.531 59.1447Z" fill="#0F0202"/>
<path d="M222.279 50.3469C222.042 50.3469 221.823 50.2008 221.736 49.9656L216.329 35.1673C216.217 34.8659 216.375 34.5348 216.674 34.4229C216.975 34.3156 217.306 34.4709 217.416 34.7677L222.825 49.566C222.935 49.8674 222.777 50.1985 222.48 50.3104C222.414 50.3355 222.348 50.3469 222.279 50.3469Z" fill="#0F0202"/>
<path d="M227.009 43.9765C226.779 43.9765 226.559 43.8372 226.47 43.6089L220.305 27.8767C220.189 27.5799 220.337 27.2419 220.634 27.1255C220.936 27.009 221.269 27.1575 221.385 27.4543L227.553 43.1865C227.669 43.4833 227.521 43.8212 227.222 43.94C227.151 43.9651 227.08 43.9765 227.009 43.9765Z" fill="#0F0202"/>
<path d="M231.261 38.1128C231.012 38.1128 230.782 37.9507 230.707 37.7018C228.72 31.1486 227.021 25.2645 225.375 19.5744L225.299 19.3141C225.213 19.0059 225.389 18.6862 225.697 18.5972C226 18.5035 226.325 18.6862 226.414 18.9945L226.487 19.2525C228.085 24.7827 229.736 30.4956 231.652 36.8227C239.004 34.7951 246.56 33.3018 254.127 32.3862C254.442 32.3428 254.734 32.5734 254.771 32.8908C254.809 33.2105 254.583 33.4982 254.266 33.537C246.571 34.4709 238.883 36.003 231.417 38.09C231.366 38.106 231.312 38.1128 231.261 38.1128Z" fill="#0F0202"/>
<path d="M228.865 44.8442C228.591 44.8442 228.347 44.6479 228.297 44.3693C228.24 44.0542 228.445 43.7505 228.76 43.6934C234.953 42.5563 241.261 41.6019 247.509 40.8575C247.801 40.8096 248.114 41.0448 248.15 41.3644C248.191 41.6818 247.963 41.9718 247.643 42.0083C241.419 42.7481 235.137 43.7003 228.97 44.8351C228.936 44.842 228.902 44.8442 228.865 44.8442Z" fill="#0F0202"/>
<path d="M224.454 51.8974C224.178 51.8974 223.931 51.6987 223.883 51.4156C223.831 51.1005 224.041 50.8014 224.356 50.7466C230.407 49.7031 236.587 49.0181 242.727 48.7076C243.086 48.6733 243.321 48.9382 243.337 49.2556C243.353 49.5775 243.106 49.847 242.787 49.8652C236.695 50.1735 230.562 50.8539 224.557 51.8905C224.52 51.8928 224.486 51.8974 224.454 51.8974Z" fill="#0F0202"/>
<path d="M219.764 60.3412C219.493 60.3412 219.248 60.1494 219.196 59.8709C219.136 59.5558 219.342 59.2521 219.657 59.1927C225.329 58.1081 231.126 57.3227 236.887 56.8569C237.214 56.8386 237.485 57.0669 237.508 57.3866C237.536 57.704 237.298 57.9848 236.978 58.0099C231.263 58.4757 225.509 59.2544 219.876 60.3321C219.837 60.3389 219.801 60.3412 219.764 60.3412Z" fill="#0F0202"/>
<path d="M137.046 169.092C136.909 169.092 136.772 169.044 136.66 168.946C136.423 168.733 136.4 168.366 136.613 168.126C146.251 157.278 157.005 147.332 168.577 138.561C168.828 138.37 169.196 138.418 169.388 138.673C169.582 138.927 169.531 139.292 169.276 139.484C157.763 148.206 147.063 158.102 137.478 168.893C137.366 169.026 137.209 169.092 137.046 169.092Z" fill="#0F0202"/>
<path d="M137.07 181.6C136.93 181.6 136.793 181.55 136.681 181.451C136.444 181.237 136.426 180.871 136.638 180.634C149.58 166.288 163.787 152.887 178.866 140.804C179.113 140.607 179.48 140.644 179.679 140.895C179.877 141.146 179.839 141.511 179.588 141.71C164.559 153.752 150.397 167.112 137.497 181.413C137.387 181.534 137.227 181.6 137.07 181.6Z" fill="#0F0202"/>
<path d="M140.054 191.06C139.908 191.06 139.76 191.005 139.645 190.891C139.417 190.667 139.415 190.299 139.641 190.071C154.286 175.243 169.495 160.598 184.849 146.542C185.084 146.327 185.451 146.341 185.666 146.578C185.881 146.816 185.867 147.181 185.63 147.398C170.292 161.443 155.097 176.074 140.463 190.886C140.353 191 140.203 191.06 140.054 191.06Z" fill="#0F0202"/>
<path d="M147.428 199.746C147.3 199.746 147.175 199.704 147.07 199.62C146.819 199.421 146.775 199.056 146.976 198.807C152.194 192.227 157.792 185.833 163.615 179.805C163.836 179.575 164.204 179.57 164.432 179.792C164.661 180.013 164.67 180.381 164.446 180.611C158.653 186.61 153.077 192.976 147.883 199.526C147.769 199.67 147.6 199.746 147.428 199.746Z" fill="#0F0202"/>
<path d="M172.617 170.35C172.47 170.35 172.322 170.295 172.208 170.183C171.98 169.959 171.977 169.592 172.203 169.363L190.399 150.921C190.625 150.695 190.991 150.69 191.217 150.916C191.445 151.142 191.447 151.508 191.221 151.736L173.028 170.179C172.916 170.29 172.767 170.35 172.617 170.35Z" fill="#0F0202"/>
<path d="M156.823 204.65C156.686 204.65 156.55 204.602 156.44 204.506C156.2 204.294 156.177 203.929 156.39 203.689C165.4 193.498 175.031 183.644 185.016 174.394C185.251 174.177 185.619 174.191 185.836 174.426C186.052 174.661 186.039 175.026 185.804 175.245C175.846 184.468 166.242 194.295 157.257 204.456C157.143 204.584 156.986 204.65 156.823 204.65Z" fill="#0F0202"/>
<path d="M168.831 205.821C168.692 205.821 168.555 205.773 168.443 205.673C168.206 205.458 168.187 205.093 168.4 204.856C178.853 193.252 189.559 181.524 200.22 169.998C200.428 169.777 200.768 169.749 201.008 169.939C201.246 170.128 201.298 170.466 201.129 170.717L200.449 171.724C200.339 171.889 200.156 171.978 199.971 171.978C189.678 183.116 179.353 194.43 169.263 205.632C169.149 205.757 168.991 205.821 168.831 205.821Z" fill="#0F0202"/>
<path d="M183.412 203.529C183.268 203.529 183.122 203.477 183.008 203.367C182.777 203.146 182.77 202.778 182.992 202.547L196.822 188.149C197.046 187.918 197.411 187.911 197.642 188.133C197.872 188.354 197.879 188.722 197.658 188.952L183.827 203.351C183.716 203.47 183.563 203.529 183.412 203.529Z" fill="#0F0202"/>
<g opacity="0.1294">
<path d="M292.006 189.815C292.104 187.032 292.168 184.246 292.177 181.467C292.195 177.022 291.992 172.585 291.86 168.146C291.741 168.642 291.631 169.119 291.542 169.564C288.992 179.07 287.368 188.865 283.832 198.076C281.838 204.538 273.089 220.462 269.992 225.522C262.695 238.126 257.407 246.191 246.81 255.08C239.686 260.795 234.56 264.355 226.12 269.787C222.657 271.771 219.104 273.598 215.514 275.347C215.416 275.388 215.327 275.427 215.245 275.461C206.73 278.776 204.438 279.655 196.549 282.644C188.434 285.373 179.02 287.234 175.024 287.652C175.574 287.578 176.122 287.505 176.672 287.43C169.345 288.266 168.679 288.09 163.596 288.359C159.938 288.49 160.545 288.656 154.481 288.494C138.787 286.845 133.497 286.647 120.201 283.959C114.554 282.742 108.444 281.87 105.505 279.811C104.722 279.354 103.95 278.884 103.181 278.404C99.8017 277.488 96.4704 276.408 93.2235 275.127C92.3627 276.331 92.2393 278.1 93.4768 279.226C97.6531 282.564 101.911 286.003 106.928 287.992C114.511 290.556 122.345 292.447 130.14 294.264C138.13 295.919 150.624 298.79 154.159 299.31C161.397 300.516 165.194 300.52 168.443 300.523C188.263 299.89 206.767 291.453 224.056 282.391C231.842 278.372 239.318 273.78 245.994 268.076C247.326 266.921 248.698 265.802 250.063 264.679C248.803 266.275 247.549 267.983 246.339 269.86C245.725 270.819 245.127 271.794 244.538 272.766C244.513 272.801 244.494 272.835 244.474 272.869C244.455 272.901 244.435 272.931 244.417 272.963C244.426 272.954 244.433 272.942 244.442 272.933C244.104 273.483 243.903 274.116 243.908 274.767C243.898 275.15 243.976 275.522 244.102 275.876C245.794 274.522 247.483 273.166 249.143 271.769C257.05 265.104 264.423 257.728 270.305 249.184C276.303 240.469 280.598 230.794 284.95 221.195C285.414 219.473 285.861 217.743 286.288 216.007C287.668 210.39 288.987 204.764 290.223 199.115C290.62 197.295 290.99 195.464 291.36 193.633C291.031 193.256 290.903 192.729 291.168 192.092C291.481 191.354 291.75 190.589 292.006 189.815Z" fill="#0F0202"/>
</g>
<g opacity="0.1294">
<path d="M291.463 112.394C289.986 112.458 288.807 113.582 287.419 114.018C283.704 116.004 279.898 117.815 276.176 119.779C271.562 122.859 266.81 125.695 261.695 127.859C259.656 128.805 259.524 128.878 256.718 129.821C255.848 130.177 254.781 130.129 254.039 130.736C252.06 132.134 253.692 135.39 256.012 134.698C256.311 134.643 256.619 134.579 256.93 134.508C257.569 135.593 258.898 136.257 260.487 135.426C265.698 133.093 270.689 130.334 275.637 127.496C279.766 125.628 283.796 123.564 287.702 121.256C289.456 120.29 291.152 119.251 292.765 118.068C293.367 117.5 293.5 118.016 294.32 116.148C294.865 114.321 293.363 112.376 291.463 112.394Z" fill="#0F0202"/>
</g>
<g opacity="0.1294">
<path d="M173.57 179.243C172.246 177.563 172.652 178.405 171.917 177.659C171.894 177.588 171.869 177.517 171.851 177.446C171.849 177.332 171.844 177.218 171.849 177.104C171.869 177.019 171.885 176.933 171.906 176.85C172.157 175.777 172.805 174.709 172.534 173.585C172.194 169.747 166.43 169.395 165.496 173.106C164.592 175.556 164.101 178.387 165.453 180.771C166.615 182.732 169.214 184.653 171.579 184.13C173.648 183.611 174.659 181.061 173.57 179.243Z" fill="#0F0202"/>
</g>
<g opacity="0.1294">
<path d="M186.221 126.489C185.851 125.304 184.951 124.311 183.73 123.998C183.666 123.978 183.602 123.95 183.538 123.93C183.3 123.825 182.972 123.692 182.675 123.599C182.656 123.59 182.634 123.576 182.62 123.567C182.517 123.469 182.412 123.375 182.318 123.268C182.225 123.101 182.015 122.749 181.832 122.368C181.245 120.882 180.843 119.238 179.352 118.393C175.87 116.267 171.685 120.448 173.811 123.934C174.825 126.419 176.163 128.976 178.667 130.225C181.789 132.047 187.177 131.015 186.221 126.489Z" fill="#0F0202"/>
</g>
<g opacity="0.1294">
<path d="M138.439 135.123C138.019 130.883 131.774 130.501 130.697 134.595C129.598 137.13 130.475 135.577 129.155 137.966C128.941 138.194 128.731 138.427 128.5 138.635C127.948 138.991 126.297 140.194 126.062 140.833C123.591 145.158 129.263 149.528 132.802 146.035C135.067 144.178 136.633 141.676 137.567 138.918C137.942 137.689 138.748 136.445 138.439 135.123Z" fill="#0F0202"/>
</g>
<g opacity="0.1294">
<path d="M238.595 26.8287C232.891 35.7428 227.297 44.7255 221.881 53.8177C220.148 56.681 218.271 59.4575 216.547 62.3254C215.994 63.1976 215.519 64.2023 215.755 65.2458C215.136 65.3485 214.549 65.6614 214.067 66.2322C214.067 66.2253 214.069 66.2139 214.069 66.2094C213.558 66.6866 213.311 67.3076 213.243 67.9515C213.234 67.9949 213.231 68.0246 213.231 68.0474C213.133 69.3558 213.864 70.7075 215.179 71.1528C215.227 71.1733 215.277 71.1961 215.33 71.2144C215.355 71.2213 215.376 71.2373 215.398 71.2441L215.389 71.2304C216.462 71.5706 217.705 71.3606 218.549 70.502C219.44 69.4654 219.623 68.4333 219.387 67.5542C219.675 67.4903 219.958 67.399 220.223 67.2391C220.977 66.8327 221.358 66.0723 221.773 65.3622C222.625 63.9374 223.605 62.5948 224.497 61.1951C231.386 50.6484 238.346 39.9442 243.798 28.628C244.335 25.6619 240.056 24.2029 238.595 26.8287Z" fill="#0F0202"/>
</g>
<path d="M270.98 102.08C270.453 102.08 269.927 101.841 269.587 101.384C266.048 96.6576 262.002 92.0977 257.556 87.837C249.576 80.181 239.877 73.0844 229.508 67.3053C228.67 66.8372 228.368 65.7777 228.834 64.9375C229.302 64.0995 230.36 63.7958 231.202 64.2662C241.824 70.1869 251.77 77.4684 259.963 85.3254C264.546 89.7185 268.72 94.4199 272.373 99.2971C272.948 100.067 272.793 101.156 272.024 101.733C271.706 101.969 271.341 102.08 270.98 102.08Z" fill="#0F0202"/>
<path d="M160.93 301C150.716 301 140.864 299.79 131.771 297.322C94.0666 287.083 63.2736 258.046 53.3228 223.351C49.4183 209.737 48.6717 195.786 48.4571 185.155C48.2128 172.91 48.7539 163.011 50.1604 154.008C53.9507 129.743 65.0547 107.159 82.271 88.6933C82.9241 87.99 84.0269 87.9535 84.7279 88.6065C85.4289 89.2596 85.4677 90.3624 84.8123 91.0634C68.0732 109.02 57.2776 130.972 53.5946 154.545C52.2177 163.345 51.6925 173.049 51.9323 185.084C52.1423 195.505 52.8663 209.162 56.6612 222.392C66.2854 255.943 96.1263 284.039 132.683 293.967C186.498 308.581 265.76 277.114 281.549 219.551L281.908 218.245C286.419 201.851 295.806 167.731 285.634 133.358C285.36 132.435 285.885 131.469 286.808 131.195C287.732 130.926 288.696 131.449 288.968 132.369C299.423 167.697 289.858 202.46 285.262 219.168L284.903 220.469C277.373 247.919 254.775 272.155 222.899 286.96C203.018 296.196 181.27 301 160.93 301Z" fill="#0F0202"/>
<path d="M108.59 70.8195C108.004 70.8195 107.431 70.5249 107.104 69.986C106.604 69.1663 106.864 68.0977 107.682 67.5954C130.988 53.352 158.618 47.0568 185.507 49.8653C191.631 49.6575 199.586 51.1211 208.461 54.1032C209.372 54.4091 209.861 55.3933 209.555 56.3043C209.249 57.2154 208.265 57.7086 207.354 57.398C198.933 54.569 191.19 53.1419 185.511 53.3428C185.431 53.3474 185.345 53.3428 185.265 53.336C159.093 50.5731 132.189 56.6925 109.497 70.5615C109.214 70.7373 108.899 70.8195 108.59 70.8195Z" fill="#0F0202"/>
<path d="M210.767 73.5342C210.399 73.5342 210.038 73.4178 209.737 73.1986C209.365 72.9246 209.118 72.5159 209.047 72.0592C207.869 64.3598 206.579 56.5714 205.204 48.9085C205.131 48.4952 205.209 48.0682 205.424 47.7097C209.958 40.1222 214.434 32.6831 218.845 25.3582C223.839 17.0651 228.743 8.91589 233.548 0.851149C233.949 0.175282 234.753 -0.148955 235.511 0.0656782C236.267 0.278028 236.788 0.972163 236.781 1.75991C236.696 10.1146 237.493 17.8255 239.153 24.7074C244.435 23.9105 249.743 22.8693 254.89 21.8555C256.901 21.4605 258.906 21.0655 260.904 20.6865C261.589 20.5563 262.292 20.8509 262.678 21.4377C263.064 22.0245 263.062 22.7826 262.672 23.3648C253.157 37.5329 243.318 52.1805 232.474 66.9468C232.287 67.2003 232.034 67.4012 231.741 67.5222C224.551 70.5202 217.777 72.4793 211.029 73.516C210.943 73.5274 210.856 73.5342 210.767 73.5342ZM208.746 48.9336C209.979 55.8407 211.146 62.846 212.219 69.7919C217.982 68.7689 223.809 67.0267 229.963 64.4945C239.77 51.1188 248.766 37.8229 257.456 24.8947C256.826 25.018 256.194 25.1413 255.564 25.2668C249.871 26.3857 243.982 27.5456 238.098 28.3745C237.217 28.4955 236.4 27.9475 236.173 27.0958C234.628 21.2436 233.698 14.8 233.404 7.87925C229.602 14.2338 225.743 20.6477 221.827 27.1483C217.525 34.2929 213.162 41.5424 208.746 48.9336Z" fill="#0F0202"/>
<path d="M272.667 141.406C272.491 141.406 272.313 141.379 272.144 141.326C268.98 140.326 265.354 139.427 261.849 138.559C256.163 137.15 251.254 135.933 248.544 134.419C247.754 133.979 247.434 133.006 247.809 132.184C250.855 125.45 252.512 119.628 254.627 108.232C254.722 107.711 255.051 107.264 255.517 107.015C259.335 104.971 263.169 102.866 267.032 100.74C276.412 95.5844 286.111 90.2551 296.236 85.4944C296.85 85.209 297.574 85.3003 298.094 85.7364C298.613 86.1725 298.83 86.8712 298.652 87.5243C296.542 95.2785 294.375 103.254 291.989 111.038C301.424 112.846 309.331 115.219 316.742 118.457C317.366 118.731 317.774 119.343 317.784 120.025C317.795 120.708 317.405 121.331 316.788 121.624C311.087 124.322 304.118 127.302 297.38 130.184C287.484 134.413 278.136 138.408 273.56 141.158C273.288 141.322 272.98 141.406 272.667 141.406ZM251.667 132.047C254.268 133.093 258.376 134.113 262.685 135.182C265.975 135.997 269.372 136.842 272.448 137.78C277.407 134.94 286.458 131.072 296.012 126.987C301.355 124.704 306.842 122.357 311.708 120.146C305.072 117.568 297.893 115.625 289.441 114.107C288.95 114.018 288.52 113.723 288.262 113.299C288.002 112.872 287.938 112.353 288.089 111.878C290.306 104.773 292.338 97.4545 294.295 90.2825C285.493 94.5684 276.974 99.2492 268.706 103.793C265.075 105.789 261.477 107.766 257.892 109.691C255.951 120.002 254.341 125.82 251.667 132.047Z" fill="#0F0202"/>
<path d="M230.008 116.557C214.157 98.9022 186.159 88.7276 173.82 88.9811C141.954 89.6318 113.047 101.581 97.4264 129.366C93.0104 137.217 89.9987 145.793 87.7634 154.52C81.5047 178.94 81.8701 206.803 96.8054 227.116C100.208 231.742 104.276 235.857 108.697 239.524C129.192 256.528 157.681 263.473 183.682 257.706C209.68 251.938 232.591 233.55 243.756 209.374C257.637 179.307 252.134 141.196 230.008 116.557ZM198.9 196.095C187.808 211.391 164.881 216.807 148.349 207.653C131.82 198.499 124.306 175.723 132.588 158.739C139.963 143.61 157.693 132.435 174.304 135.159C178.658 135.874 187.077 139.651 193.607 145.206C207.892 157.349 209.908 180.915 198.9 196.095Z" fill="#EC2227"/>
<path d="M106.392 96.5685C106.351 96.5685 106.312 96.5685 106.271 96.5639C98.8957 96.057 90.1596 95.0226 85.0335 94.0454C84.6043 93.9632 84.223 93.7234 83.9604 93.3718C74.6399 80.7701 66.945 69.3694 60.4329 58.5144C60.063 57.8956 60.111 57.1147 60.5563 56.5462C61.0015 55.9799 61.7504 55.747 62.4377 55.9571C70.1234 58.3295 77.0557 59.5511 83.5723 59.6766C84.2664 51.1781 85.8876 43.5083 88.3993 36.857C88.6413 36.2085 89.2487 35.7678 89.9405 35.7336C90.6552 35.7062 91.2762 36.0784 91.5845 36.6972C99.2131 52.0937 105.657 62.8802 112.479 71.6733C112.79 72.0729 112.909 72.5843 112.81 73.0798C111.335 80.4641 109.81 88.1019 108.082 95.235C107.89 96.0227 107.186 96.5685 106.392 96.5685ZM86.3489 90.7528C91.0708 91.6068 98.4458 92.4859 105.042 92.9882C106.559 86.5834 107.924 79.7928 109.246 73.178C103.022 65.0516 97.0988 55.2835 90.3333 41.9648C88.55 47.801 87.4037 54.3679 86.9242 61.5444C86.8648 62.4509 86.1136 63.1587 85.2026 63.1656C79.0627 63.2021 72.6922 62.3459 65.7281 60.5169C71.5757 69.979 78.3526 79.9184 86.3489 90.7528Z" fill="#0F0202"/>
<path d="M165.505 262.313C144.675 262.313 123.661 255.043 107.65 241.761C102.832 237.761 98.7315 233.482 95.4709 229.045C77.2043 204.205 81.7869 171.982 86.1435 154.985C88.7031 144.993 91.9181 136.627 95.9756 129.412C110.527 103.528 138.188 88.8714 173.851 88.1407C187.094 87.9078 215.351 98.4523 231.368 116.294C253.827 141.308 259.595 180.253 245.397 211.002C234.065 235.541 210.585 254.431 184.121 260.304C178.029 261.654 171.771 262.313 165.505 262.313ZM173.924 91.6205C139.537 92.3238 112.932 106.35 99.0079 131.118C95.1034 138.064 91.998 146.153 89.5137 155.848C85.3078 172.25 80.8576 203.301 98.2726 226.983C101.366 231.192 105.269 235.261 109.874 239.083C129.894 255.694 158.059 262.521 183.37 256.907C208.8 251.267 231.357 233.119 242.241 209.543C255.875 180.02 250.343 142.628 228.783 118.619C213.825 101.962 186.829 91.616 174.365 91.616C174.216 91.616 174.068 91.616 173.924 91.6205Z" fill="#0F0202"/>
<path d="M166.465 214.825C159.912 214.825 153.386 213.295 147.573 210.075C130.19 200.449 122.486 176.524 131.09 158.878C139.244 142.155 157.969 131.613 174.651 134.344C179.378 135.118 188.045 139.039 194.799 144.781C209.614 157.378 212.166 181.757 200.371 198.017C192.543 208.813 179.451 214.822 166.465 214.825ZM169.436 137.404C155.642 137.404 140.846 146.804 134.216 160.401C126.381 176.467 133.41 198.257 149.258 207.032C164.83 215.658 186.951 210.594 197.558 195.973C208.141 181.383 205.798 158.698 192.546 147.43C185.885 141.765 177.743 138.374 174.087 137.776C172.56 137.525 171.002 137.404 169.436 137.404Z" fill="#0F0202"/>
<path d="M180.326 126.782C180.027 126.782 179.723 126.704 179.449 126.544C178.62 126.06 178.342 124.994 178.826 124.165L245.481 10.2151C245.967 9.3862 247.036 9.1122 247.862 9.59399C248.689 10.0781 248.967 11.1444 248.483 11.9732L181.828 125.923C181.506 126.473 180.924 126.782 180.326 126.782Z" fill="#0F0202"/>
<path d="M170.156 178.216C169.532 178.216 168.927 177.878 168.617 177.287C168.169 176.435 168.496 175.385 169.345 174.939C214.806 151.021 260.567 126.181 305.356 101.103C306.194 100.633 307.254 100.934 307.722 101.77C308.192 102.608 307.893 103.667 307.055 104.138C262.238 129.229 216.45 154.086 170.962 178.015C170.706 178.152 170.43 178.216 170.156 178.216Z" fill="#0F0202"/>
<path d="M130.65 141.406C130.017 141.406 129.408 141.062 129.1 140.459C114.073 111.068 97.0072 82.3548 78.3752 55.1146C77.8341 54.3223 78.0374 53.24 78.8297 52.6965C79.622 52.1554 80.7019 52.3586 81.2476 53.1509C99.9618 80.5144 117.105 109.355 132.196 138.876C132.632 139.73 132.292 140.778 131.438 141.217C131.184 141.347 130.915 141.406 130.65 141.406Z" fill="#0F0202"/>
<path d="M42.5817 249.723C41.8944 249.723 41.2459 249.314 40.9696 248.638C31.3363 224.947 25.2055 200.026 22.7463 174.572C22.655 173.615 23.3537 172.766 24.3104 172.672C25.2511 172.576 26.1165 173.279 26.2078 174.236C28.6373 199.355 34.6882 223.949 44.1937 247.328C44.5544 248.218 44.1275 249.232 43.2393 249.595C43.0224 249.682 42.8009 249.723 42.5817 249.723Z" fill="#0F0202"/>
<path d="M14.9065 258.909C14.1895 258.909 13.5182 258.461 13.2648 257.745L0.0990966 220.131C-0.22057 219.227 0.259024 218.231 1.16551 217.916C2.06971 217.599 3.06512 218.078 3.3825 218.983L16.5483 256.596C16.868 257.5 16.3884 258.493 15.4819 258.811C15.2924 258.879 15.096 258.909 14.9065 258.909Z" fill="#0F0202"/>
</svg>
