<svg width="294" height="271" viewBox="0 0 294 271" fill="none" xmlns="http://www.w3.org/2000/svg">
<path d="M2.63477 228.812C23.2418 198.714 42.3103 167.563 59.753 134.995C61.017 135.381 62.2541 135.855 63.4511 136.413C63.355 136.054 63.3663 135.667 63.4712 134.977C64.4203 131.746 65.7356 128.62 67.3813 125.681C68.1629 124.285 69.6769 122.731 71.0837 123.49C75.1882 114.473 76.5995 104.25 74.9336 94.6295C74.6701 87.5461 74.8913 80.4449 76.0548 73.7701C77.58 62.7073 80.2529 51.8009 84.0157 41.2874C85.5029 37.1383 87.227 32.9423 90.2573 29.7445C91.5837 28.3466 93.1892 27.1407 95.0539 26.6651C96.9207 26.1872 99.0734 26.5445 100.44 27.9022C102.358 29.8071 102.222 32.8954 101.952 35.5841C101.534 39.7443 101.119 43.9046 100.771 48.1386C102.774 49.5968 104.721 51.1399 106.597 52.7566C107.783 53.7794 108.973 54.8736 109.911 56.2001C111.09 54.4069 112.271 52.616 113.171 50.6575C109.504 43.9113 106.425 36.8458 103.971 29.5681C103.37 27.7861 102.805 25.9661 102.691 24.0881C102.631 23.0452 102.716 21.9778 103.111 21.0131C103.511 20.0462 104.248 19.1931 105.219 18.8135C106.409 18.349 107.769 18.6393 108.942 19.1462C112.968 20.8858 115.527 24.8183 117.847 28.5386C119.397 31.0241 120.947 33.5095 122.398 35.9369C123.048 35.1821 123.432 34.242 123.885 33.3554C124.549 32.0647 125.379 30.8588 126.384 29.5904C124.819 26.3971 123.365 23.1479 122.03 19.8519C120.967 17.2325 119.971 14.555 119.6 11.7547C119.357 9.90118 119.52 7.73508 120.998 6.59173C122.05 5.78112 123.539 5.72082 124.799 6.14064C126.058 6.56046 127.135 7.39341 128.142 8.25986C130.955 10.6805 133.443 13.4764 135.533 16.4151C136.844 13.2441 138.731 10.3121 141.072 7.80431C141.561 7.27953 142.079 6.76814 142.713 6.42871C143.814 5.83917 145.218 5.86374 146.319 6.71231C146.752 6.08928 147.239 5.42605 147.967 5.2072C148.872 4.93477 149.816 5.44392 150.589 5.99326C154.148 8.51666 156.739 12.1544 159.302 15.6603C161.053 13.6282 162.804 11.5961 164.559 9.56175C165.499 8.472 166.464 7.35992 167.712 6.64309C168.965 5.9285 170.573 5.67393 171.839 6.36395C173.018 7.00709 173.679 8.35812 173.82 9.69351C173.958 11.0289 173.648 12.3688 173.295 13.664C171.873 18.8783 169.713 23.8938 166.835 28.8535C168.456 31.1424 170.075 33.4291 171.408 36.0597C174.074 32.1786 176.743 28.2975 179.412 24.4186C181.064 22.0113 183.022 19.403 185.901 18.9095C186.917 18.7353 188.005 18.8626 188.887 19.4008C190.184 20.1891 190.852 21.7545 190.932 23.2685C191.013 24.7848 190.595 26.281 190.144 27.7325C187.777 35.4077 184.53 42.8126 180.49 49.7553C180.412 49.8938 180.336 50.0791 180.443 50.193C180.553 50.3092 180.758 50.0389 180.546 50.0992C181.955 52.1492 183.23 54.2908 184.36 56.5082C186.339 53.0246 189.742 50.3784 193.915 49.4248C193.123 44.8537 192.65 40.2245 192.5 35.5885C192.395 32.3751 192.853 28.4828 195.76 27.1117C197.522 26.2788 199.684 26.7432 201.298 27.833C202.915 28.9227 204.078 30.5507 205.135 32.1875C211.256 41.6849 214.808 52.6695 216.653 63.8172C218.497 74.9648 218.69 86.3202 218.495 97.6174C218.346 106.295 218.089 115.491 222.772 123.014C223.218 122.429 224.105 122.322 224.784 122.608C225.463 122.894 225.96 123.49 226.345 124.118C226.776 124.819 227.102 125.58 227.421 126.34C228.763 129.502 230.103 132.661 231.005 136.208C210.849 146.082 191.582 157.77 173.512 171.086C174.293 167.404 173.284 163.384 170.859 160.506C169.878 159.343 168.666 158.333 168 156.964C167.335 155.595 167.451 153.659 169.025 152.835C163.883 142.043 155.187 133.427 145.973 125.65C137.626 133.242 130.824 142.527 126.103 152.775C125.79 157.616 123.866 162.339 120.703 166.022C120.016 166.821 119.227 167.92 119.786 168.815C120.074 169.28 120.67 169.532 120.826 170.052C120.953 170.468 120.755 170.903 120.558 171.29C109.993 192.287 95.5922 211.168 84.9269 232.117C81.3272 239.189 78.1606 246.483 74.4626 253.506C71.7047 258.751 68.6497 263.841 64.9741 268.796C50.9078 264.497 38.1702 256.777 25.7051 248.966C17.2952 243.696 8.71103 238.144 2.63477 228.812Z" fill="#F5F5F5"/>
<path d="M71.1396 124.345C70.8091 124.345 70.4742 124.249 70.1817 124.048C69.4046 123.519 69.2059 122.461 69.7374 121.686C74.0316 115.397 73.7771 107.052 73.5248 98.9842L73.4599 96.7533C73.0848 82.2783 74.6456 67.8123 78.1047 53.7527C80.3556 44.6059 83.002 37.6431 86.4387 31.837C89.6075 26.4843 93.8525 23.9721 97.7961 25.1176C102.207 26.4017 104.261 31.5065 103.292 38.7798C103.022 40.8141 102.709 42.8574 102.396 44.9052C102.231 45.9927 102.066 47.0824 101.905 48.1722C101.767 49.1012 100.896 49.7465 99.9758 49.6081C99.0469 49.4696 98.4036 48.6076 98.5398 47.6787C98.7006 46.5822 98.8659 45.488 99.0356 44.3915C99.346 42.3661 99.652 40.3429 99.9199 38.3309C100.114 36.8749 100.876 29.5571 96.8451 28.3847C94.0782 27.5763 91.1616 30.5329 89.364 33.5699C86.1014 39.079 83.5735 45.7515 81.4074 54.5656C78.0198 68.3304 76.4924 82.4949 76.8586 96.6662L76.9235 98.8792C77.1893 107.492 77.4638 116.4 72.5443 123.604C72.2138 124.086 71.6822 124.345 71.1396 124.345Z" fill="#0F0202"/>
<path d="M147.087 34.5436C146.738 34.5436 146.388 34.4386 146.086 34.2176C145.327 33.6637 145.16 32.6008 145.713 31.8415L148.368 28.1993C148.922 27.4401 149.988 27.2748 150.745 27.8286C151.504 28.3847 151.669 29.4476 151.113 30.2069L148.46 33.8424C148.13 34.3002 147.611 34.5436 147.087 34.5436Z" fill="#0F0202"/>
<path d="M167.171 30.9348C166.926 30.9348 166.671 30.8812 166.434 30.7651C165.588 30.3564 165.233 29.3404 165.644 28.494C168.344 22.9001 170.309 18.3044 171.827 14.0325C172.694 11.5984 173.104 8.43631 171.421 7.53413C169.775 6.65652 167.361 8.67748 165.648 10.8704C163.958 13.0343 162.287 15.2138 160.628 17.4C160.061 18.1481 158.998 18.2955 158.248 17.7282C157.498 17.161 157.352 16.0936 157.922 15.3455C159.588 13.1437 161.271 10.953 162.969 8.77797C166.338 4.46362 170.005 2.91608 173.029 4.53508C176.072 6.16525 176.821 10.1424 175.032 15.1713C173.473 19.5639 171.461 24.2645 168.708 29.9723C168.411 30.582 167.803 30.9348 167.171 30.9348Z" fill="#0F0202"/>
<path d="M185.317 57.2163C184.922 57.2163 184.524 57.0778 184.203 56.7987C183.495 56.1846 183.417 55.1105 184.035 54.4003C186.621 51.4236 189.45 48.3911 193.048 46.8882C193.914 46.5264 194.913 46.9351 195.272 47.8015C195.634 48.668 195.225 49.6639 194.359 50.0279C191.438 51.2494 188.926 53.9604 186.601 56.6334C186.264 57.0175 185.793 57.2163 185.317 57.2163Z" fill="#0F0202"/>
<path d="M135.269 17.8689C134.957 17.8689 134.644 17.7841 134.358 17.6032C133.568 17.1008 133.331 16.049 133.836 15.2562L137.666 9.2179C140.642 4.51946 144.284 2.67492 147.413 4.28721C148.248 4.7182 148.576 5.7432 148.146 6.57838C147.717 7.41356 146.69 7.74182 145.854 7.31083C144.099 6.40196 141.685 9.22683 140.537 11.0379L136.708 17.0807C136.384 17.5898 135.832 17.8689 135.269 17.8689Z" fill="#0F0202"/>
<path d="M144.301 30.4324C144.118 30.4324 143.932 30.4033 143.749 30.3408C142.86 30.0349 142.389 29.068 142.691 28.1792C143.664 25.3521 144.531 22.4513 145.272 19.5549C145.504 18.6438 146.427 18.0923 147.342 18.329C148.253 18.5634 148.801 19.4902 148.568 20.3991C147.805 23.3825 146.909 26.3726 145.911 29.2846C145.67 29.9902 145.009 30.4324 144.301 30.4324Z" fill="#0F0202"/>
<path d="M109.931 57.8482C109.619 57.8482 109.306 57.7634 109.023 57.5825C108.23 57.08 107.993 56.0305 108.498 55.2377C109.172 54.1747 109.711 53.3038 110.251 52.4329C110.796 51.5531 111.341 50.6755 112.022 49.6036C112.526 48.8064 113.576 48.5741 114.369 49.0766C115.162 49.579 115.398 50.6308 114.894 51.4236C114.221 52.4865 113.681 53.3552 113.14 54.2261C112.596 55.106 112.051 55.9858 111.37 57.0577C111.046 57.5691 110.494 57.8482 109.931 57.8482Z" fill="#0F0202"/>
<path d="M122.636 37.8061C122.323 37.8061 122.01 37.7212 121.727 37.5426C120.934 37.0401 120.7 35.9883 121.202 35.1956C121.97 33.9852 122.591 32.9937 123.214 31.9978C123.819 31.0308 124.429 30.0594 125.175 28.8826C125.679 28.0876 126.729 27.8554 127.522 28.3578C128.315 28.8603 128.551 29.9098 128.047 30.7048C127.305 31.8749 126.698 32.8419 126.097 33.8043C125.472 34.8025 124.844 35.8007 124.074 37.0155C123.75 37.5269 123.199 37.8061 122.636 37.8061Z" fill="#0F0202"/>
<path d="M180.545 52.2142C180.297 52.2142 180.045 52.1606 179.808 52.0467C178.962 51.6403 178.604 50.6242 179.013 49.7756C182.59 42.3394 185.849 34.6508 188.693 26.9198C189.366 25.0954 190.256 21.8552 188.678 20.6426C187.78 19.9526 186.293 20.2071 185.288 20.8123C183.944 21.6207 182.919 23.0342 181.929 24.4009C178.975 28.483 175.996 32.6477 173.073 36.7834C172.53 37.5516 171.47 37.7347 170.701 37.1921C169.933 36.6495 169.75 35.5887 170.292 34.8228C173.222 30.6759 176.208 26.4978 179.171 22.4067C180.252 20.9173 181.597 19.0638 183.533 17.8959C185.527 16.6945 188.53 16.2434 190.746 17.9428C192.476 19.2737 194.082 22.1142 191.88 28.0922C188.997 35.9237 185.696 43.715 182.074 51.2495C181.786 51.8591 181.177 52.2142 180.545 52.2142Z" fill="#0F0202"/>
<path d="M125.664 153.856C125.364 153.856 125.061 153.778 124.786 153.612C123.982 153.128 123.723 152.083 124.205 151.279C129.473 142.523 136.057 133.856 145.549 123.184C146.175 122.483 147.249 122.421 147.95 123.044C148.651 123.667 148.716 124.743 148.091 125.444C138.741 135.953 132.274 144.461 127.12 153.032C126.803 153.561 126.242 153.856 125.664 153.856Z" fill="#0F0202"/>
<path d="M228.37 268.262C210.646 235.478 192.353 203.004 173.494 170.861C192.625 157.335 213.078 145.683 234.092 136.592C252.081 169.166 271.547 200.923 292.529 231.362C282.887 240.328 269.466 243.662 257.642 249.457C247.354 254.497 238.165 261.483 228.37 268.262Z" fill="#EC2227"/>
<g opacity="0.1294">
<path d="M218.22 72.3567C218.584 72.743 219.024 72.9976 219.493 73.1495C219.317 71.6042 219.162 70.0655 219.002 68.556C218.702 65.6931 218.535 62.8348 218.41 59.9764C218.171 58.9536 217.93 57.9286 217.673 56.9103C215.353 50.5103 213.37 43.9896 211.534 37.4176C210.511 35.1867 209.458 32.9715 208.39 30.7652C207.747 29.8318 207.124 28.8291 206.135 28.3445C204.527 27.5897 202.83 29.1663 203.017 30.7429C202.515 31.4128 202.361 32.3395 202.863 33.1367C205.25 37.3796 206.36 41.6784 207.769 47.4063C209.281 53.0448 210.072 58.1653 210.467 62.1559C210.617 62.6271 211.61 71.9793 211.579 77.236C211.838 84.9737 211.724 92.707 211.333 100.44C210.342 108.129 210.753 116.237 214.531 123.175C214.75 123.678 215.59 124.812 215.895 125.223C215.828 125.134 215.733 125.009 215.587 124.826C216.052 125.665 216.872 126.277 217.794 126.521C218.12 126.612 218.446 126.634 218.769 126.626C218.823 126.751 218.879 126.878 218.955 127.001C220.931 130.88 223.182 134.738 226.038 137.999C226.496 138.39 227.032 138.544 227.572 138.555C226.492 139.408 225.927 140.897 226.829 142.505C230.27 149.446 234.725 155.826 238.745 162.436C241.813 168.186 245.542 173.527 248.872 179.124C251.31 183.168 254.191 186.915 256.875 190.794C259.191 194.458 261.221 198.295 263.668 201.881C264.356 203.02 265.062 204.145 265.781 205.266C268.376 209.963 270.709 214.351 273.018 217.609C274.193 219.469 275.347 221.343 276.618 223.138C277.087 224.348 277.978 225.483 278.523 226.608C279.782 228.676 280.796 230.047 281.734 231.233C282.069 232.09 282.429 232.937 282.893 233.732C283.355 234.375 283.864 235.045 284.494 235.541C285.012 235.985 285.655 236.275 286.321 236.378C287.71 235.241 289.123 234.136 290.573 233.077C290.631 232.588 290.608 232.09 290.461 231.615C290.443 231.505 290.423 231.385 290.403 231.249C290.291 230.411 290.41 231.304 290.445 231.57C290.439 231.517 290.425 231.427 290.408 231.287C290.046 229.538 290.039 229.873 288.567 226.715C287.898 225.416 287.19 224.138 286.468 222.87C286.484 221.892 286.178 220.894 285.428 220.032C283.543 217.292 283.188 216.968 281.082 214.063C279.233 211.173 277.362 208.294 275.571 205.371C274.034 202.861 272.596 200.298 271.14 197.741C271.058 197.267 270.888 196.823 270.609 196.437C270.348 195.945 269.972 195.296 269.671 194.867C268.311 192.884 267.078 191.126 265.915 189.498C264.329 187.136 262.797 184.74 261.248 182.348C258.814 178.775 256.339 175.229 254.124 171.513C253.959 171.2 253.745 170.932 253.512 170.682C252.583 169.43 251.672 168.161 250.875 166.819C247.572 161.417 244.997 155.604 241.657 150.212C239.745 146.853 237.702 143.568 235.565 140.348C234.517 139.024 233.872 137.079 232.108 136.601C231.518 136.429 230.944 136.471 230.424 136.659C230.531 136.364 230.601 136.054 230.589 135.719C230.319 133.363 228.135 131.739 227.03 129.738C225.569 127.7 224.951 124.975 223.182 123.216C222.865 122.959 222.532 122.794 222.195 122.698C221.541 119.694 218.194 114.122 218.852 104.199C219.06 93.6225 219.265 82.917 218.22 72.3567Z" fill="#0F0202"/>
</g>
<path d="M168.336 153.856C167.757 153.856 167.195 153.563 166.878 153.032C157.825 137.981 145.426 124.709 133.434 111.876C117.566 94.8908 101.155 77.3275 92.3165 55.423C90.7622 51.5731 91.1015 48.5674 93.2744 46.9551C94.306 46.1869 95.6685 45.8542 97.312 45.9904C102.609 46.4035 106.47 50.3695 109.971 54.4003C112.854 57.7186 115.782 61.0884 118.721 64.4202C112.278 52.7522 106.716 40.5885 102.115 28.0943C99.9158 22.1163 101.517 19.2758 103.252 17.9449C105.469 16.2455 108.475 16.6966 110.465 17.898C112.401 19.0637 113.745 20.9194 114.824 22.4088C122.102 32.4578 129.518 43.0137 136.956 53.9134C134.681 48.6925 132.106 43.5898 129.576 38.581C125.777 31.0554 121.849 23.2753 118.971 15.1736C117.182 10.1447 117.932 6.16751 120.974 4.53734C123.997 2.91611 127.666 4.46589 131.034 8.78024C137.427 16.9713 143.675 25.4995 149.754 33.8602C147.172 27.2591 145.203 20.4214 143.865 13.3938C143.006 8.87179 143.97 5.63603 146.581 4.28947C149.698 2.67494 153.352 4.51948 156.331 9.22016L192.996 67.0597C193.869 59.7999 192.715 52.2319 191.591 44.8716C191.281 42.8373 190.973 40.8051 190.702 38.7842C189.735 31.511 191.79 26.4061 196.2 25.1221C200.142 23.9809 204.389 26.4865 207.556 31.8415C212.069 39.4608 214.476 47.9979 215.892 53.7571C219.351 67.8167 220.912 82.2828 220.534 96.7577L220.47 98.9908C220.222 107.057 219.963 115.4 224.259 121.688C224.788 122.465 224.59 123.521 223.815 124.053C223.04 124.584 221.982 124.383 221.45 123.609C216.528 116.405 216.803 107.499 217.069 98.8859L217.134 96.6684C217.502 82.4971 215.972 68.3326 212.587 54.5677C210.416 45.7492 207.888 39.0767 204.628 33.5721C202.83 30.5351 199.932 27.5785 197.147 28.3869C193.116 29.5592 193.88 36.8771 194.074 38.3331C194.34 40.334 194.646 42.3437 194.954 44.358C196.346 53.4735 197.784 62.8994 195.551 72.0574C195.39 72.7206 194.847 73.2231 194.175 73.3325C193.498 73.4397 192.826 73.1404 192.462 72.5643L153.459 11.0379C152.311 9.22685 149.902 6.40422 148.14 7.31085C146.521 8.14603 146.949 11.3974 147.206 12.7552C149.743 26.0868 154.622 38.715 161.712 50.2891C162.188 51.0662 161.967 52.0801 161.21 52.5892C160.451 53.0984 159.432 52.9175 158.89 52.185C155.857 48.0538 152.858 43.9248 149.87 39.8092C142.914 30.2247 135.719 20.312 128.35 10.8704C126.639 8.67751 124.232 6.65655 122.577 7.53416C120.896 8.43633 121.309 11.5984 122.171 14.0325C124.98 21.9332 128.859 29.6151 132.61 37.0468C137.26 46.2561 142.066 55.7759 144.964 65.9164C145.196 66.7203 144.806 67.5733 144.044 67.9261C143.283 68.2767 142.383 68.0244 141.918 67.3277C131.9 52.3637 121.858 37.9222 112.066 24.3985C111.074 23.0319 110.052 21.6183 108.707 20.8099C107.702 20.2048 106.218 19.9502 105.315 20.6425C103.739 21.8528 104.63 25.093 105.3 26.9175C111.78 44.521 120.197 61.4569 130.313 77.256C130.786 77.9952 130.619 78.9755 129.924 79.5159C129.232 80.0541 128.243 79.9782 127.642 79.3373C120.889 72.1556 114.029 64.2616 107.399 56.6289C104.36 53.1341 101.055 49.6929 97.0416 49.3802C96.2489 49.32 95.6459 49.4249 95.2976 49.6839C94.3708 50.3717 94.7796 52.4418 95.4674 54.1501C104.069 75.4673 120.259 92.7962 135.916 109.553C148.028 122.517 160.549 135.92 169.785 151.277C170.272 152.083 170.011 153.128 169.204 153.61C168.936 153.778 168.633 153.856 168.336 153.856Z" fill="#0F0202"/>
<path d="M228.915 270.14C228.31 270.14 227.725 269.816 227.417 269.247C209.686 236.371 190.925 203.5 171.663 171.547C171.238 170.843 171.377 169.936 171.993 169.392C182.745 159.921 194.992 153.552 206.832 147.391C215.713 142.773 224.592 138.153 233.381 133.564C233.801 133.347 234.283 133.311 234.73 133.468C235.172 133.622 235.532 133.952 235.722 134.383C242.725 150.118 252.155 164.89 261.277 179.177L293.735 230.02C294.24 230.811 294.008 231.863 293.217 232.37C292.424 232.872 291.375 232.642 290.866 231.851L258.41 181.01C249.535 167.114 240.375 152.762 233.359 137.418C225.092 141.732 216.747 146.074 208.402 150.415C197.138 156.274 185.503 162.324 175.314 171.022C194.344 202.636 212.879 235.134 230.411 267.639C230.855 268.465 230.55 269.497 229.721 269.944C229.464 270.075 229.187 270.14 228.915 270.14Z" fill="#0F0202"/>
<path d="M174.917 170.207C174.316 170.207 173.736 169.889 173.425 169.327L165.839 155.584C165.408 154.798 165.658 153.811 166.415 153.329C184.979 141.473 204.485 130.661 224.389 121.192C225.188 120.815 226.142 121.105 226.586 121.869C228.976 125.962 231.117 130.256 232.955 134.636C233.319 135.502 232.91 136.498 232.046 136.862C231.178 137.228 230.182 136.817 229.82 135.953C228.243 132.193 226.432 128.497 224.429 124.944C205.626 133.959 187.192 144.178 169.591 155.341L176.406 167.685C176.86 168.507 176.56 169.543 175.739 169.997C175.477 170.14 175.194 170.207 174.917 170.207Z" fill="#0F0202"/>
<path d="M65.0881 270.14C64.8134 270.14 64.5388 270.075 64.282 269.937C63.4558 269.49 63.1452 268.459 63.5918 267.632C81.1194 235.134 99.6519 202.636 118.687 171.015C108.497 162.319 96.863 156.268 85.5993 150.408C77.2564 146.067 68.9112 141.726 60.6442 137.411C53.6323 152.746 44.4676 167.103 35.5933 181.004L3.13507 231.845C2.62816 232.635 1.5786 232.867 0.785846 232.363C-0.00467172 231.856 -0.238999 230.804 0.267915 230.014L32.7261 179.17C41.8506 164.878 51.2854 150.1 58.2817 134.377C58.4715 133.948 58.8309 133.615 59.2731 133.461C59.7197 133.305 60.2043 133.343 60.6219 133.557C69.4091 138.146 78.2901 142.766 87.1689 147.384C99.011 153.543 111.255 159.914 122.008 169.385C122.624 169.93 122.765 170.834 122.338 171.54C103.073 203.5 84.3174 236.371 66.5865 269.24C66.2761 269.816 65.691 270.14 65.0881 270.14Z" fill="#0F0202"/>
<path d="M119.081 170.207C118.802 170.207 118.521 170.14 118.262 169.995C117.438 169.539 117.139 168.505 117.594 167.683L124.407 155.339C106.802 144.173 88.3674 133.955 69.5692 124.942C67.5639 128.501 65.7529 132.197 64.1808 135.951C63.8168 136.817 62.8207 137.226 61.9542 136.862C61.0878 136.498 60.6792 135.502 61.0432 134.636C62.8744 130.265 65.0158 125.971 67.4097 121.871C67.8563 121.108 68.8101 120.815 69.6095 121.192C89.5065 130.656 109.015 141.469 127.585 153.329C128.342 153.814 128.59 154.801 128.159 155.584L120.573 169.327C120.263 169.89 119.682 170.207 119.081 170.207Z" fill="#0F0202"/>
<path d="M227.616 47.6094C227.518 47.6094 227.417 47.6027 227.317 47.5826C226.392 47.4196 225.776 46.5375 225.939 45.613C228.547 30.8187 224.32 15.1379 214.633 3.65752C214.028 2.93846 214.119 1.86658 214.836 1.25918C215.555 0.656238 216.627 0.745561 217.232 1.46239C227.562 13.7042 232.071 30.4279 229.286 46.2026C229.143 47.0288 228.424 47.6094 227.616 47.6094Z" fill="#0F0202"/>
<path d="M245.576 45.3985C245.5 45.3985 245.424 45.3941 245.344 45.3829C244.415 45.2579 243.761 44.4026 243.888 43.4714C245.369 32.5113 244.835 21.4999 242.298 10.7408C242.081 9.82747 242.649 8.9119 243.562 8.69529C244.478 8.47868 245.391 9.04589 245.608 9.96146C248.24 21.127 248.797 32.556 247.256 43.9269C247.144 44.78 246.414 45.3985 245.576 45.3985Z" fill="#0F0202"/>
<path d="M51.665 106.632C50.9214 106.632 50.2404 106.143 50.0305 105.391C45.801 90.3754 46.4039 74.0291 51.7209 59.3621C52.0424 58.4801 53.0182 58.0223 53.9025 58.3438C54.7845 58.6654 55.2424 59.639 54.9209 60.5234C49.845 74.5271 49.2711 90.132 53.3063 104.471C53.5586 105.375 53.0339 106.315 52.1295 106.57C51.9732 106.612 51.8168 106.632 51.665 106.632Z" fill="#0F0202"/>
<path d="M71.1396 124.345C70.8091 124.345 70.4742 124.249 70.1817 124.048C69.4046 123.519 69.2059 122.461 69.7374 121.686C74.0316 115.397 73.7771 107.052 73.5248 98.9842L73.4599 96.7533C73.0848 82.2783 74.6456 67.8123 78.1047 53.7527C80.3556 44.6059 83.002 37.6431 86.4387 31.837C89.6075 26.4843 93.8525 23.9721 97.7961 25.1176C102.207 26.4017 104.261 31.5065 103.292 38.7798C103.022 40.8141 102.709 42.8574 102.396 44.9052C102.231 45.9927 102.066 47.0824 101.905 48.1722C101.767 49.1012 100.896 49.7465 99.9758 49.6081C99.0469 49.4696 98.4036 48.6076 98.5398 47.6787C98.7006 46.5822 98.8659 45.488 99.0356 44.3915C99.346 42.3661 99.652 40.3429 99.9199 38.3309C100.114 36.8749 100.876 29.5571 96.8451 28.3847C94.0782 27.5763 91.1616 30.5329 89.364 33.5699C86.1014 39.079 83.5735 45.7515 81.4074 54.5656C78.0198 68.3304 76.4924 82.4949 76.8586 96.6662L76.9235 98.8792C77.1893 107.492 77.4638 116.4 72.5443 123.604C72.2138 124.086 71.6822 124.345 71.1396 124.345Z" fill="#0F0202"/>
<path d="M147.087 34.5436C146.738 34.5436 146.388 34.4386 146.086 34.2176C145.327 33.6637 145.16 32.6008 145.713 31.8415L148.368 28.1993C148.922 27.4401 149.988 27.2748 150.745 27.8286C151.504 28.3847 151.669 29.4476 151.113 30.2069L148.46 33.8424C148.13 34.3002 147.611 34.5436 147.087 34.5436Z" fill="#0F0202"/>
<path d="M167.171 30.9348C166.926 30.9348 166.671 30.8812 166.434 30.7651C165.588 30.3564 165.233 29.3404 165.644 28.494C168.344 22.9001 170.309 18.3044 171.827 14.0325C172.694 11.5984 173.104 8.43631 171.421 7.53413C169.775 6.65652 167.361 8.67748 165.648 10.8704C163.958 13.0343 162.287 15.2138 160.628 17.4C160.061 18.1481 158.998 18.2955 158.248 17.7282C157.498 17.161 157.352 16.0936 157.922 15.3455C159.588 13.1437 161.271 10.953 162.969 8.77797C166.338 4.46362 170.005 2.91608 173.029 4.53508C176.072 6.16525 176.821 10.1424 175.032 15.1713C173.473 19.5639 171.461 24.2645 168.708 29.9723C168.411 30.582 167.803 30.9348 167.171 30.9348Z" fill="#0F0202"/>
<path d="M185.317 57.2163C184.922 57.2163 184.524 57.0778 184.203 56.7987C183.495 56.1846 183.417 55.1105 184.035 54.4003C186.621 51.4236 189.45 48.3911 193.048 46.8882C193.914 46.5264 194.913 46.9351 195.272 47.8015C195.634 48.668 195.225 49.6639 194.359 50.0279C191.438 51.2494 188.926 53.9604 186.601 56.6334C186.264 57.0175 185.793 57.2163 185.317 57.2163Z" fill="#0F0202"/>
<path d="M135.269 17.8689C134.957 17.8689 134.644 17.7841 134.358 17.6032C133.568 17.1008 133.331 16.049 133.836 15.2562L137.666 9.2179C140.642 4.51946 144.284 2.67492 147.413 4.28721C148.248 4.7182 148.576 5.7432 148.146 6.57838C147.717 7.41356 146.69 7.74182 145.854 7.31083C144.099 6.40196 141.685 9.22683 140.537 11.0379L136.708 17.0807C136.384 17.5898 135.832 17.8689 135.269 17.8689Z" fill="#0F0202"/>
<path d="M144.301 30.4324C144.118 30.4324 143.932 30.4033 143.749 30.3408C142.86 30.0349 142.389 29.068 142.691 28.1792C143.664 25.3521 144.531 22.4513 145.272 19.5549C145.504 18.6438 146.427 18.0923 147.342 18.329C148.253 18.5634 148.801 19.4902 148.568 20.3991C147.805 23.3825 146.909 26.3726 145.911 29.2846C145.67 29.9902 145.009 30.4324 144.301 30.4324Z" fill="#0F0202"/>
<path d="M109.931 57.8482C109.619 57.8482 109.306 57.7634 109.023 57.5825C108.23 57.08 107.993 56.0305 108.498 55.2377C109.172 54.1747 109.711 53.3038 110.251 52.4329C110.796 51.5531 111.341 50.6755 112.022 49.6036C112.526 48.8064 113.576 48.5741 114.369 49.0766C115.162 49.579 115.398 50.6308 114.894 51.4236C114.221 52.4865 113.681 53.3552 113.14 54.2261C112.596 55.106 112.051 55.9858 111.37 57.0577C111.046 57.5691 110.494 57.8482 109.931 57.8482Z" fill="#0F0202"/>
<path d="M122.636 37.8061C122.323 37.8061 122.01 37.7212 121.727 37.5426C120.934 37.0401 120.7 35.9883 121.202 35.1956C121.97 33.9852 122.591 32.9937 123.214 31.9978C123.819 31.0308 124.429 30.0594 125.175 28.8826C125.679 28.0876 126.729 27.8554 127.522 28.3578C128.315 28.8603 128.551 29.9098 128.047 30.7048C127.305 31.8749 126.698 32.8419 126.097 33.8043C125.472 34.8025 124.844 35.8007 124.074 37.0155C123.75 37.5269 123.199 37.8061 122.636 37.8061Z" fill="#0F0202"/>
<path d="M180.545 52.2142C180.297 52.2142 180.045 52.1606 179.808 52.0467C178.962 51.6403 178.604 50.6242 179.013 49.7756C182.59 42.3394 185.849 34.6508 188.693 26.9198C189.366 25.0954 190.256 21.8552 188.678 20.6426C187.78 19.9526 186.293 20.2071 185.288 20.8123C183.944 21.6207 182.919 23.0342 181.929 24.4009C178.975 28.483 175.996 32.6477 173.073 36.7834C172.53 37.5516 171.47 37.7347 170.701 37.1921C169.933 36.6495 169.75 35.5887 170.292 34.8228C173.222 30.6759 176.208 26.4978 179.171 22.4067C180.252 20.9173 181.597 19.0638 183.533 17.8959C185.527 16.6945 188.53 16.2434 190.746 17.9428C192.476 19.2737 194.082 22.1142 191.88 28.0922C188.997 35.9237 185.696 43.715 182.074 51.2495C181.786 51.8591 181.177 52.2142 180.545 52.2142Z" fill="#0F0202"/>
<path d="M125.664 153.856C125.364 153.856 125.061 153.778 124.786 153.612C123.982 153.128 123.723 152.083 124.205 151.279C129.473 142.523 136.057 133.856 145.549 123.184C146.175 122.483 147.249 122.421 147.95 123.044C148.651 123.667 148.716 124.743 148.091 125.444C138.741 135.953 132.274 144.461 127.12 153.032C126.803 153.561 126.242 153.856 125.664 153.856Z" fill="#0F0202"/>
<path d="M228.37 268.262C210.646 235.478 192.353 203.004 173.494 170.861C192.625 157.335 213.078 145.683 234.092 136.592C252.081 169.166 271.547 200.923 292.529 231.362C282.887 240.328 269.466 243.662 257.642 249.457C247.354 254.497 238.165 261.483 228.37 268.262Z" fill="#EC2227"/>
<g opacity="0.1294">
<path d="M218.22 72.3567C218.584 72.743 219.024 72.9976 219.493 73.1495C219.317 71.6042 219.162 70.0655 219.002 68.556C218.702 65.6931 218.535 62.8348 218.41 59.9764C218.171 58.9536 217.93 57.9286 217.673 56.9103C215.353 50.5103 213.37 43.9896 211.534 37.4176C210.511 35.1867 209.458 32.9715 208.39 30.7652C207.747 29.8318 207.124 28.8291 206.135 28.3445C204.527 27.5897 202.83 29.1663 203.017 30.7429C202.515 31.4128 202.361 32.3395 202.863 33.1367C205.25 37.3796 206.36 41.6784 207.769 47.4063C209.281 53.0448 210.072 58.1653 210.467 62.1559C210.617 62.6271 211.61 71.9793 211.579 77.236C211.838 84.9737 211.724 92.707 211.333 100.44C210.342 108.129 210.753 116.237 214.531 123.175C214.75 123.678 215.59 124.812 215.895 125.223C215.828 125.134 215.733 125.009 215.587 124.826C216.052 125.665 216.872 126.277 217.794 126.521C218.12 126.612 218.446 126.634 218.769 126.626C218.823 126.751 218.879 126.878 218.955 127.001C220.931 130.88 223.182 134.738 226.038 137.999C226.496 138.39 227.032 138.544 227.572 138.555C226.492 139.408 225.927 140.897 226.829 142.505C230.27 149.446 234.725 155.826 238.745 162.436C241.813 168.186 245.542 173.527 248.872 179.124C251.31 183.168 254.191 186.915 256.875 190.794C259.191 194.458 261.221 198.295 263.668 201.881C264.356 203.02 265.062 204.145 265.781 205.266C268.376 209.963 270.709 214.351 273.018 217.609C274.193 219.469 275.347 221.343 276.618 223.138C277.087 224.348 277.978 225.483 278.523 226.608C279.782 228.676 280.796 230.047 281.734 231.233C282.069 232.09 282.429 232.937 282.893 233.732C283.355 234.375 283.864 235.045 284.494 235.541C285.012 235.985 285.655 236.275 286.321 236.378C287.71 235.241 289.123 234.136 290.573 233.077C290.631 232.588 290.608 232.09 290.461 231.615C290.443 231.505 290.423 231.385 290.403 231.249C290.291 230.411 290.41 231.304 290.445 231.57C290.439 231.517 290.425 231.427 290.408 231.287C290.046 229.538 290.039 229.873 288.567 226.715C287.898 225.416 287.19 224.138 286.468 222.87C286.484 221.892 286.178 220.894 285.428 220.032C283.543 217.292 283.188 216.968 281.082 214.063C279.233 211.173 277.362 208.294 275.571 205.371C274.034 202.861 272.596 200.298 271.14 197.741C271.058 197.267 270.888 196.823 270.609 196.437C270.348 195.945 269.972 195.296 269.671 194.867C268.311 192.884 267.078 191.126 265.915 189.498C264.329 187.136 262.797 184.74 261.248 182.348C258.814 178.775 256.339 175.229 254.124 171.513C253.959 171.2 253.745 170.932 253.512 170.682C252.583 169.43 251.672 168.161 250.875 166.819C247.572 161.417 244.997 155.604 241.657 150.212C239.745 146.853 237.702 143.568 235.565 140.348C234.517 139.024 233.872 137.079 232.108 136.601C231.518 136.429 230.944 136.471 230.424 136.659C230.531 136.364 230.601 136.054 230.589 135.719C230.319 133.363 228.135 131.739 227.03 129.738C225.569 127.7 224.951 124.975 223.182 123.216C222.865 122.959 222.532 122.794 222.195 122.698C221.541 119.694 218.194 114.122 218.852 104.199C219.06 93.6225 219.265 82.917 218.22 72.3567Z" fill="#0F0202"/>
</g>
<path d="M168.336 153.856C167.757 153.856 167.195 153.563 166.878 153.032C157.825 137.981 145.426 124.709 133.434 111.876C117.566 94.8908 101.155 77.3275 92.3165 55.423C90.7622 51.5731 91.1015 48.5674 93.2744 46.9551C94.306 46.1869 95.6685 45.8542 97.312 45.9904C102.609 46.4035 106.47 50.3695 109.971 54.4003C112.854 57.7186 115.782 61.0884 118.721 64.4202C112.278 52.7522 106.716 40.5885 102.115 28.0943C99.9158 22.1163 101.517 19.2758 103.252 17.9449C105.469 16.2455 108.475 16.6966 110.465 17.898C112.401 19.0637 113.745 20.9194 114.824 22.4088C122.102 32.4578 129.518 43.0137 136.956 53.9134C134.681 48.6925 132.106 43.5898 129.576 38.581C125.777 31.0554 121.849 23.2753 118.971 15.1736C117.182 10.1447 117.932 6.16751 120.974 4.53734C123.997 2.91611 127.666 4.46589 131.034 8.78024C137.427 16.9713 143.675 25.4995 149.754 33.8602C147.172 27.2591 145.203 20.4214 143.865 13.3938C143.006 8.87179 143.97 5.63603 146.581 4.28947C149.698 2.67494 153.352 4.51948 156.331 9.22016L192.996 67.0597C193.869 59.7999 192.715 52.2319 191.591 44.8716C191.281 42.8373 190.973 40.8051 190.702 38.7842C189.735 31.511 191.79 26.4061 196.2 25.1221C200.142 23.9809 204.389 26.4865 207.556 31.8415C212.069 39.4608 214.476 47.9979 215.892 53.7571C219.351 67.8167 220.912 82.2828 220.534 96.7577L220.47 98.9908C220.222 107.057 219.963 115.4 224.259 121.688C224.788 122.465 224.59 123.521 223.815 124.053C223.04 124.584 221.982 124.383 221.45 123.609C216.528 116.405 216.803 107.499 217.069 98.8859L217.134 96.6684C217.502 82.4971 215.972 68.3326 212.587 54.5677C210.416 45.7492 207.888 39.0767 204.628 33.5721C202.83 30.5351 199.932 27.5785 197.147 28.3869C193.116 29.5592 193.88 36.8771 194.074 38.3331C194.34 40.334 194.646 42.3437 194.954 44.358C196.346 53.4735 197.784 62.8994 195.551 72.0574C195.39 72.7206 194.847 73.2231 194.175 73.3325C193.498 73.4397 192.826 73.1404 192.462 72.5643L153.459 11.0379C152.311 9.22685 149.902 6.40422 148.14 7.31085C146.521 8.14603 146.949 11.3974 147.206 12.7552C149.743 26.0868 154.622 38.715 161.712 50.2891C162.188 51.0662 161.967 52.0801 161.21 52.5892C160.451 53.0984 159.432 52.9175 158.89 52.185C155.857 48.0538 152.858 43.9248 149.87 39.8092C142.914 30.2247 135.719 20.312 128.35 10.8704C126.639 8.67751 124.232 6.65655 122.577 7.53416C120.896 8.43633 121.309 11.5984 122.171 14.0325C124.98 21.9332 128.859 29.6151 132.61 37.0468C137.26 46.2561 142.066 55.7759 144.964 65.9164C145.196 66.7203 144.806 67.5733 144.044 67.9261C143.283 68.2767 142.383 68.0244 141.918 67.3277C131.9 52.3637 121.858 37.9222 112.066 24.3985C111.074 23.0319 110.052 21.6183 108.707 20.8099C107.702 20.2048 106.218 19.9502 105.315 20.6425C103.739 21.8528 104.63 25.093 105.3 26.9175C111.78 44.521 120.197 61.4569 130.313 77.256C130.786 77.9952 130.619 78.9755 129.924 79.5159C129.232 80.0541 128.243 79.9782 127.642 79.3373C120.889 72.1556 114.029 64.2616 107.399 56.6289C104.36 53.1341 101.055 49.6929 97.0416 49.3802C96.2489 49.32 95.6459 49.4249 95.2976 49.6839C94.3708 50.3717 94.7796 52.4418 95.4674 54.1501C104.069 75.4673 120.259 92.7962 135.916 109.553C148.028 122.517 160.549 135.92 169.785 151.277C170.272 152.083 170.011 153.128 169.204 153.61C168.936 153.778 168.633 153.856 168.336 153.856Z" fill="#0F0202"/>
<path d="M228.915 270.14C228.31 270.14 227.725 269.816 227.417 269.247C209.686 236.371 190.925 203.5 171.663 171.547C171.238 170.843 171.377 169.936 171.993 169.392C182.745 159.921 194.992 153.552 206.832 147.391C215.713 142.773 224.592 138.153 233.381 133.564C233.801 133.347 234.283 133.311 234.73 133.468C235.172 133.622 235.532 133.952 235.722 134.383C242.725 150.118 252.155 164.89 261.277 179.177L293.735 230.02C294.24 230.811 294.008 231.863 293.217 232.37C292.424 232.872 291.375 232.642 290.866 231.851L258.41 181.01C249.535 167.114 240.375 152.762 233.359 137.418C225.092 141.732 216.747 146.074 208.402 150.415C197.138 156.274 185.503 162.324 175.314 171.022C194.344 202.636 212.879 235.134 230.411 267.639C230.855 268.465 230.55 269.497 229.721 269.944C229.464 270.075 229.187 270.14 228.915 270.14Z" fill="#0F0202"/>
<path d="M174.917 170.207C174.316 170.207 173.736 169.889 173.425 169.327L165.839 155.584C165.408 154.798 165.658 153.811 166.415 153.329C184.979 141.473 204.485 130.661 224.389 121.192C225.188 120.815 226.142 121.105 226.586 121.869C228.976 125.962 231.117 130.256 232.955 134.636C233.319 135.502 232.91 136.498 232.046 136.862C231.178 137.228 230.182 136.817 229.82 135.953C228.243 132.193 226.432 128.497 224.429 124.944C205.626 133.959 187.192 144.178 169.591 155.341L176.406 167.685C176.86 168.507 176.56 169.543 175.739 169.997C175.477 170.14 175.194 170.207 174.917 170.207Z" fill="#0F0202"/>
<path d="M65.0881 270.14C64.8134 270.14 64.5388 270.075 64.282 269.937C63.4558 269.49 63.1452 268.459 63.5918 267.632C81.1194 235.134 99.6519 202.636 118.687 171.015C108.497 162.319 96.863 156.268 85.5993 150.408C77.2564 146.067 68.9112 141.726 60.6442 137.411C53.6323 152.746 44.4676 167.103 35.5933 181.004L3.13507 231.845C2.62816 232.635 1.5786 232.867 0.785846 232.363C-0.00467172 231.856 -0.238999 230.804 0.267915 230.014L32.7261 179.17C41.8506 164.878 51.2854 150.1 58.2817 134.377C58.4715 133.948 58.8309 133.615 59.2731 133.461C59.7197 133.305 60.2043 133.343 60.6219 133.557C69.4091 138.146 78.2901 142.766 87.1689 147.384C99.011 153.543 111.255 159.914 122.008 169.385C122.624 169.93 122.765 170.834 122.338 171.54C103.073 203.5 84.3174 236.371 66.5865 269.24C66.2761 269.816 65.691 270.14 65.0881 270.14Z" fill="#0F0202"/>
<path d="M119.081 170.207C118.802 170.207 118.521 170.14 118.262 169.995C117.438 169.539 117.139 168.505 117.594 167.683L124.407 155.339C106.802 144.173 88.3674 133.955 69.5692 124.942C67.5639 128.501 65.7529 132.197 64.1808 135.951C63.8168 136.817 62.8207 137.226 61.9542 136.862C61.0878 136.498 60.6792 135.502 61.0432 134.636C62.8744 130.265 65.0158 125.971 67.4097 121.871C67.8563 121.108 68.8101 120.815 69.6095 121.192C89.5065 130.656 109.015 141.469 127.585 153.329C128.342 153.814 128.59 154.801 128.159 155.584L120.573 169.327C120.263 169.89 119.682 170.207 119.081 170.207Z" fill="#0F0202"/>
<path d="M227.616 47.6094C227.518 47.6094 227.417 47.6027 227.317 47.5826C226.392 47.4196 225.776 46.5375 225.939 45.613C228.547 30.8187 224.32 15.1379 214.633 3.65752C214.028 2.93846 214.119 1.86658 214.836 1.25918C215.555 0.656238 216.627 0.745561 217.232 1.46239C227.562 13.7042 232.071 30.4279 229.286 46.2026C229.143 47.0288 228.424 47.6094 227.616 47.6094Z" fill="#F5F5F5"/>
<path d="M245.576 45.3985C245.5 45.3985 245.424 45.3941 245.344 45.3829C244.415 45.2579 243.761 44.4026 243.888 43.4714C245.369 32.5113 244.835 21.4999 242.298 10.7408C242.081 9.82747 242.649 8.9119 243.562 8.69529C244.478 8.47868 245.391 9.04589 245.608 9.96146C248.24 21.127 248.797 32.556 247.256 43.9269C247.144 44.78 246.414 45.3985 245.576 45.3985Z" fill="#F5F5F5"/>
<path d="M51.665 106.632C50.9214 106.632 50.2404 106.143 50.0305 105.391C45.801 90.3754 46.4039 74.0291 51.7209 59.3621C52.0424 58.4801 53.0182 58.0223 53.9025 58.3438C54.7845 58.6654 55.2424 59.639 54.9209 60.5234C49.845 74.5271 49.2711 90.132 53.3063 104.471C53.5586 105.375 53.0339 106.315 52.1295 106.57C51.9732 106.612 51.8168 106.632 51.665 106.632Z" fill="#F5F5F5"/>
</svg>
