<svg width="266" height="235" viewBox="0 0 266 235" fill="none" xmlns="http://www.w3.org/2000/svg">
<path d="M104.371 218.716C86.9115 218.716 69.4206 211.563 57.2034 199.074C56.7192 198.58 56.7274 197.784 57.2231 197.3C57.7172 196.816 58.5127 196.822 58.9969 197.32C72.6454 211.27 93.1371 218.301 112.474 215.66C113.163 215.562 113.793 216.047 113.886 216.734C113.98 217.421 113.499 218.053 112.812 218.147C110.015 218.528 107.194 218.716 104.371 218.716Z" fill="#0F0202"/>
<path d="M101.681 225.064C101.17 225.064 100.689 224.752 100.503 224.243C100.264 223.592 100.597 222.871 101.248 222.632C104.754 221.342 108.026 219.555 110.998 217.312C107.681 215.438 104.52 213.27 101.584 210.854C101.048 210.415 100.973 209.624 101.412 209.089C101.852 208.554 102.643 208.476 103.178 208.918C106.473 211.63 110.062 214.015 113.844 216.008C114.214 216.204 114.461 216.569 114.506 216.986C114.55 217.403 114.384 217.813 114.063 218.081C110.495 221.061 106.475 223.385 102.114 224.989C101.972 225.041 101.826 225.064 101.681 225.064Z" fill="#0F0202"/>
<path d="M237.742 74.7335C237.707 74.7335 237.672 74.7319 237.636 74.7302C236.946 74.6726 236.432 74.0665 236.49 73.3764C237.937 55.9251 229.579 38.1954 215.196 28.2081C214.626 27.8128 214.485 27.0322 214.882 26.4623C215.277 25.8925 216.059 25.7525 216.627 26.1478C231.733 36.6373 240.512 55.258 238.992 73.5856C238.936 74.2394 238.387 74.7335 237.742 74.7335Z" fill="#0F0202"/>
<path d="M219.733 40.5884C219.186 40.5884 218.684 40.2294 218.528 39.6776C217.312 35.4087 215.822 31.171 214.099 27.0882C213.911 26.6435 213.995 26.1329 214.313 25.7722C214.631 25.4099 215.13 25.26 215.591 25.3934L228.543 29.0085C229.21 29.1946 229.6 29.8864 229.414 30.5534C229.228 31.2204 228.535 31.6124 227.869 31.423L217.383 28.4963C218.738 31.927 219.932 35.4482 220.94 38.9892C221.131 39.6562 220.744 40.3496 220.079 40.539C219.962 40.5736 219.845 40.5884 219.733 40.5884Z" fill="#0F0202"/>
<path d="M256.139 72.441C256.096 72.441 256.052 72.4393 256.007 72.4344C255.319 72.3635 254.818 71.7459 254.889 71.0575C256.037 59.9849 254.174 48.792 249.503 38.6895C249.212 38.0603 249.485 37.3159 250.114 37.0244C250.744 36.7312 251.488 37.0063 251.78 37.6354C256.64 48.1481 258.578 59.7955 257.384 71.3144C257.318 71.9617 256.773 72.441 256.139 72.441Z" fill="#0F0202"/>
<path d="M81.4177 234.561C81.337 234.561 81.2546 234.553 81.1739 234.536C68.4593 232.026 56.4841 225.526 47.4521 216.23C46.9695 215.734 46.9811 214.94 47.4784 214.456C47.9758 213.975 48.7697 213.985 49.2522 214.483C57.9335 223.414 69.4425 229.663 81.6614 232.076C82.3416 232.209 82.783 232.868 82.6496 233.548C82.5294 234.147 82.004 234.561 81.4177 234.561Z" fill="#0F0202"/>
<path d="M104.371 218.716C86.9115 218.716 69.4206 211.563 57.2034 199.074C56.7192 198.58 56.7274 197.784 57.2231 197.3C57.7172 196.816 58.5127 196.822 58.9969 197.32C72.6454 211.27 93.1371 218.301 112.474 215.66C113.163 215.562 113.793 216.047 113.886 216.734C113.98 217.421 113.499 218.053 112.812 218.147C110.015 218.528 107.194 218.716 104.371 218.716Z" fill="#0F0202"/>
<path d="M101.681 225.064C101.17 225.064 100.689 224.752 100.503 224.243C100.264 223.592 100.597 222.871 101.248 222.632C104.754 221.342 108.026 219.555 110.998 217.312C107.681 215.438 104.52 213.27 101.584 210.854C101.048 210.415 100.973 209.624 101.412 209.089C101.852 208.554 102.643 208.476 103.178 208.918C106.473 211.63 110.062 214.015 113.844 216.008C114.214 216.204 114.461 216.569 114.506 216.986C114.55 217.403 114.384 217.813 114.063 218.081C110.495 221.061 106.475 223.385 102.114 224.989C101.972 225.041 101.826 225.064 101.681 225.064Z" fill="#0F0202"/>
<path d="M237.742 74.7335C237.707 74.7335 237.672 74.7319 237.636 74.7302C236.946 74.6726 236.432 74.0665 236.49 73.3764C237.937 55.9251 229.579 38.1954 215.196 28.2081C214.626 27.8128 214.485 27.0322 214.882 26.4623C215.277 25.8925 216.059 25.7525 216.627 26.1478C231.733 36.6373 240.512 55.258 238.992 73.5856C238.936 74.2394 238.387 74.7335 237.742 74.7335Z" fill="#0F0202"/>
<path d="M219.733 40.5884C219.186 40.5884 218.684 40.2294 218.528 39.6776C217.312 35.4087 215.822 31.171 214.099 27.0882C213.911 26.6435 213.995 26.1329 214.313 25.7722C214.631 25.4099 215.13 25.26 215.591 25.3934L228.543 29.0085C229.21 29.1946 229.6 29.8864 229.414 30.5534C229.228 31.2204 228.535 31.6124 227.869 31.423L217.383 28.4963C218.738 31.927 219.932 35.4482 220.94 38.9892C221.131 39.6562 220.744 40.3496 220.079 40.539C219.962 40.5736 219.845 40.5884 219.733 40.5884Z" fill="#0F0202"/>
<path d="M57.2748 81.7974C49.7827 84.2992 43.1372 89.5958 39.5913 96.6548C36.0453 103.714 35.8329 112.502 39.5913 119.451C45.0559 129.56 58.6188 134.077 69.3554 129.983C81.0555 125.521 88.1737 111.469 84.748 99.4233C81.3207 87.379 67.5388 78.3701 57.2748 81.7974ZM71.4948 113.39C70.4408 115.859 68.0576 118.145 65.6514 119.324C60.19 122 53.9825 119.694 50.7479 114.739C47.4243 109.646 47.9069 102.76 51.3326 97.8175C53.0388 95.3553 55.198 93.43 58.2186 92.8667C60.9987 92.3463 63.782 92.8453 65.9742 94.6175C67.3939 94.8662 68.7493 95.4591 69.866 96.3863C72.0219 98.1766 72.9524 101.751 73.122 104.448C73.3048 107.406 72.651 110.68 71.4948 113.39Z" fill="white"/>
<path d="M113.662 104.442C110.543 103.496 107.547 101.868 105.495 99.3346C102.634 95.8051 101.942 90.8131 103.11 86.4239C104.277 82.0347 107.132 78.2236 110.605 75.297C107.535 70.4203 104.21 65.8483 100.731 61.3965C96.507 64.5274 92.4489 67.4903 87.7517 67.7275C83.2258 67.9564 78.8366 65.4777 76.0219 61.9268C73.2073 58.3759 71.8106 53.8764 71.2474 49.3802C71.0876 48.952 70.8554 48.8663 70.6824 48.8531C65.9342 48.5007 61.186 48.1466 56.4394 47.7925C55.5813 52.2261 53.5621 56.1838 50.4576 59.0512C47.3547 61.9186 43.1516 63.6331 38.9288 63.4997C37.1945 63.4453 35.4849 63.0896 33.7886 62.719C31.0151 62.1113 28.0818 61.3652 26.1301 59.3032C22.3569 61.8725 18.9674 64.5999 15.6916 67.4574C17.3666 68.6004 18.0731 70.1732 18.6644 71.7099C19.9309 74.9939 20.8944 78.581 20.0956 82.0084C19.2705 85.5527 16.6007 88.4827 13.4105 90.235C10.2187 91.9858 6.54594 92.6726 2.91272 92.8916C1.90477 98.0812 1.41397 103.635 1.25586 109.195C4.35053 110.295 7.28873 111.241 9.93047 112.779C12.5722 114.317 14.9307 116.517 16.1066 119.339C17.4292 122.516 17.1162 126.226 15.7328 129.377C14.351 132.528 11.9793 135.164 9.29968 137.325C12.5376 142.574 15.6488 147.448 18.8472 152.262C23.7881 149.024 30.0153 148.011 35.4256 149.76C36.7729 150.196 38.0822 150.799 39.1906 151.682C40.5774 152.785 41.6002 154.289 42.4006 155.87C44.3144 159.658 45.0325 164.039 44.4247 168.241C50.1858 169.39 55.7724 170.128 61.3803 170.571C61.0427 164.739 63.5543 158.889 68.1642 155.699C72.7757 152.509 79.3521 152.29 83.9834 155.45C86.1805 156.949 87.867 159.069 89.5041 161.164C94.5537 157.596 99.549 153.948 104.231 149.936C101.614 145.871 98.9561 141.795 98.8523 137.215C98.7452 132.442 101.613 127.885 105.623 125.297C109.633 122.708 114.625 121.929 119.374 122.419C121.001 116.868 122.386 111.451 123.536 105.983C120.051 105.705 116.78 105.387 113.662 104.442ZM83.8632 116.644C81.9428 120.898 78.8136 124.57 75.0469 127.33C72.8564 128.937 70.437 130.252 67.8496 131.08C57.2448 134.479 44.8035 128.507 39.884 118.517C36.2952 111.231 36.455 102.217 40.299 95.0607C44.1431 87.9062 51.5709 82.7973 59.6279 81.7663C66.8466 80.8423 75.9906 84.7407 81.1951 91.7684C86.4012 98.7927 87.4602 108.673 83.8632 116.644Z" fill="#EC2227"/>
<g opacity="0.1294">
<path d="M90.3381 105.054C90.2311 104.226 90.0614 103.407 89.8523 102.599C89.7601 102.408 89.6744 102.217 89.5772 102.026C88.0785 99.0659 86.2816 96.2628 84.2493 93.6425C83.9133 93.878 83.6514 94.2255 83.5394 94.6224C83.3319 96.0306 84.4206 97.3218 84.7664 98.6608C86.0082 102.348 86.8202 104.122 86.4233 107.494C86.4694 108.783 84.3415 115.918 83.6662 116.81C82.8609 118.382 81.9369 119.894 80.868 121.3C80.5469 121.689 80.4316 121.857 80.481 121.875C79.9457 122.29 79.4879 122.824 78.9674 123.255C77.8607 124.195 76.7588 125.141 75.6422 126.07C75.3507 126.29 74.8665 126.679 74.5272 127.03C74.7051 126.76 74.2192 127.228 73.7663 127.608C73.5192 127.769 72.4191 128.532 71.8508 128.815C67.964 130.186 63.9322 130.945 61.7878 131.063C58.9468 131.324 56.1371 130.602 53.9466 130.087C52.3885 129.639 51.0215 128.086 49.3367 128.412C48.6087 128.586 48.1328 129.14 47.9434 129.785C48.1064 129.96 48.2727 130.131 48.4358 130.302C49.0089 130.772 49.5771 131.245 50.1569 131.704C52.2403 133.059 54.3204 134.417 56.4121 135.761C59.8625 136.759 63.5764 136.961 67.987 136.123C67.9129 136.128 67.819 136.139 67.7252 136.151C72.368 135.166 73.8206 134.548 77.2183 132.788C80.1895 131.021 82.571 128.456 84.409 125.549C84.4617 125.467 84.5161 125.383 84.5671 125.299C84.5737 125.289 84.5787 125.284 84.5852 125.274C86.7494 122.577 88.3964 119.488 89.5361 116.227C90.7038 112.644 90.6856 108.773 90.3381 105.054Z" fill="#0F0202"/>
</g>
<g opacity="0.1294">
<path d="M101.647 143.042C101.184 143.07 100.726 143.177 100.321 143.411C99.7199 143.737 99.356 144.287 98.9772 144.834C98.628 145.275 98.2755 145.713 97.9593 146.179C97.0337 147.364 96.7702 147.879 94.7247 149.956C93.5883 151.176 91.8079 151.934 91.0618 153.449C91.0486 153.479 91.042 153.507 91.0289 153.535C90.5908 153.787 90.1543 154.042 89.7063 154.279C88.8861 154.791 87.8074 155.035 87.2359 155.857C85.4423 157.988 88.2158 161.109 90.5776 159.663C93.0283 158.359 95.3406 156.814 97.4109 154.958C97.5064 154.854 97.6135 154.75 97.7189 154.646C99.3313 153.349 100.901 151.998 102.342 150.509C102.874 149.956 103.49 149.294 104.004 148.579C103.465 147.497 102.996 146.38 102.563 145.252C102.238 144.521 101.929 143.785 101.647 143.042Z" fill="#0F0202"/>
</g>
<g opacity="0.1294">
<path d="M117.641 105.723C116.706 109.315 115.652 112.874 114.502 116.407C113.97 118.042 113.45 119.694 112.916 121.346C113.544 122.12 114.614 122.562 115.607 122.254C115.66 122.239 115.701 122.211 115.75 122.193C116.6 123.398 118.843 123.253 119.268 121.57C119.478 120.798 119.804 120.024 120.075 119.241C120.247 119.157 120.415 119.06 120.565 118.928C121.577 118.181 121.872 116.787 122.246 115.644C122.811 113.339 123.116 110.973 123.213 108.605C123.218 108.467 123.228 108.325 123.239 108.182C121.358 107.4 119.494 106.574 117.641 105.723Z" fill="#0F0202"/>
</g>
<path d="M61.38 171.828C61.3471 171.828 61.3142 171.826 61.2812 171.824C55.3571 171.358 49.7639 170.589 44.1774 169.472C43.5252 169.342 43.0871 168.723 43.1826 168.064C43.7508 164.121 43.0756 159.994 41.2787 156.438C40.4322 154.763 39.495 153.53 38.408 152.665C37.5269 151.962 36.4251 151.404 35.0383 150.954C30.0463 149.341 24.249 150.221 19.532 153.312C18.954 153.69 18.1799 153.531 17.7994 152.957C14.6455 148.207 11.5162 143.309 8.23051 137.984C7.89782 137.447 8.01805 136.745 8.5105 136.349C11.3762 134.039 13.4185 131.525 14.5829 128.873C15.9301 125.801 16.0619 122.502 14.9469 119.821C13.7347 116.908 11.2066 114.974 9.29775 113.861C7.08751 112.574 4.60882 111.703 1.98518 110.783L0.833947 110.376C0.321738 110.195 -0.0158929 109.702 0.000576803 109.159C0.175156 103.042 0.741716 97.4881 1.68049 92.651C1.78919 92.0894 2.26517 91.6727 2.83667 91.6381C6.92446 91.391 10.1871 90.5725 12.8075 89.133C15.9235 87.4218 18.1914 84.6516 18.8733 81.7216C19.6424 78.4145 18.5406 74.8735 17.4947 72.1577C16.9562 70.761 16.3583 69.4286 14.9848 68.4899C14.6636 68.2708 14.4627 67.9151 14.4396 67.528C14.4166 67.141 14.5747 66.7655 14.8678 66.5085C18.646 63.2146 22.0009 60.5959 25.4249 58.2638C25.9338 57.9179 26.619 57.992 27.0423 58.4384C28.7156 60.2072 31.3162 60.8907 34.0584 61.4902C35.8025 61.8723 37.377 62.1918 38.9697 62.2429C42.7791 62.3549 46.6462 60.8627 49.6075 58.1271C52.437 55.5133 54.3738 51.8554 55.2072 47.5519C55.3291 46.9277 55.889 46.4912 56.5313 46.539L70.776 47.5996C71.5254 47.6573 72.1249 48.1431 72.423 48.937C72.4576 49.0292 72.4807 49.1247 72.4922 49.2203C73.1098 54.1332 74.6267 58.1452 77.0049 61.1444C79.7636 64.6228 83.8629 66.665 87.6888 66.4707C92.0747 66.2483 96.095 63.2673 99.9835 60.3851C100.53 59.9783 101.299 60.0837 101.719 60.6206C105.629 65.6225 108.882 70.2027 111.667 74.6248C112.001 75.1552 111.893 75.8485 111.415 76.252C108.885 78.3849 105.601 81.9374 104.323 86.7433C103.193 90.9925 104.015 95.5134 106.471 98.5422C108.161 100.629 110.774 102.251 114.027 103.239C117.016 104.145 120.147 104.452 123.637 104.732C123.996 104.761 124.326 104.942 124.542 105.232C124.757 105.52 124.84 105.888 124.764 106.24C123.631 111.622 122.262 117.03 120.579 122.771C120.408 123.352 119.849 123.724 119.247 123.665C114.365 123.16 109.768 124.113 106.306 126.348C102.449 128.838 100.016 133.092 100.109 137.184C100.203 141.359 102.63 145.125 105.198 149.116L105.288 149.254C105.628 149.781 105.526 150.478 105.05 150.886C100.199 155.042 95.0607 158.774 90.2285 162.188C89.68 162.572 88.9273 162.463 88.5156 161.934C87.0465 160.052 85.3814 157.919 83.2782 156.484C79.1805 153.688 73.123 153.792 68.8787 156.728C64.7646 159.574 62.3139 164.978 62.6334 170.495C62.6548 170.858 62.5181 171.212 62.2579 171.464C62.0224 171.699 61.7061 171.828 61.38 171.828ZM45.803 167.233C50.4787 168.127 55.1775 168.776 60.0954 169.207C60.181 163.278 62.9216 157.8 67.4491 154.669C72.5976 151.107 79.6878 151.002 84.6897 154.416C86.7336 155.809 88.3838 157.731 89.7525 159.454C93.9671 156.463 98.3793 153.228 102.582 149.694C100.107 145.83 97.7024 141.815 97.6003 137.244C97.4883 132.302 100.372 127.198 104.944 124.245C108.632 121.863 113.396 120.76 118.458 121.084C119.851 116.26 121.02 111.67 122.012 107.116C118.935 106.846 116.101 106.492 113.299 105.642C109.564 104.509 106.529 102.602 104.521 100.125C101.571 96.4851 100.567 91.1111 101.899 86.101C102.963 82.0988 105.4 78.3009 108.971 75.0596C106.522 71.237 103.795 67.4012 100.494 63.1322C96.6088 65.9914 92.5589 68.7385 87.8173 68.979C83.1909 69.2228 78.2945 66.8083 75.04 62.704C72.4609 59.4513 70.7909 55.2004 70.0744 50.0651L57.4355 49.1247C56.3946 53.4859 54.2898 57.2213 51.3104 59.9717C47.8683 63.152 43.3325 64.9044 38.8906 64.7512C37.0855 64.6952 35.3216 64.3378 33.5215 63.9442C30.8583 63.3612 28.1095 62.6414 26.0129 60.9072C23.2888 62.8061 20.5779 64.9209 17.6166 67.4523C18.7497 68.6315 19.3525 70.01 19.8351 71.2601C21.0094 74.3103 22.2413 78.3206 21.3174 82.2948C20.4642 85.961 17.8027 89.2566 14.0147 91.3367C11.2824 92.8371 7.98676 93.7363 3.96814 94.0756C3.20394 98.31 2.72467 103.093 2.53857 108.32L2.81691 108.419C5.55748 109.381 8.14322 110.288 10.561 111.697C12.8009 113.001 15.7819 115.303 17.2642 118.859C18.641 122.17 18.5027 126.188 16.8821 129.882C15.6781 132.628 13.6804 135.217 10.9398 137.592C13.7726 142.166 16.495 146.426 19.2241 150.562C24.3643 147.594 30.4778 146.845 35.814 148.569C37.494 149.113 38.8544 149.809 39.9743 150.704C41.3479 151.799 42.509 153.306 43.5202 155.307C45.3665 158.961 46.162 163.153 45.803 167.233Z" fill="#0F0202"/>
<path d="M60.7407 121.649C56.5228 121.649 52.2439 119.312 49.8608 115.544C47.3475 111.573 46.939 106.181 48.7935 101.472C50.0469 98.2903 52.2093 95.6222 54.8824 93.9604C57.8502 92.1158 61.3698 91.5476 64.5386 92.4023C68.129 93.3691 70.8086 94.9601 72.5017 97.1341C74.5423 99.7479 75.6573 103.251 75.6392 106.996C75.6277 109.551 75.0908 111.744 74.0466 113.518C73.1276 115.076 71.8446 116.272 70.7115 117.235C67.8424 119.673 65.2797 121.023 62.6446 121.485C62.0138 121.595 61.3781 121.649 60.7407 121.649ZM61.6004 94.5302C59.7574 94.5302 57.8519 95.0688 56.2049 96.0916C53.9864 97.4701 52.183 99.7067 51.1273 102.391C49.5594 106.369 49.8871 110.895 51.9804 114.202C54.1956 117.702 58.4003 119.683 62.2098 119.013C64.3854 118.632 66.571 117.459 69.0843 115.323C70.0593 114.495 71.1545 113.48 71.8825 112.243C72.6994 110.858 73.1177 109.088 73.1276 106.985C73.1424 103.799 72.2168 100.85 70.5221 98.6773C69.1699 96.9431 66.9366 95.6469 63.8848 94.825C63.1519 94.6274 62.3827 94.5302 61.6004 94.5302Z" fill="#0F0202"/>
<path d="M61.6434 133.284C52.4335 133.284 43.0342 127.753 38.7587 119.07C34.9871 111.413 35.1551 101.984 39.1935 94.466C43.2335 86.9476 51.0023 81.6048 59.4677 80.5211C67.3847 79.5115 76.9454 83.9237 82.2026 91.0206C87.7133 98.4599 88.8152 108.721 85.0057 117.16C83.0541 121.483 79.8672 125.35 75.7892 128.343C73.3583 130.125 70.8154 131.447 68.2329 132.276C66.0985 132.957 63.8767 133.284 61.6434 133.284ZM61.8295 82.8829C61.1378 82.8829 60.4576 82.924 59.7872 83.0097C52.1107 83.9913 45.0666 88.8367 41.4037 95.6535C37.7408 102.47 37.591 111.018 41.0084 117.96C45.7929 127.677 57.661 133.028 67.4654 129.884C69.791 129.138 72.0918 127.938 74.3037 126.315C78.0341 123.58 80.9443 120.055 82.7181 116.124C86.1059 108.618 85.0881 99.1286 80.185 92.5111C75.8881 86.7071 68.447 82.8829 61.8295 82.8829Z" fill="#0F0202"/>
<path d="M113.662 104.442C110.543 103.496 107.547 101.868 105.495 99.3346C102.634 95.8051 101.942 90.8131 103.11 86.4239C104.277 82.0347 107.132 78.2236 110.605 75.297C107.535 70.4203 104.21 65.8483 100.731 61.3965C96.507 64.5274 92.4489 67.4903 87.7517 67.7275C83.2258 67.9564 78.8366 65.4777 76.0219 61.9268C73.2073 58.3759 71.8106 53.8764 71.2474 49.3802C71.0876 48.952 70.8554 48.8663 70.6824 48.8531C65.9342 48.5007 61.186 48.1466 56.4394 47.7925C55.5813 52.2261 53.5621 56.1838 50.4576 59.0512C47.3547 61.9186 43.1516 63.6331 38.9288 63.4997C37.1945 63.4453 35.4849 63.0896 33.7886 62.719C31.0151 62.1113 28.0818 61.3652 26.1301 59.3032C22.3569 61.8725 18.9674 64.5999 15.6916 67.4574C17.3666 68.6004 18.0731 70.1732 18.6644 71.7099C19.9309 74.9939 20.8944 78.581 20.0956 82.0084C19.2705 85.5527 16.6007 88.4827 13.4105 90.235C10.2187 91.9858 6.54594 92.6726 2.91272 92.8916C1.90477 98.0812 1.41397 103.635 1.25586 109.195C4.35053 110.295 7.28873 111.241 9.93047 112.779C12.5722 114.317 14.9307 116.517 16.1066 119.339C17.4292 122.516 17.1162 126.226 15.7328 129.377C14.351 132.528 11.9793 135.164 9.29968 137.325C12.5376 142.574 15.6488 147.448 18.8472 152.262C23.7881 149.024 30.0153 148.011 35.4256 149.76C36.7729 150.196 38.0822 150.799 39.1906 151.682C40.5774 152.785 41.6002 154.289 42.4006 155.87C44.3144 159.658 45.0325 164.039 44.4247 168.241C50.1858 169.39 55.7724 170.128 61.3803 170.571C61.0427 164.739 63.5543 158.889 68.1642 155.699C72.7757 152.509 79.3521 152.29 83.9834 155.45C86.1805 156.949 87.867 159.069 89.5041 161.164C94.5537 157.596 99.549 153.948 104.231 149.936C101.614 145.871 98.9561 141.795 98.8523 137.215C98.7452 132.442 101.613 127.885 105.623 125.297C109.633 122.708 114.625 121.929 119.374 122.419C121.001 116.868 122.386 111.451 123.536 105.983C120.051 105.705 116.78 105.387 113.662 104.442ZM83.8632 116.644C81.9428 120.898 78.8136 124.57 75.0469 127.33C72.8564 128.937 70.437 130.252 67.8496 131.08C57.2448 134.479 44.8035 128.507 39.884 118.517C36.2952 111.231 36.455 102.217 40.299 95.0607C44.1431 87.9062 51.5709 82.7973 59.6279 81.7663C66.8466 80.8423 75.9906 84.7407 81.1951 91.7684C86.4012 98.7927 87.4602 108.673 83.8632 116.644Z" fill="#EC2227"/>
<g opacity="0.1294">
<path d="M90.3381 105.054C90.2311 104.226 90.0614 103.407 89.8523 102.599C89.7601 102.408 89.6744 102.217 89.5772 102.026C88.0785 99.0659 86.2816 96.2628 84.2493 93.6425C83.9133 93.878 83.6514 94.2255 83.5394 94.6224C83.3319 96.0306 84.4206 97.3218 84.7664 98.6608C86.0082 102.348 86.8202 104.122 86.4233 107.494C86.4694 108.783 84.3415 115.918 83.6662 116.81C82.8609 118.382 81.9369 119.894 80.868 121.3C80.5469 121.689 80.4316 121.857 80.481 121.875C79.9457 122.29 79.4879 122.824 78.9674 123.255C77.8607 124.195 76.7588 125.141 75.6422 126.07C75.3507 126.29 74.8665 126.679 74.5272 127.03C74.7051 126.76 74.2192 127.228 73.7663 127.608C73.5192 127.769 72.4191 128.532 71.8508 128.815C67.964 130.186 63.9322 130.945 61.7878 131.063C58.9468 131.324 56.1371 130.602 53.9466 130.087C52.3885 129.639 51.0215 128.086 49.3367 128.412C48.6087 128.586 48.1328 129.14 47.9434 129.785C48.1064 129.96 48.2727 130.131 48.4358 130.302C49.0089 130.772 49.5771 131.245 50.1569 131.704C52.2403 133.059 54.3204 134.417 56.4121 135.761C59.8625 136.759 63.5764 136.961 67.987 136.123C67.9129 136.128 67.819 136.139 67.7252 136.151C72.368 135.166 73.8206 134.548 77.2183 132.788C80.1895 131.021 82.571 128.456 84.409 125.549C84.4617 125.467 84.5161 125.383 84.5671 125.299C84.5737 125.289 84.5787 125.284 84.5852 125.274C86.7494 122.577 88.3964 119.488 89.5361 116.227C90.7038 112.644 90.6856 108.773 90.3381 105.054Z" fill="#0F0202"/>
</g>
<g opacity="0.1294">
<path d="M101.647 143.042C101.184 143.07 100.726 143.177 100.321 143.411C99.7199 143.737 99.356 144.287 98.9772 144.834C98.628 145.275 98.2755 145.713 97.9593 146.179C97.0337 147.364 96.7702 147.879 94.7247 149.956C93.5883 151.176 91.8079 151.934 91.0618 153.449C91.0486 153.479 91.042 153.507 91.0289 153.535C90.5908 153.787 90.1543 154.042 89.7063 154.279C88.8861 154.791 87.8074 155.035 87.2359 155.857C85.4423 157.988 88.2158 161.109 90.5776 159.663C93.0283 158.359 95.3406 156.814 97.4109 154.958C97.5064 154.854 97.6135 154.75 97.7189 154.646C99.3313 153.349 100.901 151.998 102.342 150.509C102.874 149.956 103.49 149.294 104.004 148.579C103.465 147.497 102.996 146.38 102.563 145.252C102.238 144.521 101.929 143.785 101.647 143.042Z" fill="#0F0202"/>
</g>
<g opacity="0.1294">
<path d="M117.641 105.723C116.706 109.315 115.652 112.874 114.502 116.407C113.97 118.042 113.45 119.694 112.916 121.346C113.544 122.12 114.614 122.562 115.607 122.254C115.66 122.239 115.701 122.211 115.75 122.193C116.6 123.398 118.843 123.253 119.268 121.57C119.478 120.798 119.804 120.024 120.075 119.241C120.247 119.157 120.415 119.06 120.565 118.928C121.577 118.181 121.872 116.787 122.246 115.644C122.811 113.339 123.116 110.973 123.213 108.605C123.218 108.467 123.228 108.325 123.239 108.182C121.358 107.4 119.494 106.574 117.641 105.723Z" fill="#0F0202"/>
</g>
<path d="M61.38 171.828C61.3471 171.828 61.3142 171.826 61.2812 171.824C55.3571 171.358 49.7639 170.589 44.1774 169.472C43.5252 169.342 43.0871 168.723 43.1826 168.064C43.7508 164.121 43.0756 159.994 41.2787 156.438C40.4322 154.763 39.495 153.53 38.408 152.665C37.5269 151.962 36.4251 151.404 35.0383 150.954C30.0463 149.341 24.249 150.221 19.532 153.312C18.954 153.69 18.1799 153.531 17.7994 152.957C14.6455 148.207 11.5162 143.309 8.23051 137.984C7.89782 137.447 8.01805 136.745 8.5105 136.349C11.3762 134.039 13.4185 131.525 14.5829 128.873C15.9301 125.801 16.0619 122.502 14.9469 119.821C13.7347 116.908 11.2066 114.974 9.29775 113.861C7.08751 112.574 4.60882 111.703 1.98518 110.783L0.833947 110.376C0.321738 110.195 -0.0158929 109.702 0.000576803 109.159C0.175156 103.042 0.741716 97.4881 1.68049 92.651C1.78919 92.0894 2.26517 91.6727 2.83667 91.6381C6.92446 91.391 10.1871 90.5725 12.8075 89.133C15.9235 87.4218 18.1914 84.6516 18.8733 81.7216C19.6424 78.4145 18.5406 74.8735 17.4947 72.1577C16.9562 70.761 16.3583 69.4286 14.9848 68.4899C14.6636 68.2708 14.4627 67.9151 14.4396 67.528C14.4166 67.141 14.5747 66.7655 14.8678 66.5085C18.646 63.2146 22.0009 60.5959 25.4249 58.2638C25.9338 57.9179 26.619 57.992 27.0423 58.4384C28.7156 60.2072 31.3162 60.8907 34.0584 61.4902C35.8025 61.8723 37.377 62.1918 38.9697 62.2429C42.7791 62.3549 46.6462 60.8627 49.6075 58.1271C52.437 55.5133 54.3738 51.8554 55.2072 47.5519C55.3291 46.9277 55.889 46.4912 56.5313 46.539L70.776 47.5996C71.5254 47.6573 72.1249 48.1431 72.423 48.937C72.4576 49.0292 72.4807 49.1247 72.4922 49.2203C73.1098 54.1332 74.6267 58.1452 77.0049 61.1444C79.7636 64.6228 83.8629 66.665 87.6888 66.4707C92.0747 66.2483 96.095 63.2673 99.9835 60.3851C100.53 59.9783 101.299 60.0837 101.719 60.6206C105.629 65.6225 108.882 70.2027 111.667 74.6248C112.001 75.1552 111.893 75.8485 111.415 76.252C108.885 78.3849 105.601 81.9374 104.323 86.7433C103.193 90.9925 104.015 95.5134 106.471 98.5422C108.161 100.629 110.774 102.251 114.027 103.239C117.016 104.145 120.147 104.452 123.637 104.732C123.996 104.761 124.326 104.942 124.542 105.232C124.757 105.52 124.84 105.888 124.764 106.24C123.631 111.622 122.262 117.03 120.579 122.771C120.408 123.352 119.849 123.724 119.247 123.665C114.365 123.16 109.768 124.113 106.306 126.348C102.449 128.838 100.016 133.092 100.109 137.184C100.203 141.359 102.63 145.125 105.198 149.116L105.288 149.254C105.628 149.781 105.526 150.478 105.05 150.886C100.199 155.042 95.0607 158.774 90.2285 162.188C89.68 162.572 88.9273 162.463 88.5156 161.934C87.0465 160.052 85.3814 157.919 83.2782 156.484C79.1805 153.688 73.123 153.792 68.8787 156.728C64.7646 159.574 62.3139 164.978 62.6334 170.495C62.6548 170.858 62.5181 171.212 62.2579 171.464C62.0224 171.699 61.7061 171.828 61.38 171.828ZM45.803 167.233C50.4787 168.127 55.1775 168.776 60.0954 169.207C60.181 163.278 62.9216 157.8 67.4491 154.669C72.5976 151.107 79.6878 151.002 84.6897 154.416C86.7336 155.809 88.3838 157.731 89.7525 159.454C93.9671 156.463 98.3793 153.228 102.582 149.694C100.107 145.83 97.7024 141.815 97.6003 137.244C97.4883 132.302 100.372 127.198 104.944 124.245C108.632 121.863 113.396 120.76 118.458 121.084C119.851 116.26 121.02 111.67 122.012 107.116C118.935 106.846 116.101 106.492 113.299 105.642C109.564 104.509 106.529 102.602 104.521 100.125C101.571 96.4851 100.567 91.1111 101.899 86.101C102.963 82.0988 105.4 78.3009 108.971 75.0596C106.522 71.237 103.795 67.4012 100.494 63.1322C96.6088 65.9914 92.5589 68.7385 87.8173 68.979C83.1909 69.2228 78.2945 66.8083 75.04 62.704C72.4609 59.4513 70.7909 55.2004 70.0744 50.0651L57.4355 49.1247C56.3946 53.4859 54.2898 57.2213 51.3104 59.9717C47.8683 63.152 43.3325 64.9044 38.8906 64.7512C37.0855 64.6952 35.3216 64.3378 33.5215 63.9442C30.8583 63.3612 28.1095 62.6414 26.0129 60.9072C23.2888 62.8061 20.5779 64.9209 17.6166 67.4523C18.7497 68.6315 19.3525 70.01 19.8351 71.2601C21.0094 74.3103 22.2413 78.3206 21.3174 82.2948C20.4642 85.961 17.8027 89.2566 14.0147 91.3367C11.2824 92.8371 7.98676 93.7363 3.96814 94.0756C3.20394 98.31 2.72467 103.093 2.53857 108.32L2.81691 108.419C5.55748 109.381 8.14322 110.288 10.561 111.697C12.8009 113.001 15.7819 115.303 17.2642 118.859C18.641 122.17 18.5027 126.188 16.8821 129.882C15.6781 132.628 13.6804 135.217 10.9398 137.592C13.7726 142.166 16.495 146.426 19.2241 150.562C24.3643 147.594 30.4778 146.845 35.814 148.569C37.494 149.113 38.8544 149.809 39.9743 150.704C41.3479 151.799 42.509 153.306 43.5202 155.307C45.3665 158.961 46.162 163.153 45.803 167.233Z" fill="#0F0202"/>
<path d="M60.7407 121.649C56.5228 121.649 52.2439 119.312 49.8608 115.544C47.3475 111.573 46.939 106.181 48.7935 101.472C50.0469 98.2903 52.2093 95.6222 54.8824 93.9604C57.8502 92.1158 61.3698 91.5476 64.5386 92.4023C68.129 93.3691 70.8086 94.9601 72.5017 97.1341C74.5423 99.7479 75.6573 103.251 75.6392 106.996C75.6277 109.551 75.0908 111.744 74.0466 113.518C73.1276 115.076 71.8446 116.272 70.7115 117.235C67.8424 119.673 65.2797 121.023 62.6446 121.485C62.0138 121.595 61.3781 121.649 60.7407 121.649ZM61.6004 94.5302C59.7574 94.5302 57.8519 95.0688 56.2049 96.0916C53.9864 97.4701 52.183 99.7067 51.1273 102.391C49.5594 106.369 49.8871 110.895 51.9804 114.202C54.1956 117.702 58.4003 119.683 62.2098 119.013C64.3854 118.632 66.571 117.459 69.0843 115.323C70.0593 114.495 71.1545 113.48 71.8825 112.243C72.6994 110.858 73.1177 109.088 73.1276 106.985C73.1424 103.799 72.2168 100.85 70.5221 98.6773C69.1699 96.9431 66.9366 95.6469 63.8848 94.825C63.1519 94.6274 62.3827 94.5302 61.6004 94.5302Z" fill="#0F0202"/>
<path d="M61.6434 133.284C52.4335 133.284 43.0342 127.753 38.7587 119.07C34.9871 111.413 35.1551 101.984 39.1935 94.466C43.2335 86.9476 51.0023 81.6048 59.4677 80.5211C67.3847 79.5115 76.9454 83.9237 82.2026 91.0206C87.7133 98.4599 88.8152 108.721 85.0057 117.16C83.0541 121.483 79.8672 125.35 75.7892 128.343C73.3583 130.125 70.8154 131.447 68.2329 132.276C66.0985 132.957 63.8767 133.284 61.6434 133.284ZM61.8295 82.8829C61.1378 82.8829 60.4576 82.924 59.7872 83.0097C52.1107 83.9913 45.0666 88.8367 41.4037 95.6535C37.7408 102.47 37.591 111.018 41.0084 117.96C45.7929 127.677 57.661 133.028 67.4654 129.884C69.791 129.138 72.0918 127.938 74.3037 126.315C78.0341 123.58 80.9443 120.055 82.7181 116.124C86.1059 108.618 85.0881 99.1286 80.185 92.5111C75.8881 86.7071 68.447 82.8829 61.8295 82.8829Z" fill="#0F0202"/>
<path d="M184.194 29.1865L181.442 20.138L187.236 11.9872L172.967 2.13989C171.127 5.12915 169.286 8.12006 167.446 11.111C167.347 11.2707 167.245 11.4338 167.089 11.5375C166.878 11.6759 166.608 11.6775 166.354 11.6742C163.176 11.6331 159.999 11.5738 156.822 11.4996C155.254 8.53674 153.733 5.71712 152.022 3.02102C151.886 2.80692 151.724 2.57469 151.477 2.51705C151.23 2.45941 150.981 2.59446 150.764 2.72457C146.987 4.98586 143.209 7.24716 139.433 9.50846C139.334 9.56775 139.232 9.63033 139.169 9.72421C139.008 9.96302 139.146 10.2825 139.288 10.5345C140.716 13.0445 142.414 15.3997 144.347 17.544C142.639 20.6766 140.846 23.5884 138.883 26.3817C138.41 27.0537 137.871 27.7602 137.084 27.9925C136.427 28.1852 135.724 28.0056 135.065 27.8212C132.405 27.0734 129.775 26.2253 127.179 25.2766C124.964 30.4909 124.539 36.4464 125.995 41.9193C126.208 42.3393 136.07 40.936 136.07 40.936L141.949 51.0962L137.229 58.8255L148.042 66.675L153.658 58.4994L163.574 58.6954L167.402 67.3239L182.183 62.2331L178.604 53.3888L183.919 44.8064L193.946 44.006L194.257 31.8283L184.194 29.1865ZM167.146 33.7915C167.25 34.2263 166.866 35.0646 166.702 35.4516C166.56 35.7892 166.414 36.1137 166.213 36.4217C165.842 36.9948 165.353 37.5449 164.851 38.0094C163.792 38.9877 162.612 39.6959 161.263 40.1932C160.717 40.3958 160.135 40.5243 159.562 40.6215C159.053 40.7071 158.592 40.7516 158.085 40.6989C157.772 40.6659 157.447 40.5655 157.133 40.5638C158.016 40.5688 157.052 40.5737 156.708 40.4782C155.186 40.0533 153.699 38.8098 152.958 37.4346C152.511 36.6028 152.11 35.6772 152.07 34.7203C152.035 33.8606 152.266 32.9696 152.599 32.1807C153.076 31.0476 153.625 29.9161 154.33 28.9049C155.122 27.7701 156.112 26.5843 157.38 25.9568C158.665 25.3211 160.041 25.219 161.282 25.69C161.797 25.4545 162.387 25.3804 162.882 25.5632C163.81 25.9074 164.587 26.3488 165.229 27.1113C165.863 27.8656 166.277 28.5985 166.641 29.511C166.754 29.7943 166.85 30.0808 166.922 30.3773C166.964 30.5502 166.997 30.7231 167.025 30.8977C167.062 31.1695 167.099 31.4412 167.135 31.713C167.13 31.652 167.125 31.5911 167.12 31.5302C167.092 31.2946 167.099 31.2864 167.138 31.5022C167.179 31.7772 167.217 32.0522 167.252 32.3289C167.263 32.4689 167.273 32.6056 167.268 32.7456C167.26 33.0931 167.24 33.4621 167.146 33.7915Z" fill="white"/>
<path d="M140.735 40.1025C140.695 40.1025 140.656 40.0976 140.616 40.0861C140.396 40.0218 140.269 39.788 140.333 39.5673C143.154 29.9424 146.489 20.3454 150.245 11.0433C150.332 10.8292 150.577 10.7271 150.79 10.8127C151.004 10.8984 151.108 11.1421 151.022 11.3579C147.277 20.6336 143.951 30.2042 141.138 39.8028C141.082 39.984 140.914 40.1025 140.735 40.1025Z" fill="#0F0202"/>
<path d="M145.076 41.6656C145.038 41.6656 145 41.6606 144.961 41.6491C144.738 41.5849 144.612 41.3543 144.674 41.1336C147.283 32.039 150.733 23.1289 154.923 14.6502C155.025 14.4444 155.276 14.3571 155.483 14.4608C155.691 14.5629 155.775 14.8133 155.673 15.0208C151.504 23.455 148.074 32.3173 145.478 41.3625C145.425 41.5453 145.259 41.6656 145.076 41.6656Z" fill="#0F0202"/>
<path d="M143.45 59.079C143.395 59.079 143.343 59.0674 143.288 59.046C143.076 58.9571 142.975 58.7117 143.063 58.4992L150.244 41.2571C150.332 41.0446 150.58 40.9474 150.79 41.0314C151.003 41.1204 151.103 41.3658 151.014 41.5782L143.835 58.8204C143.769 58.9834 143.613 59.079 143.45 59.079Z" fill="#0F0202"/>
<path d="M152.87 55.3784C152.818 55.3784 152.765 55.3685 152.714 55.3487C152.5 55.2614 152.398 55.0177 152.483 54.8036L156.49 44.9085C156.576 44.6944 156.82 44.5923 157.036 44.678C157.25 44.7653 157.353 45.009 157.266 45.2231L153.259 55.1181C153.192 55.2795 153.035 55.3784 152.87 55.3784Z" fill="#0F0202"/>
<path d="M160.366 22.7351C160.325 22.7351 160.282 22.7301 160.241 22.7153C160.02 22.6461 159.898 22.4106 159.966 22.1916L161.876 16.1126C161.946 15.8935 162.176 15.7716 162.4 15.8392C162.619 15.9083 162.743 16.1439 162.673 16.3629L160.763 22.4403C160.709 22.6214 160.544 22.7351 160.366 22.7351Z" fill="#0F0202"/>
<path d="M167.916 24.3294C167.866 24.3294 167.817 24.3212 167.769 24.3031C167.553 24.2224 167.443 23.9819 167.525 23.7645C169.482 18.5551 171.73 13.3836 174.209 8.39824C174.311 8.19072 174.565 8.10672 174.769 8.21048C174.975 8.31259 175.059 8.56458 174.957 8.77045C172.491 13.7311 170.254 18.8746 168.308 24.0577C168.243 24.2257 168.084 24.3294 167.916 24.3294Z" fill="#0F0202"/>
<path d="M160.355 55.4738C160.294 55.4738 160.234 55.4606 160.175 55.4343C159.966 55.3354 159.877 55.0868 159.976 54.8776L178.196 16.396C178.297 16.1869 178.546 16.1012 178.753 16.1967C178.962 16.2956 179.051 16.5442 178.952 16.7534L160.732 55.2366C160.661 55.3849 160.511 55.4738 160.355 55.4738Z" fill="#0F0202"/>
<path d="M167.644 57.0237C167.585 57.0237 167.524 57.0106 167.468 56.9842C167.259 56.8854 167.168 56.6367 167.266 56.4275L179.498 30.2472C179.595 30.038 179.845 29.9475 180.053 30.0446C180.262 30.1434 180.352 30.3921 180.255 30.5997L168.023 56.78C167.952 56.9348 167.801 57.0237 167.644 57.0237Z" fill="#0F0202"/>
<path d="M180.684 43.9253C180.615 43.9253 180.546 43.9072 180.481 43.8726C180.279 43.7606 180.206 43.5053 180.318 43.3044L185.704 33.5774C185.816 33.3748 186.07 33.304 186.272 33.4143C186.475 33.5263 186.547 33.7816 186.435 33.9825L181.051 43.7096C180.972 43.8463 180.83 43.9253 180.684 43.9253Z" fill="#0F0202"/>
<path d="M171.656 62.3351C171.593 62.3351 171.529 62.322 171.469 62.2923C171.264 62.1886 171.18 61.9382 171.282 61.7307L173.714 56.8672C173.818 56.6613 174.068 56.5773 174.274 56.6794C174.48 56.7815 174.564 57.0335 174.462 57.241L172.031 62.1046C171.955 62.2495 171.809 62.3351 171.656 62.3351Z" fill="#0F0202"/>
<path d="M130.491 37.8445C130.43 37.8445 130.367 37.8313 130.308 37.8017C130.1 37.6996 130.013 37.4509 130.115 37.2433L133.414 30.4693C133.516 30.2618 133.766 30.1745 133.974 30.2766C134.181 30.3788 134.267 30.6274 134.167 30.835L130.866 37.609C130.795 37.7588 130.645 37.8445 130.491 37.8445Z" fill="#0F0202"/>
<path d="M144.386 12.3149C144.317 12.3149 144.248 12.2984 144.182 12.2622C143.979 12.1502 143.907 11.8949 144.021 11.6923L146.451 7.3509C146.563 7.14833 146.819 7.07586 147.021 7.1895C147.222 7.3015 147.295 7.55678 147.183 7.75936L144.75 12.1008C144.674 12.2391 144.531 12.3149 144.386 12.3149Z" fill="#0F0202"/>
<g opacity="0.1294">
<path d="M170.051 35.5983C169.934 34.0781 167.592 33.9315 167.241 35.4072C166.775 36.8368 166.96 36.5881 165.411 38.0654C163.922 39.2529 164.463 38.8988 162.142 39.742C159.978 40.391 160.854 40.2576 159.024 40.2493C158.772 40.2048 158.524 40.1406 158.28 40.0616C157.389 39.7305 157.669 39.9002 155.968 38.963C155.264 38.6089 154.637 37.9716 153.823 37.9205C151.358 37.4709 150.15 41.0349 152.329 42.2438C156.2 44.8823 160.09 46.0714 164.51 43.8941C166.793 42.6556 168.452 40.559 169.282 38.1148C169.639 37.3259 170.122 36.4777 170.051 35.5983Z" fill="#0F0202"/>
</g>
<g opacity="0.1294">
<path d="M176.723 60.0407C175.272 60.5628 174.756 60.9186 172.022 61.3995C170.73 61.803 169.152 61.5971 168.045 62.4321C165.728 64.0709 167.645 67.8622 170.349 67.0568C173.59 66.3865 177.316 66.2498 179.841 63.8683C181.828 61.6515 179.315 58.7478 176.723 60.0407Z" fill="#0F0202"/>
</g>
<g opacity="0.1294">
<path d="M196.148 39.4635C196.15 39.4355 196.156 39.4092 196.158 39.3828C196.155 39.4092 196.151 39.4339 196.148 39.4586C196.161 38.9233 196.036 38.3831 195.764 37.9203C194.636 35.8352 191.359 36.1778 190.576 38.3271C190.529 38.4276 190.473 38.5429 190.403 38.6829C190.188 39.1028 190.046 39.5541 189.875 39.9922C189.728 40.3249 189.524 40.7844 189.402 41.043C189.122 41.5239 188.982 42.0427 188.98 42.5994C189.017 46.1568 194.071 46.8354 195.038 43.4196C195.531 42.3144 195.921 41.183 196.082 39.9889C196.12 39.816 196.143 39.6414 196.148 39.4635Z" fill="#0F0202"/>
</g>
<path d="M167.279 68.4717C166.774 68.4717 166.311 68.1654 166.118 67.6878C165.081 65.13 164.01 62.4899 162.408 59.9108C159.344 60.2583 156.274 60.0903 153.362 59.812C152.506 61.3222 151.678 62.8671 150.806 64.4894C150.297 65.438 149.775 66.413 149.225 67.421C148.924 67.9727 148.262 68.2165 147.674 67.9908C142.856 66.138 138.663 63.124 135.545 59.275C135.188 58.8337 135.172 58.2078 135.506 57.7466C137.115 55.5364 138.759 53.2801 140.509 50.5609C138.665 48.1662 137.018 45.3153 135.504 41.8912C134.839 42.0263 134.172 42.1646 133.502 42.303C131.183 42.7855 128.786 43.2846 126.194 43.6387C125.57 43.7194 124.982 43.334 124.814 42.7295C123.335 37.362 123.747 31.3028 126.036 24.7149C126.248 24.1022 126.891 23.7498 127.521 23.9079C130.784 24.7166 134.047 25.5236 137.486 26.3471C138.866 23.4962 140.547 20.8182 142.329 18.0364C140.742 15.953 138.983 13.5287 137.408 10.7074C137.122 10.1935 137.23 9.55122 137.67 9.15924C141.242 5.97564 145.742 3.20378 151.042 0.922722C151.628 0.670735 152.308 0.898017 152.626 1.44975C154.227 4.23808 155.678 7.14664 156.945 10.1095C160.217 9.61875 163.537 9.50182 166.836 9.76698C168.332 6.95395 169.903 4.05033 171.86 1.01331C172.209 0.471451 172.909 0.285345 173.484 0.575212C177.361 2.54829 181.032 4.95452 184.391 7.72638C185.296 8.47081 186.175 9.24159 187.055 10.0124C187.508 10.4109 188.071 10.905 188.272 11.6742C188.364 12.025 188.3 12.4005 188.094 12.7002C187.33 13.8152 186.549 14.9171 185.744 16.0485C184.678 17.5506 183.578 19.0971 182.438 20.7935C183.402 23.147 184.387 25.5631 185.287 27.9891C188.107 28.2592 191.691 28.8077 195.535 30.3558C195.985 30.537 196.289 30.9603 196.319 31.4428C196.624 36.4019 195.957 40.9277 194.282 45.2823C194.09 45.7814 193.633 46.1207 193.064 46.0861L191.956 46.0433C189.481 45.9461 186.928 45.8456 184.205 46.0433C183.156 48.4923 181.593 50.9545 179.353 53.6902C180.814 56.2183 182.293 58.8468 183.599 61.9349C183.851 62.5328 183.608 63.2245 183.034 63.5308C177.924 66.2516 172.668 67.9118 167.413 68.4635C167.367 68.4685 167.324 68.4717 167.279 68.4717ZM163.033 57.3118C163.45 57.3118 163.845 57.5194 164.079 57.8751C165.856 60.563 167.016 63.2475 168.081 65.8596C172.354 65.298 176.629 63.9525 180.821 61.8509C179.554 59.0494 178.131 56.5921 176.748 54.2057C176.483 53.7478 176.526 53.1582 176.868 52.753C179.464 49.6847 181.145 47.0331 182.163 44.4062C182.334 43.9615 182.743 43.6535 183.217 43.6107C186.386 43.3142 189.268 43.4295 192.053 43.5382L192.246 43.5448C193.479 40.0252 194.007 36.3623 193.853 32.3981C190.228 31.0541 186.855 30.6342 184.279 30.42C183.792 30.3789 183.372 30.0594 183.206 29.5982C182.17 26.7555 180.999 23.8964 179.866 21.1311C179.707 20.7457 179.75 20.3076 179.981 19.9618C181.274 18.0117 182.507 16.2758 183.698 14.5976C184.319 13.7247 184.928 12.8699 185.523 12.0102C185.48 11.9739 185.437 11.936 185.401 11.9031C184.54 11.1488 183.678 10.3928 182.796 9.66651C179.871 7.2537 176.698 5.1291 173.357 3.34378C171.568 6.21281 170.092 8.98961 168.661 11.6841C168.422 12.1337 167.948 12.4038 167.428 12.3428C163.748 11.9756 160.033 12.1106 156.385 12.7464C155.807 12.8501 155.235 12.5339 155.011 11.9904C153.842 9.15595 152.494 6.36762 151.004 3.6847C146.768 5.60178 143.11 7.84496 140.106 10.3731C141.651 12.9918 143.355 15.2629 144.854 17.2113C145.177 17.6313 145.202 18.2077 144.917 18.6541C142.814 21.9315 140.827 25.0278 139.33 28.3251C139.082 28.8735 138.48 29.17 137.897 29.0284C134.485 28.2164 131.253 27.4209 128.045 26.6271C126.383 31.8628 126.023 36.6851 126.966 40.9953C129.061 40.6692 131.053 40.2558 132.989 39.8523C134.004 39.6415 135.009 39.4323 136.015 39.2379C136.598 39.126 137.179 39.4372 137.408 39.9824C139.088 43.9615 140.923 47.1368 143.016 49.6913C143.359 50.108 143.395 50.6992 143.107 51.1555C141.34 53.9537 139.698 56.2495 138.111 58.4334C140.648 61.3272 143.881 63.6576 147.555 65.2387C147.911 64.5816 148.255 63.9393 148.593 63.3085C149.609 61.4161 150.568 59.6291 151.587 57.8586C151.834 57.4321 152.313 57.1933 152.801 57.2377C156.044 57.5688 159.506 57.8092 162.852 57.3267C162.915 57.3151 162.974 57.3118 163.033 57.3118Z" fill="#0F0202"/>
<path d="M158.481 41.0479C157.124 41.0479 155.755 40.7762 154.486 40.2245C153.382 39.7452 152.583 39.1473 152.045 38.393C151.315 37.3702 151.136 36.1597 151.062 35.2193C150.808 31.955 151.61 28.9789 153.321 26.8395C155.411 24.229 158.883 23.0778 161.764 24.0347C161.958 24.0989 162.129 24.2093 162.266 24.3493C162.274 24.3509 162.284 24.3542 162.292 24.3575C165.344 25.3622 167.604 28.3597 167.79 31.6437C167.971 34.8109 166.291 37.9582 163.509 39.6645C162.016 40.5819 160.258 41.0479 158.481 41.0479ZM159.66 26.2103C158.081 26.2103 156.388 27.024 155.281 28.4058C153.968 30.0478 153.357 32.398 153.563 35.025C153.611 35.6409 153.715 36.415 154.085 36.9354C154.352 37.3077 154.81 37.6305 155.485 37.9253C157.679 38.8772 160.252 38.7241 162.2 37.5284C164.173 36.3178 165.415 34.0104 165.288 31.7903C165.158 29.5455 163.57 27.4225 161.51 26.744L161.271 26.6715C161.08 26.6155 160.724 26.5117 160.431 26.2795C160.179 26.2334 159.921 26.2103 159.66 26.2103Z" fill="#0F0202"/>
<path d="M140.735 40.1025C140.695 40.1025 140.656 40.0976 140.616 40.0861C140.396 40.0218 140.269 39.788 140.333 39.5673C143.154 29.9424 146.489 20.3454 150.245 11.0433C150.332 10.8292 150.577 10.7271 150.79 10.8127C151.004 10.8984 151.108 11.1421 151.022 11.3579C147.277 20.6336 143.951 30.2042 141.138 39.8028C141.082 39.984 140.914 40.1025 140.735 40.1025Z" fill="#0F0202"/>
<path d="M145.076 41.6656C145.038 41.6656 145 41.6606 144.961 41.6491C144.738 41.5849 144.612 41.3543 144.674 41.1336C147.283 32.039 150.733 23.1289 154.923 14.6502C155.025 14.4444 155.276 14.3571 155.483 14.4608C155.691 14.5629 155.775 14.8133 155.673 15.0208C151.504 23.455 148.074 32.3173 145.478 41.3625C145.425 41.5453 145.259 41.6656 145.076 41.6656Z" fill="#0F0202"/>
<path d="M143.45 59.079C143.395 59.079 143.343 59.0674 143.288 59.046C143.076 58.9571 142.975 58.7117 143.063 58.4992L150.244 41.2571C150.332 41.0446 150.58 40.9474 150.79 41.0314C151.003 41.1204 151.103 41.3658 151.014 41.5782L143.835 58.8204C143.769 58.9834 143.613 59.079 143.45 59.079Z" fill="#0F0202"/>
<path d="M152.87 55.3784C152.818 55.3784 152.765 55.3685 152.714 55.3487C152.5 55.2614 152.398 55.0177 152.483 54.8036L156.49 44.9085C156.576 44.6944 156.82 44.5923 157.036 44.678C157.25 44.7653 157.353 45.009 157.266 45.2231L153.259 55.1181C153.192 55.2795 153.035 55.3784 152.87 55.3784Z" fill="#0F0202"/>
<path d="M160.366 22.7351C160.325 22.7351 160.282 22.7301 160.241 22.7153C160.02 22.6461 159.898 22.4106 159.966 22.1916L161.876 16.1126C161.946 15.8935 162.176 15.7716 162.4 15.8392C162.619 15.9083 162.743 16.1439 162.673 16.3629L160.763 22.4403C160.709 22.6214 160.544 22.7351 160.366 22.7351Z" fill="#0F0202"/>
<path d="M167.916 24.3294C167.866 24.3294 167.817 24.3212 167.769 24.3031C167.553 24.2224 167.443 23.9819 167.525 23.7645C169.482 18.5551 171.73 13.3836 174.209 8.39824C174.311 8.19072 174.565 8.10672 174.769 8.21048C174.975 8.31259 175.059 8.56458 174.957 8.77045C172.491 13.7311 170.254 18.8746 168.308 24.0577C168.243 24.2257 168.084 24.3294 167.916 24.3294Z" fill="#0F0202"/>
<path d="M160.355 55.4738C160.294 55.4738 160.234 55.4606 160.175 55.4343C159.966 55.3354 159.877 55.0868 159.976 54.8776L178.196 16.396C178.297 16.1869 178.546 16.1012 178.753 16.1967C178.962 16.2956 179.051 16.5442 178.952 16.7534L160.732 55.2366C160.661 55.3849 160.511 55.4738 160.355 55.4738Z" fill="#0F0202"/>
<path d="M167.644 57.0237C167.585 57.0237 167.524 57.0106 167.468 56.9842C167.259 56.8854 167.168 56.6367 167.266 56.4275L179.498 30.2472C179.595 30.038 179.845 29.9475 180.053 30.0446C180.262 30.1434 180.352 30.3921 180.255 30.5997L168.023 56.78C167.952 56.9348 167.801 57.0237 167.644 57.0237Z" fill="#0F0202"/>
<path d="M180.684 43.9253C180.615 43.9253 180.546 43.9072 180.481 43.8726C180.279 43.7606 180.206 43.5053 180.318 43.3044L185.704 33.5774C185.816 33.3748 186.07 33.304 186.272 33.4143C186.475 33.5263 186.547 33.7816 186.435 33.9825L181.051 43.7096C180.972 43.8463 180.83 43.9253 180.684 43.9253Z" fill="#0F0202"/>
<path d="M171.656 62.3351C171.593 62.3351 171.529 62.322 171.469 62.2923C171.264 62.1886 171.18 61.9382 171.282 61.7307L173.714 56.8672C173.818 56.6613 174.068 56.5773 174.274 56.6794C174.48 56.7815 174.564 57.0335 174.462 57.241L172.031 62.1046C171.955 62.2495 171.809 62.3351 171.656 62.3351Z" fill="#0F0202"/>
<path d="M130.491 37.8445C130.43 37.8445 130.367 37.8313 130.308 37.8017C130.1 37.6996 130.013 37.4509 130.115 37.2433L133.414 30.4693C133.516 30.2618 133.766 30.1745 133.974 30.2766C134.181 30.3788 134.267 30.6274 134.167 30.835L130.866 37.609C130.795 37.7588 130.645 37.8445 130.491 37.8445Z" fill="#0F0202"/>
<path d="M144.386 12.3149C144.317 12.3149 144.248 12.2984 144.182 12.2622C143.979 12.1502 143.907 11.8949 144.021 11.6923L146.451 7.3509C146.563 7.14833 146.819 7.07586 147.021 7.1895C147.222 7.3015 147.295 7.55678 147.183 7.75936L144.75 12.1008C144.674 12.2391 144.531 12.3149 144.386 12.3149Z" fill="#0F0202"/>
<g opacity="0.1294">
<path d="M170.051 35.5983C169.934 34.0781 167.592 33.9315 167.241 35.4072C166.775 36.8368 166.96 36.5881 165.411 38.0654C163.922 39.2529 164.463 38.8988 162.142 39.742C159.978 40.391 160.854 40.2576 159.024 40.2493C158.772 40.2048 158.524 40.1406 158.28 40.0616C157.389 39.7305 157.669 39.9002 155.968 38.963C155.264 38.6089 154.637 37.9716 153.823 37.9205C151.358 37.4709 150.15 41.0349 152.329 42.2438C156.2 44.8823 160.09 46.0714 164.51 43.8941C166.793 42.6556 168.452 40.559 169.282 38.1148C169.639 37.3259 170.122 36.4777 170.051 35.5983Z" fill="#0F0202"/>
</g>
<g opacity="0.1294">
<path d="M176.723 60.0407C175.272 60.5628 174.756 60.9186 172.022 61.3995C170.73 61.803 169.152 61.5971 168.045 62.4321C165.728 64.0709 167.645 67.8622 170.349 67.0568C173.59 66.3865 177.316 66.2498 179.841 63.8683C181.828 61.6515 179.315 58.7478 176.723 60.0407Z" fill="#0F0202"/>
</g>
<g opacity="0.1294">
<path d="M196.148 39.4635C196.15 39.4355 196.156 39.4092 196.158 39.3828C196.155 39.4092 196.151 39.4339 196.148 39.4586C196.161 38.9233 196.036 38.3831 195.764 37.9203C194.636 35.8352 191.359 36.1778 190.576 38.3271C190.529 38.4276 190.473 38.5429 190.403 38.6829C190.188 39.1028 190.046 39.5541 189.875 39.9922C189.728 40.3249 189.524 40.7844 189.402 41.043C189.122 41.5239 188.982 42.0427 188.98 42.5994C189.017 46.1568 194.071 46.8354 195.038 43.4196C195.531 42.3144 195.921 41.183 196.082 39.9889C196.12 39.816 196.143 39.6414 196.148 39.4635Z" fill="#0F0202"/>
</g>
<path d="M167.279 68.4717C166.774 68.4717 166.311 68.1654 166.118 67.6878C165.081 65.13 164.01 62.4899 162.408 59.9108C159.344 60.2583 156.274 60.0903 153.362 59.812C152.506 61.3222 151.678 62.8671 150.806 64.4894C150.297 65.438 149.775 66.413 149.225 67.421C148.924 67.9727 148.262 68.2165 147.674 67.9908C142.856 66.138 138.663 63.124 135.545 59.275C135.188 58.8337 135.172 58.2078 135.506 57.7466C137.115 55.5364 138.759 53.2801 140.509 50.5609C138.665 48.1662 137.018 45.3153 135.504 41.8912C134.839 42.0263 134.172 42.1646 133.502 42.303C131.183 42.7855 128.786 43.2846 126.194 43.6387C125.57 43.7194 124.982 43.334 124.814 42.7295C123.335 37.362 123.747 31.3028 126.036 24.7149C126.248 24.1022 126.891 23.7498 127.521 23.9079C130.784 24.7166 134.047 25.5236 137.486 26.3471C138.866 23.4962 140.547 20.8182 142.329 18.0364C140.742 15.953 138.983 13.5287 137.408 10.7074C137.122 10.1935 137.23 9.55122 137.67 9.15924C141.242 5.97564 145.742 3.20378 151.042 0.922722C151.628 0.670735 152.308 0.898017 152.626 1.44975C154.227 4.23808 155.678 7.14664 156.945 10.1095C160.217 9.61875 163.537 9.50182 166.836 9.76698C168.332 6.95395 169.903 4.05033 171.86 1.01331C172.209 0.471451 172.909 0.285345 173.484 0.575212C177.361 2.54829 181.032 4.95452 184.391 7.72638C185.296 8.47081 186.175 9.24159 187.055 10.0124C187.508 10.4109 188.071 10.905 188.272 11.6742C188.364 12.025 188.3 12.4005 188.094 12.7002C187.33 13.8152 186.549 14.9171 185.744 16.0485C184.678 17.5506 183.578 19.0971 182.438 20.7935C183.402 23.147 184.387 25.5631 185.287 27.9891C188.107 28.2592 191.691 28.8077 195.535 30.3558C195.985 30.537 196.289 30.9603 196.319 31.4428C196.624 36.4019 195.957 40.9277 194.282 45.2823C194.09 45.7814 193.633 46.1207 193.064 46.0861L191.956 46.0433C189.481 45.9461 186.928 45.8456 184.205 46.0433C183.156 48.4923 181.593 50.9545 179.353 53.6902C180.814 56.2183 182.293 58.8468 183.599 61.9349C183.851 62.5328 183.608 63.2245 183.034 63.5308C177.924 66.2516 172.668 67.9118 167.413 68.4635C167.367 68.4685 167.324 68.4717 167.279 68.4717ZM163.033 57.3118C163.45 57.3118 163.845 57.5194 164.079 57.8751C165.856 60.563 167.016 63.2475 168.081 65.8596C172.354 65.298 176.629 63.9525 180.821 61.8509C179.554 59.0494 178.131 56.5921 176.748 54.2057C176.483 53.7478 176.526 53.1582 176.868 52.753C179.464 49.6847 181.145 47.0331 182.163 44.4062C182.334 43.9615 182.743 43.6535 183.217 43.6107C186.386 43.3142 189.268 43.4295 192.053 43.5382L192.246 43.5448C193.479 40.0252 194.007 36.3623 193.853 32.3981C190.228 31.0541 186.855 30.6342 184.279 30.42C183.792 30.3789 183.372 30.0594 183.206 29.5982C182.17 26.7555 180.999 23.8964 179.866 21.1311C179.707 20.7457 179.75 20.3076 179.981 19.9618C181.274 18.0117 182.507 16.2758 183.698 14.5976C184.319 13.7247 184.928 12.8699 185.523 12.0102C185.48 11.9739 185.437 11.936 185.401 11.9031C184.54 11.1488 183.678 10.3928 182.796 9.66651C179.871 7.2537 176.698 5.1291 173.357 3.34378C171.568 6.21281 170.092 8.98961 168.661 11.6841C168.422 12.1337 167.948 12.4038 167.428 12.3428C163.748 11.9756 160.033 12.1106 156.385 12.7464C155.807 12.8501 155.235 12.5339 155.011 11.9904C153.842 9.15595 152.494 6.36762 151.004 3.6847C146.768 5.60178 143.11 7.84496 140.106 10.3731C141.651 12.9918 143.355 15.2629 144.854 17.2113C145.177 17.6313 145.202 18.2077 144.917 18.6541C142.814 21.9315 140.827 25.0278 139.33 28.3251C139.082 28.8735 138.48 29.17 137.897 29.0284C134.485 28.2164 131.253 27.4209 128.045 26.6271C126.383 31.8628 126.023 36.6851 126.966 40.9953C129.061 40.6692 131.053 40.2558 132.989 39.8523C134.004 39.6415 135.009 39.4323 136.015 39.2379C136.598 39.126 137.179 39.4372 137.408 39.9824C139.088 43.9615 140.923 47.1368 143.016 49.6913C143.359 50.108 143.395 50.6992 143.107 51.1555C141.34 53.9537 139.698 56.2495 138.111 58.4334C140.648 61.3272 143.881 63.6576 147.555 65.2387C147.911 64.5816 148.255 63.9393 148.593 63.3085C149.609 61.4161 150.568 59.6291 151.587 57.8586C151.834 57.4321 152.313 57.1933 152.801 57.2377C156.044 57.5688 159.506 57.8092 162.852 57.3267C162.915 57.3151 162.974 57.3118 163.033 57.3118Z" fill="#0F0202"/>
<path d="M158.481 41.0479C157.124 41.0479 155.755 40.7762 154.486 40.2245C153.382 39.7452 152.583 39.1473 152.045 38.393C151.315 37.3702 151.136 36.1597 151.062 35.2193C150.808 31.955 151.61 28.9789 153.321 26.8395C155.411 24.229 158.883 23.0778 161.764 24.0347C161.958 24.0989 162.129 24.2093 162.266 24.3493C162.274 24.3509 162.284 24.3542 162.292 24.3575C165.344 25.3622 167.604 28.3597 167.79 31.6437C167.971 34.8109 166.291 37.9582 163.509 39.6645C162.016 40.5819 160.258 41.0479 158.481 41.0479ZM159.66 26.2103C158.081 26.2103 156.388 27.024 155.281 28.4058C153.968 30.0478 153.357 32.398 153.563 35.025C153.611 35.6409 153.715 36.415 154.085 36.9354C154.352 37.3077 154.81 37.6305 155.485 37.9253C157.679 38.8772 160.252 38.7241 162.2 37.5284C164.173 36.3178 165.415 34.0104 165.288 31.7903C165.158 29.5455 163.57 27.4225 161.51 26.744L161.271 26.6715C161.08 26.6155 160.724 26.5117 160.431 26.2795C160.179 26.2334 159.921 26.2103 159.66 26.2103Z" fill="#0F0202"/>
<path d="M248.07 157.23C244.424 151.517 243.024 144.295 244.796 137.753C246.306 132.18 249.969 127.382 254.393 123.179C249.211 115.437 243.481 108.06 237.261 101.125C236.707 100.507 236.146 99.8894 235.474 99.4035C234.426 98.6476 233.061 98.1469 231.727 97.2262C226.084 103.365 217.655 106.833 209.219 106.686C198.257 105.321 188.403 97.279 184.643 86.7877C174.02 88.4759 163.61 91.4981 153.886 95.6666C155.9 99.0149 156.426 103.058 156.365 106.965C156.299 111.188 155.582 115.457 153.738 119.256C151.893 123.056 148.85 126.361 144.969 128.03C142.726 128.993 140.28 129.392 137.849 129.616C133.631 130.003 129.369 129.891 125.202 129.548C125.202 129.548 117.175 159.304 118.086 159.304C120.695 159.948 123.285 160.663 125.854 161.45C128.699 162.321 131.553 163.296 134.037 164.937C136.519 166.577 138.623 168.967 139.355 171.851C139.842 173.774 139.699 175.805 139.37 177.763C138.172 184.857 134.475 191.502 129.076 196.259C129.076 196.259 148.942 215.973 149.27 215.78C151.521 212.435 155.26 210.459 158.845 208.614C160.355 207.837 161.872 207.058 163.489 206.539C169.361 204.657 176.1 206.587 180.615 210.787C185.131 214.987 187.514 221.181 187.858 227.43C194.909 227.041 201.95 226.499 208.976 225.807C212.052 225.504 215.241 225.134 218.093 222.851C217.919 216.606 219.256 210.324 221.962 204.691C223.271 201.966 224.933 199.347 227.249 197.402C230.701 194.502 235.388 193.331 239.889 193.586C244.389 193.841 248.729 195.421 253.08 197.114C257.688 188.396 262.354 179.522 263.85 169.466C257.474 167.168 251.716 162.942 248.07 157.23ZM214.121 159.098C213.628 163.179 211.784 166.961 209.226 170.139C207.938 171.74 206.436 173.107 204.789 174.329C203.18 175.525 201.111 176.663 199.158 177.157C197.053 177.689 194.682 177.447 192.532 177.447C190.271 177.447 187.973 177.424 185.814 176.657C183.759 175.925 181.99 174.603 180.425 173.104C178.897 171.64 177.08 170.291 176.023 168.42C171.889 161.099 173.098 151.407 178.022 144.788C180.658 141.245 184.367 138.567 188.26 136.533C192.453 134.342 197.396 133.563 201.978 134.898C203.384 135.308 203.87 136.528 203.697 137.655C211.217 141.558 215.116 150.847 214.121 159.098Z" fill="white"/>
<path d="M213.619 129.82C207.211 125.61 198.91 123.986 192.663 124.657C181.841 125.818 173.833 131.329 168.158 140.616C162.482 149.903 161.583 162.007 166.058 171.93C170.533 181.853 180.336 189.24 191.14 190.557C200.178 191.657 209.576 188.574 216.434 182.587C223.294 176.599 226.102 167.85 226.986 158.789C227.434 154.217 225.599 137.689 213.619 129.82ZM201.359 177.429C192.696 180.362 182.33 177.05 176.897 169.692C175.291 167.518 174.082 165.013 173.637 162.346C173.193 159.675 173.524 156.928 174.174 154.299C175.759 147.891 179.403 141.843 184.914 138.206C190.423 134.57 197.876 133.667 203.741 136.696C211.02 140.456 215.53 148.437 215.867 156.356C216.259 165.495 210.022 174.496 201.359 177.429Z" fill="#EC2227"/>
<g opacity="0.1294">
<path d="M229.096 155.358C228.732 154.274 228.368 153.189 227.991 152.107C227.288 150.083 226.456 148.103 225.811 146.066C225.684 146.072 225.557 146.076 225.437 146.11C223.207 147.102 224.416 148.712 224.48 150.738C224.711 152.729 225.155 154.686 225.424 156.672C225.674 158.667 225.737 160.688 225.587 162.694C225.577 162.73 225.562 162.778 225.537 162.858C225.236 163.973 224.739 165.019 224.439 166.136C223.097 170.761 222.56 172.179 219.959 175.845C219.793 176.051 219.547 176.365 219.378 176.612C219.182 176.956 218.426 178.001 218.197 178.33C218.131 178.412 218.081 178.477 218.052 178.519C217.938 178.661 217.826 178.806 217.709 178.946C217.378 179.432 215.726 181.069 215.73 181.14C213.477 182.877 213.694 182.834 211.225 184.636C209.399 185.855 207.442 186.886 205.459 187.823C203.012 188.861 199.976 190.228 196.234 190.45C193.308 190.508 190.369 190.453 187.459 190.126C182.945 189.254 181.896 188.49 178.027 186.339C176.858 185.676 175.743 184.254 174.292 184.509C174.27 184.514 174.254 184.529 174.232 184.536C175.275 185.667 176.327 186.791 177.395 187.899C178.76 189.314 180.158 190.694 181.563 192.066C186.053 193.812 190.892 194.803 195.711 194.602C198.431 194.485 201.185 194.373 203.829 193.662C208.509 192.43 212.862 190.086 216.616 187.043C219.348 184.542 222.359 182.26 224.617 179.293C227.848 173.966 229.368 167.747 229.409 163.112C229.592 161.393 229.452 158.393 229.096 155.358Z" fill="#0F0202"/>
</g>
<g opacity="0.1294">
<path d="M264.919 170.07C264.575 168.654 262.497 168.374 261.797 169.662C258.699 175.072 255.598 180.483 252.341 185.799C250.984 187.932 249.24 189.875 248.275 192.225C247.967 192.815 247.532 193.4 247.493 194.078C247.081 196.093 249.552 197.679 251.266 196.606C251.926 196.264 252.215 195.605 252.549 194.986C252.829 194.701 253.101 194.404 253.323 194.077C256.492 189.457 258.05 183.959 260.736 179.066C262.077 176.508 263.412 173.947 264.747 171.385C264.977 170.991 265.04 170.508 264.919 170.07Z" fill="#0F0202"/>
</g>
<g opacity="0.1294">
<path d="M214.499 217.811C213.264 217.434 212.093 218.131 210.896 218.358C202.931 220.568 197.565 220.672 188.429 220.39C184.302 220.489 184.297 226.55 188.429 226.665C195.371 226.861 202.43 226.952 209.204 225.208C210.799 224.837 212.398 224.478 213.974 224.034C214.934 223.788 215.878 223.32 216.374 222.421C217.426 220.71 216.431 218.32 214.499 217.811Z" fill="#0F0202"/>
</g>
<path d="M187.326 228.242C186.664 228.242 186.112 227.724 186.074 227.057C185.738 221.105 183.049 215.357 178.694 211.284C176.882 209.59 174.002 207.501 170.57 207.167C167.61 206.879 164.621 207.906 161.816 208.983C157.417 210.672 152.963 212.821 150.183 217.07C149.992 217.362 149.689 217.561 149.345 217.62C149.001 217.68 148.648 217.592 148.372 217.38C139.781 210.82 133.061 204.324 127.827 197.525C127.416 196.99 127.501 196.224 128.022 195.795C133.211 191.496 136.881 185.229 138.088 178.602C138.562 175.996 138.528 173.984 137.979 172.264C137.013 169.24 134.328 166.701 129.772 164.502C125.67 162.522 121.179 161.142 116.425 160.403C116.094 160.352 115.798 160.169 115.602 159.897C115.406 159.625 115.327 159.286 115.383 158.955C117.079 148.841 119.952 138.635 123.922 128.619C124.171 127.992 124.874 127.676 125.51 127.9C130.874 129.817 144.295 129.991 149.752 123.489C158.807 112.701 154.518 100.346 152.988 96.8162C152.72 96.1986 152.988 95.4772 153.598 95.1857C158.761 92.7087 167.384 90.1937 176.515 87.5322C179.33 86.712 182.212 85.8721 185.086 85.0058C185.524 84.8757 185.999 84.991 186.325 85.3105C186.652 85.63 186.779 86.1027 186.656 86.5424C186.127 88.4463 191.104 97.9625 198.896 101.953C216.744 111.097 228.074 99.6639 231.119 95.9417C231.345 95.6666 231.676 95.5003 232.031 95.4838C232.382 95.4657 232.733 95.6024 232.983 95.856C241.734 104.715 249.155 113.51 255.669 122.745C256.066 123.306 255.936 124.084 255.376 124.485C247.811 129.927 243.906 140.089 245.879 149.195C247.836 158.222 255.542 165.945 265.06 168.409C265.389 168.494 265.671 168.71 265.837 169.005C266.005 169.301 266.045 169.654 265.948 169.98C262.914 180.203 258.568 190.188 253.38 198.858C253.057 199.398 252.383 199.612 251.807 199.365C244.968 196.414 238.326 193.935 232.213 196.038C227.754 197.57 224.021 201.577 221.965 207.032C220.405 211.179 219.903 215.687 219.373 220.46C219.261 221.469 219.147 222.489 219.022 223.518C218.956 224.053 218.558 224.486 218.029 224.595C207.373 226.784 197.341 227.975 187.357 228.238C187.351 228.242 187.339 228.242 187.326 228.242ZM169.56 204.611C169.977 204.611 170.395 204.629 170.813 204.67C174.084 204.988 177.401 206.641 180.407 209.453C184.931 213.681 187.833 219.546 188.48 225.697C197.648 225.386 206.882 224.279 216.639 222.319C216.723 221.601 216.802 220.891 216.879 220.185C217.428 215.25 217.945 210.589 219.618 206.149C221.937 199.991 226.231 195.442 231.397 193.665C238.013 191.39 245.069 193.779 251.784 196.626C256.417 188.703 260.333 179.71 263.174 170.48C253.345 167.452 245.491 159.255 243.427 149.725C241.337 140.079 245.22 129.362 252.915 123.202C246.889 114.775 240.077 106.698 232.143 98.5818C228.255 102.803 215.945 113.508 197.75 104.186C190.719 100.585 185.104 92.4567 184.243 87.8765C181.883 88.5797 179.526 89.2665 177.214 89.9401C168.802 92.3925 160.826 94.718 155.75 96.9546C157.633 101.886 160.833 114.184 151.671 125.1C145.766 132.136 132.454 132.424 125.828 130.624C122.3 139.718 119.693 148.961 118.069 158.135C122.603 158.952 126.902 160.33 130.864 162.244C136.074 164.757 139.183 167.786 140.369 171.503C141.049 173.628 141.109 176.028 140.557 179.051C139.32 185.852 135.695 192.301 130.547 196.929C135.323 202.944 141.334 208.741 148.867 214.595C152.025 210.481 156.504 208.336 160.917 206.641C163.516 205.645 166.493 204.611 169.56 204.611Z" fill="#0F0202"/>
<path d="M193.694 179.758C186.46 179.758 179.219 176.347 174.856 170.438C173.019 167.952 171.814 165.225 171.369 162.552C170.947 160.017 171.129 157.221 171.926 153.999C173.691 146.858 177.797 140.72 183.191 137.161C189.366 133.086 197.251 132.467 203.282 135.583C210.687 139.407 215.714 147.54 216.088 156.303C216.499 165.918 209.895 175.512 200.728 178.617C198.454 179.387 196.074 179.758 193.694 179.758ZM194.881 136.115C191.358 136.115 187.72 137.179 184.573 139.255C179.699 142.472 175.977 148.065 174.36 154.602C173.647 157.484 173.479 159.951 173.843 162.142C174.223 164.425 175.271 166.778 176.875 168.947C181.957 175.835 191.869 178.969 199.924 176.242C208.077 173.481 213.947 164.955 213.581 156.412C213.245 148.531 208.75 141.23 202.131 137.813C199.931 136.675 197.436 136.115 194.881 136.115Z" fill="#0F0202"/>
<path d="M193.733 192.029C192.466 192.029 191.205 191.955 189.953 191.802C178.803 190.442 168.569 182.846 163.878 172.447C159.248 162.18 160.082 149.733 166.052 139.962C172.05 130.148 180.611 124.578 191.494 123.41C198.601 122.651 207.151 124.75 213.272 128.771C226.305 137.332 227.581 154.996 227.201 158.909C226.12 169.973 222.532 178.027 216.225 183.531C209.985 188.981 201.8 192.029 193.733 192.029ZM194.505 125.762C193.571 125.762 192.656 125.808 191.763 125.903C181.553 127 173.844 132.025 168.195 141.27C162.651 150.343 161.874 161.893 166.166 171.416C170.504 181.033 179.959 188.057 190.258 189.312C198.792 190.356 207.884 187.485 214.577 181.642C220.376 176.577 223.69 169.062 224.704 158.667C225.178 153.801 223.024 138.178 211.897 130.867C207.002 127.652 200.436 125.762 194.505 125.762Z" fill="#0F0202"/>
<path d="M213.619 129.82C207.211 125.61 198.91 123.986 192.663 124.657C181.841 125.818 173.833 131.329 168.158 140.616C162.482 149.903 161.583 162.007 166.058 171.93C170.533 181.853 180.336 189.24 191.14 190.557C200.178 191.657 209.576 188.574 216.434 182.587C223.294 176.599 226.102 167.85 226.986 158.789C227.434 154.217 225.599 137.689 213.619 129.82ZM201.359 177.429C192.696 180.362 182.33 177.05 176.897 169.692C175.291 167.518 174.082 165.013 173.637 162.346C173.193 159.675 173.524 156.928 174.174 154.299C175.759 147.891 179.403 141.843 184.914 138.206C190.423 134.57 197.876 133.667 203.741 136.696C211.02 140.456 215.53 148.437 215.867 156.356C216.259 165.495 210.022 174.496 201.359 177.429Z" fill="#EC2227"/>
<g opacity="0.1294">
<path d="M229.096 155.358C228.732 154.274 228.368 153.189 227.991 152.107C227.288 150.083 226.456 148.103 225.811 146.066C225.684 146.072 225.557 146.076 225.437 146.11C223.207 147.102 224.416 148.712 224.48 150.738C224.711 152.729 225.155 154.686 225.424 156.672C225.674 158.667 225.737 160.688 225.587 162.694C225.577 162.73 225.562 162.778 225.537 162.858C225.236 163.973 224.739 165.019 224.439 166.136C223.097 170.761 222.56 172.179 219.959 175.845C219.793 176.051 219.547 176.365 219.378 176.612C219.182 176.956 218.426 178.001 218.197 178.33C218.131 178.412 218.081 178.477 218.052 178.519C217.938 178.661 217.826 178.806 217.709 178.946C217.378 179.432 215.726 181.069 215.73 181.14C213.477 182.877 213.694 182.834 211.225 184.636C209.399 185.855 207.442 186.886 205.459 187.823C203.012 188.861 199.976 190.228 196.234 190.45C193.308 190.508 190.369 190.453 187.459 190.126C182.945 189.254 181.896 188.49 178.027 186.339C176.858 185.676 175.743 184.254 174.292 184.509C174.27 184.514 174.254 184.529 174.232 184.536C175.275 185.667 176.327 186.791 177.395 187.899C178.76 189.314 180.158 190.694 181.563 192.066C186.053 193.812 190.892 194.803 195.711 194.602C198.431 194.485 201.185 194.373 203.829 193.662C208.509 192.43 212.862 190.086 216.616 187.043C219.348 184.542 222.359 182.26 224.617 179.293C227.848 173.966 229.368 167.747 229.409 163.112C229.592 161.393 229.452 158.393 229.096 155.358Z" fill="#0F0202"/>
</g>
<g opacity="0.1294">
<path d="M264.919 170.07C264.575 168.654 262.497 168.374 261.797 169.662C258.699 175.072 255.598 180.483 252.341 185.799C250.984 187.932 249.24 189.875 248.275 192.225C247.967 192.815 247.532 193.4 247.493 194.078C247.081 196.093 249.552 197.679 251.266 196.606C251.926 196.264 252.215 195.605 252.549 194.986C252.829 194.701 253.101 194.404 253.323 194.077C256.492 189.457 258.05 183.959 260.736 179.066C262.077 176.508 263.412 173.947 264.747 171.385C264.977 170.991 265.04 170.508 264.919 170.07Z" fill="#0F0202"/>
</g>
<g opacity="0.1294">
<path d="M214.499 217.811C213.264 217.434 212.093 218.131 210.896 218.358C202.931 220.568 197.565 220.672 188.429 220.39C184.302 220.489 184.297 226.55 188.429 226.665C195.371 226.861 202.43 226.952 209.204 225.208C210.799 224.837 212.398 224.478 213.974 224.034C214.934 223.788 215.878 223.32 216.374 222.421C217.426 220.71 216.431 218.32 214.499 217.811Z" fill="#0F0202"/>
</g>
<path d="M187.326 228.242C186.664 228.242 186.112 227.724 186.074 227.057C185.738 221.105 183.049 215.357 178.694 211.284C176.882 209.59 174.002 207.501 170.57 207.167C167.61 206.879 164.621 207.906 161.816 208.983C157.417 210.672 152.963 212.821 150.183 217.07C149.992 217.362 149.689 217.561 149.345 217.62C149.001 217.68 148.648 217.592 148.372 217.38C139.781 210.82 133.061 204.324 127.827 197.525C127.416 196.99 127.501 196.224 128.022 195.795C133.211 191.496 136.881 185.229 138.088 178.602C138.562 175.996 138.528 173.984 137.979 172.264C137.013 169.24 134.328 166.701 129.772 164.502C125.67 162.522 121.179 161.142 116.425 160.403C116.094 160.352 115.798 160.169 115.602 159.897C115.406 159.625 115.327 159.286 115.383 158.955C117.079 148.841 119.952 138.635 123.922 128.619C124.171 127.992 124.874 127.676 125.51 127.9C130.874 129.817 144.295 129.991 149.752 123.489C158.807 112.701 154.518 100.346 152.988 96.8162C152.72 96.1986 152.988 95.4772 153.598 95.1857C158.761 92.7087 167.384 90.1937 176.515 87.5322C179.33 86.712 182.212 85.8721 185.086 85.0058C185.524 84.8757 185.999 84.991 186.325 85.3105C186.652 85.63 186.779 86.1027 186.656 86.5424C186.127 88.4463 191.104 97.9625 198.896 101.953C216.744 111.097 228.074 99.6639 231.119 95.9417C231.345 95.6666 231.676 95.5003 232.031 95.4838C232.382 95.4657 232.733 95.6024 232.983 95.856C241.734 104.715 249.155 113.51 255.669 122.745C256.066 123.306 255.936 124.084 255.376 124.485C247.811 129.927 243.906 140.089 245.879 149.195C247.836 158.222 255.542 165.945 265.06 168.409C265.389 168.494 265.671 168.71 265.837 169.005C266.005 169.301 266.045 169.654 265.948 169.98C262.914 180.203 258.568 190.188 253.38 198.858C253.057 199.398 252.383 199.612 251.807 199.365C244.968 196.414 238.326 193.935 232.213 196.038C227.754 197.57 224.021 201.577 221.965 207.032C220.405 211.179 219.903 215.687 219.373 220.46C219.261 221.469 219.147 222.489 219.022 223.518C218.956 224.053 218.558 224.486 218.029 224.595C207.373 226.784 197.341 227.975 187.357 228.238C187.351 228.242 187.339 228.242 187.326 228.242ZM169.56 204.611C169.977 204.611 170.395 204.629 170.813 204.67C174.084 204.988 177.401 206.641 180.407 209.453C184.931 213.681 187.833 219.546 188.48 225.697C197.648 225.386 206.882 224.279 216.639 222.319C216.723 221.601 216.802 220.891 216.879 220.185C217.428 215.25 217.945 210.589 219.618 206.149C221.937 199.991 226.231 195.442 231.397 193.665C238.013 191.39 245.069 193.779 251.784 196.626C256.417 188.703 260.333 179.71 263.174 170.48C253.345 167.452 245.491 159.255 243.427 149.725C241.337 140.079 245.22 129.362 252.915 123.202C246.889 114.775 240.077 106.698 232.143 98.5818C228.255 102.803 215.945 113.508 197.75 104.186C190.719 100.585 185.104 92.4567 184.243 87.8765C181.883 88.5797 179.526 89.2665 177.214 89.9401C168.802 92.3925 160.826 94.718 155.75 96.9546C157.633 101.886 160.833 114.184 151.671 125.1C145.766 132.136 132.454 132.424 125.828 130.624C122.3 139.718 119.693 148.961 118.069 158.135C122.603 158.952 126.902 160.33 130.864 162.244C136.074 164.757 139.183 167.786 140.369 171.503C141.049 173.628 141.109 176.028 140.557 179.051C139.32 185.852 135.695 192.301 130.547 196.929C135.323 202.944 141.334 208.741 148.867 214.595C152.025 210.481 156.504 208.336 160.917 206.641C163.516 205.645 166.493 204.611 169.56 204.611Z" fill="#0F0202"/>
<path d="M193.694 179.758C186.46 179.758 179.219 176.347 174.856 170.438C173.019 167.952 171.814 165.225 171.369 162.552C170.947 160.017 171.129 157.221 171.926 153.999C173.691 146.858 177.797 140.72 183.191 137.161C189.366 133.086 197.251 132.467 203.282 135.583C210.687 139.407 215.714 147.54 216.088 156.303C216.499 165.918 209.895 175.512 200.728 178.617C198.454 179.387 196.074 179.758 193.694 179.758ZM194.881 136.115C191.358 136.115 187.72 137.179 184.573 139.255C179.699 142.472 175.977 148.065 174.36 154.602C173.647 157.484 173.479 159.951 173.843 162.142C174.223 164.425 175.271 166.778 176.875 168.947C181.957 175.835 191.869 178.969 199.924 176.242C208.077 173.481 213.947 164.955 213.581 156.412C213.245 148.531 208.75 141.23 202.131 137.813C199.931 136.675 197.436 136.115 194.881 136.115Z" fill="#0F0202"/>
<path d="M193.733 192.029C192.466 192.029 191.205 191.955 189.953 191.802C178.803 190.442 168.569 182.846 163.878 172.447C159.248 162.18 160.082 149.733 166.052 139.962C172.05 130.148 180.611 124.578 191.494 123.41C198.601 122.651 207.151 124.75 213.272 128.771C226.305 137.332 227.581 154.996 227.201 158.909C226.12 169.973 222.532 178.027 216.225 183.531C209.985 188.981 201.8 192.029 193.733 192.029ZM194.505 125.762C193.571 125.762 192.656 125.808 191.763 125.903C181.553 127 173.844 132.025 168.195 141.27C162.651 150.343 161.874 161.893 166.166 171.416C170.504 181.033 179.959 188.057 190.258 189.312C198.792 190.356 207.884 187.485 214.577 181.642C220.376 176.577 223.69 169.062 224.704 158.667C225.178 153.801 223.024 138.178 211.897 130.867C207.002 127.652 200.436 125.762 194.505 125.762Z" fill="#0F0202"/>
<path d="M256.139 72.441C256.096 72.441 256.052 72.4393 256.007 72.4344C255.319 72.3635 254.818 71.7459 254.889 71.0575C256.037 59.9849 254.174 48.792 249.503 38.6895C249.212 38.0603 249.485 37.3159 250.114 37.0244C250.744 36.7312 251.488 37.0063 251.78 37.6354C256.64 48.1481 258.578 59.7955 257.384 71.3144C257.318 71.9617 256.773 72.441 256.139 72.441Z" fill="#0F0202"/>
<path d="M81.4177 234.561C81.337 234.561 81.2546 234.553 81.1739 234.536C68.4593 232.026 56.4841 225.526 47.4521 216.23C46.9695 215.734 46.9811 214.94 47.4784 214.456C47.9758 213.975 48.7697 213.985 49.2522 214.483C57.9335 223.414 69.4425 229.663 81.6614 232.076C82.3416 232.209 82.783 232.868 82.6496 233.548C82.5294 234.147 82.004 234.561 81.4177 234.561Z" fill="#0F0202"/>
</svg>
