<svg width="326" height="179" viewBox="0 0 326 179" fill="none" xmlns="http://www.w3.org/2000/svg">
<path d="M66.8866 41.2587C55.0655 74.2932 43.2226 107.397 35.2246 142.074C41.3129 144.13 47.6817 145.353 54.0978 145.698C56.5268 137.197 58.9558 128.697 61.3848 120.194C61.3848 120.194 61.0294 119.927 60.5692 119.84C65.4213 120.78 69.8192 123.416 73.52 126.691C77.2208 129.967 80.2936 133.881 83.706 138.397C83.3486 143.208 86.8736 147.809 91.4058 149.454C95.938 151.099 101.153 150.098 105.376 147.256C104.957 149.365 104.953 151.559 105.368 153.67C105.547 154.591 105.81 155.503 106.239 156.336C107.141 158.082 108.743 159.385 110.488 160.288C113.449 161.816 116.934 162.304 120.491 161.694C120.125 165.707 123.151 169.518 126.932 170.914C130.714 172.311 135.004 171.645 138.941 170.17C139.548 171.556 140.201 172.976 141.321 173.993C142.583 175.137 144.305 175.638 145.995 175.836C150.044 176.306 154.26 175.158 158.046 172.889C162.199 175.154 167.467 175.241 171.689 173.11C172.801 172.552 173.846 171.841 174.693 170.93C176.403 169.09 177.181 166.54 177.329 164.034C177.476 161.526 177.047 159.028 176.887 156.463C178.976 158.894 181.172 161.303 183.904 162.986C186.633 164.668 189.998 165.559 193.094 164.721C195.666 164.024 197.838 162.182 199.26 159.927C200.68 157.671 201.396 155.031 201.604 152.016C202.641 153.718 203.778 155.357 205.01 156.925C206.166 158.394 207.424 159.818 208.972 160.865C210.522 161.911 212.402 162.563 214.26 162.354C217.138 162.03 219.466 159.69 220.613 157.032C221.761 154.373 221.942 151.415 222.108 148.524C222.203 146.851 222.3 145.181 222.231 143.465C223.745 146.32 225.27 149.196 227.284 151.725C229.298 154.251 231.852 156.441 234.899 157.525C235.651 157.794 236.427 157.989 237.204 158.185C238.456 158.501 239.891 158.779 240.952 158.041C241.801 157.448 242.148 156.36 242.265 155.333C242.383 154.304 242.328 153.246 242.917 152.211C254.497 147.857 265.891 143.01 276.927 137.799C278.031 141.859 279.265 145.882 280.904 149.768C289.163 147.847 297.18 144.898 304.596 141.069C311.138 138.567 317.572 135.791 323.416 132.11C322.468 99.393 316.909 66.2419 301.944 37.1353C301.002 35.3027 300.016 33.478 298.513 31.9258C282.097 37.6428 266.117 44.604 250.749 52.7283C251.179 53.5617 251.61 54.3931 251.586 55.3193C235.671 56.443 220.096 51.0794 205.056 45.7534C200.285 44.0649 195.442 42.3567 190.393 42.0131C185.906 41.709 181.423 42.493 176.419 42.9274C171.093 39.6888 165.135 37.6349 159.132 35.9682C155.506 34.9591 151.795 34.0744 148.029 34.1198C144.577 34.1612 141.185 34.9848 137.871 35.9524C120.048 41.1639 103.379 50.7812 84.8692 52.5052C85.0153 51.2611 85.1634 50.017 85.3096 48.7728C85.3886 48.1034 85.4439 47.347 85.0805 46.8138C79.083 44.3789 72.9927 41.9262 66.8866 41.2587Z" fill="white"/>
<path d="M314.842 131.357C314.785 131.357 314.724 131.347 314.666 131.324L298.348 125.182C298.09 125.085 297.957 124.797 298.056 124.538C298.153 124.275 298.445 124.145 298.702 124.246L315.018 130.387C315.276 130.484 315.409 130.773 315.31 131.033C315.237 131.233 315.045 131.357 314.842 131.357Z" fill="#0F0202"/>
<path d="M320.361 125.239C320.307 125.239 320.252 125.229 320.199 125.212C311.223 122.155 302.327 118.543 293.756 114.475C293.507 114.356 293.401 114.058 293.519 113.807C293.64 113.556 293.938 113.452 294.187 113.568C302.722 117.621 311.583 121.217 320.521 124.26C320.783 124.351 320.923 124.633 320.835 124.896C320.763 125.109 320.568 125.239 320.361 125.239Z" fill="#0F0202"/>
<path d="M321.745 115.616C321.693 115.616 321.64 115.608 321.589 115.592C311.608 112.328 301.643 108.606 291.973 104.526C291.718 104.417 291.597 104.123 291.706 103.868C291.815 103.611 292.111 103.497 292.364 103.599C302.009 107.672 311.948 111.384 321.901 114.639C322.165 114.726 322.31 115.01 322.223 115.271C322.154 115.484 321.956 115.616 321.745 115.616Z" fill="#0F0202"/>
<path d="M321.75 106.38C321.691 106.38 321.632 106.37 321.574 106.348C309.943 101.982 300.945 98.228 288.546 92.9967C288.291 92.8881 288.17 92.5959 288.277 92.3411C288.386 92.0824 288.682 91.9678 288.935 92.0725C301.323 97.2978 310.312 101.05 321.928 105.408C322.186 105.505 322.319 105.793 322.22 106.054C322.145 106.258 321.953 106.38 321.75 106.38Z" fill="#0F0202"/>
<path d="M318.861 95.9489C318.798 95.9489 318.735 95.937 318.672 95.9093L285.359 82.3228C285.102 82.2161 284.98 81.9258 285.084 81.669C285.189 81.4103 285.483 81.2879 285.738 81.3926L319.051 94.9812C319.308 95.0859 319.43 95.3782 319.327 95.6349C319.244 95.8324 319.059 95.9489 318.861 95.9489Z" fill="#0F0202"/>
<path d="M317.781 85.9742C317.712 85.9742 317.645 85.9604 317.578 85.9328L281.396 69.9052C281.143 69.7926 281.028 69.4964 281.141 69.2437C281.254 68.9889 281.552 68.8764 281.803 68.9889L317.983 85.0144C318.236 85.127 318.352 85.4233 318.238 85.676C318.157 85.8636 317.973 85.9742 317.781 85.9742Z" fill="#0F0202"/>
<path d="M314.255 73.4361C314.186 73.4361 314.117 73.4223 314.05 73.3927L277.543 56.9801C277.293 56.8655 277.178 56.5713 277.293 56.3185C277.407 56.0658 277.703 55.9512 277.956 56.0657L314.462 72.4783C314.713 72.5929 314.828 72.8871 314.713 73.1399C314.628 73.3255 314.447 73.4361 314.255 73.4361Z" fill="#0F0202"/>
<path d="M306.05 57.024C305.99 57.024 305.929 57.0141 305.87 56.9904C296.804 53.499 287.554 50.1398 278.377 47.0018C278.114 46.913 277.974 46.6286 278.065 46.366C278.154 46.1053 278.438 45.965 278.701 46.0559C287.889 49.1958 297.151 52.559 306.229 56.0544C306.488 56.1531 306.616 56.4434 306.518 56.7021C306.443 56.9035 306.251 57.024 306.05 57.024Z" fill="#0F0202"/>
<path d="M305.326 45.4869C305.26 45.4869 305.195 45.473 305.132 45.4454L292.102 40.0068C291.848 39.9002 291.727 39.6079 291.834 39.3512C291.94 39.0944 292.235 38.9779 292.489 39.0806L305.519 44.5212C305.774 44.6298 305.894 44.9201 305.788 45.1769C305.707 45.3704 305.521 45.4869 305.326 45.4869Z" fill="#0F0202"/>
<path d="M29.0845 29.0863C41.9661 33.4111 54.984 37.335 67.3996 41.0496C65.3636 49.638 60.1363 57.0712 56.6231 65.1679C54.7609 69.4631 53.3805 73.9459 52.0159 78.4248C45.6215 99.417 39.5035 120.494 33.6364 141.613C22.1529 137.679 13.2387 135.66 0.927734 133.476C12.273 98.2083 22.4965 64.3286 29.0845 29.0863Z" fill="#EC2227"/>
<g opacity="0.1294">
<path d="M272.296 133.443C270.282 134.039 268.325 134.76 266.398 135.562C265.957 135.552 265.519 135.587 265.088 135.672C264.115 135.842 263.202 136.235 262.282 136.606C261.259 136.952 260.299 137.282 259.314 137.704C258.925 137.85 257.74 138.307 257.284 138.413C257.142 138.455 257.031 138.496 256.932 138.534C256.64 138.631 256.348 138.725 256.05 138.798C255.874 138.802 255.696 138.804 255.52 138.794C255.323 138.755 255.129 138.71 254.938 138.65C254.934 138.648 254.932 138.646 254.928 138.644C254.507 138.253 254.124 137.823 253.757 137.38C253.273 136.762 253.816 137.461 253.998 137.696C253.678 137.264 253.338 136.849 252.973 136.454C252.864 136.326 252.777 136.223 252.702 136.13C252.365 135.668 252.065 135.181 251.756 134.699C250.473 132.761 249.325 130.731 248.257 128.668C246 124.293 243.926 119.825 241.521 115.529C240.127 112.605 238.936 109.567 237.188 106.828C232.174 99.174 227.304 93.1745 219.802 86.4779C215.073 81.6851 209.612 77.5736 203.773 74.254C199.807 72.0619 195.652 69.8916 191.055 69.5598C187.834 68.8291 187.052 73.5983 190.374 73.8254C193.391 73.9834 196.624 75.3519 200.092 77.3465C199.768 78.1285 199.843 79.0724 200.627 79.892C203.834 82.6824 207.533 84.8211 210.874 87.4377C210.716 87.3331 212.576 88.903 212.952 89.298C213.343 89.6752 213.72 90.0662 214.091 90.4612C213.791 90.7495 213.591 91.1404 213.605 91.5947C213.826 92.979 215.381 94.6122 216.088 95.9136C219.763 101.51 224.084 106.71 227.206 112.654C231.337 120.786 234.329 128.907 235.717 139.813C236.434 143.242 236.835 149.504 235.715 151.295C235.618 151.406 235.518 151.508 235.407 151.605C235.32 151.656 235.245 151.704 235.188 151.737C235.044 151.783 234.9 151.836 234.759 151.889C234.688 151.911 234.619 151.939 234.546 151.957C234.518 151.96 234.505 151.962 234.481 151.966C234.175 151.978 233.823 151.96 233.602 151.947C233.49 151.927 233.377 151.909 233.266 151.887C232.02 151.571 232.692 151.846 230.826 150.843C227.938 149.214 225.46 153.477 228.28 155.199C235.395 160.322 240.382 158.499 241.794 151.56C242.501 147.373 242.029 143.088 241.29 138.925C241.499 139.555 241.711 140.187 241.918 140.817C242.325 143.291 242.67 145.629 243 147.721C242.951 147.782 242.894 147.835 242.848 147.902C242.04 149.184 242.637 150.762 243.764 151.512C244.27 152.316 245.35 152.693 246.272 152.446C247.08 152.201 247.515 151.714 247.738 151.107C255.509 148.046 263.228 144.76 270.377 140.418C272.065 139.379 272.065 139.272 273.463 138.69C274.186 138.39 275.065 137.971 275.496 137.313C275.845 137.068 276.165 136.78 276.426 136.399C277.733 133.658 274.463 132.26 272.296 133.443Z" fill="#0F0202"/>
</g>
<g opacity="0.1294">
<path d="M322.035 125.405C321.62 125.405 321.235 125.514 320.863 125.674C319.057 126.209 317.431 127.36 315.658 128.014C312.51 129.539 311.286 129.823 307.064 131.849C299.806 135.712 287.742 139.496 281.255 142.209C276.989 143.498 278.711 149.814 283.058 148.751C289.857 146.554 296.281 143.372 302.845 140.57C306.305 138.968 312.887 136.604 318.346 133.915C320.891 132.576 324.073 131.002 324.388 130.22C325.982 128.401 324.418 125.336 322.035 125.405Z" fill="#0F0202"/>
</g>
<g opacity="0.1294">
<path d="M81.4774 55.4417C78.7226 65.4263 73.8488 72.7962 70.2783 83.788C68.114 90.2001 66.4729 96.7683 65.2248 103.418C64.4428 106.36 63.8405 109.342 63.2322 112.324C62.778 114.96 61.998 117.668 62.4798 120.346C63.1532 122.954 66.0444 124.212 68.3845 123.367C69.8696 124.925 71.4435 126.404 73.0292 127.872C73.0292 127.804 73.0292 127.737 73.0273 127.668C72.9127 124.73 72.9463 121.785 73.124 118.849C72.502 116.783 72.2808 115.434 72.1426 113.748C72.7468 110.497 73.5249 107.282 73.912 103.996C75.4681 93.4132 78.4678 83.1165 81.8941 73.0036C82.9269 69.9861 83.7228 66.8817 85.042 63.9709C85.9701 61.3444 87.5026 58.6665 87.5045 55.8524C87.2083 52.5802 82.2832 52.2524 81.4774 55.4417Z" fill="#0F0202"/>
</g>
<g opacity="0.1294">
<path d="M84.6059 136.363C84.44 137.001 83.8219 137.505 83.1465 137.457C83.6757 137.748 84.2603 137.886 84.8902 137.706C85.8599 137.459 86.5036 136.482 86.4444 135.51C85.8362 135.803 85.224 136.087 84.6059 136.363Z" fill="#0F0202"/>
</g>
<g opacity="0.1294">
<path d="M62.4803 120.346C62.427 119.949 62.3737 119.554 62.3204 119.157C62.3184 119.581 62.3835 119.972 62.4803 120.346Z" fill="#0F0202"/>
</g>
<g opacity="0.1294">
<path d="M102.89 144.466C101.721 145.256 100.143 145.013 97.0938 144.964C95.0835 144.77 92.4886 144.922 90.2353 144.202C88.7542 143.86 87.36 142.719 85.8078 142.912C82.9029 143.171 82.6304 147.537 85.4425 148.244C87.4825 149.04 89.5442 149.735 91.6849 150.201C93.4878 150.622 95.3422 151.03 97.1768 150.582C99.4517 150.108 101.628 149.145 103.658 148.031C104.48 147.5 105.603 147.069 105.917 146.066C106.362 144.231 104.203 143.303 102.89 144.466Z" fill="#0F0202"/>
</g>
<g opacity="0.1294">
<path d="M133.72 148.423C132.705 148.763 132.5 149.312 130.918 150.151C127.748 151.871 126.386 152.203 122.158 153.021C118.135 154.054 118.483 153.832 114.035 154.133C112.645 154.182 111.253 154.117 109.872 153.953C108.966 153.801 108.058 153.44 107.149 153.627C103.498 153.987 103.16 159.376 106.693 160.306C115.678 162.915 123.082 160.302 129.453 156.443C131.374 155.296 133.29 154.081 134.921 152.535C135.813 151.536 136.039 151.712 136.238 150.341C136.266 149.061 134.945 148.072 133.72 148.423Z" fill="#0F0202"/>
</g>
<g opacity="0.1294">
<path d="M171.463 166.937C169.579 167.204 170.043 167.437 169.047 167.743C168.257 167.95 168.151 168.32 165.315 168.995C163.376 169.335 163.439 169.323 162.931 169.374C163.301 168.896 163.467 168.235 163.34 167.648C163.257 166.418 162.082 165.486 160.882 165.476C159.402 165.565 158.283 166.787 156.938 167.318C154.126 168.558 154.803 168.351 150.907 169.67C147.376 170.668 145.547 170.569 144.198 170.652C142.911 170.61 141.651 169.777 140.474 169.633C142.84 168.716 145.089 167.453 147.242 166.127C149.704 164.633 151.886 162.772 153.909 160.73C154.357 160.341 154.633 159.765 154.627 159.166C154.639 158.436 154.221 157.78 153.612 157.397C152.838 156.933 151.762 157.071 151.13 157.717C151.264 157.614 151.61 157.348 151.404 157.484C150.397 158.108 149.388 158.732 148.365 159.332C142.49 163.108 134.749 165.314 129.711 166.094C128.518 166.228 127.318 166.372 126.117 166.248C126.016 166.238 125.959 166.232 125.918 166.23C125.874 166.222 125.831 166.216 125.787 166.21C124.883 166.126 123.984 165.673 123.076 165.79C120.908 165.981 120.698 169.248 122.803 169.779C124.701 170.444 126.627 171.084 128.641 171.274C130.762 171.503 132.901 171.201 135.008 170.962C136.149 170.867 137.263 170.654 138.351 170.352C137.33 171.465 137.366 173.543 138.888 174.355C144.36 177.119 150.257 176.545 155.714 174.074C156.711 173.683 157.669 173.201 158.593 172.66C158.624 174.313 159.912 175.96 161.766 175.899C165.175 175.462 168.852 175.271 171.739 173.207C172.592 172.55 173.716 171.991 174.093 170.922C174.978 169.127 173.431 166.894 171.463 166.937Z" fill="#0F0202"/>
</g>
<g opacity="0.1294">
<path d="M199.047 154.228C196.946 155.294 197.454 155.501 196.099 156.345C194.075 157.751 194.349 157.585 191.426 158.337C189.029 158.748 190.477 158.663 188.409 158.701C188.168 158.693 187.927 158.673 187.688 158.653C187.431 158.608 187.094 158.541 186.847 158.475C185.107 158.195 183.261 156.9 181.558 157.932C179.307 159.151 179.781 162.806 182.275 163.409C184.562 164.084 186.924 164.751 189.331 164.595C192.208 164.396 195.015 163.335 197.418 161.76C198.575 160.942 199.669 160.038 200.728 159.098C201.492 158.477 202.26 157.701 202.217 156.641C202.252 155.028 200.588 153.785 199.047 154.228Z" fill="#0F0202"/>
</g>
<g opacity="0.1294">
<path d="M222.761 145.927C222.775 144.667 221.924 143.435 220.67 143.117C220.599 143.101 220.537 143.099 220.47 143.088C220.46 140.722 220.522 138.328 219.931 136.028C219.056 132.428 217.091 129.262 215.472 125.97C213.975 122.492 212.04 119.157 209.542 116.315C208.479 115.383 206.686 116.295 206.728 117.69C206.82 118.886 207.916 119.732 208.463 120.751C211.538 125.239 212.577 128.591 214.042 133.958C215.835 139.6 216.155 142.333 215.626 148.157C215.618 148.222 215.612 148.279 215.606 148.333C215.559 148.599 215.509 148.864 215.45 149.125C215.43 149.257 215.371 149.46 215.296 149.689C215.002 150.171 214.686 150.641 214.36 151.103C213.949 151.593 213.118 152.574 212.64 153.011C212.533 153.076 212.431 153.137 212.33 153.195C211.402 153.28 210.709 153.246 208.234 152.44C207.533 152.176 207.389 152.099 208.169 152.434C206.919 152.002 205.788 151.135 204.49 150.908C201.563 150.375 200.136 154.601 202.719 156.038C203.629 156.502 204.632 156.959 205.515 157.342C205.695 158.297 206.228 159.186 207.158 159.698C207.373 159.82 207.6 159.907 207.824 160.006C207.903 161.173 208.602 162.291 210.093 162.735C211.343 163.082 212.644 163.41 213.94 163.128C214.386 163.051 215.272 162.666 215.405 162.597C216.698 162.036 218.047 161.264 218.608 159.948C218.926 159.285 218.938 158.611 218.75 158.009C219.246 157.506 219.522 156.846 219.589 156.153C220.867 154.46 221.795 152.486 222.277 150.454C222.56 149.032 222.727 147.584 222.757 146.133C222.761 146.081 222.761 146.03 222.763 145.981C222.763 145.947 222.765 145.917 222.765 145.884L222.761 145.927Z" fill="#0F0202"/>
</g>
<path d="M53.1558 147.351C53.0669 147.351 52.9761 147.343 52.8852 147.325C43.6037 145.639 34.0081 143.895 24.5409 141.312C20.8737 140.092 17.3388 139.288 13.5965 138.435C9.52252 137.505 5.30829 136.547 1.00717 135.036C0.223174 134.76 -0.189558 133.903 0.0849392 133.119C0.361412 132.335 1.21848 131.926 2.00247 132.196C6.14166 133.65 10.271 134.59 14.2621 135.5C17.9115 136.332 21.6834 137.189 25.4118 138.433C34.2076 140.83 43.2462 142.513 52.0282 144.11C55.8198 128.764 60.978 113.779 65.9703 99.2745C68.9384 90.6525 72.0053 81.7363 74.8036 72.7213C74.8154 72.6818 74.8292 72.6443 74.845 72.6068C75.7791 70.2686 76.7863 67.9759 77.7598 65.7562C80.3982 59.7469 82.8924 54.0653 84.1227 47.4794C84.0792 47.4182 83.9726 47.3214 83.9074 47.3036C83.7238 47.3036 83.5737 47.272 83.4019 47.2069C75.1867 44.0788 66.5943 41.7998 58.2843 39.596C48.4597 36.9892 38.3033 34.2956 28.4332 30.1426C27.667 29.8207 27.3076 28.938 27.6315 28.1717C27.9534 27.4055 28.8361 27.0461 29.6003 27.37C39.2769 31.444 49.3306 34.11 59.0565 36.6891C67.3704 38.893 75.9667 41.1738 84.2649 44.3177C85.8131 44.4994 87.152 45.939 87.152 47.511C87.152 47.6018 87.1441 47.6927 87.1264 47.7815C85.8486 54.8158 83.1372 60.991 80.5147 66.9648C79.5589 69.1449 78.5695 71.3962 77.6591 73.6692C74.853 82.7079 71.7821 91.6281 68.814 100.254C63.4603 115.812 58.4028 130.508 54.6152 146.198C54.4493 146.883 53.8371 147.351 53.1558 147.351Z" fill="#0F0202"/>
<path d="M34.1148 142.555C33.9923 142.555 33.8699 142.539 33.7475 142.509C32.9418 142.308 32.452 141.49 32.6554 140.684C41.2991 106.208 53.4679 69.5639 66.0434 40.1512C66.3712 39.385 67.2559 39.0315 68.0182 39.3613C68.7825 39.6871 69.1359 40.5698 68.8101 41.3341C56.2938 70.6086 44.1784 107.087 35.5722 141.419C35.4004 142.098 34.7862 142.555 34.1148 142.555Z" fill="#0F0202"/>
<path d="M280.716 151.731C280.479 151.731 280.244 151.676 280.029 151.566C279.66 151.376 279.387 151.044 279.271 150.647C273.299 130.094 266.978 109.554 260.287 87.811C256.819 76.5408 253.233 64.8894 249.659 53.0959C249.451 52.4126 249.753 51.6761 250.381 51.3364C265.617 43.0837 281.645 36.0277 298.018 30.364C298.802 30.0934 299.661 30.5101 299.931 31.2961C300.204 32.0801 299.787 32.9371 299.001 33.2096C283.167 38.6838 267.663 45.4751 252.893 53.4C256.349 64.7867 259.811 76.0353 263.162 86.9283C269.691 108.144 275.866 128.213 281.714 148.277C295.701 143.277 309.6 137.564 323.05 131.288C323.803 130.935 324.697 131.261 325.049 132.015C325.4 132.767 325.074 133.662 324.322 134.013C310.305 140.556 295.804 146.484 281.216 151.646C281.054 151.704 280.884 151.731 280.716 151.731Z" fill="#0F0202"/>
<path d="M298.817 143.864C298.151 143.864 297.541 143.417 297.365 142.746C288.585 109.721 278.577 76.5603 267.613 44.1834C267.346 43.3975 267.769 42.5424 268.555 42.2758C269.347 42.0111 270.196 42.4318 270.463 43.2197C281.447 75.6598 291.477 108.886 300.272 141.974C300.486 142.777 300.008 143.601 299.206 143.814C299.074 143.848 298.943 143.864 298.817 143.864Z" fill="#0F0202"/>
<path d="M132.319 99.0831C128.862 99.0831 124.807 97.5783 122.998 94.0631C119.76 87.7773 125.844 80.7273 127.844 78.4108C136.099 68.8409 144.632 58.9492 155.257 51.4805C167.232 43.0638 180.323 39.2564 192.103 40.7474C198.13 41.5117 203.865 43.6346 209.412 45.6864C211.201 46.3499 213.053 47.0352 214.874 47.6572C226.442 51.6187 238.507 53.7179 250.734 53.8956C251.566 53.9094 252.227 54.5908 252.216 55.4202C252.204 56.2437 251.532 56.9033 250.711 56.9033C250.705 56.9033 250.697 56.9033 250.689 56.9033C238.143 56.7196 225.765 54.5651 213.898 50.5029C212.042 49.8671 210.174 49.1758 208.367 48.5064C202.98 46.5118 197.411 44.4522 191.725 43.7294C180.68 42.3253 168.348 45.953 156.989 53.9391C146.668 61.1925 138.258 70.9421 130.123 80.3718C125.577 85.6406 124.122 89.6672 125.676 92.6808C126.989 95.2322 130.23 96.2216 132.839 96.0577C135.837 95.876 138.655 94.5647 141.767 93.0007C143.84 91.958 145.91 90.9271 147.976 89.9022C160.626 83.6065 172.576 77.6624 183.917 69.6684C184.596 69.1905 185.534 69.3524 186.012 70.0318C186.492 70.7131 186.33 71.6491 185.649 72.129C174.118 80.2553 162.07 86.2489 149.315 92.5959C147.255 93.6228 145.189 94.6496 143.12 95.6884C139.832 97.3433 136.585 98.8461 133.022 99.0594C132.787 99.0752 132.554 99.0831 132.319 99.0831Z" fill="#0F0202"/>
<path d="M243.561 153.9C242.97 153.9 242.409 153.548 242.168 152.968C241.852 152.199 242.218 151.321 242.986 151.005C253.8 146.546 264.719 141.911 275.442 137.225C276.204 136.893 277.089 137.24 277.423 138.001C277.754 138.763 277.407 139.65 276.644 139.981C265.904 144.676 254.963 149.32 244.129 153.785C243.946 153.862 243.75 153.9 243.561 153.9Z" fill="#0F0202"/>
<path d="M239.364 159.938C239.048 159.938 238.752 159.913 238.496 159.887C233.501 159.352 228.588 156.04 225.015 150.795C222.729 147.438 221.143 143.692 219.61 140.07C219.127 138.927 218.643 137.785 218.137 136.656C214.053 127.516 208.534 119.161 201.729 111.818C201.164 111.208 201.201 110.256 201.81 109.692C202.42 109.129 203.37 109.162 203.936 109.775C210.965 117.358 216.664 125.99 220.884 135.427C221.398 136.577 221.889 137.738 222.381 138.899C223.925 142.546 225.385 145.992 227.502 149.103C230.577 153.615 234.702 156.457 238.815 156.895C239.052 156.923 239.763 157 240.093 156.789C240.472 156.55 240.646 155.76 240.605 154.443C240.062 137.003 234.321 119.477 224.445 105.094C214.567 90.7117 200.271 79.0604 184.192 72.2908C183.426 71.9669 183.067 71.0862 183.391 70.32C183.712 69.5537 184.595 69.1963 185.361 69.5182C201.966 76.511 216.727 88.5414 226.925 103.392C237.125 118.244 243.051 136.344 243.612 154.35C243.644 155.363 243.729 158.054 241.703 159.334C240.94 159.812 240.095 159.938 239.364 159.938Z" fill="#0F0202"/>
<path d="M164.239 176.422C162.156 176.422 159.448 176.091 156.514 173.938C155.844 173.446 155.698 172.504 156.19 171.837C156.681 171.166 157.623 171.023 158.291 171.513C161.091 173.567 163.447 173.464 165.523 173.379L165.742 173.369C168.858 173.245 172.217 171.651 174.099 169.41C174.913 168.44 175.829 166.892 175.578 165.022C175.57 164.955 175.564 164.888 175.564 164.816C175.574 161.603 175.124 158.343 174.733 155.861C174.628 155.203 174.97 154.555 175.568 154.267C176.167 153.979 176.886 154.123 177.334 154.615C179.611 157.131 181.967 159.733 184.844 161.453C187.84 163.245 191.163 163.75 193.739 162.81C197.281 161.517 200.913 155.361 200.109 152.014C199.914 151.206 200.411 150.395 201.221 150.199C202.035 150.013 202.84 150.501 203.036 151.311C204.298 156.566 199.373 163.955 194.773 165.638C191.306 166.902 187.125 166.321 183.302 164.036C181.439 162.923 179.822 161.54 178.325 160.061C178.475 161.558 178.576 163.142 178.576 164.726C178.854 167.03 178.106 169.315 176.406 171.341C173.977 174.238 169.839 176.215 165.868 176.375L165.655 176.383C165.22 176.403 164.748 176.422 164.239 176.422Z" fill="#0F0202"/>
<path d="M213.722 164.108C212.48 164.108 211.285 163.77 210.157 163.332C204.476 161.13 201.456 154.933 198.537 148.939C196.515 144.788 194.424 140.497 191.568 137.955C190.948 137.404 190.893 136.453 191.444 135.832C191.995 135.214 192.947 135.155 193.567 135.708C196.865 138.643 199.088 143.208 201.239 147.62C204.027 153.343 206.662 158.75 211.243 160.525C213.212 161.292 215.661 162.236 218.923 156.734C219.812 155.233 220.051 153.333 220.179 151.504C220.505 146.814 219.247 141.978 218.031 137.3C217.845 136.585 217.659 135.87 217.48 135.159C217.276 134.355 217.764 133.538 218.57 133.332C219.376 133.127 220.193 133.619 220.397 134.422C220.574 135.127 220.76 135.834 220.944 136.543C222.221 141.453 223.542 146.534 223.181 151.714C223.029 153.912 222.723 156.228 221.514 158.268C218.84 162.781 216.186 164.108 213.722 164.108Z" fill="#0F0202"/>
<path d="M115.93 163.203C115.8 163.203 115.667 163.203 115.533 163.199C109.903 163.065 105.023 159.711 103.669 155.049C103.157 153.285 103.165 151.494 103.404 149.78C100.333 151.678 96.5138 152.476 92.8663 151.82C87.2796 150.817 82.5855 146.231 81.7028 140.915C81.3374 138.717 82.0306 137.497 82.6744 136.861C83.2649 136.276 84.2187 136.284 84.8012 136.875C85.3838 137.467 85.3779 138.419 84.7874 139.002C84.6472 139.14 84.5327 139.594 84.6689 140.422C85.3502 144.525 89.0214 148.076 93.3976 148.86C97.671 149.63 102.231 147.914 104.739 144.596C105.15 144.055 105.87 143.86 106.492 144.107C107.036 143.816 107.537 143.621 107.861 143.492C113.878 141.142 120.192 139.697 126.628 139.201C131.8 138.794 135.25 140.048 136.863 142.912C137.635 144.284 137.904 145.967 137.661 147.912C137.349 150.402 136.273 152.813 134.626 154.707C133.034 156.536 130.994 157.829 129.025 158.955C125.547 160.944 120.94 163.203 115.93 163.203ZM106.974 147.42C106.311 149.962 105.959 152.152 106.56 154.21C107.667 158.021 111.949 160.102 115.608 160.191C120.026 160.302 124.303 158.191 127.532 156.346C129.272 155.351 131.059 154.225 132.356 152.734C133.614 151.289 134.438 149.442 134.677 147.541C134.787 146.652 134.801 145.382 134.242 144.389C133.01 142.203 129.548 141.99 126.861 142.201C120.721 142.673 114.698 144.053 108.959 146.295C108.001 146.668 107.346 147.039 106.974 147.42Z" fill="#0F0202"/>
<path d="M130.685 173.371C128.339 173.371 126.131 172.818 124.264 171.718C120.611 169.568 118.415 165.284 118.794 161.062C118.869 160.235 119.6 159.636 120.427 159.702C121.255 159.775 121.865 160.507 121.79 161.335C121.516 164.374 123.161 167.577 125.789 169.123C128.337 170.626 131.802 170.772 135.296 169.528C138.582 168.359 141.445 166.234 144.334 163.975C148.45 160.756 152.307 157.15 152.66 152.606C152.68 152.334 152.698 151.946 152.599 151.717C152.506 151.504 152.224 151.253 151.764 150.977C149.587 149.675 146.649 149.352 143.491 150.063C140.699 150.694 138.418 151.873 135.778 153.238L135.329 153.469C134.589 153.848 133.684 153.56 133.303 152.821C132.922 152.083 133.212 151.176 133.951 150.797L134.397 150.566C137.105 149.168 139.66 147.845 142.83 147.13C146.744 146.243 150.468 146.693 153.312 148.398C153.968 148.791 154.89 149.436 155.362 150.525C155.721 151.358 155.711 152.201 155.66 152.841C155.218 158.544 150.845 162.701 146.191 166.345C143.223 168.667 140.014 171.045 136.307 172.364C134.411 173.037 132.505 173.371 130.685 173.371Z" fill="#0F0202"/>
<path d="M148.234 177.647C146.085 177.647 143.939 177.153 142.013 176.197C139.778 175.087 137.454 172.866 137.637 169.961C137.689 169.131 138.409 168.507 139.233 168.555C140.062 168.606 140.692 169.321 140.639 170.15C140.548 171.588 142.043 172.854 143.352 173.503C145.402 174.522 147.774 174.872 150.033 174.491C153.619 173.883 156.718 171.537 159.275 169.323C162.162 166.821 163.397 164.753 163.162 162.81C162.885 160.543 160.413 159.012 158.28 158.896C156.145 158.779 153.941 159.66 151.364 161.672C150.708 162.186 149.764 162.067 149.253 161.414C148.741 160.758 148.858 159.812 149.512 159.303C151.516 157.737 154.626 155.675 158.446 155.89C161.862 156.08 165.677 158.584 166.147 162.447C166.629 166.424 163.58 169.572 161.244 171.596C158.538 173.938 154.877 176.72 150.535 177.455C149.774 177.583 149.002 177.647 148.234 177.647Z" fill="#0F0202"/>
<path d="M106.105 146.03C105.388 146.03 104.75 145.515 104.624 144.782C104.091 141.706 100.712 139.855 98.7428 139.028C92.9922 136.605 87.996 136.684 83.8943 139.263C83.2209 139.687 82.3362 139.514 81.8721 138.87C76.1254 130.892 68.9549 124.993 60.558 121.333C59.7958 121.002 59.4482 120.117 59.78 119.355C60.1117 118.594 60.9945 118.243 61.7587 118.575C70.2701 122.283 77.5828 128.148 83.5112 136.02C88.2329 133.579 93.7426 133.654 99.9119 136.253C104.286 138.096 107.011 140.943 107.588 144.269C107.73 145.086 107.181 145.866 106.362 146.007C106.277 146.022 106.19 146.03 106.105 146.03Z" fill="#0F0202"/>
<path d="M84.3775 54.4309C83.6922 54.4309 83.0741 53.9609 82.9141 53.2638C82.7265 52.4541 83.2321 51.6484 84.0397 51.4608C100.674 47.6158 115.972 42.3313 128.743 37.6688L129.887 37.2501C134.741 35.4708 139.761 33.6283 145.047 33.0477C157.244 31.7048 168.48 36.944 178.396 41.5651C179.148 41.9146 179.474 42.8112 179.125 43.5636C178.773 44.3179 177.878 44.6418 177.126 44.2903C167.568 39.8352 156.728 34.7796 145.379 36.0356C140.454 36.5767 135.61 38.354 130.924 40.0721L129.776 40.4928C116.92 45.1869 101.513 50.5089 84.7211 54.3914C84.6045 54.4171 84.49 54.4309 84.3775 54.4309Z" fill="#0F0202"/>
<path d="M114.185 28.3515C113.687 28.3515 113.197 28.1047 112.911 27.6525C112.467 26.9514 112.676 26.0232 113.377 25.5769C127.039 16.9332 143.451 12.6736 159.595 13.58C160.425 13.6254 161.059 14.3364 161.011 15.1678C160.966 15.9972 160.267 16.6291 159.426 16.5857C143.906 15.7089 128.123 19.8086 114.987 28.1205C114.738 28.2765 114.459 28.3515 114.185 28.3515Z" fill="#0F0202"/>
<path d="M104.765 13.6531C104.271 13.6531 103.789 13.4122 103.501 12.9679C103.048 12.2708 103.246 11.3386 103.943 10.8864C112.02 5.63739 121.302 1.98005 130.785 0.313314C131.602 0.171128 132.382 0.716181 132.526 1.53572C132.668 2.35329 132.123 3.13335 131.304 3.27751C122.216 4.87512 113.321 8.37842 105.58 13.4102C105.329 13.5741 105.045 13.6531 104.765 13.6531Z" fill="#0F0202"/>
<path d="M200.978 178.709C200.168 178.709 199.501 178.065 199.477 177.252C199.452 176.42 200.103 175.729 200.935 175.702C209.693 175.431 218.244 172.22 225.011 166.657C225.653 166.13 226.601 166.223 227.128 166.864C227.656 167.504 227.563 168.454 226.921 168.981C219.642 174.963 210.447 178.417 201.027 178.707C201.01 178.709 200.994 178.709 200.978 178.709Z" fill="#0F0202"/>
<path d="M314.842 131.357C314.785 131.357 314.724 131.347 314.666 131.324L298.348 125.182C298.09 125.085 297.957 124.797 298.056 124.538C298.153 124.275 298.445 124.145 298.702 124.246L315.018 130.387C315.276 130.484 315.409 130.773 315.31 131.033C315.237 131.233 315.045 131.357 314.842 131.357Z" fill="#0F0202"/>
<path d="M320.361 125.239C320.307 125.239 320.252 125.229 320.199 125.212C311.223 122.155 302.327 118.543 293.756 114.475C293.507 114.356 293.401 114.058 293.519 113.807C293.64 113.556 293.938 113.452 294.187 113.568C302.722 117.621 311.583 121.217 320.521 124.26C320.783 124.351 320.923 124.633 320.835 124.896C320.763 125.109 320.568 125.239 320.361 125.239Z" fill="#0F0202"/>
<path d="M321.745 115.616C321.693 115.616 321.64 115.608 321.589 115.592C311.608 112.328 301.643 108.606 291.973 104.526C291.718 104.417 291.597 104.123 291.706 103.868C291.815 103.611 292.111 103.497 292.364 103.599C302.009 107.672 311.948 111.384 321.901 114.639C322.165 114.726 322.31 115.01 322.223 115.271C322.154 115.484 321.956 115.616 321.745 115.616Z" fill="#0F0202"/>
<path d="M321.75 106.38C321.691 106.38 321.632 106.37 321.574 106.348C309.943 101.982 300.945 98.228 288.546 92.9967C288.291 92.8881 288.17 92.5959 288.277 92.3411C288.386 92.0824 288.682 91.9678 288.935 92.0725C301.323 97.2978 310.312 101.05 321.928 105.408C322.186 105.505 322.319 105.793 322.22 106.054C322.145 106.258 321.953 106.38 321.75 106.38Z" fill="#0F0202"/>
<path d="M318.861 95.9489C318.798 95.9489 318.735 95.937 318.672 95.9093L285.359 82.3228C285.102 82.2161 284.98 81.9258 285.084 81.669C285.189 81.4103 285.483 81.2879 285.738 81.3926L319.051 94.9812C319.308 95.0859 319.43 95.3782 319.327 95.6349C319.244 95.8324 319.059 95.9489 318.861 95.9489Z" fill="#0F0202"/>
<path d="M317.781 85.9742C317.712 85.9742 317.645 85.9604 317.578 85.9328L281.396 69.9052C281.143 69.7926 281.028 69.4964 281.141 69.2437C281.254 68.9889 281.552 68.8764 281.803 68.9889L317.983 85.0144C318.236 85.127 318.352 85.4233 318.238 85.676C318.157 85.8636 317.973 85.9742 317.781 85.9742Z" fill="#0F0202"/>
<path d="M314.255 73.4361C314.186 73.4361 314.117 73.4223 314.05 73.3927L277.543 56.9801C277.293 56.8655 277.178 56.5713 277.293 56.3185C277.407 56.0658 277.703 55.9512 277.956 56.0657L314.462 72.4783C314.713 72.5929 314.828 72.8871 314.713 73.1399C314.628 73.3255 314.447 73.4361 314.255 73.4361Z" fill="#0F0202"/>
<path d="M306.05 57.024C305.99 57.024 305.929 57.0141 305.87 56.9904C296.804 53.499 287.554 50.1398 278.377 47.0018C278.114 46.913 277.974 46.6286 278.065 46.366C278.154 46.1053 278.438 45.965 278.701 46.0559C287.889 49.1958 297.151 52.559 306.229 56.0544C306.488 56.1531 306.616 56.4434 306.518 56.7021C306.443 56.9035 306.251 57.024 306.05 57.024Z" fill="#0F0202"/>
<path d="M305.326 45.4869C305.26 45.4869 305.195 45.473 305.132 45.4454L292.102 40.0068C291.848 39.9002 291.727 39.6079 291.834 39.3512C291.94 39.0944 292.235 38.9779 292.489 39.0806L305.519 44.5212C305.774 44.6298 305.894 44.9201 305.788 45.1769C305.707 45.3704 305.521 45.4869 305.326 45.4869Z" fill="#0F0202"/>
<path d="M29.0845 29.0863C41.9661 33.4111 54.984 37.335 67.3996 41.0496C65.3636 49.638 60.1363 57.0712 56.6231 65.1679C54.7609 69.4631 53.3805 73.9459 52.0159 78.4248C45.6215 99.417 39.5035 120.494 33.6364 141.613C22.1529 137.679 13.2387 135.66 0.927734 133.476C12.273 98.2083 22.4965 64.3286 29.0845 29.0863Z" fill="#EC2227"/>
<g opacity="0.1294">
<path d="M272.296 133.443C270.282 134.039 268.325 134.76 266.398 135.562C265.957 135.552 265.519 135.587 265.088 135.672C264.115 135.842 263.202 136.235 262.282 136.606C261.259 136.952 260.299 137.282 259.314 137.704C258.925 137.85 257.74 138.307 257.284 138.413C257.142 138.455 257.031 138.496 256.932 138.534C256.64 138.631 256.348 138.725 256.05 138.798C255.874 138.802 255.696 138.804 255.52 138.794C255.323 138.755 255.129 138.71 254.938 138.65C254.934 138.648 254.932 138.646 254.928 138.644C254.507 138.253 254.124 137.823 253.757 137.38C253.273 136.762 253.816 137.461 253.998 137.696C253.678 137.264 253.338 136.849 252.973 136.454C252.864 136.326 252.777 136.223 252.702 136.13C252.365 135.668 252.065 135.181 251.756 134.699C250.473 132.761 249.325 130.731 248.257 128.668C246 124.293 243.926 119.825 241.521 115.529C240.127 112.605 238.936 109.567 237.188 106.828C232.174 99.174 227.304 93.1745 219.802 86.4779C215.073 81.6851 209.612 77.5736 203.773 74.254C199.807 72.0619 195.652 69.8916 191.055 69.5598C187.834 68.8291 187.052 73.5983 190.374 73.8254C193.391 73.9834 196.624 75.3519 200.092 77.3465C199.768 78.1285 199.843 79.0724 200.627 79.892C203.834 82.6824 207.533 84.8211 210.874 87.4377C210.716 87.3331 212.576 88.903 212.952 89.298C213.343 89.6752 213.72 90.0662 214.091 90.4612C213.791 90.7495 213.591 91.1404 213.605 91.5947C213.826 92.979 215.381 94.6122 216.088 95.9136C219.763 101.51 224.084 106.71 227.206 112.654C231.337 120.786 234.329 128.907 235.717 139.813C236.434 143.242 236.835 149.504 235.715 151.295C235.618 151.406 235.518 151.508 235.407 151.605C235.32 151.656 235.245 151.704 235.188 151.737C235.044 151.783 234.9 151.836 234.759 151.889C234.688 151.911 234.619 151.939 234.546 151.957C234.518 151.96 234.505 151.962 234.481 151.966C234.175 151.978 233.823 151.96 233.602 151.947C233.49 151.927 233.377 151.909 233.266 151.887C232.02 151.571 232.692 151.846 230.826 150.843C227.938 149.214 225.46 153.477 228.28 155.199C235.395 160.322 240.382 158.499 241.794 151.56C242.501 147.373 242.029 143.088 241.29 138.925C241.499 139.555 241.711 140.187 241.918 140.817C242.325 143.291 242.67 145.629 243 147.721C242.951 147.782 242.894 147.835 242.848 147.902C242.04 149.184 242.637 150.762 243.764 151.512C244.27 152.316 245.35 152.693 246.272 152.446C247.08 152.201 247.515 151.714 247.738 151.107C255.509 148.046 263.228 144.76 270.377 140.418C272.065 139.379 272.065 139.272 273.463 138.69C274.186 138.39 275.065 137.971 275.496 137.313C275.845 137.068 276.165 136.78 276.426 136.399C277.733 133.658 274.463 132.26 272.296 133.443Z" fill="#0F0202"/>
</g>
<g opacity="0.1294">
<path d="M322.035 125.405C321.62 125.405 321.235 125.514 320.863 125.674C319.057 126.209 317.431 127.36 315.658 128.014C312.51 129.539 311.286 129.823 307.064 131.849C299.806 135.712 287.742 139.496 281.255 142.209C276.989 143.498 278.711 149.814 283.058 148.751C289.857 146.554 296.281 143.372 302.845 140.57C306.305 138.968 312.887 136.604 318.346 133.915C320.891 132.576 324.073 131.002 324.388 130.22C325.982 128.401 324.418 125.336 322.035 125.405Z" fill="#0F0202"/>
</g>
<g opacity="0.1294">
<path d="M81.4774 55.4417C78.7226 65.4263 73.8488 72.7962 70.2783 83.788C68.114 90.2001 66.4729 96.7683 65.2248 103.418C64.4428 106.36 63.8405 109.342 63.2322 112.324C62.778 114.96 61.998 117.668 62.4798 120.346C63.1532 122.954 66.0444 124.212 68.3845 123.367C69.8696 124.925 71.4435 126.404 73.0292 127.872C73.0292 127.804 73.0292 127.737 73.0273 127.668C72.9127 124.73 72.9463 121.785 73.124 118.849C72.502 116.783 72.2808 115.434 72.1426 113.748C72.7468 110.497 73.5249 107.282 73.912 103.996C75.4681 93.4132 78.4678 83.1165 81.8941 73.0036C82.9269 69.9861 83.7228 66.8817 85.042 63.9709C85.9701 61.3444 87.5026 58.6665 87.5045 55.8524C87.2083 52.5802 82.2832 52.2524 81.4774 55.4417Z" fill="#0F0202"/>
</g>
<g opacity="0.1294">
<path d="M84.6059 136.363C84.44 137.001 83.8219 137.505 83.1465 137.457C83.6757 137.748 84.2603 137.886 84.8902 137.706C85.8599 137.459 86.5036 136.482 86.4444 135.51C85.8362 135.803 85.224 136.087 84.6059 136.363Z" fill="#0F0202"/>
</g>
<g opacity="0.1294">
<path d="M62.4803 120.346C62.427 119.949 62.3737 119.554 62.3204 119.157C62.3184 119.581 62.3835 119.972 62.4803 120.346Z" fill="#0F0202"/>
</g>
<g opacity="0.1294">
<path d="M102.89 144.466C101.721 145.256 100.143 145.013 97.0938 144.964C95.0835 144.77 92.4886 144.922 90.2353 144.202C88.7542 143.86 87.36 142.719 85.8078 142.912C82.9029 143.171 82.6304 147.537 85.4425 148.244C87.4825 149.04 89.5442 149.735 91.6849 150.201C93.4878 150.622 95.3422 151.03 97.1768 150.582C99.4517 150.108 101.628 149.145 103.658 148.031C104.48 147.5 105.603 147.069 105.917 146.066C106.362 144.231 104.203 143.303 102.89 144.466Z" fill="#0F0202"/>
</g>
<g opacity="0.1294">
<path d="M133.72 148.423C132.705 148.763 132.5 149.312 130.918 150.151C127.748 151.871 126.386 152.203 122.158 153.021C118.135 154.054 118.483 153.832 114.035 154.133C112.645 154.182 111.253 154.117 109.872 153.953C108.966 153.801 108.058 153.44 107.149 153.627C103.498 153.987 103.16 159.376 106.693 160.306C115.678 162.915 123.082 160.302 129.453 156.443C131.374 155.296 133.29 154.081 134.921 152.535C135.813 151.536 136.039 151.712 136.238 150.341C136.266 149.061 134.945 148.072 133.72 148.423Z" fill="#0F0202"/>
</g>
<g opacity="0.1294">
<path d="M171.463 166.937C169.579 167.204 170.043 167.437 169.047 167.743C168.257 167.95 168.151 168.32 165.315 168.995C163.376 169.335 163.439 169.323 162.931 169.374C163.301 168.896 163.467 168.235 163.34 167.648C163.257 166.418 162.082 165.486 160.882 165.476C159.402 165.565 158.283 166.787 156.938 167.318C154.126 168.558 154.803 168.351 150.907 169.67C147.376 170.668 145.547 170.569 144.198 170.652C142.911 170.61 141.651 169.777 140.474 169.633C142.84 168.716 145.089 167.453 147.242 166.127C149.704 164.633 151.886 162.772 153.909 160.73C154.357 160.341 154.633 159.765 154.627 159.166C154.639 158.436 154.221 157.78 153.612 157.397C152.838 156.933 151.762 157.071 151.13 157.717C151.264 157.614 151.61 157.348 151.404 157.484C150.397 158.108 149.388 158.732 148.365 159.332C142.49 163.108 134.749 165.314 129.711 166.094C128.518 166.228 127.318 166.372 126.117 166.248C126.016 166.238 125.959 166.232 125.918 166.23C125.874 166.222 125.831 166.216 125.787 166.21C124.883 166.126 123.984 165.673 123.076 165.79C120.908 165.981 120.698 169.248 122.803 169.779C124.701 170.444 126.627 171.084 128.641 171.274C130.762 171.503 132.901 171.201 135.008 170.962C136.149 170.867 137.263 170.654 138.351 170.352C137.33 171.465 137.366 173.543 138.888 174.355C144.36 177.119 150.257 176.545 155.714 174.074C156.711 173.683 157.669 173.201 158.593 172.66C158.624 174.313 159.912 175.96 161.766 175.899C165.175 175.462 168.852 175.271 171.739 173.207C172.592 172.55 173.716 171.991 174.093 170.922C174.978 169.127 173.431 166.894 171.463 166.937Z" fill="#0F0202"/>
</g>
<g opacity="0.1294">
<path d="M199.047 154.228C196.946 155.294 197.454 155.501 196.099 156.345C194.075 157.751 194.349 157.585 191.426 158.337C189.029 158.748 190.477 158.663 188.409 158.701C188.168 158.693 187.927 158.673 187.688 158.653C187.431 158.608 187.094 158.541 186.847 158.475C185.107 158.195 183.261 156.9 181.558 157.932C179.307 159.151 179.781 162.806 182.275 163.409C184.562 164.084 186.924 164.751 189.331 164.595C192.208 164.396 195.015 163.335 197.418 161.76C198.575 160.942 199.669 160.038 200.728 159.098C201.492 158.477 202.26 157.701 202.217 156.641C202.252 155.028 200.588 153.785 199.047 154.228Z" fill="#0F0202"/>
</g>
<g opacity="0.1294">
<path d="M222.761 145.927C222.775 144.667 221.924 143.435 220.67 143.117C220.599 143.101 220.537 143.099 220.47 143.088C220.46 140.722 220.522 138.328 219.931 136.028C219.056 132.428 217.091 129.262 215.472 125.97C213.975 122.492 212.04 119.157 209.542 116.315C208.479 115.383 206.686 116.295 206.728 117.69C206.82 118.886 207.916 119.732 208.463 120.751C211.538 125.239 212.577 128.591 214.042 133.958C215.835 139.6 216.155 142.333 215.626 148.157C215.618 148.222 215.612 148.279 215.606 148.333C215.559 148.599 215.509 148.864 215.45 149.125C215.43 149.257 215.371 149.46 215.296 149.689C215.002 150.171 214.686 150.641 214.36 151.103C213.949 151.593 213.118 152.574 212.64 153.011C212.533 153.076 212.431 153.137 212.33 153.195C211.402 153.28 210.709 153.246 208.234 152.44C207.533 152.176 207.389 152.099 208.169 152.434C206.919 152.002 205.788 151.135 204.49 150.908C201.563 150.375 200.136 154.601 202.719 156.038C203.629 156.502 204.632 156.959 205.515 157.342C205.695 158.297 206.228 159.186 207.158 159.698C207.373 159.82 207.6 159.907 207.824 160.006C207.903 161.173 208.602 162.291 210.093 162.735C211.343 163.082 212.644 163.41 213.94 163.128C214.386 163.051 215.272 162.666 215.405 162.597C216.698 162.036 218.047 161.264 218.608 159.948C218.926 159.285 218.938 158.611 218.75 158.009C219.246 157.506 219.522 156.846 219.589 156.153C220.867 154.46 221.795 152.486 222.277 150.454C222.56 149.032 222.727 147.584 222.757 146.133C222.761 146.081 222.761 146.03 222.763 145.981C222.763 145.947 222.765 145.917 222.765 145.884L222.761 145.927Z" fill="#0F0202"/>
</g>
<path d="M53.1558 147.351C53.0669 147.351 52.9761 147.343 52.8852 147.325C43.6037 145.639 34.0081 143.895 24.5409 141.312C20.8737 140.092 17.3388 139.288 13.5965 138.435C9.52252 137.505 5.30829 136.547 1.00717 135.036C0.223174 134.76 -0.189558 133.903 0.0849392 133.119C0.361412 132.335 1.21848 131.926 2.00247 132.196C6.14166 133.65 10.271 134.59 14.2621 135.5C17.9115 136.332 21.6834 137.189 25.4118 138.433C34.2076 140.83 43.2462 142.513 52.0282 144.11C55.8198 128.764 60.978 113.779 65.9703 99.2745C68.9384 90.6525 72.0053 81.7363 74.8036 72.7213C74.8154 72.6818 74.8292 72.6443 74.845 72.6068C75.7791 70.2686 76.7863 67.9759 77.7598 65.7562C80.3982 59.7469 82.8924 54.0653 84.1227 47.4794C84.0792 47.4182 83.9726 47.3214 83.9074 47.3036C83.7238 47.3036 83.5737 47.272 83.4019 47.2069C75.1867 44.0788 66.5943 41.7998 58.2843 39.596C48.4597 36.9892 38.3033 34.2956 28.4332 30.1426C27.667 29.8207 27.3076 28.938 27.6315 28.1717C27.9534 27.4055 28.8361 27.0461 29.6003 27.37C39.2769 31.444 49.3306 34.11 59.0565 36.6891C67.3704 38.893 75.9667 41.1738 84.2649 44.3177C85.8131 44.4994 87.152 45.939 87.152 47.511C87.152 47.6018 87.1441 47.6927 87.1264 47.7815C85.8486 54.8158 83.1372 60.991 80.5147 66.9648C79.5589 69.1449 78.5695 71.3962 77.6591 73.6692C74.853 82.7079 71.7821 91.6281 68.814 100.254C63.4603 115.812 58.4028 130.508 54.6152 146.198C54.4493 146.883 53.8371 147.351 53.1558 147.351Z" fill="#0F0202"/>
<path d="M34.1148 142.555C33.9923 142.555 33.8699 142.539 33.7475 142.509C32.9418 142.308 32.452 141.49 32.6554 140.684C41.2991 106.208 53.4679 69.5639 66.0434 40.1512C66.3712 39.385 67.2559 39.0315 68.0182 39.3613C68.7825 39.6871 69.1359 40.5698 68.8101 41.3341C56.2938 70.6086 44.1784 107.087 35.5722 141.419C35.4004 142.098 34.7862 142.555 34.1148 142.555Z" fill="#0F0202"/>
<path d="M280.716 151.731C280.479 151.731 280.244 151.676 280.029 151.566C279.66 151.376 279.387 151.044 279.271 150.647C273.299 130.094 266.978 109.554 260.287 87.811C256.819 76.5408 253.233 64.8894 249.659 53.0959C249.451 52.4126 249.753 51.6761 250.381 51.3364C265.617 43.0837 281.645 36.0277 298.018 30.364C298.802 30.0934 299.661 30.5101 299.931 31.2961C300.204 32.0801 299.787 32.9371 299.001 33.2096C283.167 38.6838 267.663 45.4751 252.893 53.4C256.349 64.7867 259.811 76.0353 263.162 86.9283C269.691 108.144 275.866 128.213 281.714 148.277C295.701 143.277 309.6 137.564 323.05 131.288C323.803 130.935 324.697 131.261 325.049 132.015C325.4 132.767 325.074 133.662 324.322 134.013C310.305 140.556 295.804 146.484 281.216 151.646C281.054 151.704 280.884 151.731 280.716 151.731Z" fill="#0F0202"/>
<path d="M298.817 143.864C298.151 143.864 297.541 143.417 297.365 142.746C288.585 109.721 278.577 76.5603 267.613 44.1834C267.346 43.3975 267.769 42.5424 268.555 42.2758C269.347 42.0111 270.196 42.4318 270.463 43.2197C281.447 75.6598 291.477 108.886 300.272 141.974C300.486 142.777 300.008 143.601 299.206 143.814C299.074 143.848 298.943 143.864 298.817 143.864Z" fill="#0F0202"/>
<path d="M132.319 99.0831C128.862 99.0831 124.807 97.5783 122.998 94.0631C119.76 87.7773 125.844 80.7273 127.844 78.4108C136.099 68.8409 144.632 58.9492 155.257 51.4805C167.232 43.0638 180.323 39.2564 192.103 40.7474C198.13 41.5117 203.865 43.6346 209.412 45.6864C211.201 46.3499 213.053 47.0352 214.874 47.6572C226.442 51.6187 238.507 53.7179 250.734 53.8956C251.566 53.9094 252.227 54.5908 252.216 55.4202C252.204 56.2437 251.532 56.9033 250.711 56.9033C250.705 56.9033 250.697 56.9033 250.689 56.9033C238.143 56.7196 225.765 54.5651 213.898 50.5029C212.042 49.8671 210.174 49.1758 208.367 48.5064C202.98 46.5118 197.411 44.4522 191.725 43.7294C180.68 42.3253 168.348 45.953 156.989 53.9391C146.668 61.1925 138.258 70.9421 130.123 80.3718C125.577 85.6406 124.122 89.6672 125.676 92.6808C126.989 95.2322 130.23 96.2216 132.839 96.0577C135.837 95.876 138.655 94.5647 141.767 93.0007C143.84 91.958 145.91 90.9271 147.976 89.9022C160.626 83.6065 172.576 77.6624 183.917 69.6684C184.596 69.1905 185.534 69.3524 186.012 70.0318C186.492 70.7131 186.33 71.6491 185.649 72.129C174.118 80.2553 162.07 86.2489 149.315 92.5959C147.255 93.6228 145.189 94.6496 143.12 95.6884C139.832 97.3433 136.585 98.8461 133.022 99.0594C132.787 99.0752 132.554 99.0831 132.319 99.0831Z" fill="#0F0202"/>
<path d="M243.561 153.9C242.97 153.9 242.409 153.548 242.168 152.968C241.852 152.199 242.218 151.321 242.986 151.005C253.8 146.546 264.719 141.911 275.442 137.225C276.204 136.893 277.089 137.24 277.423 138.001C277.754 138.763 277.407 139.65 276.644 139.981C265.904 144.676 254.963 149.32 244.129 153.785C243.946 153.862 243.75 153.9 243.561 153.9Z" fill="#0F0202"/>
<path d="M239.364 159.938C239.048 159.938 238.752 159.913 238.496 159.887C233.501 159.352 228.588 156.04 225.015 150.795C222.729 147.438 221.143 143.692 219.61 140.07C219.127 138.927 218.643 137.785 218.137 136.656C214.053 127.516 208.534 119.161 201.729 111.818C201.164 111.208 201.201 110.256 201.81 109.692C202.42 109.129 203.37 109.162 203.936 109.775C210.965 117.358 216.664 125.99 220.884 135.427C221.398 136.577 221.889 137.738 222.381 138.899C223.925 142.546 225.385 145.992 227.502 149.103C230.577 153.615 234.702 156.457 238.815 156.895C239.052 156.923 239.763 157 240.093 156.789C240.472 156.55 240.646 155.76 240.605 154.443C240.062 137.003 234.321 119.477 224.445 105.094C214.567 90.7117 200.271 79.0604 184.192 72.2908C183.426 71.9669 183.067 71.0862 183.391 70.32C183.712 69.5537 184.595 69.1963 185.361 69.5182C201.966 76.511 216.727 88.5414 226.925 103.392C237.125 118.244 243.051 136.344 243.612 154.35C243.644 155.363 243.729 158.054 241.703 159.334C240.94 159.812 240.095 159.938 239.364 159.938Z" fill="#0F0202"/>
<path d="M164.239 176.422C162.156 176.422 159.448 176.091 156.514 173.938C155.844 173.446 155.698 172.504 156.19 171.837C156.681 171.166 157.623 171.023 158.291 171.513C161.091 173.567 163.447 173.464 165.523 173.379L165.742 173.369C168.858 173.245 172.217 171.651 174.099 169.41C174.913 168.44 175.829 166.892 175.578 165.022C175.57 164.955 175.564 164.888 175.564 164.816C175.574 161.603 175.124 158.343 174.733 155.861C174.628 155.203 174.97 154.555 175.568 154.267C176.167 153.979 176.886 154.123 177.334 154.615C179.611 157.131 181.967 159.733 184.844 161.453C187.84 163.245 191.163 163.75 193.739 162.81C197.281 161.517 200.913 155.361 200.109 152.014C199.914 151.206 200.411 150.395 201.221 150.199C202.035 150.013 202.84 150.501 203.036 151.311C204.298 156.566 199.373 163.955 194.773 165.638C191.306 166.902 187.125 166.321 183.302 164.036C181.439 162.923 179.822 161.54 178.325 160.061C178.475 161.558 178.576 163.142 178.576 164.726C178.854 167.03 178.106 169.315 176.406 171.341C173.977 174.238 169.839 176.215 165.868 176.375L165.655 176.383C165.22 176.403 164.748 176.422 164.239 176.422Z" fill="#0F0202"/>
<path d="M213.722 164.108C212.48 164.108 211.285 163.77 210.157 163.332C204.476 161.13 201.456 154.933 198.537 148.939C196.515 144.788 194.424 140.497 191.568 137.955C190.948 137.404 190.893 136.453 191.444 135.832C191.995 135.214 192.947 135.155 193.567 135.708C196.865 138.643 199.088 143.208 201.239 147.62C204.027 153.343 206.662 158.75 211.243 160.525C213.212 161.292 215.661 162.236 218.923 156.734C219.812 155.233 220.051 153.333 220.179 151.504C220.505 146.814 219.247 141.978 218.031 137.3C217.845 136.585 217.659 135.87 217.48 135.159C217.276 134.355 217.764 133.538 218.57 133.332C219.376 133.127 220.193 133.619 220.397 134.422C220.574 135.127 220.76 135.834 220.944 136.543C222.221 141.453 223.542 146.534 223.181 151.714C223.029 153.912 222.723 156.228 221.514 158.268C218.84 162.781 216.186 164.108 213.722 164.108Z" fill="#0F0202"/>
<path d="M115.93 163.203C115.8 163.203 115.667 163.203 115.533 163.199C109.903 163.065 105.023 159.711 103.669 155.049C103.157 153.285 103.165 151.494 103.404 149.78C100.333 151.678 96.5138 152.476 92.8663 151.82C87.2796 150.817 82.5855 146.231 81.7028 140.915C81.3374 138.717 82.0306 137.497 82.6744 136.861C83.2649 136.276 84.2187 136.284 84.8012 136.875C85.3838 137.467 85.3779 138.419 84.7874 139.002C84.6472 139.14 84.5327 139.594 84.6689 140.422C85.3502 144.525 89.0214 148.076 93.3976 148.86C97.671 149.63 102.231 147.914 104.739 144.596C105.15 144.055 105.87 143.86 106.492 144.107C107.036 143.816 107.537 143.621 107.861 143.492C113.878 141.142 120.192 139.697 126.628 139.201C131.8 138.794 135.25 140.048 136.863 142.912C137.635 144.284 137.904 145.967 137.661 147.912C137.349 150.402 136.273 152.813 134.626 154.707C133.034 156.536 130.994 157.829 129.025 158.955C125.547 160.944 120.94 163.203 115.93 163.203ZM106.974 147.42C106.311 149.962 105.959 152.152 106.56 154.21C107.667 158.021 111.949 160.102 115.608 160.191C120.026 160.302 124.303 158.191 127.532 156.346C129.272 155.351 131.059 154.225 132.356 152.734C133.614 151.289 134.438 149.442 134.677 147.541C134.787 146.652 134.801 145.382 134.242 144.389C133.01 142.203 129.548 141.99 126.861 142.201C120.721 142.673 114.698 144.053 108.959 146.295C108.001 146.668 107.346 147.039 106.974 147.42Z" fill="#0F0202"/>
<path d="M130.685 173.371C128.339 173.371 126.131 172.818 124.264 171.718C120.611 169.568 118.415 165.284 118.794 161.062C118.869 160.235 119.6 159.636 120.427 159.702C121.255 159.775 121.865 160.507 121.79 161.335C121.516 164.374 123.161 167.577 125.789 169.123C128.337 170.626 131.802 170.772 135.296 169.528C138.582 168.359 141.445 166.234 144.334 163.975C148.45 160.756 152.307 157.15 152.66 152.606C152.68 152.334 152.698 151.946 152.599 151.717C152.506 151.504 152.224 151.253 151.764 150.977C149.587 149.675 146.649 149.352 143.491 150.063C140.699 150.694 138.418 151.873 135.778 153.238L135.329 153.469C134.589 153.848 133.684 153.56 133.303 152.821C132.922 152.083 133.212 151.176 133.951 150.797L134.397 150.566C137.105 149.168 139.66 147.845 142.83 147.13C146.744 146.243 150.468 146.693 153.312 148.398C153.968 148.791 154.89 149.436 155.362 150.525C155.721 151.358 155.711 152.201 155.66 152.841C155.218 158.544 150.845 162.701 146.191 166.345C143.223 168.667 140.014 171.045 136.307 172.364C134.411 173.037 132.505 173.371 130.685 173.371Z" fill="#0F0202"/>
<path d="M148.234 177.647C146.085 177.647 143.939 177.153 142.013 176.197C139.778 175.087 137.454 172.866 137.637 169.961C137.689 169.131 138.409 168.507 139.233 168.555C140.062 168.606 140.692 169.321 140.639 170.15C140.548 171.588 142.043 172.854 143.352 173.503C145.402 174.522 147.774 174.872 150.033 174.491C153.619 173.883 156.718 171.537 159.275 169.323C162.162 166.821 163.397 164.753 163.162 162.81C162.885 160.543 160.413 159.012 158.28 158.896C156.145 158.779 153.941 159.66 151.364 161.672C150.708 162.186 149.764 162.067 149.253 161.414C148.741 160.758 148.858 159.812 149.512 159.303C151.516 157.737 154.626 155.675 158.446 155.89C161.862 156.08 165.677 158.584 166.147 162.447C166.629 166.424 163.58 169.572 161.244 171.596C158.538 173.938 154.877 176.72 150.535 177.455C149.774 177.583 149.002 177.647 148.234 177.647Z" fill="#0F0202"/>
<path d="M106.105 146.03C105.388 146.03 104.75 145.515 104.624 144.782C104.091 141.706 100.712 139.855 98.7428 139.028C92.9922 136.605 87.996 136.684 83.8943 139.263C83.2209 139.687 82.3362 139.514 81.8721 138.87C76.1254 130.892 68.9549 124.993 60.558 121.333C59.7958 121.002 59.4482 120.117 59.78 119.355C60.1117 118.594 60.9945 118.243 61.7587 118.575C70.2701 122.283 77.5828 128.148 83.5112 136.02C88.2329 133.579 93.7426 133.654 99.9119 136.253C104.286 138.096 107.011 140.943 107.588 144.269C107.73 145.086 107.181 145.866 106.362 146.007C106.277 146.022 106.19 146.03 106.105 146.03Z" fill="#0F0202"/>
<path d="M84.3775 54.4309C83.6922 54.4309 83.0741 53.9609 82.9141 53.2638C82.7265 52.4541 83.2321 51.6484 84.0397 51.4608C100.674 47.6158 115.972 42.3313 128.743 37.6688L129.887 37.2501C134.741 35.4708 139.761 33.6283 145.047 33.0477C157.244 31.7048 168.48 36.944 178.396 41.5651C179.148 41.9146 179.474 42.8112 179.125 43.5636C178.773 44.3179 177.878 44.6418 177.126 44.2903C167.568 39.8352 156.728 34.7796 145.379 36.0356C140.454 36.5767 135.61 38.354 130.924 40.0721L129.776 40.4928C116.92 45.1869 101.513 50.5089 84.7211 54.3914C84.6045 54.4171 84.49 54.4309 84.3775 54.4309Z" fill="#0F0202"/>
<path d="M114.185 28.3515C113.687 28.3515 113.197 28.1047 112.911 27.6525C112.467 26.9514 112.676 26.0232 113.377 25.5769C127.039 16.9332 143.451 12.6736 159.595 13.58C160.425 13.6254 161.059 14.3364 161.011 15.1678C160.966 15.9972 160.267 16.6291 159.426 16.5857C143.906 15.7089 128.123 19.8086 114.987 28.1205C114.738 28.2765 114.459 28.3515 114.185 28.3515Z" fill="#0F0202"/>
<path d="M104.765 13.6531C104.271 13.6531 103.789 13.4122 103.501 12.9679C103.048 12.2708 103.246 11.3386 103.943 10.8864C112.02 5.63739 121.302 1.98005 130.785 0.313314C131.602 0.171128 132.382 0.716181 132.526 1.53572C132.668 2.35329 132.123 3.13335 131.304 3.27751C122.216 4.87512 113.321 8.37842 105.58 13.4102C105.329 13.5741 105.045 13.6531 104.765 13.6531Z" fill="#0F0202"/>
<path d="M200.978 178.709C200.168 178.709 199.501 178.065 199.477 177.252C199.452 176.42 200.103 175.729 200.935 175.702C209.693 175.431 218.244 172.22 225.011 166.657C225.653 166.13 226.601 166.223 227.128 166.864C227.656 167.504 227.563 168.454 226.921 168.981C219.642 174.963 210.447 178.417 201.027 178.707C201.01 178.709 200.994 178.709 200.978 178.709Z" fill="#0F0202"/>
</svg>
