<svg width="313" height="211" viewBox="0 0 313 211" fill="none" xmlns="http://www.w3.org/2000/svg">
<path d="M46.6173 40.2918C40.422 35.5295 37.1948 27.1918 38.5695 19.4995C39.9443 11.8073 45.8589 5.1032 53.3196 2.78039C57.3235 1.53329 61.8833 1.54605 65.5152 3.64096C71.5009 7.09418 73.2768 14.8393 73.7746 21.7312C74.0043 24.9091 74.0772 28.18 73.0452 31.192C71.3314 36.195 66.6329 39.8451 61.4859 41.0576C56.3389 42.27 50.0578 42.9373 46.6173 40.2918Z" fill="#F5F5F5"/>
<path d="M39.3457 117.67C39.3457 117.67 44.0806 55.1951 44.0387 55.3719C44.9813 52.5386 46.3031 49.8292 47.9568 47.3423C48.9231 45.8892 50.0281 44.4871 51.4812 43.519C54.3237 41.6246 58.2053 41.7103 61.2592 43.2437C64.3113 44.777 66.5904 47.5775 68.0527 50.6661C69.5149 53.7547 70.2333 57.1368 70.8058 60.5043C71.7739 66.1947 72.3628 71.9415 72.9498 77.6829C74.3501 91.3645 75.7522 105.048 77.1524 118.731L39.3457 117.67Z" fill="#F5F5F5"/>
<path d="M145.525 37.5933C142.557 33.6332 141.018 28.6248 141.249 23.682C141.481 18.7392 143.481 13.8948 146.805 10.2301C148.169 8.72593 149.746 7.41683 151.481 6.36482C154.833 4.33373 158.774 3.28902 162.691 3.39659C163.611 3.42211 164.545 3.51145 165.409 3.82869C166.512 4.23528 167.449 4.99193 168.304 5.79598C175.222 12.3031 177.787 23.042 174.556 31.9723C174.07 33.3196 173.453 34.6397 172.538 35.7427C171.552 36.9333 170.257 37.8267 168.921 38.6034C164.62 41.1104 159.502 42.589 154.627 41.5844C152.734 41.1961 150.936 40.4467 149.182 39.6372C147.275 38.7566 145.403 37.7939 145.525 37.5933Z" fill="#F5F5F5"/>
<path d="M246.361 32.2367C244.618 28.8856 244.337 24.9037 245.063 21.197C245.787 17.4904 247.46 14.028 249.45 10.8191C250.02 9.90019 250.62 8.9904 251.362 8.20276C253.174 6.27741 255.698 5.19805 258.192 4.32289C260.888 3.37481 263.766 2.59264 266.582 3.07944C268.893 3.47691 270.978 4.70031 272.891 6.05497C273.994 6.83715 275.075 7.68313 275.908 8.74972C277.462 10.7371 278.022 13.3078 278.445 15.7947C278.809 17.9279 279.103 20.0721 279.382 22.218C279.588 23.8097 279.785 25.416 279.631 27.0132C279.362 29.8282 277.992 32.4665 276.104 34.5723C274.215 36.6782 271.824 38.2808 269.314 39.5808C267.383 40.5799 265.324 41.4222 263.158 41.5973C260.416 41.8197 257.698 40.961 255.163 39.8889C253.973 39.3857 252.797 38.8278 251.716 38.1185C249.167 36.4484 247.231 33.9105 246.361 32.2367Z" fill="#F5F5F5"/>
<path d="M142.192 119.156C141.507 98.4077 143.095 77.5863 146.916 57.1806C147.312 55.0711 147.737 52.9488 148.554 50.9633C149.617 48.3852 151.341 46.0861 153.518 44.3449C156.498 41.9619 160.716 40.6747 164.186 42.2591C167.081 43.581 168.835 46.5529 170.099 49.4737C174.345 59.2919 175.076 70.2149 175.749 80.89C176.55 93.5798 177.35 106.271 178.083 119.145C166.133 120.372 154.051 120.31 142.192 119.156Z" fill="#F5F5F5"/>
<path d="M46.1513 65.1045C46.0602 65.1045 45.969 65.0771 45.8888 65.0224C45.6773 64.8784 45.6245 64.5903 45.7685 64.3788C50.1042 58.0485 54.8755 51.9188 59.9496 46.161C60.1174 45.9695 60.4091 45.9495 60.6024 46.1208C60.7938 46.2904 60.812 46.5821 60.6425 46.7736C55.5939 52.504 50.8444 58.6046 46.5306 64.9021C46.4431 65.0333 46.2972 65.1045 46.1513 65.1045Z" fill="#0F0202"/>
<path d="M45.4841 79.2417C45.3948 79.2417 45.3055 79.2162 45.2271 79.1633C45.0137 79.0193 44.9572 78.733 45.1012 78.5215C50.9411 69.8265 57.2678 61.2955 63.9044 53.162C64.0685 52.9633 64.3602 52.936 64.5553 53.0946C64.754 53.2568 64.7832 53.5486 64.6227 53.7473C58.0025 61.8589 51.6923 70.3662 45.8688 79.0375C45.7795 79.1706 45.6336 79.2417 45.4841 79.2417Z" fill="#0F0202"/>
<path d="M46.2261 90.2888C46.1295 90.2888 46.0327 90.2578 45.9489 90.1958C45.7447 90.0445 45.7028 89.7528 45.856 89.5486L65.3793 63.3741C65.5306 63.1681 65.8223 63.1261 66.0265 63.2793C66.2307 63.4324 66.2725 63.7223 66.1194 63.9265L46.5962 90.101C46.5069 90.225 46.3665 90.2888 46.2261 90.2888Z" fill="#0F0202"/>
<path d="M45.703 105.394C45.6155 105.394 45.528 105.371 45.4514 105.32C45.2363 105.179 45.1761 104.893 45.3147 104.68C51.9622 94.4696 59.0328 84.3487 66.333 74.5944C66.488 74.3902 66.7797 74.3501 66.9802 74.5014C67.1845 74.6545 67.2264 74.9444 67.0733 75.1486C59.784 84.8848 52.7243 94.9892 46.0895 105.183C46.002 105.32 45.8544 105.394 45.703 105.394Z" fill="#0F0202"/>
<path d="M47.2967 114.824C47.1983 114.824 47.0998 114.793 47.016 114.729C46.8136 114.576 46.7735 114.283 46.9285 114.08L68.1018 86.3232C68.2568 86.119 68.5485 86.0807 68.7509 86.2357C68.9533 86.3906 68.9934 86.6824 68.8366 86.8847L47.6633 114.644C47.574 114.762 47.4371 114.824 47.2967 114.824Z" fill="#0F0202"/>
<path d="M55.6175 115.28C55.5227 115.28 55.4278 115.251 55.344 115.191C55.138 115.041 55.0924 114.751 55.2437 114.545L69.0511 95.6454C69.2025 95.4394 69.4924 95.3938 69.6966 95.5451C69.9026 95.6946 69.9482 95.9845 69.7968 96.1905L55.9894 115.09C55.9001 115.214 55.7597 115.28 55.6175 115.28Z" fill="#0F0202"/>
<path d="M63.6215 114.66C63.5194 114.66 63.4155 114.625 63.3298 114.556C63.1311 114.394 63.1001 114.104 63.2624 113.905L69.8807 105.783C70.0412 105.584 70.3329 105.557 70.5316 105.717C70.7304 105.877 70.7596 106.169 70.5973 106.368L63.9789 114.489C63.8896 114.604 63.7564 114.66 63.6215 114.66Z" fill="#0F0202"/>
<path d="M246.123 118.804C246.072 99.5399 247.353 80.2755 249.871 61.177C250.566 55.9005 251.461 50.3798 254.71 46.1644C257.959 41.9491 264.346 39.6646 268.764 42.631C270.696 43.9273 271.965 45.9949 272.986 48.0861C277.056 56.4311 278.009 65.901 278.901 75.143C280.265 89.2859 281.627 103.429 282.99 117.572C283.027 117.947 283.041 118.379 282.768 118.637C282.586 118.81 282.318 118.855 282.07 118.892C275.562 119.814 268.95 119.4 262.39 118.985C258.902 118.762 255.412 118.542 251.924 118.321C249.829 118.186 247.732 118.053 246.123 118.804Z" fill="#EC2227"/>
<g opacity="0.1294">
<path d="M74.1369 16.338C74.1169 16.1046 74.1023 15.904 74.1004 15.8001C73.9436 14.7353 74.0294 13.4901 73.4022 12.5766C72.9245 11.8656 71.898 11.7179 71.1742 12.1318C70.2188 12.6587 70.257 13.7307 70.4831 14.6551C70.5925 15.7017 70.609 16.7537 70.6746 17.8039C70.6455 19.1786 70.5069 21.7548 69.8596 24.1123C68.0655 31.6733 64.0143 35.1174 59.4125 35.967C57.1717 36.1275 56.2655 36.339 52.9272 36.2441C52.4021 36.2296 50.2926 36.029 49.7657 35.9852C48.3563 35.7902 46.9542 35.544 45.5485 35.3398C45.0654 35.2067 44.5366 35.276 44.1045 35.5294C42.7006 36.2897 42.9905 38.5779 44.553 38.9535C45.038 39.0756 45.5248 39.2014 46.0152 39.3291C46.1775 39.5643 46.4072 39.7502 46.719 39.825C48.4492 40.3701 50.1831 40.9919 52.0082 41.1159C53.073 41.1505 54.136 41.1213 55.2008 41.0885C56.2346 41.1523 57.2664 41.1414 58.2947 41.0429C58.3567 41.0429 58.4206 41.0429 58.4826 41.0429C63.2413 41.2562 67.4803 38.4375 70.5433 35.008C73.765 31.4581 75.2782 24.5553 75.4022 21.7694C75.6411 20.0902 75.5828 17.142 74.1369 16.338Z" fill="#0F0202"/>
</g>
<g opacity="0.1294">
<path d="M75.6473 116.702C75.629 116.472 75.609 116.162 75.6072 115.876C76.1797 114.108 75.6965 112.12 75.7767 110.281C75.6181 105.593 75.5069 105.09 74.9581 99.9192C74.2179 93.7913 73.2443 86.6241 72.546 79.0886C71.7601 73.3928 70.6644 60.3038 68.739 51.5376C68.2887 50.3635 68.0936 48.7444 67.1236 47.9094C66.8593 47.3423 66.5804 46.7808 66.2813 46.232C65.5757 45.2474 65.2476 43.7396 63.9932 43.3385C62.5036 42.8845 61.1289 44.6549 61.9603 45.984C66.7353 52.8175 66.4892 59.7294 66.5567 68.5886C67.2787 82.1389 66.6003 95.7075 66.954 109.269C66.9705 112.153 66.8557 113.876 66.832 115.499C66.8229 116.549 66.717 117.603 66.9449 118.635C66.9486 118.662 66.9541 118.688 66.9577 118.713C66.965 118.744 66.9651 118.773 66.9742 118.803C66.9869 118.865 66.9905 118.87 66.9905 118.852C67.1546 119.535 67.6324 120.152 68.2997 120.38C69.5559 120.719 70.3271 120.445 70.803 119.849C72.7064 121.255 75.9937 119.895 75.702 117.091C75.6838 116.961 75.6746 116.832 75.6473 116.702Z" fill="#0F0202"/>
</g>
<g opacity="0.1294">
<path d="M175.032 17.474C173.313 17.9153 173.291 19.6947 173.19 21.1442C173.344 19.8005 173.143 21.786 173.046 22.652C172.259 27.1555 171.238 29.502 169.748 31.1739C167.424 33.7173 161.317 36.5397 158.763 36.8314C158.657 36.8332 158.619 36.8369 158.614 36.8424C158.254 36.7877 157.644 36.6965 157.359 36.6509C156.469 36.5215 155.551 36.4048 154.655 36.5233C154.387 36.5561 154.125 36.598 153.966 36.6272C153.164 36.6728 152.322 36.5762 151.592 36.9207C148.901 37.9162 149.769 42.1407 152.63 42.075C155.62 42.137 153.078 42.292 156.446 42.1735C157.201 42.0988 157.954 41.9766 158.707 41.8563C161.877 41.5992 165.329 40.7259 169.44 38.5252C175.057 35.2288 178 28.5156 178.117 22.1689C178.027 19.857 178.354 17.1021 175.032 17.474Z" fill="#0F0202"/>
</g>
<g opacity="0.1294">
<path d="M178.006 112.189C177.838 110.725 177.825 109.157 177.504 107.735C177.054 105.425 177.063 105.354 176.93 104.574C176.682 100.265 176.428 86.9867 175.513 79.6974C175.143 75.1393 174.361 69.4052 173.958 66.6539C173.425 61.5871 172.815 56.5203 171.294 51.6359C170.237 48.3923 168.67 44.6054 165.857 42.567C163.719 41.5679 161.753 44.496 163.452 46.1351C168.999 52.1919 168.093 60.258 168.162 70.6814C168.614 75.7245 168.545 80.8077 169.115 85.8381C169.724 91.2221 170.694 95.2022 171.103 104.771C171.121 108.842 170.703 110.798 171.796 115.203C171.734 114.992 171.728 115.085 171.858 115.914C171.943 116.334 172.038 116.753 172.166 117.161C172.175 117.218 172.186 117.276 172.199 117.346C172.344 117.659 172.467 117.998 172.622 118.317C173.438 120.37 176.66 120.345 177.373 118.188C177.479 117.914 177.55 117.623 177.639 117.346C177.677 117.099 177.699 116.924 177.714 116.81C177.739 116.602 177.756 116.392 177.772 116.182C177.856 115.293 177.931 114.716 178.006 112.189Z" fill="#0F0202"/>
</g>
<g opacity="0.1294">
<path d="M280.727 19.0236C279.945 18.1922 278.426 18.8158 278.463 19.9608C278.486 21.1495 277.321 23.961 276.681 26.0176C275.212 30.1089 272.016 33.3926 266.819 35.8102C265.064 36.4921 260.788 37.3855 256.874 37.2707C256.035 37.2542 254.795 36.9005 252.872 36.5031C252.376 36.3663 251.831 36.4374 251.387 36.6981C249.942 37.4803 250.241 39.8341 251.847 40.2206C258.445 42.3703 266.024 41.1232 272.012 37.7556C274.393 36.0345 276.855 34.111 277.948 31.2868C277.928 31.3761 277.75 31.7152 277.817 31.6259C278.743 30.1345 279.478 28.5245 280.018 26.8526C280.656 25.2828 280.908 22.5862 280.918 21.8187C280.966 20.9052 281.442 19.773 280.727 19.0236Z" fill="#0F0202"/>
</g>
<g opacity="0.1294">
<path d="M284.046 113.829C283.862 111.15 283.657 108.472 283.44 105.797C283.189 102.692 282.917 99.5911 282.64 96.4897C281.763 96.3512 280.824 96.5627 280.093 97.0859C279.984 89.514 279.683 81.9494 279.074 74.392C278.383 65.356 278.003 60.2546 276.911 56.3346C276.375 52.4621 275.602 50.5003 274.972 49.2112C274.016 46.9322 272.552 44.9193 270.9 43.0961C270.043 42.2556 269.391 40.8662 268.036 40.8754C266.315 40.8243 265.363 43.1052 266.621 44.2903C269.587 47.6323 269.611 48.5494 270.293 51.359C270.656 53.7912 270.722 53.8459 271.106 57.2226C271.146 57.9683 271.124 58.7176 271.141 59.4633C271.155 59.3649 271.176 59.2336 271.192 59.106C271.163 61.4579 271.766 63.8719 271.843 66.2494C272.085 74.104 272.419 81.9548 272.603 89.8112C272.864 97.4196 273.152 105.023 273.526 112.627C273.642 113.82 273.599 115.083 273.907 116.245C273.907 116.341 273.91 116.463 273.919 116.624C273.878 117.639 273.994 118.726 274.778 119.457C276.053 120.786 278.416 120.473 279.324 118.872C279.435 118.691 279.513 118.502 279.573 118.307C280.943 119.556 283.218 119.273 284.303 117.796C284.195 116.469 284.135 115.134 284.046 113.829Z" fill="#0F0202"/>
</g>
<path d="M55.6684 42.7623C52.9718 42.7623 50.2169 42.301 47.5769 41.3766C45.8375 40.7695 44.4975 40.0894 43.358 39.2416C41.0242 37.504 39.2793 34.8512 38.0249 31.1336C37.2482 28.8345 36.8471 26.7487 36.8015 24.7578C36.745 22.331 37.2045 19.7748 38.2054 16.9397C39.8974 12.1482 42.6122 8.1316 46.0509 5.3311C49.9946 2.11672 54.9099 0.557845 59.5337 1.03918C64.0626 1.51687 68.4512 4.6419 71.5744 9.61024C74.0157 13.4956 75.3103 18.3381 75.3176 23.6127C75.3212 25.7168 75.1188 27.5273 74.6976 29.1499C73.3357 34.4082 69.1605 39.0337 63.7983 41.2253C61.2896 42.2481 58.5127 42.7623 55.6684 42.7623ZM57.8509 3.73028C54.374 3.73028 50.7803 5.06125 47.8048 7.48617C44.7618 9.96578 42.346 13.5557 40.8236 17.8677C39.9375 20.3783 39.5292 22.6118 39.5784 24.6958C39.6185 26.4023 39.9703 28.2183 40.6558 30.2475C41.7242 33.4127 43.1501 35.6261 45.0171 37.0136C45.925 37.69 47.03 38.2425 48.4959 38.7548C53.2873 40.4322 58.4835 40.3957 62.7481 38.6545C67.3135 36.7893 70.8615 32.8803 72.0065 28.4535C72.3675 27.0623 72.5407 25.4797 72.5389 23.6164C72.5334 18.8632 71.3866 14.5312 69.2224 11.0871C67.9608 9.07969 64.4638 4.35384 59.242 3.80139C58.7826 3.75399 58.3176 3.73028 57.8509 3.73028Z" fill="#0F0202"/>
<path d="M59.3131 120.724C53.0302 120.724 46.4355 120.52 39.4324 120.112C38.6886 120.07 38.1124 119.448 38.1252 118.702C38.4698 98.4113 39.52 80.1442 41.3359 62.8508C41.9102 57.3883 42.6486 52.1137 45.3452 47.6249C47.9852 43.2309 53.5553 39.114 59.5538 40.4577C65.5504 41.8033 69.5177 47.7835 71.3501 58.2343C74.858 78.2389 76.468 98.7869 78.0232 118.66C78.0524 119.03 77.9321 119.395 77.6896 119.676C77.4471 119.957 77.1024 120.128 76.7341 120.153C71.1641 120.533 65.3863 120.724 59.3131 120.724ZM40.9257 117.413C53.4696 118.101 64.6954 118.121 75.1444 117.471C73.6256 98.1014 72.0174 78.1186 68.6135 58.7102C66.9944 49.4718 63.7417 44.2428 58.9466 43.167C54.5015 42.1679 49.9362 45.3732 47.7264 49.0525C45.3179 53.06 44.6578 57.8022 44.0999 63.1388C42.3296 79.971 41.2904 97.7367 40.9257 117.413Z" fill="#0F0202"/>
<path d="M44.9382 171.356H44.9364C44.1706 171.354 43.549 170.73 43.5508 169.965L43.6456 119.275C43.6474 118.509 44.2673 117.889 45.0331 117.889H45.0367C45.8025 117.891 46.4241 118.514 46.4223 119.28L46.3275 169.97C46.3238 170.734 45.704 171.356 44.9382 171.356Z" fill="#F5F5F5"/>
<path d="M71.3814 171.731C71.3796 171.731 71.3796 171.731 71.3814 171.731C70.612 171.731 69.9921 171.11 69.9921 170.342C70.0121 153.435 69.6457 136.287 68.9036 119.375C68.8708 118.609 69.4652 117.962 70.231 117.927C71.0022 117.895 71.644 118.489 71.6787 119.255C72.4207 136.207 72.7871 153.397 72.7689 170.346C72.7671 171.109 72.1472 171.731 71.3814 171.731Z" fill="#F5F5F5"/>
<path d="M42.3426 62.7542C41.9998 62.7542 41.659 62.6302 41.3909 62.3768C27.4559 49.2531 13.8472 35.4292 0.942295 21.2882C0.426317 20.723 0.466449 19.8441 1.03165 19.3263C1.59686 18.8122 2.47564 18.8505 2.99344 19.4157C15.8491 33.5057 29.4086 47.2785 43.2944 60.3548C43.8523 60.8799 43.8796 61.7587 43.3527 62.3184C43.0811 62.6083 42.7109 62.7542 42.3426 62.7542Z" fill="#F5F5F5"/>
<path d="M70.8358 64.5774C70.5605 64.5774 70.2815 64.4972 70.039 64.3258C69.4118 63.8864 69.2586 63.0204 69.698 62.3914C80.4005 47.1272 91.8158 32.0727 103.629 17.6472C104.114 17.0546 104.991 16.9653 105.583 17.4539C106.176 17.9389 106.263 18.814 105.776 19.4066C94.0074 33.7792 82.6358 48.7772 71.9716 63.9849C71.7036 64.3714 71.2752 64.5774 70.8358 64.5774Z" fill="#F5F5F5"/>
<path d="M158.403 42.7621C155.706 42.7621 152.951 42.3009 150.311 41.3765C148.573 40.7693 147.232 40.0911 146.092 39.2415C143.757 37.5021 142.012 34.8511 140.757 31.1335C139.982 28.8362 139.581 26.7504 139.534 24.7576C139.477 22.3309 139.937 19.7729 140.938 16.9395C142.632 12.1481 145.345 8.13146 148.783 5.33096C152.729 2.11658 157.642 0.559528 162.268 1.03904C166.795 1.51673 171.184 4.63994 174.307 9.6101C176.748 13.4954 178.043 18.3361 178.05 23.6126C178.054 25.7166 177.851 27.5271 177.43 29.1498C176.066 34.408 171.893 39.0354 166.532 41.2251C164.026 42.248 161.247 42.7621 158.403 42.7621ZM160.585 3.73014C157.106 3.73014 153.515 5.06111 150.537 7.48603C147.494 9.96564 145.078 13.5556 143.556 17.8676C142.67 20.3763 142.263 22.6098 142.313 24.6956C142.353 26.404 142.704 28.2199 143.388 30.2474C144.457 33.4107 145.882 35.6241 147.749 37.0135C148.659 37.6899 149.764 38.2441 151.228 38.7546C156.022 40.432 161.216 40.3956 165.482 38.6544C170.046 36.7892 173.596 32.8801 174.743 28.4533C175.104 27.0622 175.277 25.4796 175.275 23.6163C175.268 18.8631 174.121 14.531 171.957 11.0869C170.695 9.07955 167.198 4.3537 161.978 3.80125C161.517 3.75385 161.052 3.73014 160.585 3.73014Z" fill="#0F0202"/>
<path d="M162.051 120.724C155.768 120.724 149.174 120.52 142.171 120.111C141.427 120.069 140.849 119.448 140.862 118.702C141.206 98.4056 142.256 80.1349 144.072 62.8505C144.647 57.3863 145.387 52.108 148.082 47.6246C150.723 43.2306 156.29 39.1137 162.29 40.4575C168.287 41.803 172.254 47.7833 174.087 58.2341C177.594 78.2478 179.204 98.7921 180.76 118.66C180.789 119.03 180.668 119.395 180.426 119.676C180.183 119.956 179.839 120.128 179.471 120.153C173.902 120.532 168.123 120.724 162.051 120.724ZM143.662 117.413C156.208 118.1 167.432 118.12 177.882 117.471C176.364 98.1048 174.756 78.1257 171.352 58.7099C169.733 49.4716 166.48 44.2425 161.683 43.1668C157.234 42.1677 152.674 45.3729 150.463 49.0522C148.056 53.0561 147.396 57.8001 146.834 63.1404C145.066 79.9635 144.027 97.7292 143.662 117.413Z" fill="#0F0202"/>
<path d="M147.675 171.355C146.909 171.354 146.285 170.73 146.287 169.964L146.382 119.274C146.384 118.509 147.004 117.889 147.771 117.889H147.773C148.539 117.891 149.161 118.514 149.159 119.28L149.066 169.97C149.062 170.734 148.44 171.355 147.675 171.355Z" fill="#F5F5F5"/>
<path d="M174.12 171.731C174.118 171.731 174.118 171.731 174.12 171.731C173.352 171.731 172.73 171.109 172.73 170.342C172.751 153.428 172.384 136.28 171.642 119.375C171.609 118.609 172.204 117.962 172.969 117.927C173.728 117.896 174.382 118.489 174.417 119.255C175.161 136.2 175.527 153.391 175.507 170.345C175.507 171.109 174.885 171.731 174.12 171.731Z" fill="#F5F5F5"/>
<path d="M145.085 62.7541C144.742 62.7541 144.401 62.6301 144.133 62.3766C130.2 49.2566 116.591 35.4309 103.684 21.288C103.168 20.7228 103.208 19.844 103.775 19.3262C104.341 18.8121 105.219 18.8504 105.737 19.4156C118.597 33.5074 132.156 47.2802 146.038 60.3547C146.596 60.8798 146.623 61.7586 146.097 62.3183C145.821 62.6082 145.453 62.7541 145.085 62.7541Z" fill="#F5F5F5"/>
<path d="M173.574 64.5773C173.299 64.5773 173.02 64.4971 172.777 64.3257C172.15 63.8863 171.997 63.0203 172.436 62.3913C183.139 47.1271 194.554 32.0725 206.367 17.647C206.852 17.0545 207.729 16.9651 208.321 17.4538C208.914 17.9388 209.003 18.8139 208.515 19.4065C196.746 33.7791 185.372 48.7771 174.71 63.9848C174.442 64.3713 174.012 64.5773 173.574 64.5773Z" fill="#F5F5F5"/>
<path d="M262.124 42.7623C259.427 42.7623 256.672 42.301 254.032 41.3766C252.293 40.7695 250.953 40.0894 249.811 39.2416C247.477 37.5022 245.733 34.8512 244.478 31.1336C243.702 28.8345 243.301 26.7487 243.255 24.7578C243.197 22.331 243.656 19.7748 244.659 16.9397C246.351 12.1482 249.064 8.1316 252.504 5.3311C256.45 2.11672 261.362 0.557845 265.989 1.03918C270.518 1.51687 274.905 4.6419 278.028 9.61024C280.469 13.4937 281.764 18.3363 281.773 23.6127C281.776 25.7131 281.572 27.5254 281.151 29.1499C279.789 34.4082 275.614 39.0356 270.253 41.2253C267.745 42.2481 264.966 42.7623 262.124 42.7623ZM264.306 3.73028C260.827 3.73028 257.236 5.06125 254.258 7.48617C251.215 9.96578 248.801 13.5557 247.277 17.8677C246.389 20.3783 245.982 22.6118 246.032 24.6958C246.072 26.4023 246.424 28.2183 247.109 30.2475C248.176 33.4109 249.603 35.6243 251.47 37.0136C252.378 37.69 253.483 38.2425 254.949 38.7548C259.741 40.4322 264.937 40.3957 269.201 38.6545C273.767 36.7893 277.315 32.8803 278.462 28.4535C278.823 27.0605 278.996 25.4779 278.994 23.6164C278.987 18.8632 277.84 14.5312 275.676 11.0871C274.414 9.07969 270.917 4.35384 265.697 3.80139C265.236 3.75399 264.771 3.73028 264.306 3.73028Z" fill="#0F0202"/>
<path d="M265.77 120.724C259.487 120.724 252.893 120.52 245.891 120.112C245.147 120.07 244.569 119.448 244.582 118.702C244.925 98.4168 245.975 80.1479 247.793 62.8508C248.367 57.3884 249.106 52.1137 251.802 47.6249C254.442 43.2309 260.016 39.1176 266.011 40.4577C272.006 41.8033 275.975 47.7835 277.805 58.2343C281.313 78.239 282.923 98.7869 284.478 118.66C284.508 119.03 284.387 119.395 284.145 119.676C283.902 119.957 283.558 120.128 283.189 120.153C277.621 120.533 271.842 120.724 265.77 120.724ZM247.383 117.413C259.927 118.101 271.151 118.121 281.601 117.471C280.083 98.1014 278.474 78.1186 275.07 58.7102C273.451 49.4718 270.199 44.2428 265.404 43.1671C260.953 42.1679 256.393 45.3732 254.183 49.0525C251.775 53.06 251.115 57.8022 250.555 63.1389C248.785 79.9747 247.747 97.7422 247.383 117.413Z" fill="#0F0202"/>
<path d="M251.395 171.356H251.393C250.628 171.354 250.006 170.73 250.008 169.965L250.103 119.275C250.104 118.509 250.724 117.889 251.492 117.889C252.258 117.891 252.881 118.515 252.879 119.28L252.785 169.97C252.783 170.734 252.161 171.356 251.395 171.356Z" fill="#F5F5F5"/>
<path d="M277.837 171.731C277.069 171.731 276.447 171.109 276.447 170.342C276.467 153.415 276.101 136.267 275.359 119.375C275.326 118.609 275.92 117.962 276.686 117.927C277.434 117.896 278.101 118.489 278.134 119.255C278.876 136.189 279.242 153.376 279.224 170.345C279.224 171.109 278.602 171.731 277.837 171.731Z" fill="#F5F5F5"/>
<path d="M248.802 62.7541C248.459 62.7541 248.118 62.6301 247.85 62.3766C233.915 49.2529 220.306 35.4291 207.401 21.288C206.885 20.7228 206.925 19.844 207.492 19.3262C208.057 18.8121 208.936 18.8504 209.454 19.4156C222.31 33.5056 235.869 47.2784 249.755 60.3547C250.315 60.8798 250.34 61.7586 249.813 62.3183C249.538 62.6082 249.17 62.7541 248.802 62.7541Z" fill="#F5F5F5"/>
<path d="M277.291 64.5774C277.016 64.5774 276.737 64.4972 276.494 64.3258C275.867 63.8864 275.714 63.0204 276.153 62.3914C286.859 47.1235 298.275 32.069 310.086 17.6472C310.572 17.0546 311.448 16.9653 312.04 17.4539C312.633 17.9389 312.722 18.814 312.233 19.4066C300.466 33.7756 289.093 48.7736 278.427 63.9849C278.159 64.3714 277.728 64.5774 277.291 64.5774Z" fill="#F5F5F5"/>
<path d="M311.301 173.662L1.41667 173.605C0.649089 173.605 0 172.984 0 172.216C0 171.45 0.594381 170.827 1.36014 170.827H1.41667L311.301 170.883C312.068 170.883 312.69 171.505 312.69 172.273C312.69 173.04 312.068 173.662 311.301 173.662Z" fill="#F5F5F5"/>
<path d="M39.6557 191.322C38.9082 191.322 38.292 190.728 38.2683 189.975C38.2446 189.207 38.848 188.569 39.6138 188.545C126.34 185.931 214.301 185.229 301.052 186.448C301.82 186.459 302.432 187.09 302.421 187.856C302.411 188.616 301.791 189.225 301.032 189.225C301.027 189.225 301.019 189.225 301.012 189.225C214.302 188.004 126.382 188.709 39.6977 191.32C39.6849 191.322 39.6703 191.322 39.6557 191.322Z" fill="#F5F5F5"/>
<path d="M130.254 210.046C130.245 210.046 130.238 210.046 130.227 210.046L64.6941 208.856C63.9284 208.841 63.3175 208.209 63.3303 207.441C63.3449 206.683 63.9629 206.077 64.7177 206.077C64.7269 206.077 64.7342 206.077 64.7451 206.077L130.28 207.268C131.046 207.282 131.656 207.915 131.644 208.681C131.629 209.443 131.009 210.046 130.254 210.046Z" fill="#F5F5F5"/>
</svg>
