<svg width="1687" height="915" viewBox="0 0 1687 915" fill="none" xmlns="http://www.w3.org/2000/svg">
<g opacity="0.8" filter="url(#filter0_f_1_5140)">
<path fill-rule="evenodd" clip-rule="evenodd" d="M449.061 370.582C473.724 373.161 499.451 359.601 520.49 373.946C545.875 391.254 566.552 419.586 568.86 452.265C571.295 486.74 556.698 521.582 532.483 543.733C509.854 564.432 477.803 568.984 449.061 561.852C425.142 555.916 412.633 530.157 396.43 509.973C381.915 491.892 366.283 475.669 361.088 452.265C354 420.331 339.697 378.673 362.572 357.433C385.662 335.994 418.941 367.432 449.061 370.582Z" fill="#EC2227"/>
</g>
<path d="M1396.79 582C1396.79 584.946 1399.18 587.333 1402.12 587.333C1405.07 587.333 1407.46 584.946 1407.46 582C1407.46 579.054 1405.07 576.667 1402.12 576.667C1399.18 576.667 1396.79 579.054 1396.79 582ZM1196.12 583H1198.1V581H1196.12V583ZM1202.07 583H1206.03V581H1202.07V583ZM1209.99 583H1213.95V581H1209.99V583ZM1217.91 583H1221.87V581H1217.91V583ZM1225.84 583H1229.8V581H1225.84V583ZM1233.76 583H1237.72V581H1233.76V583ZM1241.68 583H1245.64V581H1241.68V583ZM1249.6 583H1253.57V581H1249.6V583ZM1257.53 583H1261.49V581H1257.53V583ZM1265.45 583H1269.41V581H1265.45V583ZM1273.37 583H1277.34V581H1273.37V583ZM1281.3 583H1285.26V581H1281.3V583ZM1289.22 583H1293.18V581H1289.22V583ZM1297.14 583H1301.1V581H1297.14V583ZM1305.07 583H1309.03V581H1305.07V583ZM1312.99 583H1316.95V581H1312.99V583ZM1320.91 583H1324.87V581H1320.91V583ZM1328.84 583H1332.8V581H1328.84V583ZM1336.76 583H1340.72V581H1336.76V583ZM1344.68 583H1348.64V581H1344.68V583ZM1352.6 583H1356.57V581H1352.6V583ZM1360.53 583H1364.49V581H1360.53V583ZM1368.45 583H1372.41V581H1368.45V583ZM1376.37 583H1380.34V581H1376.37V583ZM1384.3 583H1388.26V581H1384.3V583ZM1392.22 583H1396.18V581H1392.22V583ZM1400.14 583H1402.12V581H1400.14V583Z" fill="#F5F5F5"/>
<path d="M903.457 565C903.457 567.946 901.07 570.333 898.124 570.333C895.179 570.333 892.791 567.946 892.791 565C892.791 562.054 895.179 559.667 898.124 559.667C901.07 559.667 903.457 562.054 903.457 565ZM1104.12 566H1102.14V564H1104.12V566ZM1098.18 566H1094.22V564H1098.18V566ZM1090.26 566H1086.3V564H1090.26V566ZM1082.34 566H1078.37V564H1082.34V566ZM1074.41 566H1070.45V564H1074.41V566ZM1066.49 566H1062.53V564H1066.49V566ZM1058.57 566H1054.6V564H1058.57V566ZM1050.64 566H1046.68V564H1050.64V566ZM1042.72 566H1038.76V564H1042.72V566ZM1034.8 566H1030.84V564H1034.8V566ZM1026.87 566H1022.91V564H1026.87V566ZM1018.95 566H1014.99V564H1018.95V566ZM1011.03 566H1007.07V564H1011.03V566ZM1003.1 566H999.143V564H1003.1V566ZM995.182 566H991.22V564H995.182V566ZM987.259 566H983.297V564H987.259V566ZM979.336 566H975.374V564H979.336V566ZM971.412 566H967.451V564H971.412V566ZM963.489 566H959.528V564H963.489V566ZM955.566 566H951.605V564H955.566V566ZM947.643 566H943.682V564H947.643V566ZM939.72 566H935.759V564H939.72V566ZM931.797 566H927.836V564H931.797V566ZM923.874 566H919.913V564H923.874V566ZM915.951 566H911.989V564H915.951V566ZM908.028 566H904.066V564H908.028V566ZM900.105 566H898.124V564H900.105V566Z" fill="#F5F5F5"/>
<g filter="url(#filter1_d_1_5140)">
<rect x="1487.3" y="424" width="56" height="56" rx="16" transform="rotate(1.20102 1487.3 424)" fill="#241F1F" shape-rendering="crispEdges"/>
<path d="M1506.83 457.206L1502.14 452.316L1518.02 437.091L1527.6 437.292L1506.83 457.206ZM1527.3 451.642L1517.72 451.442L1514.05 454.954L1518.74 459.844" fill="#42A5F5" fill-opacity="0.8"/>
<path d="M1513.85 464.532L1517.37 468.195L1526.94 468.396L1518.74 459.844" fill="#0D47A1"/>
<path d="M1509.17 459.646L1514.06 454.963L1518.74 459.846L1513.86 464.529L1509.17 459.646Z" fill="#42A5F5"/>
<path d="M1513.86 464.529L1518.74 459.847L1519.39 460.528L1514.51 465.21L1513.86 464.529Z" fill="url(#paint0_linear_1_5140)"/>
<path d="M1513.85 464.532L1521.01 462.226L1518.74 459.843" fill="url(#paint1_linear_1_5140)"/>
</g>
<g filter="url(#filter2_d_1_5140)">
<rect x="806.124" y="345" width="56" height="56" rx="16" fill="#241F1F" shape-rendering="crispEdges"/>
<path d="M832.902 357.475H837.986V380.777C835.382 381.269 833.464 381.463 831.39 381.463C825.181 381.457 821.949 378.683 821.949 373.355C821.949 368.221 825.377 364.89 830.69 364.89C831.515 364.89 832.143 364.955 832.902 365.149V357.475ZM833.08 369.348C832.484 369.154 831.994 369.089 831.366 369.089C828.794 369.089 827.309 370.658 827.309 373.406C827.309 376.083 828.729 377.56 831.333 377.56C831.896 377.56 832.354 377.529 833.08 377.431V369.348V369.348Z" fill="#2BA977"/>
<path d="M846.299 365.516V377.182C846.299 381.2 845.998 383.132 845.115 384.798C844.291 386.4 843.205 387.409 840.96 388.525L836.243 386.302C838.487 385.259 839.573 384.337 840.267 382.931C840.993 381.493 841.222 379.827 841.222 375.445V365.516H846.299V365.516ZM840.71 357.475H845.794V362.641H840.71V357.475Z" fill="#2BA977"/>
</g>
<g filter="url(#filter3_d_1_5140)">
<rect x="626.124" y="444" width="56" height="56" rx="16" fill="#241F1F" shape-rendering="crispEdges"/>
<path d="M640.78 472C640.78 477.282 643.849 481.846 648.301 484.01L641.935 466.569C641.172 468.278 640.778 470.128 640.78 472V472ZM663.133 471.326C663.133 469.677 662.54 468.535 662.032 467.646C661.356 466.547 660.722 465.616 660.722 464.517C660.722 463.29 661.652 462.148 662.963 462.148C663.022 462.148 663.078 462.155 663.136 462.159C660.762 459.984 657.598 458.656 654.124 458.656C649.462 458.656 645.361 461.048 642.975 464.67C643.288 464.68 643.583 464.686 643.833 464.686C645.229 464.686 647.39 464.517 647.39 464.517C648.109 464.474 648.194 465.531 647.476 465.616C647.476 465.616 646.752 465.701 645.948 465.743L650.808 480.198L653.728 471.439L651.649 465.743C650.93 465.701 650.249 465.616 650.249 465.616C649.53 465.574 649.615 464.474 650.334 464.517C650.334 464.517 652.538 464.686 653.849 464.686C655.244 464.686 657.405 464.517 657.405 464.517C658.125 464.474 658.21 465.531 657.491 465.616C657.491 465.616 656.766 465.701 655.963 465.743L660.786 480.088L662.117 475.64C662.694 473.794 663.133 472.469 663.133 471.326V471.326Z" fill="#00749A"/>
<path d="M654.358 473.167L650.355 484.801C651.579 485.162 652.848 485.345 654.124 485.345C655.678 485.345 657.169 485.076 658.556 484.588C658.519 484.53 658.487 484.469 658.461 484.405L654.358 473.167ZM665.834 465.597C665.891 466.022 665.923 466.479 665.923 466.969C665.923 468.324 665.671 469.846 664.909 471.749L660.833 483.534C664.8 481.221 667.468 476.923 667.468 472C667.472 469.762 666.91 467.559 665.834 465.597V465.597Z" fill="#00749A"/>
<path d="M654.124 456.444C645.547 456.444 638.569 463.422 638.569 472C638.569 480.578 645.547 487.556 654.124 487.556C662.701 487.556 669.681 480.578 669.681 472C669.681 463.422 662.701 456.444 654.124 456.444ZM654.124 486.843C645.94 486.843 639.282 480.184 639.282 472C639.282 463.816 645.94 457.158 654.124 457.158C662.308 457.158 668.966 463.816 668.966 472C668.966 480.184 662.308 486.843 654.124 486.843Z" fill="#00749A"/>
</g>
<g filter="url(#filter4_d_1_5140)">
<rect x="692.124" y="663" width="56" height="56" rx="16" fill="#241F1F" shape-rendering="crispEdges"/>
<path d="M735.68 675.444H720.189L705.397 691H720.097L720.166 690.93L735.68 675.444Z" fill="url(#paint2_linear_1_5140)"/>
<path d="M735.68 706.556H704.568H735.68ZM720.166 690.93L720.097 691H720.236L720.166 690.93Z" fill="url(#paint3_linear_1_5140)"/>
<path d="M720.189 675.444H704.568V691.871V691H705.397L720.189 675.444Z" fill="url(#paint4_linear_1_5140)"/>
<path d="M720.097 691H705.397L704.568 691.871V706.556L720.097 691Z" fill="url(#paint5_linear_1_5140)"/>
<path d="M720.236 691H720.097L704.568 706.556H735.68L720.236 691Z" fill="url(#paint6_linear_1_5140)"/>
<path d="M705.397 691H704.568V691.871L705.397 691Z" fill="url(#paint7_linear_1_5140)"/>
</g>
<g filter="url(#filter5_d_1_5140)">
<rect x="1620.12" y="480.85" width="56" height="56" rx="16" fill="#241F1F" shape-rendering="crispEdges"/>
<path d="M1642.94 524.406C1645.8 524.406 1648.12 522.083 1648.12 519.22V514.035H1642.94C1640.08 514.035 1637.75 516.358 1637.75 519.22C1637.75 522.083 1640.08 524.406 1642.94 524.406Z" fill="#0ACF83"/>
<path d="M1637.75 508.85C1637.75 505.988 1640.08 503.665 1642.94 503.665H1648.12V514.035H1642.94C1640.08 514.035 1637.75 511.712 1637.75 508.85Z" fill="#A259FF"/>
<path d="M1637.75 498.48C1637.75 495.618 1640.08 493.295 1642.94 493.295H1648.12V503.665H1642.94C1640.08 503.665 1637.75 501.342 1637.75 498.48Z" fill="#F24E1E"/>
<path d="M1648.12 493.295H1653.31C1656.17 493.295 1658.49 495.618 1658.49 498.48C1658.49 501.342 1656.17 503.665 1653.31 503.665H1648.12V493.295Z" fill="#FF7262"/>
<path d="M1658.49 508.85C1658.49 511.712 1656.17 514.035 1653.31 514.035C1650.45 514.035 1648.12 511.712 1648.12 508.85C1648.12 505.988 1650.45 503.665 1653.31 503.665C1656.17 503.665 1658.49 505.988 1658.49 508.85Z" fill="#1ABCFE"/>
</g>
<g filter="url(#filter6_d_1_5140)">
<rect x="1544.12" y="642" width="56" height="56" rx="16" fill="#241F1F" shape-rendering="crispEdges"/>
<path d="M1572.12 672.743C1573.64 672.743 1574.87 671.515 1574.87 670C1574.87 668.485 1573.64 667.257 1572.12 667.257C1570.61 667.257 1569.38 668.485 1569.38 670C1569.38 671.515 1570.61 672.743 1572.12 672.743Z" fill="#61DAFB"/>
<path fill-rule="evenodd" clip-rule="evenodd" d="M1559.23 668.555C1558.61 669.116 1558.41 669.606 1558.41 670C1558.41 670.394 1558.61 670.884 1559.23 671.445C1559.85 672.006 1560.81 672.556 1562.07 673.039C1564.6 674.003 1568.15 674.619 1572.12 674.619C1576.1 674.619 1579.65 674.003 1582.17 673.039C1583.44 672.556 1584.39 672.006 1585.01 671.445C1585.64 670.884 1585.84 670.394 1585.84 670C1585.84 669.606 1585.64 669.116 1585.01 668.555C1584.39 667.994 1583.44 667.444 1582.17 666.961C1579.65 665.997 1576.1 665.381 1572.12 665.381C1568.15 665.381 1564.6 665.997 1562.07 666.961C1560.81 667.444 1559.85 667.994 1559.23 668.555ZM1561.36 665.092C1564.16 664.022 1567.97 663.381 1572.12 663.381C1576.28 663.381 1580.08 664.022 1582.89 665.092C1584.29 665.626 1585.49 666.286 1586.36 667.07C1587.22 667.854 1587.84 668.843 1587.84 670C1587.84 671.157 1587.22 672.146 1586.36 672.93C1585.49 673.714 1584.29 674.374 1582.89 674.908C1580.08 675.978 1576.28 676.619 1572.12 676.619C1567.97 676.619 1564.16 675.978 1561.36 674.908C1559.96 674.374 1558.76 673.714 1557.89 672.93C1557.02 672.146 1556.41 671.157 1556.41 670C1556.41 668.843 1557.02 667.854 1557.89 667.07C1558.76 666.286 1559.96 665.626 1561.36 665.092Z" fill="#61DAFB"/>
<path fill-rule="evenodd" clip-rule="evenodd" d="M1566.93 658.114C1566.13 657.856 1565.61 657.923 1565.27 658.12C1564.92 658.317 1564.6 658.74 1564.43 659.559C1564.25 660.377 1564.25 661.479 1564.47 662.816C1564.89 665.483 1566.14 668.868 1568.12 672.31C1570.11 675.752 1572.42 678.52 1574.52 680.223C1575.57 681.077 1576.52 681.629 1577.32 681.886C1578.11 682.144 1578.64 682.077 1578.98 681.88C1579.32 681.683 1579.65 681.26 1579.82 680.441C1580 679.623 1580 678.521 1579.78 677.184C1579.35 674.517 1578.11 671.132 1576.12 667.69C1574.14 664.248 1571.83 661.48 1569.73 659.777C1568.68 658.923 1567.73 658.371 1566.93 658.114ZM1570.99 658.225C1573.32 660.117 1575.78 663.093 1577.86 666.69C1579.93 670.288 1581.28 673.904 1581.76 676.868C1581.99 678.346 1582.02 679.716 1581.78 680.86C1581.53 682.004 1580.99 683.033 1579.98 683.612C1578.98 684.191 1577.82 684.149 1576.7 683.789C1575.59 683.429 1574.42 682.72 1573.26 681.775C1570.93 679.883 1568.47 676.907 1566.39 673.31C1564.31 669.712 1562.97 666.096 1562.49 663.132C1562.26 661.654 1562.23 660.284 1562.47 659.14C1562.72 657.996 1563.26 656.967 1564.27 656.388C1565.27 655.809 1566.43 655.851 1567.55 656.211C1568.66 656.571 1569.83 657.28 1570.99 658.225Z" fill="#61DAFB"/>
<path fill-rule="evenodd" clip-rule="evenodd" d="M1579.82 659.559C1579.65 658.74 1579.32 658.317 1578.98 658.12C1578.64 657.923 1578.11 657.856 1577.32 658.114C1576.52 658.371 1575.57 658.923 1574.52 659.777C1572.42 661.48 1570.11 664.248 1568.12 667.69C1566.14 671.132 1564.89 674.517 1564.47 677.184C1564.25 678.521 1564.25 679.623 1564.43 680.441C1564.6 681.26 1564.92 681.683 1565.27 681.88C1565.61 682.077 1566.13 682.144 1566.93 681.886C1567.73 681.629 1568.68 681.077 1569.73 680.223C1571.83 678.52 1574.14 675.751 1576.12 672.31C1578.11 668.868 1579.35 665.483 1579.78 662.816C1580 661.479 1580 660.377 1579.82 659.559ZM1581.76 663.132C1581.28 666.096 1579.93 669.712 1577.86 673.31C1575.78 676.907 1573.32 679.883 1570.99 681.775C1569.83 682.72 1568.66 683.429 1567.55 683.789C1566.43 684.149 1565.27 684.191 1564.27 683.612C1563.26 683.033 1562.72 682.004 1562.47 680.86C1562.23 679.716 1562.26 678.346 1562.49 676.868C1562.97 673.904 1564.31 670.288 1566.39 666.69C1568.47 663.093 1570.93 660.117 1573.26 658.225C1574.42 657.28 1575.59 656.571 1576.7 656.211C1577.82 655.851 1578.98 655.809 1579.98 656.388C1580.99 656.967 1581.53 657.996 1581.78 659.14C1582.02 660.284 1581.99 661.654 1581.76 663.132Z" fill="#61DAFB"/>
</g>
<g filter="url(#filter7_d_1_5140)">
<rect x="1430.12" y="562" width="56" height="56" rx="16" fill="#241F1F" shape-rendering="crispEdges"/>
<path d="M1473.1 581.543C1473.11 581.584 1473.12 581.626 1473.12 581.669V588.306C1473.12 588.392 1473.09 588.475 1473.05 588.549C1473.01 588.623 1472.95 588.684 1472.87 588.726L1467.3 591.934V598.291C1467.3 598.464 1467.21 598.623 1467.06 598.711L1455.43 605.405C1455.4 605.42 1455.38 605.43 1455.35 605.44C1455.34 605.443 1455.33 605.45 1455.31 605.453C1455.23 605.475 1455.15 605.475 1455.07 605.453C1455.05 605.449 1455.04 605.442 1455.03 605.437C1455 605.428 1454.97 605.419 1454.95 605.405L1443.32 598.711C1443.25 598.668 1443.19 598.607 1443.14 598.533C1443.1 598.46 1443.08 598.376 1443.08 598.291V578.379C1443.08 578.335 1443.08 578.293 1443.1 578.252C1443.1 578.238 1443.11 578.225 1443.11 578.211C1443.12 578.186 1443.13 578.16 1443.14 578.136C1443.15 578.121 1443.17 578.108 1443.18 578.093C1443.19 578.074 1443.2 578.054 1443.22 578.037C1443.23 578.023 1443.25 578.013 1443.27 578.001C1443.28 577.986 1443.3 577.971 1443.32 577.959H1443.32L1449.13 574.612C1449.21 574.57 1449.29 574.547 1449.38 574.547C1449.46 574.547 1449.54 574.57 1449.62 574.612L1455.43 577.959H1455.43C1455.45 577.971 1455.47 577.986 1455.49 578C1455.5 578.012 1455.52 578.023 1455.53 578.037C1455.55 578.054 1455.56 578.074 1455.58 578.093C1455.59 578.108 1455.6 578.121 1455.61 578.136C1455.62 578.161 1455.63 578.186 1455.64 578.211C1455.65 578.225 1455.65 578.238 1455.66 578.252C1455.67 578.294 1455.68 578.336 1455.68 578.379V590.816L1460.52 588.026V581.669C1460.52 581.626 1460.53 581.583 1460.54 581.543C1460.54 581.528 1460.55 581.515 1460.55 581.502C1460.56 581.476 1460.57 581.45 1460.58 581.427C1460.59 581.411 1460.61 581.398 1460.62 581.384C1460.63 581.364 1460.64 581.344 1460.66 581.327C1460.67 581.313 1460.69 581.303 1460.71 581.291C1460.73 581.277 1460.74 581.261 1460.76 581.249H1460.76L1466.58 577.902C1466.65 577.86 1466.73 577.837 1466.82 577.837C1466.9 577.837 1466.99 577.86 1467.06 577.902L1472.87 581.249C1472.89 581.261 1472.91 581.277 1472.93 581.29C1472.94 581.303 1472.96 581.313 1472.97 581.327C1472.99 581.344 1473 581.364 1473.02 581.384C1473.03 581.398 1473.04 581.411 1473.05 581.427C1473.06 581.45 1473.07 581.476 1473.08 581.502C1473.09 581.515 1473.1 581.528 1473.1 581.543V581.543ZM1472.15 588.026V582.507L1470.11 583.678L1467.3 585.296V590.816L1472.15 588.026H1472.15ZM1466.33 598.011V592.488L1463.57 594.067L1455.67 598.572V604.147L1466.33 598.011ZM1444.05 579.217V598.011L1454.71 604.146V598.573L1449.14 595.422L1449.14 595.42L1449.13 595.419C1449.11 595.408 1449.1 595.393 1449.08 595.379C1449.07 595.367 1449.05 595.357 1449.04 595.344L1449.03 595.342C1449.02 595.327 1449.01 595.308 1448.99 595.292C1448.98 595.275 1448.97 595.261 1448.96 595.244L1448.96 595.243C1448.95 595.224 1448.94 595.203 1448.93 595.182C1448.92 595.164 1448.91 595.147 1448.91 595.128V595.127C1448.9 595.104 1448.9 595.08 1448.9 595.056C1448.9 595.038 1448.89 595.02 1448.89 595.002V582.006L1446.08 580.387L1444.05 579.217V579.217ZM1449.38 575.591L1444.53 578.379L1449.38 581.167L1454.22 578.378L1449.38 575.591H1449.38ZM1451.9 592.991L1454.71 591.373V579.217L1452.67 580.388L1449.86 582.006V594.163L1451.9 592.991ZM1466.82 578.881L1461.97 581.669L1466.82 584.457L1471.66 581.669L1466.82 578.881ZM1466.33 585.296L1463.52 583.678L1461.49 582.507V588.026L1464.3 589.644L1466.33 590.816V585.296ZM1455.19 597.734L1462.29 593.679L1465.84 591.652L1461 588.866L1455.43 592.074L1450.35 594.998L1455.19 597.734Z" fill="#FF2D20"/>
</g>
<g filter="url(#filter8_d_1_5140)">
<rect x="794.124" y="534" width="56" height="56" rx="16" fill="#241F1F" shape-rendering="crispEdges"/>
<path d="M810.902 574.455L808.406 546.444H835.842L833.346 574.44L822.101 577.556" fill="#E44D26"/>
<path d="M822.124 575.174V548.744H833.339L831.199 572.64" fill="#F16529"/>
<path d="M813.503 552.169H822.124V555.602H817.269L817.587 559.119H822.124V562.545H814.441L813.503 552.169ZM814.592 564.269H818.04L818.282 567.014L822.124 568.042V571.627L815.076 569.661" fill="#EBEBEB"/>
<path d="M830.715 552.169H822.109V555.602H830.397L830.715 552.169ZM830.087 559.119H822.109V562.552H826.344L825.943 567.014L822.109 568.042V571.612L829.142 569.661" fill="#1E2235"/>
</g>
<path d="M1189.12 449V448H1188.12V449H1189.12ZM1460.79 449C1460.79 451.946 1463.18 454.333 1466.12 454.333C1469.07 454.333 1471.46 451.946 1471.46 449C1471.46 446.054 1469.07 443.667 1466.12 443.667C1463.18 443.667 1460.79 446.054 1460.79 449ZM1190.12 505V503H1188.12V505H1190.12ZM1190.12 499V495H1188.12V499H1190.12ZM1190.12 491V487H1188.12V491H1190.12ZM1190.12 483V479H1188.12V483H1190.12ZM1190.12 475V471H1188.12V475H1190.12ZM1190.12 467V463H1188.12V467H1190.12ZM1190.12 459V455H1188.12V459H1190.12ZM1190.12 451V449H1188.12V451H1190.12ZM1189.12 450H1191.1V448H1189.12V450ZM1195.06 450H1199.02V448H1195.06V450ZM1202.97 450H1206.93V448H1202.97V450ZM1210.89 450H1214.85V448H1210.89V450ZM1218.8 450H1222.76V448H1218.8V450ZM1226.72 450H1230.67V448H1226.72V450ZM1234.63 450H1238.59V448H1234.63V450ZM1242.55 450H1246.5V448H1242.55V450ZM1250.46 450H1254.42V448H1250.46V450ZM1258.37 450H1262.33V448H1258.37V450ZM1266.29 450H1270.25V448H1266.29V450ZM1274.2 450H1278.16V448H1274.2V450ZM1282.12 450H1286.07V448H1282.12V450ZM1290.03 450H1293.99V448H1290.03V450ZM1297.95 450H1301.9V448H1297.95V450ZM1305.86 450H1309.82V448H1305.86V450ZM1313.77 450H1317.73V448H1313.77V450ZM1321.69 450H1325.65V448H1321.69V450ZM1329.6 450H1333.56V448H1329.6V450ZM1337.52 450H1341.47V448H1337.52V450ZM1345.43 450H1349.39V448H1345.43V450ZM1353.35 450H1357.3V448H1353.35V450ZM1361.26 450H1365.22V448H1361.26V450ZM1369.17 450H1373.13V448H1369.17V450ZM1377.09 450H1381.05V448H1377.09V450ZM1385 450H1388.96V448H1385V450ZM1392.92 450H1396.87V448H1392.92V450ZM1400.83 450H1404.79V448H1400.83V450ZM1408.75 450H1412.7V448H1408.75V450ZM1416.66 450H1420.62V448H1416.66V450ZM1424.57 450H1428.53V448H1424.57V450ZM1432.49 450H1436.45V448H1432.49V450ZM1440.4 450H1444.36V448H1440.4V450ZM1448.32 450H1452.27V448H1448.32V450ZM1456.23 450H1460.19V448H1456.23V450ZM1464.15 450H1466.12V448H1464.15V450Z" fill="url(#paint8_linear_1_5140)"/>
<path d="M1240.12 508V507H1239.12V508H1240.12ZM1594.79 508C1594.79 510.946 1597.18 513.333 1600.12 513.333C1603.07 513.333 1605.46 510.946 1605.46 508C1605.46 505.054 1603.07 502.667 1600.12 502.667C1597.18 502.667 1594.79 505.054 1594.79 508ZM1241.12 547V545.05H1239.12V547H1241.12ZM1241.12 541.15V537.25H1239.12V541.15H1241.12ZM1241.12 533.35V529.45H1239.12V533.35H1241.12ZM1241.12 525.55V521.65H1239.12V525.55H1241.12ZM1241.12 517.75V513.85H1239.12V517.75H1241.12ZM1241.12 509.95V508H1239.12V509.95H1241.12ZM1240.12 509H1242.12V507H1240.12V509ZM1246.12 509H1250.12V507H1246.12V509ZM1254.12 509H1258.12V507H1254.12V509ZM1262.12 509H1266.12V507H1262.12V509ZM1270.12 509H1274.12V507H1270.12V509ZM1278.12 509H1282.12V507H1278.12V509ZM1286.12 509H1290.12V507H1286.12V509ZM1294.12 509H1298.12V507H1294.12V509ZM1302.12 509H1306.12V507H1302.12V509ZM1310.12 509H1314.12V507H1310.12V509ZM1318.12 509H1322.12V507H1318.12V509ZM1326.12 509H1330.12V507H1326.12V509ZM1334.12 509H1338.12V507H1334.12V509ZM1342.12 509H1346.12V507H1342.12V509ZM1350.12 509H1354.12V507H1350.12V509ZM1358.12 509H1362.12V507H1358.12V509ZM1366.12 509H1370.12V507H1366.12V509ZM1374.12 509H1378.12V507H1374.12V509ZM1382.12 509H1386.12V507H1382.12V509ZM1390.12 509H1394.12V507H1390.12V509ZM1398.12 509H1402.12V507H1398.12V509ZM1406.12 509H1410.12V507H1406.12V509ZM1414.12 509H1418.12V507H1414.12V509ZM1422.12 509H1426.12V507H1422.12V509ZM1430.12 509H1434.12V507H1430.12V509ZM1438.12 509H1442.12V507H1438.12V509ZM1446.12 509H1450.12V507H1446.12V509ZM1454.12 509H1458.12V507H1454.12V509ZM1462.12 509H1466.12V507H1462.12V509ZM1470.12 509H1474.12V507H1470.12V509ZM1478.12 509H1482.12V507H1478.12V509ZM1486.12 509H1490.12V507H1486.12V509ZM1494.12 509H1498.12V507H1494.12V509ZM1502.12 509H1506.12V507H1502.12V509ZM1510.12 509H1514.12V507H1510.12V509ZM1518.12 509H1522.12V507H1518.12V509ZM1526.12 509H1530.12V507H1526.12V509ZM1534.12 509H1538.12V507H1534.12V509ZM1542.12 509H1546.12V507H1542.12V509ZM1550.12 509H1554.12V507H1550.12V509ZM1558.12 509H1562.12V507H1558.12V509ZM1566.12 509H1570.12V507H1566.12V509ZM1574.12 509H1578.12V507H1574.12V509ZM1582.12 509H1586.12V507H1582.12V509ZM1590.12 509H1594.12V507H1590.12V509ZM1598.12 509H1600.12V507H1598.12V509Z" fill="url(#paint9_linear_1_5140)"/>
<path d="M1114.12 474V473H1115.12V474H1114.12ZM725.457 474C725.457 476.946 723.07 479.333 720.124 479.333C717.178 479.333 714.791 476.946 714.791 474C714.791 471.054 717.178 468.667 720.124 468.667C723.07 468.667 725.457 471.054 725.457 474ZM1113.12 530V528H1115.12V530H1113.12ZM1113.12 524V520H1115.12V524H1113.12ZM1113.12 516V512H1115.12V516H1113.12ZM1113.12 508V504H1115.12V508H1113.12ZM1113.12 500V496H1115.12V500H1113.12ZM1113.12 492V488H1115.12V492H1113.12ZM1113.12 484V480H1115.12V484H1113.12ZM1113.12 476V474H1115.12V476H1113.12ZM1114.12 475H1112.11V473H1114.12V475ZM1108.09 475H1104.07V473H1108.09V475ZM1100.05 475H1096.03V473H1100.05V475ZM1092.01 475H1087.99V473H1092.01V475ZM1083.97 475H1079.95V473H1083.97V475ZM1075.93 475H1071.91V473H1075.93V475ZM1067.89 475H1063.87V473H1067.89V475ZM1059.85 475H1055.83V473H1059.85V475ZM1051.81 475H1047.79V473H1051.81V475ZM1043.77 475H1039.75V473H1043.77V475ZM1035.73 475H1031.71V473H1035.73V475ZM1027.69 475H1023.66V473H1027.69V475ZM1019.64 475H1015.62V473H1019.64V475ZM1011.6 475H1007.58V473H1011.6V475ZM1003.56 475H999.542V473H1003.56V475ZM995.522 475H991.502V473H995.522V475ZM987.481 475H983.461V473H987.481V475ZM979.44 475H975.42V473H979.44V475ZM971.4 475H967.379V473H971.4V475ZM963.359 475H959.338V473H963.359V475ZM955.318 475H951.298V473H955.318V475ZM947.277 475H943.257V473H947.277V475ZM939.236 475H935.216V473H939.236V475ZM931.196 475H927.175V473H931.196V475ZM923.155 475H919.134V473H923.155V475ZM915.114 475H911.094V473H915.114V475ZM907.073 475H903.053V473H907.073V475ZM899.032 475H895.012V473H899.032V475ZM890.992 475H886.971V473H890.992V475ZM882.951 475H878.93V473H882.951V475ZM874.91 475H870.89V473H874.91V475ZM866.869 475H862.849V473H866.869V475ZM858.828 475H854.808V473H858.828V475ZM850.788 475H846.767V473H850.788V475ZM842.747 475H838.726V473H842.747V475ZM834.706 475H830.685V473H834.706V475ZM826.665 475H822.645V473H826.665V475ZM818.624 475H814.604V473H818.624V475ZM810.583 475H806.563V473H810.583V475ZM802.543 475H798.522V473H802.543V475ZM794.502 475H790.481V473H794.502V475ZM786.461 475H782.44V473H786.461V475ZM778.42 475H774.4V473H778.42V475ZM770.379 475H766.359V473H770.379V475ZM762.338 475H758.318V473H762.338V475ZM754.298 475H750.277V473H754.298V475ZM746.257 475H742.236V473H746.257V475ZM738.216 475H734.195V473H738.216V475ZM730.175 475H726.155V473H730.175V475ZM722.134 475H720.124V473H722.134V475Z" fill="url(#paint10_linear_1_5140)"/>
<path d="M1167.12 373V372H1168.12V373H1167.12ZM895.457 373C895.457 375.946 893.07 378.333 890.124 378.333C887.179 378.333 884.791 375.946 884.791 373C884.791 370.054 887.179 367.667 890.124 367.667C893.07 367.667 895.457 370.054 895.457 373ZM1166.12 505V503.059H1168.12V505H1166.12ZM1166.12 499.176V495.294H1168.12V499.176H1166.12ZM1166.12 491.412V487.529H1168.12V491.412H1166.12ZM1166.12 483.647V479.765H1168.12V483.647H1166.12ZM1166.12 475.882V472H1168.12V475.882H1166.12ZM1166.12 468.118V464.235H1168.12V468.118H1166.12ZM1166.12 460.353V456.471H1168.12V460.353H1166.12ZM1166.12 452.588V448.706H1168.12V452.588H1166.12ZM1166.12 444.824V440.941H1168.12V444.824H1166.12ZM1166.12 437.059V433.176H1168.12V437.059H1166.12ZM1166.12 429.294V425.412H1168.12V429.294H1166.12ZM1166.12 421.529V417.647H1168.12V421.529H1166.12ZM1166.12 413.765V409.882H1168.12V413.765H1166.12ZM1166.12 406V402.118H1168.12V406H1166.12ZM1166.12 398.235V394.353H1168.12V398.235H1166.12ZM1166.12 390.471V386.588H1168.12V390.471H1166.12ZM1166.12 382.706V378.823H1168.12V382.706H1166.12ZM1166.12 374.941V373H1168.12V374.941H1166.12ZM1167.12 374H1165.15V372H1167.12V374ZM1161.19 374H1157.23V372H1161.19V374ZM1153.27 374H1149.32V372H1153.27V374ZM1145.36 374H1141.4V372H1145.36V374ZM1137.45 374H1133.49V372H1137.45V374ZM1129.53 374H1125.57V372H1129.53V374ZM1121.62 374H1117.66V372H1121.62V374ZM1113.7 374H1109.75V372H1113.7V374ZM1105.79 374H1101.83V372H1105.79V374ZM1097.87 374H1093.92V372H1097.87V374ZM1089.96 374H1086V372H1089.96V374ZM1082.05 374H1078.09V372H1082.05V374ZM1074.13 374H1070.17V372H1074.13V374ZM1066.22 374H1062.26V372H1066.22V374ZM1058.3 374H1054.35V372H1058.3V374ZM1050.39 374H1046.43V372H1050.39V374ZM1042.47 374H1038.52V372H1042.47V374ZM1034.56 374H1030.6V372H1034.56V374ZM1026.65 374H1022.69V372H1026.65V374ZM1018.73 374H1014.77V372H1018.73V374ZM1010.82 374H1006.86V372H1010.82V374ZM1002.9 374H998.945V372H1002.9V374ZM994.988 374H991.031V372H994.988V374ZM987.074 374H983.117V372H987.074V374ZM979.16 374H975.203V372H979.16V374ZM971.245 374H967.288V372H971.245V374ZM963.331 374H959.374V372H963.331V374ZM955.417 374H951.46V372H955.417V374ZM947.503 374H943.546V372H947.503V374ZM939.588 374H935.631V372H939.588V374ZM931.674 374H927.717V372H931.674V374ZM923.76 374H919.803V372H923.76V374ZM915.846 374H911.888V372H915.846V374ZM907.931 374H903.974V372H907.931V374ZM900.017 374H896.06V372H900.017V374ZM892.103 374H890.124V372H892.103V374Z" fill="url(#paint11_linear_1_5140)"/>
<path d="M1236.12 672V673H1235.12V672H1236.12ZM1507.79 672C1507.79 669.054 1510.18 666.667 1513.12 666.667C1516.07 666.667 1518.46 669.054 1518.46 672C1518.46 674.946 1516.07 677.333 1513.12 677.333C1510.18 677.333 1507.79 674.946 1507.79 672ZM1237.12 616V618H1235.12V616H1237.12ZM1237.12 622V626H1235.12V622H1237.12ZM1237.12 630V634H1235.12V630H1237.12ZM1237.12 638V642H1235.12V638H1237.12ZM1237.12 646V650H1235.12V646H1237.12ZM1237.12 654V658H1235.12V654H1237.12ZM1237.12 662V666H1235.12V662H1237.12ZM1237.12 670V672H1235.12V670H1237.12ZM1236.12 671H1238.1V673H1236.12V671ZM1242.06 671H1246.02V673H1242.06V671ZM1249.97 671H1253.93V673H1249.97V671ZM1257.89 671H1261.85V673H1257.89V671ZM1265.8 671H1269.76V673H1265.8V671ZM1273.72 671H1277.67V673H1273.72V671ZM1281.63 671H1285.59V673H1281.63V671ZM1289.55 671H1293.5V673H1289.55V671ZM1297.46 671H1301.42V673H1297.46V671ZM1305.37 671H1309.33V673H1305.37V671ZM1313.29 671H1317.25V673H1313.29V671ZM1321.2 671H1325.16V673H1321.2V671ZM1329.12 671H1333.07V673H1329.12V671ZM1337.03 671H1340.99V673H1337.03V671ZM1344.95 671H1348.9V673H1344.95V671ZM1352.86 671H1356.82V673H1352.86V671ZM1360.77 671H1364.73V673H1360.77V671ZM1368.69 671H1372.65V673H1368.69V671ZM1376.6 671H1380.56V673H1376.6V671ZM1384.52 671H1388.47V673H1384.52V671ZM1392.43 671H1396.39V673H1392.43V671ZM1400.35 671H1404.3V673H1400.35V671ZM1408.26 671H1412.22V673H1408.26V671ZM1416.17 671H1420.13V673H1416.17V671ZM1424.09 671H1428.05V673H1424.09V671ZM1432 671H1435.96V673H1432V671ZM1439.92 671H1443.87V673H1439.92V671ZM1447.83 671H1451.79V673H1447.83V671ZM1455.75 671H1459.7V673H1455.75V671ZM1463.66 671H1467.62V673H1463.66V671ZM1471.57 671H1475.53V673H1471.57V671ZM1479.49 671H1483.45V673H1479.49V671ZM1487.4 671H1491.36V673H1487.4V671ZM1495.32 671H1499.27V673H1495.32V671ZM1503.23 671H1507.19V673H1503.23V671ZM1511.15 671H1513.12V673H1511.15V671Z" fill="url(#paint12_linear_1_5140)"/>
<path d="M1139.12 693V694H1140.12V693H1139.12ZM783.457 693C783.457 690.054 781.07 687.667 778.124 687.667C775.178 687.667 772.791 690.054 772.791 693C772.791 695.946 775.178 698.333 778.124 698.333C781.07 698.333 783.457 695.946 783.457 693ZM1138.12 616V617.925H1140.12V616H1138.12ZM1138.12 621.775V625.625H1140.12V621.775H1138.12ZM1138.12 629.475V633.325H1140.12V629.475H1138.12ZM1138.12 637.175V641.025H1140.12V637.175H1138.12ZM1138.12 644.875V648.725H1140.12V644.875H1138.12ZM1138.12 652.575V656.425H1140.12V652.575H1138.12ZM1138.12 660.275V664.125H1140.12V660.275H1138.12ZM1138.12 667.975V671.825H1140.12V667.975H1138.12ZM1138.12 675.675V679.525H1140.12V675.675H1138.12ZM1138.12 683.375V687.225H1140.12V683.375H1138.12ZM1138.12 691.075V693H1140.12V691.075H1138.12ZM1139.12 692H1137.12V694H1139.12V692ZM1133.11 692H1129.1V694H1133.11V692ZM1125.09 692H1121.07V694H1125.09V692ZM1117.06 692H1113.05V694H1117.06V692ZM1109.04 692H1105.03V694H1109.04V692ZM1101.02 692H1097.01V694H1101.02V692ZM1093 692H1088.99V694H1093V692ZM1084.97 692H1080.96V694H1084.97V692ZM1076.95 692H1072.94V694H1076.95V692ZM1068.93 692H1064.92V694H1068.93V692ZM1060.91 692H1056.9V694H1060.91V692ZM1052.89 692H1048.87V694H1052.89V692ZM1044.86 692H1040.85V694H1044.86V692ZM1036.84 692H1032.83V694H1036.84V692ZM1028.82 692H1024.81V694H1028.82V692ZM1020.8 692H1016.79V694H1020.8V692ZM1012.77 692H1008.76V694H1012.77V692ZM1004.75 692H1000.74V694H1004.75V692ZM996.73 692H992.719V694H996.73V692ZM988.707 692H984.696V694H988.707V692ZM980.685 692H976.674V694H980.685V692ZM972.663 692H968.652V694H972.663V692ZM964.641 692H960.63V694H964.641V692ZM956.619 692H952.607V694H956.619V692ZM948.596 692H944.585V694H948.596V692ZM940.574 692H936.563V694H940.574V692ZM932.552 692H928.541V694H932.552V692ZM924.53 692H920.519V694H924.53V692ZM916.507 692H912.496V694H916.507V692ZM908.485 692H904.474V694H908.485V692ZM900.463 692H896.452V694H900.463V692ZM892.441 692H888.43V694H892.441V692ZM884.419 692H880.407V694H884.419V692ZM876.396 692H872.385V694H876.396V692ZM868.374 692H864.363V694H868.374V692ZM860.352 692H856.341V694H860.352V692ZM852.33 692H848.319V694H852.33V692ZM844.307 692H840.296V694H844.307V692ZM836.285 692H832.274V694H836.285V692ZM828.263 692H824.252V694H828.263V692ZM820.241 692H816.23V694H820.241V692ZM812.219 692H808.208V694H812.219V692ZM804.196 692H800.185V694H804.196V692ZM796.174 692H792.163V694H796.174V692ZM788.152 692H784.141V694H788.152V692ZM780.13 692H778.124V694H780.13V692Z" fill="url(#paint13_linear_1_5140)"/>
<path d="M1144.12 550.852C1140.77 549.712 1137.9 549.027 1137.9 546.551C1137.9 544.596 1139.37 543.097 1142.17 543.097C1144.55 543.097 1146.37 544.042 1147.67 546.029L1152.37 542.477C1149.89 539.936 1147.02 538.046 1142.14 538.046C1136.27 538.046 1132.03 541.891 1132.03 546.779C1132.03 552.579 1136.56 554.144 1140.67 555.48C1143.89 556.49 1147.02 557.304 1147.02 559.879C1147.02 561.997 1145.39 563.985 1142.4 563.985C1139.59 563.985 1137.25 562.518 1135.72 559.846L1130.53 563.952C1133.34 567.081 1136.95 569.427 1142.43 569.427C1149.11 569.427 1152.95 564.734 1152.95 559.944C1152.92 554.013 1148.26 552.188 1144.12 550.852Z" fill="white"/>
<path d="M1167.94 543.977C1160.87 543.977 1155.27 549.582 1155.27 556.718C1155.27 563.724 1160.87 569.427 1167.94 569.427C1174.95 569.427 1180.59 563.757 1180.59 556.718C1180.59 549.582 1174.95 543.977 1167.94 543.977ZM1167.94 564.116C1163.9 564.116 1160.84 560.759 1160.84 556.718C1160.84 552.58 1163.9 549.288 1167.94 549.288C1171.95 549.288 1175.05 552.58 1175.05 556.718C1175.05 560.792 1171.95 564.116 1167.94 564.116Z" fill="white"/>
<path d="M1203.23 536.905L1197.56 540.783V545.443H1202.62V550.494H1197.56V558.738C1197.56 566.494 1199.88 568.938 1207.44 568.938H1208.22V563.626C1203.89 563.626 1203.23 562.942 1203.23 558.706V550.494H1208.22V545.443H1203.23V536.905Z" fill="white"/>
<path d="M1245.7 537.883H1240.03V568.808H1245.7V537.883Z" fill="white"/>
<path d="M1288.78 553.981C1285.09 553.199 1283.17 552.775 1283.17 551.146C1283.17 549.777 1284.41 548.506 1287.11 548.506C1289.46 548.506 1291.29 549.582 1292.3 551.309L1297.09 548.897C1295.2 545.769 1292.07 543.846 1287.11 543.846C1281.31 543.846 1277.5 547.398 1277.5 551.309C1277.5 556.457 1281.9 557.793 1286.07 558.673C1289.07 559.358 1291.81 559.684 1291.81 561.476C1291.81 563.105 1290.44 564.441 1287.64 564.441C1284.96 564.441 1282.91 563.203 1281.74 560.889L1276.52 563.398C1278.48 567.244 1281.9 569.329 1287.37 569.329C1294.35 569.329 1297.41 564.767 1297.41 561.345C1297.41 556.197 1292.82 554.763 1288.78 553.981Z" fill="white"/>
<path d="M1231.03 556.913C1230.8 560.759 1227.81 563.822 1223.96 563.822C1220.05 563.822 1217.05 560.693 1216.86 556.816V545.508H1211.28V556.392V556.425V556.816C1211.48 563.659 1217.02 569.133 1223.93 569.133C1226.57 569.133 1229.01 568.319 1231 566.983V568.156C1231 568.221 1231 568.319 1231 568.384V569.133C1230.9 572.783 1228.26 575.814 1224.78 576.237V581.549C1231.33 581.125 1236.44 575.749 1236.57 569.101V556.392V556.359V545.475H1231V556.913H1231.03Z" fill="white"/>
<path d="M1188.18 546.421C1188.18 546.355 1188.18 546.29 1188.18 546.193V545.476C1188.28 542.021 1190.76 539.186 1194.05 538.763V533.744C1187.89 534.168 1183.03 539.219 1182.93 545.476V568.612H1188.18V557.077C1188.34 553.688 1190.79 550.918 1194.05 550.494V545.476C1191.86 545.606 1189.88 546.355 1188.18 547.496V546.421Z" fill="white"/>
<path d="M1269.03 556.393C1269.03 560.466 1265.96 563.822 1261.96 563.822C1258.05 563.822 1255.05 560.694 1254.85 556.816V545.509H1249.28V556.393V556.425V556.816C1249.48 563.659 1255.02 569.134 1261.92 569.134C1268.93 569.134 1274.57 563.464 1274.57 556.425V556.393V545.509H1269V556.393H1269.03Z" fill="white"/>
<path d="M1142.33 583.805V585.374H1137.45V598.847H1135.76V585.374H1130.86V583.805H1142.33ZM1154.47 593.518C1154.47 593.819 1154.47 593.948 1154.45 594.313H1146.61C1146.72 596.698 1147.68 597.644 1149.9 597.644C1151.55 597.644 1152.22 597.236 1152.69 595.903L1154.24 596.505C1153.53 598.289 1151.79 599.062 1149.9 599.062C1146.87 599.062 1144.91 596.999 1144.91 593.797C1144.91 590.66 1147 588.533 1149.81 588.533C1152.54 588.533 1154.47 590.424 1154.47 593.518ZM1149.79 589.929C1147.86 589.929 1146.82 590.896 1146.63 592.959H1152.82C1152.69 590.789 1151.83 589.929 1149.79 589.929ZM1165.27 597.579C1167.05 597.579 1168.02 596.892 1168.45 594.678L1170.12 595.13C1169.5 597.773 1167.69 599.062 1165.29 599.062C1162.19 599.062 1160.06 596.956 1160.06 593.797C1160.06 590.639 1162.19 588.533 1165.29 588.533C1167.69 588.533 1169.5 589.822 1170.12 592.465L1168.45 592.916C1168.02 590.703 1167.05 590.015 1165.27 590.015C1162.88 590.015 1161.76 591.219 1161.76 593.797C1161.76 596.376 1162.88 597.579 1165.27 597.579ZM1181.91 588.533C1184.27 588.533 1185.59 589.951 1185.59 592.487V598.847H1183.93V592.594C1183.93 590.939 1182.94 590.037 1181.44 590.037C1179.46 590.037 1178.21 591.563 1178.21 594.184V598.847H1176.56V583.805H1178.21V591.24C1178.71 589.65 1179.78 588.533 1181.91 588.533ZM1198.13 588.533C1200.5 588.533 1201.81 589.951 1201.81 592.487V598.847H1200.15V592.594C1200.15 590.939 1199.17 590.037 1197.66 590.037C1195.68 590.037 1194.44 591.563 1194.44 594.184V598.847H1192.78V588.748H1194.44V591.24C1194.93 589.65 1196.01 588.533 1198.13 588.533ZM1213.37 588.533C1216.27 588.533 1218.59 590.639 1218.59 593.797C1218.59 596.956 1216.27 599.062 1213.37 599.062C1210.47 599.062 1208.15 596.956 1208.15 593.797C1208.15 590.639 1210.47 588.533 1213.37 588.533ZM1213.37 597.558C1215.75 597.558 1216.89 596.355 1216.89 593.797C1216.89 591.24 1215.75 590.037 1213.37 590.037C1210.98 590.037 1209.84 591.24 1209.84 593.797C1209.84 596.355 1210.98 597.558 1213.37 597.558ZM1225.04 598.847V583.805H1226.69V598.847H1225.04ZM1238.36 588.533C1241.27 588.533 1243.59 590.639 1243.59 593.797C1243.59 596.956 1241.27 599.062 1238.36 599.062C1235.46 599.062 1233.14 596.956 1233.14 593.797C1233.14 590.639 1235.46 588.533 1238.36 588.533ZM1238.36 597.558C1240.75 597.558 1241.89 596.355 1241.89 593.797C1241.89 591.24 1240.75 590.037 1238.36 590.037C1235.98 590.037 1234.84 591.24 1234.84 593.797C1234.84 596.355 1235.98 597.558 1238.36 597.558ZM1257.47 588.748H1259.13V598.375C1259.13 600.975 1257.26 602.715 1254.21 602.715C1251.63 602.715 1250.02 601.791 1249.31 599.857L1250.9 599.105C1251.48 600.824 1252.14 601.254 1254.21 601.254C1256.53 601.254 1257.47 600.33 1257.47 598.375V596.29C1256.78 597.622 1255.52 598.439 1253.84 598.439C1251.13 598.439 1249.18 596.398 1249.18 593.497C1249.18 590.574 1251.13 588.533 1253.84 588.533C1255.52 588.533 1256.78 589.349 1257.47 590.682V588.748ZM1254.21 596.913C1256.5 596.913 1257.6 595.817 1257.6 593.497C1257.6 591.154 1256.53 590.037 1254.25 590.037C1251.95 590.037 1250.87 591.154 1250.87 593.497C1250.87 595.817 1251.95 596.913 1254.21 596.913ZM1267.29 586.255C1266.51 586.255 1266.06 585.804 1266.04 585.03C1266.02 584.278 1266.47 583.87 1267.29 583.87C1268.04 583.87 1268.47 584.278 1268.49 585.03C1268.51 585.804 1268.08 586.255 1267.29 586.255ZM1266.43 598.847V588.748H1268.08V598.847H1266.43ZM1284.09 593.518C1284.09 593.819 1284.09 593.948 1284.07 594.313H1276.23C1276.34 596.698 1277.3 597.644 1279.52 597.644C1281.17 597.644 1281.84 597.236 1282.31 595.903L1283.86 596.505C1283.15 598.289 1281.41 599.062 1279.52 599.062C1276.49 599.062 1274.53 596.999 1274.53 593.797C1274.53 590.66 1276.62 588.533 1279.43 588.533C1282.16 588.533 1284.09 590.424 1284.09 593.518ZM1279.41 589.929C1277.47 589.929 1276.44 590.896 1276.25 592.959H1282.44C1282.31 590.789 1281.45 589.929 1279.41 589.929ZM1293.94 599.062C1291.75 599.062 1290.11 598.031 1289.64 595.946L1291.27 595.409C1291.55 597.042 1292.37 597.601 1294.05 597.601C1295.57 597.601 1296.3 597.171 1296.3 596.226C1296.3 595.366 1296 595.065 1294.78 594.829L1292.8 594.442C1291.34 594.163 1289.98 593.432 1289.98 591.563C1289.98 589.736 1291.47 588.533 1293.7 588.533C1295.64 588.533 1297.33 589.306 1297.76 591.735L1296.13 592.186C1295.92 590.273 1295.1 589.994 1293.77 589.994C1292.33 589.994 1291.66 590.445 1291.66 591.434C1291.66 592.25 1291.96 592.637 1292.89 592.809L1295.42 593.303C1296.9 593.583 1297.94 594.335 1297.94 595.946C1297.94 597.816 1296.34 599.062 1293.94 599.062Z" fill="white"/>
<g filter="url(#filter9_d_1_5140)">
<path d="M1111.76 542.15L1091.17 530.255L1065.26 565.026L1073.77 571.673V586.957L1051.51 570.24C1049.68 568.871 1049.29 566.264 1050.66 564.439L1080.64 524.194C1077.64 522.565 1073.99 522.597 1071.03 524.325L1040.17 542.15C1037.11 543.909 1035.25 547.168 1035.25 550.687V586.305C1035.25 589.824 1037.14 593.083 1040.17 594.843L1060.67 606.672L1086.67 572.618L1078.43 566.883V552.219L1100.26 567.47C1102.21 568.838 1102.64 571.51 1101.17 573.4L1071.13 612.765C1074.16 614.427 1077.84 614.427 1080.84 612.668L1111.7 594.843C1114.76 593.083 1116.62 589.824 1116.62 586.305V550.687C1116.68 547.168 1114.79 543.909 1111.76 542.15Z" fill="#EC2227"/>
</g>
<defs>
<filter id="filter0_f_1_5140" x="0.124023" y="0" width="919" height="915" filterUnits="userSpaceOnUse" color-interpolation-filters="sRGB">
<feFlood flood-opacity="0" result="BackgroundImageFix"/>
<feBlend mode="normal" in="SourceGraphic" in2="BackgroundImageFix" result="shape"/>
<feGaussianBlur stdDeviation="175" result="effect1_foregroundBlur_1_5140"/>
</filter>
<filter id="filter1_d_1_5140" x="1476.12" y="418" width="77.1614" height="77.1615" filterUnits="userSpaceOnUse" color-interpolation-filters="sRGB">
<feFlood flood-opacity="0" result="BackgroundImageFix"/>
<feColorMatrix in="SourceAlpha" type="matrix" values="0 0 0 0 0 0 0 0 0 0 0 0 0 0 0 0 0 0 127 0" result="hardAlpha"/>
<feOffset dy="4"/>
<feGaussianBlur stdDeviation="5"/>
<feComposite in2="hardAlpha" operator="out"/>
<feColorMatrix type="matrix" values="0 0 0 0 0 0 0 0 0 0 0 0 0 0 0 0 0 0 0.4 0"/>
<feBlend mode="normal" in2="BackgroundImageFix" result="effect1_dropShadow_1_5140"/>
<feBlend mode="normal" in="SourceGraphic" in2="effect1_dropShadow_1_5140" result="shape"/>
</filter>
<filter id="filter2_d_1_5140" x="796.124" y="339" width="76" height="76" filterUnits="userSpaceOnUse" color-interpolation-filters="sRGB">
<feFlood flood-opacity="0" result="BackgroundImageFix"/>
<feColorMatrix in="SourceAlpha" type="matrix" values="0 0 0 0 0 0 0 0 0 0 0 0 0 0 0 0 0 0 127 0" result="hardAlpha"/>
<feOffset dy="4"/>
<feGaussianBlur stdDeviation="5"/>
<feComposite in2="hardAlpha" operator="out"/>
<feColorMatrix type="matrix" values="0 0 0 0 0 0 0 0 0 0 0 0 0 0 0 0 0 0 0.4 0"/>
<feBlend mode="normal" in2="BackgroundImageFix" result="effect1_dropShadow_1_5140"/>
<feBlend mode="normal" in="SourceGraphic" in2="effect1_dropShadow_1_5140" result="shape"/>
</filter>
<filter id="filter3_d_1_5140" x="616.124" y="438" width="76" height="76" filterUnits="userSpaceOnUse" color-interpolation-filters="sRGB">
<feFlood flood-opacity="0" result="BackgroundImageFix"/>
<feColorMatrix in="SourceAlpha" type="matrix" values="0 0 0 0 0 0 0 0 0 0 0 0 0 0 0 0 0 0 127 0" result="hardAlpha"/>
<feOffset dy="4"/>
<feGaussianBlur stdDeviation="5"/>
<feComposite in2="hardAlpha" operator="out"/>
<feColorMatrix type="matrix" values="0 0 0 0 0 0 0 0 0 0 0 0 0 0 0 0 0 0 0.4 0"/>
<feBlend mode="normal" in2="BackgroundImageFix" result="effect1_dropShadow_1_5140"/>
<feBlend mode="normal" in="SourceGraphic" in2="effect1_dropShadow_1_5140" result="shape"/>
</filter>
<filter id="filter4_d_1_5140" x="682.124" y="657" width="76" height="76" filterUnits="userSpaceOnUse" color-interpolation-filters="sRGB">
<feFlood flood-opacity="0" result="BackgroundImageFix"/>
<feColorMatrix in="SourceAlpha" type="matrix" values="0 0 0 0 0 0 0 0 0 0 0 0 0 0 0 0 0 0 127 0" result="hardAlpha"/>
<feOffset dy="4"/>
<feGaussianBlur stdDeviation="5"/>
<feComposite in2="hardAlpha" operator="out"/>
<feColorMatrix type="matrix" values="0 0 0 0 0 0 0 0 0 0 0 0 0 0 0 0 0 0 0.4 0"/>
<feBlend mode="normal" in2="BackgroundImageFix" result="effect1_dropShadow_1_5140"/>
<feBlend mode="normal" in="SourceGraphic" in2="effect1_dropShadow_1_5140" result="shape"/>
</filter>
<filter id="filter5_d_1_5140" x="1610.12" y="474.85" width="76" height="76" filterUnits="userSpaceOnUse" color-interpolation-filters="sRGB">
<feFlood flood-opacity="0" result="BackgroundImageFix"/>
<feColorMatrix in="SourceAlpha" type="matrix" values="0 0 0 0 0 0 0 0 0 0 0 0 0 0 0 0 0 0 127 0" result="hardAlpha"/>
<feOffset dy="4"/>
<feGaussianBlur stdDeviation="5"/>
<feComposite in2="hardAlpha" operator="out"/>
<feColorMatrix type="matrix" values="0 0 0 0 0 0 0 0 0 0 0 0 0 0 0 0 0 0 0.4 0"/>
<feBlend mode="normal" in2="BackgroundImageFix" result="effect1_dropShadow_1_5140"/>
<feBlend mode="normal" in="SourceGraphic" in2="effect1_dropShadow_1_5140" result="shape"/>
</filter>
<filter id="filter6_d_1_5140" x="1534.12" y="636" width="76" height="76" filterUnits="userSpaceOnUse" color-interpolation-filters="sRGB">
<feFlood flood-opacity="0" result="BackgroundImageFix"/>
<feColorMatrix in="SourceAlpha" type="matrix" values="0 0 0 0 0 0 0 0 0 0 0 0 0 0 0 0 0 0 127 0" result="hardAlpha"/>
<feOffset dy="4"/>
<feGaussianBlur stdDeviation="5"/>
<feComposite in2="hardAlpha" operator="out"/>
<feColorMatrix type="matrix" values="0 0 0 0 0 0 0 0 0 0 0 0 0 0 0 0 0 0 0.4 0"/>
<feBlend mode="normal" in2="BackgroundImageFix" result="effect1_dropShadow_1_5140"/>
<feBlend mode="normal" in="SourceGraphic" in2="effect1_dropShadow_1_5140" result="shape"/>
</filter>
<filter id="filter7_d_1_5140" x="1420.12" y="556" width="76" height="76" filterUnits="userSpaceOnUse" color-interpolation-filters="sRGB">
<feFlood flood-opacity="0" result="BackgroundImageFix"/>
<feColorMatrix in="SourceAlpha" type="matrix" values="0 0 0 0 0 0 0 0 0 0 0 0 0 0 0 0 0 0 127 0" result="hardAlpha"/>
<feOffset dy="4"/>
<feGaussianBlur stdDeviation="5"/>
<feComposite in2="hardAlpha" operator="out"/>
<feColorMatrix type="matrix" values="0 0 0 0 0 0 0 0 0 0 0 0 0 0 0 0 0 0 0.4 0"/>
<feBlend mode="normal" in2="BackgroundImageFix" result="effect1_dropShadow_1_5140"/>
<feBlend mode="normal" in="SourceGraphic" in2="effect1_dropShadow_1_5140" result="shape"/>
</filter>
<filter id="filter8_d_1_5140" x="784.124" y="528" width="76" height="76" filterUnits="userSpaceOnUse" color-interpolation-filters="sRGB">
<feFlood flood-opacity="0" result="BackgroundImageFix"/>
<feColorMatrix in="SourceAlpha" type="matrix" values="0 0 0 0 0 0 0 0 0 0 0 0 0 0 0 0 0 0 127 0" result="hardAlpha"/>
<feOffset dy="4"/>
<feGaussianBlur stdDeviation="5"/>
<feComposite in2="hardAlpha" operator="out"/>
<feColorMatrix type="matrix" values="0 0 0 0 0 0 0 0 0 0 0 0 0 0 0 0 0 0 0.4 0"/>
<feBlend mode="normal" in2="BackgroundImageFix" result="effect1_dropShadow_1_5140"/>
<feBlend mode="normal" in="SourceGraphic" in2="effect1_dropShadow_1_5140" result="shape"/>
</filter>
<filter id="filter9_d_1_5140" x="1023.27" y="511.026" width="105.319" height="114.947" filterUnits="userSpaceOnUse" color-interpolation-filters="sRGB">
<feFlood flood-opacity="0" result="BackgroundImageFix"/>
<feColorMatrix in="SourceAlpha" type="matrix" values="0 0 0 0 0 0 0 0 0 0 0 0 0 0 0 0 0 0 127 0" result="hardAlpha"/>
<feOffset/>
<feGaussianBlur stdDeviation="5.98684"/>
<feComposite in2="hardAlpha" operator="out"/>
<feColorMatrix type="matrix" values="0 0 0 0 0.92549 0 0 0 0 0.133333 0 0 0 0 0.152941 0 0 0 0.24 0"/>
<feBlend mode="normal" in2="BackgroundImageFix" result="effect1_dropShadow_1_5140"/>
<feBlend mode="normal" in="SourceGraphic" in2="effect1_dropShadow_1_5140" result="shape"/>
</filter>
<linearGradient id="paint0_linear_1_5140" x1="1516.3" y1="462.187" x2="1516.95" y2="462.868" gradientUnits="userSpaceOnUse">
<stop offset="0.2" stop-opacity="0.15"/>
<stop offset="0.85" stop-color="#616161" stop-opacity="0.01"/>
</linearGradient>
<linearGradient id="paint1_linear_1_5140" x1="1513.9" y1="462.138" x2="1521.01" y2="462.287" gradientUnits="userSpaceOnUse">
<stop offset="0.2" stop-opacity="0.55"/>
<stop offset="0.85" stop-color="#616161" stop-opacity="0.01"/>
</linearGradient>
<linearGradient id="paint2_linear_1_5140" x1="699.016" y1="703.876" x2="727.966" y2="674.925" gradientUnits="userSpaceOnUse">
<stop stop-color="#C757BC"/>
<stop offset="0.108" stop-color="#C757BC"/>
<stop offset="0.173" stop-color="#CD5CA9"/>
<stop offset="0.492" stop-color="#E8744F"/>
<stop offset="0.716" stop-color="#F88316"/>
<stop offset="0.823" stop-color="#FF8900"/>
<stop offset="1" stop-color="#FF8900"/>
</linearGradient>
<linearGradient id="paint3_linear_1_5140" x1="714.619" y1="712.16" x2="728.73" y2="698.049" gradientUnits="userSpaceOnUse">
<stop stop-color="#00AFFF"/>
<stop offset="0.296" stop-color="#00AFFF"/>
<stop offset="0.694" stop-color="#5282FF"/>
<stop offset="1" stop-color="#945DFF"/>
</linearGradient>
<linearGradient id="paint4_linear_1_5140" x1="704.24" y1="684.042" x2="714.139" y2="674.143" gradientUnits="userSpaceOnUse">
<stop stop-color="#00AFFF"/>
<stop offset="0.296" stop-color="#00AFFF"/>
<stop offset="0.694" stop-color="#5282FF"/>
<stop offset="1" stop-color="#945DFF"/>
</linearGradient>
<linearGradient id="paint5_linear_1_5140" x1="699.189" y1="704.049" x2="728.14" y2="675.099" gradientUnits="userSpaceOnUse">
<stop stop-color="#AD4CA4"/>
<stop offset="0.108" stop-color="#AD4CA4"/>
<stop offset="0.173" stop-color="#B25093"/>
<stop offset="0.492" stop-color="#CA6545"/>
<stop offset="0.716" stop-color="#D87213"/>
<stop offset="0.823" stop-color="#DE7700"/>
<stop offset="1" stop-color="#DE7700"/>
</linearGradient>
<linearGradient id="paint6_linear_1_5140" x1="714.619" y1="712.16" x2="728.73" y2="698.049" gradientUnits="userSpaceOnUse">
<stop stop-color="#0098DE"/>
<stop offset="0.296" stop-color="#0098DE"/>
<stop offset="0.694" stop-color="#4771DE"/>
<stop offset="1" stop-color="#8151DE"/>
</linearGradient>
<linearGradient id="paint7_linear_1_5140" x1="708.131" y1="687.933" x2="718.03" y2="678.033" gradientUnits="userSpaceOnUse">
<stop stop-color="#0098DE"/>
<stop offset="0.296" stop-color="#0098DE"/>
<stop offset="0.694" stop-color="#4771DE"/>
<stop offset="1" stop-color="#8151DE"/>
</linearGradient>
<linearGradient id="paint8_linear_1_5140" x1="1327.62" y1="449" x2="1327.62" y2="505" gradientUnits="userSpaceOnUse">
<stop stop-color="#F5F5F5"/>
<stop offset="1" stop-color="#F5F5F5" stop-opacity="0"/>
</linearGradient>
<linearGradient id="paint9_linear_1_5140" x1="1420.12" y1="508" x2="1420.12" y2="547" gradientUnits="userSpaceOnUse">
<stop stop-color="#F5F5F5"/>
<stop offset="1" stop-color="#F5F5F5" stop-opacity="0"/>
</linearGradient>
<linearGradient id="paint10_linear_1_5140" x1="917.124" y1="474" x2="917.124" y2="530" gradientUnits="userSpaceOnUse">
<stop stop-color="#F5F5F5"/>
<stop offset="1" stop-color="#F5F5F5" stop-opacity="0"/>
</linearGradient>
<linearGradient id="paint11_linear_1_5140" x1="1028.62" y1="373" x2="1028.62" y2="505" gradientUnits="userSpaceOnUse">
<stop stop-color="#F5F5F5"/>
<stop offset="1" stop-color="#F5F5F5" stop-opacity="0"/>
</linearGradient>
<linearGradient id="paint12_linear_1_5140" x1="1374.62" y1="672" x2="1374.62" y2="616" gradientUnits="userSpaceOnUse">
<stop stop-color="#F5F5F5"/>
<stop offset="1" stop-color="#F5F5F5" stop-opacity="0"/>
</linearGradient>
<linearGradient id="paint13_linear_1_5140" x1="958.624" y1="693" x2="958.624" y2="616" gradientUnits="userSpaceOnUse">
<stop stop-color="#F5F5F5"/>
<stop offset="1" stop-color="#F5F5F5" stop-opacity="0"/>
</linearGradient>
</defs>
</svg>
