<svg width="334" height="249" viewBox="0 0 334 249" fill="none" xmlns="http://www.w3.org/2000/svg">
<path d="M157.855 195.23H118.736V246.397H157.855V195.23Z" fill="#EC2227"/>
<path d="M157.859 248.131H118.74C117.783 248.131 117.006 247.353 117.006 246.397V195.228C117.006 194.272 117.783 193.494 118.74 193.494H157.859C158.815 193.494 159.593 194.272 159.593 195.228V246.397C159.593 247.353 158.817 248.131 157.859 248.131ZM120.474 244.662H156.124V196.963H120.474V244.662Z" fill="#0F0202"/>
<path d="M196.121 248.131H80.2343C79.2775 248.131 78.5 247.353 78.5 246.397C78.5 245.44 79.2775 244.662 80.2343 244.662H196.121C197.078 244.662 197.855 245.44 197.855 246.397C197.855 247.353 197.078 248.131 196.121 248.131Z" fill="#0F0202"/>
<path d="M274.741 2.60345H1.85156V199.574H274.741V2.60345Z" fill="white"/>
<path d="M274.745 201.308H1.85526C0.898473 201.308 0.121094 200.531 0.121094 199.574V2.60344C0.121094 1.64665 0.898473 0.869263 1.85526 0.869263H274.745C275.702 0.869263 276.479 1.64665 276.479 2.60344V199.574C276.479 200.531 275.702 201.308 274.745 201.308ZM3.58943 197.84H273.011V4.33761H3.58943V197.84Z" fill="#0F0202"/>
<path d="M274.62 174.646H1.73047V199.572H274.62V174.646Z" fill="#EC2227"/>
<path d="M274.624 201.308H1.73417C0.777379 201.308 0 200.531 0 199.574V174.648C0 173.691 0.777379 172.913 1.73417 172.913H274.624C275.58 172.913 276.358 173.691 276.358 174.648V199.574C276.358 200.531 275.58 201.308 274.624 201.308ZM3.46833 197.84H272.891V176.38H3.46833V197.84Z" fill="#0F0202"/>
<g opacity="0.1294">
<path d="M157.857 201.444H118.738V209.536H157.857V201.444Z" fill="#0F0202"/>
</g>
<path d="M274.917 96.5679C285.163 96.5679 293.469 87.7096 293.469 76.7823C293.469 65.855 285.163 56.9968 274.917 56.9968C264.671 56.9968 256.365 65.855 256.365 76.7823C256.365 87.7096 264.671 96.5679 274.917 96.5679Z" fill="white"/>
<path d="M274.917 98.302C263.73 98.302 254.631 88.6485 254.631 76.7843C254.631 64.9182 263.73 55.2646 274.917 55.2646C286.103 55.2646 295.203 64.9182 295.203 76.7843C295.203 88.6485 286.103 98.302 274.917 98.302ZM274.917 58.7329C265.642 58.7329 258.097 66.8297 258.097 76.7843C258.097 86.7369 265.642 94.8357 274.917 94.8357C284.19 94.8357 291.734 86.7369 291.734 76.7843C291.734 66.8297 284.19 58.7329 274.917 58.7329Z" fill="#0F0202"/>
<path d="M151.744 134.843C171.097 159.251 190.931 183.221 211.226 206.726C212.883 208.641 214.593 210.599 216.774 211.747C222.825 214.934 230.554 210.192 232.668 203.367C234.785 196.544 232.383 188.82 228.277 183.057C224.171 177.295 218.55 173.053 213.192 168.64C196.472 154.864 181.544 138.553 168.992 120.348C167.272 117.854 164.932 115.014 162.121 115.584C160.319 115.951 159.062 117.639 157.965 119.214C154.62 124.03 151.445 131.389 151.744 134.843Z" fill="white"/>
<path d="M220.913 214.496C219.182 214.496 217.504 214.089 215.967 213.282C213.454 211.956 211.574 209.78 209.918 207.858C189.701 184.445 169.673 160.242 150.387 135.92C150.176 135.655 150.049 135.332 150.019 134.993C149.668 130.94 153.132 123.135 156.545 118.227C157.599 116.708 159.198 114.41 161.779 113.888C166.043 113.025 169.113 117.468 170.422 119.365C182.906 137.473 197.667 153.6 214.295 167.302C214.957 167.847 215.62 168.389 216.286 168.931C221.04 172.806 225.958 176.812 229.691 182.053C234.668 189.037 236.401 197.198 234.328 203.883C233.004 208.149 229.657 211.847 225.589 213.531C224.034 214.173 222.453 214.496 220.913 214.496ZM153.463 134.215C172.607 158.346 192.484 182.36 212.545 205.594C214 207.282 215.652 209.198 217.586 210.214C219.559 211.253 221.931 211.293 224.263 210.328C227.403 209.026 229.992 206.164 231.019 202.855C232.773 197.198 231.222 190.174 226.871 184.064C223.408 179.206 218.678 175.349 214.1 171.618C213.43 171.072 212.76 170.527 212.094 169.977C195.217 156.07 180.237 139.705 167.57 121.333C166.25 119.419 164.263 116.914 162.473 117.284C161.347 117.512 160.336 118.853 159.395 120.205C156.234 124.753 153.537 131.184 153.463 134.215Z" fill="#0F0202"/>
<path d="M164.263 98.2083L141.113 110.16C136 112.799 133.887 119.006 136.323 124.219L147.621 148.378C150.104 153.686 156.389 156.014 161.729 153.604L186.145 142.591L164.263 98.2083Z" fill="white"/>
<path d="M157.374 156.275C152.678 156.275 148.157 153.61 146.052 149.111L134.752 124.952C131.908 118.873 134.354 111.699 140.318 108.619L163.468 96.6655C163.881 96.4522 164.367 96.4163 164.805 96.5598C165.248 96.7053 165.613 97.0223 165.82 97.4389L187.705 141.822C187.912 142.242 187.94 142.733 187.782 143.175C187.623 143.618 187.292 143.977 186.863 144.17L162.447 155.183C160.803 155.926 159.077 156.275 157.374 156.275ZM163.488 100.558L141.906 111.701C137.605 113.921 135.841 119.096 137.892 123.483L149.19 147.642C151.259 152.067 156.565 154.027 161.016 152.024L183.794 141.748L163.488 100.558Z" fill="#0F0202"/>
<path d="M163.469 98.8502L248.852 27.1071L293.634 127.887L184.737 143.229L163.469 98.8502Z" fill="white"/>
<path d="M184.735 144.963C184.075 144.963 183.463 144.587 183.172 143.979L161.904 99.5976C161.561 98.884 161.744 98.0289 162.352 97.5206L247.735 25.7776C248.152 25.4268 248.706 25.2932 249.242 25.4148C249.772 25.5384 250.215 25.9032 250.436 26.4015L295.22 127.183C295.439 127.681 295.415 128.253 295.15 128.728C294.887 129.204 294.415 129.529 293.874 129.603L184.976 144.945C184.896 144.957 184.817 144.963 184.735 144.963ZM165.611 99.3126L185.75 141.335L291.116 126.491L248.202 29.9177L165.611 99.3126Z" fill="#0F0202"/>
<path d="M293.381 41.726C293.142 41.726 292.899 41.6782 292.67 41.5726C291.797 41.1779 291.408 40.1513 291.803 39.2783L300.589 19.8236C300.984 18.9505 302.01 18.5618 302.884 18.9565C303.757 19.3512 304.145 20.3777 303.751 21.2508L294.964 40.7055C294.673 41.3453 294.041 41.726 293.381 41.726Z" fill="#0F0202"/>
<path d="M308.61 59.3886C308.008 59.3886 307.42 59.0737 307.101 58.5096C306.628 57.6784 306.921 56.6179 307.755 56.1455C313.637 52.8047 319.701 49.5955 325.774 46.6095C326.633 46.183 327.674 46.5398 328.096 47.3989C328.519 48.258 328.164 49.2985 327.307 49.7211C321.293 52.6772 315.291 55.8545 309.467 59.1614C309.194 59.3149 308.899 59.3886 308.61 59.3886Z" fill="#0F0202"/>
<path d="M332.274 92.6849C332.097 92.6849 331.917 92.657 331.74 92.6012L310.854 85.8319C309.943 85.5369 309.443 84.5582 309.74 83.6473C310.035 82.7383 311.012 82.238 311.925 82.533L332.808 89.3023C333.719 89.5973 334.22 90.574 333.925 91.485C333.688 92.2185 333.006 92.6849 332.274 92.6849Z" fill="#0F0202"/>
<path d="M139.329 122.583C139.27 122.583 139.208 122.575 139.146 122.553C138.843 122.453 138.68 122.124 138.779 121.821L141.211 114.506C141.311 114.205 141.634 114.035 141.943 114.139C142.246 114.239 142.409 114.565 142.309 114.87L139.878 122.188C139.796 122.429 139.573 122.583 139.329 122.583Z" fill="#0F0202"/>
<path d="M143.398 131.277C143.346 131.277 143.292 131.271 143.238 131.255C142.931 131.17 142.752 130.849 142.841 130.542C144.781 123.737 147.005 116.908 149.453 110.244C149.563 109.943 149.896 109.793 150.197 109.901C150.496 110.013 150.649 110.344 150.54 110.645C148.1 117.282 145.885 124.083 143.952 130.859C143.88 131.112 143.649 131.277 143.398 131.277Z" fill="#0F0202"/>
<path d="M147.723 137.704C147.657 137.704 147.59 137.694 147.522 137.668C147.223 137.556 147.069 137.223 147.181 136.924C151 126.611 154.546 116.054 157.722 105.546C157.813 105.241 158.138 105.069 158.441 105.161C158.748 105.253 158.919 105.576 158.828 105.881C155.646 116.411 152.093 126.99 148.265 137.325C148.18 137.56 147.958 137.704 147.723 137.704Z" fill="#0F0202"/>
<path d="M152.617 148.511C152.569 148.511 152.519 148.505 152.471 148.491C152.162 148.41 151.977 148.095 152.058 147.786C155.297 135.447 158.935 123.031 162.868 110.882C162.966 110.579 163.287 110.413 163.596 110.511C163.899 110.609 164.066 110.936 163.968 111.239C160.04 123.364 156.41 135.76 153.175 148.079C153.107 148.34 152.874 148.511 152.617 148.511Z" fill="#0F0202"/>
<path d="M159.729 151.32C159.681 151.32 159.631 151.314 159.583 151.302C159.274 151.22 159.089 150.905 159.169 150.596L167.232 119.561C167.312 119.254 167.624 119.066 167.937 119.146C168.246 119.228 168.432 119.543 168.352 119.852L160.289 150.889C160.219 151.146 159.986 151.32 159.729 151.32Z" fill="#0F0202"/>
<path d="M167.217 146.181C167.165 146.181 167.111 146.175 167.06 146.159C166.753 146.072 166.573 145.751 166.661 145.444C168.24 139.876 169.78 134.194 171.237 128.554C171.317 128.245 171.632 128.056 171.941 128.14C172.25 128.22 172.438 128.535 172.356 128.845C170.895 134.495 169.354 140.185 167.773 145.763C167.701 146.016 167.468 146.181 167.217 146.181Z" fill="#0F0202"/>
<path d="M174.298 143.478C174.265 143.478 174.229 143.476 174.195 143.47C173.88 143.415 173.671 143.114 173.728 142.801C174.145 140.466 174.739 138.142 175.488 135.892C175.59 135.589 175.919 135.427 176.22 135.525C176.523 135.627 176.686 135.954 176.587 136.257C175.853 138.455 175.273 140.726 174.867 143.004C174.817 143.283 174.572 143.478 174.298 143.478Z" fill="#0F0202"/>
<g opacity="0.1294">
<path d="M287.785 123.059C287.422 123.151 287.137 123.382 286.856 123.615C287.185 123.346 287.177 123.34 286.942 123.448C286.918 123.454 286.88 123.463 286.82 123.481C286.591 123.529 286.447 123.559 286.34 123.581C282.903 124.052 279.425 124.053 275.976 124.412C261.274 126.067 246.573 127.777 231.807 128.774C225.055 129.14 218.332 129.778 211.625 130.613C204.8 131.082 199.129 131.592 195.258 132.433C184.023 134.351 168.663 140.141 165.416 141.746C159.645 144.188 159.153 144.393 154.471 146.281C152.543 147.285 150.027 147.662 148.674 149.46C148.224 150.008 147.948 150.588 147.793 151.174C148.263 151.424 149.505 152.223 149.693 152.331C149.964 152.486 152.437 153.668 151.674 153.405C153.456 154.081 155.25 154.665 156.998 155.396C158.385 154.84 160.054 154.212 161.876 153.544C162.029 153 162.39 152.5 162.84 152.211C163.837 151.569 165.055 152.069 165.677 152.956L169.183 157.94C169.486 158.372 169.789 158.809 170.094 159.241C170.315 159.207 170.539 159.166 170.766 159.104C175.083 157.559 180.194 154.944 181.183 154.567C184.28 153.044 190.003 151.998 190.488 148.095C189.816 147.24 189.186 146.353 188.614 145.428C188.104 144.602 188.462 143.554 189.238 143.056C189.858 142.657 190.637 142.789 191.185 143.219C195.788 141.802 200.43 140.528 205.134 139.502C211.383 138.639 218.462 137.676 222.141 137.313C233.388 136.665 243.51 135.625 252.268 134.634C261.832 133.312 278.799 131.851 283.689 130.899C285.431 130.651 287.197 130.518 288.913 130.119C288.606 130.161 288.297 130.203 287.99 130.243C288.433 130.189 288.875 130.123 289.318 130.061C290.121 130.041 290.918 129.8 291.516 129.274C294.945 126.768 291.674 121.223 287.785 123.059Z" fill="#0F0202"/>
</g>
<g opacity="0.1294">
<path d="M294.186 77.5917C293.636 75.2894 290.492 74.201 288.694 75.7758C287.739 76.3737 287.476 77.5139 287.104 78.5285C286.342 80.1491 285.491 81.7417 284.474 83.2168C284.443 83.2546 284.413 83.2945 284.381 83.3324C284.179 83.8227 282.483 84.6619 279.856 85.9496C278.602 86.7409 276.984 87.1535 275.957 88.2439C276.738 89.4937 277.4 90.8192 277.992 92.1886C278.487 93.3328 278.965 94.4849 279.445 95.635C280.045 95.5832 280.655 95.4098 281.257 95.051C285.589 92.9142 289.725 89.9541 291.957 85.5469C293.09 83.0812 294.567 80.3783 294.186 77.5917Z" fill="#0F0202"/>
</g>
<path d="M171.706 43.4124H132.814C131.857 43.4124 131.08 42.635 131.08 41.6782C131.08 40.7214 131.857 39.944 132.814 39.944H171.706C172.663 39.944 173.44 40.7214 173.44 41.6782C173.44 42.635 172.663 43.4124 171.706 43.4124Z" fill="#0F0202"/>
<path d="M97.9089 118.147H29.2635C28.3067 118.147 27.5293 117.37 27.5293 116.413C27.5293 115.456 28.3067 114.679 29.2635 114.679H97.9089C98.8657 114.679 99.6431 115.456 99.6431 116.413C99.6431 117.37 98.8657 118.147 97.9089 118.147Z" fill="#0F0202"/>
<path d="M97.9089 144.266H29.2635C28.3067 144.266 27.5293 143.488 27.5293 142.532C27.5293 141.575 28.3067 140.797 29.2635 140.797H97.9089C98.8657 140.797 99.6431 141.575 99.6431 142.532C99.645 143.488 98.8657 144.266 97.9089 144.266Z" fill="#0F0202"/>
<path d="M107.876 30.7549H29.2598V89.7168H107.876V30.7549Z" fill="white"/>
<path d="M107.879 91.453H29.2635C28.3067 91.453 27.5293 90.6756 27.5293 89.7188V30.7569C27.5293 29.8001 28.3067 29.0227 29.2635 29.0227H107.879C108.836 29.0227 109.614 29.8001 109.614 30.7569V89.7188C109.614 90.6756 108.836 91.453 107.879 91.453ZM30.9976 87.9827H106.145V32.489H30.9976V87.9827Z" fill="#0F0202"/>
</svg>
