<svg width="195" height="236" viewBox="0 0 195 236" fill="none" xmlns="http://www.w3.org/2000/svg">
<path d="M1.55469 208.436V27.1767C1.55469 13.0249 13.0264 1.55322 27.1782 1.55322H109.6C123.752 1.55322 135.224 13.0249 135.224 27.1767V208.436C135.224 222.588 123.752 234.059 109.6 234.059H27.1782C13.0264 234.059 1.55469 222.588 1.55469 208.436Z" fill="#EC2227"/>
<path d="M109.828 235.615H26.9483C12.0885 235.615 0 223.527 0 208.667V26.9483C0 12.0885 12.0885 0 26.9483 0H109.828C124.688 0 136.778 12.0885 136.778 26.9483V208.667C136.778 223.527 124.688 235.615 109.828 235.615ZM26.9483 3.11108C13.8031 3.11108 3.11111 13.8032 3.11111 26.9483V208.667C3.11111 221.812 13.8031 232.504 26.9483 232.504H109.828C122.973 232.504 133.667 221.812 133.667 208.667V26.9483C133.667 13.8032 122.973 3.11108 109.828 3.11108H26.9483Z" fill="#0F0202"/>
<path d="M135.222 26.2812H1.55469V201.613H135.222V26.2812Z" fill="white"/>
<path d="M135.223 203.169H1.55553C0.697301 203.169 0 202.472 0 201.613V26.283C0 25.4247 0.697301 24.7274 1.55553 24.7274H135.223C136.081 24.7274 136.778 25.4247 136.778 26.283V201.615C136.778 202.472 136.081 203.169 135.223 203.169ZM3.11111 200.058H133.667V27.8385H3.11111V200.058Z" fill="#0F0202"/>
<path d="M81.7868 215.771H57.7118C56.8536 215.771 56.1562 215.073 56.1562 214.215C56.1562 213.357 56.8536 212.66 57.7118 212.66H81.7868C82.6451 212.66 83.3424 213.357 83.3424 214.215C83.3424 215.073 82.6468 215.771 81.7868 215.771Z" fill="#0F0202"/>
<path d="M82.91 60.2422H23.7997C22.9414 60.2422 22.2441 59.5449 22.2441 58.6866C22.2441 57.8284 22.9414 57.1311 23.7997 57.1311H82.91C83.7683 57.1311 84.4656 57.8284 84.4656 58.6866C84.4638 59.5449 83.7683 60.2422 82.91 60.2422Z" fill="#0F0202"/>
<path d="M62.962 96.3528H24.217C23.0919 96.3528 22.1777 95.6672 22.1777 94.8234C22.1777 93.9795 23.0919 93.2939 24.217 93.2939H62.962C64.0871 93.2939 65.0012 93.9795 65.0012 94.8234C65.0012 95.6689 64.0894 96.3528 62.962 96.3528Z" fill="#0F0202"/>
<path opacity="0.7" d="M73.8863 78.7646H24.7632C23.3368 78.7646 22.1777 78.079 22.1777 77.2352C22.1777 76.3914 23.3368 75.7058 24.7632 75.7058H73.8863C75.3128 75.7058 76.4717 76.3914 76.4717 77.2352C76.4717 78.0808 75.3157 78.7646 73.8863 78.7646Z" fill="#0F0202"/>
<path d="M58.5922 133.059H23.9985C22.994 133.059 22.1777 132.373 22.1777 131.529C22.1777 130.685 22.994 130 23.9985 130H58.5922C59.5968 130 60.4129 130.685 60.4129 131.529C60.4129 132.373 59.5989 133.059 58.5922 133.059Z" fill="#0F0202"/>
<path opacity="0.7" d="M53.2885 113.993H23.7333C22.8751 113.993 22.1777 113.296 22.1777 112.438C22.1777 111.579 22.8751 110.882 23.7333 110.882H53.2885C54.1467 110.882 54.844 111.579 54.844 112.438C54.844 113.296 54.1485 113.993 53.2885 113.993Z" fill="#0F0202"/>
<path opacity="0.7" d="M46.9396 150.647H23.4159C22.7328 150.647 22.1777 149.961 22.1777 149.117C22.1777 148.274 22.7328 147.588 23.4159 147.588H46.9396C47.6227 147.588 48.1777 148.274 48.1777 149.117C48.1777 149.961 47.6241 150.647 46.9396 150.647Z" fill="#0F0202"/>
<g opacity="0.1294">
<path d="M126.271 26.5944C121.71 26.4657 117.154 26.2583 112.591 26.3119C100.317 26.185 88.039 26.2028 75.7645 26.3727C66.1059 26.4406 56.4455 26.8411 46.7976 26.1885C34.9559 25.822 23.1159 25.1229 11.2635 25.5914C9.60243 25.6218 7.94139 25.6128 6.28215 25.5306C5.27552 25.4555 4.20271 25.3089 3.29621 25.8363C-1.22379 27.5671 0.177979 34.5741 5.04484 34.5187C10.8218 34.9371 16.622 34.4812 22.4096 34.6135C29.3112 34.5795 36.1949 35.1552 43.0894 35.2983C68.8362 35.4538 94.5973 35.5575 120.342 35.1052C123.763 35.1588 127.183 35.0891 130.602 35.0211C133.432 35.3394 136.305 34.0073 136.339 30.8122C135.996 25.3196 130.089 26.8018 126.271 26.5944Z" fill="#0F0202"/>
</g>
<path d="M134.85 54.1703C102.491 54.1703 76.2578 81.419 76.2578 115.033C76.2578 128.936 80.7563 141.743 88.3087 151.99L81.1354 181.445L105.718 167.832C114.3 172.952 124.242 175.897 134.85 175.897C167.21 175.897 193.442 148.649 193.442 115.033C193.442 81.419 167.21 54.1703 134.85 54.1703Z" fill="white"/>
<path opacity="0.8" d="M131.903 83.6346C132.594 81.5094 135.6 81.5094 136.291 83.6346L142.411 102.469C142.719 103.419 143.605 104.063 144.604 104.063H164.408C166.643 104.063 167.572 106.922 165.764 108.236L149.742 119.876C148.934 120.463 148.596 121.505 148.904 122.455L155.024 141.289C155.715 143.415 153.282 145.182 151.474 143.868L135.453 132.228C134.644 131.641 133.55 131.641 132.741 132.228L116.72 143.868C114.912 145.182 112.48 143.415 113.17 141.289L119.29 122.455C119.599 121.505 119.26 120.463 118.452 119.876L102.43 108.236C100.623 106.922 101.552 104.063 103.786 104.063H123.59C124.589 104.063 125.475 103.419 125.784 102.469L131.903 83.6346Z" fill="#EC2227"/>
<path d="M81.1344 183.001C80.8001 183.001 80.4658 182.894 80.1904 182.681C79.6987 182.307 79.477 181.676 79.6236 181.077L86.6271 152.325C78.8244 141.481 74.7031 128.602 74.7031 115.035C74.7031 80.6162 101.685 52.6147 134.851 52.6147C168.016 52.6147 194.998 80.6162 194.998 115.035C194.998 149.453 168.016 177.453 134.851 177.453C124.652 177.453 114.593 174.748 105.696 169.623L81.889 182.808C81.6529 182.935 81.3937 183.001 81.1344 183.001ZM134.849 55.7258C103.4 55.7258 77.8124 82.3309 77.8124 115.033C77.8124 128.18 81.8747 140.64 89.5594 151.068C89.8311 151.44 89.9277 151.912 89.8186 152.359L83.4856 178.363L104.963 166.469C105.449 166.201 106.039 166.21 106.515 166.494C115.118 171.628 124.917 174.34 134.851 174.34C166.301 174.34 191.887 147.735 191.887 115.033C191.885 82.3309 166.299 55.7258 134.849 55.7258Z" fill="#0F0202"/>
<g opacity="0.1294">
<path d="M132.18 175.389C125.468 175.177 112.255 171.797 105.772 168.188C103.911 167.526 102.21 168.693 100.63 169.534C97.2183 171.211 94.0375 173.315 90.6046 174.951C88.4966 175.949 86.3761 176.92 84.2305 177.834C83.0129 178.341 81.6022 178.67 80.937 179.926C79.344 182.461 81.9723 185.899 84.8474 185.011C90.6583 182.675 96.2385 179.849 101.635 176.679C103.589 175.627 103.782 175.554 104.438 175.271C105.731 175.913 107.063 176.482 108.404 177.016C115.493 180.069 126.766 181.962 131.274 182.423C137.816 183.957 138.923 175.134 132.18 175.389Z" fill="#0F0202"/>
</g>
</svg>
