<svg width="254" height="210" viewBox="0 0 254 210" fill="none" xmlns="http://www.w3.org/2000/svg">
<path d="M127.081 55.4146L90.682 1.27917L54.2832 55.4146H74.775V162.662H106.59V55.4146H127.081Z" fill="#EC2227"/>
<path d="M106.591 163.977H74.7753C74.0494 163.977 73.4597 163.388 73.4597 162.662V56.7288H54.2834C53.798 56.7288 53.3519 56.4611 53.1221 56.0316C52.8922 55.6022 52.9194 55.0835 53.1916 54.6782L89.5904 0.544272C90.0773 -0.181587 91.2855 -0.181587 91.7725 0.544272L128.171 54.6782C128.443 55.082 128.469 55.6022 128.241 56.0316C128.013 56.4611 127.566 56.7288 127.079 56.7288H107.903V162.662C107.906 163.388 107.316 163.977 106.591 163.977ZM76.0909 161.346H105.275V55.4131C105.275 54.6873 105.865 54.0975 106.591 54.0975H124.612L90.6822 3.63673L56.7529 54.0975H74.7738C75.4997 54.0975 76.0894 54.6873 76.0894 55.4131L76.0909 161.346Z" fill="#0F0202"/>
<path d="M56.3748 91.9738L35.3249 63.5973L14.2734 91.9738H26.1246V148.196H44.5236V91.9738H56.3748Z" fill="#F5F5F5"/>
<path d="M44.5236 149.512H26.1245C25.3986 149.512 24.8089 148.922 24.8089 148.196V93.2894H14.2748C13.7773 93.2894 13.3222 93.0096 13.0999 92.5651C12.8761 92.1205 12.9214 91.5882 13.2178 91.189L34.2677 62.8109C34.7637 62.141 35.8843 62.141 36.3803 62.8109L57.4302 91.189C57.7266 91.5882 57.7734 92.1205 57.5496 92.5651C57.3258 93.0081 56.8707 93.2894 56.3747 93.2894H45.8392V148.195C45.8392 148.922 45.2494 149.512 44.5236 149.512ZM27.4401 146.88H43.2079V91.9738C43.2079 91.2479 43.7977 90.6582 44.5236 90.6582H53.7601L35.3248 65.8036L16.888 90.6582H26.123C26.8489 90.6582 27.4386 91.2479 27.4386 91.9738L27.4401 146.88Z" fill="#0F0202"/>
<path d="M34.4997 205.468C70.2679 205.865 106.038 206.263 141.806 206.661C151.62 206.77 161.555 206.867 171.099 204.576C180.642 202.285 189.912 197.318 195.415 189.19C200.918 181.062 201.83 169.468 195.981 161.585C191.272 155.238 182.932 152.203 175.046 152.716C167.159 153.229 164.124 155.161 157.947 160.089C159.355 155.595 160.315 153.162 159.936 147.777C159.556 142.392 156.875 137.372 153.339 133.29C144.079 122.597 128.412 117.94 114.813 121.838C101.214 125.737 90.3939 137.987 88.2042 151.963C84.6067 138.101 67.1724 130.296 53.9103 135.707C40.6483 141.117 33.5303 157.519 37.335 171.327C34.2139 165.347 26.6347 162.529 20.0173 163.832C13.3984 165.136 7.84552 169.925 4.32662 175.679C2.39704 178.835 0.963537 182.493 1.38998 186.167C2.09164 192.231 7.53252 196.599 12.9734 199.366C21.6051 203.753 31.3407 205.433 34.4997 205.468Z" fill="#F5F5F5"/>
<path d="M148.036 208.022C145.943 208.022 143.86 207.999 141.789 207.975L34.4832 206.783C31.3378 206.749 21.4072 205.126 12.3778 200.538C7.21667 197.914 0.892617 193.319 0.0835872 186.32C-0.318659 182.85 0.732362 179.039 3.20482 174.994C7.26509 168.354 13.3003 163.816 19.7619 162.542C25.3888 161.432 31.167 163.029 35.1093 166.459C33.8299 153.049 41.3154 139.425 53.413 134.489C60.3193 131.671 68.7695 132.158 76.0175 135.791C81.3329 138.457 85.4824 142.545 87.8747 147.355C91.4843 134.698 101.708 124.226 114.449 120.573C128.641 116.506 144.667 121.268 154.333 132.428C157.232 135.776 160.786 141.142 161.245 147.683C161.516 151.514 161.138 153.933 160.418 156.521C164.919 153.238 168.282 151.834 174.958 151.4C183.841 150.821 192.303 154.423 197.035 160.799C202.848 168.632 202.622 180.881 196.499 189.925C191.338 197.55 182.425 203.207 171.401 205.853C163.712 207.701 155.812 208.022 148.036 208.022ZM34.5135 204.152L141.82 205.345C151.422 205.454 161.345 205.565 170.79 203.296C181.173 200.804 189.533 195.533 194.325 188.452C199.84 180.303 200.092 169.334 194.924 162.368C190.72 156.704 183.142 153.508 175.13 154.029C167.657 154.514 164.858 156.258 158.767 161.118C158.315 161.479 157.68 161.502 157.203 161.175C156.727 160.849 156.52 160.248 156.691 159.696L157.035 158.609C158.233 154.835 158.956 152.557 158.625 147.869C158.215 142.049 154.985 137.198 152.348 134.152C143.482 123.914 128.196 119.367 115.178 123.104C102.159 126.835 91.6023 138.786 89.5064 152.167C89.4111 152.782 88.8954 153.247 88.2724 153.277C87.6448 153.304 87.0898 152.897 86.9341 152.294C85.3992 146.386 80.9927 141.229 74.841 138.146C68.2614 134.846 60.6248 134.391 54.4111 136.926C42.1396 141.932 34.9022 157.526 38.6071 170.979C38.7855 171.628 38.4467 172.307 37.8191 172.553C37.1946 172.803 36.4824 172.535 36.1709 171.938C33.4867 166.798 26.65 163.867 20.2731 165.125C14.5297 166.258 9.12811 170.354 5.45042 176.367C3.29099 179.899 2.36551 183.146 2.6982 186.018C3.37264 191.858 8.98296 195.862 13.5695 198.194C21.7097 202.33 31.226 204.116 34.5135 204.152Z" fill="#0F0202"/>
<g opacity="0.1294">
<path d="M184.481 194.997C184.428 195.023 184.387 195.04 184.344 195.061C181.923 195.967 179.338 196.334 176.827 196.912C170.574 198.247 159.659 197.987 150.96 198.196C146.926 198.212 142.896 198.655 138.865 198.373C133 197.864 127.115 198.052 121.239 197.973C110.175 197.768 99.1105 197.592 88.0457 197.694C81.0518 197.757 74.0668 198.271 67.0774 197.807C59.958 197.541 52.834 197.618 45.713 197.535C41.1038 197.148 36.4825 197.169 31.8703 196.939C29.6655 196.801 26.6894 196.014 20.6557 194.769C18.6143 194.315 16.5486 193.993 14.5117 193.521C13.3261 193.22 12.0302 192.856 10.9157 193.568C8.57476 194.849 9.03294 198.686 11.6687 199.319C17.7145 200.558 23.6272 202.265 29.49 203.417C32.6324 203.931 35.8217 203.898 38.9943 203.962C42.1034 204.128 45.2003 204.506 48.317 204.5C56.6916 204.477 65.0632 204.736 73.4318 205.026C78.8228 204.99 84.2107 204.685 89.6018 204.598C89.3507 205.935 90.2233 207.514 91.8776 207.476C103.895 207.222 115.916 206.938 127.933 206.723C136.574 206.933 145.213 207.394 153.848 206.734C158.877 206.442 163.971 206.514 168.929 205.522C170.332 205.236 171.707 204.83 173.044 204.313C173.922 204.127 174.707 203.561 175.103 202.806C180.733 202 187.307 200.431 188.734 197.396C189.25 194.734 186.561 193.541 184.481 194.997Z" fill="#0F0202"/>
</g>
<path d="M192.666 163.531C201.851 172.568 211.036 181.605 220.223 190.642C225.076 195.415 229.939 200.199 235.226 204.34C238.078 206.573 241.249 208.684 244.718 208.686C248.187 208.687 251.872 205.763 251.846 201.842C251.825 198.784 249.714 196.327 247.736 194.24C233.11 178.814 217.823 164.188 201.948 150.43C199.037 154.691 196.127 158.956 192.666 163.531Z" fill="#F5F5F5"/>
<path d="M244.719 210C244.719 210 244.716 210 244.713 210C240.845 209.999 237.478 207.776 234.411 205.374C229.064 201.185 224.099 196.301 219.298 191.578L191.739 164.468C191.268 164.005 191.213 163.262 191.612 162.736C195.047 158.199 197.986 153.89 200.832 149.724C201.044 149.414 201.39 149.19 201.762 149.141C202.133 149.09 202.521 149.187 202.806 149.433C218.651 163.164 234.087 177.934 248.686 193.331C250.838 195.599 253.133 198.314 253.158 201.831C253.171 203.876 252.34 205.847 250.814 207.381C249.187 209.022 246.909 210 244.719 210ZM194.407 163.401L221.144 189.705C225.894 194.377 230.806 199.207 236.035 203.305C238.73 205.417 241.647 207.369 244.718 207.37H244.721C246.224 207.37 247.804 206.682 248.951 205.528C249.979 204.496 250.538 203.189 250.529 201.851C250.513 199.294 248.669 197.136 246.781 195.144C232.583 180.17 217.59 165.792 202.201 152.393C199.768 155.949 197.256 159.591 194.407 163.401Z" fill="#0F0202"/>
<path d="M156.818 63.5973C125.18 63.5973 99.5312 89.2443 99.5312 120.883C99.5312 152.521 125.18 178.17 156.818 178.17C188.456 178.17 214.105 152.523 214.105 120.883C214.105 89.2443 188.456 63.5973 156.818 63.5973ZM156.818 164.392C132.788 164.392 113.309 144.912 113.309 120.883C113.309 96.8537 132.789 77.3735 156.818 77.3735C180.847 77.3735 200.326 96.8537 200.326 120.883C200.327 144.913 180.849 164.392 156.818 164.392ZM156.818 164.392C132.788 164.392 113.309 144.912 113.309 120.883C113.309 96.8537 132.789 77.3735 156.818 77.3735C180.847 77.3735 200.326 96.8537 200.326 120.883C200.327 144.913 180.849 164.392 156.818 164.392Z" fill="#F5F5F5"/>
<path d="M156.819 179.485C124.506 179.485 98.2168 153.195 98.2168 120.883C98.2168 88.5698 124.506 62.2802 156.819 62.2802C189.132 62.2802 215.42 88.5698 215.42 120.883C215.42 153.195 189.134 179.485 156.819 179.485ZM156.819 64.9114C125.957 64.9114 100.848 90.02 100.848 120.883C100.848 151.745 125.957 176.854 156.819 176.854C187.68 176.854 212.791 151.745 212.791 120.883C212.791 90.02 187.682 64.9114 156.819 64.9114ZM156.819 165.709C132.102 165.709 111.993 145.6 111.993 120.883C111.993 96.1657 132.102 76.0579 156.819 76.0579C181.536 76.0579 201.644 96.1657 201.644 120.883C201.644 145.6 181.536 165.709 156.819 165.709ZM114.626 120.883C114.626 144.148 133.554 163.076 156.819 163.076C180.085 163.076 199.011 144.148 199.011 120.883C199.011 97.6174 180.083 78.6891 156.819 78.6891C133.554 78.6891 114.626 97.6174 114.626 120.883Z" fill="#0F0202"/>
<path d="M200.052 165.174C200.013 165.174 199.971 165.169 199.931 165.155C199.698 165.09 199.564 164.847 199.63 164.614L200.639 161.086C200.705 160.853 200.95 160.716 201.18 160.785C201.413 160.85 201.548 161.095 201.481 161.328L200.473 164.855C200.418 165.048 200.243 165.174 200.052 165.174Z" fill="#0F0202"/>
<path d="M204.871 171.351C204.853 171.351 204.835 171.349 204.815 171.348C204.575 171.316 204.406 171.095 204.437 170.856C204.974 166.739 205.624 162.574 206.368 158.479C206.411 158.242 206.641 158.087 206.878 158.127C207.116 158.171 207.276 158.399 207.23 158.638C206.489 162.718 205.842 166.867 205.307 170.97C205.277 171.189 205.088 171.351 204.871 171.351Z" fill="#0F0202"/>
<path d="M211.13 177.345C210.888 177.345 210.691 177.149 210.691 176.907C210.691 174.843 211.009 171.383 211.289 168.33C211.46 166.47 211.606 164.862 211.658 163.85C211.67 163.608 211.869 163.401 212.117 163.435C212.359 163.447 212.545 163.652 212.533 163.894C212.482 164.923 212.334 166.539 212.163 168.408C211.883 171.443 211.569 174.883 211.569 176.907C211.57 177.149 211.373 177.345 211.13 177.345Z" fill="#0F0202"/>
<path d="M217.535 183.252C217.298 183.252 217.103 183.062 217.097 182.824L216.766 168.194C216.761 167.95 216.953 167.75 217.195 167.744C217.198 167.744 217.201 167.744 217.204 167.744C217.442 167.744 217.638 167.933 217.643 168.172L217.974 182.803C217.979 183.045 217.788 183.246 217.546 183.252C217.541 183.252 217.538 183.252 217.535 183.252Z" fill="#0F0202"/>
<path d="M223.633 189.723C223.399 189.723 223.204 189.537 223.194 189.301L222.621 173.979C222.612 173.737 222.801 173.533 223.043 173.524C223.294 173.511 223.489 173.704 223.497 173.946L224.072 189.268C224.081 189.51 223.892 189.712 223.65 189.723C223.644 189.723 223.639 189.723 223.633 189.723Z" fill="#0F0202"/>
<path d="M229.837 195.177C229.607 195.177 229.414 194.996 229.4 194.763L228.626 180.451C228.612 180.208 228.797 180.002 229.039 179.99C229.268 179.961 229.488 180.161 229.501 180.403L230.276 194.715C230.289 194.958 230.103 195.164 229.863 195.177C229.852 195.177 229.845 195.177 229.837 195.177Z" fill="#0F0202"/>
<path d="M235.982 200.221C235.755 200.221 235.563 200.045 235.545 199.815L234.47 185.88C234.452 185.638 234.632 185.428 234.874 185.41C235.12 185.371 235.327 185.572 235.346 185.814L236.421 199.749C236.44 199.991 236.26 200.201 236.017 200.219C236.005 200.221 235.993 200.221 235.982 200.221Z" fill="#0F0202"/>
<path d="M241.796 204.75C241.575 204.75 241.385 204.582 241.361 204.355L240.104 192.133C240.08 191.893 240.255 191.678 240.496 191.654C240.737 191.622 240.952 191.804 240.976 192.046L242.233 204.267C242.257 204.508 242.082 204.722 241.841 204.747C241.825 204.75 241.811 204.75 241.796 204.75Z" fill="#0F0202"/>
<path d="M247.491 204.099C247.28 204.099 247.094 203.947 247.06 203.732L246.177 198.271C246.14 198.032 246.301 197.807 246.54 197.768C246.778 197.727 247.005 197.892 247.044 198.129L247.925 203.59C247.963 203.829 247.801 204.054 247.563 204.093C247.54 204.098 247.516 204.099 247.491 204.099Z" fill="#0F0202"/>
<g opacity="0.1294">
<path d="M197.344 134.74C195.906 135.956 195.239 137.914 194.019 139.354C193.795 139.768 190.854 143.077 189.193 144.656C187.757 145.94 186.378 147.069 184.974 148.14C184.725 148.19 184.478 148.284 184.238 148.43C177.078 153.613 171.694 155.504 162.638 157.172C158.337 157.977 153.386 158.653 146.616 156.973C141.872 155.869 139.582 154.57 134.628 151.234C132.523 149.757 127.837 145.63 124.651 141.775L124.648 141.774C121.221 137.084 120.048 132.988 119.342 131.12C118.629 129.203 118.094 127.235 117.531 125.269C116.701 122.572 116.444 121.627 116.447 119.333C115.926 117.87 115.443 116.393 115.012 114.899C114.59 114.708 114.121 114.613 113.657 114.646C112.892 120.566 112.999 126.503 113.751 132.398C115.039 137.494 116.626 143.02 121.509 148.506C125.446 152.841 128.146 154.343 129.838 155.737C133.785 158.585 137.983 161.187 142.637 162.7C145.179 163.437 147.822 163.746 150.446 164.054C150.464 164.057 150.47 164.059 150.49 164.062C153.34 164.581 156.253 164.594 159.128 164.271C161.384 164.083 163.552 163.424 165.729 162.839C170.245 161.73 174.756 160.348 178.879 158.167C180.553 157.135 181.133 156.731 181.92 156.141C186.987 152.987 192.215 148.601 194.896 145.536C195.593 144.095 196.266 142.646 196.898 141.182C197.686 138.991 198.481 136.803 199.259 134.607C198.649 134.37 197.938 134.385 197.344 134.74Z" fill="#0F0202"/>
</g>
<g opacity="0.1294">
<path d="M206.686 153.436C204.506 152.808 203.048 154.325 201.973 155.988C201.927 156.043 201.882 156.096 201.826 156.162C199.922 158.384 199.385 158.196 196.246 161.036C196.232 161.047 196.219 161.057 196.207 161.068C195.587 161.499 194.847 161.806 194.456 162.486C193.495 163.667 193.423 165.015 193.884 166.153C192.925 166.134 191.965 166.575 191.333 167.336C189.624 168.703 190.778 167.902 188.838 169.172C183.627 172.381 181.614 172.913 176.397 174.894C172.25 176.312 167.859 176.834 163.566 177.639C158.727 178.348 158.024 178.789 153.094 178.306C150.137 177.865 147.198 177.262 144.308 176.494C142.071 175.892 139.965 174.915 137.799 174.111C132.755 172.375 126.355 169.662 123.495 167.288C117.501 162.789 113.539 157.876 109.842 153.12C109.055 152.111 108.878 151.391 107.953 149.717C106.395 147.531 102.805 149.306 103.56 151.905C105.128 156.131 107.387 158.006 108.225 159.314C110.853 162.52 113.27 165.97 116.397 168.72C118.773 170.785 121.083 172.972 123.793 174.602C127.702 176.607 131.75 178.408 135.883 179.901C140.173 181.917 150.029 184.97 157.466 184.729C163.487 184.203 169.513 183.296 175.421 182.012C179.128 180.928 182.639 179.239 186.11 177.56C189.089 176.14 191.782 174.236 194.445 172.307C195.198 171.706 196.163 171.198 196.474 170.232C196.736 169.712 196.786 169.139 196.683 168.59C197.547 168.795 198.504 168.7 199.432 168.154C201.935 166.778 204.073 164.83 205.794 162.56C206.898 161.349 207.972 160.088 208.823 158.683C210.027 156.729 208.894 154.018 206.686 153.436Z" fill="#0F0202"/>
</g>
<path d="M141.306 143.702C140.58 143.702 139.99 143.112 139.99 142.386V113.506C139.99 112.78 140.58 112.191 141.306 112.191C142.032 112.191 142.621 112.78 142.621 113.506V142.386C142.621 143.112 142.032 143.702 141.306 143.702Z" fill="#0F0202"/>
<path d="M170.247 143.702C169.521 143.702 168.932 143.112 168.932 142.386V113.506C168.932 112.78 169.521 112.191 170.247 112.191C170.973 112.191 171.563 112.78 171.563 113.506V142.386C171.563 143.112 170.975 143.702 170.247 143.702Z" fill="#0F0202"/>
<path d="M155.775 143.702C155.049 143.702 154.461 143.112 154.461 142.386V95.9011C154.461 95.1752 155.049 94.5854 155.775 94.5854C156.502 94.5854 157.091 95.1752 157.091 95.9011V142.386C157.091 143.112 156.502 143.702 155.775 143.702Z" fill="#0F0202"/>
<g opacity="0.1294">
<path d="M99.8189 126.547C96.8626 123.911 94.136 128.323 91.9479 129.977C89.8716 131.979 87.9194 134.211 86.5161 136.733C85.0326 135.386 83.2769 134.32 81.4275 133.588C79.8654 132.932 78.1686 132.17 76.4493 132.289C73.5882 132.545 73.322 136.841 76.0909 137.539C80.1663 138.268 83.7275 141.29 84.5214 143.307C84.6137 144.083 85.0386 144.747 85.6238 145.209C85.4363 146.142 85.1944 147.104 85.5845 147.969C86.2559 149.905 89.1593 150.039 90.1256 148.275C90.8001 146.587 90.2482 147.708 90.7215 145.633C90.903 144.973 90.8077 144.245 90.4614 143.655C90.4342 143.603 90.3994 143.561 90.3677 143.513C90.655 142.631 90.7698 141.666 91.1464 140.813C91.2235 140.646 91.2977 140.478 91.3793 140.313C92.5815 138.042 92.8416 137.931 93.5674 136.963C94.8029 135.379 96.1987 133.931 97.658 132.549C98.5078 131.535 99.8885 130.892 100.406 129.647C100.923 128.645 100.604 127.326 99.8189 126.547Z" fill="#0F0202"/>
</g>
</svg>
