<svg width="323" height="236" viewBox="0 0 323 236" fill="none" xmlns="http://www.w3.org/2000/svg">
<path d="M320.972 12.2974H2.02344V233.108H320.972V12.2974Z" fill="white"/>
<path d="M320.973 235.135H2.02459C0.908642 235.135 0 234.226 0 233.11V12.2998C0 11.1815 0.908642 10.2729 2.02459 10.2729H320.973C322.091 10.2729 323 11.1815 323 12.2998V233.11C323 234.226 322.094 235.135 320.973 235.135ZM4.05145 231.081H318.946V14.3243H4.05145V231.081Z" fill="#0F0202"/>
<path d="M320.972 2.89224H2.02344V32.028H320.972V2.89224Z" fill="#EC2227"/>
<path d="M320.973 34.0525H2.02459C0.908642 34.0525 0 33.1439 0 32.0256V2.89222C0 1.77394 0.908642 0.865356 2.02459 0.865356H320.973C322.091 0.865356 323 1.77394 323 2.89222V32.0256C323 33.1439 322.094 34.0525 320.973 34.0525ZM4.05145 30.0011H318.946V4.91912H4.05145V30.0011Z" fill="#0F0202"/>
<path d="M232.7 19.4869H215.877C214.758 19.4869 213.85 18.5783 213.85 17.4601C213.85 16.3418 214.758 15.4332 215.877 15.4332H232.7C233.818 15.4332 234.727 16.3418 234.727 17.4601C234.727 18.5783 233.818 19.4869 232.7 19.4869Z" fill="#0F0202"/>
<path d="M266.826 19.4869H250.005C248.887 19.4869 247.979 18.5783 247.979 17.4601C247.979 16.3418 248.887 15.4332 250.005 15.4332H266.826C267.944 15.4332 268.853 16.3418 268.853 17.4601C268.853 18.5783 267.947 19.4869 266.826 19.4869Z" fill="#0F0202"/>
<path d="M300.957 19.4869H284.136C283.018 19.4869 282.109 18.5783 282.109 17.4601C282.109 16.3418 283.018 15.4332 284.136 15.4332H300.957C302.075 15.4332 302.984 16.3418 302.984 17.4601C302.984 18.5783 302.077 19.4869 300.957 19.4869Z" fill="#0F0202"/>
<path d="M55.2919 189.162C55.2686 189.162 55.2429 189.162 55.2219 189.162L40.1975 188.654C39.1607 188.619 38.3151 187.808 38.2429 186.769C38.0215 183.615 37.9121 180.861 37.9121 178.347C37.9121 142.535 53.498 108.49 80.6767 84.9411C81.0821 84.587 81.6085 84.4075 82.149 84.4518C82.6849 84.4914 83.1836 84.7407 83.5377 85.146L92.8427 95.9001C93.9284 97.1582 95.014 98.4232 96.0973 99.6883L98.0753 101.99C98.8045 102.838 98.709 104.112 97.8657 104.846C76.4717 123.384 64.203 150.176 64.203 178.347C64.203 180.975 64.3336 183.79 64.5852 186.713C64.6342 187.273 64.4479 187.827 64.0728 188.244C63.6977 188.661 63.1639 188.903 62.6025 188.915C60.4707 188.955 58.1783 189.034 55.3803 189.157C55.3547 189.162 55.3222 189.162 55.2919 189.162ZM42.1683 184.666L55.2779 185.106C57.172 185.02 58.8353 184.957 60.3799 184.912C60.2262 182.636 60.147 180.437 60.147 178.347C60.147 149.668 72.3479 122.368 93.6976 103.118L93.0196 102.328C91.9363 101.067 90.8555 99.8071 89.7721 98.5537L81.8066 89.3466C56.459 112.064 41.961 144.387 41.961 178.347C41.968 180.274 42.0332 182.352 42.1683 184.666Z" fill="#0F0202"/>
<path d="M214.433 96.415C214.06 96.415 213.683 96.3125 213.35 96.1005C197.799 86.2527 179.869 81.0527 161.502 81.0527C144.48 81.0527 127.697 85.5561 112.966 94.0713C112.074 94.5885 110.932 94.3509 110.319 93.5168C105.411 86.8445 101.257 80.8127 97.6316 75.0816C97.3404 74.6226 97.2473 74.0611 97.3731 73.5276C97.5012 72.9965 97.8345 72.5375 98.3028 72.258C117.435 60.8143 139.29 54.7616 161.502 54.7616C186.686 54.7616 210.939 62.3286 231.634 76.6449C232.13 76.9873 232.449 77.5348 232.498 78.1382C232.552 78.7393 232.333 79.3334 231.904 79.755C226.285 85.2998 220.684 90.9518 215.875 95.8139C215.482 96.2077 214.96 96.415 214.433 96.415ZM161.502 76.999C180.093 76.999 198.253 82.115 214.13 91.8114C218.168 87.7297 222.699 83.1635 227.298 78.6042C207.738 65.6485 185.039 58.8153 161.502 58.8153C140.713 58.8153 120.254 64.2949 102.186 74.6808C105.22 79.3846 108.621 84.3143 112.524 89.6657C127.485 81.3719 144.378 76.999 161.502 76.999Z" fill="#0F0202"/>
<path d="M247.75 92.8062C242.04 97.5868 236.423 102.472 230.906 107.484C249.328 125.518 260.827 150.593 260.827 178.35C260.827 181.073 260.694 183.825 260.443 186.671C264.869 186.716 269.298 186.795 273.72 186.928C276.706 187.019 279.71 187.072 282.706 187.212C282.936 184.211 283.062 181.271 283.062 178.347C283.062 145.013 269.557 114.785 247.75 92.8062Z" fill="#EC2227"/>
<path d="M284.574 189.327L282.608 189.234C280.558 189.141 278.505 189.087 276.455 189.031L273.654 188.955C269.484 188.826 265.156 188.743 260.419 188.698L258.227 188.675L258.42 186.49C258.672 183.631 258.795 180.968 258.795 178.347C258.795 152.089 248.386 127.433 229.483 108.93L227.947 107.425L229.541 105.979C234.957 101.061 240.647 96.1029 246.448 91.2477L247.876 90.0525L249.188 91.3735C272.341 114.71 285.089 145.596 285.089 178.345C285.089 181.225 284.97 184.174 284.725 187.363L284.574 189.327ZM262.63 184.668C266.56 184.717 270.227 184.796 273.78 184.903L276.562 184.98C277.979 185.017 279.397 185.055 280.816 185.106C280.963 182.755 281.033 180.528 281.033 178.35C281.033 147.299 269.179 117.974 247.61 95.567C242.907 99.5299 238.289 103.551 233.844 107.556C252.566 126.648 262.849 151.702 262.849 178.35C262.851 180.411 262.779 182.497 262.63 184.668Z" fill="#0F0202"/>
<path d="M158.064 177.788C157.339 177.788 156.592 177.711 155.839 177.527C153.225 176.887 151.119 175.149 149.579 172.365C145.623 165.196 150.616 159.181 153.81 157C153.912 156.93 154.024 156.867 154.141 156.818C154.637 156.599 203.988 134.991 217.113 129.064C217.994 128.668 219.029 128.943 219.59 129.726C220.152 130.506 220.091 131.575 219.438 132.286L219.257 132.484C219.187 132.561 219.11 132.631 219.026 132.698L165.065 175.598C165.018 175.635 164.974 175.668 164.923 175.701C164.773 175.801 161.731 177.788 158.064 177.788ZM155.96 160.448C154.907 161.221 150.196 165.093 153.132 170.405C154.108 172.173 155.303 173.213 156.782 173.583C159.392 174.235 162.185 172.625 162.63 172.355L204.375 139.168C185.706 147.42 158.53 159.323 155.96 160.448Z" fill="#0F0202"/>
<path d="M157.905 74.7881C157.7 74.7881 157.495 74.6949 157.364 74.5155C154.466 70.6318 151.589 66.6829 148.821 62.7736C148.607 62.4684 148.677 62.0467 148.982 61.8324C149.287 61.618 149.709 61.6879 149.923 61.9931C152.686 65.8908 155.554 69.8326 158.445 73.707C158.669 74.0052 158.606 74.4316 158.308 74.6529C158.187 74.7461 158.047 74.7881 157.905 74.7881Z" fill="#0F0202"/>
<path d="M168.171 75.1468C167.955 75.1468 167.745 75.0443 167.615 74.8532L158.645 61.788C158.433 61.4805 158.51 61.0589 158.817 60.8492C159.127 60.6372 159.547 60.7164 159.756 61.0239L168.728 74.0891C168.94 74.3966 168.861 74.8183 168.553 75.028C168.439 75.1072 168.304 75.1468 168.171 75.1468Z" fill="#0F0202"/>
<path d="M180.245 76.766C180.04 76.766 179.835 76.6728 179.705 76.4957C176.108 71.6941 172.366 66.8972 168.578 62.233C168.34 61.9441 168.387 61.5178 168.676 61.2848C168.965 61.0448 169.391 61.0915 169.627 61.3803C173.426 66.0608 177.179 70.8717 180.786 75.6873C181.009 75.9855 180.949 76.4095 180.651 76.6331C180.527 76.7217 180.388 76.766 180.245 76.766Z" fill="#0F0202"/>
<path d="M194.634 80.6636C194.434 80.6636 194.236 80.5751 194.101 80.4027L181.515 64.1947C181.283 63.9011 181.338 63.4748 181.634 63.2488C181.925 63.0158 182.352 63.0694 182.58 63.3676L195.168 79.5756C195.398 79.8692 195.342 80.2955 195.047 80.5215C194.928 80.617 194.779 80.6636 194.634 80.6636Z" fill="#0F0202"/>
<path d="M208.302 85.7471C208.097 85.7471 207.896 85.6563 207.766 85.4816L194.051 67.5566C193.825 67.2607 193.88 66.8367 194.179 66.6107C194.475 66.3847 194.899 66.4383 195.125 66.7388L208.84 84.6615C209.066 84.9573 209.008 85.3837 208.712 85.6097C208.588 85.7006 208.446 85.7471 208.302 85.7471Z" fill="#0F0202"/>
<path d="M217.724 84.6778C217.514 84.6778 217.307 84.5823 217.177 84.3982L209.272 73.3879C209.053 73.085 209.125 72.6633 209.425 72.4467C209.726 72.23 210.15 72.2976 210.369 72.6004L218.271 83.6084C218.49 83.9113 218.418 84.3353 218.118 84.552C217.996 84.6358 217.861 84.6778 217.724 84.6778Z" fill="#0F0202"/>
<path d="M146.822 76.1369C146.624 76.1369 146.431 76.0531 146.296 75.89C143.395 72.3115 140.595 68.5676 137.972 64.7608C137.762 64.4533 137.839 64.0316 138.146 63.822C138.449 63.6123 138.871 63.6845 139.085 63.9944C141.685 67.7732 144.467 71.4891 147.346 75.0373C147.582 75.3262 147.535 75.7525 147.246 75.9878C147.123 76.0903 146.974 76.1369 146.822 76.1369Z" fill="#0F0202"/>
<path d="M136.324 77.784C136.133 77.784 135.942 77.7048 135.809 77.5464L127.215 67.3817C126.973 67.0952 127.01 66.6689 127.294 66.4289C127.583 66.1889 128.007 66.2239 128.247 66.5081L136.839 76.6728C137.081 76.957 137.046 77.3833 136.76 77.6233C136.634 77.7304 136.48 77.784 136.324 77.784Z" fill="#0F0202"/>
<path d="M126.268 81.4604C126.103 81.4604 125.935 81.4021 125.807 81.2787C122.364 78.0683 119.002 74.6832 115.815 71.2212C115.563 70.9463 115.58 70.5176 115.854 70.266C116.132 70.0167 116.558 70.033 116.81 70.3056C119.974 73.749 123.312 77.1061 126.73 80.2932C127.002 80.5471 127.019 80.9758 126.765 81.2484C126.629 81.3858 126.448 81.4604 126.268 81.4604Z" fill="#0F0202"/>
<path d="M117.081 84.9714C116.939 84.9714 116.797 84.9271 116.674 84.8362C113.738 82.63 110.828 80.3212 108.023 77.9751C107.737 77.7328 107.699 77.3088 107.939 77.0223C108.182 76.7357 108.606 76.6985 108.892 76.9384C111.676 79.2728 114.572 81.5653 117.487 83.7576C117.785 83.9812 117.843 84.4029 117.619 84.7034C117.487 84.8781 117.286 84.9714 117.081 84.9714Z" fill="#0F0202"/>
<g opacity="0.1294">
<path d="M320.974 34.2296H2.02539V43.6883H320.974V34.2296Z" fill="#0F0202"/>
</g>
</svg>
