<svg width="262" height="255" viewBox="0 0 262 255" fill="none" xmlns="http://www.w3.org/2000/svg">
<path d="M75.6212 204.532H12.9746V252.602H75.6212V204.532Z" fill="white"/>
<path d="M75.6244 254.335H12.9777C12.0175 254.335 11.2402 253.558 11.2402 252.6V204.53C11.2402 203.569 12.0196 202.792 12.9777 202.792H75.6244C76.5845 202.792 77.3618 203.571 77.3618 204.53V252.6C77.3618 253.56 76.5825 254.335 75.6244 254.335ZM14.7112 250.862H73.8869V206.267H14.7112V250.862Z" fill="#0F0202"/>
<path d="M168.049 159.81H105.402V252.6H168.049V159.81Z" fill="#EC2227"/>
<path d="M168.05 254.335H105.403C104.443 254.335 103.666 253.558 103.666 252.6V159.81C103.666 158.85 104.445 158.074 105.403 158.074H168.05C169.01 158.074 169.788 158.852 169.788 159.81V252.6C169.79 253.56 169.01 254.335 168.05 254.335ZM107.139 250.862H166.315V161.547H107.139V250.862Z" fill="#0F0202"/>
<path d="M259.737 104.754H197.088V252.6H259.737V104.754Z" fill="white"/>
<path d="M259.738 254.335H197.089C196.131 254.335 195.354 253.558 195.354 252.6V104.752C195.354 103.794 196.133 103.016 197.089 103.016H259.738C260.698 103.016 261.473 103.796 261.473 104.752V252.6C261.473 253.56 260.696 254.335 259.738 254.335ZM198.826 250.862H258V106.489H198.826V250.862Z" fill="#0F0202"/>
<path d="M1.7362 171.506C0.966897 171.506 0.265969 170.994 0.0590819 170.217C-0.187978 169.289 0.362382 168.336 1.28835 168.089C51.8873 154.598 78.6019 141.658 128.486 111.971C177.056 83.0648 222.408 43.712 256.191 1.15754C256.786 0.406321 257.883 0.279779 258.632 0.876337C259.383 1.4729 259.51 2.56557 258.913 3.3168C224.875 46.1927 179.187 85.8407 130.263 114.956C82.3017 143.498 53.906 157.657 2.18416 171.446C2.03552 171.488 1.88483 171.506 1.7362 171.506Z" fill="#F5F5F5"/>
<path d="M252.883 39.2248C251.977 39.2248 251.214 38.5238 251.153 37.6058C250.442 27.2916 251.609 17.0577 254.624 7.11309C243.529 13.2755 231.461 17.8572 218.684 20.7516C217.744 20.9665 216.818 20.376 216.607 19.442C216.396 18.508 216.983 17.574 217.917 17.3651C231.875 14.2015 244.963 8.97509 256.816 1.83447C257.445 1.45685 258.246 1.51307 258.814 1.97907C259.383 2.44507 259.598 3.2184 259.347 3.91137C255.428 14.7579 253.837 26.0162 254.618 37.3688C254.685 38.3269 253.962 39.1565 253.003 39.2208C252.963 39.2248 252.921 39.2248 252.883 39.2248Z" fill="#F5F5F5"/>
<path d="M28.9592 247.608C28.8387 247.608 28.7202 247.572 28.6178 247.498C24.946 244.827 21.6098 241.709 18.6993 238.232C18.4944 237.987 18.5266 237.622 18.7716 237.417C19.0167 237.212 19.3822 237.242 19.5871 237.489C22.4353 240.894 25.7033 243.947 29.2987 246.562C29.5578 246.751 29.614 247.112 29.4252 247.371C29.3147 247.526 29.138 247.608 28.9592 247.608Z" fill="#0F0202"/>
<path d="M42.2293 247.552C42.0987 247.552 41.9641 247.508 41.8556 247.416C33.6002 240.438 25.6663 232.909 18.2766 225.036C18.0576 224.805 18.0677 224.437 18.3027 224.22C18.5337 224.001 18.9032 224.011 19.1202 224.246C26.4817 232.084 34.3816 239.584 42.6028 246.532C42.8459 246.739 42.878 247.104 42.6711 247.347C42.5586 247.482 42.394 247.552 42.2293 247.552Z" fill="#0F0202"/>
<path d="M54.7352 247.677C54.5926 247.677 54.448 247.625 54.3375 247.516C43.3524 237.049 32.4115 226.247 21.8161 215.406C21.5931 215.177 21.5992 214.81 21.8261 214.587C22.0571 214.366 22.4227 214.368 22.6436 214.597C33.231 225.429 44.1619 236.224 55.137 246.68C55.368 246.899 55.376 247.267 55.1571 247.498C55.0426 247.616 54.8879 247.677 54.7352 247.677Z" fill="#0F0202"/>
<path d="M67.1642 246.845C67.0216 246.845 66.875 246.793 66.7646 246.684L30.6034 211.945C30.3724 211.724 30.3664 211.359 30.5873 211.128C30.8083 210.899 31.1759 210.891 31.4049 211.112L67.566 245.849C67.797 246.07 67.803 246.437 67.582 246.668C67.4675 246.785 67.3169 246.845 67.1642 246.845Z" fill="#0F0202"/>
<path d="M69.5307 236.336C69.3801 236.336 69.2295 236.278 69.115 236.159C60.8958 227.617 52.2306 219.301 43.3586 211.443C43.1175 211.232 43.0954 210.865 43.3083 210.628C43.5192 210.385 43.8867 210.363 44.1258 210.578C53.0219 218.457 61.7092 226.793 69.9485 235.356C70.1695 235.587 70.1615 235.954 69.9325 236.175C69.822 236.28 69.6774 236.336 69.5307 236.336Z" fill="#0F0202"/>
<path d="M68.7572 222.44C68.6025 222.44 68.4458 222.376 68.3313 222.252C64.7198 218.327 60.8954 214.516 56.9645 210.931C56.7275 210.716 56.7115 210.349 56.9264 210.114C57.1413 209.877 57.5069 209.861 57.7439 210.075C61.7009 213.683 65.5494 217.517 69.183 221.466C69.3979 221.701 69.3838 222.069 69.1468 222.286C69.0363 222.388 68.8978 222.44 68.7572 222.44Z" fill="#0F0202"/>
<g opacity="0.1294">
<path d="M260.104 246.901C259.909 244.15 259.969 241.388 259.937 238.632C259.905 231.799 260.311 224.977 259.949 218.146C259.981 212.6 260.291 207.034 259.74 201.503C259.084 194.814 258.945 188.095 258.997 181.38C258.537 172.579 258.095 163.773 257.905 154.961C257.688 147.453 258.174 139.951 258.326 132.449C258.624 124.434 258.389 116.4 258.935 108.395C260.239 103.424 253.164 101.867 252.638 107.04C251.824 113.678 251.826 120.381 251.551 127.053C251.278 134.505 250.872 141.951 250.77 149.407C250.75 162.29 251.467 175.162 251.338 188.047C251.421 195.519 252.642 202.931 252.451 210.411C252.351 215.475 252.483 220.528 252.827 225.58C252.787 231.636 252.618 237.688 252.877 243.74C252.823 245.688 252.815 247.632 252.887 249.577C252.837 250.362 252.728 251.19 253.144 251.895C253.739 253.622 255.781 254.492 257.499 254.032C260.68 253.158 260.369 249.517 260.104 246.901Z" fill="#0F0202"/>
</g>
<g opacity="0.1294">
<path d="M167.797 247.002C166.74 239.552 166.3 226.092 166.622 215.657C166.003 207.099 166.915 198.542 166.764 189.975C166.543 183.031 166.509 176.086 166.433 169.14C166.264 166.386 166.78 163.461 166.049 160.8C164.864 157.616 159.844 158.619 159.921 162.033C159.941 177.514 160.142 193.008 159.577 208.485C159.533 211.544 159.963 214.593 159.893 217.654C159.881 222.266 159.477 226.875 159.758 231.485C159.784 236.139 160.136 240.761 160.873 245.355C161.04 247.042 160.815 248.733 160.65 250.414C160.652 250.404 160.652 250.4 160.652 250.392C160.648 250.438 160.642 250.481 160.636 250.531C160.523 253.65 164.687 255.38 166.824 253.094C168.429 251.469 167.787 249.056 167.797 247.002Z" fill="#0F0202"/>
</g>
<g opacity="0.1294">
<path d="M74.08 248.484C73.9735 245.863 74.0519 243.244 74.09 240.622C73.9735 229.177 73.5095 217.732 73.3167 206.285C73.2484 201.808 66.5658 201.79 66.4774 206.285C66.2685 218.459 66.9836 230.617 67.1061 242.78C67.0659 244.861 67.1061 246.941 67.0639 249.02C67.1302 250.125 66.9133 251.334 67.4175 252.353C68.3515 255.036 72.3868 255.235 73.7285 252.776C74.544 251.477 74.0338 249.922 74.08 248.484Z" fill="#0F0202"/>
</g>
</svg>
