<svg width="326" height="239" viewBox="0 0 326 239" fill="none" xmlns="http://www.w3.org/2000/svg">
<path d="M247.329 183.583C247.329 122.78 248.008 69.8293 247.326 12.7469C165.975 12.7469 84.2096 15.2247 2.25053 14.3225C1.46272 72.4979 2.25053 127.221 2.25053 183.788C84.1668 183.785 165.82 183.583 247.329 183.583Z" fill="white"/>
<path d="M2.24866 185.682C1.19975 185.682 0.346599 184.834 0.346599 183.788C0.346599 164.928 0.258893 145.962 0.17336 127.625C0.00229283 90.983 -0.175605 53.0904 0.346599 14.2978C0.360105 13.2609 1.21101 12.4282 2.24866 12.4282C2.25542 12.4282 2.26211 12.4282 2.26886 12.4282C49.6026 12.9489 97.6117 12.3339 144.047 11.7369C177.93 11.3037 212.963 10.8526 247.324 10.8526C248.367 10.8526 249.213 11.6875 249.226 12.7244C249.674 50.3993 249.535 86.0408 249.382 123.774C249.307 143.007 249.229 162.897 249.229 183.583C249.229 184.629 248.378 185.478 247.327 185.478C206.624 185.478 165.885 185.527 125.095 185.579C84.2032 185.63 43.2574 185.682 2.24866 185.682ZM4.12366 16.237C3.63072 54.3383 3.80395 91.5733 3.97502 127.605C4.0583 145.336 4.14389 163.648 4.14839 181.891C44.5247 181.891 84.8334 181.84 125.093 181.79C165.248 181.741 205.355 181.691 245.427 181.689C245.431 161.676 245.508 142.41 245.582 123.761C245.728 86.667 245.868 51.5979 245.445 14.6412C211.711 14.6569 177.345 15.0991 144.092 15.5255C98.2599 16.1135 50.8812 16.7263 4.12366 16.237Z" fill="#0F0202"/>
<path d="M323.367 236.404C323.367 175.6 324.045 122.65 323.365 65.5671C242.013 65.5671 160.248 68.0449 78.2866 67.1427C77.5011 125.318 78.2866 180.042 78.2866 236.606C160.207 236.608 241.858 236.404 323.367 236.404Z" fill="white"/>
<path d="M78.2776 238.5C77.2287 238.5 76.3778 237.652 76.3778 236.606C76.3778 217.748 76.2879 198.783 76.2046 180.444C76.0335 143.801 75.8556 105.911 76.3778 67.1181C76.3914 66.0811 77.2399 65.2484 78.2776 65.2484C78.2843 65.2484 78.2934 65.2484 78.3001 65.2484C125.632 65.7714 173.645 65.1542 220.076 64.5572C253.959 64.124 288.994 63.6729 323.356 63.6729C324.398 63.6729 325.244 64.5078 325.258 65.5447C325.706 103.206 325.564 138.836 325.413 176.561C325.336 195.804 325.26 215.703 325.26 236.404C325.26 237.45 324.407 238.298 323.358 238.298C282.655 238.298 241.917 238.347 201.128 238.399C160.234 238.451 119.291 238.5 78.2776 238.5ZM80.1549 69.0572C79.662 107.159 79.8352 144.396 80.0063 180.426C80.0873 198.156 80.1729 216.469 80.1796 234.711C120.556 234.711 160.865 234.66 201.124 234.61C241.28 234.561 281.386 234.512 321.456 234.509C321.46 214.482 321.537 195.205 321.611 176.545C321.758 139.465 321.897 104.405 321.476 67.4614C287.742 67.4772 253.376 67.9193 220.126 68.3457C174.293 68.936 126.917 69.5488 80.1549 69.0572Z" fill="#0F0202"/>
<path d="M323.367 236.404C323.367 175.6 324.045 122.65 323.365 65.5671C242.013 65.5671 160.248 68.0449 78.2866 67.1427C77.5011 125.318 78.2866 180.042 78.2866 236.606C160.207 236.608 241.858 236.404 323.367 236.404Z" fill="white"/>
<path d="M78.2776 238.5C77.2287 238.5 76.3778 237.652 76.3778 236.606C76.3778 217.748 76.2879 198.783 76.2046 180.444C76.0335 143.801 75.8556 105.911 76.3778 67.1181C76.3914 66.0811 77.2399 65.2484 78.2776 65.2484C78.2843 65.2484 78.2934 65.2484 78.3001 65.2484C125.632 65.7714 173.645 65.1542 220.076 64.5572C253.959 64.124 288.994 63.6729 323.356 63.6729C324.398 63.6729 325.244 64.5078 325.258 65.5447C325.706 103.206 325.564 138.836 325.413 176.561C325.336 195.804 325.26 215.703 325.26 236.404C325.26 237.45 324.407 238.298 323.358 238.298C282.655 238.298 241.917 238.347 201.128 238.399C160.234 238.451 119.291 238.5 78.2776 238.5ZM80.1549 69.0572C79.662 107.159 79.8352 144.396 80.0063 180.426C80.0873 198.156 80.1729 216.469 80.1796 234.711C120.556 234.711 160.865 234.66 201.124 234.61C241.28 234.561 281.386 234.512 321.456 234.509C321.46 214.482 321.537 195.205 321.611 176.545C321.758 139.465 321.897 104.405 321.476 67.4614C287.742 67.4772 253.376 67.9193 220.126 68.3457C174.293 68.936 126.917 69.5488 80.1549 69.0572Z" fill="#0F0202"/>
<path d="M78.8048 49.5038C78.5324 56.5984 78.5977 63.3295 78.2871 71.4565C160.318 71.6428 241.593 71.5328 323.367 71.2568C323.367 63.922 323.158 54.3361 323.158 48.3749L78.8048 49.5038Z" fill="#EC2227"/>
<path d="M161.206 73.4429C132.725 73.4429 105.163 73.4115 78.2834 73.3509C77.7679 73.3509 77.2727 73.1399 76.9171 72.7696C76.5592 72.397 76.3679 71.8987 76.3882 71.3848C76.548 67.2124 76.6087 63.3991 76.6672 59.716C76.7212 56.2035 76.7753 52.884 76.9058 49.4298C76.9464 48.4153 77.7792 47.6118 78.7966 47.6073L323.15 46.4784C323.15 46.4784 323.154 46.4784 323.159 46.4784C323.661 46.4784 324.145 46.6759 324.5 47.0305C324.856 47.3874 325.058 47.8699 325.058 48.3749C325.058 51.1939 325.106 54.8276 325.155 58.6477C325.209 62.9031 325.27 67.3919 325.27 71.2591C325.27 72.3027 324.422 73.1511 323.375 73.1534C265.633 73.3464 211.974 73.4429 161.206 73.4429ZM80.2551 69.569C153.953 69.7284 232.896 69.6633 321.462 69.3693C321.446 65.9847 321.399 62.2612 321.351 58.697C321.313 55.6693 321.275 52.7628 321.261 50.2804L80.64 51.3914C80.5545 54.17 80.5096 56.9082 80.4668 59.7789C80.415 62.9009 80.3654 66.1104 80.2551 69.569Z" fill="#0F0202"/>
<path d="M2.74202 3.52903C2.46967 10.6237 2.53493 17.3547 2.22656 25.4817C84.2576 25.668 165.53 25.5581 247.305 25.282C247.305 17.945 247.095 8.35903 247.095 2.40009L2.74202 3.52903Z" fill="white"/>
<path d="M85.1431 27.4681C56.6627 27.4681 29.1006 27.4367 2.22064 27.3761C1.70519 27.3761 1.21226 27.1651 0.854372 26.7947C0.496482 26.4244 0.307389 25.9239 0.327647 25.4099C0.487459 21.2218 0.548201 17.3996 0.604473 13.703C0.660745 10.2017 0.712556 6.89793 0.843107 3.45723C0.881372 2.44051 1.71651 1.63701 2.73391 1.63252L247.089 0.50581C247.582 0.458677 248.08 0.703324 248.44 1.05794C248.796 1.41481 248.998 1.89736 248.998 2.40235C248.998 5.22135 249.045 8.85283 249.093 12.6728C249.147 16.9283 249.205 21.4171 249.205 25.2843C249.205 26.3279 248.359 27.1741 247.312 27.1785C189.57 27.3716 135.912 27.4681 85.1431 27.4681ZM4.19236 23.592C77.8929 23.7491 156.834 23.6862 245.399 23.3922C245.383 20.0076 245.338 16.2819 245.291 12.7177C245.25 9.69224 245.214 6.78571 245.201 4.30338L4.57731 5.41437C4.49178 8.1795 4.44895 10.9065 4.40393 13.7614C4.35441 16.8968 4.30491 20.1221 4.19236 23.592Z" fill="#0F0202"/>
<path d="M250.103 62.1774C249.072 62.1774 248.223 61.3512 248.205 60.3161C248.185 59.2698 249.02 58.4054 250.069 58.3851L261.351 58.1763C262.435 58.2055 263.268 58.9891 263.286 60.0354C263.307 61.0817 262.472 61.9484 261.423 61.9664L250.139 62.1752C250.13 62.1774 250.116 62.1774 250.103 62.1774Z" fill="#0F0202"/>
<path d="M275.066 62.3882C274.033 62.3882 273.189 61.562 273.168 60.5269C273.148 59.4806 273.983 58.6162 275.032 58.5959L286.316 58.3849C287.322 58.4118 288.231 59.1977 288.249 60.244C288.27 61.2903 287.435 62.157 286.386 62.1749L275.102 62.386C275.093 62.3882 275.079 62.3882 275.066 62.3882Z" fill="#0F0202"/>
<path d="M299.213 61.9642C298.18 61.9642 297.333 61.138 297.313 60.1029C297.293 59.0566 298.128 58.1922 299.179 58.172L310.46 57.9631C310.472 57.9631 310.485 57.9631 310.496 57.9631C311.53 57.9631 312.376 58.7894 312.396 59.8222C312.419 60.8685 311.584 61.7352 310.532 61.7532L299.249 61.9642C299.238 61.9642 299.224 61.9642 299.213 61.9642Z" fill="#0F0202"/>
<path d="M124.759 133.097C123.708 133.097 122.857 132.25 122.857 131.201C122.857 130.155 123.708 129.306 124.759 129.306L273.876 129.275C274.925 129.275 275.775 130.122 275.775 131.17C275.775 132.216 274.927 133.065 273.876 133.065L124.759 133.097Z" fill="#0F0202"/>
<path d="M144.954 165.488C143.906 165.488 143.055 164.642 143.055 163.593C143.055 162.545 143.903 161.696 144.954 161.696L237.22 161.665C238.271 161.665 239.122 162.511 239.122 163.56C239.122 164.608 238.271 165.457 237.222 165.457L144.954 165.488Z" fill="#0F0202"/>
<path d="M124.759 197.305C123.708 197.305 122.857 196.459 122.857 195.41C122.857 194.364 123.708 193.515 124.759 193.515L280.703 193.484C281.751 193.484 282.605 194.33 282.605 195.379C282.605 196.425 281.754 197.274 280.703 197.274L124.759 197.305Z" fill="#0F0202"/>
<path d="M8.31825 49.2794C8.1832 49.2794 8.05272 49.239 7.94018 49.1537C7.65882 48.9449 7.60025 48.5499 7.80733 48.2694C12.5522 41.8997 17.7878 35.7971 23.3632 30.1322C23.6085 29.8853 24.0092 29.8808 24.2591 30.1254C24.5067 30.3701 24.5111 30.7696 24.2658 31.0187C18.7309 36.641 13.5336 42.701 8.82478 49.0235C8.70324 49.1918 8.51183 49.2794 8.31825 49.2794Z" fill="#0F0202"/>
<path d="M9.43144 64.3283C9.29188 64.3283 9.15227 64.2834 9.03523 64.1891C8.76287 63.9714 8.71572 63.5742 8.93631 63.3004C17.636 52.4104 26.806 41.6507 36.1899 31.3196C36.4262 31.0615 36.827 31.0435 37.0836 31.2769C37.3424 31.5103 37.3626 31.9099 37.1285 32.168C27.7626 42.4766 18.6083 53.2162 9.92437 64.0859C9.80057 64.2475 9.61601 64.3283 9.43144 64.3283Z" fill="#0F0202"/>
<path d="M9.40232 81.0267C9.25827 81.0267 9.11194 80.9774 8.99265 80.8764C8.72479 80.6497 8.69098 80.2524 8.91832 79.9876C22.5294 63.9961 36.5794 47.9978 50.6766 32.4372C50.913 32.1769 51.3137 32.1589 51.5703 32.3901C51.8292 32.6235 51.8517 33.023 51.6176 33.2811C37.5271 48.8327 23.4861 64.8198 9.88399 80.8001C9.76019 80.9527 9.58014 81.0267 9.40232 81.0267Z" fill="#0F0202"/>
<path d="M9.2573 100.176C9.1155 100.176 8.97374 100.129 8.85669 100.035C8.58659 99.8149 8.54379 99.4176 8.76437 99.146C27.3927 76.2978 47.1036 53.8491 67.3503 32.426C67.5889 32.1724 67.9895 32.1612 68.2438 32.3991C68.4982 32.637 68.5117 33.0388 68.2731 33.2924C48.0467 54.693 28.356 77.117 9.7457 99.9428C9.6219 100.095 9.44187 100.176 9.2573 100.176Z" fill="#0F0202"/>
<path d="M9.22019 117.579C9.07613 117.579 8.92766 117.53 8.80611 117.427C8.54276 117.198 8.50902 116.801 8.74086 116.536C33.5568 87.7466 59.5116 59.2581 85.8762 31.8649C86.1148 31.6158 86.5154 31.6046 86.7697 31.8492C87.0218 32.0894 87.0308 32.4889 86.7877 32.7425C60.4412 60.1177 34.5043 88.5882 9.69965 117.362C9.5781 117.505 9.39801 117.579 9.22019 117.579Z" fill="#0F0202"/>
<path d="M94.9815 44.8916C94.8217 44.8916 94.6574 44.831 94.5336 44.7053C94.2883 44.4584 94.2883 44.0589 94.5336 43.812L107.226 31.1669C107.472 30.92 107.875 30.92 108.12 31.1669C108.368 31.4138 108.368 31.8133 108.12 32.0579L95.4295 44.703C95.3079 44.831 95.1435 44.8916 94.9815 44.8916Z" fill="#0F0202"/>
<path d="M113.267 44.6828C113.114 44.6828 112.956 44.6267 112.835 44.51C112.58 44.2721 112.567 43.8726 112.805 43.6189L125.061 30.5901C125.3 30.3319 125.701 30.3207 125.955 30.5609C126.209 30.7988 126.223 31.1983 125.984 31.4519L113.728 44.4808C113.604 44.6155 113.436 44.6828 113.267 44.6828Z" fill="#0F0202"/>
<path d="M131.699 44.7725C131.557 44.7725 131.417 44.7254 131.3 44.6311C131.028 44.4112 130.985 44.0117 131.206 43.7423C134.839 39.2759 138.769 34.9599 142.892 30.9177C143.14 30.6731 143.543 30.6753 143.786 30.9244C144.031 31.1736 144.027 31.5731 143.779 31.8177C139.691 35.8263 135.791 40.1064 132.189 44.5369C132.068 44.694 131.883 44.7725 131.699 44.7725Z" fill="#0F0202"/>
<path d="M149.93 44.4876C149.788 44.4876 149.644 44.4405 149.525 44.3417C149.257 44.1173 149.219 43.72 149.444 43.4529C153.14 39.0292 157.074 34.7109 161.137 30.6193C161.383 30.3724 161.788 30.3679 162.033 30.6148C162.281 30.8595 162.283 31.259 162.038 31.5081C157.997 35.575 154.09 39.8663 150.416 44.2632C150.292 44.4091 150.112 44.4876 149.93 44.4876Z" fill="#0F0202"/>
<path d="M165.491 45.0891C165.329 45.0891 165.167 45.0285 165.043 44.9028C164.798 44.6582 164.798 44.2564 165.043 44.0095C169.732 39.3277 174.522 34.6525 179.278 30.1143C179.53 29.8719 179.931 29.8809 180.174 30.1345C180.412 30.3859 180.406 30.7876 180.154 31.0278C175.404 35.5593 170.621 40.2277 165.939 44.9028C165.818 45.0262 165.656 45.0891 165.491 45.0891Z" fill="#0F0202"/>
<path d="M181.807 44.8175C181.661 44.8175 181.515 44.7681 181.393 44.6671C181.128 44.4404 181.096 44.0409 181.326 43.7761C185.551 38.8473 190.158 34.1565 195.018 29.8315C195.279 29.598 195.68 29.6227 195.911 29.8808C196.145 30.1412 196.121 30.5407 195.862 30.7719C191.043 35.0587 186.476 39.7092 182.287 44.5975C182.163 44.7434 181.985 44.8175 181.807 44.8175Z" fill="#0F0202"/>
<path d="M197.31 44.1734C197.161 44.1734 197.01 44.1195 196.886 44.0118C196.628 43.7806 196.603 43.3811 196.837 43.1207C200.997 38.4725 205.415 33.959 209.969 29.7126C210.225 29.4746 210.626 29.4904 210.864 29.7417C211.103 29.9976 211.089 30.3971 210.833 30.635C206.304 34.8568 201.913 39.3389 197.78 43.9624C197.658 44.1038 197.485 44.1734 197.31 44.1734Z" fill="#0F0202"/>
<path d="M211.736 43.7694C211.572 43.7694 211.408 43.7065 211.286 43.5808C211.041 43.334 211.043 42.9322 211.291 42.6876L224.611 29.5465C224.861 29.3018 225.262 29.3041 225.507 29.551C225.752 29.7978 225.75 30.1996 225.503 30.4442L212.18 43.5853C212.058 43.7088 211.896 43.7694 211.736 43.7694Z" fill="#0F0202"/>
<path d="M229.418 43.8995C229.267 43.8995 229.114 43.8478 228.995 43.7379C228.736 43.5044 228.713 43.1049 228.947 42.8468C232.702 38.6789 236.562 34.4998 240.422 30.4307C240.661 30.1793 241.064 30.1636 241.316 30.406C241.57 30.6439 241.581 31.0456 241.343 31.2993C237.489 35.3617 233.636 39.5296 229.89 43.6907C229.762 43.8299 229.589 43.8995 229.418 43.8995Z" fill="#0F0202"/>
<path d="M10.5377 135.212C10.3914 135.212 10.2405 135.16 10.119 135.055C9.85786 134.823 9.83085 134.426 10.0604 134.164C29.5643 111.962 49.7682 89.8406 70.1117 68.4176C70.3503 68.1662 70.751 68.1505 71.0054 68.3929C71.2597 68.6331 71.2709 69.0326 71.0301 69.2862C50.7001 90.698 30.5075 112.808 11.0148 134.996C10.891 135.14 10.7133 135.212 10.5377 135.212Z" fill="#0F0202"/>
<path d="M11.0137 154.045C10.8651 154.045 10.7166 153.995 10.5973 153.89C10.3317 153.661 10.3047 153.261 10.5365 152.999C28.8384 132.051 47.8087 111.136 66.9187 90.8304C67.155 90.5745 67.5603 90.5633 67.8124 90.8012C68.0667 91.0391 68.0802 91.4386 67.8416 91.6922C48.7429 111.986 29.7837 132.891 11.4908 153.827C11.3647 153.973 11.1892 154.045 11.0137 154.045Z" fill="#0F0202"/>
<path d="M11.974 172.608C11.821 172.608 11.6656 172.552 11.5463 172.442C11.2897 172.207 11.2718 171.807 11.5082 171.551L65.0071 113.49C65.2434 113.232 65.6463 113.219 65.9006 113.452C66.1595 113.688 66.1752 114.087 65.9411 114.343L12.44 172.404C12.3162 172.539 12.1451 172.608 11.974 172.608Z" fill="#0F0202"/>
<path d="M26.0572 176.294C25.9177 176.294 25.7804 176.249 25.6634 176.157C25.3888 175.939 25.3438 175.544 25.5621 175.27C37.332 160.47 50.378 146.476 64.3402 133.674C64.599 133.441 64.9998 133.457 65.2339 133.712C65.4702 133.97 65.4544 134.368 65.1955 134.606C51.2851 147.361 38.2818 161.305 26.5525 176.056C26.4287 176.213 26.2441 176.294 26.0572 176.294Z" fill="#0F0202"/>
<path d="M42.0887 175.066C41.9402 175.066 41.7893 175.014 41.6678 174.907C41.4067 174.675 41.3819 174.276 41.616 174.016C48.4159 166.367 55.6479 158.94 63.1119 151.937C63.3662 151.699 63.7691 151.708 64.0077 151.964C64.2463 152.218 64.2351 152.619 63.9785 152.857C56.5438 159.833 49.3387 167.233 42.5613 174.853C42.4375 174.994 42.262 175.066 42.0887 175.066Z" fill="#0F0202"/>
<path d="M60.4802 175.591C60.3317 175.591 60.1787 175.537 60.0571 175.43C59.796 175.198 59.7736 174.799 60.0076 174.538L66.2492 167.552C66.4833 167.294 66.8795 167.269 67.1429 167.502C67.404 167.736 67.4264 168.133 67.1924 168.393L60.9508 175.38C60.827 175.517 60.6536 175.591 60.4802 175.591Z" fill="#0F0202"/>
<g opacity="0.1294">
<path d="M318.123 72.1005C317.85 72.0893 317.587 72.1162 317.326 72.1611C316.574 72.2329 315.833 72.3833 315.1 72.5561C314.616 72.5987 314.132 72.6436 313.648 72.6818C305.635 73.5234 297.622 72.583 289.611 72.2149C271.408 71.6022 253.221 70.6124 235.013 70.0289C218.46 69.589 201.887 69.3735 185.337 69.9615C175.991 70.287 166.641 69.8358 157.297 70.1411C135.853 71.7683 114.301 72.105 92.8344 70.6685C89.6111 70.5339 86.3969 70.2758 83.1781 70.0693C81.7466 70.0603 80.2093 69.681 78.897 70.3992C73.8461 72.3294 75.3676 80.1916 80.862 80.131C88.47 80.4093 96.0734 81.2532 103.695 81.0131C112.685 80.8178 121.664 81.462 130.64 81.8615C141.327 81.6281 152.003 81.3834 162.697 81.3587C177.161 81.0198 191.623 80.3465 206.094 80.1131C235.216 79.4712 264.302 81.4867 293.413 82.068C301.392 82.2498 309.4 82.7188 317.36 81.9153C317.501 81.9311 317.603 81.9355 317.684 81.9355C317.848 81.958 318.012 81.9782 318.179 81.9827C318.233 81.9849 318.289 81.9984 318.343 82.0006C318.296 81.9961 318.249 81.9894 318.201 81.9827C319.122 82.0074 320.04 81.7941 320.844 81.3273C325.204 78.6811 323.336 72.0511 318.123 72.1005Z" fill="#0F0202"/>
</g>
<g opacity="0.1294">
<path d="M244.664 26.0428C243.591 25.7421 242.461 25.8296 241.441 26.2134C238.432 26.3009 235.427 25.8924 232.415 25.9239C223.29 26.1528 214.183 25.6254 205.067 25.457C196.511 25.3538 187.958 25.7847 179.409 25.4076C173.091 25.0283 166.768 25.3852 160.445 25.2752C156.506 25.1338 152.565 25.0238 148.626 24.9767C146.672 24.3954 144.142 24.7074 142.245 24.3617C135.494 23.8837 128.708 23.8904 121.944 23.6682C108.869 23.2934 95.8249 24.0138 82.7653 24.3617C77.0278 24.4762 71.3082 24.0767 65.5775 23.9622C60.4725 24.0161 55.3652 24.3236 50.2603 23.9981C39.4965 23.4864 28.7328 23.767 17.9691 24.0251C14.9417 24.0161 11.9187 23.9286 8.8958 23.8231C7.46874 23.7894 5.93827 23.4124 4.63501 24.1553C-0.764852 26.2134 0.91656 34.5559 6.72158 34.4908C16.5669 35.1327 26.3761 33.7681 36.217 33.7547C50.231 33.5145 64.2337 34.1586 78.2365 34.4796C87.6722 34.6053 97.1056 34.0532 106.49 33.106C105.398 33.2362 104.9 33.308 106.258 33.2384C108.792 33.1576 111.329 33.1307 113.863 33.1217C116.267 33.3394 118.676 33.5325 121.082 33.6626C128.024 33.9544 134.97 33.5392 141.912 33.6267C152.115 33.5908 162.305 34.2731 172.51 34.1923C179.999 34.3876 187.472 35.0878 194.969 35.0991C202.409 35.0811 209.854 35.1125 217.287 35.4829C225.316 35.9677 233.435 36.3986 241.468 35.8712C241.927 35.9475 242.389 36.0215 242.85 36.0395C248.628 36.4884 250.852 28.0201 244.664 26.0428Z" fill="#0F0202"/>
</g>
</svg>
