<svg width="245" height="247" viewBox="0 0 245 247" fill="none" xmlns="http://www.w3.org/2000/svg">
<path d="M202.936 172.047C201.906 170.77 202.719 168.842 203.826 167.632C204.937 166.426 206.382 165.355 206.741 163.755C207.304 161.246 204.951 159.124 202.86 157.629C203.16 154.878 203.501 152.01 205.033 149.705C205.546 148.932 206.195 148.22 206.471 147.331C206.955 145.762 206.159 144.114 206.094 142.012C217.416 130.209 222.906 114.141 227.988 98.9167C223.739 98.7322 219.594 96.9988 215.357 97.3816C214.289 97.4768 213.234 97.7069 212.163 97.7188C209.566 97.7505 207.05 96.5069 204.277 96.497C202.223 79.9344 203.703 63.0307 200.906 46.5792C200.727 45.536 200.509 44.4392 199.811 43.6439C199.275 43.0331 198.511 42.6682 197.726 42.4659C194.784 41.7122 191.413 43.4158 190.276 46.2302C188.149 45.9009 186.005 45.6808 183.856 45.5697C183.43 42.4936 180.997 39.6277 177.908 39.2945C174.822 38.9633 171.607 41.7756 172.161 44.6594C170.179 44.4412 168.197 44.2211 166.215 44.0009C166.386 42.9557 165.858 41.8728 165.037 41.2025C164.213 40.5321 163.138 40.2346 162.081 40.1712C159.918 40.0462 157.522 41.0914 156.804 43.1322C154.605 42.801 152.373 42.6939 150.151 42.8089C148.324 40.7185 145.196 39.8756 142.077 40.1116C128.727 30.7643 113.969 23.438 98.3732 18.7455C98.0062 13.6067 98.2106 8.42636 98.9803 3.33323C87.0114 1.69899 74.9967 0.0607829 62.9147 0.0131836C56.5265 -0.0106161 49.7872 0.522896 44.2719 4.96748C43.2383 18.4103 43.4644 31.9484 44.869 45.7105C42.9724 46.9838 41.5916 49.1357 41.6055 51.4165C41.6194 53.6993 43.2342 55.9781 45.4741 56.4184C45.1328 58.4334 45.0416 60.4921 45.2043 62.5309C42.4565 62.7233 40.2822 65.0339 39.1474 67.5408C38.3162 69.3793 38.0007 71.8009 39.4569 73.1952C40.7921 74.4724 42.9208 74.2523 44.5298 74.9484C44.387 76.5688 44.2401 78.1892 44.0973 79.8095C42.0122 80.5969 40.4806 82.6734 40.3417 84.8967C40.2028 87.12 41.4665 89.3691 43.4386 90.4083C43.0338 92.6673 42.8355 94.962 42.8455 97.2547C40.8536 99.3431 40.0362 102.487 40.4707 105.872C30.8011 118.799 23.401 133.416 18.7051 148.858C13.7572 149.15 8.81132 149.441 3.73249 150.056C1.61962 153.735 0.925279 158.049 0.512624 162.271C-0.808664 175.813 0.403422 189.597 4.39109 203.258C18.1039 202.925 31.8187 202.592 45.5316 202.261C46.6069 204.29 48.8725 205.63 51.1679 205.601C53.4653 205.567 55.6913 204.163 56.7071 202.102C58.4291 202.812 60.3535 203.024 62.1906 202.705C62.504 205.984 65.4025 208.824 68.6899 209.072C71.9753 209.321 75.2666 206.949 76.0463 203.81C77.2505 203.778 78.4566 203.748 79.6609 203.717C80.4465 206.069 82.7063 207.85 85.1762 208.066C87.6442 208.28 90.1796 206.918 91.362 204.738C94.1931 204.964 96.9845 205.692 99.5656 206.878C100.968 207.524 102.851 208.219 103.7 206.83C117.986 215.797 132.479 224.859 148.368 230.081C148.205 234.975 147.753 239.862 146.686 244.959C152.522 246.689 158.702 246.772 164.791 246.842C168.074 246.879 171.362 246.917 174.647 246.955C184.112 247.066 193.849 247.127 202.874 243.075C202.874 243.075 200.928 202.205 201.402 201.505C203.053 199.736 204.832 197.469 204.126 195.157C203.424 192.87 200.501 191.605 200.303 189.221C200.148 187.368 201.757 185.861 203.36 184.921C204.963 183.979 206.806 183.195 207.741 181.589C208.735 179.881 208.379 177.636 207.322 175.966C206.261 174.298 204.608 173.1 202.936 172.047ZM147.074 139.227C144.378 139.933 141.656 140.596 138.95 141.306C136.316 141.996 133.737 142.968 131.144 143.809C125.801 145.54 120.454 147.264 115.054 148.815C114.197 149.061 113.465 148.91 112.901 148.531C111.495 149.709 108.924 149.578 108.297 147.276C104.994 135.185 101.355 123.159 96.5163 111.582C96.0441 110.452 96.8298 108.978 97.8078 108.403C98.3435 108.091 98.9149 107.994 99.4704 108.058C99.6529 107.893 99.881 107.758 100.169 107.673C105.831 105.995 111.445 104.155 117.123 102.524C119.98 101.703 122.835 100.868 125.702 100.087C126.751 99.7993 127.83 99.4918 128.926 99.2181C130.003 98.7203 131.078 98.2205 132.157 97.7307C132.508 97.4748 132.935 97.2725 133.473 97.1555C134.552 96.9195 135.506 97.3518 136.141 98.0619C136.387 98.0281 136.639 98.044 136.875 98.0996C137.294 98.1967 137.712 98.5439 137.925 98.9068C138.012 99.0555 138.079 99.2558 138.125 99.4601C138.137 99.478 138.153 99.4919 138.165 99.5058C138.827 99.5375 139.436 99.9242 139.607 100.787C141.803 111.943 145.098 122.917 149.013 133.583C149.269 134.277 149.046 134.818 148.626 135.156C149.423 136.58 149.005 138.722 147.074 139.227Z" fill="white"/>
<path d="M155.015 224.644C154.884 224.644 154.751 224.595 154.652 224.492C154.457 224.291 154.464 223.972 154.664 223.78C159.945 218.661 165.563 213.772 171.364 209.248C171.583 209.077 171.9 209.117 172.071 209.337C172.241 209.555 172.202 209.873 171.981 210.043C166.212 214.543 160.618 219.408 155.362 224.504C155.267 224.597 155.142 224.644 155.015 224.644Z" fill="#0F0202"/>
<path d="M154.67 238.536C154.549 238.536 154.43 238.492 154.333 238.407C154.127 238.218 154.113 237.901 154.297 237.695C163.566 227.461 173.599 217.719 184.11 208.74C184.322 208.558 184.641 208.584 184.82 208.794C184.998 209.004 184.977 209.325 184.764 209.502C174.283 218.455 164.284 228.165 155.043 238.369C154.946 238.478 154.809 238.536 154.67 238.536Z" fill="#0F0202"/>
<path d="M164.412 242.905C164.295 242.905 164.182 242.865 164.086 242.786C163.876 242.607 163.846 242.29 164.027 242.076C173.494 230.822 183.896 220.19 194.938 210.474C195.147 210.287 195.466 210.309 195.649 210.517C195.831 210.726 195.813 211.045 195.603 211.227C184.6 220.912 174.234 231.509 164.799 242.724C164.7 242.843 164.557 242.905 164.412 242.905Z" fill="#0F0202"/>
<path d="M176.447 242.113C176.322 242.113 176.197 242.068 176.099 241.976C175.895 241.782 175.889 241.465 176.08 241.264L195.79 220.606C195.982 220.402 196.302 220.398 196.502 220.586C196.704 220.781 196.71 221.1 196.52 221.298L176.81 241.959C176.713 242.062 176.578 242.113 176.447 242.113Z" fill="#0F0202"/>
<path d="M189.798 243.299C189.679 243.299 189.56 243.258 189.462 243.172C189.256 242.986 189.238 242.669 189.421 242.46L198.729 232.024C198.912 231.818 199.231 231.798 199.44 231.983C199.646 232.169 199.664 232.486 199.479 232.693L190.173 243.131C190.075 243.242 189.939 243.299 189.798 243.299Z" fill="#0F0202"/>
<path d="M153.496 215.047C153.381 215.047 153.268 215.007 153.174 214.93C152.96 214.752 152.93 214.434 153.109 214.222C154.9 212.064 156.878 210.031 158.993 208.181C159.2 207.998 159.521 208.018 159.704 208.227C159.886 208.435 159.866 208.756 159.656 208.937C157.585 210.751 155.642 212.746 153.885 214.863C153.783 214.986 153.641 215.047 153.496 215.047Z" fill="#0F0202"/>
<path d="M50.8769 39.4454C50.5952 39.4434 50.373 39.2173 50.373 38.9376L50.5615 5.85013C50.5634 5.57247 50.7877 5.35034 51.0654 5.35034H51.0694C51.3472 5.35233 51.5713 5.57645 51.5693 5.85609L51.3809 38.9456C51.3789 39.2212 51.1527 39.4454 50.8769 39.4454Z" fill="#0F0202"/>
<path d="M59.3274 38.2793C59.0516 38.2793 58.8295 38.0611 58.8235 37.7834L58.254 5.78675C58.2481 5.50711 58.4683 5.27902 58.7481 5.27307C58.752 5.27307 58.754 5.27307 58.758 5.27307C59.0318 5.27307 59.2559 5.49322 59.2618 5.7689L59.8313 37.7656C59.8373 38.0452 59.615 38.2733 59.3373 38.2793C59.3313 38.2793 59.3313 38.2793 59.3274 38.2793Z" fill="#0F0202"/>
<path d="M68.3869 40.1951C68.1092 40.1951 67.8849 39.971 67.8849 39.6933L67.748 5.21754C67.748 4.9379 67.9722 4.71378 68.25 4.71179C68.5297 4.71179 68.7558 4.93592 68.7578 5.21358L68.8908 39.6894C68.8927 39.969 68.6685 40.1932 68.3908 40.1951C68.3888 40.1951 68.3889 40.1951 68.3869 40.1951Z" fill="#0F0202"/>
<path d="M77.4653 37.1647C77.1955 37.1647 76.9734 36.9525 76.9615 36.6807C76.5825 26.8654 76.5864 16.9171 76.9693 7.11163C76.9792 6.83397 77.1956 6.61381 77.4932 6.6277C77.7729 6.6396 77.9871 6.87364 77.9771 7.15131C77.5942 16.933 77.5923 26.8554 77.9693 36.6431C77.9812 36.9227 77.7629 37.1547 77.4852 37.1666C77.4792 37.1647 77.4713 37.1647 77.4653 37.1647Z" fill="#0F0202"/>
<path d="M85.7305 38.9256H85.7245C85.4448 38.9216 85.2226 38.6935 85.2266 38.4139L85.6809 6.57188C85.6849 6.29224 85.8734 6.06814 86.1928 6.07409C86.4725 6.07806 86.6927 6.30811 86.6888 6.58577L86.2344 38.4277C86.2305 38.7054 86.0062 38.9256 85.7305 38.9256Z" fill="#0F0202"/>
<path d="M92.1039 38.9813C91.8242 38.9813 91.6001 38.7572 91.6001 38.4776L91.5684 10.1837C91.5684 9.90405 91.7925 9.67798 92.0703 9.67798C92.35 9.67798 92.5762 9.90209 92.5762 10.1817L92.6079 38.4756C92.6079 38.7552 92.3837 38.9813 92.1039 38.9813Z" fill="#0F0202"/>
<path d="M242.772 44.3124C228.858 45.7523 214.848 46.2263 200.869 45.7304C202.518 62.7373 203.722 79.7878 204.478 96.8581C217.637 97.6831 230.795 98.5082 243.95 99.3352C244.972 81.3823 244.793 63.362 242.772 44.3124Z" fill="#EC2227"/>
<g opacity="0.1294">
<path d="M210.827 93.3237C211.349 88.2326 210.718 83.076 210.308 77.9868C209.853 72.5268 209.637 67.0469 209.401 61.5749C209.183 56.9558 209.139 52.1959 207.671 47.7711C206.282 43.1857 199.503 45.0401 200.642 49.7088C203.614 58.717 202.701 72.6795 203.306 86.8403C203.453 88.3575 203.54 89.8648 203.814 91.3682C203.868 92.1278 203.941 92.8834 204.167 93.6014C204.282 94.948 204.036 94.2618 204.493 95.428C205.751 98.7144 210.827 97.6751 210.786 94.1607C210.589 95.6026 210.78 94.2837 210.827 93.3237Z" fill="#0F0202"/>
</g>
<g opacity="0.1294">
<path d="M228.545 98.7122C228.22 95.4457 223.397 95.1343 222.56 98.3036C221.756 101.318 220.155 106.138 219.683 106.925C217.233 112.141 214.103 116.996 211.484 122.127C208.903 126.673 205.607 130.798 203.411 135.554C202.647 137.238 202.268 137.105 201.882 138.105C201.324 137.758 200.713 137.494 200.05 137.347C199.683 137.282 199.35 137.305 199.045 137.389C200.4 138.959 201.13 141.115 200.592 143.073C200.451 143.281 200.344 143.535 200.3 143.85C200.144 144.261 199.59 145.645 198.771 146.732C198.656 146.873 198.511 147.051 198.434 147.137C198.311 147.238 198.215 147.357 198.13 147.484C198.118 147.49 198.1 147.5 198.092 147.504C197.805 147.7 196.721 148.219 196.333 148.412C193.386 149.503 190.68 150.102 190.288 151.141C189.678 152.105 190.244 153.311 191.168 153.725C191.428 155.115 192.529 156.361 194.241 156.341C195.285 156.353 196.335 156.347 197.38 156.341C197.34 156.591 197.346 156.849 197.396 157.097C197.418 157.103 197.443 157.103 197.465 157.111C197.898 157.291 198.299 157.507 198.668 157.771C198.564 158.326 198.749 158.927 199.334 159.241C199.667 159.453 199.965 159.699 200.239 159.955C200.294 160.177 200.354 160.454 200.425 160.802C200.558 162.37 200.455 162.539 199.888 164.199C199.423 165.24 199.312 165.716 198.273 166.686C198.14 166.785 198.003 166.884 197.866 166.976C197.533 167.247 197.069 167.366 196.829 167.737C196.194 168.447 196.638 169.691 197.547 169.911C197.862 169.972 198.166 169.927 198.459 169.83C198.628 170.074 198.854 170.28 199.12 170.407C198.91 170.853 198.939 171.382 199.146 171.829C199.138 171.847 199.136 171.866 199.128 171.88C199.06 171.896 198.995 171.908 198.926 171.928C197.231 172.529 197.424 175.187 199.158 175.597C199.396 175.653 199.632 175.71 199.864 175.783C199.876 175.795 199.878 175.797 199.894 175.811C200.096 175.96 200.413 176.315 200.524 176.434C200.616 176.577 200.697 176.724 200.751 176.827C200.846 177.122 200.941 177.511 201.005 177.765C201.009 177.904 201.009 178.042 200.997 178.179C200.985 178.235 200.971 178.296 200.955 178.368C200.81 179.167 200.814 179.459 200.461 180.264C199.79 181.263 198.455 182.62 196.436 183.574C195.289 184.03 194.079 184.326 192.857 184.506C192.75 184.53 193.091 184.466 193.166 184.464C191.885 184.617 190.621 184.879 189.361 185.157C188.72 185.232 188.03 185.625 187.992 186.335C188.008 188.213 189.528 187.761 190.609 187.656C191.506 187.568 192.406 187.538 193.299 187.421C193.329 188.258 193.722 189.076 194.597 189.563C195.285 189.877 196.029 190.244 196.795 190.543C196.116 191.392 196.063 192.755 197.295 193.51C197.32 193.53 197.344 193.55 197.368 193.566C197.376 193.574 197.414 193.609 197.517 193.699C197.638 193.81 197.741 193.931 197.846 194.054C197.969 194.24 198.094 194.466 198.174 194.611C198.308 194.986 198.414 195.375 198.487 195.767C198.564 197.562 198.658 196.83 198.241 198.52C197.822 199.367 197.868 199.339 197.664 199.694C197.479 199.895 197.291 200.093 197.084 200.269C196.14 201.041 196.541 200.849 195.636 201.406C194.801 201.703 194.434 202.673 194.825 203.336C194.418 203.8 194.21 204.438 194.424 205.15C194.751 206.991 195.059 208.837 195.479 210.658C195.501 210.949 195.571 211.209 195.67 211.439C195.981 215.269 196.291 221.207 196.337 224.977C196.551 230.941 195.827 237.107 197.289 242.936C197.854 245.275 201.078 246.123 202.725 244.372C203.889 243.154 203.828 241.318 203.738 239.743C203.24 230.628 203.57 221.471 202.294 212.405C202.179 211.406 202.058 210.404 201.921 209.404C202.32 207.976 202.024 208.131 202.294 206.844C202.195 205.68 202.564 204.407 202.141 203.304C202.106 203.209 202.06 203.129 202.016 203.046C202.604 202.477 202.995 201.664 203.451 200.999C205.163 197.877 204.895 193.582 202.352 190.978C202.072 190.726 201.784 190.454 201.473 190.226C202.385 189.202 202.435 187.439 201.387 186.456C200.846 185.974 200.193 185.635 199.451 185.654C199.429 185.652 199.419 185.652 199.402 185.652C199.187 185.607 199.013 185.563 198.864 185.525C199.275 185.307 199.685 185.069 200.09 184.817C200.322 185.379 200.784 185.843 201.443 186.003C202.713 186.291 203.867 185.397 204.949 184.853C208.26 182.668 209.472 177.765 207.163 174.443C206.006 172.743 204.195 171.264 202.151 170.843C202.092 170.552 201.967 170.272 201.774 170.046C202.036 169.929 202.294 169.81 202.55 169.703C206.147 167.874 207.702 163.013 205.712 159.471C205.173 158.313 204.32 157.341 203.31 156.571C204.955 155.823 205.911 153.668 204.687 151.799C204.161 150.875 203.258 150.399 202.258 150.177C202.443 150.062 202.631 149.953 202.814 149.834C204.417 148.529 204.26 148.83 205.095 146.645C205.554 145.018 205.391 143.202 204.732 141.599C204.905 141.546 205.074 141.474 205.234 141.375C205.851 141.012 206.212 140.429 206.492 139.8C206.883 139.917 207.3 139.937 207.7 139.82C208.137 139.671 208.536 139.435 208.827 139.088C208.944 138.959 209.68 138.005 209.861 137.692C211.196 135.582 212.507 133.454 213.787 131.31C215.874 127.817 218.062 124.38 219.899 120.747C220.364 119.632 221.35 118.535 220.995 117.264C220.875 116.774 220.598 116.391 220.237 116.12C222.742 112.115 225.399 108.198 227.012 103.722C227.522 102.072 228.724 100.455 228.545 98.7122Z" fill="#0F0202"/>
</g>
<g opacity="0.1294">
<path d="M138.846 226.392C139.596 226.346 140.151 225.739 140.316 225.045C140.822 225.245 141.312 225.43 141.8 225.614C141.31 226.378 141.177 227.344 141.393 228.22C141.615 228.316 141.838 228.413 142.048 228.508C142.917 228.895 143.76 229.414 144.55 229.948C144.786 230.107 145.01 230.279 145.238 230.45C146.948 230.015 147.696 228.401 147.49 226.927C147.543 226.834 147.599 226.737 147.635 226.614C147.865 225.668 147.167 225.255 146.458 224.998C146.038 224.633 145.492 224.381 144.822 224.292C142.8 223.151 140.725 221.063 139.372 220.273C137.197 218.75 134.678 217.88 132.408 216.523C131.71 216.079 131.051 215.652 130.41 215.232C129.859 214.77 129.188 214.214 128.409 213.423C122.774 207.648 119.608 204.458 118.056 197.352C118.279 196.44 117.916 195.357 117.934 194.425C117.92 194.237 117.908 194.05 117.892 193.862C117.564 190.871 117.469 187.868 117.515 184.856C117.434 184.735 117.35 184.617 117.247 184.52C117.106 182.305 116.957 180.09 116.793 177.874C116.781 169.616 117.019 161.268 114.549 153.309C113.797 150.828 111.428 150.286 109.655 151.066C109.18 149.204 108.692 147.341 108.149 145.495C105.846 138.125 104.048 134.991 101.61 128.716C99.7747 123.383 98.0626 117.986 95.3784 113C94.3944 111.426 93.5969 109.133 91.6982 108.532C89.2303 107.766 86.9467 110.72 88.3275 112.917C92.2378 118.282 94.6562 124.561 97.6955 130.432C99.358 134.069 101.3 137.575 102.901 141.239C103.967 143.642 106.193 150.294 107.617 154.681C107.637 154.852 107.649 155.019 107.692 155.197C110.178 164.953 110.567 173.313 110.063 186.803C109.96 191.946 108.589 198.931 107.5 202.973C107.468 202.973 107.441 202.965 107.407 202.967C105.3 202.896 104.131 205.706 105.673 207.15C108.611 209.474 111.476 211.894 114.45 214.171C117.424 216.287 120.608 218.078 123.768 219.898C127.069 221.695 130.492 223.27 133.948 224.74C135.305 225.323 136.691 225.829 138.078 226.334C138.328 226.43 138.594 226.447 138.846 226.392Z" fill="#0F0202"/>
</g>
<g opacity="0.1294">
<path d="M97.1654 201.291C97.0285 200.643 96.6397 200.002 96.0703 199.641C95.9453 199.54 95.8123 199.445 95.6735 199.367C95.8362 198.269 95.6061 197.082 95.7033 195.982C95.6993 195.177 95.8243 194.248 95.1656 193.643C94.0923 192.493 91.9914 193.362 92.0449 194.937C92.1362 196.335 91.916 197.808 92.0707 199.203C91.5986 199.823 91.5172 200.74 92.2612 201.666C92.3148 201.729 92.3742 201.791 92.4278 201.852C92.4278 201.858 92.4298 201.862 92.4298 201.868C92.4298 201.906 92.4298 201.948 92.4298 202.009C92.6202 205.672 98.0185 204.871 97.1654 201.291Z" fill="#0F0202"/>
</g>
<g opacity="0.1294">
<path d="M78.2399 197.703C74.0677 197.808 74.0796 203.915 78.2399 204.028C82.4081 203.925 82.3982 197.816 78.2399 197.703Z" fill="#0F0202"/>
</g>
<g opacity="0.1294">
<path d="M59.3727 193.392C55.2005 193.497 55.2124 199.603 59.3727 199.716C63.5429 199.615 63.531 193.507 59.3727 193.392Z" fill="#0F0202"/>
</g>
<g opacity="0.1294">
<path d="M103.018 19.2334C102.067 16.6769 98.0619 17.502 98.1214 20.2191C97.6354 26.4963 97.0561 32.6921 96.3438 37.2081C96.2149 38.3406 95.5641 39.3402 95.5819 40.4925C95.4589 44.7784 101.446 44.5107 101.21 40.2208C101.197 39.1934 101.018 39.8895 101.113 38.2692C101.794 34.2748 102.22 30.2467 102.659 26.2226C102.827 24.6042 103.014 22.9858 103.143 21.3635C103.18 20.6555 103.389 19.8859 103.018 19.2334Z" fill="#0F0202"/>
</g>
<path d="M150.483 139.709C149.839 139.709 149.244 139.297 149.041 138.65C147.714 134.402 146.426 130.408 145.196 126.594C136.34 99.1092 130.49 80.948 135.418 47.8506C135.757 45.5758 140.427 39.1776 142.599 39.1776L143.21 39.1756C146.611 39.1736 150.487 39.1479 151.507 44.6159C152.075 47.6602 152.467 50.3575 152.807 52.9061C153.436 47.2437 154.677 42.1803 156.901 40.3775C158.838 38.8087 163.659 37.2498 166.565 40.552C167.882 42.0514 168.884 44.2152 169.642 46.7182C169.892 45.4211 170.22 44.1418 170.652 42.811C171.281 40.8733 172.562 36.881 177.288 37.0337C180.966 37.1804 184.337 40.0582 185.127 43.7293L185.379 44.8896C185.781 46.7479 186.295 49.106 186.799 51.8033C187.283 49.5999 187.928 47.3865 188.777 44.9312C189.902 41.6607 194.77 39.9769 197.957 40.8872C203.153 42.3767 203.363 48.5825 203.45 51.2322C203.841 62.8147 204.071 68.6634 204.299 74.5122C204.527 80.3649 204.756 86.2177 205.148 97.8081C205.176 98.6411 204.523 99.3412 203.69 99.369C202.869 99.4245 202.159 98.7442 202.129 97.9113C201.738 86.3268 201.508 80.4799 201.28 74.6292C201.052 68.7784 200.823 62.9257 200.431 51.3353C200.314 47.8744 199.833 44.5682 197.127 43.7928C195.219 43.2434 192.142 44.4374 191.634 45.9149C189.327 52.6086 188.585 57.4161 188.585 65.6964C188.585 66.5116 187.938 67.1799 187.121 67.2057C186.305 67.2712 185.617 66.6028 185.567 65.7876C185.071 57.668 183.417 50.0699 182.427 45.5321L182.173 44.364C181.673 42.0376 179.476 40.1435 177.171 40.0522C175.588 39.9908 174.568 40.5421 173.531 43.7412C171.852 48.9097 171.87 53.4376 171.904 62.4597C171.91 63.8678 171.916 65.383 171.916 67.0272C171.916 67.8622 171.239 68.5385 170.404 68.5385C169.569 68.5385 168.892 67.8622 168.892 67.0272C168.892 54.9647 167.176 45.8118 164.302 42.5453C162.76 40.792 159.746 41.9582 158.808 42.7198C156.048 44.955 154.747 59.0821 155.463 69.7443C155.515 70.5297 154.955 71.2259 154.176 71.3409C153.384 71.4579 152.658 70.9482 152.481 70.1807C151.309 65.0122 150.777 60.8214 150.212 56.3868C149.773 52.9457 149.323 49.3857 148.535 45.1692C148.002 42.3053 146.889 42.1982 143.222 42.1962L142.883 42.1982C141.732 42.9816 138.616 46.8966 138.407 48.2949C133.581 80.6942 139.348 98.5836 148.073 125.666C149.305 129.487 150.595 133.492 151.924 137.75C152.174 138.545 151.729 139.392 150.934 139.642C150.783 139.69 150.632 139.709 150.483 139.709ZM142.605 42.1982H142.599H142.605Z" fill="#0F0202"/>
<path d="M147.725 244.84C147.68 244.84 147.632 244.838 147.584 244.834C146.753 244.759 146.142 244.023 146.219 243.192C146.412 241.1 146.721 236.447 147.082 231.058C147.658 222.423 148.372 211.677 149.08 204.073C149.158 203.244 149.912 202.62 150.725 202.709C151.556 202.784 152.167 203.522 152.09 204.351C151.388 211.915 150.673 222.641 150.098 231.259C149.725 236.891 149.428 241.338 149.231 243.468C149.156 244.253 148.497 244.84 147.725 244.84Z" fill="#0F0202"/>
<path d="M206.703 144.071C206.476 144.071 206.246 144.021 206.03 143.914C205.282 143.541 204.979 142.635 205.35 141.889C206.885 138.801 208.814 135.749 210.678 132.796C211.119 132.099 211.555 131.407 211.984 130.717C218.055 120.983 223.022 110.537 226.752 99.6724C227.024 98.883 227.877 98.4606 228.673 98.7323C229.46 99.004 229.881 99.8628 229.613 100.652C225.808 111.733 220.741 122.387 214.549 132.316C214.117 133.012 213.676 133.708 213.234 134.41C211.411 137.298 209.526 140.287 208.058 143.236C207.792 143.763 207.256 144.071 206.703 144.071Z" fill="#0F0202"/>
<path d="M202.654 244.841C201.845 244.841 201.174 244.2 201.147 243.385C200.956 237.974 200.748 230.198 200.545 222.675C200.341 215.158 200.133 207.384 199.944 201.989C199.915 201.154 200.567 200.456 201.401 200.426C202.266 200.403 202.934 201.049 202.964 201.882C203.152 207.293 203.363 215.069 203.565 222.592C203.767 230.109 203.976 237.881 204.164 243.278C204.196 244.113 203.541 244.811 202.708 244.841C202.69 244.841 202.672 244.841 202.654 244.841Z" fill="#0F0202"/>
<path d="M201.47 190.773C200.679 190.773 200.014 190.157 199.962 189.357C199.873 187.937 199.966 186.511 200.24 185.123C200.403 184.302 201.193 183.764 202.016 183.931C202.835 184.092 203.369 184.885 203.208 185.706C202.984 186.84 202.909 188.007 202.98 189.169C203.032 190.002 202.401 190.718 201.567 190.771C201.532 190.773 201.502 190.773 201.47 190.773Z" fill="#0F0202"/>
<path d="M202.658 171.777C202.634 171.777 202.612 171.777 202.587 171.775C201.753 171.736 201.109 171.03 201.148 170.195L201.234 168.4C201.275 167.567 201.94 166.916 202.815 166.962C203.648 167.002 204.293 167.71 204.253 168.543L204.168 170.339C204.128 171.149 203.46 171.777 202.658 171.777Z" fill="#0F0202"/>
<path d="M203.695 157.49C203.688 157.49 203.68 157.49 203.672 157.49C202.837 157.478 202.17 156.79 202.184 155.959C202.212 154.055 202.384 152.135 202.696 150.257C202.829 149.434 203.602 148.872 204.432 149.011C205.255 149.146 205.812 149.926 205.676 150.747C205.39 152.48 205.231 154.249 205.207 156.002C205.193 156.827 204.519 157.49 203.695 157.49Z" fill="#0F0202"/>
<path d="M70.4768 113.078C63.6561 113.078 56.2759 112.518 47.9514 111.281C45.6758 110.94 39.2757 106.273 39.2757 104.101L39.2737 103.492C39.2618 100.081 39.246 96.2156 44.7156 95.1962C47.761 94.629 50.457 94.2363 53.0063 93.8971C47.3423 93.2684 42.2774 92.0288 40.474 89.8035C38.9067 87.8678 37.3493 83.0484 40.6506 80.1429C42.1484 78.826 44.3149 77.8244 46.8186 77.0687C45.5191 76.8188 44.2414 76.4896 42.9102 76.0572C40.9719 75.4285 36.9466 74.1196 37.1311 69.4231C37.2779 65.746 40.1546 62.3764 43.8288 61.589L44.9795 61.3391C46.8404 60.9326 49.2032 60.4189 51.9053 59.9132C49.7012 59.4312 47.4851 58.7866 45.029 57.9378C41.7595 56.8113 40.0733 51.9502 40.9859 48.761C42.4738 43.5707 48.6835 43.3585 51.334 43.2692C62.9439 42.8785 68.7944 42.6485 74.6549 42.4184C80.4996 42.1923 86.3521 41.9622 97.9243 41.5715C98.7814 41.5537 99.4578 42.1963 99.4856 43.0293C99.5154 43.8642 98.8626 44.5624 98.0273 44.5901C86.4651 44.9789 80.6166 45.2109 74.774 45.437C68.9095 45.6671 63.055 45.8951 51.4372 46.2858C47.4376 46.4227 44.6243 47.0356 43.8922 49.592C43.3486 51.494 44.537 54.5721 46.015 55.0818C52.7108 57.3884 57.5198 58.1282 65.8026 58.1282C66.618 58.1282 67.2866 58.7767 67.3124 59.5918C67.3382 60.409 66.7093 61.0972 65.8939 61.1468C57.7638 61.6426 50.1634 63.2986 45.6222 64.2883L44.4637 64.5402C42.1365 65.04 40.2419 67.2355 40.1506 69.5401C40.0871 71.1387 40.6407 72.1402 43.8427 73.1815C49.0108 74.8594 53.5401 74.8415 62.5728 74.8058C63.9794 74.7999 65.4932 74.7939 67.1339 74.7939C67.9691 74.7939 68.6455 75.4722 68.6455 76.3051C68.6455 77.1401 67.9691 77.8165 67.1339 77.8165C55.0657 77.8165 45.9119 79.532 42.6424 82.4058C40.8906 83.9469 42.0592 86.9595 42.819 87.8976C45.0549 90.6544 59.1903 91.9653 69.8518 91.2414C70.6692 91.1958 71.3338 91.7512 71.4489 92.5286C71.5639 93.3101 71.058 94.0459 70.2882 94.2224C65.1182 95.3945 60.9262 95.928 56.4902 96.4913C53.0481 96.9296 49.4869 97.3798 45.2671 98.1672C42.4063 98.7007 42.2813 99.7875 42.2952 103.48L42.2973 103.818C43.0809 104.968 46.9972 108.082 48.3938 108.292C80.8071 113.117 98.7 107.352 125.788 98.6293C129.613 97.3996 133.619 96.1085 137.878 94.7797C138.68 94.5258 139.523 94.976 139.771 95.7713C140.019 96.5666 139.575 97.4135 138.779 97.6634C134.529 98.9902 130.532 100.275 126.717 101.507C106.136 108.133 90.7822 113.078 70.4768 113.078ZM42.2973 104.093V104.099V104.093Z" fill="#0F0202"/>
<path d="M243.491 100.493C243.445 100.493 243.398 100.491 243.35 100.485C241.255 100.291 236.597 99.9836 231.198 99.6226C222.564 99.0475 211.822 98.3334 204.219 97.6254C203.388 97.548 202.777 96.8143 202.854 95.9833C202.932 95.1523 203.688 94.5275 204.497 94.6187C212.062 95.3208 222.783 96.0348 231.399 96.608C237.039 96.9828 241.495 97.2823 243.628 97.4767C244.459 97.552 245.07 98.2879 244.993 99.1189C244.919 99.9043 244.263 100.493 243.491 100.493Z" fill="#0F0202"/>
<path d="M142.685 41.5258C142.459 41.5258 142.229 41.4743 142.013 41.3672C138.922 39.8301 135.864 37.9003 132.908 36.036C132.214 35.5997 131.526 35.1653 130.837 34.735C121.1 28.668 110.651 23.7019 99.783 19.9732C98.9934 19.7015 98.5748 18.8447 98.8426 18.0534C99.1144 17.266 99.9674 16.8416 100.763 17.1153C111.849 20.9173 122.505 25.9846 132.436 32.1726C133.131 32.6029 133.823 33.0413 134.523 33.4815C137.416 35.3062 140.408 37.1943 143.36 38.6639C144.108 39.0368 144.411 39.9431 144.04 40.6889C143.774 41.2164 143.239 41.5258 142.685 41.5258Z" fill="#0F0202"/>
<path d="M202.081 46.7714C201.272 46.7714 200.601 46.1308 200.571 45.3156C200.542 44.4807 201.194 43.7825 202.028 43.7528C207.424 43.5644 215.179 43.3561 222.68 43.1538C230.223 42.9515 238.024 42.7413 243.438 42.5529C244.307 42.5033 244.969 43.1737 244.999 44.0066C245.031 44.8416 244.376 45.5398 243.543 45.5695C238.119 45.7599 230.312 45.9681 222.761 46.1744C215.266 46.3747 207.515 46.583 202.135 46.7714C202.117 46.7714 202.099 46.7714 202.081 46.7714Z" fill="#0F0202"/>
<path d="M188.46 46.7913C187.387 46.7913 186.315 46.6882 185.26 46.4799C184.443 46.3193 183.909 45.5259 184.07 44.7049C184.23 43.8838 185.028 43.3522 185.843 43.5149C186.984 43.737 188.149 43.8143 189.307 43.7429C190.172 43.6973 190.857 44.3221 190.91 45.157C190.962 45.99 190.331 46.706 189.498 46.7596C189.15 46.7814 188.805 46.7913 188.46 46.7913Z" fill="#0F0202"/>
<path d="M170.41 45.5736C170.385 45.5736 170.363 45.5716 170.337 45.5716L168.54 45.4864C167.706 45.4447 167.064 44.7387 167.103 43.9057C167.143 43.0727 167.831 42.4301 168.682 42.4678L170.48 42.553C171.313 42.5927 171.958 43.3007 171.918 44.1337C171.879 44.9409 171.21 45.5736 170.41 45.5736Z" fill="#0F0202"/>
<path d="M156.109 44.5363C156.101 44.5363 156.093 44.5363 156.085 44.5363C154.179 44.5065 152.258 44.334 150.381 44.0226C149.558 43.8877 149.002 43.1083 149.137 42.2852C149.272 41.4622 150.052 40.9048 150.875 41.0437C152.605 41.3293 154.375 41.4879 156.131 41.5137C156.964 41.5256 157.63 42.2138 157.619 43.0448C157.607 43.8739 156.932 44.5363 156.109 44.5363Z" fill="#0F0202"/>
<path d="M69.8366 210.66C69.7334 210.66 69.6302 210.658 69.5271 210.654C65.8489 210.508 62.4782 207.63 61.6886 203.959L61.4367 202.793C61.0319 200.934 60.5181 198.578 60.0142 195.883C59.5321 198.086 58.8853 200.302 58.0382 202.757C56.9113 206.027 52.0487 207.711 48.8586 206.801C43.6627 205.311 43.4524 199.106 43.3651 196.456C42.9763 184.895 42.7442 179.048 42.518 173.21C42.2879 167.345 42.0597 161.492 41.6669 149.878C41.6391 149.045 42.2919 148.347 43.1251 148.317C43.9683 148.281 44.6587 148.942 44.6865 149.775C45.0773 161.381 45.3074 167.23 45.5355 173.091C45.7637 178.931 45.9919 184.784 46.3847 196.353C46.4998 199.814 46.9818 203.12 49.6879 203.895C51.5925 204.445 54.6715 203.253 55.1794 201.775C57.4887 195.077 58.2286 190.27 58.2286 181.992C58.2286 181.176 58.8773 180.508 59.6927 180.482C60.4863 180.441 61.1966 181.085 61.2462 181.9C61.7422 190.016 63.3987 197.612 64.3867 202.15L64.6427 203.324C65.1427 205.65 67.3389 207.545 69.6442 207.636C71.2214 207.691 72.249 207.146 73.2866 203.945C74.965 198.778 74.9471 194.248 74.9133 185.226C74.9074 183.818 74.9015 182.303 74.9015 180.659C74.9015 179.824 75.578 179.148 76.4133 179.148C77.2465 179.148 77.9249 179.824 77.9249 180.659C77.9249 192.721 79.6411 201.872 82.5138 205.141C84.0613 206.898 87.0688 205.726 88.0092 204.966C90.7668 202.733 92.0703 188.604 91.3521 177.942C91.3005 177.154 91.862 176.458 92.6417 176.343C93.4273 176.22 94.1593 176.736 94.3339 177.505C95.5084 182.672 96.0401 186.863 96.6055 191.299C97.044 194.74 97.4943 198.3 98.2799 202.517C98.8156 205.379 99.9068 205.5 103.595 205.49L103.934 205.488C105.085 204.704 108.2 200.789 108.41 199.391C113.237 166.992 107.469 149.102 98.7422 122.02C97.5122 118.199 96.2206 114.192 94.8914 109.936C94.6434 109.141 95.0878 108.294 95.8833 108.044C96.6829 107.792 97.5281 108.24 97.7761 109.036C99.1033 113.282 100.391 117.28 101.621 121.094C110.479 148.577 116.33 166.738 111.4 199.835C111.062 202.11 106.392 208.508 104.22 208.508L103.609 208.51C100.196 208.501 96.3318 208.538 95.312 203.07C94.7446 200.026 94.3498 197.329 94.0106 194.78C93.3837 200.442 92.1418 205.508 89.9178 207.309C87.9815 208.879 83.1625 210.434 80.2541 207.134C78.9348 205.637 77.9349 203.471 77.1771 200.968C76.9271 202.265 76.5997 203.544 76.1672 204.875C75.5482 206.767 74.2845 210.66 69.8366 210.66ZM104.216 205.488H104.21H104.216Z" fill="#0F0202"/>
<path d="M96.241 44.9866C96.1954 44.9866 96.1457 44.9846 96.1 44.9786C95.2688 44.9033 94.6578 44.1655 94.7351 43.3364C95.4374 35.7721 96.1517 25.0464 96.727 16.4289C97.1 10.7963 97.3976 6.34975 97.594 4.21967C97.6714 3.38867 98.4014 2.77982 99.2387 2.85518C100.07 2.93055 100.681 3.66633 100.604 4.49734C100.411 6.58972 100.102 11.2426 99.7406 16.6312C99.1652 25.2665 98.451 36.0121 97.7427 43.6161C97.6713 44.3975 97.0127 44.9866 96.241 44.9866Z" fill="#0F0202"/>
<path d="M18.6321 149.039C18.4694 149.039 18.3048 149.013 18.1422 148.958C17.3545 148.686 16.934 147.827 17.2018 147.038C21.0069 135.957 26.0738 125.303 32.2656 115.373C32.6961 114.68 33.1346 113.988 33.575 113.29C35.4002 110.398 37.2869 107.408 38.757 104.454C39.13 103.707 40.0386 103.403 40.7826 103.774C41.5305 104.147 41.834 105.053 41.463 105.799C39.9255 108.891 37.9951 111.947 36.1302 114.902C35.6918 115.597 35.2574 116.285 34.8308 116.973C28.7581 126.707 23.7923 137.155 20.0625 148.018C19.8463 148.644 19.259 149.039 18.6321 149.039Z" fill="#0F0202"/>
<path d="M45.3614 47.2634C44.552 47.2634 43.8815 46.6208 43.8517 45.8057C43.6632 40.3952 43.4529 32.6187 43.2505 25.096C43.0462 17.5793 42.8399 9.80673 42.6494 4.41015C42.6197 3.57518 43.2724 2.87905 44.1056 2.84732C44.9706 2.80567 45.6392 3.47006 45.669 4.30305C45.8575 9.71351 46.0657 17.4901 46.2701 25.0127C46.4744 32.5295 46.6807 40.304 46.8712 45.6986C46.9009 46.5336 46.2482 47.2317 45.415 47.2615C45.3951 47.2635 45.3773 47.2634 45.3614 47.2634Z" fill="#0F0202"/>
<path d="M45.0984 63.7845C45.0031 63.7845 44.9039 63.7745 44.8087 63.7547C43.9894 63.5941 43.4537 62.8027 43.6144 61.9816C43.8366 60.8412 43.914 59.677 43.8406 58.5168C43.789 57.6838 44.4219 56.9678 45.2552 56.9143C46.1102 56.8667 46.8046 57.4954 46.8581 58.3284C46.9474 59.7445 46.8541 61.1685 46.5804 62.5627C46.4395 63.2847 45.8046 63.7845 45.0984 63.7845Z" fill="#0F0202"/>
<path d="M44.0738 80.7257C44.05 80.7257 44.0262 80.7258 44.0004 80.7238C43.1672 80.6841 42.5244 79.976 42.5621 79.143L42.6493 77.3462C42.689 76.5132 43.3716 75.8806 44.2306 75.9103C45.0638 75.95 45.7066 76.658 45.667 77.491L45.5816 79.2859C45.5419 80.0971 44.8753 80.7257 44.0738 80.7257Z" fill="#0F0202"/>
<path d="M42.6297 98.6967C42.5483 98.6967 42.465 98.6907 42.3817 98.6769C41.5584 98.542 41.001 97.7645 41.1379 96.9415C41.4235 95.2081 41.5822 93.439 41.606 91.6857C41.6199 90.8607 42.2945 90.1982 43.1178 90.1982C43.1257 90.1982 43.1336 90.1982 43.1415 90.1982C43.9748 90.2101 44.6433 90.8984 44.6295 91.7294C44.6017 93.6333 44.4291 95.5532 44.1176 97.4314C43.9946 98.1711 43.3558 98.6967 42.6297 98.6967Z" fill="#0F0202"/>
<path d="M148.848 206.115C148.037 206.115 147.366 205.472 147.339 204.657C147.309 203.822 147.961 203.124 148.797 203.096C160.381 202.705 166.231 202.475 172.08 202.247C177.937 202.019 183.791 201.791 195.385 201.398C198.845 201.281 202.154 200.801 202.93 198.096C203.473 196.194 202.285 193.114 200.807 192.604C194.109 190.298 189.302 189.558 181.019 189.558C180.204 189.558 179.536 188.909 179.51 188.094C179.484 187.277 180.113 186.589 180.928 186.539C189.046 186.044 196.645 184.389 201.182 183.402L202.358 183.146C204.686 182.646 206.58 180.451 206.672 178.146C206.735 176.547 206.182 175.544 202.98 174.505C197.811 172.829 193.284 172.843 184.249 172.88C182.843 172.886 181.329 172.892 179.688 172.892C178.853 172.892 178.177 172.214 178.177 171.381C178.177 170.546 178.853 169.87 179.688 169.87C191.755 169.87 200.908 168.154 204.178 165.28C205.932 163.737 204.763 160.727 204.003 159.788C201.767 157.032 187.638 155.725 176.97 156.445C176.183 156.494 175.488 155.937 175.373 155.157C175.258 154.378 175.764 153.64 176.534 153.464C181.704 152.292 185.896 151.76 190.332 151.195C193.774 150.756 197.333 150.306 201.553 149.519C204.416 148.985 204.541 147.899 204.527 144.206L204.525 143.868C203.739 142.718 199.825 139.604 198.426 139.394C166.013 134.569 148.12 140.334 121.032 149.057C117.209 150.288 113.201 151.578 108.944 152.906C108.142 153.158 107.299 152.708 107.051 151.915C106.803 151.119 107.248 150.273 108.043 150.023C112.293 148.696 116.288 147.411 120.103 146.179C147.596 137.326 165.761 131.477 198.871 136.403C201.146 136.742 207.544 141.409 207.544 143.583L207.548 144.192C207.56 147.603 207.576 151.469 202.107 152.488C199.061 153.055 196.365 153.448 193.814 153.789C199.478 154.416 204.545 155.655 206.346 157.881C207.915 159.816 209.475 164.636 206.172 167.541C204.672 168.858 202.507 169.86 200.002 170.615C201.301 170.865 202.581 171.194 203.912 171.627C205.848 172.254 209.878 173.563 209.691 178.261C209.544 181.938 206.666 185.308 202.991 186.095L201.825 186.349C199.968 186.754 197.611 187.267 194.913 187.769C197.121 188.253 199.335 188.897 201.791 189.746C205.063 190.871 206.749 195.734 205.836 198.923C204.346 204.117 198.139 204.326 195.486 204.415C183.9 204.804 178.05 205.036 172.199 205.264C166.346 205.492 160.492 205.72 148.898 206.113C148.88 206.115 148.864 206.115 148.848 206.115ZM204.525 143.589C204.525 143.591 204.525 143.593 204.525 143.595V143.589Z" fill="#0F0202"/>
<path d="M42.4615 153.075C42.4139 153.075 42.3662 153.073 42.3186 153.069C34.7539 152.367 24.0249 151.651 15.4068 151.077C9.77245 150.703 5.32256 150.405 3.19183 150.209C2.36057 150.133 1.74955 149.398 1.82692 148.567C1.90429 147.736 2.62243 147.133 3.47155 147.202C5.56458 147.394 10.2169 147.704 15.6072 148.063C24.2451 148.638 34.994 149.354 42.6004 150.062C43.4316 150.139 44.0427 150.875 43.9653 151.706C43.8879 152.488 43.2312 153.075 42.4615 153.075Z" fill="#0F0202"/>
<path d="M146.545 230.656C146.382 230.656 146.217 230.63 146.055 230.575C134.966 226.771 124.309 221.703 114.379 215.515C113.685 215.085 112.989 214.645 112.286 214.202C109.398 212.38 106.408 210.494 103.458 209.026C102.71 208.653 102.406 207.747 102.777 207.001C103.15 206.255 104.059 205.956 104.803 206.323C107.892 207.858 110.945 209.786 113.899 211.65C114.596 212.088 115.286 212.525 115.976 212.955C125.711 219.024 136.163 223.988 147.033 227.719C147.822 227.99 148.241 228.847 147.973 229.638C147.757 230.263 147.171 230.656 146.545 230.656Z" fill="#0F0202"/>
<path d="M3.32531 205.137C2.51786 205.137 1.84529 204.494 1.81752 203.681C1.78577 202.846 2.4385 202.148 3.27373 202.118C8.68387 201.928 16.4629 201.719 23.9879 201.517C31.5069 201.313 39.2839 201.105 44.6801 200.916C44.7 200.914 44.7178 200.914 44.7336 200.914C45.5431 200.914 46.2136 201.557 46.2434 202.372C46.2731 203.205 45.6204 203.903 44.7872 203.935C39.375 204.123 31.5962 204.331 24.0712 204.536C16.5521 204.738 8.77719 204.946 3.37895 205.137C3.36308 205.137 3.34515 205.137 3.32531 205.137Z" fill="#0F0202"/>
<path d="M61.27 204.198C61.1728 204.198 61.0735 204.191 60.9783 204.169C59.8375 203.947 58.669 203.871 57.5124 203.943C56.6633 204.004 55.963 203.361 55.9094 202.529C55.8558 201.696 56.4907 200.98 57.324 200.926C58.7365 200.837 60.165 200.932 61.5596 201.206C62.379 201.366 62.9126 202.16 62.7519 202.979C62.609 203.699 61.9783 204.198 61.27 204.198Z" fill="#0F0202"/>
<path d="M78.2132 205.222C78.1874 205.222 78.1654 205.222 78.1397 205.22L76.3423 205.135C75.5091 205.095 74.8662 204.387 74.9039 203.554C74.9456 202.721 75.63 202.088 76.4851 202.116L78.2825 202.201C79.1158 202.243 79.7606 202.949 79.7209 203.782C79.6813 204.591 79.0127 205.222 78.2132 205.222Z" fill="#0F0202"/>
<path d="M96.1829 206.664C96.1015 206.664 96.0182 206.656 95.9349 206.642C94.2029 206.356 92.4333 206.198 90.6795 206.172C89.8463 206.16 89.1797 205.472 89.1916 204.641C89.2055 203.814 89.88 203.151 90.7034 203.151C90.7113 203.151 90.7192 203.151 90.7271 203.151C92.6316 203.181 94.5501 203.353 96.4289 203.663C97.2522 203.8 97.8097 204.577 97.6729 205.4C97.5499 206.138 96.909 206.664 96.1829 206.664Z" fill="#0F0202"/>
<path d="M169.472 33.6381C169.188 33.6381 168.903 33.5588 168.649 33.3941L136.763 12.6051C136.063 12.151 135.866 11.2128 136.321 10.5147C136.777 9.81263 137.715 9.62222 138.414 10.0724L170.299 30.8615C171 31.3156 171.194 32.2537 170.74 32.9518C170.45 33.3981 169.966 33.6381 169.472 33.6381Z" fill="#F5F5F5"/>
<path d="M189.333 29.4276C189.04 29.4276 188.74 29.3404 188.478 29.1599L158.36 8.43832C157.672 7.96629 157.497 7.02619 157.973 6.33799C158.446 5.6478 159.388 5.47722 160.074 5.95123L190.192 26.6728C190.881 27.1448 191.053 28.0849 190.579 28.7731C190.286 29.1996 189.813 29.4276 189.333 29.4276Z" fill="#F5F5F5"/>
<path d="M106.929 232.792C106.885 232.792 106.839 232.79 106.796 232.786C91.6565 231.457 76.666 228.363 62.2449 223.585C61.4533 223.322 61.0228 222.469 61.2866 221.675C61.5485 220.884 62.4037 220.454 63.1952 220.718C77.3961 225.42 92.1544 228.468 107.06 229.775C107.891 229.849 108.506 230.581 108.433 231.412C108.361 232.199 107.702 232.792 106.929 232.792Z" fill="#F5F5F5"/>
</svg>
