<svg width="245" height="238" viewBox="0 0 245 238" fill="none" xmlns="http://www.w3.org/2000/svg">
<path d="M122.209 6.21655C121.628 23.1294 121.751 41.3772 121.359 58.8382C146.011 53.3718 169.96 46.5684 194.609 41.104C171.865 28.8729 148.675 17.614 122.209 6.21655Z" fill="#F5F5F5"/>
<path d="M121.359 60.6034C120.956 60.6034 120.558 60.4648 120.24 60.2019C119.822 59.8594 119.584 59.3417 119.596 58.7996C119.763 51.4397 119.837 43.8149 119.91 36.4449C120.01 26.3701 120.112 15.9489 120.448 6.15754C120.468 5.57462 120.774 5.04061 121.265 4.72876C121.757 4.41692 122.372 4.368 122.908 4.60035C148.736 15.7227 171.784 26.8287 195.447 39.5531C196.095 39.9036 196.46 40.617 196.358 41.3487C196.256 42.0804 195.714 42.6674 194.992 42.8284C182.692 45.5555 170.349 48.6719 158.413 51.6863C146.455 54.7028 134.09 57.8254 121.74 60.5626C121.614 60.5891 121.488 60.6034 121.359 60.6034ZM123.89 8.86219C123.619 17.8526 123.526 27.3097 123.434 36.4795C123.371 43.1158 123.303 49.9518 123.169 56.6309C134.742 54.0241 146.325 51.0994 157.551 48.2663C168.017 45.6228 178.797 42.9038 189.606 40.4295C168.211 29.0585 147.152 18.9471 123.89 8.86219Z" fill="#0F0202"/>
<path d="M120.656 122.961C120.642 122.961 120.628 122.961 120.614 122.961C119.639 122.939 118.869 122.132 118.891 121.157C119.36 101.275 119.48 81.0502 119.596 61.4959C119.713 41.907 119.831 21.6516 120.302 1.72226C120.326 0.762281 121.109 0 122.063 0C122.077 0 122.091 0 122.105 0C123.08 0.02242 123.848 0.829558 123.828 1.80381C123.359 21.7046 123.239 41.9416 123.12 61.5163C123.006 81.0889 122.888 101.328 122.417 121.241C122.395 122.199 121.608 122.961 120.656 122.961Z" fill="#F5F5F5"/>
<path d="M242.394 156.02C242.573 182.759 242.752 209.498 242.932 236.235C213.272 235.462 178.173 235.84 152.512 235.84C151.218 209.567 152.428 183.63 151.428 156.726C181.185 156.434 210.94 155.984 242.394 156.02Z" fill="#F5F5F5"/>
<path d="M242.93 238C242.914 238 242.898 238 242.885 237.998C220.192 237.409 194.532 237.491 171.9 237.56C165.047 237.582 158.521 237.603 152.51 237.603C151.571 237.603 150.796 236.867 150.752 235.929C150.061 221.935 150.081 207.776 150.101 194.086C150.118 181.94 150.136 169.381 149.665 156.793C149.649 156.318 149.822 155.855 150.152 155.511C150.48 155.167 150.935 154.969 151.41 154.963C158.654 154.893 165.897 154.814 173.167 154.734C195.498 154.488 218.568 154.233 242.396 154.26C243.364 154.262 244.149 155.044 244.155 156.01L244.693 236.227C244.697 236.702 244.506 237.16 244.165 237.497C243.833 237.819 243.389 238 242.93 238ZM195.652 233.985C210.925 233.985 226.602 234.075 241.155 234.429L240.641 157.784C217.5 157.741 194.978 158.016 173.204 158.256C166.537 158.33 159.895 158.403 153.252 158.468C153.656 170.514 153.64 182.488 153.625 194.088C153.607 207.189 153.589 220.716 154.192 234.077C159.728 234.075 165.671 234.054 171.888 234.034C179.539 234.011 187.539 233.985 195.652 233.985Z" fill="#0F0202"/>
<path d="M78.7783 181.885C78.9576 200.008 79.9258 217.849 80.1051 235.97C50.4476 235.446 32.3425 235.55 2.84596 236.115C2.84596 220.266 1.94915 201.109 1.76367 182.346C31.519 182.148 47.321 181.858 78.7783 181.885Z" fill="#EC2227"/>
<path d="M2.84536 237.878C2.38269 237.878 1.94024 237.696 1.61006 237.374C1.27376 237.042 1.0821 236.587 1.0821 236.115C1.0821 227.654 0.827416 218.319 0.558377 208.436C0.326024 199.911 0.0856708 191.097 6.72994e-05 182.362C-0.00400906 181.895 0.177235 181.445 0.505382 181.11C0.833529 180.776 1.28185 180.587 1.75063 180.582C11.4381 180.519 19.6458 180.446 27.397 180.375C43.5802 180.23 57.5643 180.11 78.7777 180.12C79.7438 180.122 80.5282 180.898 80.5384 181.864C80.6281 190.908 80.9197 200.037 81.201 208.868C81.4843 217.718 81.7776 226.869 81.8653 235.95C81.8714 236.426 81.6818 236.883 81.3455 237.217C81.0072 237.554 80.5262 237.745 80.0717 237.729C49.2422 237.183 30.6155 237.342 2.87795 237.876C2.86776 237.878 2.85555 237.878 2.84536 237.878ZM3.54424 184.098C3.64207 192.222 3.86635 200.408 4.08239 208.34C4.33309 217.555 4.57152 226.299 4.60413 234.321C30.8681 233.826 49.169 233.681 78.3231 234.178C78.2151 225.728 77.9418 217.227 77.681 208.984C77.416 200.703 77.143 192.153 77.0371 183.646C56.7959 183.634 43.1584 183.762 27.4319 183.903C20.1515 183.966 12.4735 184.033 3.54424 184.098Z" fill="#0F0202"/>
<path d="M163.333 116.702C163.502 156.546 163.245 195.985 163.413 235.831C138.7 235.831 108.555 235.968 80.1043 235.968C78.8835 196.819 78.4125 157.843 77.4668 117.75C105.557 117.322 133.643 116.645 163.333 116.702Z" fill="#F5F5F5"/>
<path d="M80.106 237.731C79.1521 237.731 78.3735 236.977 78.345 236.025C77.5848 211.65 77.1057 186.819 76.641 162.806C76.3576 148.118 76.0641 132.932 75.7075 117.79C75.6973 117.324 75.8725 116.867 76.1986 116.529C76.5247 116.19 76.9731 115.995 77.4399 115.987C84.282 115.883 91.1264 115.764 97.9931 115.642C119.068 115.275 140.835 114.894 163.339 114.937C164.309 114.941 165.092 115.724 165.098 116.692C165.181 136.593 165.159 156.722 165.139 176.186C165.116 195.698 165.094 215.878 165.18 235.821C165.182 236.29 164.996 236.74 164.666 237.073C164.336 237.403 163.885 237.59 163.419 237.59C151.497 237.59 138.314 237.623 124.663 237.656C110.014 237.694 94.8339 237.731 80.106 237.731ZM79.2723 119.484C79.6106 134.043 79.8939 148.622 80.165 162.738C80.6174 186.181 81.0841 210.403 81.8138 234.207C96.0036 234.203 110.575 234.166 124.654 234.134C137.633 234.101 150.193 234.072 161.647 234.068C161.57 214.691 161.592 195.127 161.613 176.186C161.633 157.294 161.655 137.783 161.578 118.463C139.78 118.4 118.564 118.811 98.052 119.17C91.7805 119.278 85.5254 119.388 79.2723 119.484Z" fill="#0F0202"/>
<path d="M123.596 207.978C122.645 207.978 121.862 207.222 121.836 206.264C121.483 193.651 121.281 180.888 121.232 168.199C118.361 173.787 114.29 178.769 109.307 182.702C108.54 183.306 107.434 183.175 106.83 182.411C106.227 181.647 106.358 180.538 107.122 179.934C114.086 174.438 119.115 166.717 121.277 158.197C121.495 157.335 122.331 156.779 123.205 156.883C124.088 156.995 124.75 157.745 124.748 158.633C124.711 174.419 124.917 190.411 125.357 206.162C125.386 207.136 124.62 207.945 123.645 207.972C123.629 207.978 123.613 207.978 123.596 207.978Z" fill="#0F0202"/>
<path d="M190.053 230.602C189.971 230.602 189.888 230.583 189.808 230.549C182.705 227.322 175.834 223.462 169.382 219.082C169.113 218.9 169.045 218.534 169.227 218.267C169.412 217.998 169.779 217.932 170.042 218.11C176.44 222.455 183.251 226.283 190.297 229.481C190.593 229.613 190.723 229.962 190.589 230.259C190.487 230.473 190.273 230.602 190.053 230.602Z" fill="#0F0202"/>
<path d="M220.549 232.352C220.476 232.352 220.401 232.34 220.327 232.31C202.253 224.876 184.69 215.843 168.127 205.463C167.852 205.291 167.769 204.927 167.942 204.654C168.115 204.38 168.478 204.297 168.751 204.468C185.258 214.812 202.76 223.814 220.774 231.221C221.071 231.345 221.216 231.688 221.094 231.99C221 232.218 220.782 232.352 220.549 232.352Z" fill="#0F0202"/>
<path d="M234.803 227.379C234.717 227.379 234.63 227.361 234.55 227.322C212.864 216.925 191.198 205.724 170.152 194.026C169.867 193.87 169.767 193.511 169.924 193.228C170.083 192.942 170.439 192.844 170.725 192.999C191.748 204.684 213.396 215.878 235.056 226.26C235.349 226.401 235.473 226.751 235.333 227.045C235.231 227.255 235.021 227.379 234.803 227.379Z" fill="#0F0202"/>
<path d="M231.955 213.723C231.863 213.723 231.772 213.703 231.686 213.658L170.626 182.068C170.337 181.92 170.227 181.565 170.373 181.275C170.522 180.986 170.881 180.876 171.166 181.023L232.224 212.614C232.513 212.761 232.625 213.118 232.477 213.405C232.373 213.607 232.169 213.723 231.955 213.723Z" fill="#0F0202"/>
<path d="M233.678 202.599C233.586 202.599 233.498 202.578 233.413 202.536C212.305 191.927 191.326 180.403 171.054 168.282C170.777 168.117 170.684 167.756 170.851 167.477C171.016 167.198 171.376 167.104 171.658 167.273C191.903 179.376 212.857 190.888 233.94 201.484C234.232 201.631 234.346 201.981 234.201 202.273C234.099 202.481 233.89 202.599 233.678 202.599Z" fill="#0F0202"/>
<path d="M235.004 190.266C234.913 190.266 234.821 190.246 234.733 190.201C218.067 181.567 201.322 172.528 184.965 163.336C184.682 163.179 184.582 162.82 184.743 162.535C184.9 162.251 185.261 162.151 185.544 162.312C201.89 171.496 218.622 180.53 235.275 189.157C235.565 189.306 235.677 189.661 235.528 189.95C235.422 190.15 235.218 190.266 235.004 190.266Z" fill="#0F0202"/>
<path d="M232.36 175.004C232.284 175.004 232.209 174.99 232.138 174.961C224.128 171.68 216.248 167.85 208.719 163.582C208.436 163.423 208.336 163.064 208.497 162.781C208.656 162.496 209.019 162.396 209.298 162.561C216.786 166.802 224.623 170.61 232.586 173.875C232.884 173.999 233.031 174.342 232.906 174.641C232.81 174.865 232.592 175.004 232.36 175.004Z" fill="#0F0202"/>
<g opacity="0.1294">
<path d="M128.62 8.64808C127.183 4.88968 121.384 6.082 121.431 10.0952C121.492 20.4002 120.917 30.7073 120.799 41.0143C120.687 43.8474 120.571 46.6846 120.622 49.5217C120.876 52.2345 119.91 55.8543 122.413 57.7254C124.04 59.1541 126.95 58.775 128.161 56.9835C129.225 55.8034 129.113 54.0587 129.166 52.5667C129.233 49.7724 129.294 46.9801 129.319 44.1857C129.549 37.9917 129.362 31.7936 129.447 25.5976C129.498 19.9763 129.706 14.1552 128.62 8.64808Z" fill="#0F0202"/>
</g>
<g opacity="0.1294">
<path d="M164.981 223.643C164.343 219.039 163.625 199.419 163.524 189.76C163.418 178.506 164.08 167.261 163.99 156.004C163.984 149.996 164.202 143.989 164.174 137.983C164.119 132.382 163.903 126.762 164.473 121.18C165.967 115.446 157.808 112.919 155.966 118.62C154.922 125.226 154.827 131.939 154.66 138.614C154.366 147.368 154.313 156.122 154.293 164.88C153.765 178.365 153.38 191.856 154.148 205.342C154.423 213.128 154.531 220.936 155.85 228.639C155.791 228.202 155.732 227.766 155.672 227.332C156.07 229.185 155.726 231.227 156.484 232.974C157.774 236.679 163.358 236.969 165.215 233.561C166.713 230.632 165.174 226.792 164.981 223.643Z" fill="#0F0202"/>
</g>
<g opacity="0.1294">
<path d="M242.029 230.61C241.919 229.55 241.783 228.498 241.62 227.444C241.559 226.625 241.347 224.287 241.226 223.307C241.298 223.863 241.375 224.511 241.277 223.48C240.609 215.92 240.878 208.357 241.065 200.787C240.864 192.481 240.413 184.168 240.829 175.862C240.829 171.221 240.825 166.578 241.059 161.939C241.098 161.036 241.098 160.129 241.155 159.227C241.273 158.391 241.124 157.525 240.696 156.795C239.17 153.982 234.588 154.559 233.832 157.692C233.182 163.829 233.304 170.033 233.11 176.196C232.564 184.761 232.318 193.337 232.715 201.912C232.579 209.641 232.432 217.382 232.762 225.105C233.304 230.394 233.516 231.537 233.74 233.443C234.653 237.083 239.861 237.766 241.693 234.482C242.382 233.257 242.38 231.926 242.029 230.61Z" fill="#0F0202"/>
</g>
<g opacity="0.1294">
<path d="M78.2098 229.301C77.7064 217.714 78.6175 206.123 77.9551 194.544C77.8307 191.32 77.8327 188.093 77.7675 184.867C77.7226 183.89 77.8857 182.841 77.3863 181.958C75.7843 177.77 69.3235 179.099 69.3744 183.57C69.1828 189.93 69.2562 196.279 69.4824 202.634C69.5048 208.927 69.197 215.217 69.0726 221.507C68.9585 224.454 69.2562 227.397 69.3336 230.343C69.299 231.863 69.4925 233.483 70.6645 234.576C72.615 236.618 76.2287 236.125 77.6187 233.681C78.4442 232.36 78.1956 230.781 78.2098 229.301Z" fill="#0F0202"/>
</g>
</svg>
