<svg width="272" height="248" viewBox="0 0 272 248" fill="none" xmlns="http://www.w3.org/2000/svg">
<path d="M84.9004 193.919C84.9004 165.008 107.46 142.608 135.288 142.608C163.115 142.608 185.675 165.008 185.675 193.919C185.675 222.83 163.118 246.268 135.288 246.268C107.458 246.266 84.9004 222.83 84.9004 193.919Z" fill="white"/>
<g opacity="0.1294">
<path d="M151.406 180.745C150.98 179.527 149.149 179.436 148.539 180.553C147.931 182.974 148.363 183.678 147.415 186.05C147.029 187.457 143.773 190.633 141.446 191.776C140.975 192.032 138.221 192.995 137.063 192.901C133.078 192.802 132.689 192.778 129.344 192.544C128.316 192.374 127.278 191.963 126.243 192.061C123.865 192.272 123.634 195.856 125.944 196.436C129.082 197.14 131.255 198.322 132.754 198.349C136.025 198.648 139.497 198.756 142.52 197.275C145.911 195.354 148.561 192.051 150.204 188.555C150.892 186.181 151.812 183.184 151.406 180.745Z" fill="black"/>
</g>
<g opacity="0.1294">
<path d="M144.71 224.612C144.671 224.317 144.63 224.024 144.591 223.729C144.905 228.034 145.634 234.238 145.986 236.507C146.197 239.338 146.355 242.174 146.525 245.007C147.977 244.513 149.421 243.991 150.865 243.469C151.692 243.17 152.52 242.873 153.343 242.563C153.728 242.42 154.109 242.252 154.494 242.109C154.478 241.978 154.457 241.83 154.443 241.709C154.267 239.469 153.075 230.295 151.594 224.741C149.74 217.808 147.952 210.803 145.31 204.127C144.987 203.42 144.583 202.756 144.112 202.138C143.565 201.519 143.191 200.639 142.359 200.37C140.383 199.404 138.22 201.874 139.399 203.733C141.474 206.447 141.745 208.38 142.701 212.509C143.67 217.392 144.372 221.83 144.71 224.612Z" fill="black"/>
</g>
<path d="M118.32 244.257C118.285 244.257 118.25 244.257 118.215 244.255C117.355 244.198 116.706 243.452 116.763 242.592C117.435 232.525 119.389 222.873 122.742 213.079C124.014 209.365 125.554 205.509 128.188 202.467C131.225 198.961 135.387 197.302 139.034 198.14C145.001 199.508 147.997 206.439 149.734 211.534C152.986 221.085 155.335 231.145 156.716 241.441C156.814 242.17 156.386 242.87 155.692 243.116L155.094 243.329C154.278 243.602 153.392 243.165 153.117 242.348C152.925 241.779 153.082 241.173 153.474 240.767C152.103 231.055 149.853 221.562 146.78 212.54C144.437 205.665 141.674 201.947 138.338 201.183C135.315 200.489 132.331 202.447 130.545 204.512C128.259 207.149 126.863 210.674 125.693 214.091C122.43 223.62 120.53 233.013 119.876 242.803C119.819 243.624 119.133 244.257 118.32 244.257Z" fill="black"/>
<path d="M137.041 200.673C134.876 200.673 132.664 200.317 130.547 199.604C129.136 199.129 128.044 198.595 127.11 197.925C125.191 196.546 123.761 194.459 122.741 191.541C122.113 189.747 121.789 188.112 121.75 186.548C121.703 184.639 122.076 182.636 122.885 180.424C124.247 176.708 126.434 173.587 129.209 171.408C132.398 168.903 136.374 167.682 140.12 168.063C143.812 168.44 147.382 170.884 149.916 174.767C151.89 177.796 152.937 181.565 152.943 185.665C152.947 187.299 152.781 188.717 152.437 189.999C151.327 194.136 147.935 197.767 143.585 199.481C141.568 200.274 139.331 200.673 137.041 200.673ZM138.753 171.111C136.12 171.111 133.396 172.086 131.137 173.86C128.818 175.682 126.979 178.322 125.814 181.497C125.14 183.334 124.832 184.96 124.869 186.47C124.9 187.707 125.166 189.026 125.687 190.513C126.487 192.803 127.55 194.398 128.931 195.391C129.605 195.875 130.434 196.276 131.542 196.649C135.212 197.886 139.186 197.863 142.442 196.579C145.889 195.223 148.564 192.391 149.426 189.192C149.696 188.182 149.828 187.029 149.823 185.673C149.819 182.175 148.947 178.994 147.302 176.473C146.35 175.011 143.712 171.566 139.804 171.168C139.458 171.129 139.108 171.111 138.753 171.111Z" fill="black"/>
<path d="M135.766 247.3C106.615 247.3 82.8984 223.585 82.8984 194.435C82.8984 165.284 106.613 141.567 135.766 141.567C164.915 141.567 188.632 165.282 188.632 194.435C188.632 223.585 164.917 247.3 135.766 247.3ZM135.766 144.69C108.336 144.69 86.0197 167.007 86.0197 194.437C86.0197 221.867 108.336 244.183 135.766 244.183C163.196 244.183 185.513 221.867 185.513 194.437C185.513 167.004 163.196 144.69 135.766 144.69Z" fill="black"/>
<path d="M168.51 73.2913C168.51 44.3802 190.846 22.5023 218.674 22.5023C246.502 22.5023 269.283 44.3802 269.283 73.2913C269.283 102.202 246.723 125.641 218.895 125.641C191.068 125.641 168.51 102.202 168.51 73.2913Z" fill="white"/>
<path d="M236.4 123.503C235.634 123.503 234.964 122.938 234.857 122.157C233.495 112.339 231.222 102.712 228.101 93.5451C225.758 86.6697 222.995 82.9523 219.658 82.1863C216.627 81.492 213.653 83.4541 211.867 85.5165C209.58 88.1566 208.183 91.6813 207.013 95.0955C204.201 103.313 202.348 112.236 201.506 121.612C201.428 122.471 200.652 123.103 199.812 123.026C198.954 122.95 198.321 122.192 198.399 121.334C199.263 111.706 201.168 102.536 204.062 94.0817C205.334 90.3706 206.872 86.5181 209.51 83.4705C212.547 79.9641 216.703 78.3052 220.357 79.1449C226.321 80.513 229.319 87.4438 231.056 92.5375C234.241 101.891 236.561 111.712 237.948 121.727C238.067 122.579 237.471 123.368 236.619 123.484C236.543 123.497 236.471 123.503 236.4 123.503Z" fill="black"/>
<path d="M209.81 100.011C209.685 100.011 209.562 99.968 209.464 99.8779C209.251 99.6853 209.232 99.3576 209.423 99.1446C213.22 94.9174 217.124 90.6962 221.025 86.6041C221.224 86.3952 221.552 86.3911 221.76 86.5857C221.969 86.7844 221.975 87.1121 221.779 87.3189C217.885 91.4049 213.988 95.6178 210.199 99.8369C210.092 99.9537 209.951 100.011 209.81 100.011Z" fill="black"/>
<path d="M206.052 113.625C205.933 113.625 205.814 113.584 205.716 113.502C205.497 113.316 205.468 112.988 205.654 112.771C211.576 105.746 217.99 99.0158 224.718 92.765C224.929 92.5684 225.257 92.5807 225.453 92.7916C225.65 93.0046 225.638 93.3323 225.427 93.5269C218.728 99.7491 212.344 106.448 206.449 113.441C206.345 113.561 206.197 113.625 206.052 113.625Z" fill="black"/>
<path d="M206.785 123.937C206.656 123.937 206.529 123.892 206.426 123.796C206.217 123.597 206.209 123.267 206.406 123.06L227.192 101.109C227.391 100.9 227.718 100.892 227.927 101.088C228.136 101.287 228.144 101.615 227.948 101.822L207.161 123.775C207.059 123.882 206.922 123.937 206.785 123.937Z" fill="black"/>
<path d="M217.843 125.123C217.71 125.123 217.576 125.071 217.476 124.971C217.271 124.766 217.271 124.439 217.474 124.236C221.8 119.898 226.062 115.378 230.148 110.802C230.34 110.589 230.668 110.571 230.881 110.759C231.094 110.952 231.114 111.28 230.924 111.493C226.828 116.08 222.549 120.615 218.211 124.967C218.109 125.071 217.974 125.123 217.843 125.123Z" fill="black"/>
<g opacity="0.1294">
<path d="M232.678 61.2076C231.848 60.3392 230.332 60.3433 229.499 61.2076C228.362 62.715 229.063 63.227 228.221 65.6172C227.322 69.0846 222.845 72.2018 221.112 72.978C218.533 74.0144 217.692 74.0267 216.358 74.1107C213.786 74.2008 214.222 74.1311 211.375 73.4655C210.66 73.2218 211.033 73.3774 209.694 72.6893C209.233 72.4189 208.666 72.3452 208.152 72.4865C206.491 72.8859 206.165 75.3293 207.674 76.1465C216.289 81.9528 224.678 80.2755 230.918 70.9771C232.131 68.8409 232.968 66.4753 233.2 64.0217C233.355 63.0468 233.482 61.9408 232.678 61.2076Z" fill="black"/>
</g>
<g opacity="0.1294">
<path d="M224.365 100.152C226.786 109.103 227.122 113.461 227.548 122.741C227.605 123.122 227.66 123.503 227.718 123.884C227.734 124.033 227.74 124.183 227.755 124.334C228.551 124.232 229.346 124.121 230.143 124.025C231.556 123.697 232.961 123.331 234.364 122.954C234.898 122.694 235.429 122.423 235.961 122.163C235.664 119.925 235.179 117.717 234.69 115.507C232.939 105.991 231.767 96.0254 227.007 87.4295C225.596 84.5478 223.765 81.5801 220.889 79.9948C217.813 78.5468 214.983 82.7823 217.428 85.1335C219.992 87.454 219.511 87.0526 221.145 90.221C223.067 93.5472 223.101 95.2942 224.365 100.152Z" fill="black"/>
</g>
<path d="M218.365 81.6785C216.2 81.6785 213.988 81.3221 211.873 80.6094C210.461 80.1342 209.37 79.5997 208.438 78.932C206.517 77.5516 205.087 75.4645 204.067 72.546C203.438 70.7518 203.115 69.1175 203.076 67.5527C203.031 65.6459 203.402 63.6449 204.211 61.433C205.575 57.7136 207.76 54.5944 210.535 52.4152C213.724 49.9104 217.695 48.6896 221.445 49.0706C225.138 49.4454 228.71 51.8888 231.244 55.774C233.216 58.8011 234.262 62.5676 234.271 66.6679C234.273 68.3085 234.107 69.7258 233.763 71.0038C232.653 75.1409 229.259 78.7743 224.911 80.4865C222.891 81.2812 220.653 81.6785 218.365 81.6785ZM220.075 52.1161C217.441 52.1161 214.719 53.091 212.462 54.8647C210.142 56.6855 208.303 59.3255 207.137 62.5021C206.466 64.3392 206.156 65.9654 206.193 67.4749C206.222 68.712 206.49 70.0309 207.008 71.5137C207.811 73.8076 208.872 75.4031 210.255 76.3964C210.928 76.8798 211.758 77.2812 212.866 77.6519C216.534 78.891 220.507 78.8665 223.764 77.5844C227.213 76.2265 229.888 73.3939 230.748 70.1968C231.018 69.1871 231.149 68.034 231.147 66.674C231.141 63.1779 230.271 59.9952 228.628 57.4781C227.674 56.0157 225.036 52.5708 221.128 52.1735C220.782 52.1346 220.43 52.1161 220.075 52.1161Z" fill="black"/>
<path d="M218.672 126.675C189.522 126.675 165.805 102.96 165.805 73.8075C165.805 44.6588 189.52 20.9418 218.672 20.9418C247.821 20.9418 271.538 44.6568 271.538 73.8075C271.538 102.96 247.823 126.675 218.672 126.675ZM218.672 24.0611C191.24 24.0611 168.926 46.3772 168.926 73.8075C168.926 101.24 191.242 123.554 218.672 123.554C246.103 123.554 268.417 101.238 268.417 73.8075C268.417 46.3792 246.103 24.0611 218.672 24.0611Z" fill="black"/>
<path d="M53.2001 125.641C81.7737 125.641 104.937 102.203 104.937 73.2914C104.937 44.3795 81.7737 20.9418 53.2001 20.9418C24.6264 20.9418 1.46289 44.3795 1.46289 73.2914C1.46289 102.203 24.6264 125.641 53.2001 125.641Z" fill="white"/>
<path d="M54.299 124.662C58.0164 124.666 61.6886 124.187 65.2728 123.194C66.7229 122.794 68.1565 122.313 69.541 121.727C67.9886 111.671 65.6292 101.805 62.5529 92.1669C61.1069 87.6426 58.8233 82.5162 54.1925 81.4594C51.0938 80.7549 47.8127 82.2458 45.613 84.5356C43.4113 86.8275 42.1025 89.8157 40.9638 92.7834C37.5168 101.758 35.2537 111.175 34.1641 120.73C40.503 123.198 47.5628 124.654 54.299 124.662Z" fill="#EC2227"/>
<path d="M70.2055 123.007C69.6156 123.007 69.0524 122.671 68.7882 122.102C68.6038 121.698 68.6039 121.254 68.7554 120.869C67.3648 111.595 65.1938 102.585 62.2978 94.0817C59.9568 87.2062 57.1939 83.4909 53.8534 82.7249C50.8365 82.0306 47.8525 83.9886 46.0624 86.0552C43.7747 88.6952 42.3779 92.2179 41.2084 95.6321C38.4619 103.659 36.6329 112.162 35.7727 120.91C35.6887 121.768 34.9146 122.389 34.0667 122.311C33.2085 122.227 32.5818 121.463 32.6657 120.605C33.5505 111.618 35.4307 102.876 38.255 94.6224C39.5269 90.9092 41.065 87.0567 43.7009 84.0112C46.7383 80.5069 50.8939 78.8459 54.5478 79.6835C60.5159 81.0537 63.5123 87.9845 65.2471 93.0781C68.2762 101.977 70.5291 111.413 71.9423 121.125C72.0406 121.801 71.6863 122.462 71.0698 122.757L70.8547 122.864C70.6458 122.96 70.4246 123.007 70.2055 123.007Z" fill="black"/>
<g opacity="0.1294">
<path d="M65.375 61.3202C64.8794 59.9009 62.7452 59.7964 62.0345 61.097C61.373 62.6781 62.0612 64.4846 61.8707 66.1517C61.967 66.4487 61.1436 69.486 60.6623 70.1107C60.4964 70.3954 60.8057 69.9673 60.9142 69.8362C60.7811 70.0042 60.5578 70.3052 60.4186 70.4957C60.351 70.5776 60.2834 70.6575 60.2097 70.7353C59.0812 71.8577 57.9056 72.931 56.7341 74.0083C54.6409 75.19 55.1222 74.9114 53.3342 75.5381C52.8713 75.6733 52.4023 75.7901 51.9271 75.874C51.8862 75.8781 51.8575 75.8802 51.8084 75.8843C50.2293 75.8147 48.6461 75.9785 47.0711 75.8392C46.9994 75.829 46.9523 75.8229 46.9072 75.8167C46.0778 75.6836 45.2217 75.4808 44.47 75.9621C42.7209 76.9083 43.0875 79.7532 45.0271 80.2201C47.1612 80.7424 49.3486 81.4265 51.5667 81.2299C54.305 80.9923 56.8467 79.6835 59.1877 78.3174C65.6208 75.02 67.2654 66.588 65.375 61.3202Z" fill="black"/>
</g>
<g opacity="0.1294">
<path d="M63.0046 113.572C63.4101 118.942 63.6375 117.99 63.8362 121.525C63.8935 122.184 63.9324 122.848 63.9672 123.509C64.4035 123.405 64.8438 123.315 65.278 123.196C66.9575 122.731 68.6205 122.17 70.2078 121.447C70.4515 121.334 70.6953 121.213 70.941 121.082C70.5191 118.608 70.0091 115.927 69.4684 113.525C68.3379 108.413 67.0189 103.358 65.4398 98.3666C64.1208 94.0267 62.9432 89.5987 60.8459 85.5537C60.2909 84.4231 59.5679 83.3848 58.7712 82.4119C58.3391 81.8098 57.7082 81.31 56.9299 81.3346C55.1911 81.2834 54.2285 83.5916 55.5004 84.7877C61.3887 92.1322 61.8147 104.904 63.0046 113.572Z" fill="black"/>
</g>
<path d="M52.5624 82.2173C50.3955 82.2173 48.1856 81.8609 46.0678 81.1461C44.6587 80.6709 43.5671 80.1384 42.6331 79.4666C40.712 78.0882 39.2824 76.0012 38.2625 73.0827C37.6337 71.2906 37.3102 69.6562 37.2712 68.0894C37.2262 66.1806 37.5969 64.1795 38.4059 61.9696C39.7699 58.2482 41.9573 55.129 44.7304 52.9498C47.9234 50.4429 51.909 49.2305 55.6407 49.6073C59.3355 49.9821 62.9053 52.4255 65.4388 56.3087C67.4111 59.3379 68.4598 63.1043 68.4659 67.2046C68.468 68.8492 68.302 70.2665 67.96 71.5404C66.8499 75.6776 63.4562 79.311 59.1081 81.0232C57.0887 81.8158 54.8522 82.2173 52.5624 82.2173ZM54.2746 52.6548C51.6408 52.6548 48.9188 53.6277 46.6597 55.4014C44.3413 57.2221 42.5021 59.8642 41.3367 63.0388C40.6649 64.8739 40.3557 66.5021 40.3925 68.0116C40.4212 69.2466 40.6895 70.5676 41.2077 72.0504C42.0085 74.3422 43.0714 75.9378 44.4539 76.9311C45.1277 77.4165 45.9572 77.8179 47.0652 78.1886C50.7354 79.4277 54.7068 79.4031 57.9653 78.119C61.4143 76.7631 64.0891 73.9306 64.9493 70.7335C65.2196 69.7259 65.3507 68.5748 65.3487 67.2108C65.3425 63.7126 64.4701 60.5319 62.8275 58.0127C61.8751 56.5504 59.2351 53.1054 55.3294 52.7081C54.9791 52.6712 54.6269 52.6548 54.2746 52.6548Z" fill="black"/>
<path d="M52.8657 126.436C23.715 126.436 0 102.721 0 73.5679C0 44.4193 23.715 20.7023 52.8657 20.7023C82.0164 20.7023 105.731 44.4173 105.731 73.5679C105.731 102.719 82.0164 126.436 52.8657 126.436ZM52.8657 23.8236C25.4355 23.8236 3.11929 46.1397 3.11929 73.5679C3.11929 101 25.4355 123.314 52.8657 123.314C80.296 123.314 102.612 100.998 102.612 73.5679C102.612 46.1377 80.296 23.8236 52.8657 23.8236Z" fill="black"/>
<path d="M59.8073 214.928C59.3792 214.928 58.9511 214.752 58.6439 214.406C55.8646 211.293 53.1837 208.001 50.6789 204.62C50.1668 203.928 50.3102 202.953 51.0045 202.441C51.6947 201.927 52.6717 202.07 53.1857 202.764C55.6353 206.068 58.2548 209.288 60.9706 212.329C61.544 212.97 61.4887 213.957 60.8456 214.533C60.5487 214.795 60.178 214.928 59.8073 214.928ZM44.9646 194.904C44.4383 194.904 43.9262 194.638 43.6313 194.156C41.4542 190.588 39.406 186.869 37.5464 183.105C37.1634 182.333 37.4808 181.397 38.255 181.014C39.0231 180.633 39.9631 180.948 40.3441 181.722C42.1628 185.405 44.1638 189.038 46.2938 192.528C46.7424 193.263 46.5089 194.224 45.7757 194.672C45.5217 194.83 45.2432 194.904 44.9646 194.904ZM33.9233 172.555C33.2986 172.555 32.7087 172.176 32.4691 171.559C30.9515 167.648 29.5956 163.625 28.4364 159.605C28.1968 158.779 28.676 157.913 29.5034 157.675C30.3288 157.44 31.1952 157.915 31.4348 158.742C32.5674 162.673 33.8946 166.605 35.3774 170.431C35.6888 171.236 35.2914 172.137 34.4865 172.448C34.3022 172.52 34.1117 172.555 33.9233 172.555ZM27.0273 148.602C26.2941 148.602 25.6387 148.084 25.4953 147.337C24.7027 143.201 24.0965 139.001 23.695 134.845C23.611 133.989 24.2398 133.225 25.098 133.143C25.9397 133.049 26.718 133.686 26.802 134.546C27.1952 138.601 27.7872 142.708 28.5613 146.751C28.7231 147.597 28.1681 148.414 27.3222 148.578C27.2259 148.594 27.1256 148.602 27.0273 148.602Z" fill="#F5F5F5"/>
<path d="M176.632 10.5579C176.471 10.5579 176.305 10.5333 176.143 10.4801C172.272 9.20002 168.276 8.0838 164.268 7.1601C163.428 6.96553 162.904 6.12988 163.098 5.29016C163.293 4.45249 164.127 3.92203 164.97 4.12069C169.073 5.06692 173.163 6.20979 177.124 7.51853C177.941 7.78888 178.385 8.67159 178.115 9.48878C177.896 10.1442 177.288 10.5579 176.632 10.5579ZM90.7061 10.3981C90.0486 10.3981 89.4362 9.9783 89.2232 9.31881C88.957 8.49956 89.4055 7.61888 90.2268 7.35467C94.2001 6.06846 98.2923 4.94404 102.395 4.02034C103.245 3.82577 104.07 4.35828 104.258 5.198C104.449 6.03977 103.92 6.87337 103.081 7.06385C99.0705 7.96706 95.0686 9.06482 91.1853 10.3224C91.0276 10.3736 90.8658 10.3981 90.7061 10.3981ZM152.348 4.96042C152.278 4.96042 152.207 4.95632 152.135 4.94608C148.082 4.39309 143.949 4.02034 139.85 3.82987C138.99 3.79095 138.324 3.06183 138.363 2.20163C138.402 1.33937 139.125 0.665551 139.992 0.714705C144.182 0.907227 148.409 1.29022 152.555 1.85345C153.409 1.97019 154.005 2.75461 153.89 3.60867C153.786 4.39309 153.116 4.96042 152.348 4.96042ZM115.019 4.90924C114.249 4.90924 113.579 4.33986 113.475 3.55338C113.362 2.69932 113.962 1.91491 114.816 1.80226C118.966 1.25132 123.193 0.882642 127.381 0.700361C128.244 0.671687 128.969 1.33323 129.006 2.19344C129.042 3.05569 128.375 3.7807 127.515 3.81962C123.418 3.99575 119.283 4.35827 115.226 4.89692C115.156 4.90511 115.087 4.90924 115.019 4.90924Z" fill="#F5F5F5"/>
<path d="M211.698 210.615C211.281 210.615 210.861 210.447 210.556 210.115C209.968 209.482 210.007 208.497 210.64 207.911C213.626 205.14 216.509 202.169 219.209 199.076C219.772 198.429 220.759 198.359 221.409 198.928C222.058 199.494 222.125 200.481 221.558 201.128C218.787 204.303 215.827 207.354 212.759 210.201C212.46 210.478 212.079 210.615 211.698 210.615ZM228.085 191.85C227.776 191.85 227.461 191.758 227.188 191.565C226.484 191.068 226.316 190.095 226.811 189.39C229.165 186.052 231.379 182.548 233.386 178.978C233.81 178.228 234.762 177.964 235.512 178.384C236.263 178.806 236.53 179.758 236.108 180.508C234.045 184.17 231.778 187.764 229.361 191.189C229.058 191.621 228.575 191.85 228.085 191.85ZM240.308 170.138C240.1 170.138 239.889 170.097 239.686 170.009C238.897 169.665 238.535 168.745 238.879 167.957C240.519 164.197 241.984 160.32 243.229 156.434C243.491 155.613 244.372 155.16 245.191 155.422C246.01 155.687 246.465 156.565 246.201 157.385C244.923 161.372 243.424 165.35 241.74 169.204C241.484 169.79 240.911 170.138 240.308 170.138ZM247.907 146.411C247.8 146.411 247.694 146.401 247.585 146.376C246.742 146.2 246.203 145.374 246.379 144.531C247.223 140.504 247.856 136.41 248.265 132.367C248.351 131.509 249.134 130.88 249.973 130.972C250.83 131.058 251.456 131.822 251.368 132.68C250.948 136.832 250.297 141.037 249.431 145.172C249.277 145.905 248.628 146.411 247.907 146.411Z" fill="#F5F5F5"/>
</svg>
