<svg width="197" height="236" viewBox="0 0 197 236" fill="none" xmlns="http://www.w3.org/2000/svg">
<path d="M1.55078 208.162V26.935C1.55078 12.918 12.9132 1.55212 26.932 1.55212H109.541C123.558 1.55212 134.923 12.9163 134.923 26.935V208.162C134.923 222.179 123.559 233.543 109.541 233.543H26.932C12.915 233.541 1.55078 222.179 1.55078 208.162Z" fill="#EC2227"/>
<path d="M109.585 235.093H26.8886C12.0617 235.093 0 223.03 0 208.205V26.8886C0 12.0617 12.0635 0 26.8886 0H109.585C124.413 0 136.473 12.0635 136.473 26.8886V208.205C136.473 223.032 124.413 235.093 109.585 235.093ZM26.8904 3.10416C13.7743 3.10416 3.10601 13.7725 3.10601 26.8886V208.205C3.10601 221.321 13.7743 231.989 26.8904 231.989H109.586C122.702 231.989 133.373 221.321 133.373 208.205V26.8886C133.373 13.7725 122.702 3.10416 109.586 3.10416H26.8904Z" fill="black"/>
<path d="M134.922 26.2231H1.55078V201.167H134.922V26.2231Z" fill="white"/>
<path d="M134.923 202.719H1.55208C0.695755 202.719 0 202.023 0 201.167V26.2231C0 25.3668 0.695755 24.671 1.55208 24.671H134.923C135.777 24.671 136.473 25.3668 136.473 26.2231V201.167C136.473 202.023 135.779 202.719 134.923 202.719ZM3.10601 199.615H133.373V27.777H3.10601V199.615Z" fill="black"/>
<path d="M81.6031 215.292H57.5814C56.7251 215.292 56.0293 214.597 56.0293 213.74C56.0293 212.884 56.7251 212.188 57.5814 212.188H81.6031C82.4594 212.188 83.1552 212.884 83.1552 213.74C83.1552 214.597 82.4612 215.292 81.6031 215.292Z" fill="black"/>
<path d="M82.7307 60.1104H23.7513C22.895 60.1104 22.1992 59.4146 22.1992 58.5583C22.1992 57.702 22.895 57.0062 23.7513 57.0062H82.7307C83.587 57.0062 84.2827 57.702 84.2827 58.5583C84.2827 59.4146 83.5888 60.1104 82.7307 60.1104Z" fill="black"/>
<path d="M53.2409 96.4043H23.7513C22.895 96.4043 22.1992 95.7085 22.1992 94.8521C22.1992 93.9958 22.895 93.3 23.7513 93.3H53.2409C54.0972 93.3 54.7931 93.9958 54.7931 94.8521C54.7931 95.7085 54.099 96.4043 53.2409 96.4043Z" fill="black"/>
<path d="M53.2409 132.698H23.7513C22.895 132.698 22.1992 132.002 22.1992 131.146C22.1992 130.29 22.895 129.594 23.7513 129.594H53.2409C54.0972 129.594 54.7931 130.29 54.7931 131.146C54.7931 132.002 54.099 132.698 53.2409 132.698Z" fill="black"/>
<path d="M53.2409 168.994H23.7513C22.895 168.994 22.1992 168.296 22.1992 167.442C22.1992 166.585 22.895 165.89 23.7513 165.89H53.2409C54.0972 165.89 54.7931 166.585 54.7931 167.442C54.7931 168.296 54.099 168.994 53.2409 168.994Z" fill="black"/>
<path d="M149.022 66.2262H120.826V184.185H149.022V66.2262Z" fill="white"/>
<path d="M149.024 185.737H120.826C119.971 185.737 119.275 185.041 119.275 184.185V66.228C119.275 65.3717 119.971 64.6759 120.826 64.6759H149.024C149.88 64.6759 150.576 65.3717 150.576 66.228V184.185C150.576 185.043 149.88 185.737 149.024 185.737ZM122.378 182.635H147.47V67.7783H122.378V182.635Z" fill="black"/>
<path d="M194.835 107.071H166.639V184.187H194.835V107.071Z" fill="#EC2227"/>
<path d="M194.832 185.737H166.636C165.78 185.737 165.084 185.041 165.084 184.185V107.069C165.084 106.213 165.78 105.517 166.636 105.517H194.832C195.689 105.517 196.384 106.213 196.384 107.069V184.185C196.384 185.043 195.69 185.737 194.832 185.737ZM168.19 182.635H193.28V108.623H168.19V182.635Z" fill="black"/>
<path d="M103.208 94.1351H75.0117V184.187H103.208V94.1351Z" fill="white"/>
<path d="M103.211 185.737H75.013C74.1585 185.737 73.4609 185.041 73.4609 184.185V94.1351C73.4609 93.2788 74.1585 92.583 75.013 92.583H103.211C104.066 92.583 104.761 93.2788 104.761 94.1351V184.185C104.761 185.043 104.066 185.737 103.211 185.737ZM76.5651 182.635H101.657V95.689H76.5651V182.635Z" fill="black"/>
<path d="M83.8673 180.214C83.7602 180.214 83.655 180.18 83.5623 180.114C81.7551 178.801 80.0085 177.368 78.3654 175.853C78.1567 175.661 78.1423 175.333 78.335 175.122C78.5277 174.915 78.8578 174.901 79.0665 175.092C80.6775 176.578 82.3955 177.985 84.1688 179.277C84.4007 179.445 84.4507 179.768 84.283 179.999C84.1849 180.14 84.0278 180.214 83.8673 180.214Z" fill="black"/>
<path d="M93.1657 180.032C93.0498 180.032 92.9321 179.992 92.834 179.912L78.5779 168.013C78.3585 167.829 78.3299 167.504 78.5136 167.285C78.6974 167.067 79.0221 167.037 79.2416 167.219L93.4958 179.118C93.7152 179.302 93.7455 179.628 93.5618 179.846C93.4619 179.969 93.3138 180.032 93.1657 180.032Z" fill="black"/>
<path d="M99.0408 174.821C98.9284 174.821 98.8196 174.785 98.7268 174.714L78.6085 159.389C78.3801 159.216 78.3373 158.893 78.5104 158.666C78.6834 158.438 79.01 158.395 79.233 158.567L99.3512 173.891C99.5796 174.064 99.6223 174.387 99.4511 174.615C99.3511 174.751 99.196 174.821 99.0408 174.821Z" fill="black"/>
<path d="M99.2948 165.633C99.1967 165.633 99.0985 165.604 99.0111 165.547C92.0321 160.95 85.1654 156.003 78.6074 150.847C78.3826 150.67 78.3451 150.346 78.5199 150.121C78.6983 149.896 79.0249 149.86 79.2461 150.035C85.7827 155.173 92.6226 160.102 99.5784 164.684C99.8175 164.841 99.8817 165.164 99.7265 165.401C99.6284 165.551 99.4643 165.633 99.2948 165.633Z" fill="black"/>
<path d="M99.0285 156.128C98.9268 156.128 98.8251 156.097 98.7341 156.035C91.9513 151.354 85.1899 146.451 78.6408 141.463C78.4125 141.29 78.3679 140.967 78.541 140.739C78.714 140.511 79.0387 140.468 79.2653 140.641C85.8037 145.618 92.5507 150.51 99.3211 155.184C99.5565 155.346 99.6154 155.667 99.4513 155.903C99.3549 156.049 99.1926 156.128 99.0285 156.128Z" fill="black"/>
<path d="M98.914 146.567C98.8106 146.567 98.7072 146.535 98.618 146.473L78.3498 132.249C78.1143 132.085 78.059 131.764 78.2232 131.53C78.3891 131.296 78.712 131.239 78.9439 131.403L99.2119 145.627C99.4457 145.791 99.5028 146.112 99.3368 146.346C99.2352 146.491 99.0764 146.567 98.914 146.567Z" fill="black"/>
<path d="M99.0022 137.713C98.9023 137.713 98.8041 137.685 98.7167 137.628C91.8394 133.078 85.0084 128.256 78.4147 123.3C78.1863 123.127 78.1417 122.804 78.313 122.576C78.4843 122.346 78.8108 122.303 79.0356 122.474C85.6132 127.418 92.4246 132.227 99.2859 136.764C99.5249 136.923 99.5909 137.244 99.4321 137.481C99.334 137.631 99.1699 137.713 99.0022 137.713Z" fill="black"/>
<path d="M98.3857 127.343C98.2805 127.343 98.177 127.311 98.0842 127.245L78.8347 113.419C78.6028 113.253 78.5493 112.93 78.717 112.698C78.8847 112.464 79.2058 112.412 79.4395 112.58L98.689 126.404C98.9209 126.572 98.9726 126.895 98.8067 127.127C98.705 127.268 98.5481 127.343 98.3857 127.343Z" fill="black"/>
<path d="M98.3067 118.066C98.2032 118.066 98.1015 118.034 98.0087 117.971C91.5845 113.467 85.1585 108.787 78.9091 104.061C78.6826 103.89 78.6379 103.567 78.8092 103.339C78.9805 103.111 79.3052 103.066 79.5335 103.237C85.7722 107.954 92.1893 112.626 98.601 117.124C98.8347 117.288 98.8919 117.607 98.7277 117.843C98.6278 117.989 98.469 118.066 98.3067 118.066Z" fill="black"/>
<path d="M99.0007 109.488C98.89 109.488 98.7812 109.453 98.6866 109.383L85.7258 99.5514C85.4956 99.3784 85.4528 99.0555 85.6241 98.8289C85.7971 98.5987 86.1236 98.5577 86.3484 98.7272L99.3111 108.557C99.5394 108.732 99.5822 109.055 99.4109 109.281C99.3093 109.417 99.1559 109.488 99.0007 109.488Z" fill="black"/>
<path d="M98.9859 101.261C98.8735 101.261 98.7576 101.223 98.663 101.148L95.3394 98.4971C95.1164 98.3187 95.079 97.994 95.2574 97.771C95.4376 97.5462 95.7604 97.5105 95.9834 97.6889L99.307 100.34C99.53 100.518 99.5675 100.843 99.3891 101.066C99.2874 101.194 99.1375 101.261 98.9859 101.261Z" fill="black"/>
<g opacity="0.1294">
<path d="M125.991 26.537C121.44 26.4086 116.892 26.1998 112.339 26.2534C100.094 26.1285 87.8431 26.1445 75.5959 26.314C65.9586 26.38 56.3197 26.7814 46.6931 26.1285C34.8776 25.7645 23.0657 25.0652 11.2395 25.5344C9.5822 25.5647 7.92483 25.5558 6.26927 25.4737C5.26487 25.397 4.19443 25.2525 3.28816 25.7788C-1.22182 27.5039 0.176891 34.4973 5.03297 34.442C10.7971 34.8576 16.5862 34.4045 22.3592 34.5365C29.2455 34.5008 36.1158 35.0753 42.9932 35.218C68.6829 35.375 94.3869 35.4785 120.075 35.0271C123.488 35.0806 126.901 35.011 130.312 34.9432C133.137 35.2608 136.003 33.9317 136.036 30.7437C135.694 25.265 129.801 26.7422 125.991 26.537Z" fill="black"/>
</g>
<g opacity="0.1294">
<path d="M102.827 183.346C98.1495 182.761 93.3417 183.394 88.6212 182.988C85.4903 182.857 82.3575 182.665 79.2212 182.69C77.728 182.818 76.0832 182.495 74.6934 183.134C70.5224 184.731 71.8515 191.157 76.2972 191.105C82.7411 190.873 89.1831 191.513 95.6288 191.451C97.518 191.481 99.402 191.296 101.291 191.273C102.083 191.31 103.022 191.021 103.782 190.65C106.788 188.987 106.167 184.179 102.827 183.346Z" fill="black"/>
</g>
<g opacity="0.1294">
<path d="M134.76 184.963C133.97 184.26 133.017 183.764 131.934 183.794C131.552 183.794 131.16 183.769 130.908 183.751C130.846 183.741 130.783 183.73 130.721 183.719C128.441 183.296 126.124 183.098 123.81 182.936C122.09 182.768 120.161 182.622 118.884 184.021C116.281 186.45 118.247 191.203 121.81 191.087C124.652 191.216 127.465 191.704 130.309 191.719C131.361 191.76 132.514 191.97 133.476 191.442C136.078 190.557 136.728 186.809 134.76 184.963Z" fill="black"/>
</g>
</svg>
