<svg width="344" height="205" viewBox="0 0 344 205" fill="none" xmlns="http://www.w3.org/2000/svg">
<path d="M72.296 57.662C71.9752 57.662 71.6525 57.5584 71.3806 57.3471C70.7311 56.8405 70.6157 55.9054 71.1223 55.2559L89.2369 32.0474C89.7435 31.398 90.6785 31.2826 91.328 31.7892C91.9774 32.2959 92.0929 33.2309 91.5862 33.8804L73.4736 57.0889C73.1763 57.4645 72.7381 57.662 72.296 57.662Z" fill="#0F0202"/>
<path d="M131.456 200.96C131.286 195.634 131.115 190.311 130.945 184.984C130.738 178.505 130.533 172.024 130.713 165.545C130.875 159.764 131.348 153.994 131.46 148.211C131.61 140.568 131.133 132.929 130.836 125.29C130.11 106.583 130.478 87.8464 131.133 69.0727C120.665 68.2061 110.117 68.3489 100.018 69.3172C106.547 60.8155 114.357 53.3976 122.131 46.0207C125.888 42.4526 129.648 38.8844 133.408 35.3163C145.022 24.2931 156.634 13.2679 168.798 2.6124C171.775 4.60186 174.369 7.10971 176.893 9.65082C195.324 28.2152 210.972 49.356 228.443 68.431C217.56 68.4877 206.68 68.5484 195.758 68.7264C196.154 113.056 197.181 157.38 198.137 201.565C176.102 203.691 153.882 203.873 131.456 200.96Z" fill="white"/>
<path d="M120.811 61.42C120.678 61.42 120.545 61.3691 120.447 61.2635C120.261 61.062 120.271 60.747 120.473 60.5612L171.639 12.8669C171.841 12.681 172.154 12.6908 172.342 12.8923C172.527 13.0938 172.518 13.4087 172.316 13.5946L121.15 61.2889C121.054 61.375 120.932 61.42 120.811 61.42Z" fill="#0F0202"/>
<path d="M134.424 62.2396C134.287 62.2396 134.15 62.1828 134.052 62.0713C133.871 61.8659 133.89 61.551 134.095 61.371C148.708 48.4503 163.705 35.5569 178.668 23.0469C178.875 22.8709 179.192 22.8963 179.366 23.1095C179.542 23.3188 179.515 23.6319 179.303 23.8079C164.346 36.312 149.358 49.1975 134.753 62.1144C134.659 62.1965 134.541 62.2396 134.424 62.2396Z" fill="#0F0202"/>
<path d="M137.104 75.1193C136.963 75.1193 136.825 75.0607 136.727 74.9453C136.549 74.7379 136.572 74.421 136.782 74.2449L186.244 31.9732C186.454 31.7952 186.767 31.8206 186.945 32.028C187.123 32.2353 187.099 32.5522 186.89 32.7283L137.427 74.998C137.333 75.0802 137.22 75.1193 137.104 75.1193Z" fill="#0F0202"/>
<path d="M135.288 91.4771C135.155 91.4771 135.022 91.4243 134.925 91.3186C134.737 91.1152 134.749 90.8041 134.95 90.6183C153.837 73.0594 173.607 55.9621 193.709 39.7979C193.922 39.6277 194.235 39.659 194.407 39.8742C194.579 40.0875 194.544 40.4004 194.331 40.5706C174.246 56.7191 154.497 73.8008 135.627 91.3421C135.531 91.4321 135.41 91.4771 135.288 91.4771Z" fill="#0F0202"/>
<path d="M136.418 104.556C136.289 104.556 136.156 104.507 136.06 104.406C135.871 104.206 135.877 103.893 136.074 103.703C156.806 83.7873 179.15 65.1779 202.483 48.3897C202.703 48.2293 203.016 48.2782 203.176 48.5051C203.336 48.7261 203.286 49.0352 203.063 49.1976C179.766 65.9565 157.459 84.5365 136.761 104.419C136.665 104.513 136.542 104.556 136.418 104.556Z" fill="#0F0202"/>
<path d="M135.193 118.717C135.058 118.717 134.925 118.665 134.825 118.557C134.64 118.354 134.655 118.039 134.857 117.855C151.672 102.467 169.296 87.5393 187.238 73.4918C187.453 73.3235 187.766 73.3607 187.935 73.5759C188.103 73.7911 188.066 74.106 187.85 74.2723C169.928 88.3042 152.324 103.214 135.528 118.586C135.434 118.674 135.314 118.717 135.193 118.717Z" fill="#0F0202"/>
<path d="M201.369 62.7815C201.216 62.7815 201.065 62.7111 200.968 62.5781C200.805 62.357 200.852 62.0479 201.075 61.8855L209.829 55.4829C210.048 55.3205 210.359 55.3675 210.522 55.5905C210.684 55.8115 210.637 56.1226 210.414 56.283L201.66 62.6876C201.574 62.7502 201.47 62.7815 201.369 62.7815Z" fill="#0F0202"/>
<path d="M136.355 129.899C136.222 129.899 136.089 129.846 135.991 129.741C135.803 129.539 135.815 129.224 136.016 129.04C153.024 113.252 171.107 98.2475 189.761 84.4425C189.982 84.2821 190.292 84.3252 190.456 84.5462C190.618 84.7673 190.573 85.0764 190.352 85.2407C171.725 99.0222 153.673 114.003 136.691 129.768C136.598 129.856 136.476 129.899 136.355 129.899Z" fill="#0F0202"/>
<path d="M136.539 142.918C136.394 142.918 136.251 142.855 136.151 142.734C135.979 142.521 136.012 142.208 136.225 142.035L188.212 99.8536C188.423 99.6795 188.736 99.7148 188.91 99.926C189.082 100.139 189.049 100.454 188.838 100.626L136.851 142.806C136.76 142.88 136.65 142.918 136.539 142.918Z" fill="#0F0202"/>
<path d="M138.34 155.371C138.198 155.371 138.057 155.312 137.959 155.195C137.783 154.983 137.812 154.668 138.022 154.494C154.434 140.76 171.451 127.303 188.601 114.502C188.82 114.335 189.132 114.38 189.296 114.603C189.458 114.822 189.415 115.134 189.194 115.296C172.06 128.089 155.056 141.533 138.659 155.257C138.567 155.334 138.452 155.371 138.34 155.371Z" fill="#0F0202"/>
<path d="M138.162 169.667C138.019 169.667 137.876 169.606 137.779 169.487C137.602 169.278 137.634 168.963 137.843 168.788C155.019 154.567 172.709 140.521 190.42 127.037C190.639 126.869 190.95 126.914 191.115 127.131C191.281 127.348 191.238 127.661 191.021 127.825C173.319 141.304 155.641 155.342 138.477 169.551C138.385 169.628 138.272 169.667 138.162 169.667Z" fill="#0F0202"/>
<path d="M137.911 186.228C137.774 186.228 137.638 186.171 137.54 186.058C137.36 185.855 137.377 185.54 137.585 185.36C154.123 170.802 171.852 157.298 190.281 145.226C190.51 145.075 190.819 145.138 190.97 145.367C191.12 145.598 191.056 145.905 190.827 146.055C172.437 158.104 154.745 171.578 138.242 186.105C138.144 186.187 138.027 186.228 137.911 186.228Z" fill="#0F0202"/>
<path d="M145.508 194.679C145.35 194.679 145.193 194.603 145.097 194.462C144.943 194.233 145.003 193.926 145.23 193.771L190.08 163.454C190.307 163.297 190.616 163.358 190.771 163.585C190.925 163.812 190.865 164.121 190.638 164.275L145.786 194.593C145.702 194.651 145.604 194.679 145.508 194.679Z" fill="#0F0202"/>
<path d="M163.879 195.837C163.719 195.837 163.564 195.761 163.468 195.62C163.314 195.393 163.375 195.084 163.601 194.929C170.978 189.941 178.604 185.103 186.268 180.547C186.503 180.406 186.808 180.485 186.949 180.719C187.09 180.954 187.012 181.259 186.777 181.402C179.13 185.946 171.52 190.776 164.159 195.751C164.073 195.811 163.975 195.837 163.879 195.837Z" fill="#0F0202"/>
<path d="M181.6 196.481C181.432 196.481 181.268 196.395 181.174 196.238C181.033 196.003 181.111 195.698 181.346 195.557L187.96 191.61C188.193 191.471 188.5 191.545 188.641 191.784C188.781 192.018 188.703 192.322 188.468 192.464L181.854 196.412C181.774 196.457 181.688 196.481 181.6 196.481Z" fill="#0F0202"/>
<g opacity="0.1294">
<path d="M189.305 195.16C189.389 197.494 188.501 200.027 189.428 202.238C189.614 202.779 189.919 203.249 190.297 203.648C192.21 203.449 194.127 203.325 196.048 203.304C196.512 203.298 196.975 203.306 197.437 203.31C198.574 201.97 198.302 200.459 198.562 199.063C198.769 195.982 198.826 192.889 198.64 189.806C198.012 176.92 198.317 164.005 198.032 151.11C197.764 141.699 196.86 132.315 196.997 122.892C196.96 113.146 197.652 103.416 197.642 93.6719C197.56 86.7469 196.733 82.498 196.611 77.0833C196.619 74.8845 196.705 72.6877 196.784 70.4928C196.788 69.7318 196.475 68.9982 195.942 68.4622C194.256 66.6762 190.96 68.0084 191.042 70.4928C190.512 79.7281 190.226 88.9731 189.919 98.2181C189.264 108.285 188.585 118.359 188.525 128.451C188.478 150.692 189.984 172.922 189.305 195.16Z" fill="#0F0202"/>
</g>
<path d="M191.557 203.701C170.021 203.701 150.259 203.366 131.335 202.686C130.541 202.658 129.907 202.007 129.899 201.213C129.424 158.104 128.931 113.545 129.543 70.1721C119.471 69.3857 109.32 69.8219 99.3472 71.4749C98.7134 71.5825 98.0756 71.2655 97.7783 70.6885C97.4829 70.1133 97.5904 69.4111 98.0502 68.9533C120.453 46.5449 143.618 23.3717 167.744 1.13546C168.325 0.599458 169.225 0.609237 169.792 1.1648C191.354 22.1197 211.669 44.5516 230.171 67.8324C230.534 68.2902 230.597 68.9181 230.331 69.4365C230.067 69.9569 229.537 70.2679 228.938 70.2484C216.524 69.6987 206.536 69.4776 196.792 69.5559C197.836 112.6 198.912 157.084 199.947 202.163C199.955 202.562 199.802 202.95 199.525 203.237C199.247 203.525 198.863 203.685 198.462 203.687C196.14 203.697 193.838 203.701 191.557 203.701ZM132.865 199.759C152.887 200.46 173.881 200.761 196.933 200.714C195.898 155.625 194.818 111.147 193.775 68.1161C193.768 67.717 193.916 67.3336 194.194 67.0441C194.472 66.7585 194.851 66.5941 195.25 66.5902C204.656 66.4904 214.192 66.6587 225.796 67.1321C208.216 45.2245 189.034 24.0975 168.726 4.28302C146.155 25.1323 124.41 46.8032 103.342 67.8755C112.569 66.6783 121.914 66.4924 131.184 67.3199C131.959 67.3884 132.554 68.0456 132.542 68.8262C131.906 112.123 132.386 156.65 132.865 199.759Z" fill="#0F0202"/>
<path d="M87.2611 64.7592C86.9266 64.7592 86.5901 64.6457 86.3124 64.4169C85.6785 63.8906 85.5885 62.9536 86.1127 62.3198L124.308 16.1239C124.832 15.4901 125.769 15.4001 126.407 15.9244C127.041 16.4506 127.129 17.3876 126.606 18.0214L88.4114 64.2173C88.116 64.5734 87.6895 64.7592 87.2611 64.7592Z" fill="#0F0202"/>
<path d="M120.811 61.42C120.678 61.42 120.545 61.3691 120.447 61.2635C120.261 61.062 120.271 60.747 120.473 60.5612L171.639 12.8669C171.841 12.681 172.154 12.6908 172.342 12.8923C172.527 13.0938 172.518 13.4087 172.316 13.5946L121.15 61.2889C121.054 61.375 120.932 61.42 120.811 61.42Z" fill="#0F0202"/>
<path d="M134.424 62.2396C134.287 62.2396 134.15 62.1828 134.052 62.0713C133.871 61.8659 133.89 61.551 134.095 61.371C148.708 48.4503 163.705 35.5569 178.668 23.0469C178.875 22.8709 179.192 22.8963 179.366 23.1095C179.542 23.3188 179.515 23.6319 179.303 23.8079C164.346 36.312 149.358 49.1975 134.753 62.1144C134.659 62.1965 134.541 62.2396 134.424 62.2396Z" fill="#0F0202"/>
<path d="M137.104 75.1193C136.963 75.1193 136.825 75.0607 136.727 74.9453C136.549 74.7379 136.572 74.421 136.782 74.2449L186.244 31.9732C186.454 31.7952 186.767 31.8206 186.945 32.028C187.123 32.2353 187.099 32.5522 186.89 32.7283L137.427 74.998C137.333 75.0802 137.22 75.1193 137.104 75.1193Z" fill="#0F0202"/>
<path d="M135.288 91.4771C135.155 91.4771 135.022 91.4243 134.925 91.3186C134.737 91.1152 134.749 90.8041 134.95 90.6183C153.837 73.0594 173.607 55.9621 193.709 39.7979C193.922 39.6277 194.235 39.659 194.407 39.8742C194.579 40.0875 194.544 40.4004 194.331 40.5706C174.246 56.7191 154.497 73.8008 135.627 91.3421C135.531 91.4321 135.41 91.4771 135.288 91.4771Z" fill="#0F0202"/>
<path d="M136.418 104.556C136.289 104.556 136.156 104.507 136.06 104.406C135.871 104.206 135.877 103.893 136.074 103.703C156.806 83.7873 179.15 65.1779 202.483 48.3897C202.703 48.2293 203.016 48.2782 203.176 48.5051C203.336 48.7261 203.286 49.0352 203.063 49.1976C179.766 65.9565 157.459 84.5365 136.761 104.419C136.665 104.513 136.542 104.556 136.418 104.556Z" fill="#0F0202"/>
<path d="M135.193 118.717C135.058 118.717 134.925 118.665 134.825 118.557C134.64 118.354 134.655 118.039 134.857 117.855C151.672 102.467 169.296 87.5393 187.238 73.4918C187.453 73.3235 187.766 73.3607 187.935 73.5759C188.103 73.7911 188.066 74.106 187.85 74.2723C169.928 88.3042 152.324 103.214 135.528 118.586C135.434 118.674 135.314 118.717 135.193 118.717Z" fill="#0F0202"/>
<path d="M201.369 62.7815C201.216 62.7815 201.065 62.7111 200.968 62.5781C200.805 62.357 200.852 62.0479 201.075 61.8855L209.829 55.4829C210.048 55.3205 210.359 55.3675 210.522 55.5905C210.684 55.8115 210.637 56.1226 210.414 56.283L201.66 62.6876C201.574 62.7502 201.47 62.7815 201.369 62.7815Z" fill="#0F0202"/>
<path d="M136.355 129.899C136.222 129.899 136.089 129.846 135.991 129.741C135.803 129.539 135.815 129.224 136.016 129.04C153.024 113.252 171.107 98.2475 189.761 84.4425C189.982 84.2821 190.292 84.3252 190.456 84.5462C190.618 84.7673 190.573 85.0764 190.352 85.2407C171.725 99.0222 153.673 114.003 136.691 129.768C136.598 129.856 136.476 129.899 136.355 129.899Z" fill="#0F0202"/>
<path d="M136.539 142.918C136.394 142.918 136.251 142.855 136.151 142.734C135.979 142.521 136.012 142.208 136.225 142.035L188.212 99.8536C188.423 99.6795 188.736 99.7148 188.91 99.926C189.082 100.139 189.049 100.454 188.838 100.626L136.851 142.806C136.76 142.88 136.65 142.918 136.539 142.918Z" fill="#0F0202"/>
<path d="M138.34 155.371C138.198 155.371 138.057 155.312 137.959 155.195C137.783 154.983 137.812 154.668 138.022 154.494C154.434 140.76 171.451 127.303 188.601 114.502C188.82 114.335 189.132 114.38 189.296 114.603C189.458 114.822 189.415 115.134 189.194 115.296C172.06 128.089 155.056 141.533 138.659 155.257C138.567 155.334 138.452 155.371 138.34 155.371Z" fill="#0F0202"/>
<path d="M138.162 169.667C138.019 169.667 137.876 169.606 137.779 169.487C137.602 169.278 137.634 168.963 137.843 168.788C155.019 154.567 172.709 140.521 190.42 127.037C190.639 126.869 190.95 126.914 191.115 127.131C191.281 127.348 191.238 127.661 191.021 127.825C173.319 141.304 155.641 155.342 138.477 169.551C138.385 169.628 138.272 169.667 138.162 169.667Z" fill="#0F0202"/>
<path d="M137.911 186.228C137.774 186.228 137.638 186.171 137.54 186.058C137.36 185.855 137.377 185.54 137.585 185.36C154.123 170.802 171.852 157.298 190.281 145.226C190.51 145.075 190.819 145.138 190.97 145.367C191.12 145.598 191.056 145.905 190.827 146.055C172.437 158.104 154.745 171.578 138.242 186.105C138.144 186.187 138.027 186.228 137.911 186.228Z" fill="#0F0202"/>
<path d="M145.508 194.679C145.35 194.679 145.193 194.603 145.097 194.462C144.943 194.233 145.003 193.926 145.23 193.771L190.08 163.454C190.307 163.297 190.616 163.358 190.771 163.585C190.925 163.812 190.865 164.121 190.638 164.275L145.786 194.593C145.702 194.651 145.604 194.679 145.508 194.679Z" fill="#0F0202"/>
<path d="M163.879 195.837C163.719 195.837 163.564 195.761 163.468 195.62C163.314 195.393 163.375 195.084 163.601 194.929C170.978 189.941 178.604 185.103 186.268 180.547C186.503 180.406 186.808 180.485 186.949 180.719C187.09 180.954 187.012 181.259 186.777 181.402C179.13 185.946 171.52 190.776 164.159 195.751C164.073 195.811 163.975 195.837 163.879 195.837Z" fill="#0F0202"/>
<path d="M181.6 196.481C181.432 196.481 181.268 196.395 181.174 196.238C181.033 196.003 181.111 195.698 181.346 195.557L187.96 191.61C188.193 191.471 188.5 191.545 188.641 191.784C188.781 192.018 188.703 192.322 188.468 192.464L181.854 196.412C181.774 196.457 181.688 196.481 181.6 196.481Z" fill="#0F0202"/>
<g opacity="0.1294">
<path d="M189.305 195.16C189.389 197.494 188.501 200.027 189.428 202.238C189.614 202.779 189.919 203.249 190.297 203.648C192.21 203.449 194.127 203.325 196.048 203.304C196.512 203.298 196.975 203.306 197.437 203.31C198.574 201.97 198.302 200.459 198.562 199.063C198.769 195.982 198.826 192.889 198.64 189.806C198.012 176.92 198.317 164.005 198.032 151.11C197.764 141.699 196.86 132.315 196.997 122.892C196.96 113.146 197.652 103.416 197.642 93.6719C197.56 86.7469 196.733 82.498 196.611 77.0833C196.619 74.8845 196.705 72.6877 196.784 70.4928C196.788 69.7318 196.475 68.9982 195.942 68.4622C194.256 66.6762 190.96 68.0084 191.042 70.4928C190.512 79.7281 190.226 88.9731 189.919 98.2181C189.264 108.285 188.585 118.359 188.525 128.451C188.478 150.692 189.984 172.922 189.305 195.16Z" fill="#0F0202"/>
</g>
<path d="M191.557 203.701C170.021 203.701 150.259 203.366 131.335 202.686C130.541 202.658 129.907 202.007 129.899 201.213C129.424 158.104 128.931 113.545 129.543 70.1721C119.471 69.3857 109.32 69.8219 99.3472 71.4749C98.7134 71.5825 98.0756 71.2655 97.7783 70.6885C97.4829 70.1133 97.5904 69.4111 98.0502 68.9533C120.453 46.5449 143.618 23.3717 167.744 1.13546C168.325 0.599458 169.225 0.609237 169.792 1.1648C191.354 22.1197 211.669 44.5516 230.171 67.8324C230.534 68.2902 230.597 68.9181 230.331 69.4365C230.067 69.9569 229.537 70.2679 228.938 70.2484C216.524 69.6987 206.536 69.4776 196.792 69.5559C197.836 112.6 198.912 157.084 199.947 202.163C199.955 202.562 199.802 202.95 199.525 203.237C199.247 203.525 198.863 203.685 198.462 203.687C196.14 203.697 193.838 203.701 191.557 203.701ZM132.865 199.759C152.887 200.46 173.881 200.761 196.933 200.714C195.898 155.625 194.818 111.147 193.775 68.1161C193.768 67.717 193.916 67.3336 194.194 67.0441C194.472 66.7585 194.851 66.5941 195.25 66.5902C204.656 66.4904 214.192 66.6587 225.796 67.1321C208.216 45.2245 189.034 24.0975 168.726 4.28302C146.155 25.1323 124.41 46.8032 103.342 67.8755C112.569 66.6783 121.914 66.4924 131.184 67.3199C131.959 67.3884 132.554 68.0456 132.542 68.8262C131.906 112.123 132.386 156.65 132.865 199.759Z" fill="#0F0202"/>
<path d="M87.2611 64.7592C86.9266 64.7592 86.5901 64.6457 86.3124 64.4169C85.6785 63.8906 85.5885 62.9536 86.1127 62.3198L124.308 16.1239C124.832 15.4901 125.769 15.4001 126.407 15.9244C127.041 16.4506 127.129 17.3876 126.606 18.0214L88.4114 64.2173C88.116 64.5734 87.6895 64.7592 87.2611 64.7592Z" fill="#0F0202"/>
<path d="M72.296 57.662C71.9752 57.662 71.6525 57.5584 71.3806 57.3471C70.7311 56.8405 70.6157 55.9054 71.1223 55.2559L89.2369 32.0474C89.7435 31.398 90.6785 31.2826 91.328 31.7892C91.9774 32.2959 92.0929 33.2309 91.5862 33.8804L73.4736 57.0889C73.1763 57.4645 72.7381 57.662 72.296 57.662Z" fill="#0F0202"/>
<path d="M249.012 201.215L250.34 113.604L228.895 112.774L282.593 57.7462L330.637 112.608L309.69 113.105L307.198 201.547L249.012 201.215Z" fill="white"/>
<g opacity="0.1294">
<path d="M310.097 132.847C310.097 132.777 310.097 132.708 310.097 132.638C310.036 126.924 309.764 121.21 309.533 115.499C309.494 114.555 310.034 113.976 310.719 113.753C310.715 113.305 310.703 112.859 310.701 112.409C310.701 112.145 310.76 111.922 310.858 111.73C310.78 111.569 310.696 111.413 310.584 111.266C310.476 111.264 310.371 111.26 310.263 111.264C309.768 111.284 309.803 111.286 309.293 111.417C309.172 111.448 309.05 111.481 308.931 111.519C309.042 111.464 309.05 111.458 308.956 111.503C308.798 111.569 308.643 111.644 308.487 111.712C308.066 111.892 307.646 112.064 307.209 112.203C307.165 112.217 307.118 112.225 307.073 112.238C306.276 112.99 305.588 113.819 304.993 114.709C303.956 122.137 302.953 134.087 301.814 146.038C301.081 150.844 300.95 153.063 300.429 160.958C299.535 170.183 299.023 179.448 299.31 188.716C299.434 190.923 299.439 193.13 299.393 195.338C299.269 195.62 299.169 195.908 299.095 196.205C299.011 196.412 298.933 196.625 298.882 196.848C297.346 202.815 304.365 206.473 308.37 202.768C308.293 201.504 308.223 200.239 308.137 198.977C307.904 195.604 307.656 192.236 307.401 188.867C307.331 187.938 308.156 187.146 309.031 187.015C308.933 182.325 309.101 177.637 309.035 172.949C308.937 167.108 308.667 161.255 309.224 155.43C309.512 152.462 309.265 149.494 309.252 146.521C309.514 141.961 309.798 137.405 310.097 132.847Z" fill="#0F0202"/>
</g>
<path d="M307.167 203.947C307.158 203.947 307.146 203.947 307.136 203.947C298.513 203.767 288.153 203.576 277.793 203.378C267.427 203.183 257.061 202.989 248.434 202.811C248.037 202.803 247.658 202.635 247.384 202.347C247.108 202.058 246.963 201.67 246.977 201.273C247.996 170.842 248.487 142.423 248.473 114.451C248.45 114.451 248.426 114.451 248.401 114.451C241.085 114.451 234.477 114.099 228.244 113.381C227.675 113.316 227.194 112.929 227.006 112.387C226.818 111.847 226.959 111.245 227.366 110.842C245.179 93.1946 263.601 74.9472 281.635 56.3182C281.928 56.015 282.337 55.8311 282.76 55.8663C283.182 55.8819 283.578 56.0736 283.849 56.3984C290.072 63.83 297.197 71.9365 304.742 80.5204C313.627 90.6301 322.811 101.082 332.252 112.356C332.627 112.804 332.706 113.436 332.45 113.962C332.199 114.476 331.679 114.803 331.11 114.803C331.094 114.803 331.078 114.803 331.064 114.801C328.717 114.729 325.996 114.676 323.251 114.619C318.355 114.519 313.316 114.418 310.207 114.214C308.922 142.695 308.66 169.178 308.66 202.455C308.66 202.856 308.498 203.237 308.212 203.519C307.93 203.795 307.557 203.947 307.167 203.947ZM250.003 199.863C258.315 200.033 268.082 200.217 277.848 200.399C287.607 200.583 297.369 200.767 305.677 200.935C305.685 167.728 305.968 141.224 307.299 112.532C307.316 112.121 307.504 111.738 307.817 111.47C308.13 111.202 308.539 111.076 308.948 111.119C311.545 111.403 317.526 111.522 323.31 111.64C324.848 111.671 326.377 111.702 327.839 111.736C319.167 101.448 310.706 91.8214 302.504 82.4883C295.371 74.3759 288.615 66.688 282.629 59.5772C265.694 77.0403 248.446 94.1532 231.699 110.746C237.35 111.274 243.358 111.507 249.952 111.464C249.952 111.464 249.958 111.464 249.962 111.464C250.355 111.464 250.733 111.618 251.012 111.898C251.294 112.178 251.453 112.557 251.453 112.952C251.482 140.979 251.009 169.424 250.003 199.863Z" fill="#0F0202"/>
<path d="M342.124 104.222C341.676 104.222 341.232 104.02 340.938 103.635L322.13 78.9633C321.631 78.3099 321.756 77.3729 322.411 76.876C323.067 76.3752 324.002 76.5024 324.499 77.1577L343.309 101.831C343.808 102.485 343.681 103.42 343.026 103.919C342.756 104.126 342.439 104.222 342.124 104.222Z" fill="#0F0202"/>
<g opacity="0.1294">
<path d="M310.097 132.847C310.097 132.777 310.097 132.708 310.097 132.638C310.036 126.924 309.764 121.21 309.533 115.499C309.494 114.555 310.034 113.976 310.719 113.753C310.715 113.305 310.703 112.859 310.701 112.409C310.701 112.145 310.76 111.922 310.858 111.73C310.78 111.569 310.696 111.413 310.584 111.266C310.476 111.264 310.371 111.26 310.263 111.264C309.768 111.284 309.803 111.286 309.293 111.417C309.172 111.448 309.05 111.481 308.931 111.519C309.042 111.464 309.05 111.458 308.956 111.503C308.798 111.569 308.643 111.644 308.487 111.712C308.066 111.892 307.646 112.064 307.209 112.203C307.165 112.217 307.118 112.225 307.073 112.238C306.276 112.99 305.588 113.819 304.993 114.709C303.956 122.137 302.953 134.087 301.814 146.038C301.081 150.844 300.95 153.063 300.429 160.958C299.535 170.183 299.023 179.448 299.31 188.716C299.434 190.923 299.439 193.13 299.393 195.338C299.269 195.62 299.169 195.908 299.095 196.205C299.011 196.412 298.933 196.625 298.882 196.848C297.346 202.815 304.365 206.473 308.37 202.768C308.293 201.504 308.223 200.239 308.137 198.977C307.904 195.604 307.656 192.236 307.401 188.867C307.331 187.938 308.156 187.146 309.031 187.015C308.933 182.325 309.101 177.637 309.035 172.949C308.937 167.108 308.667 161.255 309.224 155.43C309.512 152.462 309.265 149.494 309.252 146.521C309.514 141.961 309.798 137.405 310.097 132.847Z" fill="#0F0202"/>
</g>
<path d="M307.167 203.947C307.158 203.947 307.146 203.947 307.136 203.947C298.513 203.767 288.153 203.576 277.793 203.378C267.427 203.183 257.061 202.989 248.434 202.811C248.037 202.803 247.658 202.635 247.384 202.347C247.108 202.058 246.963 201.67 246.977 201.273C247.996 170.842 248.487 142.423 248.473 114.451C248.45 114.451 248.426 114.451 248.401 114.451C241.085 114.451 234.477 114.099 228.244 113.381C227.675 113.316 227.194 112.929 227.006 112.387C226.818 111.847 226.959 111.245 227.366 110.842C245.179 93.1946 263.601 74.9472 281.635 56.3182C281.928 56.015 282.337 55.8311 282.76 55.8663C283.182 55.8819 283.578 56.0736 283.849 56.3984C290.072 63.83 297.197 71.9365 304.742 80.5204C313.627 90.6301 322.811 101.082 332.252 112.356C332.627 112.804 332.706 113.436 332.45 113.962C332.199 114.476 331.679 114.803 331.11 114.803C331.094 114.803 331.078 114.803 331.064 114.801C328.717 114.729 325.996 114.676 323.251 114.619C318.355 114.519 313.316 114.418 310.207 114.214C308.922 142.695 308.66 169.178 308.66 202.455C308.66 202.856 308.498 203.237 308.212 203.519C307.93 203.795 307.557 203.947 307.167 203.947ZM250.003 199.863C258.315 200.033 268.082 200.217 277.848 200.399C287.607 200.583 297.369 200.767 305.677 200.935C305.685 167.728 305.968 141.224 307.299 112.532C307.316 112.121 307.504 111.738 307.817 111.47C308.13 111.202 308.539 111.076 308.948 111.119C311.545 111.403 317.526 111.522 323.31 111.64C324.848 111.671 326.377 111.702 327.839 111.736C319.167 101.448 310.706 91.8214 302.504 82.4883C295.371 74.3759 288.615 66.688 282.629 59.5772C265.694 77.0403 248.446 94.1532 231.699 110.746C237.35 111.274 243.358 111.507 249.952 111.464C249.952 111.464 249.958 111.464 249.962 111.464C250.355 111.464 250.733 111.618 251.012 111.898C251.294 112.178 251.453 112.557 251.453 112.952C251.482 140.979 251.009 169.424 250.003 199.863Z" fill="#0F0202"/>
<path d="M342.124 104.222C341.676 104.222 341.232 104.02 340.938 103.635L322.13 78.9633C321.631 78.3099 321.756 77.3729 322.411 76.876C323.067 76.3752 324.002 76.5024 324.499 77.1577L343.309 101.831C343.808 102.485 343.681 103.42 343.026 103.919C342.756 104.126 342.439 104.222 342.124 104.222Z" fill="#0F0202"/>
<path d="M30.3795 201.862C33.0263 183.941 34.5462 165.856 34.9316 146.848C25.8567 146.566 16.7662 146.842 7.72656 147.667C25.8176 133.42 42.6352 117.555 57.8956 99.9456C71.5656 116.967 85.5113 134.25 103.217 146.501C94.5118 146.646 85.8106 146.977 77.2815 147.38C77.0566 165.647 77.8509 183.926 79.4549 202.257C74.674 202.49 69.8832 202.467 65.0983 202.443C61.3092 202.425 57.5199 202.406 53.7307 202.388C46.0194 202.349 38.3002 202.308 30.3795 201.862Z" fill="#EC2227"/>
<g opacity="0.1294">
<path d="M80.0469 194.563C79.8024 190.671 79.5305 186.78 79.3779 182.879C79.1999 175.694 78.6483 168.528 78.4899 161.341C78.4468 158.512 78.4115 155.678 78.5837 152.853C78.5544 151.147 79.2449 149.281 78.5661 147.665C77.2281 144.172 71.8328 145.273 71.8758 149.013C70.7627 158.642 70.4459 159.933 69.0805 170.424C68.5738 177.869 68.8261 185.34 69.4189 192.774C70.0409 197.365 69.6986 198.589 70.4791 200.323C71.647 203.756 76.5942 204.618 79.0317 202.021C81.1444 199.996 80.534 197.142 80.0469 194.563Z" fill="#0F0202"/>
</g>
<path d="M69.4479 203.947C67.9847 203.947 66.5312 203.939 65.0894 203.932L53.7219 203.877C46.1142 203.838 38.2522 203.799 30.2924 203.349C29.8757 203.323 29.4864 203.128 29.2223 202.803C28.9583 202.478 28.8429 202.058 28.9035 201.645C31.5053 184.027 32.9802 166.558 33.4086 148.295C24.903 148.094 16.3172 148.377 7.86051 149.152C7.20714 149.205 6.58505 148.833 6.34052 148.219C6.09599 147.605 6.28383 146.904 6.80223 146.495C25.1515 132.045 41.9631 116.055 56.7677 98.9693C57.0572 98.6348 57.4974 98.4431 57.9219 98.4548C58.364 98.4626 58.7787 98.6661 59.0565 99.0104C72.4918 115.742 86.3847 133.041 104.063 145.275C104.595 145.643 104.83 146.312 104.64 146.932C104.45 147.552 103.887 147.978 103.239 147.99C95.8841 148.113 88.071 148.369 78.7535 148.802C78.5931 165.819 79.3268 183.749 80.9367 202.126C80.9739 202.529 80.8428 202.93 80.5748 203.235C80.3088 203.538 79.9293 203.724 79.5244 203.744C76.1655 203.908 72.7833 203.947 69.4479 203.947ZM32.0882 200.461C39.4201 200.825 46.6893 200.86 53.7336 200.898L65.1032 200.952C69.2797 200.974 73.5794 200.993 77.8361 200.835C76.2672 182.398 75.5805 164.416 75.7898 147.36C75.7996 146.574 76.4217 145.928 77.2101 145.891C85.2951 145.508 92.2514 145.251 98.7284 145.101C82.8987 133.223 70.1443 117.573 57.8495 102.267C44.248 117.8 29.0032 132.42 12.4654 145.793C19.9479 145.273 27.4969 145.126 34.9775 145.359C35.7932 145.384 36.4388 146.059 36.4212 146.877C36.0475 165.246 34.6293 182.791 32.0882 200.461Z" fill="#0F0202"/>
<path d="M1.49078 136.859C1.08976 136.859 0.690651 136.699 0.397219 136.382C-0.162257 135.777 -0.127 134.836 0.479424 134.277C8.2534 127.084 15.7281 119.392 22.6961 111.411C23.238 110.793 24.1769 110.726 24.7971 111.27C25.4172 111.81 25.4817 112.751 24.9399 113.371C17.9034 121.431 10.3544 129.203 2.50214 136.466C2.21653 136.73 1.85268 136.859 1.49078 136.859Z" fill="#0F0202"/>
<path d="M30.3795 201.862C33.0263 183.941 34.5462 165.856 34.9316 146.848C25.8567 146.566 16.7662 146.842 7.72656 147.667C25.8176 133.42 42.6352 117.555 57.8956 99.9456C71.5656 116.967 85.5113 134.25 103.217 146.501C94.5118 146.646 85.8106 146.977 77.2815 147.38C77.0566 165.647 77.8509 183.926 79.4549 202.257C74.674 202.49 69.8832 202.467 65.0983 202.443C61.3092 202.425 57.5199 202.406 53.7307 202.388C46.0194 202.349 38.3002 202.308 30.3795 201.862Z" fill="#EC2227"/>
<g opacity="0.1294">
<path d="M80.0469 194.563C79.8024 190.671 79.5305 186.78 79.3779 182.879C79.1999 175.694 78.6483 168.528 78.4899 161.341C78.4468 158.512 78.4115 155.678 78.5837 152.853C78.5544 151.147 79.2449 149.281 78.5661 147.665C77.2281 144.172 71.8328 145.273 71.8758 149.013C70.7627 158.642 70.4459 159.933 69.0805 170.424C68.5738 177.869 68.8261 185.34 69.4189 192.774C70.0409 197.365 69.6986 198.589 70.4791 200.323C71.647 203.756 76.5942 204.618 79.0317 202.021C81.1444 199.996 80.534 197.142 80.0469 194.563Z" fill="#0F0202"/>
</g>
<path d="M69.4479 203.947C67.9847 203.947 66.5312 203.939 65.0894 203.932L53.7219 203.877C46.1142 203.838 38.2522 203.799 30.2924 203.349C29.8757 203.323 29.4864 203.128 29.2223 202.803C28.9583 202.478 28.8429 202.058 28.9035 201.645C31.5053 184.027 32.9802 166.558 33.4086 148.295C24.903 148.094 16.3172 148.377 7.86051 149.152C7.20714 149.205 6.58505 148.833 6.34052 148.219C6.09599 147.605 6.28383 146.904 6.80223 146.495C25.1515 132.045 41.9631 116.055 56.7677 98.9693C57.0572 98.6348 57.4974 98.4431 57.9219 98.4548C58.364 98.4626 58.7787 98.6661 59.0565 99.0104C72.4918 115.742 86.3847 133.041 104.063 145.275C104.595 145.643 104.83 146.312 104.64 146.932C104.45 147.552 103.887 147.978 103.239 147.99C95.8841 148.113 88.071 148.369 78.7535 148.802C78.5931 165.819 79.3268 183.749 80.9367 202.126C80.9739 202.529 80.8428 202.93 80.5748 203.235C80.3088 203.538 79.9293 203.724 79.5244 203.744C76.1655 203.908 72.7833 203.947 69.4479 203.947ZM32.0882 200.461C39.4201 200.825 46.6893 200.86 53.7336 200.898L65.1032 200.952C69.2797 200.974 73.5794 200.993 77.8361 200.835C76.2672 182.398 75.5805 164.416 75.7898 147.36C75.7996 146.574 76.4217 145.928 77.2101 145.891C85.2951 145.508 92.2514 145.251 98.7284 145.101C82.8987 133.223 70.1443 117.573 57.8495 102.267C44.248 117.8 29.0032 132.42 12.4654 145.793C19.9479 145.273 27.4969 145.126 34.9775 145.359C35.7932 145.384 36.4388 146.059 36.4212 146.877C36.0475 165.246 34.6293 182.791 32.0882 200.461Z" fill="#0F0202"/>
<path d="M1.49078 136.859C1.08976 136.859 0.690651 136.699 0.397219 136.382C-0.162257 135.777 -0.127 134.836 0.479424 134.277C8.2534 127.084 15.7281 119.392 22.6961 111.411C23.238 110.793 24.1769 110.726 24.7971 111.27C25.4172 111.81 25.4817 112.751 24.9399 113.371C17.9034 121.431 10.3544 129.203 2.50214 136.466C2.21653 136.73 1.85268 136.859 1.49078 136.859Z" fill="#0F0202"/>
</svg>
