<svg width="245" height="229" viewBox="0 0 245 229" fill="none" xmlns="http://www.w3.org/2000/svg">
<path d="M242.492 60.401H1.5332V227.217H242.492V60.401Z" fill="white"/>
<path d="M242.492 228.75H1.53127C0.686432 228.75 0 228.064 0 227.221V60.403C0 59.5581 0.686432 58.8717 1.53127 58.8717H242.49C243.335 58.8717 244.021 59.5581 244.021 60.403V227.221C244.023 228.064 243.337 228.75 242.492 228.75ZM3.06252 225.688H240.961V61.9325H3.06252V225.688Z" fill="#0F0202"/>
<path d="M242.492 53.2954H1.5332V75.3051H242.492V53.2954Z" fill="#EC2227"/>
<path d="M242.492 76.8365H1.53127C0.686432 76.8365 0 76.15 0 75.3052V53.2955C0 52.4507 0.686432 51.7643 1.53127 51.7643H242.49C243.335 51.7643 244.021 52.4507 244.021 53.2955V75.3052C244.023 76.15 243.337 76.8365 242.492 76.8365ZM3.06252 73.7757H240.961V54.825H3.06252V73.7757Z" fill="#0F0202"/>
<path d="M209.984 117.89C209.141 117.89 208.457 117.209 208.453 116.366C208.45 115.521 209.133 114.831 209.977 114.827L224.728 114.757C224.732 114.757 224.734 114.757 224.737 114.757C225.58 114.757 226.265 115.438 226.269 116.281C226.272 117.126 225.591 117.816 224.746 117.82L209.993 117.89C209.99 117.89 209.984 117.89 209.984 117.89Z" fill="#0F0202"/>
<path d="M40.8733 118.17C34.6409 118.17 28.2852 118.133 21.8751 118.056C21.0285 118.045 20.3526 117.352 20.3614 116.507C20.372 115.662 21.0478 114.946 21.9103 114.993C32.3721 115.118 42.6809 115.143 52.5531 115.062C52.5566 115.062 52.5601 115.062 52.5654 115.062C53.4067 115.062 54.0896 115.739 54.0967 116.581C54.1037 117.426 53.4243 118.117 52.5777 118.124C48.739 118.156 44.8299 118.17 40.8733 118.17Z" fill="#0F0202"/>
<path d="M192.623 153.409C191.778 153.409 191.094 152.724 191.092 151.879C191.09 151.034 191.776 150.348 192.621 150.348L224.736 150.321C225.58 150.321 226.267 151.006 226.269 151.851C226.27 152.696 225.586 153.382 224.739 153.382L192.623 153.409Z" fill="#0F0202"/>
<path d="M131.788 188.928C130.943 188.928 130.25 188.242 130.25 187.397C130.25 186.552 130.929 185.866 131.776 185.866L223.051 185.839C223.896 185.839 224.583 186.524 224.583 187.369C224.583 188.215 223.898 188.902 223.051 188.902L131.788 188.928Z" fill="#0F0202"/>
<path d="M53.1321 153.461C42.8814 153.461 32.4354 153.435 21.8856 153.382C21.0407 153.379 20.3578 152.689 20.3613 151.844C20.3649 151.001 21.0513 150.321 21.8926 150.321H21.8996C40.2149 150.413 58.2222 150.425 75.4198 150.356H75.4251C76.2682 150.356 76.9529 151.039 76.9564 151.882C76.9581 152.727 76.277 153.416 75.4304 153.419C68.1314 153.447 60.6845 153.461 53.1321 153.461Z" fill="#0F0202"/>
<g opacity="0.1294">
<path d="M242.492 77.0198H1.5332V84.1657H242.492V77.0198Z" fill="#0F0202"/>
</g>
<path d="M131.776 158.858C168.328 158.858 197.96 129.226 197.96 92.6738C197.96 56.1214 168.328 26.4899 131.776 26.4899C95.2234 26.4899 65.5918 56.1214 65.5918 92.6738C65.5918 129.226 95.2234 158.858 131.776 158.858Z" fill="white"/>
<path d="M131.774 160.391C94.4356 160.391 64.0586 130.014 64.0586 92.6739C64.0586 55.3358 94.4356 24.9587 131.774 24.9587C169.114 24.9587 199.491 55.3358 199.491 92.6739C199.491 130.014 169.114 160.391 131.774 160.391ZM131.774 28.0213C96.1235 28.0213 67.1211 57.0255 67.1211 92.6739C67.1211 128.326 96.1253 157.327 131.774 157.327C167.424 157.327 196.428 128.324 196.428 92.6739C196.428 57.0237 167.426 28.0213 131.774 28.0213Z" fill="#0F0202"/>
<path d="M131.777 131.92C154.015 131.92 172.044 113.891 172.044 91.6526C172.044 69.4138 154.015 51.3857 131.777 51.3857C109.538 51.3857 91.5098 69.4138 91.5098 91.6526C91.5098 113.891 109.538 131.92 131.777 131.92Z" fill="white"/>
<path d="M131.776 133.451C108.728 133.451 89.9766 114.701 89.9766 91.6527C89.9766 68.6046 108.728 49.8546 131.776 49.8546C154.825 49.8546 173.575 68.6046 173.575 91.6527C173.575 114.701 154.825 133.451 131.776 133.451ZM131.776 52.9171C110.418 52.9171 93.0408 70.2943 93.0408 91.6527C93.0408 113.013 110.418 130.39 131.776 130.39C153.135 130.39 170.512 113.013 170.512 91.6527C170.514 70.2943 153.137 52.9171 131.776 52.9171Z" fill="#0F0202"/>
<path d="M131.773 105.649C139.503 105.649 145.769 99.3825 145.769 91.6527C145.769 83.9229 139.503 77.6566 131.773 77.6566C124.044 77.6566 117.777 83.9229 117.777 91.6527C117.777 99.3825 124.044 105.649 131.773 105.649Z" fill="white"/>
<path d="M131.775 107.18C123.214 107.18 116.248 100.214 116.248 91.6526C116.248 83.0917 123.214 76.1271 131.775 76.1271C140.336 76.1271 147.303 83.0917 147.303 91.6526C147.303 100.214 140.338 107.18 131.775 107.18ZM131.775 79.1878C124.902 79.1878 119.311 84.7813 119.311 91.6526C119.311 98.5257 124.902 104.117 131.775 104.117C138.648 104.117 144.24 98.5257 144.24 91.6526C144.24 84.7813 138.648 79.1878 131.775 79.1878Z" fill="#0F0202"/>
<path d="M131.776 93.1838C131.385 93.1838 130.996 93.036 130.697 92.7403C130.097 92.1437 130.093 91.1739 130.688 90.5754L211.121 9.48374C211.718 8.88356 212.686 8.8783 213.288 9.47496C213.888 10.0699 213.892 11.0397 213.297 11.6398L132.863 92.7315C132.564 93.0325 132.17 93.1838 131.776 93.1838Z" fill="#0F0202"/>
<path d="M183.217 39.8785L204.61 18.4866L221.197 23.0522L199.804 44.4476L183.217 39.8785Z" fill="white"/>
<path d="M199.805 45.9773C199.67 45.9773 199.533 45.9597 199.399 45.9227L182.812 41.3553C182.287 41.211 181.879 40.7992 181.738 40.2711C181.599 39.7449 181.751 39.1834 182.136 38.798L203.53 17.4043C203.919 17.0136 204.485 16.864 205.019 17.0101L221.606 21.5774C222.13 21.7218 222.54 22.1336 222.679 22.6616C222.82 23.1897 222.667 23.7494 222.281 24.1366L200.888 45.5285C200.596 45.8206 200.205 45.9773 199.805 45.9773ZM186.161 39.1025L199.353 42.7335L218.256 23.8303L205.064 20.1993L186.161 39.1025Z" fill="#0F0202"/>
<path d="M199.923 1.77856L178.529 23.174L183.097 39.7591L204.49 18.3655L199.923 1.77856Z" fill="white"/>
<path d="M183.097 41.2902C182.967 41.2902 182.835 41.2726 182.706 41.241C182.178 41.1001 181.765 40.6918 181.62 40.1673L177.051 23.5804C176.905 23.0489 177.055 22.4821 177.445 22.0914L198.839 0.697766C199.224 0.312311 199.791 0.162709 200.312 0.299994C200.838 0.43904 201.254 0.849125 201.398 1.37187L205.966 17.9588C206.112 18.4903 205.962 19.0588 205.571 19.4478L184.178 40.8414C183.889 41.1336 183.498 41.2902 183.097 41.2902ZM180.24 23.6262L183.873 36.8162L202.776 17.913L199.143 4.72302L180.24 23.6262Z" fill="#0F0202"/>
<path d="M96.2891 92.1635C96.1571 92.1635 96.0251 92.1142 95.9248 92.0122C95.7259 91.8115 95.7294 91.4894 95.9283 91.2905L131.276 56.3619C131.476 56.1631 131.798 56.1648 131.997 56.3655C132.196 56.5661 132.195 56.8882 131.994 57.0871L96.6446 92.0157C96.5478 92.116 96.4176 92.1635 96.2891 92.1635Z" fill="#0F0202"/>
<path d="M98.2541 79.6511C98.1239 79.6511 97.9936 79.6019 97.8933 79.5016C97.6944 79.3027 97.6944 78.9788 97.8933 78.7799L119.547 57.124C119.746 56.9251 120.07 56.9251 120.269 57.124C120.468 57.3229 120.468 57.6468 120.269 57.8457L98.6149 79.5016C98.5164 79.6001 98.3861 79.6511 98.2541 79.6511Z" fill="#0F0202"/>
<path d="M98.2548 101.86C98.1245 101.86 97.9961 101.81 97.8957 101.712C97.6951 101.515 97.6933 101.191 97.8922 100.99L140.662 57.6678C140.859 57.469 141.181 57.4672 141.384 57.6643C141.586 57.8615 141.586 58.1853 141.387 58.386L98.6174 101.707C98.5188 101.809 98.3868 101.86 98.2548 101.86Z" fill="#0F0202"/>
<path d="M137.031 74.7C136.903 74.7 136.774 74.6525 136.676 74.5557C136.473 74.3585 136.47 74.0347 136.667 73.834L149.556 60.5877C149.753 60.3871 150.077 60.3836 150.278 60.5772C150.48 60.7743 150.483 61.0982 150.288 61.2988L137.397 74.5451C137.299 74.649 137.165 74.7 137.031 74.7Z" fill="#0F0202"/>
<path d="M101.758 109.62C101.626 109.62 101.492 109.569 101.392 109.467C101.195 109.264 101.198 108.94 101.399 108.745L113.608 96.824C113.813 96.6269 114.135 96.6339 114.33 96.8328C114.527 97.0334 114.524 97.3573 114.323 97.5544L102.113 109.474C102.015 109.572 101.886 109.62 101.758 109.62Z" fill="#0F0202"/>
<path d="M121.921 125.906C121.796 125.906 121.671 125.862 121.574 125.77C121.367 125.58 121.354 125.256 121.548 125.05L136.658 108.762C136.85 108.557 137.174 108.544 137.38 108.736C137.587 108.926 137.6 109.25 137.406 109.456L122.296 125.742C122.195 125.853 122.058 125.906 121.921 125.906Z" fill="#0F0202"/>
<path d="M107.284 116.815C107.154 116.815 107.026 116.767 106.925 116.669C106.725 116.472 106.723 116.148 106.92 115.947L117.417 105.292C117.614 105.089 117.94 105.088 118.139 105.285C118.339 105.484 118.343 105.808 118.144 106.006L107.647 116.664C107.548 116.766 107.416 116.815 107.284 116.815Z" fill="#0F0202"/>
<path d="M113.953 121.954C113.823 121.954 113.693 121.905 113.593 121.805C113.394 121.606 113.394 121.282 113.593 121.083L125.503 109.173C125.702 108.974 126.026 108.974 126.225 109.173C126.423 109.371 126.423 109.695 126.225 109.892L114.314 121.805C114.216 121.903 114.085 121.954 113.953 121.954Z" fill="#0F0202"/>
<path d="M148.836 84.8906C148.711 84.8906 148.584 84.8448 148.486 84.7515C148.28 84.5596 148.269 84.2358 148.463 84.0316C152.37 79.8814 156.429 75.7734 160.53 71.8255C160.734 71.6337 161.054 71.639 161.252 71.8396C161.447 72.0438 161.44 72.3677 161.237 72.5613C157.147 76.4968 153.101 80.5925 149.206 84.7304C149.107 84.8378 148.972 84.8906 148.836 84.8906Z" fill="#0F0202"/>
<path d="M150.556 94.9795C150.428 94.9795 150.3 94.9302 150.199 94.8334C149.997 94.6363 149.993 94.3124 150.19 94.1118L164.313 79.6739C164.51 79.4732 164.832 79.4715 165.035 79.6669C165.235 79.864 165.241 80.1861 165.042 80.3885L150.919 94.8246C150.822 94.9267 150.688 94.9795 150.556 94.9795Z" fill="#0F0202"/>
<path d="M130.382 127.724C130.255 127.724 130.13 127.678 130.033 127.585C129.826 127.393 129.817 127.069 130.01 126.865C142.51 113.538 153.998 101.608 166.166 89.3296C166.365 89.1307 166.688 89.1254 166.887 89.3243C167.088 89.5232 167.09 89.847 166.891 90.0459C154.729 102.321 143.246 114.242 130.753 127.562C130.653 127.669 130.517 127.724 130.382 127.724Z" fill="#0F0202"/>
<path d="M142.664 125.905C142.532 125.905 142.4 125.856 142.3 125.752C142.103 125.552 142.106 125.228 142.307 125.031C144.099 123.276 148.777 118.367 153.302 113.622C157.833 108.868 162.518 103.952 164.322 102.185C164.524 101.991 164.846 101.993 165.044 102.194C165.241 102.394 165.237 102.718 165.037 102.915C163.247 104.67 158.567 109.579 154.041 114.326C149.511 119.078 144.826 123.994 143.022 125.761C142.923 125.858 142.793 125.905 142.664 125.905Z" fill="#0F0202"/>
<g opacity="0.1294">
<path d="M187.313 127.942C185.935 128.296 185.382 129.519 184.886 130.718C184.277 132.022 183.52 133.252 182.628 134.384C179.891 137.423 173.811 146.481 166.66 150.224C160.194 154.232 156.299 155.95 151.233 157.802C145.212 159.769 144.05 160.012 139.052 160.239C135.174 160.38 131.286 160.433 127.414 160.185C127.382 159.234 126.913 158.298 126.04 157.802C121.954 156.643 118.684 156.913 115.391 156.054C112.35 155.267 109.292 154.552 106.235 153.833C105.491 153.627 104.669 153.734 104.003 154.125L103.996 154.13C102.666 153.283 101.319 152.4 99.9483 151.46C93.5891 146.842 90.0584 145.015 84.9401 139.465C84.4473 139.015 83.173 137.073 81.9269 134.882C80.4766 133.636 79.0844 132.319 77.7802 130.92C76.6009 129.654 75.5044 128.317 74.4519 126.948C74.2407 127.101 74.0541 127.287 73.8887 127.491C74.3199 128.994 74.811 130.489 75.4217 131.971C77.0674 135.968 79.2111 139.775 81.677 143.32C84.6392 147.579 88.1822 151.358 91.9892 154.862C92.1441 154.954 92.2937 155.052 92.4486 155.14C96.0497 157.383 99.5223 159.843 103.428 161.543C105.033 162.332 106.654 163.103 108.3 163.816C114.633 166.114 121.194 167.739 127.861 168.702C129.873 168.992 131.881 169.189 133.891 169.339C139.944 168.568 145.962 167.211 151.786 165.544C158.835 163.527 165.634 160.308 171.125 155.39C176.775 150.334 181.096 144.08 184.738 137.474C186.419 134.428 187.918 131.295 189.376 128.144C188.737 127.842 188.005 127.74 187.313 127.942Z" fill="#0F0202"/>
</g>
<g opacity="0.1294">
<path d="M203.234 19.5497C198.938 23.1773 195.009 27.2078 190.857 30.9919C189.729 32.0005 188.552 32.9527 187.408 33.9436C186.77 34.5332 185.915 35.0084 185.654 35.8867C184.236 38.8859 188.377 41.6421 190.66 39.259C194.821 35.7723 198.639 31.9195 202.541 28.1512C203.966 26.7942 205.387 25.4336 206.872 24.1453C207.434 23.6208 208.182 23.2072 208.398 22.4222C209.748 19.159 205.441 16.8586 203.234 19.5497Z" fill="#0F0202"/>
</g>
<path d="M97.1373 205.449H21.8926C21.0477 205.449 20.3613 204.762 20.3613 203.917V177.773C20.3613 176.928 21.0477 176.242 21.8926 176.242H97.1356C97.9804 176.242 98.6668 176.928 98.6668 177.773V203.917C98.6686 204.764 97.9822 205.449 97.1373 205.449ZM23.4238 202.386H95.6061V179.305H23.4238V202.386Z" fill="#0F0202"/>
</svg>
