<svg width="244" height="203" viewBox="0 0 244 203" fill="none" xmlns="http://www.w3.org/2000/svg">
<path d="M193.617 45.7317H1.34375V200.682H193.617V45.7317Z" fill="white"/>
<path d="M193.617 202.025H1.3435C0.602262 202.025 0 201.423 0 200.682V45.7317C0 44.9905 0.602262 44.3882 1.3435 44.3882H193.617C194.358 44.3882 194.96 44.9905 194.96 45.7317V200.682C194.96 201.423 194.358 202.025 193.617 202.025ZM2.68699 199.338H192.273V47.0752H2.68699V199.338Z" fill="#0F0202"/>
<path d="M193.617 29.6173H1.34375V55.5916H193.617V29.6173Z" fill="#EC2227"/>
<path d="M193.617 56.9365H1.3435C0.602262 56.9365 0 56.3343 0 55.593V29.6188C0 28.8775 0.602262 28.2753 1.3435 28.2753H193.617C194.358 28.2753 194.96 28.8775 194.96 29.6188V55.593C194.96 56.3343 194.358 56.9365 193.617 56.9365ZM2.68699 54.2495H192.273V30.9622H2.68699V54.2495Z" fill="#0F0202"/>
<path d="M88.8756 95.3344H64.4688V178.841H88.8756V95.3344Z" fill="white"/>
<path d="M88.8773 180.183H64.4705C63.7292 180.183 63.127 179.581 63.127 178.84V95.3343C63.127 94.5931 63.7292 93.9908 64.4705 93.9908H88.8773C89.6185 93.9908 90.2208 94.5931 90.2208 95.3343V178.84C90.2208 179.582 89.6185 180.183 88.8773 180.183ZM65.814 177.498H87.5338V96.6778H65.814V177.498Z" fill="#0F0202"/>
<path d="M128.534 124.25H104.127V178.843H128.534V124.25Z" fill="#EC2227"/>
<path d="M128.532 180.183H104.127C103.385 180.183 102.783 179.581 102.783 178.84V124.249C102.783 123.508 103.385 122.905 104.127 122.905H128.532C129.273 122.905 129.876 123.508 129.876 124.249V178.84C129.876 179.582 129.273 180.183 128.532 180.183ZM105.469 177.498H127.187V125.594H105.469V177.498Z" fill="#0F0202"/>
<path d="M49.2174 115.091H24.8105V178.841H49.2174V115.091Z" fill="white"/>
<path d="M49.2172 180.183H24.8103C24.0691 180.183 23.4668 179.581 23.4668 178.839V115.091C23.4668 114.35 24.0691 113.748 24.8103 113.748H49.2172C49.9584 113.748 50.5607 114.35 50.5607 115.091V178.839C50.5591 179.582 49.9584 180.183 49.2172 180.183ZM26.1538 177.498H47.8721V116.435H26.1538V177.498Z" fill="#0F0202"/>
<path d="M32.4747 176.111C32.396 176.111 32.3172 176.091 32.2462 176.049C30.6757 175.113 29.1623 174.099 27.7493 173.032C27.5517 172.882 27.5115 172.602 27.6598 172.405C27.8096 172.205 28.0906 172.17 28.2867 172.317C29.675 173.364 31.1621 174.361 32.7033 175.279C32.9164 175.405 32.9859 175.68 32.8593 175.892C32.7759 176.034 32.6276 176.111 32.4747 176.111Z" fill="#0F0202"/>
<path d="M40.5252 175.981C40.4371 175.981 40.3507 175.956 40.2719 175.904L27.9333 167.48C27.7295 167.341 27.677 167.062 27.816 166.858C27.9565 166.654 28.2345 166.605 28.4383 166.742L40.7769 175.164C40.9807 175.305 41.0332 175.583 40.8942 175.787C40.8093 175.913 40.6688 175.981 40.5252 175.981Z" fill="#0F0202"/>
<path d="M45.6073 172.293C45.5255 172.293 45.4452 172.27 45.3695 172.225L27.955 161.379C27.745 161.247 27.6817 160.969 27.8114 160.761C27.9427 160.551 28.2191 160.489 28.4291 160.617L45.8436 171.464C46.0536 171.595 46.1169 171.873 45.9872 172.082C45.9038 172.218 45.7571 172.293 45.6073 172.293Z" fill="#0F0202"/>
<path d="M45.833 165.789C45.762 165.789 45.6879 165.771 45.6214 165.735C39.5834 162.483 33.6427 158.982 27.9599 155.329C27.7514 155.196 27.6912 154.918 27.8255 154.711C27.9583 154.502 28.2363 154.442 28.4448 154.576C34.1075 158.216 40.0282 161.706 46.0461 164.948C46.2639 165.065 46.3442 165.337 46.2283 165.556C46.1465 165.703 45.9936 165.789 45.833 165.789Z" fill="#0F0202"/>
<path d="M45.6015 159.059C45.5258 159.059 45.4517 159.041 45.3807 159.002C39.5141 155.69 33.6614 152.22 27.9863 148.687C27.7762 148.555 27.7129 148.279 27.8426 148.07C27.9739 147.859 28.2503 147.797 28.4603 147.925C34.1231 151.452 39.965 154.916 45.8208 158.221C46.037 158.343 46.1127 158.616 45.9907 158.832C45.9088 158.977 45.7575 159.059 45.6015 159.059Z" fill="#0F0202"/>
<path d="M45.501 152.292C45.4253 152.292 45.3481 152.272 45.2771 152.232L27.7328 142.162C27.5182 142.04 27.4441 141.765 27.5676 141.55C27.6911 141.334 27.966 141.26 28.1791 141.385L45.7233 151.455C45.938 151.579 46.0121 151.852 45.8886 152.067C45.8067 152.21 45.6569 152.292 45.501 152.292Z" fill="#0F0202"/>
<path d="M45.5744 146.023C45.5018 146.023 45.4292 146.004 45.3597 145.969C39.4036 142.746 33.4922 139.335 27.7893 135.828C27.5792 135.698 27.5128 135.421 27.6426 135.211C27.7723 135.001 28.0502 134.935 28.2572 135.065C33.9462 138.564 39.8437 141.967 45.7859 145.183C46.0021 145.3 46.084 145.572 45.9666 145.79C45.8879 145.939 45.7319 146.023 45.5744 146.023Z" fill="#0F0202"/>
<path d="M45.0441 138.68C44.9653 138.68 44.8881 138.66 44.8171 138.618L28.1531 128.832C27.94 128.707 27.8674 128.43 27.994 128.22C28.1191 128.004 28.3955 127.936 28.6056 128.06L45.2696 137.847C45.4827 137.971 45.5552 138.246 45.4286 138.459C45.3468 138.602 45.197 138.68 45.0441 138.68Z" fill="#0F0202"/>
<path d="M44.9729 132.114C44.8973 132.114 44.8216 132.094 44.7506 132.053C39.2021 128.872 33.6397 125.561 28.2178 122.207C28.0078 122.078 27.943 121.801 28.0727 121.593C28.2024 121.381 28.4773 121.318 28.6888 121.448C34.103 124.794 39.6561 128.103 45.1953 131.277C45.41 131.399 45.4841 131.674 45.3605 131.888C45.2802 132.033 45.1289 132.114 44.9729 132.114Z" fill="#0F0202"/>
<path d="M45.575 126.043C45.4932 126.043 45.4129 126.02 45.3387 125.975L34.1198 119.017C33.9097 118.886 33.8449 118.609 33.9761 118.401C34.1074 118.189 34.3838 118.127 34.5923 118.256L45.8113 125.216C46.0213 125.345 46.0861 125.622 45.9549 125.832C45.8715 125.968 45.7248 126.043 45.575 126.043Z" fill="#0F0202"/>
<path d="M45.5603 120.217C45.4753 120.217 45.3919 120.192 45.3147 120.144L42.4393 118.266C42.2324 118.13 42.1737 117.852 42.3096 117.645C42.4455 117.439 42.725 117.381 42.9289 117.516L45.8058 119.394C46.0127 119.529 46.0699 119.807 45.9355 120.013C45.849 120.146 45.7054 120.217 45.5603 120.217Z" fill="#0F0202"/>
<path d="M182.012 104.372C191.391 113.6 200.773 122.828 210.154 132.057C215.108 136.931 220.074 141.815 225.473 146.045C228.386 148.326 231.625 150.481 235.168 150.483C238.71 150.484 242.474 147.496 242.447 143.494C242.426 140.373 240.27 137.862 238.25 135.731C223.314 119.979 207.705 105.043 191.492 90.9922C188.519 95.3439 185.548 99.6971 182.012 104.372Z" fill="white"/>
<path d="M235.168 151.825C235.168 151.825 235.166 151.825 235.164 151.825C231.214 151.822 227.772 149.552 224.643 147.099C219.177 142.819 214.11 137.834 209.21 133.013L181.069 105.327C180.588 104.853 180.534 104.097 180.94 103.558C184.453 98.9141 187.463 94.5069 190.373 90.2416C190.59 89.9251 190.934 89.7104 191.314 89.661C191.692 89.6131 192.08 89.7228 192.37 89.9729C208.551 103.995 224.316 119.077 239.224 134.801C241.42 137.117 243.766 139.889 243.791 143.481C243.805 145.569 242.955 147.581 241.397 149.147C239.731 150.826 237.404 151.825 235.168 151.825ZM183.79 104.237L211.093 131.099C215.94 135.868 220.953 140.797 226.299 144.987C229.051 147.143 232.03 149.136 235.166 149.138C236.701 149.138 238.319 148.435 239.488 147.257C240.537 146.201 241.11 144.868 241.101 143.5C241.082 140.888 239.2 138.685 237.271 136.651C222.772 121.36 207.462 106.677 191.746 92.9935C189.274 96.6147 186.706 100.338 183.79 104.237Z" fill="#0F0202"/>
<path d="M145.401 2.31982C113.092 2.31982 86.9004 28.5103 86.9004 60.8206C86.9004 93.1294 113.092 119.32 145.401 119.32C177.71 119.32 203.902 93.1294 203.902 60.8206C203.902 28.5103 177.71 2.31982 145.401 2.31982ZM145.401 105.25C120.863 105.25 100.97 85.3572 100.97 60.8206C100.97 36.281 120.863 16.3895 145.401 16.3895C169.941 16.3895 189.832 36.2825 189.832 60.8206C189.832 85.3572 169.941 105.25 145.401 105.25ZM145.401 105.25C120.863 105.25 100.97 85.3572 100.97 60.8206C100.97 36.281 120.863 16.3895 145.401 16.3895C169.941 16.3895 189.832 36.2825 189.832 60.8206C189.832 85.3572 169.941 105.25 145.401 105.25Z" fill="white"/>
<path d="M145.401 120.662C112.403 120.662 85.5566 93.8151 85.5566 60.8176C85.5566 27.8201 112.403 0.974854 145.401 0.974854C178.398 0.974854 205.245 27.8201 205.245 60.8176C205.245 93.8151 178.398 120.662 145.401 120.662ZM145.401 3.66339C113.884 3.66339 88.2436 29.3041 88.2436 60.8191C88.2436 92.3357 113.884 117.976 145.401 117.976C176.918 117.976 202.558 92.3357 202.558 60.8191C202.558 29.3026 176.918 3.66339 145.401 3.66339ZM145.401 106.594C120.16 106.594 99.6263 86.0583 99.6263 60.8176C99.6263 35.5768 120.16 15.043 145.401 15.043C170.642 15.043 191.176 35.5768 191.176 60.8176C191.176 86.0583 170.642 106.594 145.401 106.594ZM102.313 60.8191C102.313 84.579 121.643 103.907 145.401 103.907C169.159 103.907 188.489 84.5774 188.489 60.8191C188.489 37.0609 169.159 17.733 145.401 17.733C121.643 17.733 102.313 37.0609 102.313 60.8191Z" fill="#0F0202"/>
<path d="M189.552 106.047C189.512 106.047 189.47 106.042 189.428 106.03C189.19 105.962 189.053 105.715 189.121 105.477L190.151 101.874C190.217 101.64 190.463 101.496 190.704 101.569C190.94 101.635 191.079 101.884 191.011 102.122L189.981 105.723C189.925 105.919 189.746 106.047 189.552 106.047Z" fill="#0F0202"/>
<path d="M194.474 112.355C194.454 112.355 194.434 112.355 194.415 112.352C194.17 112.32 193.997 112.096 194.029 111.85C194.579 107.647 195.242 103.394 196.001 99.2106C196.045 98.9666 196.284 98.8091 196.522 98.8508C196.766 98.8956 196.926 99.1288 196.882 99.3728C196.125 103.541 195.464 107.777 194.917 111.966C194.886 112.19 194.695 112.355 194.474 112.355Z" fill="#0F0202"/>
<path d="M200.866 118.477C200.619 118.477 200.418 118.276 200.418 118.029C200.418 115.923 200.741 112.388 201.028 109.27C201.202 107.371 201.354 105.728 201.405 104.694C201.417 104.449 201.612 104.251 201.874 104.271C202.121 104.284 202.311 104.494 202.299 104.742C202.246 105.792 202.095 107.443 201.919 109.352C201.635 112.451 201.312 115.963 201.312 118.029C201.314 118.278 201.114 118.477 200.866 118.477Z" fill="#0F0202"/>
<path d="M207.408 124.51C207.165 124.51 206.964 124.316 206.96 124.073L206.623 109.131C206.618 108.884 206.813 108.679 207.06 108.672C207.337 108.675 207.513 108.864 207.517 109.109L207.855 124.052C207.86 124.299 207.664 124.504 207.418 124.51C207.414 124.51 207.411 124.51 207.408 124.51Z" fill="#0F0202"/>
<path d="M213.633 131.118C213.394 131.118 213.194 130.928 213.185 130.687L212.6 115.039C212.592 114.794 212.784 114.585 213.031 114.576C213.293 114.579 213.485 114.76 213.496 115.005L214.081 130.653C214.09 130.9 213.897 131.109 213.65 131.118C213.644 131.118 213.638 131.118 213.633 131.118Z" fill="#0F0202"/>
<path d="M219.968 136.688C219.732 136.688 219.534 136.504 219.522 136.265L218.731 121.649C218.717 121.401 218.907 121.19 219.153 121.176C219.443 121.15 219.61 121.352 219.624 121.599L220.414 136.215C220.428 136.463 220.238 136.674 219.993 136.686C219.984 136.688 219.976 136.688 219.968 136.688Z" fill="#0F0202"/>
<path d="M226.243 141.837C226.013 141.837 225.816 141.659 225.799 141.423L224.701 127.193C224.681 126.947 224.866 126.731 225.113 126.712C225.335 126.678 225.575 126.876 225.593 127.125L226.691 141.353C226.71 141.6 226.526 141.817 226.279 141.835C226.267 141.837 226.254 141.837 226.243 141.837Z" fill="#0F0202"/>
<path d="M232.181 146.463C231.956 146.463 231.761 146.292 231.737 146.06L230.453 133.579C230.429 133.334 230.606 133.115 230.853 133.09C231.082 133.062 231.32 133.243 231.345 133.49L232.628 145.969C232.652 146.214 232.475 146.435 232.228 146.46C232.214 146.462 232.197 146.463 232.181 146.463Z" fill="#0F0202"/>
<path d="M237.998 145.799C237.784 145.799 237.592 145.641 237.557 145.424L236.656 139.847C236.616 139.603 236.783 139.373 237.025 139.335C237.274 139.29 237.5 139.46 237.54 139.704L238.44 145.28C238.48 145.524 238.313 145.754 238.069 145.793C238.048 145.797 238.021 145.799 237.998 145.799Z" fill="#0F0202"/>
<g opacity="0.1294">
<path d="M186.788 74.9706C185.317 76.2137 184.638 78.2135 183.39 79.6836C183.162 80.1068 180.158 83.4856 178.463 85.0978C176.996 86.4089 175.587 87.5624 174.153 88.6557C173.899 88.7051 173.646 88.8025 173.402 88.9507C166.089 94.2428 160.593 96.1763 151.342 97.878C146.952 98.6996 141.896 99.3898 134.981 97.6741C130.137 96.5468 127.799 95.2203 122.74 91.8122C120.59 90.3035 115.805 86.0907 112.552 82.1529L112.551 82.1498C109.05 77.3611 107.852 73.1777 107.131 71.2706C106.403 69.3125 105.857 67.3034 105.282 65.2974C104.436 62.5425 104.173 61.5773 104.176 59.2347C103.642 57.7414 103.151 56.2327 102.711 54.7069C102.279 54.5124 101.801 54.4151 101.327 54.4491C100.544 60.4948 100.656 66.5591 101.421 72.577C102.737 77.7796 104.357 83.4223 109.344 89.0263C113.366 93.4522 116.123 94.9872 117.849 96.411C121.88 99.3188 126.167 101.976 130.92 103.521C133.514 104.274 136.213 104.589 138.894 104.904C138.911 104.907 138.917 104.909 138.939 104.914C141.85 105.443 144.824 105.457 147.76 105.127C150.065 104.935 152.278 104.262 154.5 103.664C159.113 102.532 163.72 101.121 167.931 98.8941C169.64 97.8394 170.233 97.4271 171.035 96.8248C176.21 93.6035 181.548 89.1267 184.287 85.995C184.998 84.5233 185.687 83.0439 186.332 81.5476C187.138 79.3115 187.949 77.0754 188.743 74.8332C188.119 74.5923 187.393 74.6061 186.788 74.9706Z" fill="#0F0202"/>
</g>
<g opacity="0.1294">
<path d="M153.385 120.609C153.407 120.603 153.274 120.618 152.982 120.662C153.035 120.656 153.078 120.651 153.12 120.645C153.209 120.634 153.297 120.622 153.385 120.609Z" fill="#0F0202"/>
</g>
<g opacity="0.1294">
<path d="M196.33 94.062C194.103 93.4212 192.613 94.97 191.515 96.6687C191.469 96.7243 191.423 96.7784 191.365 96.8463C189.423 99.1148 188.873 98.9233 185.667 101.825C185.655 101.836 185.639 101.847 185.627 101.857C184.992 102.298 184.237 102.611 183.837 103.306C182.75 104.642 182.779 106.186 183.43 107.418C182.109 106.963 180.983 107.949 179.98 108.808C179.309 109.281 177.489 110.564 177.14 110.732C173.481 113.011 166.078 117.011 164.392 117.572C160.945 118.94 157.395 120.129 153.697 120.566C153.968 120.54 154.269 120.481 154.466 120.463C154.106 120.509 153.747 120.56 153.388 120.612C153.372 120.617 153.278 120.631 153.124 120.648C153.009 120.665 152.895 120.68 152.779 120.696C152.86 120.682 152.921 120.673 152.985 120.663C152.897 120.673 152.799 120.683 152.687 120.694C147.742 121.366 142.765 121.082 137.849 120.314C135.68 119.998 133.853 119.888 130.167 119.071C128.114 118.546 126.113 117.836 124.141 117.067C124.112 117.054 124.095 117.047 124.072 117.036C124.045 117.025 124.025 117.016 123.996 117.003C123.868 116.948 123.741 116.891 123.615 116.835C118.866 114.664 117.61 112.911 113.135 109.386C109.628 106.407 107.567 105.435 103.723 101.752C98.3707 96.7907 96.0404 91.5418 92.0115 84.358C90.5429 80.4448 85.2168 82.3458 86.9293 86.1709C90.6355 92.8312 93.8769 99.8946 99.4656 105.25C102.296 108.306 105.746 110.666 108.913 113.344C112.26 115.987 115.322 119.079 119.107 121.108C125.434 124.539 132.55 125.674 139.611 126.468C150.719 128.296 162.216 125.677 171.809 119.897C174.816 118.094 177.734 116.139 180.688 114.255C182.089 113.143 184.026 112.227 184.897 110.649C185.144 110.156 185.158 109.605 185.012 109.094C186.129 109.758 187.557 109.898 188.924 109.094C191.48 107.687 193.663 105.699 195.421 103.382C196.549 102.145 197.644 100.857 198.514 99.4236C199.74 97.4254 198.583 94.6566 196.33 94.062Z" fill="#0F0202"/>
</g>
<path d="M131.678 50.4862L124.717 56.9798L143.693 78.0681L164.673 47.5259L156.901 41.3458L142.25 61.9925L131.678 50.4862Z" fill="#EC2227"/>
<path d="M143.694 79.4133C143.314 79.4133 142.951 79.2526 142.696 78.9685L123.719 57.8802C123.23 57.3351 123.267 56.4981 123.803 55.9993L130.764 49.5042C131.027 49.2618 131.38 49.1228 131.732 49.1444C132.091 49.1598 132.427 49.3143 132.67 49.5783L142.117 59.8615L155.806 40.5707C156.019 40.2696 156.348 40.0704 156.712 40.0179C157.078 39.97 157.447 40.0673 157.737 40.2974L165.51 46.4759C166.061 46.9145 166.181 47.7067 165.781 48.2889L144.801 78.8326C144.568 79.1723 144.193 79.3839 143.78 79.4117C143.753 79.4117 143.723 79.4133 143.694 79.4133ZM126.599 57.0633L143.552 75.9016L162.857 47.7978L157.175 43.2809L143.347 62.7709C143.112 63.1013 142.74 63.3098 142.335 63.3329C141.92 63.3577 141.535 63.2002 141.262 62.9021L131.606 52.392L126.599 57.0633Z" fill="#0F0202"/>
<g opacity="0.1294">
<path d="M47.8594 178.633C47.9706 178.617 48.0818 178.6 48.1914 178.588C48.0663 178.605 47.9289 178.624 47.8594 178.633Z" fill="#0F0202"/>
</g>
<g opacity="0.1294">
<path d="M49.0173 178.502C48.9216 178.506 48.7702 178.519 48.554 178.54C48.5077 178.546 48.4598 178.554 48.4135 178.56C48.3903 178.563 48.3626 178.566 48.3162 178.573C48.2745 178.577 48.2344 178.583 48.1927 178.59C48.2529 178.582 48.3054 178.574 48.3517 178.568C48.185 178.591 48.0197 178.613 47.8529 178.636L47.8607 178.634C47.8313 178.639 47.8004 178.642 47.7711 178.647C47.1503 178.275 46.3643 178.1 45.5119 178.248C41.1401 178.281 36.7776 178.574 32.4105 178.735C30.0663 178.874 27.5754 178.511 25.3054 179.102C22.6184 180.1 23.4893 184.308 26.34 184.245C31.9688 184.137 37.5899 183.957 43.214 183.707C44.0572 183.709 44.9003 183.695 45.742 183.666C45.9257 183.664 46.1033 183.653 46.2824 183.639C47.1719 183.595 48.0583 183.528 48.9386 183.391C48.7208 183.42 48.5046 183.448 48.2869 183.479C48.4768 183.454 48.622 183.437 48.7378 183.42C48.7131 183.425 48.6946 183.428 48.6652 183.431C48.8212 183.417 48.9772 183.405 49.1347 183.403C50.5121 183.53 51.8587 182.368 51.8263 180.943C51.8695 179.468 50.4334 178.298 49.0173 178.502Z" fill="#0F0202"/>
</g>
<g opacity="0.1294">
<path d="M87.4334 178.321C85.7856 178.474 84.1457 178.264 82.4995 178.213C79.1886 178.339 75.8777 178.298 72.5653 178.356C69.8629 178.64 67.0014 178.105 64.3777 178.792C61.5533 179.871 62.452 184.228 65.4649 184.19C72.7784 183.716 80.1121 184.224 87.4334 183.919C91.1164 183.831 91.1195 178.424 87.4334 178.321Z" fill="#0F0202"/>
</g>
<g opacity="0.1294">
<path d="M129.397 178.59C127.663 177.067 124.777 178.048 122.641 177.956C118.161 178.089 113.678 178.444 109.196 178.238C108.076 178.205 106.953 178.214 105.838 178.106C105.508 178.041 104.524 177.913 104.129 178.092C103.422 178.336 102.779 178.744 102.41 179.414C101.27 181.233 102.739 183.815 104.895 183.744C109.978 183.913 115.085 183.587 120.175 183.524C122.153 183.483 124.131 183.417 126.107 183.292C126.907 183.195 127.782 183.411 128.519 183.019C130.295 182.415 130.742 179.853 129.397 178.59Z" fill="#0F0202"/>
</g>
</svg>
