<svg width="1440" height="5373" viewBox="0 0 1440 5373" fill="none" xmlns="http://www.w3.org/2000/svg">
<g clip-path="url(#clip0_1_93)">
<rect width="1440" height="5373" fill="white"/>
<g clip-path="url(#clip1_1_93)">
<rect width="1440" height="762" fill="#0F0202"/>
<g opacity="0.3" filter="url(#filter0_f_1_93)">
<path fill-rule="evenodd" clip-rule="evenodd" d="M982.403 147.485C1017.65 151.179 1054.42 131.755 1084.49 152.304C1120.77 177.099 1150.32 217.686 1153.62 264.5C1157.1 313.888 1136.24 363.801 1101.63 395.534C1069.29 425.187 1023.48 431.707 982.403 421.49C948.217 412.987 930.34 376.085 907.181 347.17C886.437 321.268 864.094 298.028 856.67 264.5C846.539 218.753 826.098 159.075 858.791 128.649C891.792 97.9356 939.354 142.973 982.403 147.485Z" fill="#EC2227"/>
</g>
<g opacity="0.3" filter="url(#filter1_f_1_93)">
<path fill-rule="evenodd" clip-rule="evenodd" d="M1468.36 402.285C1516.56 407.333 1566.84 380.793 1607.95 408.871C1657.56 442.749 1697.97 498.204 1702.48 562.167C1707.24 629.646 1678.72 697.843 1631.39 741.201C1587.17 781.716 1524.53 790.625 1468.36 776.665C1421.61 765.047 1397.16 714.628 1365.5 675.12C1337.13 639.73 1306.58 607.976 1296.43 562.167C1282.57 499.661 1254.62 418.122 1299.33 376.549C1344.45 334.586 1409.49 396.121 1468.36 402.285Z" fill="#EC2227"/>
</g>
</g>
<rect width="1440" height="128" transform="translate(0 762)" fill="#0F0202"/>
<g clip-path="url(#clip2_1_93)">
<rect width="1440" height="647" transform="translate(0 890)" fill="#0F0202"/>
<g opacity="0.8" filter="url(#filter2_f_1_93)">
<path fill-rule="evenodd" clip-rule="evenodd" d="M36.4593 1500.41C65.7391 1503.47 96.2836 1487.39 121.261 1504.4C151.398 1524.93 175.946 1558.53 178.687 1597.29C181.578 1638.18 164.248 1679.5 135.499 1705.78C108.634 1730.33 70.5826 1735.72 36.4593 1727.27C8.06191 1720.23 -6.78804 1689.67 -26.0251 1665.73C-43.2572 1644.29 -61.8163 1625.05 -67.9837 1597.29C-76.3988 1559.42 -93.379 1510.01 -66.2217 1484.82C-38.8086 1459.39 0.699944 1496.68 36.4593 1500.41Z" fill="#EC2227"/>
</g>
</g>
<g clip-path="url(#clip3_1_93)">
<rect width="1440" height="1152" transform="translate(0 1537)" fill="#0F0202"/>
<g opacity="0.3" filter="url(#filter3_f_1_93)">
<path fill-rule="evenodd" clip-rule="evenodd" d="M1357.92 2377.77C1390.8 2381.5 1425.1 2361.89 1453.15 2382.64C1487 2407.68 1514.57 2448.66 1517.65 2495.93C1520.89 2545.8 1501.43 2596.2 1469.14 2628.24C1438.97 2658.18 1396.24 2664.76 1357.92 2654.45C1326.02 2645.86 1309.35 2608.6 1287.74 2579.4C1268.39 2553.25 1247.54 2529.78 1240.62 2495.93C1231.17 2449.73 1212.1 2389.48 1242.6 2358.75C1273.38 2327.74 1317.76 2373.22 1357.92 2377.77Z" fill="#043099"/>
</g>
<g opacity="0.8" filter="url(#filter4_f_1_93)">
<path fill-rule="evenodd" clip-rule="evenodd" d="M-12.6629 1296.62C21.5719 1300.21 57.2854 1281.35 86.4895 1301.3C121.727 1325.37 150.43 1364.77 153.634 1410.22C157.014 1458.16 136.751 1506.62 103.137 1537.42C71.7262 1566.21 27.235 1572.54 -12.6629 1562.62C-45.8661 1554.37 -63.2291 1518.54 -85.7217 1490.47C-105.87 1465.33 -127.57 1442.77 -134.781 1410.22C-144.62 1365.81 -164.474 1307.87 -132.721 1278.34C-100.669 1248.52 -54.4739 1292.24 -12.6629 1296.62Z" fill="#EC2227"/>
</g>
</g>
<g clip-path="url(#clip4_1_93)">
<rect width="1440" height="670" transform="translate(0 2689)" fill="#0F0202"/>
<g opacity="0.3" filter="url(#filter5_f_1_93)">
<path fill-rule="evenodd" clip-rule="evenodd" d="M1357.92 3529.77C1390.8 3533.5 1425.1 3513.89 1453.15 3534.64C1487 3559.68 1514.57 3600.66 1517.65 3647.93C1520.89 3697.8 1501.43 3748.2 1469.14 3780.24C1438.97 3810.18 1396.24 3816.76 1357.92 3806.45C1326.02 3797.86 1309.35 3760.6 1287.74 3731.4C1268.39 3705.25 1247.54 3681.78 1240.62 3647.93C1231.17 3601.73 1212.1 3541.48 1242.6 3510.75C1273.38 3479.74 1317.76 3525.22 1357.92 3529.77Z" fill="#043099"/>
</g>
</g>
<rect width="1440" height="273" transform="translate(0 3359)" fill="#0F0202"/>
<rect width="1440" height="830" transform="translate(0 3632)" fill="#0F0202"/>
<g clip-path="url(#clip5_1_93)">
<rect width="1440" height="501" transform="translate(0 4462)" fill="#0F0202"/>
<g opacity="0.8" filter="url(#filter6_f_1_93)">
<path fill-rule="evenodd" clip-rule="evenodd" d="M1346.26 4987.62C1373.96 4976.19 1392.65 4945.48 1423.9 4949.78C1461.6 4954.97 1501.25 4975.65 1524.21 5012.1C1548.43 5050.55 1554.87 5099.37 1543.17 5139.14C1532.24 5176.3 1501.21 5200.28 1466.34 5208.83C1437.33 5215.94 1407.93 5193.45 1378.13 5179.57C1351.43 5167.14 1324.72 5157.51 1304.53 5133.48C1276.99 5100.69 1235.71 5060.87 1246.56 5022.94C1257.52 4984.66 1312.44 5001.57 1346.26 4987.62Z" fill="#EC2227"/>
</g>
</g>
<g clip-path="url(#clip6_1_93)">
<rect width="1440" height="410" transform="translate(0 4963)" fill="#0F0202"/>
<g opacity="0.8" filter="url(#filter7_f_1_93)">
<path fill-rule="evenodd" clip-rule="evenodd" d="M-23.0536 5340.6C8.59114 5344.11 41.6026 5325.67 68.5972 5345.18C101.169 5368.72 127.7 5407.25 130.661 5451.69C133.786 5498.58 115.056 5545.97 83.9853 5576.09C54.9508 5604.24 13.8258 5610.43 -23.0536 5600.73C-53.7446 5592.66 -69.794 5557.63 -90.5848 5530.18C-109.209 5505.59 -129.267 5483.52 -135.932 5451.69C-145.027 5408.26 -163.379 5351.61 -134.028 5322.72C-104.401 5293.56 -61.7012 5336.32 -23.0536 5340.6Z" fill="#EC2227"/>
</g>
</g>
</g>
<defs>
<filter id="filter0_f_1_93" x="641" y="-82" width="713" height="708" filterUnits="userSpaceOnUse" color-interpolation-filters="sRGB">
<feFlood flood-opacity="0" result="BackgroundImageFix"/>
<feBlend mode="normal" in="SourceGraphic" in2="BackgroundImageFix" result="shape"/>
<feGaussianBlur stdDeviation="100" result="effect1_foregroundBlur_1_93"/>
</filter>
<filter id="filter1_f_1_93" x="1075" y="162" width="828" height="820.827" filterUnits="userSpaceOnUse" color-interpolation-filters="sRGB">
<feFlood flood-opacity="0" result="BackgroundImageFix"/>
<feBlend mode="normal" in="SourceGraphic" in2="BackgroundImageFix" result="shape"/>
<feGaussianBlur stdDeviation="100" result="effect1_foregroundBlur_1_93"/>
</filter>
<filter id="filter2_f_1_93" x="-431" y="1126" width="960" height="955" filterUnits="userSpaceOnUse" color-interpolation-filters="sRGB">
<feFlood flood-opacity="0" result="BackgroundImageFix"/>
<feBlend mode="normal" in="SourceGraphic" in2="BackgroundImageFix" result="shape"/>
<feGaussianBlur stdDeviation="175" result="effect1_foregroundBlur_1_93"/>
</filter>
<filter id="filter3_f_1_93" x="1026" y="2148" width="692" height="711" filterUnits="userSpaceOnUse" color-interpolation-filters="sRGB">
<feFlood flood-opacity="0" result="BackgroundImageFix"/>
<feBlend mode="normal" in="SourceGraphic" in2="BackgroundImageFix" result="shape"/>
<feGaussianBlur stdDeviation="100" result="effect1_foregroundBlur_1_93"/>
</filter>
<filter id="filter4_f_1_93" x="-500" y="918" width="1004" height="999" filterUnits="userSpaceOnUse" color-interpolation-filters="sRGB">
<feFlood flood-opacity="0" result="BackgroundImageFix"/>
<feBlend mode="normal" in="SourceGraphic" in2="BackgroundImageFix" result="shape"/>
<feGaussianBlur stdDeviation="175" result="effect1_foregroundBlur_1_93"/>
</filter>
<filter id="filter5_f_1_93" x="1026" y="3300" width="692" height="711" filterUnits="userSpaceOnUse" color-interpolation-filters="sRGB">
<feFlood flood-opacity="0" result="BackgroundImageFix"/>
<feBlend mode="normal" in="SourceGraphic" in2="BackgroundImageFix" result="shape"/>
<feGaussianBlur stdDeviation="100" result="effect1_foregroundBlur_1_93"/>
</filter>
<filter id="filter6_f_1_93" x="894.787" y="4599.37" width="1004.05" height="960.812" filterUnits="userSpaceOnUse" color-interpolation-filters="sRGB">
<feFlood flood-opacity="0" result="BackgroundImageFix"/>
<feBlend mode="normal" in="SourceGraphic" in2="BackgroundImageFix" result="shape"/>
<feGaussianBlur stdDeviation="175" result="effect1_foregroundBlur_1_93"/>
</filter>
<filter id="filter7_f_1_93" x="-350" y="5112.61" width="681" height="692.403" filterUnits="userSpaceOnUse" color-interpolation-filters="sRGB">
<feFlood flood-opacity="0" result="BackgroundImageFix"/>
<feBlend mode="normal" in="SourceGraphic" in2="BackgroundImageFix" result="shape"/>
<feGaussianBlur stdDeviation="100" result="effect1_foregroundBlur_1_93"/>
</filter>
<clipPath id="clip0_1_93">
<rect width="1440" height="5373" fill="white"/>
</clipPath>
<clipPath id="clip1_1_93">
<rect width="1440" height="762" fill="white"/>
</clipPath>
<clipPath id="clip2_1_93">
<rect width="1440" height="647" fill="white" transform="translate(0 890)"/>
</clipPath>
<clipPath id="clip3_1_93">
<rect width="1440" height="1152" fill="white" transform="translate(0 1537)"/>
</clipPath>
<clipPath id="clip4_1_93">
<rect width="1440" height="670" fill="white" transform="translate(0 2689)"/>
</clipPath>
<clipPath id="clip5_1_93">
<rect width="1440" height="501" fill="white" transform="translate(0 4462)"/>
</clipPath>
<clipPath id="clip6_1_93">
<rect width="1440" height="410" fill="white" transform="translate(0 4963)"/>
</clipPath>
</defs>
</svg>
