<svg width="148" height="38" viewBox="0 0 148 38" fill="none" xmlns="http://www.w3.org/2000/svg">
<g opacity="0.8">
<path d="M65.471 8.22829V26H61.9697V18.7802H54.0256V26H50.5244V8.22829H54.0256V15.3998H61.9697V8.22829H65.471ZM68.6726 20.5912C68.6726 19.5127 68.9221 18.5468 69.4211 17.6937C69.9363 16.8405 70.6526 16.1724 71.5702 15.6895C72.4877 15.1905 73.5421 14.941 74.7333 14.941C75.9407 14.941 76.987 15.1905 77.8724 15.6895C78.7577 16.1724 79.4338 16.8405 79.9007 17.6937C80.3836 18.5468 80.6251 19.5127 80.6251 20.5912C80.6251 21.6698 80.3836 22.6437 79.9007 23.5129C79.4338 24.3661 78.7577 25.0422 77.8724 25.5412C76.987 26.0402 75.9246 26.2898 74.6851 26.2898C73.526 26.2898 72.4877 26.0644 71.5702 25.6137C70.6687 25.1629 69.9604 24.511 69.4453 23.6578C68.9302 22.8046 68.6726 21.7824 68.6726 20.5912ZM72.0772 20.6154C72.0772 21.1627 72.1899 21.6617 72.4153 22.1124C72.6407 22.5471 72.9465 22.8932 73.3329 23.1507C73.7192 23.4083 74.1538 23.5371 74.6368 23.5371C75.168 23.5371 75.6268 23.4083 76.0131 23.1507C76.3994 22.8932 76.6972 22.5471 76.9065 22.1124C77.1158 21.6617 77.2204 21.1627 77.2204 20.6154C77.2204 20.052 77.1158 19.5529 76.9065 19.1183C76.6972 18.6837 76.3994 18.3376 76.0131 18.08C75.6268 17.8224 75.168 17.6937 74.6368 17.6937C74.1538 17.6937 73.7192 17.8224 73.3329 18.08C72.9465 18.3376 72.6407 18.6837 72.4153 19.1183C72.1899 19.5529 72.0772 20.052 72.0772 20.6154ZM86.7169 26.2173C85.8476 26.2173 85.0347 26.0644 84.2781 25.7585C83.5376 25.4527 82.9098 25.0261 82.3947 24.4788L83.7952 22.6195C84.3103 23.0863 84.7852 23.4244 85.2198 23.6337C85.6706 23.8268 86.073 23.9234 86.4271 23.9234C86.7008 23.9234 86.9423 23.8993 87.1515 23.851C87.3769 23.7866 87.554 23.698 87.6828 23.5854C87.8115 23.4566 87.8759 23.2956 87.8759 23.1024C87.8759 22.8288 87.7632 22.6115 87.5379 22.4505C87.3286 22.2895 87.055 22.1607 86.7169 22.0641C86.3789 21.9515 86.0167 21.8388 85.6303 21.7261C84.6645 21.4202 83.9642 20.9776 83.5296 20.398C83.1111 19.8024 82.9018 19.1585 82.9018 18.4663C82.9018 17.9351 83.0386 17.4039 83.3123 16.8727C83.602 16.3254 84.0528 15.8746 84.6645 15.5205C85.2923 15.1502 86.0971 14.9651 87.0791 14.9651C87.9645 14.9651 88.713 15.0537 89.3247 15.2307C89.9364 15.4078 90.5159 15.6976 91.0632 16.1L89.7835 18.08C89.4776 17.8385 89.1315 17.6373 88.7452 17.4763C88.375 17.2993 88.0289 17.2027 87.7069 17.1866C87.4171 17.1705 87.1676 17.2027 86.9584 17.2832C86.7652 17.3637 86.6123 17.4683 86.4996 17.5971C86.3869 17.7259 86.3306 17.8627 86.3306 18.0076C86.3145 18.3134 86.4271 18.5549 86.6686 18.7319C86.9262 18.909 87.2481 19.0459 87.6345 19.1424C88.0208 19.239 88.3991 19.3517 88.7693 19.4805C89.2845 19.6415 89.7271 19.8588 90.0974 20.1324C90.4676 20.4061 90.7493 20.7361 90.9425 21.1224C91.1518 21.4927 91.2564 21.9434 91.2564 22.4746C91.2564 23.1185 91.0874 23.7302 90.7493 24.3098C90.4274 24.8732 89.9284 25.332 89.2523 25.6861C88.5923 26.0402 87.7471 26.2173 86.7169 26.2173ZM95.078 10.8119H98.4584V15.3998H101.018V18.0317H98.4584V26H95.078V18.0317H93.436V15.3998H95.078V10.8119ZM104.436 31.0707L111.463 15.448H114.505L107.696 31.0707H104.436ZM107.261 26.0483L102.094 15.448H105.885L109.869 24.358L107.261 26.0483ZM116.489 6.94853H119.87V26H116.489V6.94853ZM126.756 26.5071C125.806 26.5071 125.009 26.2173 124.365 25.6378C123.721 25.0422 123.383 24.2776 123.351 23.3439V15.448H126.732V22.0883C126.764 22.5551 126.885 22.9334 127.094 23.2232C127.303 23.4968 127.657 23.6337 128.156 23.6337C128.655 23.6337 129.082 23.4646 129.436 23.1266C129.806 22.7885 130.088 22.3298 130.281 21.7502C130.491 21.1546 130.595 20.4866 130.595 19.7461V15.448H133.976V26H130.909L130.643 24.0683L130.692 24.2856C130.45 24.7202 130.144 25.1066 129.774 25.4446C129.404 25.7827 128.961 26.0402 128.446 26.2173C127.947 26.4105 127.384 26.5071 126.756 26.5071ZM140.881 26.2173C140.012 26.2173 139.199 26.0644 138.442 25.7585C137.702 25.4527 137.074 25.0261 136.559 24.4788L137.959 22.6195C138.475 23.0863 138.949 23.4244 139.384 23.6337C139.835 23.8268 140.237 23.9234 140.591 23.9234C140.865 23.9234 141.106 23.8993 141.316 23.851C141.541 23.7866 141.718 23.698 141.847 23.5854C141.976 23.4566 142.04 23.2956 142.04 23.1024C142.04 22.8288 141.927 22.6115 141.702 22.4505C141.493 22.2895 141.219 22.1607 140.881 22.0641C140.543 21.9515 140.181 21.8388 139.795 21.7261C138.829 21.4202 138.128 20.9776 137.694 20.398C137.275 19.8024 137.066 19.1585 137.066 18.4663C137.066 17.9351 137.203 17.4039 137.476 16.8727C137.766 16.3254 138.217 15.8746 138.829 15.5205C139.456 15.1502 140.261 14.9651 141.243 14.9651C142.129 14.9651 142.877 15.0537 143.489 15.2307C144.101 15.4078 144.68 15.6976 145.227 16.1L143.948 18.08C143.642 17.8385 143.296 17.6373 142.909 17.4763C142.539 17.2993 142.193 17.2027 141.871 17.1866C141.581 17.1705 141.332 17.2027 141.123 17.2832C140.929 17.3637 140.776 17.4683 140.664 17.5971C140.551 17.7259 140.495 17.8627 140.495 18.0076C140.479 18.3134 140.591 18.5549 140.833 18.7319C141.09 18.909 141.412 19.0459 141.799 19.1424C142.185 19.239 142.563 19.3517 142.934 19.4805C143.449 19.6415 143.891 19.8588 144.262 20.1324C144.632 20.4061 144.914 20.7361 145.107 21.1224C145.316 21.4927 145.421 21.9434 145.421 22.4746C145.421 23.1185 145.252 23.7302 144.914 24.3098C144.592 24.8732 144.093 25.332 143.416 25.6861C142.756 26.0402 141.911 26.2173 140.881 26.2173Z" fill="white"/>
<path d="M32.2168 11.8128C32.2118 10.2658 31.5719 9.07174 30.2519 8.29118C28.7973 7.43183 27.35 6.55905 25.8992 5.6928C23.3215 4.15321 20.7434 2.61411 18.1648 1.07548C16.888 0.318155 15.5894 0.301817 14.3088 1.06496C12.6836 2.0331 11.0595 3.00257 9.43639 3.97338V8.60885C9.43742 8.60918 9.43852 8.60918 9.43955 8.60885C9.43955 8.61393 9.43604 23.1702 9.43639 23.1753C9.4799 24.206 9.94163 24.9804 10.8076 25.513C11.6907 26.0576 12.5861 26.5793 13.5464 27.1544V21.1937H18.8795C18.9289 22.0683 18.8774 20.032 18.9096 31.5353C18.9096 31.8214 18.8437 32.0095 18.5812 32.1329C17.0052 32.871 16.3536 33.5953 14.846 32.6942C11.7322 30.8361 8.61958 28.9764 5.50815 27.1152C4.55872 26.5459 4.08365 25.6778 4.08295 24.5433C4.08295 24.5433 4.07804 23.8066 4.07804 7.17334C2.00585 8.40627 0.230492 9.0859 0.234351 11.9065C0.237626 14.2687 0.237626 16.6306 0.234351 18.9922H0.230492C0.230492 21.3673 0.237509 23.7431 0.230492 26.1182C0.225931 27.7588 0.897128 28.9707 2.28057 29.7923C6.2039 32.1217 10.1196 34.4638 14.0278 36.8189C15.4933 37.7069 16.8978 37.7363 18.3676 36.8501C19.923 35.9115 21.4801 34.9761 23.0386 34.044V14.8919C23.0059 13.8539 22.5551 13.0722 21.6906 12.536C20.7983 11.9827 19.8914 11.4541 18.9261 10.8758V16.8371H13.6036C13.5877 16.7421 13.5774 16.6462 13.5727 16.5499C13.569 13.1856 13.5645 9.82266 13.5594 6.46102C13.5594 6.18801 13.6208 6.01592 13.873 5.8972C15.4063 5.16892 16.0754 4.3967 17.6409 5.33047C27.2622 11.0787 27.0328 10.9106 27.5549 11.3797C28.6734 12.385 28.3969 11.7986 28.3969 30.8452C30.4396 29.6278 32.2101 28.9388 32.2213 26.2642C32.2349 21.4476 32.2334 16.6305 32.2168 11.8128Z" fill="white"/>
</g>
</svg>
