<svg width="26" height="27" viewBox="0 0 26 27" fill="none" xmlns="http://www.w3.org/2000/svg">
<path d="M22.8365 9.795V17.205C22.8365 18.4183 22.1865 19.545 21.1357 20.1625L14.7007 23.8783C13.6498 24.485 12.3498 24.485 11.2882 23.8783L4.85318 20.1625C3.80234 19.5558 3.15234 18.4291 3.15234 17.205V9.795C3.15234 8.58166 3.80234 7.45495 4.85318 6.83745L11.2882 3.12163C12.339 2.51496 13.639 2.51496 14.7007 3.12163L21.1357 6.83745C22.1865 7.45495 22.8365 8.57083 22.8365 9.795Z" stroke="#F5F5F5" stroke-width="1.5" stroke-linecap="round" stroke-linejoin="round"/>
<path d="M13.0007 12.4167C14.3948 12.4167 15.5249 11.2866 15.5249 9.89253C15.5249 8.49847 14.3948 7.36841 13.0007 7.36841C11.6067 7.36841 10.4766 8.49847 10.4766 9.89253C10.4766 11.2866 11.6067 12.4167 13.0007 12.4167Z" stroke="#F5F5F5" stroke-width="1.5" stroke-linecap="round" stroke-linejoin="round"/>
<path d="M17.3337 18.5483C17.3337 16.5983 15.3945 15.0167 13.0003 15.0167C10.6062 15.0167 8.66699 16.5983 8.66699 18.5483" stroke="#F5F5F5" stroke-width="1.5" stroke-linecap="round" stroke-linejoin="round"/>
</svg>
