<svg width="390" height="335" viewBox="0 0 390 335" fill="none" xmlns="http://www.w3.org/2000/svg">
<g filter="url(#filter0_d_926_7611)">
<rect x="175" y="19" width="36" height="36" rx="8" fill="#241F1F" shape-rendering="crispEdges"/>
<path d="M192.214 27.0198H195.482V41.9994C193.808 42.316 192.576 42.4406 191.243 42.4406C187.251 42.4364 185.173 40.6531 185.173 37.2281C185.173 33.9281 187.377 31.7864 190.792 31.7864C191.322 31.7864 191.726 31.8281 192.214 31.9531V27.0198ZM192.329 34.6526C191.946 34.5276 191.63 34.4859 191.227 34.4859C189.574 34.4859 188.619 35.4942 188.619 37.2613C188.619 38.9817 189.532 39.9317 191.206 39.9317C191.567 39.9317 191.862 39.9113 192.329 39.8488V34.6526Z" fill="#2BA977"/>
<path d="M200.827 32.1886V39.6887C200.827 42.2715 200.633 43.5136 200.066 44.5845C199.536 45.614 198.837 46.2632 197.395 46.9803L194.362 45.5512C195.805 44.8807 196.503 44.2882 196.949 43.3841C197.416 42.4595 197.563 41.3886 197.563 38.572V32.1887H200.827V32.1886ZM197.234 27.0198H200.502V30.3406H197.234V27.0198Z" fill="#2BA977"/>
</g>
<g filter="url(#filter1_d_926_7611)">
<rect x="301.755" y="71" width="36" height="36" rx="8" transform="rotate(1.20102 301.755 71)" fill="#241F1F" shape-rendering="crispEdges"/>
<path d="M314.31 92.3468L311.296 89.2032L321.503 79.4158L327.66 79.5449L314.31 92.3468ZM327.467 88.7701L321.31 88.641L318.955 90.8991L321.969 94.0428" fill="#42A5F5" fill-opacity="0.8"/>
<path d="M318.826 97.0565L321.084 99.4114L327.241 99.5405L321.969 94.0428" fill="#0D47A1"/>
<path d="M315.818 93.9155L318.957 90.9048L321.967 94.0436L318.828 97.0542L315.818 93.9155Z" fill="#42A5F5"/>
<path d="M318.828 97.0542L321.967 94.0444L322.387 94.4825L319.248 97.4923L318.828 97.0542Z" fill="url(#paint0_linear_926_7611)"/>
<path d="M318.826 97.0565L323.427 95.574L321.969 94.042" fill="url(#paint1_linear_926_7611)"/>
</g>
<g filter="url(#filter2_d_926_7611)">
<rect x="54" y="71" width="36" height="36" rx="8" fill="#241F1F" shape-rendering="crispEdges"/>
<path d="M63.4216 88.9998C63.4216 92.3955 65.395 95.3298 68.2565 96.7206L64.1644 85.5085C63.6738 86.607 63.4207 87.7967 63.4216 88.9998ZM77.7915 88.5669C77.7915 87.5066 77.4107 86.7724 77.084 86.2009C76.6492 85.4943 76.2418 84.8959 76.2418 84.1892C76.2418 83.4006 76.8397 82.6666 77.6821 82.6666C77.7202 82.6666 77.7562 82.6713 77.7935 82.6734C76.2671 81.2752 74.2336 80.4214 72.0003 80.4214C69.0033 80.4214 66.3665 81.9591 64.8326 84.2881C65.0339 84.2942 65.2237 84.2983 65.3847 84.2983C66.282 84.2983 67.671 84.1894 67.671 84.1894C68.1334 84.1621 68.1879 84.8414 67.7261 84.896C67.7261 84.896 67.2612 84.9507 66.7441 84.9778L69.8681 94.2699L71.7456 88.6395L70.4089 84.9777C69.9469 84.9506 69.5093 84.8959 69.5093 84.8959C69.047 84.8688 69.1012 84.162 69.5635 84.1892C69.5635 84.1892 70.9802 84.2981 71.8232 84.2981C72.7203 84.2981 74.1094 84.1892 74.1094 84.1892C74.5722 84.162 74.6265 84.8412 74.1644 84.8959C74.1644 84.8959 73.6987 84.9506 73.1826 84.9777L76.2827 94.1994L77.1382 91.3401C77.5093 90.1535 77.7915 89.3012 77.7915 88.5669Z" fill="#00749A"/>
<path d="M72.1508 89.7501L69.5769 97.2292C70.3638 97.4611 71.1799 97.5788 72.0003 97.5788C72.9993 97.5788 73.9573 97.406 74.8491 97.0925C74.8251 97.0551 74.8047 97.0155 74.788 96.9744L72.1508 89.7501ZM79.5277 84.8839C79.5646 85.1572 79.5855 85.4507 79.5855 85.766C79.5855 86.6366 79.4229 87.6152 78.9332 88.8388L76.3128 96.415C78.8632 94.9277 80.5786 92.1647 80.5786 88.9997C80.5809 87.5611 80.2194 86.1453 79.5277 84.8839Z" fill="#00749A"/>
<path d="M72.0002 79C66.4863 79 62.0001 83.4858 62.0001 88.9998C62.0001 94.5143 66.4861 99.0002 72.0002 99.0002C77.514 99.0002 82.0008 94.5145 82.0008 88.9998C82.0006 83.4858 77.514 79 72.0002 79ZM72.0002 98.5416C66.7392 98.5416 62.4586 94.2611 62.4586 88.9998C62.4586 83.7389 66.739 79.4587 72.0002 79.4587C77.2611 79.4587 81.5413 83.7389 81.5413 88.9998C81.5413 94.2611 77.261 98.5416 72.0002 98.5416Z" fill="#00749A"/>
</g>
<g filter="url(#filter3_d_926_7611)">
<rect x="45" y="233" width="36" height="36" rx="8" fill="#241F1F" shape-rendering="crispEdges"/>
<path d="M73 241H63.0416L53.5325 251H62.9825L63.0266 250.955L73 241Z" fill="url(#paint2_linear_926_7611)"/>
<path d="M73 261H53H73ZM63.0267 250.955L62.9825 251H63.0717L63.0267 250.955Z" fill="url(#paint3_linear_926_7611)"/>
<path d="M63.0417 241H53V251.56V251H53.5325L63.0417 241Z" fill="url(#paint4_linear_926_7611)"/>
<path d="M62.9825 251H53.5325L53 251.56V261L62.9825 251Z" fill="url(#paint5_linear_926_7611)"/>
<path d="M63.0717 251H62.9825L53 261H73L63.0717 251Z" fill="url(#paint6_linear_926_7611)"/>
<path d="M53.5325 251H53V251.56L53.5325 251Z" fill="url(#paint7_linear_926_7611)"/>
</g>
<g filter="url(#filter4_d_926_7611)">
<rect x="337" y="145" width="36" height="36" rx="8" fill="#241F1F" shape-rendering="crispEdges"/>
<path d="M351.667 173C353.507 173 355 171.507 355 169.667V166.333H351.667C349.827 166.333 348.333 167.827 348.333 169.667C348.333 171.507 349.827 173 351.667 173Z" fill="#0ACF83"/>
<path d="M348.333 163C348.333 161.16 349.827 159.667 351.667 159.667H355V166.333H351.667C349.827 166.333 348.333 164.84 348.333 163Z" fill="#A259FF"/>
<path d="M348.333 156.333C348.333 154.493 349.827 153 351.667 153H355V159.667H351.667C349.827 159.667 348.333 158.173 348.333 156.333Z" fill="#F24E1E"/>
<path d="M355 153H358.333C360.173 153 361.667 154.493 361.667 156.333C361.667 158.173 360.173 159.667 358.333 159.667H355V153Z" fill="#FF7262"/>
<path d="M361.667 163C361.667 164.84 360.173 166.333 358.333 166.333C356.493 166.333 355 164.84 355 163C355 161.16 356.493 159.667 358.333 159.667C360.173 159.667 361.667 161.16 361.667 163Z" fill="#1ABCFE"/>
</g>
<g filter="url(#filter5_d_926_7611)">
<rect x="177" y="284" width="36" height="36" rx="8" fill="#241F1F" shape-rendering="crispEdges"/>
<path d="M195 303.763C195.974 303.763 196.763 302.974 196.763 302C196.763 301.026 195.974 300.237 195 300.237C194.026 300.237 193.237 301.026 193.237 302C193.237 302.974 194.026 303.763 195 303.763Z" fill="#61DAFB"/>
<path fill-rule="evenodd" clip-rule="evenodd" d="M186.713 301.071C186.314 301.431 186.181 301.746 186.181 302C186.181 302.254 186.314 302.569 186.713 302.929C187.112 303.289 187.726 303.643 188.539 303.954C190.161 304.573 192.445 304.97 195 304.97C197.555 304.97 199.839 304.573 201.461 303.954C202.274 303.643 202.888 303.289 203.287 302.929C203.686 302.569 203.818 302.254 203.818 302C203.818 301.746 203.686 301.431 203.287 301.071C202.888 300.711 202.274 300.357 201.461 300.046C199.839 299.427 197.555 299.03 195 299.03C192.445 299.03 190.161 299.427 188.539 300.046C187.726 300.357 187.112 300.711 186.713 301.071ZM188.08 298.845C189.883 298.157 192.329 297.745 195 297.745C197.67 297.745 200.117 298.157 201.919 298.845C202.818 299.188 203.59 299.613 204.149 300.117C204.707 300.621 205.104 301.256 205.104 302C205.104 302.744 204.707 303.379 204.149 303.883C203.59 304.387 202.818 304.812 201.919 305.155C200.117 305.843 197.67 306.255 195 306.255C192.329 306.255 189.883 305.843 188.08 305.155C187.181 304.812 186.41 304.387 185.851 303.883C185.293 303.379 184.896 302.744 184.896 302C184.896 301.256 185.293 300.621 185.851 300.117C186.41 299.613 187.181 299.188 188.08 298.845Z" fill="#61DAFB"/>
<path fill-rule="evenodd" clip-rule="evenodd" d="M191.661 294.359C191.149 294.193 190.81 294.236 190.591 294.363C190.371 294.49 190.164 294.762 190.052 295.288C189.939 295.814 189.94 296.522 190.077 297.382C190.352 299.096 191.151 301.272 192.428 303.485C193.706 305.697 195.191 307.477 196.538 308.572C197.214 309.121 197.827 309.476 198.339 309.641C198.851 309.807 199.19 309.764 199.409 309.637C199.629 309.51 199.835 309.238 199.948 308.712C200.06 308.186 200.06 307.478 199.922 306.618C199.648 304.904 198.849 302.728 197.572 300.515C196.294 298.303 194.809 296.523 193.462 295.428C192.786 294.879 192.173 294.524 191.661 294.359ZM194.272 294.43C195.77 295.647 197.35 297.56 198.685 299.872C200.02 302.185 200.887 304.51 201.192 306.415C201.344 307.365 201.363 308.246 201.205 308.981C201.048 309.717 200.696 310.378 200.052 310.75C199.408 311.122 198.659 311.096 197.943 310.865C197.228 310.633 196.474 310.177 195.727 309.57C194.23 308.353 192.65 306.44 191.315 304.128C189.979 301.815 189.113 299.49 188.808 297.585C188.656 296.635 188.637 295.754 188.795 295.019C188.952 294.283 189.303 293.622 189.948 293.25C190.592 292.877 191.341 292.904 192.057 293.135C192.772 293.367 193.526 293.823 194.272 294.43Z" fill="#61DAFB"/>
<path fill-rule="evenodd" clip-rule="evenodd" d="M199.948 295.288C199.835 294.762 199.629 294.49 199.409 294.363C199.19 294.236 198.851 294.193 198.339 294.359C197.827 294.524 197.214 294.879 196.538 295.428C195.191 296.523 193.706 298.303 192.428 300.515C191.151 302.728 190.352 304.904 190.077 306.618C189.94 307.478 189.939 308.186 190.052 308.712C190.164 309.238 190.371 309.51 190.591 309.637C190.81 309.764 191.149 309.807 191.661 309.641C192.173 309.476 192.786 309.121 193.462 308.572C194.809 307.477 196.294 305.697 197.572 303.485C198.849 301.272 199.648 299.096 199.922 297.382C200.06 296.522 200.06 295.814 199.948 295.288ZM201.192 297.585C200.887 299.49 200.02 301.815 198.685 304.128C197.35 306.44 195.77 308.353 194.273 309.57C193.526 310.177 192.772 310.633 192.057 310.864C191.341 311.096 190.592 311.122 189.948 310.75C189.303 310.378 188.952 309.717 188.795 308.981C188.637 308.246 188.656 307.365 188.808 306.415C189.113 304.51 189.979 302.185 191.315 299.872C192.65 297.56 194.23 295.647 195.727 294.43C196.474 293.823 197.228 293.367 197.943 293.135C198.659 292.904 199.408 292.877 200.052 293.249C200.696 293.621 201.048 294.283 201.205 295.019C201.363 295.754 201.344 296.635 201.192 297.585Z" fill="#61DAFB"/>
</g>
<g filter="url(#filter6_d_926_7611)">
<rect x="300" y="225" width="36" height="36" rx="8" fill="#241F1F" shape-rendering="crispEdges"/>
<path d="M327.627 237.563C327.634 237.59 327.638 237.617 327.638 237.644V241.911C327.638 241.966 327.623 242.02 327.596 242.067C327.568 242.115 327.529 242.154 327.481 242.181L323.9 244.243V248.33C323.9 248.441 323.841 248.544 323.744 248.6L316.269 252.903C316.252 252.913 316.233 252.919 316.215 252.926C316.208 252.928 316.201 252.932 316.194 252.934C316.141 252.948 316.086 252.948 316.034 252.934C316.026 252.932 316.018 252.927 316.01 252.924C315.992 252.918 315.975 252.912 315.958 252.903L308.484 248.6C308.437 248.572 308.397 248.533 308.37 248.486C308.343 248.438 308.328 248.385 308.328 248.33V235.529C308.328 235.501 308.332 235.474 308.339 235.448C308.341 235.439 308.347 235.431 308.35 235.422C308.356 235.405 308.361 235.389 308.37 235.373C308.375 235.363 308.384 235.355 308.391 235.346C308.4 235.333 308.408 235.32 308.419 235.31C308.428 235.301 308.439 235.294 308.449 235.286C308.461 235.277 308.471 235.267 308.484 235.259H308.484L312.221 233.108C312.268 233.08 312.322 233.066 312.377 233.066C312.431 233.066 312.485 233.08 312.532 233.108L316.269 235.259H316.27C316.283 235.267 316.293 235.277 316.304 235.286C316.314 235.294 316.326 235.301 316.335 235.309C316.346 235.32 316.353 235.333 316.363 235.346C316.369 235.355 316.378 235.363 316.384 235.373C316.393 235.389 316.398 235.405 316.404 235.422C316.407 235.431 316.412 235.439 316.415 235.448C316.422 235.475 316.426 235.502 316.426 235.529V243.524L319.54 241.731V237.644C319.54 237.617 319.544 237.589 319.551 237.563C319.553 237.554 319.559 237.546 319.562 237.537C319.568 237.52 319.573 237.504 319.582 237.488C319.588 237.478 319.596 237.47 319.603 237.461C319.612 237.448 319.62 237.436 319.631 237.425C319.64 237.416 319.651 237.409 319.661 237.401C319.673 237.392 319.683 237.382 319.695 237.375H319.696L323.433 235.223C323.481 235.196 323.534 235.181 323.589 235.181C323.644 235.181 323.697 235.196 323.744 235.223L327.482 237.375C327.495 237.382 327.505 237.392 327.517 237.401C327.526 237.409 327.538 237.416 327.547 237.424C327.557 237.436 327.565 237.448 327.575 237.461C327.582 237.47 327.59 237.478 327.596 237.488C327.605 237.504 327.61 237.52 327.616 237.537C327.619 237.546 327.624 237.554 327.627 237.563ZM327.015 241.731V238.183L325.707 238.936L323.9 239.976V243.524L327.015 241.731H327.015ZM323.277 248.15V244.599L321.5 245.614L316.425 248.511V252.095L323.277 248.15ZM308.951 236.068V248.15L315.802 252.094V248.511L312.223 246.485L312.222 246.485L312.22 246.484C312.208 246.477 312.198 246.467 312.187 246.458C312.177 246.45 312.166 246.444 312.157 246.436L312.157 246.434C312.146 246.425 312.139 246.413 312.131 246.402C312.123 246.391 312.114 246.382 312.108 246.371L312.107 246.37C312.1 246.359 312.096 246.345 312.091 246.331C312.086 246.32 312.079 246.309 312.076 246.296V246.296C312.072 246.281 312.071 246.266 312.07 246.25C312.068 246.239 312.065 246.227 312.065 246.215V237.861L310.259 236.82L308.951 236.068V236.068ZM312.377 233.737L309.263 235.529L312.376 237.322L315.49 235.529L312.376 233.737H312.377ZM313.996 244.923L315.803 243.883V236.068L314.495 236.821L312.688 237.861V245.676L313.996 244.923ZM323.589 235.852L320.476 237.644L323.589 239.437L326.702 237.644L323.589 235.852ZM323.277 239.976L321.471 238.936L320.163 238.183V241.731L321.969 242.771L323.277 243.524V239.976ZM316.113 247.972L320.68 245.365L322.963 244.062L319.852 242.271L316.27 244.333L313.005 246.213L316.113 247.972Z" fill="#FF2D20"/>
</g>
<g filter="url(#filter7_d_926_7611)">
<rect x="16" y="145" width="36" height="36" rx="8" fill="#241F1F" shape-rendering="crispEdges"/>
<path d="M26.7857 171.007L25.1814 153H42.8187L41.2145 170.997L33.9855 173" fill="#E44D26"/>
<path d="M34 171.469V154.478H41.2095L39.8337 169.84" fill="#F16529"/>
<path d="M28.458 156.68H34.0001V158.887H30.879L31.0832 161.148H34.0001V163.35H29.0608L28.458 156.68ZM29.1581 164.458H31.3749L31.5304 166.223L34.0001 166.884V169.189L29.4692 167.925" fill="#EBEBEB"/>
<path d="M39.5226 156.68H33.9902V158.887H39.3184L39.5226 156.68ZM39.1191 161.148H33.9902V163.355H36.7126L36.455 166.223L33.9902 166.884V169.179L38.5114 167.925" fill="#1E2235"/>
</g>
<path d="M189.551 66C189.551 67.9048 191.095 69.4489 193 69.4489C194.905 69.4489 196.449 67.9048 196.449 66C196.449 64.0952 194.905 62.5511 193 62.5511C191.095 62.5511 189.551 64.0952 189.551 66ZM192.353 66L192.353 67.2833L193.647 67.2833L193.647 66L192.353 66ZM192.353 69.85L192.353 72.4167L193.647 72.4167L193.647 69.85L192.353 69.85ZM192.353 74.9833L192.353 77.55L193.647 77.55L193.647 74.9833L192.353 74.9833ZM192.353 80.1167L192.353 82.6833L193.647 82.6833L193.647 80.1167L192.353 80.1167ZM192.353 85.25L192.353 87.8167L193.647 87.8167L193.647 85.25L192.353 85.25ZM192.353 90.3833L192.353 92.95L193.647 92.95L193.647 90.3833L192.353 90.3833ZM192.353 95.5167L192.353 98.0833L193.647 98.0833L193.647 95.5167L192.353 95.5167ZM192.353 100.65L192.353 103.217L193.647 103.217L193.647 100.65L192.353 100.65ZM192.353 105.783L192.353 108.35L193.647 108.35L193.647 105.783L192.353 105.783ZM192.353 110.917L192.353 113.483L193.647 113.483L193.647 110.917L192.353 110.917ZM192.353 116.05L192.353 118.617L193.647 118.617L193.647 116.05L192.353 116.05ZM192.353 121.183L192.353 123.75L193.647 123.75L193.647 121.183L192.353 121.183ZM192.353 126.317L192.353 128.883L193.647 128.883L193.647 126.317L192.353 126.317ZM192.353 131.45L192.353 134.017L193.647 134.017L193.647 131.45L192.353 131.45ZM192.353 136.583L192.353 139.15L193.647 139.15L193.647 136.583L192.353 136.583ZM192.353 141.717L192.353 143L193.647 143L193.647 141.717L192.353 141.717Z" fill="url(#paint8_linear_926_7611)"/>
<path d="M198.449 272C198.449 270.095 196.905 268.551 195 268.551C193.095 268.551 191.551 270.095 191.551 272C191.551 273.905 193.095 275.449 195 275.449C196.905 275.449 198.449 273.905 198.449 272ZM195.647 272L195.647 270.725L194.353 270.725L194.353 272L195.647 272ZM195.647 268.175L195.647 265.625L194.353 265.625L194.353 268.175L195.647 268.175ZM195.647 263.075L195.647 260.525L194.353 260.525L194.353 263.075L195.647 263.075ZM195.647 257.975L195.647 255.425L194.353 255.425L194.353 257.975L195.647 257.975ZM195.647 252.875L195.647 250.325L194.353 250.325L194.353 252.875L195.647 252.875ZM195.647 247.775L195.647 245.225L194.353 245.225L194.353 247.775L195.647 247.775ZM195.647 242.675L195.647 240.125L194.353 240.125L194.353 242.675L195.647 242.675ZM195.647 237.575L195.647 235.025L194.353 235.025L194.353 237.575L195.647 237.575ZM195.647 232.475L195.647 229.925L194.353 229.925L194.353 232.475L195.647 232.475ZM195.647 227.375L195.647 224.825L194.353 224.825L194.353 227.375L195.647 227.375ZM195.647 222.275L195.647 219.725L194.353 219.725L194.353 222.275L195.647 222.275ZM195.647 217.175L195.647 214.625L194.353 214.625L194.353 217.175L195.647 217.175ZM195.647 212.075L195.647 209.525L194.353 209.525L194.353 212.075L195.647 212.075ZM195.647 206.975L195.647 204.425L194.353 204.425L194.353 206.975L195.647 206.975ZM195.647 201.875L195.647 199.325L194.353 199.325L194.353 201.875L195.647 201.875ZM195.647 196.775L195.647 194.225L194.353 194.225L194.353 196.775L195.647 196.775ZM195.647 191.675L195.647 189.125L194.353 189.125L194.353 191.675L195.647 191.675ZM195.647 186.575L195.647 184.025L194.353 184.025L194.353 186.575L195.647 186.575ZM195.647 181.475L195.647 178.925L194.353 178.925L194.353 181.475L195.647 181.475ZM195.647 176.375L195.647 173.825L194.353 173.825L194.353 176.375L195.647 176.375ZM195.647 171.275L195.647 170L194.353 170L194.353 171.275L195.647 171.275Z" fill="url(#paint9_linear_926_7611)"/>
<path d="M281.284 92.0413C279.65 93.0201 279.119 95.1382 280.097 96.7723C281.076 98.4063 283.194 98.9375 284.828 97.9587C286.462 96.9799 286.994 94.8618 286.015 93.2277C285.036 91.5937 282.918 91.0625 281.284 92.0413ZM282.724 94.4452L281.623 95.1047L282.287 96.2142L283.388 95.5548L282.724 94.4452ZM279.421 96.4236L277.219 97.7425L277.884 98.8521L280.086 97.5331L279.421 96.4236ZM275.017 99.0615L272.815 100.38L273.48 101.49L275.682 100.171L275.017 99.0615ZM270.613 101.699L268.412 103.018L269.076 104.128L271.278 102.809L270.613 101.699ZM266.21 104.337L264.008 105.656L264.672 106.766L266.874 105.447L266.21 104.337ZM261.806 106.975L259.604 108.294L260.269 109.403L262.471 108.085L261.806 106.975ZM257.402 109.613L255.2 110.932L255.865 112.041L258.067 110.722L257.402 109.613ZM252.999 112.251L250.797 113.57L251.461 114.679L253.663 113.36L252.999 112.251ZM248.595 114.889L246.393 116.207L247.058 117.317L249.259 115.998L248.595 114.889ZM244.191 117.526L241.989 118.845L242.654 119.955L244.856 118.636L244.191 117.526ZM239.787 120.164L237.585 121.483L238.25 122.593L240.452 121.274L239.787 120.164ZM235.384 122.802L233.182 124.121L233.846 125.23L236.048 123.912L235.384 122.802ZM230.98 125.44L228.778 126.759L229.443 127.868L231.644 126.549L230.98 125.44ZM226.576 128.078L224.374 129.397L225.039 130.506L227.241 129.187L226.576 128.078ZM222.172 130.716L219.971 132.034L220.635 133.144L222.837 131.825L222.172 130.716ZM217.769 133.353L216.668 134.013L217.332 135.122L218.433 134.463L217.769 133.353Z" fill="url(#paint10_linear_926_7611)"/>
<path d="M286.731 231.373C285.096 230.394 284.565 228.276 285.544 226.642C286.523 225.008 288.641 224.477 290.275 225.456C291.909 226.434 292.44 228.553 291.462 230.187C290.483 231.821 288.365 232.352 286.731 231.373ZM288.171 228.969L287.077 228.314L287.741 227.204L288.835 227.86L288.171 228.969ZM284.889 227.004L282.702 225.693L283.366 224.584L285.554 225.894L284.889 227.004ZM280.514 224.383L278.326 223.072L278.991 221.963L281.179 223.273L280.514 224.383ZM276.139 221.762L273.951 220.452L274.616 219.342L276.803 220.653L276.139 221.762ZM271.764 219.141L269.576 217.831L270.241 216.722L272.428 218.032L271.764 219.141ZM267.389 216.521L265.201 215.21L265.866 214.101L268.053 215.411L267.389 216.521ZM263.013 213.9L260.826 212.59L261.49 211.48L263.678 212.79L263.013 213.9ZM258.638 211.279L256.451 209.969L257.115 208.859L259.303 210.17L258.638 211.279ZM254.263 208.659L252.076 207.348L252.74 206.239L254.928 207.549L254.263 208.659ZM249.888 206.038L247.7 204.727L248.365 203.618L250.553 204.928L249.888 206.038ZM245.513 203.417L243.325 202.107L243.99 200.997L246.177 202.308L245.513 203.417ZM241.138 200.796L238.95 199.486L239.615 198.377L241.802 199.687L241.138 200.796ZM236.763 198.176L234.575 196.865L235.24 195.756L237.427 197.066L236.763 198.176ZM232.387 195.555L230.2 194.245L230.865 193.135L233.052 194.445L232.387 195.555ZM228.012 192.934L225.825 191.624L226.489 190.514L228.677 191.825L228.012 192.934ZM223.637 190.314L221.45 189.003L222.114 187.894L224.302 189.204L223.637 190.314ZM219.262 187.693L217.074 186.382L217.739 185.273L219.927 186.583L219.262 187.693ZM214.887 185.072L212.699 183.762L213.364 182.652L215.551 183.963L214.887 185.072ZM210.512 182.451L208.324 181.141L208.989 180.032L211.176 181.342L210.512 182.451ZM206.137 179.831L203.949 178.52L204.614 177.411L206.801 178.721L206.137 179.831ZM201.761 177.21L200.668 176.555L201.332 175.445L202.426 176.1L201.761 177.21Z" fill="url(#paint11_linear_926_7611)"/>
<path d="M323 159.335C321.095 159.335 319.551 160.879 319.551 162.784C319.551 164.689 321.095 166.233 323 166.233C324.905 166.233 326.449 164.689 326.449 162.784C326.449 160.879 324.905 159.335 323 159.335ZM323 162.137H321.684V163.43H323V162.137ZM319.053 162.137H316.421V163.43H319.053V162.137ZM313.789 162.137H311.158V163.43H313.789V162.137ZM308.526 162.137H305.895V163.43H308.526V162.137ZM303.263 162.137H300.632V163.43H303.263V162.137ZM298 162.137H295.368V163.43H298V162.137ZM292.737 162.137H290.105V163.43H292.737V162.137ZM287.474 162.137H284.842V163.43H287.474V162.137ZM282.211 162.137H279.579V163.43H282.211V162.137ZM276.947 162.137H274.316V163.43H276.947V162.137ZM271.684 162.137H269.053V163.43H271.684V162.137ZM266.421 162.137H263.789V163.43H266.421V162.137ZM261.158 162.137H258.526V163.43H261.158V162.137ZM255.895 162.137H253.263V163.43H255.895V162.137ZM250.632 162.137H248V163.43H250.632V162.137ZM245.368 162.137H242.737V163.43H245.368V162.137ZM240.105 162.137H237.474V163.43H240.105V162.137ZM234.842 162.137H232.211V163.43H234.842V162.137ZM229.579 162.137H226.947V163.43H229.579V162.137ZM224.316 162.137H223V163.43H224.316V162.137Z" fill="url(#paint12_linear_926_7611)"/>
<path d="M64 159.335C65.9048 159.335 67.4489 160.879 67.4489 162.784C67.4489 164.689 65.9048 166.233 64 166.233C62.0952 166.233 60.5511 164.689 60.5511 162.784C60.5511 160.879 62.0952 159.335 64 159.335ZM64 162.137H65.2833V163.43H64V162.137ZM67.85 162.137H70.4167V163.43H67.85V162.137ZM72.9833 162.137H75.55V163.43H72.9833V162.137ZM78.1167 162.137H80.6833V163.43H78.1167V162.137ZM83.25 162.137H85.8167V163.43H83.25V162.137ZM88.3833 162.137H90.95V163.43H88.3833V162.137ZM93.5167 162.137H96.0833V163.43H93.5167V162.137ZM98.65 162.137H101.217V163.43H98.65V162.137ZM103.783 162.137H106.35V163.43H103.783V162.137ZM108.917 162.137H111.483V163.43H108.917V162.137ZM114.05 162.137H116.617V163.43H114.05V162.137ZM119.183 162.137H121.75V163.43H119.183V162.137ZM124.317 162.137H126.883V163.43H124.317V162.137ZM129.45 162.137H132.017V163.43H129.45V162.137ZM134.583 162.137H137.15V163.43H134.583V162.137ZM139.717 162.137H141V163.43H139.717V162.137Z" fill="url(#paint13_linear_926_7611)"/>
<path d="M103.772 92.0413C105.406 93.0201 105.937 95.1382 104.959 96.7723C103.98 98.4063 101.862 98.9375 100.228 97.9587C98.5937 96.9799 98.0625 94.8618 99.0413 93.2277C100.02 91.5937 102.138 91.0625 103.772 92.0413ZM102.332 94.4452L103.433 95.1047L102.769 96.2142L101.668 95.5548L102.332 94.4452ZM105.635 96.4236L107.837 97.7425L107.172 98.8521L104.971 97.5331L105.635 96.4236ZM110.039 99.0615L112.241 100.38L111.576 101.49L109.374 100.171L110.039 99.0615ZM114.443 101.699L116.644 103.018L115.98 104.128L113.778 102.809L114.443 101.699ZM118.846 104.337L121.048 105.656L120.384 106.766L118.182 105.447L118.846 104.337ZM123.25 106.975L125.452 108.294L124.787 109.403L122.585 108.085L123.25 106.975ZM127.654 109.613L129.856 110.932L129.191 112.041L126.989 110.722L127.654 109.613ZM132.058 112.251L134.259 113.57L133.595 114.679L131.393 113.36L132.058 112.251ZM136.461 114.889L138.663 116.207L137.999 117.317L135.797 115.998L136.461 114.889ZM140.865 117.526L143.067 118.845L142.402 119.955L140.2 118.636L140.865 117.526ZM145.269 120.164L147.471 121.483L146.806 122.593L144.604 121.274L145.269 120.164ZM149.672 122.802L151.874 124.121L151.21 125.23L149.008 123.912L149.672 122.802ZM154.076 125.44L156.278 126.759L155.613 127.868L153.412 126.549L154.076 125.44ZM158.48 128.078L160.682 129.397L160.017 130.506L157.815 129.187L158.48 128.078ZM162.884 130.716L165.086 132.034L164.421 133.144L162.219 131.825L162.884 130.716ZM167.287 133.353L168.388 134.013L167.724 135.122L166.623 134.463L167.287 133.353Z" fill="url(#paint14_linear_926_7611)"/>
<path d="M96.8811 234.891C98.4776 233.852 98.9296 231.715 97.8907 230.119C96.8518 228.522 94.7154 228.07 93.1189 229.109C91.5224 230.148 91.0704 232.285 92.1093 233.881C93.1482 235.478 95.2846 235.93 96.8811 234.891ZM95.3527 232.542L96.4214 231.847L95.7159 230.763L94.6473 231.458L95.3527 232.542ZM98.5587 230.456L100.696 229.065L99.9906 227.981L97.8533 229.372L98.5587 230.456ZM102.833 227.674L104.971 226.283L104.265 225.199L102.128 226.59L102.833 227.674ZM107.108 224.892L109.245 223.502L108.54 222.418L106.402 223.808L107.108 224.892ZM111.383 222.111L113.52 220.72L112.814 219.636L110.677 221.027L111.383 222.111ZM115.657 219.329L117.794 217.938L117.089 216.854L114.952 218.245L115.657 219.329ZM119.932 216.547L122.069 215.157L121.364 214.073L119.226 215.463L119.932 216.547ZM124.206 213.766L126.344 212.375L125.638 211.291L123.501 212.682L124.206 213.766ZM128.481 210.984L130.618 209.593L129.913 208.509L127.776 209.9L128.481 210.984ZM132.756 208.202L134.893 206.812L134.188 205.728L132.05 207.118L132.756 208.202ZM137.03 205.421L139.168 204.03L138.462 202.946L136.325 204.337L137.03 205.421ZM141.305 202.639L143.442 201.248L142.737 200.164L140.599 201.555L141.305 202.639ZM145.579 199.858L147.717 198.467L147.011 197.383L144.874 198.773L145.579 199.858ZM149.854 197.076L151.991 195.685L151.286 194.601L149.149 195.992L149.854 197.076ZM154.129 194.294L156.266 192.903L155.561 191.819L153.423 193.21L154.129 194.294ZM158.403 191.513L160.541 190.122L159.835 189.038L157.698 190.428L158.403 191.513ZM162.678 188.731L164.815 187.34L164.11 186.256L161.973 187.647L162.678 188.731ZM166.953 185.949L169.09 184.558L168.384 183.474L166.247 184.865L166.953 185.949ZM171.227 183.168L173.365 181.777L172.659 180.693L170.522 182.084L171.227 183.168ZM175.502 180.386L177.639 178.995L176.934 177.911L174.796 179.302L175.502 180.386ZM179.776 177.604L180.845 176.909L180.14 175.825L179.071 176.52L179.776 177.604Z" fill="url(#paint15_linear_926_7611)"/>
<g filter="url(#filter8_b_926_7611)">
<rect width="142.366" height="46.5181" transform="translate(115 117.34)" fill="#0F0202" fill-opacity="0.5"/>
<path d="M175.297 135.05C173.726 134.516 172.385 134.196 172.385 133.037C172.385 132.122 173.071 131.421 174.382 131.421C175.495 131.421 176.349 131.863 176.959 132.793L179.154 131.131C177.995 129.942 176.654 129.058 174.367 129.058C171.622 129.058 169.64 130.857 169.64 133.144C169.64 135.858 171.76 136.589 173.681 137.215C175.19 137.687 176.654 138.068 176.654 139.273C176.654 140.264 175.891 141.194 174.489 141.194C173.178 141.194 172.08 140.508 171.363 139.258L168.939 141.179C170.25 142.642 171.943 143.74 174.504 143.74C177.63 143.74 179.429 141.545 179.429 139.303C179.413 136.528 177.233 135.675 175.297 135.05Z" fill="white"/>
<path d="M186.442 131.833C183.133 131.833 180.511 134.455 180.511 137.794C180.511 141.072 183.133 143.74 186.442 143.74C189.72 143.74 192.358 141.087 192.358 137.794C192.358 134.455 189.72 131.833 186.442 131.833ZM186.442 141.255C184.551 141.255 183.118 139.685 183.118 137.794C183.118 135.858 184.551 134.318 186.442 134.318C188.317 134.318 189.766 135.858 189.766 137.794C189.766 139.7 188.317 141.255 186.442 141.255Z" fill="white"/>
<path d="M202.954 128.524L200.301 130.339V132.519H202.664V134.882H200.301V138.739C200.301 142.368 201.383 143.511 204.92 143.511H205.286V141.026C203.258 141.026 202.954 140.706 202.954 138.724V134.882H205.286V132.519H202.954V128.524Z" fill="white"/>
<path d="M222.82 128.982H220.167V143.451H222.82V128.982Z" fill="white"/>
<path d="M242.976 136.513C241.253 136.147 240.353 135.949 240.353 135.187C240.353 134.547 240.933 133.952 242.198 133.952C243.296 133.952 244.15 134.455 244.622 135.263L246.864 134.135C245.979 132.671 244.516 131.772 242.198 131.772C239.484 131.772 237.7 133.434 237.7 135.263C237.7 137.672 239.759 138.297 241.71 138.709C243.113 139.029 244.394 139.181 244.394 140.02C244.394 140.782 243.753 141.407 242.442 141.407C241.192 141.407 240.231 140.828 239.682 139.746L237.243 140.92C238.158 142.719 239.759 143.694 242.32 143.694C245.583 143.694 247.016 141.56 247.016 139.959C247.016 137.55 244.866 136.879 242.976 136.513Z" fill="white"/>
<path d="M215.959 137.885C215.852 139.685 214.45 141.118 212.65 141.118C210.821 141.118 209.418 139.654 209.327 137.84V132.549H206.72V137.642V137.657V137.84C206.811 141.041 209.403 143.603 212.635 143.603C213.87 143.603 215.014 143.222 215.944 142.597V143.145C215.944 143.176 215.944 143.222 215.944 143.252V143.603C215.898 145.31 214.663 146.728 213.032 146.927V149.412C216.096 149.214 218.49 146.698 218.551 143.588V137.642V137.626V132.534H215.944V137.885H215.959Z" fill="white"/>
<path d="M195.91 132.976C195.91 132.946 195.91 132.915 195.91 132.869V132.534C195.956 130.918 197.115 129.591 198.655 129.393V127.045C195.773 127.243 193.501 129.607 193.456 132.534V143.359H195.91V137.962C195.987 136.376 197.13 135.08 198.655 134.882V132.534C197.633 132.595 196.703 132.946 195.91 133.479V132.976Z" fill="white"/>
<path d="M233.736 137.642C233.736 139.548 232.303 141.118 230.428 141.118C228.598 141.118 227.195 139.654 227.104 137.84V132.549H224.497V137.642V137.657V137.84C224.588 141.042 227.18 143.603 230.412 143.603C233.69 143.603 236.328 140.95 236.328 137.657V137.642V132.549H233.721V137.642H233.736Z" fill="white"/>
<path d="M174.459 150.77V151.504H172.176V157.808H171.382V151.504H169.09V150.77H174.459ZM180.14 155.315C180.14 155.456 180.14 155.516 180.13 155.687H176.46C176.511 156.803 176.963 157.245 177.999 157.245C178.773 157.245 179.084 157.054 179.306 156.431L180.029 156.712C179.698 157.547 178.883 157.909 177.999 157.909C176.581 157.909 175.666 156.944 175.666 155.446C175.666 153.978 176.641 152.982 177.958 152.982C179.235 152.982 180.14 153.867 180.14 155.315ZM177.948 153.636C177.043 153.636 176.561 154.088 176.47 155.053H179.366C179.306 154.038 178.903 153.636 177.948 153.636ZM185.189 157.215C186.023 157.215 186.476 156.893 186.677 155.858L187.461 156.069C187.169 157.306 186.325 157.909 185.199 157.909C183.751 157.909 182.756 156.923 182.756 155.446C182.756 153.968 183.751 152.982 185.199 152.982C186.325 152.982 187.169 153.586 187.461 154.822L186.677 155.033C186.476 153.998 186.023 153.676 185.189 153.676C184.073 153.676 183.55 154.239 183.55 155.446C183.55 156.652 184.073 157.215 185.189 157.215ZM192.977 152.982C194.083 152.982 194.696 153.646 194.696 154.832V157.808H193.922V154.883C193.922 154.108 193.459 153.686 192.755 153.686C191.831 153.686 191.247 154.4 191.247 155.627V157.808H190.473V150.77H191.247V154.249C191.479 153.505 191.981 152.982 192.977 152.982ZM200.567 152.982C201.673 152.982 202.286 153.646 202.286 154.832V157.808H201.512V154.883C201.512 154.108 201.05 153.686 200.346 153.686C199.421 153.686 198.838 154.4 198.838 155.627V157.808H198.064V153.083H198.838V154.249C199.069 153.505 199.572 152.982 200.567 152.982ZM207.695 152.982C209.052 152.982 210.138 153.968 210.138 155.446C210.138 156.923 209.052 157.909 207.695 157.909C206.338 157.909 205.252 156.923 205.252 155.446C205.252 153.968 206.338 152.982 207.695 152.982ZM207.695 157.205C208.811 157.205 209.344 156.642 209.344 155.446C209.344 154.249 208.811 153.686 207.695 153.686C206.579 153.686 206.046 154.249 206.046 155.446C206.046 156.642 206.579 157.205 207.695 157.205ZM213.156 157.808V150.77H213.93V157.808H213.156ZM219.39 152.982C220.747 152.982 221.833 153.968 221.833 155.446C221.833 156.923 220.747 157.909 219.39 157.909C218.033 157.909 216.947 156.923 216.947 155.446C216.947 153.968 218.033 152.982 219.39 152.982ZM219.39 157.205C220.506 157.205 221.039 156.642 221.039 155.446C221.039 154.249 220.506 153.686 219.39 153.686C218.274 153.686 217.741 154.249 217.741 155.446C217.741 156.642 218.274 157.205 219.39 157.205ZM228.33 153.083H229.104V157.587C229.104 158.804 228.229 159.618 226.801 159.618C225.595 159.618 224.841 159.186 224.509 158.281L225.253 157.929C225.525 158.733 225.836 158.934 226.801 158.934C227.887 158.934 228.33 158.502 228.33 157.587V156.612C228.008 157.235 227.415 157.617 226.631 157.617C225.364 157.617 224.449 156.662 224.449 155.305C224.449 153.937 225.364 152.982 226.631 152.982C227.415 152.982 228.008 153.364 228.33 153.988V153.083ZM226.801 156.903C227.877 156.903 228.39 156.391 228.39 155.305C228.39 154.209 227.887 153.686 226.822 153.686C225.746 153.686 225.243 154.209 225.243 155.305C225.243 156.391 225.746 156.903 226.801 156.903ZM232.922 151.917C232.56 151.917 232.349 151.705 232.339 151.344C232.329 150.992 232.54 150.801 232.922 150.801C233.274 150.801 233.475 150.992 233.485 151.344C233.495 151.705 233.294 151.917 232.922 151.917ZM232.52 157.808V153.083H233.294V157.808H232.52ZM240.785 155.315C240.785 155.456 240.785 155.516 240.775 155.687H237.105C237.155 156.803 237.608 157.245 238.643 157.245C239.418 157.245 239.729 157.054 239.95 156.431L240.674 156.712C240.343 157.547 239.528 157.909 238.643 157.909C237.226 157.909 236.311 156.944 236.311 155.446C236.311 153.978 237.286 152.982 238.603 152.982C239.88 152.982 240.785 153.867 240.785 155.315ZM238.593 153.636C237.688 153.636 237.206 154.088 237.115 155.053H240.011C239.95 154.038 239.548 153.636 238.593 153.636ZM245.391 157.909C244.366 157.909 243.602 157.426 243.38 156.451L244.144 156.2C244.275 156.964 244.657 157.225 245.441 157.225C246.155 157.225 246.497 157.024 246.497 156.582C246.497 156.179 246.356 156.039 245.783 155.928L244.858 155.747C244.175 155.616 243.541 155.275 243.541 154.4C243.541 153.545 244.235 152.982 245.281 152.982C246.185 152.982 246.98 153.344 247.181 154.48L246.417 154.692C246.316 153.797 245.934 153.666 245.311 153.666C244.637 153.666 244.325 153.877 244.325 154.34C244.325 154.722 244.466 154.903 244.899 154.983L246.085 155.214C246.779 155.345 247.261 155.697 247.261 156.451C247.261 157.326 246.517 157.909 245.391 157.909Z" fill="white"/>
<g filter="url(#filter9_d_926_7611)">
<path d="M160.156 130.978L150.52 125.413L138.399 141.681L142.379 144.791V151.942L131.965 144.12C131.112 143.48 130.929 142.26 131.569 141.406L145.596 122.577C144.193 121.815 142.485 121.83 141.098 122.638L126.66 130.978C125.226 131.801 124.357 133.326 124.357 134.972V151.637C124.357 153.283 125.242 154.808 126.66 155.631L136.25 161.166L148.416 145.233L144.559 142.55V135.689L154.774 142.824C155.689 143.465 155.887 144.715 155.201 145.599L141.144 164.017C142.562 164.795 144.285 164.795 145.687 163.971L160.126 155.631C161.559 154.808 162.428 153.283 162.428 151.637V134.972C162.458 133.326 161.574 131.801 160.156 130.978Z" fill="#EC2227"/>
</g>
</g>
<defs>
<filter id="filter0_d_926_7611" x="168.533" y="15.12" width="48.9333" height="48.9333" filterUnits="userSpaceOnUse" color-interpolation-filters="sRGB">
<feFlood flood-opacity="0" result="BackgroundImageFix"/>
<feColorMatrix in="SourceAlpha" type="matrix" values="0 0 0 0 0 0 0 0 0 0 0 0 0 0 0 0 0 0 127 0" result="hardAlpha"/>
<feOffset dy="2.58667"/>
<feGaussianBlur stdDeviation="3.23333"/>
<feComposite in2="hardAlpha" operator="out"/>
<feColorMatrix type="matrix" values="0 0 0 0 0 0 0 0 0 0 0 0 0 0 0 0 0 0 0.4 0"/>
<feBlend mode="normal" in2="BackgroundImageFix" result="effect1_dropShadow_926_7611"/>
<feBlend mode="normal" in="SourceGraphic" in2="effect1_dropShadow_926_7611" result="shape"/>
</filter>
<filter id="filter1_d_926_7611" x="294.533" y="67.12" width="49.6799" height="49.68" filterUnits="userSpaceOnUse" color-interpolation-filters="sRGB">
<feFlood flood-opacity="0" result="BackgroundImageFix"/>
<feColorMatrix in="SourceAlpha" type="matrix" values="0 0 0 0 0 0 0 0 0 0 0 0 0 0 0 0 0 0 127 0" result="hardAlpha"/>
<feOffset dy="2.58667"/>
<feGaussianBlur stdDeviation="3.23333"/>
<feComposite in2="hardAlpha" operator="out"/>
<feColorMatrix type="matrix" values="0 0 0 0 0 0 0 0 0 0 0 0 0 0 0 0 0 0 0.4 0"/>
<feBlend mode="normal" in2="BackgroundImageFix" result="effect1_dropShadow_926_7611"/>
<feBlend mode="normal" in="SourceGraphic" in2="effect1_dropShadow_926_7611" result="shape"/>
</filter>
<filter id="filter2_d_926_7611" x="47.5333" y="67.12" width="48.9333" height="48.9333" filterUnits="userSpaceOnUse" color-interpolation-filters="sRGB">
<feFlood flood-opacity="0" result="BackgroundImageFix"/>
<feColorMatrix in="SourceAlpha" type="matrix" values="0 0 0 0 0 0 0 0 0 0 0 0 0 0 0 0 0 0 127 0" result="hardAlpha"/>
<feOffset dy="2.58667"/>
<feGaussianBlur stdDeviation="3.23333"/>
<feComposite in2="hardAlpha" operator="out"/>
<feColorMatrix type="matrix" values="0 0 0 0 0 0 0 0 0 0 0 0 0 0 0 0 0 0 0.4 0"/>
<feBlend mode="normal" in2="BackgroundImageFix" result="effect1_dropShadow_926_7611"/>
<feBlend mode="normal" in="SourceGraphic" in2="effect1_dropShadow_926_7611" result="shape"/>
</filter>
<filter id="filter3_d_926_7611" x="38.5333" y="229.12" width="48.9333" height="48.9333" filterUnits="userSpaceOnUse" color-interpolation-filters="sRGB">
<feFlood flood-opacity="0" result="BackgroundImageFix"/>
<feColorMatrix in="SourceAlpha" type="matrix" values="0 0 0 0 0 0 0 0 0 0 0 0 0 0 0 0 0 0 127 0" result="hardAlpha"/>
<feOffset dy="2.58667"/>
<feGaussianBlur stdDeviation="3.23333"/>
<feComposite in2="hardAlpha" operator="out"/>
<feColorMatrix type="matrix" values="0 0 0 0 0 0 0 0 0 0 0 0 0 0 0 0 0 0 0.4 0"/>
<feBlend mode="normal" in2="BackgroundImageFix" result="effect1_dropShadow_926_7611"/>
<feBlend mode="normal" in="SourceGraphic" in2="effect1_dropShadow_926_7611" result="shape"/>
</filter>
<filter id="filter4_d_926_7611" x="330.533" y="141.12" width="48.9333" height="48.9333" filterUnits="userSpaceOnUse" color-interpolation-filters="sRGB">
<feFlood flood-opacity="0" result="BackgroundImageFix"/>
<feColorMatrix in="SourceAlpha" type="matrix" values="0 0 0 0 0 0 0 0 0 0 0 0 0 0 0 0 0 0 127 0" result="hardAlpha"/>
<feOffset dy="2.58667"/>
<feGaussianBlur stdDeviation="3.23333"/>
<feComposite in2="hardAlpha" operator="out"/>
<feColorMatrix type="matrix" values="0 0 0 0 0 0 0 0 0 0 0 0 0 0 0 0 0 0 0.4 0"/>
<feBlend mode="normal" in2="BackgroundImageFix" result="effect1_dropShadow_926_7611"/>
<feBlend mode="normal" in="SourceGraphic" in2="effect1_dropShadow_926_7611" result="shape"/>
</filter>
<filter id="filter5_d_926_7611" x="170.533" y="280.12" width="48.9333" height="48.9333" filterUnits="userSpaceOnUse" color-interpolation-filters="sRGB">
<feFlood flood-opacity="0" result="BackgroundImageFix"/>
<feColorMatrix in="SourceAlpha" type="matrix" values="0 0 0 0 0 0 0 0 0 0 0 0 0 0 0 0 0 0 127 0" result="hardAlpha"/>
<feOffset dy="2.58667"/>
<feGaussianBlur stdDeviation="3.23333"/>
<feComposite in2="hardAlpha" operator="out"/>
<feColorMatrix type="matrix" values="0 0 0 0 0 0 0 0 0 0 0 0 0 0 0 0 0 0 0.4 0"/>
<feBlend mode="normal" in2="BackgroundImageFix" result="effect1_dropShadow_926_7611"/>
<feBlend mode="normal" in="SourceGraphic" in2="effect1_dropShadow_926_7611" result="shape"/>
</filter>
<filter id="filter6_d_926_7611" x="293.533" y="221.12" width="48.9333" height="48.9333" filterUnits="userSpaceOnUse" color-interpolation-filters="sRGB">
<feFlood flood-opacity="0" result="BackgroundImageFix"/>
<feColorMatrix in="SourceAlpha" type="matrix" values="0 0 0 0 0 0 0 0 0 0 0 0 0 0 0 0 0 0 127 0" result="hardAlpha"/>
<feOffset dy="2.58667"/>
<feGaussianBlur stdDeviation="3.23333"/>
<feComposite in2="hardAlpha" operator="out"/>
<feColorMatrix type="matrix" values="0 0 0 0 0 0 0 0 0 0 0 0 0 0 0 0 0 0 0.4 0"/>
<feBlend mode="normal" in2="BackgroundImageFix" result="effect1_dropShadow_926_7611"/>
<feBlend mode="normal" in="SourceGraphic" in2="effect1_dropShadow_926_7611" result="shape"/>
</filter>
<filter id="filter7_d_926_7611" x="9.53333" y="141.12" width="48.9333" height="48.9333" filterUnits="userSpaceOnUse" color-interpolation-filters="sRGB">
<feFlood flood-opacity="0" result="BackgroundImageFix"/>
<feColorMatrix in="SourceAlpha" type="matrix" values="0 0 0 0 0 0 0 0 0 0 0 0 0 0 0 0 0 0 127 0" result="hardAlpha"/>
<feOffset dy="2.58667"/>
<feGaussianBlur stdDeviation="3.23333"/>
<feComposite in2="hardAlpha" operator="out"/>
<feColorMatrix type="matrix" values="0 0 0 0 0 0 0 0 0 0 0 0 0 0 0 0 0 0 0.4 0"/>
<feBlend mode="normal" in2="BackgroundImageFix" result="effect1_dropShadow_926_7611"/>
<feBlend mode="normal" in="SourceGraphic" in2="effect1_dropShadow_926_7611" result="shape"/>
</filter>
<filter id="filter8_b_926_7611" x="110.321" y="112.661" width="151.724" height="56.6124" filterUnits="userSpaceOnUse" color-interpolation-filters="sRGB">
<feFlood flood-opacity="0" result="BackgroundImageFix"/>
<feGaussianBlur in="BackgroundImageFix" stdDeviation="2.33935"/>
<feComposite in2="SourceAlpha" operator="in" result="effect1_backgroundBlur_926_7611"/>
<feBlend mode="normal" in="SourceGraphic" in2="effect1_backgroundBlur_926_7611" result="shape"/>
</filter>
<filter id="filter9_d_926_7611" x="118.755" y="116.416" width="49.2754" height="53.7805" filterUnits="userSpaceOnUse" color-interpolation-filters="sRGB">
<feFlood flood-opacity="0" result="BackgroundImageFix"/>
<feColorMatrix in="SourceAlpha" type="matrix" values="0 0 0 0 0 0 0 0 0 0 0 0 0 0 0 0 0 0 127 0" result="hardAlpha"/>
<feOffset/>
<feGaussianBlur stdDeviation="2.80107"/>
<feComposite in2="hardAlpha" operator="out"/>
<feColorMatrix type="matrix" values="0 0 0 0 0.92549 0 0 0 0 0.133333 0 0 0 0 0.152941 0 0 0 0.24 0"/>
<feBlend mode="normal" in2="BackgroundImageFix" result="effect1_dropShadow_926_7611"/>
<feBlend mode="normal" in="SourceGraphic" in2="effect1_dropShadow_926_7611" result="shape"/>
</filter>
<linearGradient id="paint0_linear_926_7611" x1="320.398" y1="95.5487" x2="320.818" y2="95.9869" gradientUnits="userSpaceOnUse">
<stop offset="0.2" stop-opacity="0.15"/>
<stop offset="0.85" stop-color="#616161" stop-opacity="0.01"/>
</linearGradient>
<linearGradient id="paint1_linear_926_7611" x1="318.859" y1="95.5171" x2="323.428" y2="95.6129" gradientUnits="userSpaceOnUse">
<stop offset="0.2" stop-opacity="0.55"/>
<stop offset="0.85" stop-color="#616161" stop-opacity="0.01"/>
</linearGradient>
<linearGradient id="paint2_linear_926_7611" x1="49.4304" y1="259.277" x2="68.0414" y2="240.666" gradientUnits="userSpaceOnUse">
<stop stop-color="#C757BC"/>
<stop offset="0.108" stop-color="#C757BC"/>
<stop offset="0.173" stop-color="#CD5CA9"/>
<stop offset="0.492" stop-color="#E8744F"/>
<stop offset="0.716" stop-color="#F88316"/>
<stop offset="0.823" stop-color="#FF8900"/>
<stop offset="1" stop-color="#FF8900"/>
</linearGradient>
<linearGradient id="paint3_linear_926_7611" x1="59.4608" y1="264.603" x2="68.5321" y2="255.531" gradientUnits="userSpaceOnUse">
<stop stop-color="#00AFFF"/>
<stop offset="0.296" stop-color="#00AFFF"/>
<stop offset="0.694" stop-color="#5282FF"/>
<stop offset="1" stop-color="#945DFF"/>
</linearGradient>
<linearGradient id="paint4_linear_926_7611" x1="52.7891" y1="246.527" x2="59.1527" y2="240.163" gradientUnits="userSpaceOnUse">
<stop stop-color="#00AFFF"/>
<stop offset="0.296" stop-color="#00AFFF"/>
<stop offset="0.694" stop-color="#5282FF"/>
<stop offset="1" stop-color="#945DFF"/>
</linearGradient>
<linearGradient id="paint5_linear_926_7611" x1="49.5421" y1="259.389" x2="68.1531" y2="240.778" gradientUnits="userSpaceOnUse">
<stop stop-color="#AD4CA4"/>
<stop offset="0.108" stop-color="#AD4CA4"/>
<stop offset="0.173" stop-color="#B25093"/>
<stop offset="0.492" stop-color="#CA6545"/>
<stop offset="0.716" stop-color="#D87213"/>
<stop offset="0.823" stop-color="#DE7700"/>
<stop offset="1" stop-color="#DE7700"/>
</linearGradient>
<linearGradient id="paint6_linear_926_7611" x1="59.4608" y1="264.603" x2="68.5321" y2="255.531" gradientUnits="userSpaceOnUse">
<stop stop-color="#0098DE"/>
<stop offset="0.296" stop-color="#0098DE"/>
<stop offset="0.694" stop-color="#4771DE"/>
<stop offset="1" stop-color="#8151DE"/>
</linearGradient>
<linearGradient id="paint7_linear_926_7611" x1="55.2901" y1="249.028" x2="61.6537" y2="242.664" gradientUnits="userSpaceOnUse">
<stop stop-color="#0098DE"/>
<stop offset="0.296" stop-color="#0098DE"/>
<stop offset="0.694" stop-color="#4771DE"/>
<stop offset="1" stop-color="#8151DE"/>
</linearGradient>
<linearGradient id="paint8_linear_926_7611" x1="193.5" y1="66" x2="193.5" y2="143" gradientUnits="userSpaceOnUse">
<stop stop-color="#F5F5F5"/>
<stop offset="1" stop-color="#F5F5F5" stop-opacity="0"/>
</linearGradient>
<linearGradient id="paint9_linear_926_7611" x1="194.5" y1="272" x2="194.5" y2="170" gradientUnits="userSpaceOnUse">
<stop stop-color="#F5F5F5"/>
<stop offset="1" stop-color="#F5F5F5" stop-opacity="0"/>
</linearGradient>
<linearGradient id="paint10_linear_926_7611" x1="283.313" y1="95.4289" x2="217.257" y2="134.997" gradientUnits="userSpaceOnUse">
<stop stop-color="#F5F5F5"/>
<stop offset="1" stop-color="#F5F5F5" stop-opacity="0"/>
</linearGradient>
<linearGradient id="paint11_linear_926_7611" x1="288.76" y1="227.985" x2="201.257" y2="175.571" gradientUnits="userSpaceOnUse">
<stop stop-color="#F5F5F5"/>
<stop offset="1" stop-color="#F5F5F5" stop-opacity="0"/>
</linearGradient>
<linearGradient id="paint12_linear_926_7611" x1="323" y1="163.284" x2="223" y2="163.284" gradientUnits="userSpaceOnUse">
<stop stop-color="#F5F5F5"/>
<stop offset="1" stop-color="#F5F5F5" stop-opacity="0"/>
</linearGradient>
<linearGradient id="paint13_linear_926_7611" x1="64" y1="163.284" x2="141" y2="163.284" gradientUnits="userSpaceOnUse">
<stop stop-color="#F5F5F5"/>
<stop offset="1" stop-color="#F5F5F5" stop-opacity="0"/>
</linearGradient>
<linearGradient id="paint14_linear_926_7611" x1="101.743" y1="95.4289" x2="167.799" y2="134.997" gradientUnits="userSpaceOnUse">
<stop stop-color="#F5F5F5"/>
<stop offset="1" stop-color="#F5F5F5" stop-opacity="0"/>
</linearGradient>
<linearGradient id="paint15_linear_926_7611" x1="94.7273" y1="231.581" x2="180.22" y2="175.948" gradientUnits="userSpaceOnUse">
<stop stop-color="#F5F5F5"/>
<stop offset="1" stop-color="#F5F5F5" stop-opacity="0"/>
</linearGradient>
</defs>
</svg>
