<svg width="20" height="21" viewBox="0 0 20 21" fill="none" xmlns="http://www.w3.org/2000/svg">
<path d="M5.8 0.100342H14.2C17.4 0.100342 20 2.70034 20 5.90034V14.3003C20 15.8386 19.3889 17.3139 18.3012 18.4016C17.2135 19.4893 15.7383 20.1003 14.2 20.1003H5.8C2.6 20.1003 0 17.5003 0 14.3003V5.90034C0 4.36209 0.61107 2.88683 1.69878 1.79912C2.78649 0.711412 4.26174 0.100342 5.8 0.100342ZM5.6 2.10034C4.64522 2.10034 3.72955 2.47963 3.05442 3.15476C2.37928 3.82989 2 4.74556 2 5.70034V14.5003C2 16.4903 3.61 18.1003 5.6 18.1003H14.4C15.3548 18.1003 16.2705 17.7211 16.9456 17.0459C17.6207 16.3708 18 15.4551 18 14.5003V5.70034C18 3.71034 16.39 2.10034 14.4 2.10034H5.6ZM15.25 3.60034C15.5815 3.60034 15.8995 3.73204 16.1339 3.96646C16.3683 4.20088 16.5 4.51882 16.5 4.85034C16.5 5.18186 16.3683 5.4998 16.1339 5.73423C15.8995 5.96865 15.5815 6.10034 15.25 6.10034C14.9185 6.10034 14.6005 5.96865 14.3661 5.73423C14.1317 5.4998 14 5.18186 14 4.85034C14 4.51882 14.1317 4.20088 14.3661 3.96646C14.6005 3.73204 14.9185 3.60034 15.25 3.60034ZM10 5.10034C11.3261 5.10034 12.5979 5.62713 13.5355 6.56481C14.4732 7.50249 15 8.77426 15 10.1003C15 11.4264 14.4732 12.6982 13.5355 13.6359C12.5979 14.5736 11.3261 15.1003 10 15.1003C8.67392 15.1003 7.40215 14.5736 6.46447 13.6359C5.52678 12.6982 5 11.4264 5 10.1003C5 8.77426 5.52678 7.50249 6.46447 6.56481C7.40215 5.62713 8.67392 5.10034 10 5.10034ZM10 7.10034C9.20435 7.10034 8.44129 7.41641 7.87868 7.97902C7.31607 8.54163 7 9.30469 7 10.1003C7 10.896 7.31607 11.6591 7.87868 12.2217C8.44129 12.7843 9.20435 13.1003 10 13.1003C10.7956 13.1003 11.5587 12.7843 12.1213 12.2217C12.6839 11.6591 13 10.896 13 10.1003C13 9.30469 12.6839 8.54163 12.1213 7.97902C11.5587 7.41641 10.7956 7.10034 10 7.10034Z" fill="white"/>
</svg>
