<svg width="55" height="80" viewBox="0 0 55 80" fill="none" xmlns="http://www.w3.org/2000/svg">
<g opacity="0.8">
<path d="M19.3651 33.8652C18.4983 34.4565 15.9912 36.3379 16.2313 38.0177C16.618 40.7995 20.7253 41.6596 25.0993 44.4817C26.3528 45.288 27.1129 45.9465 27.5796 46.4706V41.0011C23.0189 38.4747 23.379 39.3079 20.6186 37.4802C18.0315 35.8004 18.845 34.2818 19.3651 33.8652ZM25.7927 33.3142C23.8857 31.5672 26.4995 30.1696 27.1396 29.6589C26.2328 30.1965 20.7253 32.3198 21.6054 34.6447C22.1655 36.1498 25.6993 37.6952 27.5796 38.6359V34.2684C27.0729 33.9727 26.1661 33.6502 25.7927 33.3142ZM25.4726 66.5345C16.818 59.9227 14.5377 58.9685 8.68347 54.5607C2.81592 50.1528 5.46965 46.4975 5.46965 46.4975C5.46965 46.4975 2.26918 49.9781 2.97595 55.582C3.81607 62.2744 13.3508 65.7147 20.7253 71.2245C24.3258 73.9123 26.4195 76.4253 27.5663 78.1051V68.9131C27.0596 68.0396 26.3794 67.2333 25.4726 66.5345ZM25.1393 56.2942C17.3781 49.9647 16.9514 50.8247 11.9106 47.0485C6.86986 43.2588 10.3504 41.3102 10.3504 41.3102C10.3504 41.3102 5.93639 43.6888 6.33645 47.1022C6.8832 51.7654 16.0979 55.8373 22.4322 60.5812C25.0459 62.5298 26.6195 64.3574 27.5663 65.7281V58.861C26.9662 57.9875 26.1661 57.1274 25.1393 56.2942ZM26.3528 48.7552C20.2719 44.2398 20.0718 44.9655 15.9912 41.9015C11.924 38.8509 14.7377 37.2652 14.7377 37.2652C14.7377 37.2652 11.1638 39.1869 11.4839 41.9553C11.924 45.7315 19.045 48.4058 24.1658 52.2224C25.8727 53.499 26.9129 54.5338 27.5796 55.3267V49.9781C27.2462 49.5481 26.8462 49.1315 26.3528 48.7552Z" fill="white"/>
<path d="M34.5411 37.4802C31.7807 39.3079 32.1408 38.4612 27.5801 41.0011V46.4706C28.0468 45.9465 28.8069 45.288 30.0604 44.4817C34.4344 41.6596 38.5417 40.7995 38.9284 38.0178C39.1551 36.3245 36.6481 34.4565 35.7813 33.8652C36.288 34.2818 37.1148 35.8004 34.5411 37.4802ZM27.5801 34.2684V38.6225C29.447 37.6818 32.9942 36.1364 33.5543 34.6312C34.4211 32.3064 28.9269 30.1831 28.0201 29.6455C28.6602 30.1562 31.2873 31.5538 29.367 33.3008C28.9803 33.6502 28.0735 33.9727 27.5801 34.2684ZM27.5801 68.9131V78.1051C28.7269 76.4253 30.8206 73.9123 34.4211 71.2245C41.7955 65.7147 51.3303 62.2744 52.1838 55.5955C52.9039 49.9916 49.6901 46.511 49.6901 46.511C49.6901 46.511 52.3438 50.1663 46.4762 54.5741C40.6087 58.9685 38.3284 59.9361 29.6737 66.5479C28.7669 67.2333 28.0868 68.0396 27.5801 68.9131ZM27.5801 58.861V65.7282C28.5269 64.3574 30.1005 62.5298 32.7142 60.5812C39.0485 55.8508 48.2632 51.7789 48.8099 47.1023C49.21 43.6888 44.796 41.3102 44.796 41.3102C44.796 41.3102 48.2765 43.2723 43.2358 47.0485C38.195 50.8247 37.7683 49.9647 30.0071 56.2943C28.9803 57.1274 28.1802 57.9875 27.5801 58.861ZM27.5801 49.9781V55.3267C28.2335 54.5338 29.287 53.499 30.9939 52.2224C36.1147 48.3924 43.2224 45.7181 43.6625 41.9553C43.9825 39.2004 40.422 37.2786 40.422 37.2786C40.422 37.2786 43.2358 38.8644 39.1685 41.915C35.0879 44.9655 34.8878 44.2533 28.8069 48.7686C28.3002 49.1315 27.9001 49.5481 27.5801 49.9781Z" fill="white"/>
<path d="M11.5639 5.22754C11.6306 5.22754 11.6706 5.18723 11.6972 5.09316C11.7239 4.99909 11.7772 4.8647 11.8839 4.69C12.0573 4.43467 12.324 4.38091 12.9908 4.35403L14.6844 4.31372V9.01723C14.6844 10.0654 14.6844 10.9793 14.631 11.4631C14.591 11.799 14.5243 12.0544 14.2976 12.0947C14.1909 12.1215 14.0576 12.135 13.8842 12.135C13.7642 12.135 13.7109 12.1619 13.7109 12.2156C13.7109 12.2156 13.6709 12.3366 13.8176 12.35H17.2181C17.2181 12.35 17.2581 12.35 17.2981 12.3231C17.3381 12.3097 17.3648 12.2828 17.3648 12.2291C17.3648 12.1753 17.3114 12.135 17.1781 12.135C17.0047 12.135 16.7647 12.1081 16.6046 12.0947C16.2579 12.0544 16.1912 11.799 16.1646 11.4765C16.1112 10.9793 16.1112 10.0789 16.1112 9.01723V4.31372L17.5514 4.35403C18.5649 4.38091 18.8716 4.70344 18.8983 4.99909L18.9116 5.12003C18.925 5.29474 18.9517 5.34849 19.0317 5.34849C19.0983 5.34849 19.125 5.2813 19.1383 5.16035C19.1383 4.8647 19.1784 4.07182 19.1784 3.82993C19.1784 3.65523 19.165 3.58803 19.085 3.58803C19.0317 3.58803 18.9517 3.61491 18.7783 3.64179C18.6049 3.66867 18.3516 3.69554 17.9915 3.69554H13.4575C13.0841 3.69554 12.644 3.66867 12.324 3.64179C12.044 3.61491 11.9239 3.5074 11.8306 3.5074C11.7639 3.5074 11.7239 3.5746 11.6972 3.72242C11.6706 3.81649 11.4572 4.85126 11.4572 5.0394C11.4572 5.17379 11.4839 5.22754 11.5639 5.22754ZM7.42993 2.47263C7.58996 2.47263 7.76332 2.48607 7.91 2.52638C8.20338 2.59358 8.33673 2.82203 8.36341 3.27895C8.39008 3.70898 8.39008 4.08526 8.39008 6.11449V8.46625C8.39008 9.76979 8.39008 10.818 8.3234 11.3824C8.28339 11.7721 8.20338 12.0006 7.93668 12.0544C7.81666 12.0812 7.65663 12.1081 7.4566 12.1081C7.29658 12.1081 7.24324 12.1484 7.24324 12.2156V12.2291C7.24324 12.2559 7.2299 12.3366 7.34992 12.35H11.3505C11.3505 12.35 11.4305 12.3366 11.4705 12.2828C11.4839 12.2694 11.4972 12.2425 11.4972 12.2156C11.4972 12.1484 11.4305 12.1081 11.2838 12.1081C11.0838 12.1081 10.7904 12.0812 10.6037 12.0544C10.2037 12.0006 10.1103 11.7587 10.0703 11.3959C10.017 10.818 10.017 9.76979 10.017 8.46625V6.11449C10.017 4.08526 10.017 3.70898 10.0437 3.27895C10.0703 2.80859 10.177 2.58014 10.5371 2.51295C10.6971 2.48607 10.8038 2.47263 10.9371 2.47263C11.0705 2.47263 11.1505 2.44575 11.1505 2.33824C11.1505 2.3248 11.1372 2.29793 11.1372 2.28449C11.1238 2.24417 11.0971 2.20386 11.0038 2.20386H7.36326C7.36326 2.20386 7.26991 2.2173 7.2299 2.28449C7.21657 2.29793 7.21657 2.31137 7.21657 2.33824C7.21657 2.44575 7.29658 2.47263 7.42993 2.47263ZM29.5266 12.3366H32.2203C32.2203 12.3366 32.2603 12.3366 32.3003 12.3097C32.3137 12.3097 32.327 12.2962 32.3403 12.2828C32.3403 12.2828 32.3403 12.2694 32.3537 12.2694C32.367 12.2559 32.3803 12.2425 32.3803 12.2291C32.3803 12.1619 32.3537 12.135 32.207 12.135H32.0336C31.6869 12.135 31.5802 11.9872 31.5802 11.7856C31.5802 11.6512 31.6336 11.369 31.7536 11.0868L32.367 9.44726C32.3803 9.38007 32.407 9.35319 32.4737 9.35319H35.0074C35.0607 9.35319 35.1007 9.38007 35.1141 9.43383L36.0209 11.8662C36.0742 12.0006 36.0209 12.135 35.8075 12.135C35.7142 12.135 35.6608 12.1619 35.6608 12.2156C35.6608 12.2156 35.6208 12.35 35.7675 12.3634H41.4884C41.4884 12.3634 41.5817 12.3634 41.5817 12.2425C41.5817 12.1753 41.515 12.1484 41.395 12.1484C41.2083 12.1484 40.9949 12.135 40.8083 12.0678C40.5816 11.9872 40.4349 11.6915 40.4082 10.7911L40.2882 5.9801H40.3282C40.5282 6.19512 41.7951 7.63305 43.0353 8.8694C44.2221 10.052 45.6756 11.5571 46.3958 12.2425C46.5158 12.3634 46.6491 12.4978 46.7825 12.4978C46.8892 12.4978 46.9292 12.3903 46.9292 12.1484L47.0492 4.91846C47.0625 4.2734 47.1559 4.03151 47.4626 3.93744C47.5959 3.91056 47.6893 3.91056 47.8093 3.91056C47.9293 3.91056 47.996 3.88368 48.0093 3.81649C48.0093 3.81649 48.0227 3.81649 48.0227 3.80305V3.78961C48.0227 3.7493 48.0093 3.69554 47.916 3.6821H45.0889C45.0889 3.6821 45.0089 3.69554 44.9689 3.7493C44.9555 3.76274 44.9422 3.77617 44.9422 3.80305V3.81649C44.9422 3.87024 44.9955 3.91056 45.1289 3.91056C45.2889 3.91056 45.5556 3.91056 45.729 3.97775C46.009 4.0987 46.1024 4.31372 46.1157 5.01253L46.2357 10.1595H46.1824C45.9957 9.97137 44.4621 8.33186 43.6754 7.55242C42.0084 5.88604 40.2882 4.01807 40.1548 3.87024C39.9548 3.66867 39.8614 3.5074 39.7281 3.5074C39.6081 3.5074 39.5814 3.66867 39.5814 3.89712L39.4747 10.6836C39.4614 11.6781 39.4214 12.014 39.128 12.1081C38.968 12.1484 38.7679 12.1619 38.6213 12.1619C38.4879 12.1619 38.3145 12.1484 38.1545 12.1215C37.9145 12.0678 37.5811 11.9065 37.1544 10.8718C36.4209 9.12474 34.6073 4.4481 34.3273 3.81649C34.2206 3.54772 34.1539 3.45365 34.0472 3.45365C33.9406 3.45365 33.8605 3.5746 33.7272 3.91056L30.8734 11.1002C30.6467 11.6781 30.4334 12.0678 29.9 12.135C29.8066 12.1484 29.6466 12.1619 29.5532 12.1619C29.4732 12.1619 29.4332 12.1887 29.4199 12.2425H29.4065C29.4065 12.2156 29.3799 12.3231 29.5266 12.3366ZM33.6872 5.8726C33.7005 5.83228 33.7272 5.76509 33.7539 5.76509C33.7939 5.76509 33.7939 5.81884 33.8072 5.8726L34.834 8.70814C34.8474 8.74846 34.834 8.77533 34.7807 8.77533H32.687C32.6337 8.77533 32.6337 8.73502 32.6337 8.6947L33.6872 5.8726ZM36.1542 13.9492C36.2342 13.9089 36.2876 13.882 36.2876 13.8148C36.2876 13.7611 36.2476 13.7073 36.1809 13.7073C36.1409 13.7073 36.0742 13.7342 36.0075 13.7611C35.2208 14.0701 34.3806 14.1642 33.7939 14.1642C33.0204 14.1642 31.5002 14.0433 29.1132 12.7935L26.8328 11.6109C27.5529 11.1271 28.8065 9.85042 28.8065 7.83463C28.8065 5.14691 26.9128 3.49396 24.2058 3.49396C20.8719 3.49396 19.5384 6.06074 19.5384 7.9287C19.5384 9.99825 20.8319 12.4844 24.1658 12.4844C24.7659 12.4844 25.4993 12.3634 25.9527 12.1887L27.7396 13.237C29.6199 14.3524 30.8334 14.7958 32.5537 14.7958C34.1806 14.8093 35.4741 14.2852 36.1542 13.9492ZM24.5925 11.92C22.7656 11.92 21.1253 10.4014 21.1253 7.67337C21.1253 5.01253 22.4588 4.04495 23.9391 4.04495C25.5126 4.04495 27.2196 5.37537 27.2196 8.14372C27.2196 11.5168 25.4993 11.92 24.5925 11.92ZM23.8724 16.2741C23.3523 16.2741 22.6855 16.3144 22.2188 16.3144C21.8988 16.3144 21.1787 16.2741 20.5786 16.2741C20.4052 16.2741 20.3252 16.301 20.3252 16.3816C20.3252 16.4622 20.3919 16.4891 20.5119 16.4891C20.6719 16.4891 20.8719 16.5025 20.952 16.5294C21.3253 16.61 21.4187 16.7982 21.4454 17.1879C21.472 17.5507 21.472 17.8733 21.472 19.6203V21.6361C21.472 22.6843 21.472 23.5981 21.4187 24.0819C21.3787 24.4179 21.312 24.6732 21.0853 24.7135C20.9786 24.7404 20.8453 24.7538 20.6719 24.7538C20.6319 24.7538 20.6052 24.7538 20.5786 24.7673C20.5652 24.7673 20.5519 24.7538 20.5252 24.7538C20.3919 24.7538 20.2185 24.7404 20.0452 24.7135C19.8051 24.6598 19.4717 24.4985 19.045 23.4637C18.3116 21.7167 16.498 17.0401 16.2179 16.4085C16.1112 16.1397 16.0312 16.0456 15.9379 16.0456C15.8179 16.0456 15.7512 16.1666 15.6178 16.5025L12.7641 23.7056C12.5374 24.2835 12.324 24.6732 11.8039 24.7404C11.7106 24.7538 11.5906 24.7673 11.4839 24.7673C11.4039 24.7673 11.3505 24.7941 11.3238 24.8479H11.3505C11.3505 24.8479 11.3105 24.9823 11.4572 24.9957H14.1376C14.1376 24.9957 14.2843 24.9957 14.2843 24.8748C14.2843 24.8613 14.2976 24.8613 14.2976 24.8479C14.2976 24.7807 14.2176 24.7538 14.0843 24.7538H13.9509C13.5909 24.7538 13.4975 24.606 13.4975 24.4044C13.4975 24.27 13.5508 23.9878 13.6709 23.7056L14.2843 22.0392C14.311 21.972 14.3243 21.9452 14.391 21.9452H16.9247C16.978 21.9452 17.018 21.9586 17.0447 22.0258L17.9515 24.4582C18.0048 24.5926 17.9248 24.7001 17.8448 24.727C17.7381 24.7404 17.6981 24.7673 17.6848 24.821C17.6848 24.821 17.6448 24.9554 17.7915 24.9689H23.9791C23.9791 24.9689 24.0724 24.9689 24.1124 24.9017C24.1391 24.8882 24.1524 24.8613 24.1524 24.8345C24.1524 24.7807 24.0991 24.7404 23.9657 24.7404C23.7924 24.7404 23.539 24.7135 23.379 24.7001C23.0323 24.6598 22.9656 24.4044 22.9389 24.0819C22.8856 23.5847 22.8856 22.6843 22.8856 21.6226V17.0401C22.8856 16.9191 22.9256 16.8385 22.9789 16.8251C23.0856 16.7847 23.2456 16.7847 23.419 16.7847C23.6857 16.7847 24.1524 16.8519 24.5525 17.2282C25.1926 17.8061 25.2193 18.5721 25.2193 18.9484C25.2193 20.1175 24.3258 20.8432 23.699 20.8432C23.459 20.8432 23.379 20.8835 23.379 20.9641C23.379 21.0448 23.459 21.0582 23.5123 21.0717C23.5657 21.0851 23.6857 21.0851 23.7524 21.0851C25.3659 21.0851 26.5528 19.9428 26.5528 18.3167C26.5528 17.712 26.2327 17.1879 25.9794 16.946C25.806 16.7579 25.2993 16.2741 23.8724 16.2741ZM16.7113 21.3673H14.6177C14.5777 21.3673 14.5643 21.3404 14.5777 21.2867L15.6178 18.4646C15.6312 18.4242 15.6578 18.3571 15.6845 18.3571C15.7245 18.3571 15.7245 18.4108 15.7378 18.4646L16.7647 21.3001C16.778 21.3404 16.7647 21.3673 16.7113 21.3673ZM52.9434 23.1412C52.8501 23.1412 52.8234 23.2084 52.8234 23.3159C52.7967 23.5309 52.6634 23.8534 52.53 24.0013C52.25 24.3104 51.8099 24.3238 51.1965 24.3238C50.3163 24.3238 50.0096 24.2432 49.8229 24.0685C49.5829 23.8669 49.5829 23.074 49.5829 21.5958V19.58C49.5829 17.833 49.5829 17.5104 49.6096 17.1476C49.6362 16.7444 49.7296 16.5563 50.0363 16.4891C50.1697 16.4622 50.3563 16.4488 50.4764 16.4488C50.6097 16.4488 50.6897 16.4219 50.6897 16.3413C50.6897 16.3278 50.6897 16.3278 50.6764 16.3144C50.6764 16.2741 50.6631 16.2203 50.5697 16.2069H47.2359C47.2359 16.2069 47.0892 16.2203 47.0892 16.3413C47.0892 16.4219 47.1559 16.4488 47.2759 16.4488C47.4226 16.4488 47.5559 16.4622 47.6493 16.4891C48.0227 16.5697 48.116 16.7579 48.1427 17.1476C48.1694 17.5104 48.1694 17.833 48.1694 19.58V21.5958C48.1694 22.644 48.1694 23.5578 48.116 24.0416C48.076 24.3776 48.0093 24.6329 47.7826 24.6732C47.6759 24.7001 47.5426 24.7135 47.3692 24.7135C47.3426 24.7135 47.3159 24.7135 47.3026 24.727C47.2892 24.727 47.2626 24.727 47.2492 24.727C47.2359 24.727 47.2225 24.7135 47.1959 24.7135C47.0625 24.7135 46.8892 24.7001 46.7158 24.6732C46.4758 24.6194 46.1424 24.4582 45.7157 23.4234C44.9822 21.6764 43.1686 16.9998 42.9019 16.3681C42.7819 16.0994 42.7152 16.0053 42.6219 16.0053C42.5152 16.0053 42.4485 16.1263 42.3018 16.4622L39.4481 23.6653C39.2214 24.2432 39.008 24.6329 38.4879 24.7001C38.3946 24.7135 38.2345 24.727 38.1412 24.727C38.0878 24.727 38.0345 24.727 37.9812 24.727H37.9678C37.7945 24.727 37.5411 24.7001 37.3944 24.6866C37.0477 24.6463 36.981 24.391 36.9543 24.0685C36.901 23.5712 36.901 22.6709 36.901 21.6092V16.9057L38.3412 16.946C39.3547 16.9729 39.6614 17.2954 39.6881 17.5911L39.7014 17.712C39.7148 17.8867 39.7414 17.9405 39.8348 17.9405C39.9015 17.9405 39.9281 17.8733 39.9415 17.7523C39.9415 17.4567 39.9815 16.6638 39.9815 16.4219C39.9815 16.2472 39.9681 16.18 39.8881 16.18C39.8481 16.18 39.7548 16.2069 39.5814 16.2338C39.408 16.2606 39.1547 16.2875 38.7946 16.2875H34.2873C33.9139 16.2875 33.4872 16.2606 33.1538 16.2338C32.8737 16.2069 32.7537 16.0994 32.6604 16.0994C32.5937 16.0994 32.5537 16.1666 32.527 16.3144C32.5003 16.4085 32.287 17.4432 32.287 17.6314C32.287 17.7523 32.3137 17.8195 32.3937 17.8195C32.4603 17.8195 32.5003 17.7792 32.5137 17.6851C32.5404 17.5911 32.5937 17.4567 32.7004 17.282C32.8737 17.0266 33.1404 16.9729 33.8072 16.946L35.5008 16.9057V21.6092C35.5008 22.6574 35.5008 23.5712 35.4475 24.055C35.4074 24.391 35.3408 24.6463 35.1141 24.6866C35.0074 24.7135 34.874 24.727 34.7007 24.727C34.5673 24.727 34.5273 24.7538 34.5273 24.8076C34.5273 24.8076 34.4873 24.942 34.634 24.9554H40.9016C40.9016 24.9554 40.9683 24.9554 40.9816 24.8882C40.9949 24.8748 41.0083 24.8479 40.9949 24.821C40.9683 24.7404 40.9016 24.727 40.7682 24.727H40.6616C40.3015 24.727 40.2082 24.5791 40.2082 24.3776C40.2082 24.2432 40.2615 23.961 40.3815 23.6787L40.9949 22.0392C41.0216 21.972 41.035 21.9452 41.1016 21.9452H43.6353C43.6887 21.9452 43.7287 21.9586 43.742 22.0258L44.6488 24.4582C44.7022 24.5926 44.6222 24.7001 44.5421 24.727C44.4355 24.7404 44.2621 24.727 44.2354 24.821C44.2354 24.821 44.1954 24.9554 44.3421 24.9689C44.3421 24.9689 51.8366 24.9823 52.2233 24.9823C52.81 24.9823 52.8767 24.9285 52.9434 24.6732C53.0367 24.3372 53.1168 23.4772 53.1168 23.3562C53.0234 23.2084 53.0234 23.1412 52.9434 23.1412ZM43.3286 21.3673H41.235C41.195 21.3673 41.1816 21.3404 41.195 21.2867L42.2485 18.4646C42.2618 18.4242 42.2751 18.3571 42.3151 18.3571C42.3552 18.3571 42.3552 18.4108 42.3685 18.4646L43.3953 21.3001C43.3953 21.3404 43.382 21.3673 43.3286 21.3673ZM11.2838 22.4558C11.1772 22.4558 11.1505 22.5096 11.1105 22.7246C11.0571 22.9665 10.8838 23.3562 10.6571 23.6116C10.1237 24.2297 9.4169 24.3641 8.23005 24.3641C6.45645 24.3641 4.0561 22.7918 4.0561 19.6068C4.0561 18.3167 4.30947 17.0401 5.28295 16.1397C5.8697 15.6021 6.61648 15.3065 7.77665 15.3065C8.99017 15.3065 10.0303 15.6693 10.4704 16.1397C10.8038 16.4891 10.9771 16.9594 10.9905 17.376C10.9905 17.5642 11.0171 17.6717 11.1238 17.6717C11.2438 17.6717 11.2705 17.5642 11.2838 17.3626C11.3105 17.0938 11.2972 16.3547 11.3238 15.9247C11.3505 15.4543 11.3905 15.2931 11.3905 15.1855C11.3905 15.1049 11.3372 15.0377 11.1905 15.0243C10.7904 14.984 10.3637 14.863 9.8703 14.7958C9.25687 14.7152 8.76347 14.6614 7.95001 14.6614C5.97638 14.6614 4.70953 15.199 3.76272 16.0859C2.48253 17.2551 2.21582 18.8408 2.21582 19.7412C2.21582 21.0313 2.56254 22.5365 3.85607 23.6787C5.05624 24.7404 6.58981 25.1301 8.40341 25.1301C9.25687 25.1301 10.257 25.036 10.7904 24.821C11.0171 24.727 11.0705 24.6598 11.1372 24.4313C11.2705 23.9744 11.4305 22.8187 11.4305 22.6574C11.4039 22.5499 11.3772 22.4558 11.2838 22.4558ZM31.2468 24.727C31.0735 24.727 30.8201 24.7001 30.6734 24.6866C30.3267 24.6463 30.2467 24.4313 30.22 24.1222C30.1667 23.625 30.1667 22.7246 30.1667 21.6092V19.5934C30.1667 17.8464 30.1667 17.5239 30.1933 17.161C30.22 16.7579 30.3134 16.5697 30.6201 16.5025C30.7534 16.4757 30.8468 16.4622 30.9668 16.4622C31.0868 16.4622 31.1535 16.4353 31.1535 16.3413V16.3278C31.1535 16.2875 31.1401 16.2338 31.0468 16.2203H27.9397C27.9397 16.2203 27.8463 16.2338 27.8063 16.301C27.793 16.3144 27.793 16.3278 27.793 16.3413C27.793 16.4219 27.8597 16.4488 27.9663 16.4488C28.0997 16.4488 28.2464 16.4622 28.3797 16.4891C28.6331 16.5428 28.7398 16.7444 28.7665 17.1341C28.7931 17.497 28.7931 17.8195 28.7931 19.5665V21.5823C28.7931 22.6977 28.7931 23.5981 28.7398 24.0819C28.7131 24.4179 28.6331 24.606 28.4064 24.6598C28.2997 24.6866 28.1664 24.7001 27.993 24.7001C27.8597 24.7001 27.8063 24.7404 27.8063 24.7942C27.8063 24.7942 27.8063 24.7942 27.8063 24.8076C27.8063 24.8479 27.8063 24.9285 27.913 24.9285H31.3002C31.3002 24.9285 31.4469 24.9285 31.4469 24.8076C31.4469 24.7942 31.4469 24.7941 31.4469 24.7807C31.4335 24.7673 31.3802 24.727 31.2468 24.727Z" fill="white"/>
</g>
</svg>
