<svg width="135" height="40" viewBox="0 0 135 40" fill="none" xmlns="http://www.w3.org/2000/svg">
<path d="M17.5993 22.9723L7.98684 0.700195H0L17.4815 40H17.7642L35.2929 0.700195H27.2354L17.5993 22.9723Z" fill="white"/>
<path d="M89.7913 22.0965L67.5742 0H67.1973V39.1023H74.7365V17.6202L97.0007 39.7606H97.3541V0.614403H89.7913V22.0965Z" fill="white"/>
<path d="M114.756 0.700245L103.848 0.722189V39.0346H114.756C126.866 39.0346 134.264 31.7934 134.264 19.9003C134.287 7.96336 126.889 0.678302 114.756 0.700245ZM114.803 31.3545H111.363V8.33639H114.732C122.154 8.33639 126.677 12.703 126.677 19.9003C126.677 27.0318 122.177 31.3545 114.803 31.3545Z" fill="white"/>
<path d="M61.6077 15.7993H39.0137V23.5452H61.6077V15.7993Z" fill="white"/>
<path d="M61.6077 0.549072H39.0137V8.29493H61.6077V0.549072Z" fill="white"/>
<path d="M61.6077 31.3796H39.0137V39.1255H61.6077V31.3796Z" fill="white"/>
</svg>
