<svg width="146" height="51" viewBox="0 0 146 51" fill="none" xmlns="http://www.w3.org/2000/svg">
<path d="M42.1251 10.5429L30.7865 3.99449L16.5235 23.1374L21.2061 26.7973V35.2116L8.95249 26.0079C7.9478 25.2544 7.73251 23.8191 8.48602 22.8144L24.9916 0.657493C23.3411 -0.23955 21.3317 -0.22161 19.6991 0.729255L2.70906 10.5429C1.02262 11.5117 0 13.3058 0 15.2434V34.8528C0 36.7904 1.04057 38.5845 2.70906 39.5533L13.9939 46.0658L28.3107 27.3176L23.7716 24.16V16.0866L35.792 24.4829C36.8685 25.2365 37.1017 26.7076 36.2943 27.7482L19.7529 49.4207C21.4214 50.3357 23.4487 50.3357 25.0993 49.3669L42.0892 39.5533C43.7757 38.5845 44.7983 36.7904 44.7983 34.8528V15.2434C44.8342 13.3058 43.7936 11.5117 42.1251 10.5429Z" fill="white"/>
<path d="M60.3319 14.3095C58.484 13.6816 56.9052 13.3049 56.9052 11.9414C56.9052 10.8649 57.7125 10.0396 59.2555 10.0396C60.5651 10.0396 61.5698 10.5599 62.2875 11.6543L64.871 9.69875C63.5075 8.29936 61.9287 7.25879 59.2375 7.25879C56.0082 7.25879 53.6759 9.37581 53.6759 12.0669C53.6759 15.2604 56.1696 16.1216 58.4302 16.8571C60.2063 17.4133 61.9287 17.8618 61.9287 19.2792C61.9287 20.4453 61.0316 21.5397 59.3811 21.5397C57.8381 21.5397 56.5464 20.7324 55.7032 19.2612L52.8506 21.5218C54.3935 23.2441 56.3849 24.5358 59.399 24.5358C63.0769 24.5358 65.1939 21.9524 65.1939 19.315C65.176 16.0498 62.6104 15.0451 60.3319 14.3095Z" fill="white"/>
<path d="M73.4468 10.524C69.5536 10.524 66.4678 13.6099 66.4678 17.5389C66.4678 21.3962 69.5536 24.5359 73.4468 24.5359C77.304 24.5359 80.4078 21.4141 80.4078 17.5389C80.4078 13.6099 77.304 10.524 73.4468 10.524ZM73.4468 21.6115C71.2221 21.6115 69.5357 19.7636 69.5357 17.5389C69.5357 15.2604 71.2221 13.4484 73.4468 13.4484C75.6535 13.4484 77.3579 15.2604 77.3579 17.5389C77.3579 19.7815 75.6535 21.6115 73.4468 21.6115Z" fill="white"/>
<path d="M92.8756 6.63086L89.7539 8.76583V11.3314H92.5347V14.1122H89.7539V18.6512C89.7539 22.9212 91.0277 24.2667 95.19 24.2667H95.6206V21.3424C93.2344 21.3424 92.8756 20.9656 92.8756 18.6333V14.1122H95.6206V11.3314H92.8756V6.63086Z" fill="white"/>
<path d="M116.254 7.16907H113.132V24.1949H116.254V7.16907Z" fill="white"/>
<path d="M139.971 16.0319C137.944 15.6013 136.886 15.3681 136.886 14.471C136.886 13.7175 137.567 13.0178 139.056 13.0178C140.348 13.0178 141.353 13.6099 141.909 14.5607L144.546 13.2331C143.506 11.5108 141.783 10.4523 139.056 10.4523C135.863 10.4523 133.764 12.4078 133.764 14.5607C133.764 17.3954 136.186 18.131 138.482 18.6154C140.133 18.9921 141.64 19.1715 141.64 20.1583C141.64 21.0553 140.886 21.7909 139.343 21.7909C137.872 21.7909 136.742 21.1091 136.096 19.8353L133.226 21.2168C134.302 23.3338 136.186 24.482 139.2 24.482C143.039 24.482 144.726 21.9703 144.726 20.0865C144.726 17.2519 142.196 16.4625 139.971 16.0319Z" fill="white"/>
<path d="M108.18 17.6466C108.054 19.7636 106.404 21.4501 104.287 21.4501C102.134 21.4501 100.483 19.7277 100.376 17.5928V11.3673H97.3076V17.3596V17.3775V17.5928C97.4153 21.3604 100.465 24.3744 104.269 24.3744C105.722 24.3744 107.067 23.9259 108.162 23.1903V23.8362C108.162 23.8721 108.162 23.9259 108.162 23.9618V24.3744C108.108 26.3838 106.655 28.0523 104.735 28.2855V31.2099C108.341 30.9767 111.158 28.0164 111.23 24.3565V17.3596V17.3416V11.3494H108.162V17.6466H108.18Z" fill="white"/>
<path d="M84.5877 11.8696C84.5877 11.8337 84.5877 11.7979 84.5877 11.744V11.3493C84.6415 9.4476 86.005 7.88675 87.8171 7.65352V4.89062C84.4262 5.12386 81.753 7.90469 81.6992 11.3493V24.0873H84.5877V17.7363C84.6774 15.8704 86.023 14.3455 87.8171 14.1122V11.3493C86.615 11.4211 85.5206 11.8337 84.5877 12.4617V11.8696Z" fill="white"/>
<path d="M129.099 17.3596C129.099 19.6022 127.412 21.4501 125.206 21.4501C123.053 21.4501 121.402 19.7277 121.294 17.5928V11.3673H118.227V17.3596V17.3775V17.5928C118.334 21.3604 121.384 24.3744 125.188 24.3744C129.045 24.3744 132.149 21.2527 132.149 17.3775V17.3596V11.3673H129.081V17.3596H129.099Z" fill="white"/>
<path d="M55.5954 42.2098V35.3479H52.8971V34.0685H59.8056V35.3479H57.1073V42.2098H55.5954ZM64.247 42.2913C63.5569 42.2913 62.9521 42.1556 62.4326 41.8842C61.9209 41.6051 61.5216 41.2251 61.2347 40.7444C60.9556 40.2637 60.816 39.717 60.816 39.1045C60.816 38.4842 60.9517 37.9376 61.2231 37.4646C61.5022 36.9839 61.8821 36.6078 62.3628 36.3365C62.8513 36.0651 63.4057 35.9294 64.026 35.9294C64.6308 35.9294 65.1697 36.0612 65.6426 36.3248C66.1156 36.5885 66.4878 36.9606 66.7591 37.4414C67.0305 37.9221 67.1662 38.4881 67.1662 39.1394C67.1662 39.2014 67.1623 39.2712 67.1546 39.3487C67.1546 39.4263 67.1507 39.4999 67.143 39.5697H61.9674V38.6044H66.3753L65.8055 38.9068C65.8132 38.5501 65.7395 38.2361 65.5845 37.9647C65.4294 37.6933 65.2162 37.4801 64.9448 37.3251C64.6812 37.17 64.3749 37.0924 64.026 37.0924C63.6693 37.0924 63.3553 37.17 63.0839 37.3251C62.8203 37.4801 62.611 37.6972 62.4559 37.9764C62.3086 38.2477 62.2349 38.5695 62.2349 38.9417V39.1743C62.2349 39.5465 62.3202 39.876 62.4908 40.1629C62.6614 40.4498 62.9017 40.6707 63.2119 40.8258C63.522 40.9809 63.8787 41.0584 64.2819 41.0584C64.6308 41.0584 64.9448 41.0041 65.2239 40.8956C65.5031 40.787 65.7512 40.6165 65.9683 40.3839L66.7475 41.2794C66.4684 41.6051 66.1156 41.857 65.6891 42.0354C65.2705 42.206 64.7897 42.2913 64.247 42.2913ZM72.5752 42.2913C71.9239 42.2913 71.3424 42.1556 70.8306 41.8842C70.3266 41.6051 69.9312 41.2251 69.6443 40.7444C69.3574 40.2637 69.214 39.717 69.214 39.1045C69.214 38.4842 69.3574 37.9376 69.6443 37.4646C69.9312 36.9839 70.3266 36.6078 70.8306 36.3365C71.3424 36.0651 71.9239 35.9294 72.5752 35.9294C73.18 35.9294 73.7111 36.0535 74.1686 36.3016C74.6338 36.5419 74.9866 36.8986 75.2269 37.3716L74.1104 38.0229C73.9243 37.7282 73.6956 37.5111 73.4242 37.3716C73.1606 37.232 72.8737 37.1622 72.5636 37.1622C72.2069 37.1622 71.8851 37.2398 71.5982 37.3948C71.3113 37.5499 71.0865 37.7748 70.9237 38.0694C70.7608 38.3563 70.6794 38.7013 70.6794 39.1045C70.6794 39.5077 70.7608 39.8566 70.9237 40.1512C71.0865 40.4381 71.3113 40.6591 71.5982 40.8142C71.8851 40.9693 72.2069 41.0468 72.5636 41.0468C72.8737 41.0468 73.1606 40.977 73.4242 40.8374C73.6956 40.6979 73.9243 40.4808 74.1104 40.1861L75.2269 40.8374C74.9866 41.3027 74.6338 41.6632 74.1686 41.9191C73.7111 42.1672 73.18 42.2913 72.5752 42.2913ZM81.1139 35.9294C81.6102 35.9294 82.0521 36.0263 82.4398 36.2202C82.8352 36.414 83.1454 36.7125 83.3702 37.1157C83.5951 37.5111 83.7075 38.0229 83.7075 38.6509V42.2098H82.2537V38.837C82.2537 38.2865 82.1219 37.8756 81.8583 37.6042C81.6024 37.3328 81.2419 37.1971 80.7767 37.1971C80.4355 37.1971 80.1331 37.2669 79.8695 37.4065C79.6059 37.546 79.4004 37.7554 79.2531 38.0345C79.1135 38.3059 79.0437 38.6509 79.0437 39.0696V42.2098H77.5899V33.58H79.0437V37.674L78.7297 37.1622C78.9468 36.7668 79.2608 36.4644 79.6718 36.255C80.0905 36.0379 80.5712 35.9294 81.1139 35.9294ZM90.2388 35.9294C90.7351 35.9294 91.177 36.0263 91.5647 36.2202C91.9601 36.414 92.2703 36.7125 92.4951 37.1157C92.72 37.5111 92.8324 38.0229 92.8324 38.6509V42.2098H91.3786V38.837C91.3786 38.2865 91.2468 37.8756 90.9832 37.6042C90.7273 37.3328 90.3668 37.1971 89.9016 37.1971C89.5604 37.1971 89.258 37.2669 88.9944 37.4065C88.7308 37.546 88.5253 37.7554 88.378 38.0345C88.2384 38.3059 88.1686 38.6509 88.1686 39.0696V42.2098H86.7148V35.9992H88.0988V37.674L87.8546 37.1622C88.0717 36.7668 88.3857 36.4644 88.7967 36.255C89.2154 36.0379 89.6961 35.9294 90.2388 35.9294ZM98.6424 42.2913C98.0066 42.2913 97.4406 42.1556 96.9443 41.8842C96.4481 41.6051 96.0565 41.2251 95.7697 40.7444C95.4828 40.2637 95.3393 39.717 95.3393 39.1045C95.3393 38.4842 95.4828 37.9376 95.7697 37.4646C96.0565 36.9839 96.4481 36.6078 96.9443 36.3365C97.4406 36.0651 98.0066 35.9294 98.6424 35.9294C99.2859 35.9294 99.8558 36.0651 100.352 36.3365C100.856 36.6078 101.248 36.98 101.527 37.453C101.814 37.926 101.957 38.4765 101.957 39.1045C101.957 39.717 101.814 40.2637 101.527 40.7444C101.248 41.2251 100.856 41.6051 100.352 41.8842C99.8558 42.1556 99.2859 42.2913 98.6424 42.2913ZM98.6424 41.0468C98.9991 41.0468 99.317 40.9693 99.5961 40.8142C99.8752 40.6591 100.092 40.4343 100.247 40.1396C100.41 39.845 100.492 39.4999 100.492 39.1045C100.492 38.7013 100.41 38.3563 100.247 38.0694C100.092 37.7748 99.8752 37.5499 99.5961 37.3948C99.317 37.2398 99.0029 37.1622 98.654 37.1622C98.2973 37.1622 97.9794 37.2398 97.7003 37.3948C97.4289 37.5499 97.2118 37.7748 97.049 38.0694C96.8862 38.3563 96.8048 38.7013 96.8048 39.1045C96.8048 39.4999 96.8862 39.845 97.049 40.1396C97.2118 40.4343 97.4289 40.6591 97.7003 40.8142C97.9794 40.9693 98.2935 41.0468 98.6424 41.0468ZM104.51 42.2098V33.58H105.964V42.2098H104.51ZM111.827 42.2913C111.191 42.2913 110.625 42.1556 110.129 41.8842C109.632 41.6051 109.241 41.2251 108.954 40.7444C108.667 40.2637 108.524 39.717 108.524 39.1045C108.524 38.4842 108.667 37.9376 108.954 37.4646C109.241 36.9839 109.632 36.6078 110.129 36.3365C110.625 36.0651 111.191 35.9294 111.827 35.9294C112.47 35.9294 113.04 36.0651 113.536 36.3365C114.04 36.6078 114.432 36.98 114.711 37.453C114.998 37.926 115.141 38.4765 115.141 39.1045C115.141 39.717 114.998 40.2637 114.711 40.7444C114.432 41.2251 114.04 41.6051 113.536 41.8842C113.04 42.1556 112.47 42.2913 111.827 42.2913ZM111.827 41.0468C112.183 41.0468 112.501 40.9693 112.78 40.8142C113.059 40.6591 113.277 40.4343 113.432 40.1396C113.594 39.845 113.676 39.4999 113.676 39.1045C113.676 38.7013 113.594 38.3563 113.432 38.0694C113.277 37.7748 113.059 37.5499 112.78 37.3948C112.501 37.2398 112.187 37.1622 111.838 37.1622C111.482 37.1622 111.164 37.2398 110.885 37.3948C110.613 37.5499 110.396 37.7748 110.233 38.0694C110.07 38.3563 109.989 38.7013 109.989 39.1045C109.989 39.4999 110.07 39.845 110.233 40.1396C110.396 40.4343 110.613 40.6591 110.885 40.8142C111.164 40.9693 111.478 41.0468 111.827 41.0468ZM120.509 44.5476C119.935 44.5476 119.373 44.47 118.823 44.3149C118.28 44.1676 117.834 43.9505 117.485 43.6636L118.136 42.5704C118.408 42.7952 118.749 42.9736 119.16 43.1054C119.579 43.2449 120.001 43.3147 120.428 43.3147C121.11 43.3147 121.61 43.1558 121.928 42.8379C122.246 42.5277 122.405 42.0586 122.405 41.4306V40.3257L122.521 38.9184L122.475 37.5111V35.9992H123.859V41.2678C123.859 42.392 123.572 43.2178 122.998 43.7451C122.424 44.2801 121.595 44.5476 120.509 44.5476ZM120.323 41.9307C119.734 41.9307 119.199 41.8067 118.718 41.5585C118.245 41.3027 117.869 40.9499 117.59 40.5002C117.318 40.0505 117.183 39.5232 117.183 38.9184C117.183 38.3214 117.318 37.798 117.59 37.3483C117.869 36.8986 118.245 36.5497 118.718 36.3016C119.199 36.0535 119.734 35.9294 120.323 35.9294C120.85 35.9294 121.323 36.0341 121.742 36.2434C122.161 36.4528 122.494 36.7784 122.742 37.2204C122.998 37.6623 123.126 38.2283 123.126 38.9184C123.126 39.6085 122.998 40.1784 122.742 40.6281C122.494 41.0701 122.161 41.3996 121.742 41.6167C121.323 41.826 120.85 41.9307 120.323 41.9307ZM120.544 40.6979C120.908 40.6979 121.234 40.6242 121.521 40.4769C121.808 40.3218 122.029 40.1125 122.184 39.8489C122.347 39.5775 122.428 39.2673 122.428 38.9184C122.428 38.5695 122.347 38.2632 122.184 37.9996C122.029 37.7282 121.808 37.5228 121.521 37.3832C121.234 37.2359 120.908 37.1622 120.544 37.1622C120.18 37.1622 119.85 37.2359 119.555 37.3832C119.268 37.5228 119.044 37.7282 118.881 37.9996C118.726 38.2632 118.648 38.5695 118.648 38.9184C118.648 39.2673 118.726 39.5775 118.881 39.8489C119.044 40.1125 119.268 40.3218 119.555 40.4769C119.85 40.6242 120.18 40.6979 120.544 40.6979ZM126.933 42.2098V35.9992H128.387V42.2098H126.933ZM127.666 34.9757C127.394 34.9757 127.169 34.8904 126.991 34.7198C126.821 34.5493 126.735 34.3438 126.735 34.1034C126.735 33.8553 126.821 33.6498 126.991 33.487C127.169 33.3164 127.394 33.2311 127.666 33.2311C127.937 33.2311 128.158 33.3125 128.329 33.4754C128.507 33.6304 128.596 33.8282 128.596 34.0685C128.596 34.3244 128.511 34.5415 128.34 34.7198C128.17 34.8904 127.945 34.9757 127.666 34.9757ZM134.377 42.2913C133.687 42.2913 133.082 42.1556 132.563 41.8842C132.051 41.6051 131.652 41.2251 131.365 40.7444C131.086 40.2637 130.946 39.717 130.946 39.1045C130.946 38.4842 131.082 37.9376 131.353 37.4646C131.632 36.9839 132.012 36.6078 132.493 36.3365C132.982 36.0651 133.536 35.9294 134.156 35.9294C134.761 35.9294 135.3 36.0612 135.773 36.3248C136.246 36.5885 136.618 36.9606 136.889 37.4414C137.161 37.9221 137.296 38.4881 137.296 39.1394C137.296 39.2014 137.293 39.2712 137.285 39.3487C137.285 39.4263 137.281 39.4999 137.273 39.5697H132.098V38.6044H136.506L135.936 38.9068C135.943 38.5501 135.87 38.2361 135.715 37.9647C135.56 37.6933 135.346 37.4801 135.075 37.3251C134.811 37.17 134.505 37.0924 134.156 37.0924C133.8 37.0924 133.486 37.17 133.214 37.3251C132.951 37.4801 132.741 37.6972 132.586 37.9764C132.439 38.2477 132.365 38.5695 132.365 38.9417V39.1743C132.365 39.5465 132.45 39.876 132.621 40.1629C132.792 40.4498 133.032 40.6707 133.342 40.8258C133.652 40.9809 134.009 41.0584 134.412 41.0584C134.761 41.0584 135.075 41.0041 135.354 40.8956C135.633 40.787 135.881 40.6165 136.099 40.3839L136.878 41.2794C136.599 41.6051 136.246 41.857 135.819 42.0354C135.401 42.206 134.92 42.2913 134.377 42.2913ZM141.775 42.2913C141.255 42.2913 140.755 42.2253 140.275 42.0935C139.802 41.954 139.426 41.7873 139.147 41.5934L139.705 40.4885C139.984 40.6669 140.317 40.8142 140.705 40.9305C141.093 41.0468 141.48 41.1049 141.868 41.1049C142.325 41.1049 142.655 41.0429 142.857 40.9189C143.066 40.7948 143.171 40.6281 143.171 40.4187C143.171 40.2482 143.101 40.1202 142.961 40.0349C142.822 39.9419 142.64 39.8721 142.415 39.8256C142.19 39.7791 141.938 39.7364 141.659 39.6977C141.387 39.6589 141.112 39.6085 140.833 39.5465C140.562 39.4767 140.313 39.3798 140.089 39.2557C139.864 39.1239 139.682 38.9494 139.542 38.7323C139.402 38.5152 139.333 38.2283 139.333 37.8717C139.333 37.4762 139.445 37.1351 139.67 36.8482C139.895 36.5536 140.209 36.3287 140.612 36.1736C141.023 36.0108 141.507 35.9294 142.066 35.9294C142.484 35.9294 142.907 35.9759 143.333 36.069C143.76 36.162 144.113 36.2938 144.392 36.4644L143.834 37.5693C143.539 37.391 143.24 37.2708 142.938 37.2087C142.643 37.139 142.349 37.1041 142.054 37.1041C141.612 37.1041 141.283 37.17 141.066 37.3018C140.856 37.4336 140.752 37.6003 140.752 37.8019C140.752 37.988 140.821 38.1276 140.961 38.2206C141.1 38.3136 141.283 38.3873 141.507 38.4416C141.732 38.4958 141.98 38.5424 142.252 38.5811C142.531 38.6122 142.806 38.6626 143.078 38.7323C143.349 38.8021 143.597 38.899 143.822 39.0231C144.055 39.1394 144.241 39.3061 144.38 39.5232C144.52 39.7403 144.59 40.0233 144.59 40.3722C144.59 40.7599 144.473 41.0972 144.241 41.3841C144.016 41.671 143.694 41.8958 143.275 42.0586C142.857 42.2137 142.357 42.2913 141.775 42.2913Z" fill="white"/>
</svg>
