<svg width="124" height="44" viewBox="0 0 124 44" fill="none" xmlns="http://www.w3.org/2000/svg">
<path d="M50.6655 13.7876C49.1035 13.2568 47.769 12.9384 47.769 11.7859C47.769 10.876 48.4514 10.1784 49.7556 10.1784C50.8626 10.1784 51.7118 10.6182 52.3184 11.5432L54.5021 9.89028C53.3496 8.70743 52.0151 7.82788 49.7404 7.82788C47.0108 7.82788 45.0394 9.61732 45.0394 11.892C45.0394 14.5913 47.1473 15.3192 49.058 15.941C50.5593 16.4111 52.0151 16.7902 52.0151 17.9882C52.0151 18.9739 51.2569 19.899 49.8617 19.899C48.5576 19.899 47.4657 19.2166 46.753 17.9731L44.3418 19.8838C45.646 21.3396 47.3292 22.4315 49.8769 22.4315C52.9857 22.4315 54.7751 20.2478 54.7751 18.0186C54.7599 15.2586 52.5914 14.4094 50.6655 13.7876Z" fill="white"/>
<path d="M61.7506 10.5879C58.4599 10.5879 55.8516 13.1962 55.8516 16.5173C55.8516 19.7777 58.4599 22.4315 61.7506 22.4315C65.011 22.4315 67.6345 19.7929 67.6345 16.5173C67.6345 13.1962 65.011 10.5879 61.7506 10.5879ZM61.7506 19.9597C59.8702 19.9597 58.4447 18.3977 58.4447 16.5173C58.4447 14.5914 59.8702 13.0597 61.7506 13.0597C63.6159 13.0597 65.0565 14.5914 65.0565 16.5173C65.0565 18.4129 63.6159 19.9597 61.7506 19.9597Z" fill="white"/>
<path d="M78.1738 7.29712L75.5352 9.10172V11.2703H77.8857V13.6208H75.5352V17.4575C75.5352 21.0667 76.6119 22.204 80.1301 22.204H80.494V19.7322C78.4771 19.7322 78.1738 19.4137 78.1738 17.4423V13.6208H80.494V11.2703H78.1738V7.29712Z" fill="white"/>
<path d="M97.9336 7.75195H95.2949V22.1433H97.9336V7.75195Z" fill="white"/>
<path d="M117.981 15.2436C116.268 14.8796 115.373 14.6825 115.373 13.9242C115.373 13.2873 115.949 12.6959 117.208 12.6959C118.3 12.6959 119.149 13.1963 119.619 14.0001L121.848 12.8779C120.969 11.4221 119.513 10.5273 117.208 10.5273C114.509 10.5273 112.734 12.1803 112.734 14.0001C112.734 16.3961 114.781 17.0178 116.723 17.4273C118.118 17.7457 119.392 17.8974 119.392 18.7314C119.392 19.4897 118.755 20.1114 117.45 20.1114C116.207 20.1114 115.252 19.5352 114.706 18.4585L112.279 19.6262C113.189 21.4156 114.781 22.3861 117.329 22.3861C120.574 22.3861 122 20.2631 122 18.6708C122 16.2748 119.862 15.6075 117.981 15.2436Z" fill="white"/>
<path d="M91.1097 16.6082C91.0036 18.3976 89.6084 19.8231 87.819 19.8231C85.9992 19.8231 84.6041 18.3673 84.5131 16.5627V11.3006H81.9199V16.3656V16.3807V16.5627C82.0109 19.7473 84.5889 22.295 87.8038 22.295C89.0322 22.295 90.1695 21.9159 91.0946 21.2941V21.84C91.0946 21.8704 91.0946 21.9159 91.0946 21.9462V22.295C91.0491 23.9934 89.8207 25.4037 88.1981 25.6009V28.0727C91.2462 27.8756 93.6271 25.3734 93.6877 22.2798V16.3656V16.3504V11.2854H91.0946V16.6082H91.1097Z" fill="white"/>
<path d="M71.1681 11.7252C71.1681 11.6949 71.1681 11.6646 71.1681 11.6191V11.2855C71.2136 9.67801 72.3661 8.35868 73.8977 8.16153V5.82617C71.0316 6.02331 68.7721 8.37384 68.7266 11.2855V22.0524H71.1681V16.6841C71.2439 15.107 72.3813 13.818 73.8977 13.6208V11.2855C72.8817 11.3461 71.9567 11.6949 71.1681 12.2257V11.7252Z" fill="white"/>
<path d="M108.791 16.3658C108.791 18.2614 107.366 19.8233 105.501 19.8233C103.681 19.8233 102.286 18.3675 102.195 16.5629V11.3008H99.6016V16.3658V16.381V16.5629C99.6926 19.7475 102.271 22.2952 105.485 22.2952C108.746 22.2952 111.369 19.6565 111.369 16.381V16.3658V11.3008H108.776V16.3658H108.791Z" fill="white"/>
<path d="M49.8318 29.4885V30.2185H47.5618V36.4885H46.7718V30.2185H44.4918V29.4885H49.8318ZM55.4828 34.0085C55.4828 34.1485 55.4828 34.2085 55.4728 34.3785H51.8228C51.8728 35.4885 52.3228 35.9285 53.3528 35.9285C54.1228 35.9285 54.4328 35.7385 54.6528 35.1185L55.3728 35.3985C55.0428 36.2285 54.2328 36.5885 53.3528 36.5885C51.9428 36.5885 51.0328 35.6285 51.0328 34.1385C51.0328 32.6785 52.0028 31.6885 53.3128 31.6885C54.5828 31.6885 55.4828 32.5685 55.4828 34.0085ZM53.3028 32.3385C52.4028 32.3385 51.9228 32.7885 51.8328 33.7485H54.7128C54.6528 32.7385 54.2528 32.3385 53.3028 32.3385ZM60.5044 35.8985C61.3344 35.8985 61.7844 35.5785 61.9844 34.5485L62.7644 34.7585C62.4744 35.9885 61.6344 36.5885 60.5144 36.5885C59.0744 36.5885 58.0844 35.6085 58.0844 34.1385C58.0844 32.6685 59.0744 31.6885 60.5144 31.6885C61.6344 31.6885 62.4744 32.2885 62.7644 33.5185L61.9844 33.7285C61.7844 32.6985 61.3344 32.3785 60.5044 32.3785C59.3944 32.3785 58.8744 32.9385 58.8744 34.1385C58.8744 35.3385 59.3944 35.8985 60.5044 35.8985ZM68.2505 31.6885C69.3505 31.6885 69.9605 32.3485 69.9605 33.5285V36.4885H69.1905V33.5785C69.1905 32.8085 68.7305 32.3885 68.0305 32.3885C67.1105 32.3885 66.5305 33.0985 66.5305 34.3185V36.4885H65.7605V29.4885H66.5305V32.9485C66.7605 32.2085 67.2605 31.6885 68.2505 31.6885ZM75.8002 31.6885C76.9002 31.6885 77.5102 32.3485 77.5102 33.5285V36.4885H76.7402V33.5785C76.7402 32.8085 76.2802 32.3885 75.5802 32.3885C74.6602 32.3885 74.0802 33.0985 74.0802 34.3185V36.4885H73.3102V31.7885H74.0802V32.9485C74.3102 32.2085 74.8102 31.6885 75.8002 31.6885ZM82.8898 31.6885C84.2398 31.6885 85.3198 32.6685 85.3198 34.1385C85.3198 35.6085 84.2398 36.5885 82.8898 36.5885C81.5398 36.5885 80.4598 35.6085 80.4598 34.1385C80.4598 32.6685 81.5398 31.6885 82.8898 31.6885ZM82.8898 35.8885C83.9998 35.8885 84.5298 35.3285 84.5298 34.1385C84.5298 32.9485 83.9998 32.3885 82.8898 32.3885C81.7798 32.3885 81.2498 32.9485 81.2498 34.1385C81.2498 35.3285 81.7798 35.8885 82.8898 35.8885ZM88.3215 36.4885V29.4885H89.0915V36.4885H88.3215ZM94.5222 31.6885C95.8722 31.6885 96.9522 32.6685 96.9522 34.1385C96.9522 35.6085 95.8722 36.5885 94.5222 36.5885C93.1722 36.5885 92.0922 35.6085 92.0922 34.1385C92.0922 32.6685 93.1722 31.6885 94.5222 31.6885ZM94.5222 35.8885C95.6322 35.8885 96.1622 35.3285 96.1622 34.1385C96.1622 32.9485 95.6322 32.3885 94.5222 32.3885C93.4122 32.3885 92.8822 32.9485 92.8822 34.1385C92.8822 35.3285 93.4122 35.8885 94.5222 35.8885ZM103.414 31.7885H104.184V36.2685C104.184 37.4785 103.314 38.2885 101.894 38.2885C100.694 38.2885 99.9439 37.8585 99.6139 36.9585L100.354 36.6085C100.624 37.4085 100.934 37.6085 101.894 37.6085C102.974 37.6085 103.414 37.1785 103.414 36.2685V35.2985C103.094 35.9185 102.504 36.2985 101.724 36.2985C100.464 36.2985 99.5539 35.3485 99.5539 33.9985C99.5539 32.6385 100.464 31.6885 101.724 31.6885C102.504 31.6885 103.094 32.0685 103.414 32.6885V31.7885ZM101.894 35.5885C102.964 35.5885 103.474 35.0785 103.474 33.9985C103.474 32.9085 102.974 32.3885 101.914 32.3885C100.844 32.3885 100.344 32.9085 100.344 33.9985C100.344 35.0785 100.844 35.5885 101.894 35.5885ZM107.982 30.6285C107.622 30.6285 107.412 30.4185 107.402 30.0585C107.392 29.7085 107.602 29.5185 107.982 29.5185C108.332 29.5185 108.532 29.7085 108.542 30.0585C108.552 30.4185 108.352 30.6285 107.982 30.6285ZM107.582 36.4885V31.7885H108.352V36.4885H107.582ZM115.802 34.0085C115.802 34.1485 115.802 34.2085 115.792 34.3785H112.142C112.192 35.4885 112.642 35.9285 113.672 35.9285C114.442 35.9285 114.752 35.7385 114.972 35.1185L115.692 35.3985C115.362 36.2285 114.552 36.5885 113.672 36.5885C112.262 36.5885 111.352 35.6285 111.352 34.1385C111.352 32.6785 112.322 31.6885 113.632 31.6885C114.902 31.6885 115.802 32.5685 115.802 34.0085ZM113.622 32.3385C112.722 32.3385 112.242 32.7885 112.152 33.7485H115.032C114.972 32.7385 114.572 32.3385 113.622 32.3385ZM120.384 36.5885C119.364 36.5885 118.604 36.1085 118.384 35.1385L119.144 34.8885C119.274 35.6485 119.654 35.9085 120.434 35.9085C121.144 35.9085 121.484 35.7085 121.484 35.2685C121.484 34.8685 121.344 34.7285 120.774 34.6185L119.854 34.4385C119.174 34.3085 118.544 33.9685 118.544 33.0985C118.544 32.2485 119.234 31.6885 120.274 31.6885C121.174 31.6885 121.964 32.0485 122.164 33.1785L121.404 33.3885C121.304 32.4985 120.924 32.3685 120.304 32.3685C119.634 32.3685 119.324 32.5785 119.324 33.0385C119.324 33.4185 119.464 33.5985 119.894 33.6785L121.074 33.9085C121.764 34.0385 122.244 34.3885 122.244 35.1385C122.244 36.0085 121.504 36.5885 120.384 36.5885Z" fill="white"/>
<path d="M35.6067 9.73767L26.0226 4.20255L13.9667 20.3833L17.9247 23.4769V30.5891L7.56719 22.8096C6.71797 22.1727 6.53598 20.9596 7.1729 20.1103L21.1244 1.38192C19.7293 0.62369 18.0308 0.638853 16.6508 1.44258L2.28987 9.73767C0.864384 10.5566 0 12.073 0 13.7108V30.2858C0 31.9236 0.879549 33.4401 2.28987 34.259L11.8285 39.7638L23.9299 23.9167L20.0932 21.2477V14.4236L30.2536 21.5206C31.1635 22.1576 31.3606 23.4011 30.6782 24.2806L16.6963 42.5996C18.1066 43.373 19.8203 43.373 21.2154 42.5541L35.5764 34.259C37.0019 33.4401 37.8663 31.9236 37.8663 30.2858V13.7108C37.8966 12.073 37.017 10.5566 35.6067 9.73767Z" fill="#EC2227"/>
</svg>
