<svg width="73" height="72" viewBox="0 0 73 72" fill="none" xmlns="http://www.w3.org/2000/svg">
<g filter="url(#filter0_f_782_19031)">
<circle cx="50" cy="20" r="16" fill="#043099" fill-opacity="0.5"/>
</g>
<g filter="url(#filter1_f_782_19031)">
<circle cx="15.5" cy="49.5" r="8.5" fill="#EC2227"/>
</g>
<g opacity="0.9">
<mask id="mask0_782_19031" style="mask-type:luminance" maskUnits="userSpaceOnUse" x="7" y="8" width="50" height="50">
<path d="M55 56V10H9V56H55Z" fill="white" stroke="white" strokeWidth="4"/>
</mask>
<g mask="url(#mask0_782_19031)">
<path d="M47.334 18.8398V15.8005C47.334 12.5645 44.7106 9.94116 41.4746 9.94116H22.5293C19.2933 9.94116 16.6699 12.5645 16.6699 15.8005V50.1755C16.6699 53.4116 19.2933 56.0349 22.5293 56.0349H41.4746C44.7106 56.0349 47.334 53.4116 47.334 50.1755V46.4765" stroke="#F5F5F5" strokeWidth="4" stroke-miterlimit="10" strokeLinecap="round"/>
<path d="M32.0479 49.1133C32.0479 49.1105 32.0469 49.1028 32.0434 49.0945C32.0404 49.0874 32.0369 49.0829 32.0341 49.0801C32.0313 49.0773 32.0269 49.0739 32.0198 49.0709C32.0114 49.0674 32.0037 49.0664 32.001 49.0664C31.9982 49.0664 31.9905 49.0674 31.9821 49.0709C31.9751 49.0739 31.9706 49.0773 31.9678 49.0801C31.965 49.0829 31.9616 49.0874 31.9586 49.0945C31.9551 49.1028 31.9541 49.1105 31.9541 49.1133C31.9541 49.116 31.9551 49.1237 31.9586 49.1321C31.9616 49.1392 31.965 49.1436 31.9678 49.1464C31.9706 49.1492 31.9751 49.1527 31.9821 49.1557C31.9905 49.1592 31.9982 49.1602 32.001 49.1602C32.0037 49.1602 32.0114 49.1592 32.0198 49.1557C32.0269 49.1527 32.0313 49.1492 32.0341 49.1464C32.0369 49.1436 32.0404 49.1392 32.0434 49.1321C32.0469 49.1237 32.0479 49.116 32.0479 49.1133Z" fill="white" stroke="#F5F5F5" strokeWidth="4"/>
<path d="M30.0479 16.8867H33.9541" stroke="#F5F5F5" strokeWidth="4" stroke-miterlimit="10" strokeLinecap="round"/>
<mask id="path-7-inside-1_782_19031" fill="white">
<path d="M38.573 42.7656C39.4597 42.7656 40.3359 42.1812 40.5764 41.3352L45.0124 25.7298C45.3685 24.4773 44.4192 23.2344 43.1068 23.2344C42.22 23.2344 41.4415 23.8188 41.201 24.6648L36.7649 40.2702C36.4089 41.5227 37.2606 42.7656 38.573 42.7656Z"/>
</mask>
<path d="M38.573 42.7656C39.4597 42.7656 40.3359 42.1812 40.5764 41.3352L45.0124 25.7298C45.3685 24.4773 44.4192 23.2344 43.1068 23.2344C42.22 23.2344 41.4415 23.8188 41.201 24.6648L36.7649 40.2702C36.4089 41.5227 37.2606 42.7656 38.573 42.7656Z" fill="white"/>
<path d="M40.5764 41.3352L44.4239 42.4289L44.4239 42.4289L40.5764 41.3352ZM45.0124 25.7298L41.1648 24.6361L41.1649 24.636L45.0124 25.7298ZM41.201 24.6648L37.3534 23.5711L37.3534 23.5711L41.201 24.6648ZM36.7649 40.2702L32.9172 39.1767L32.9173 39.1765L36.7649 40.2702ZM38.573 38.7656C38.1567 38.7656 37.8032 38.8948 37.5238 39.0903C37.2401 39.2888 36.8946 39.6582 36.7288 40.2414L44.4239 42.4289C43.6296 45.223 40.9986 46.7656 38.573 46.7656V38.7656ZM36.7288 40.2414L41.1648 24.6361L48.86 26.8235L44.4239 42.4289L36.7288 40.2414ZM41.1649 24.636C40.782 25.9827 41.8108 27.2344 43.1068 27.2344V19.2344C47.0275 19.2344 49.9549 22.972 48.86 26.8236L41.1649 24.636ZM43.1068 27.2344C43.9877 27.2344 44.7947 26.6517 45.0485 25.7586L37.3534 23.5711C38.0884 20.9858 40.4524 19.2344 43.1068 19.2344V27.2344ZM45.0485 25.7586L40.6124 41.364L32.9173 39.1765L37.3534 23.5711L45.0485 25.7586ZM40.6125 41.3637C40.7655 40.8253 40.6758 40.1933 40.3025 39.6687C39.9122 39.1201 39.2581 38.7656 38.573 38.7656V46.7656C34.3554 46.7656 31.9052 42.7375 32.9172 39.1767L40.6125 41.3637Z" fill="#F5F5F5" mask="url(#path-7-inside-1_782_19031)"/>
<path d="M32.002 27.043L27.1654 31.098C25.9318 32.1457 25.9318 34.0496 27.1654 35.0973L32.002 39.1523" stroke="#F5F5F5" strokeWidth="4" stroke-miterlimit="10" strokeLinecap="round" strokeLinejoin="round"/>
<path d="M49.3838 27.043L54.1227 31.098C55.3563 32.1457 55.3563 34.0496 54.1227 35.0973L49.3838 39.1523" stroke="#F5F5F5" strokeWidth="4" stroke-miterlimit="10" strokeLinecap="round" strokeLinejoin="round"/>
</g>
</g>
<defs>
<filter id="filter0_f_782_19031" x="30" y="0" width="40" height="40" filterUnits="userSpaceOnUse" color-interpolation-filters="sRGB">
<feFlood flood-opacity="0" result="BackgroundImageFix"/>
<feBlend mode="normal" in="SourceGraphic" in2="BackgroundImageFix" result="shape"/>
<feGaussianBlur stdDeviation="2" result="effect1_foregroundBlur_782_19031"/>
</filter>
<filter id="filter1_f_782_19031" x="0" y="34" width="31" height="31" filterUnits="userSpaceOnUse" color-interpolation-filters="sRGB">
<feFlood flood-opacity="0" result="BackgroundImageFix"/>
<feBlend mode="normal" in="SourceGraphic" in2="BackgroundImageFix" result="shape"/>
<feGaussianBlur stdDeviation="3.5" result="effect1_foregroundBlur_782_19031"/>
</filter>
</defs>
</svg>
