<svg width="63" height="63" viewBox="0 0 63 63" fill="none" xmlns="http://www.w3.org/2000/svg">
<path d="M52.6729 55.1058H16.9616C16.1052 55.1058 15.2838 54.7656 14.6782 54.16C14.0726 53.5544 13.7324 52.733 13.7324 51.8766V24.9421" stroke="white" stroke-width="4" stroke-linecap="round" stroke-linejoin="round"/>
<path d="M25.75 55.0574V47.5464" stroke="white" stroke-width="4" stroke-linecap="round" stroke-linejoin="round"/>
<path d="M37.7949 55.0574V35.5403" stroke="white" stroke-width="4" stroke-linecap="round" stroke-linejoin="round"/>
<path d="M49.8379 55.0575V39.1764V31.6428V23.4116" stroke="white" stroke-width="4" stroke-linecap="round" stroke-linejoin="round"/>
<path d="M13.7451 24.6614C18.316 24.6614 22.0215 20.9559 22.0215 16.385C22.0215 11.8141 18.316 8.10864 13.7451 8.10864C9.1742 8.10864 5.46875 11.8141 5.46875 16.385C5.46875 20.9559 9.1742 24.6614 13.7451 24.6614Z" fill="black" stroke="white" stroke-width="4" stroke-linecap="round" stroke-linejoin="round"/>
<path d="M18.3438 16.4205H13.752V11.8286" stroke="white" stroke-width="4" stroke-linecap="round" stroke-linejoin="round"/>
<path d="M20.5527 39.8899L52.2373 8.20532" stroke="white" stroke-width="4" stroke-linecap="round" stroke-linejoin="round"/>
<path d="M46.3301 8.20532H52.2362V14.1115" stroke="white" stroke-width="4" stroke-linecap="round" stroke-linejoin="round"/>
</svg>
