<svg width="59" height="59" viewBox="0 0 59 59" fill="none" xmlns="http://www.w3.org/2000/svg">
<path d="M7.34311 54.7712C6.58014 54.4639 6.01236 54.0741 5.40445 53.4402C4.79179 52.8014 4.53823 52.4134 4.23331 51.6482L4.00586 51.0773V29.5V7.92264L4.23331 7.35184C4.53823 6.58662 4.79179 6.19862 5.40445 5.55978C6.01887 4.9191 6.58549 4.53225 7.3577 4.22621L7.9285 4H29.5018H51.0751L51.7355 4.25522C53.1891 4.81699 54.4213 6.17028 54.92 7.75272C55.0896 8.2907 55.0914 8.52437 55.0914 29.4935C55.0914 48.7424 55.0787 50.7331 54.9535 51.1552C54.7063 51.9877 54.3004 52.6946 53.7009 53.3366C53.0207 54.0649 52.4053 54.4958 51.6264 54.7889L51.0657 55L29.4825 54.9977L7.89931 54.9955L7.34311 54.7712ZM50.7036 51.9403C51.2421 51.6526 51.6056 51.2997 51.8871 50.7915L52.1392 50.3364L52.1615 34.6128L52.1838 18.8893H29.5068H6.82968L6.83001 34.4417C6.83032 44.7629 6.85989 50.1 6.91788 50.3088C7.12227 51.0447 7.93406 51.8726 8.65772 52.0833C8.81681 52.1296 17.3543 52.1557 29.6341 52.1474L50.3421 52.1334L50.7036 51.9403ZM10.8943 46.8294C10.3031 46.551 9.99594 46.0816 9.99752 45.4589C9.99913 44.8673 10.2722 44.4017 10.763 44.1539L11.1445 43.9614H29.5059H47.8672L48.2487 44.1539C49.227 44.6477 49.2857 46.063 48.3545 46.7011L48.0444 46.9136L29.5977 46.932C13.8582 46.9476 11.1133 46.9326 10.8943 46.8294ZM15.0872 39.3066C13.4426 38.9899 11.4123 37.7906 10.9341 36.8532C10.3386 35.6859 11.3823 34.3788 12.6395 34.7174C12.8577 34.7761 13.1907 34.9895 13.513 35.2771C14.7443 36.3758 16.4847 36.7368 17.6065 36.1262C18.1235 35.8448 18.3423 35.5984 18.4783 35.1444C18.56 34.872 18.55 34.7711 18.4141 34.4928C18.1777 34.0087 17.6832 33.7255 15.6805 32.9273C14.6953 32.5347 13.6775 32.1066 13.4186 31.9761C12.7714 31.6499 12.1194 30.9559 11.7758 30.2273C11.5051 29.6535 11.4933 29.5853 11.4933 28.6015C11.4933 27.6136 11.504 27.5528 11.7756 26.9974C12.3346 25.8543 13.3338 25.0334 14.6456 24.6393C15.6751 24.33 17.1016 24.3357 18.1513 24.6533C19.4799 25.0552 20.515 25.7017 20.9106 26.3767C21.3492 27.1252 21.075 28.1014 20.324 28.4649C19.6835 28.775 19.0857 28.657 18.4676 28.0985C17.7183 27.4216 16.1514 27.2012 15.1962 27.6385C14.6621 27.883 14.4455 28.1817 14.4455 28.6733C14.4455 28.8352 14.5128 29.0478 14.5952 29.1459C14.682 29.2492 15.4828 29.6137 16.4991 30.0126C18.5372 30.8124 19.1904 31.1263 19.7843 31.5914C20.9562 32.509 21.4998 33.5555 21.4982 34.8909C21.4972 35.7842 21.3225 36.3976 20.876 37.077C20.2026 38.1015 19.3823 38.7279 18.1979 39.1222C17.3314 39.4107 16.0287 39.4879 15.0872 39.3066ZM24.6711 39.2669C24.2635 39.0777 24.0812 38.8867 23.9043 38.4631C23.7899 38.1894 23.7726 37.3274 23.7726 31.8829C23.7726 25.6734 23.7743 25.6145 23.9541 25.2428C24.0634 25.0171 24.2737 24.7765 24.4825 24.6382L24.8294 24.4086L27.6169 24.3819C30.595 24.3535 30.8459 24.3794 31.3021 24.7633C31.6745 25.0767 31.8163 25.3989 31.8163 25.9319C31.8163 26.4418 31.6201 26.8198 31.1899 27.1389C30.9649 27.3058 30.8081 27.3208 28.8795 27.3607L26.8104 27.4035V28.901V30.3985L28.6502 30.4413C30.7587 30.4903 30.9226 30.5379 31.2751 31.2046C31.6456 31.9051 31.4399 32.7162 30.7813 33.1525L30.4174 33.3934L28.5925 33.4209L26.7676 33.4484V34.9398V36.4312L28.7143 36.4332C30.9041 36.4354 31.177 36.4935 31.568 37.0417C31.7379 37.2799 31.7735 37.4334 31.7735 37.9288C31.7735 38.5969 31.6582 38.8243 31.1381 39.1819C30.846 39.3828 30.8352 39.3835 27.9292 39.4047C25.2419 39.4242 24.9866 39.4134 24.6711 39.2669ZM39.3892 39.3051C38.0254 39.0381 36.6983 38.3618 35.6853 37.4175C34.9069 36.692 34.5106 36.167 34.0504 35.2517C33.4531 34.0637 33.3142 33.4307 33.3142 31.896C33.3142 30.7736 33.3439 30.4671 33.5072 29.9029C34.3725 26.9139 36.7982 24.8565 39.9519 24.4366C41.347 24.2509 43.0549 24.5984 44.3766 25.337C47.1746 26.9006 48.6703 29.9993 48.1562 33.1676C47.7027 35.9624 45.497 38.3822 42.6837 39.1714C41.8535 39.4042 40.2318 39.4701 39.3892 39.3051ZM42.2793 36.1421C43.6926 35.6101 44.8383 34.3292 45.1589 32.9228C45.471 31.5535 45.0497 29.9584 44.1013 28.9184C42.3662 27.0159 39.5663 26.8867 37.7151 28.6238C36.7412 29.5376 36.2811 30.5761 36.2709 31.8836C36.2539 34.043 37.7516 35.8906 39.8893 36.3478C40.5084 36.4802 41.6398 36.3828 42.2793 36.1421ZM52.1641 12.2789C52.1396 8.71411 52.1365 8.65854 51.9462 8.3023C51.6584 7.76377 51.3056 7.40024 50.7974 7.11874L50.3423 6.86661H29.5059H8.66945L8.21431 7.11874C7.70614 7.40024 7.35329 7.76377 7.06553 8.3023C6.87517 8.65854 6.87212 8.71411 6.84758 12.2789L6.82268 15.8943H29.5058H52.189L52.1641 12.2789ZM34.7684 12.6195C34.0413 12.2127 33.8216 11.1334 34.3301 10.4667C34.7931 9.85967 35.4305 9.69803 36.1187 10.0131C37.0617 10.4448 37.3251 11.5254 36.6695 12.2721C36.1727 12.838 35.4086 12.9776 34.7684 12.6195ZM40.8439 12.643C40.0773 12.261 39.82 11.2595 40.3015 10.5319C40.9306 9.58119 42.3951 9.67832 42.8597 10.7016C43.4588 12.0211 42.1416 13.2898 40.8439 12.643ZM46.9152 12.6981C46.3704 12.451 45.9465 11.6607 46.0723 11.127C46.1929 10.6159 46.4726 10.2501 46.9094 10.0324C47.4176 9.77916 47.6567 9.76874 48.121 9.97964C49.1967 10.4683 49.3429 11.8786 48.3914 12.589C48.1015 12.8054 47.2849 12.8658 46.9152 12.6981Z" fill="white"/>
</svg>
