<svg width="1070" height="394" viewBox="0 0 1070 394" fill="none" xmlns="http://www.w3.org/2000/svg">
<path d="M780.667 243C780.667 245.946 783.054 248.333 786 248.333C788.946 248.333 791.333 245.946 791.333 243C791.333 240.054 788.946 237.667 786 237.667C783.054 237.667 780.667 240.054 780.667 243ZM580 244H581.981V242H580V244ZM585.942 244H589.904V242H585.942V244ZM593.865 244H597.827V242H593.865V244ZM601.788 244H605.75V242H601.788V244ZM609.712 244H613.673V242H609.712V244ZM617.635 244H621.596V242H617.635V244ZM625.558 244H629.519V242H625.558V244ZM633.481 244H637.442V242H633.481V244ZM641.404 244H645.365V242H641.404V244ZM649.327 244H653.288V242H649.327V244ZM657.25 244H661.212V242H657.25V244ZM665.173 244H669.135V242H665.173V244ZM673.096 244H677.058V242H673.096V244ZM681.019 244H684.981V242H681.019V244ZM688.942 244H692.904V242H688.942V244ZM696.865 244H700.827V242H696.865V244ZM704.788 244H708.75V242H704.788V244ZM712.712 244H716.673V242H712.712V244ZM720.635 244H724.596V242H720.635V244ZM728.558 244H732.519V242H728.558V244ZM736.481 244H740.442V242H736.481V244ZM744.404 244H748.365V242H744.404V244ZM752.327 244H756.288V242H752.327V244ZM760.25 244H764.212V242H760.25V244ZM768.173 244H772.135V242H768.173V244ZM776.096 244H780.058V242H776.096V244ZM784.019 244H786V242H784.019V244Z" fill="#F5F5F5"/>
<path d="M287.333 226C287.333 228.946 284.946 231.333 282 231.333C279.054 231.333 276.667 228.946 276.667 226C276.667 223.054 279.054 220.667 282 220.667C284.946 220.667 287.333 223.054 287.333 226ZM488 227H486.019V225H488V227ZM482.058 227H478.096V225H482.058V227ZM474.135 227H470.173V225H474.135V227ZM466.212 227H462.25V225H466.212V227ZM458.288 227H454.327V225H458.288V227ZM450.365 227H446.404V225H450.365V227ZM442.442 227H438.481V225H442.442V227ZM434.519 227H430.558V225H434.519V227ZM426.596 227H422.635V225H426.596V227ZM418.673 227H414.712V225H418.673V227ZM410.75 227H406.788V225H410.75V227ZM402.827 227H398.865V225H402.827V227ZM394.904 227H390.942V225H394.904V227ZM386.981 227H383.019V225H386.981V227ZM379.058 227H375.096V225H379.058V227ZM371.135 227H367.173V225H371.135V227ZM363.212 227H359.25V225H363.212V227ZM355.288 227H351.327V225H355.288V227ZM347.365 227H343.404V225H347.365V227ZM339.442 227H335.481V225H339.442V227ZM331.519 227H327.558V225H331.519V227ZM323.596 227H319.635V225H323.596V227ZM315.673 227H311.712V225H315.673V227ZM307.75 227H303.788V225H307.75V227ZM299.827 227H295.865V225H299.827V227ZM291.904 227H287.942V225H291.904V227ZM283.981 227H282V225H283.981V227Z" fill="#F5F5F5"/>
<g filter="url(#filter0_d_796_23929)">
<rect x="871.174" y="85" width="56" height="56" rx="16" transform="rotate(1.20102 871.174 85)" fill="#241F1F" shape-rendering="crispEdges"/>
<path d="M890.705 118.206L886.016 113.316L901.894 98.0912L911.472 98.292L890.705 118.206ZM911.171 112.642L901.593 112.441L897.93 115.954L902.619 120.844" fill="#42A5F5" fill-opacity="0.8"/>
<path d="M897.729 125.532L901.241 129.195L910.82 129.396L902.619 120.844" fill="#0D47A1"/>
<path d="M893.051 120.646L897.934 115.963L902.615 120.845L897.733 125.529L893.051 120.646Z" fill="#42A5F5"/>
<path d="M897.733 125.529L902.615 120.847L903.269 121.528L898.386 126.21L897.733 125.529Z" fill="url(#paint0_linear_796_23929)"/>
<path d="M897.729 125.532L904.887 123.226L902.619 120.843" fill="url(#paint1_linear_796_23929)"/>
</g>
<g filter="url(#filter1_d_796_23929)">
<rect x="190" y="6" width="56" height="56" rx="16" fill="#241F1F" shape-rendering="crispEdges"/>
<path d="M216.777 18.4751H221.861V41.7767C219.257 42.2693 217.34 42.4631 215.266 42.4631C209.057 42.4566 205.824 39.6825 205.824 34.3547C205.824 29.2214 209.253 25.8899 214.566 25.8899C215.39 25.8899 216.018 25.9548 216.777 26.1492V18.4751ZM216.955 30.3484C216.36 30.1539 215.869 30.0891 215.241 30.0891C212.67 30.0891 211.185 31.6576 211.185 34.4064C211.185 37.0826 212.604 38.5603 215.209 38.5603C215.771 38.5603 216.229 38.5287 216.955 38.4314V30.3484Z" fill="#2BA977"/>
<path d="M230.175 26.5155V38.1823C230.175 42.2001 229.874 44.1322 228.991 45.798C228.166 47.3995 227.08 48.4094 224.836 49.5248L220.118 47.3017C222.362 46.2587 223.449 45.3371 224.142 43.9307C224.868 42.4925 225.097 40.8266 225.097 36.4452V26.5156H230.175V26.5155ZM224.585 18.4751H229.669V23.6409H224.585V18.4751Z" fill="#2BA977"/>
</g>
<g filter="url(#filter2_d_796_23929)">
<rect x="10" y="105" width="56" height="56" rx="16" fill="#241F1F" shape-rendering="crispEdges"/>
<path d="M24.6553 133C24.6553 138.282 27.7249 142.846 32.1761 145.01L25.8106 127.569C25.0475 129.278 24.6538 131.128 24.6553 133ZM47.0084 132.326C47.0084 130.677 46.416 129.535 45.9079 128.646C45.2315 127.547 44.5977 126.616 44.5977 125.517C44.5977 124.29 45.5278 123.148 46.8383 123.148C46.8974 123.148 46.9536 123.155 47.0114 123.159C44.637 120.984 41.474 119.656 37.9998 119.656C33.3378 119.656 29.2363 122.048 26.8502 125.671C27.1632 125.68 27.4586 125.686 27.7089 125.686C29.1047 125.686 31.2653 125.517 31.2653 125.517C31.9847 125.474 32.0695 126.531 31.3512 126.616C31.3512 126.616 30.628 126.701 29.8236 126.743L34.6831 141.198L37.6037 132.439L35.5243 126.743C34.8057 126.701 34.125 126.616 34.125 126.616C33.4059 126.574 33.4902 125.474 34.2093 125.517C34.2093 125.517 36.4131 125.686 37.7243 125.686C39.1199 125.686 41.2807 125.517 41.2807 125.517C42.0006 125.474 42.0851 126.531 41.3663 126.616C41.3663 126.616 40.6419 126.701 39.839 126.743L44.6614 141.088L45.9922 136.64C46.5694 134.794 47.0084 133.469 47.0084 132.326Z" fill="#00749A"/>
<path d="M38.2343 134.167L34.2305 145.801C35.4545 146.162 36.7241 146.345 38.0002 146.345C39.5542 146.345 41.0444 146.076 42.4316 145.588C42.3944 145.53 42.3626 145.469 42.3366 145.405L38.2343 134.167ZM49.7095 126.597C49.7669 127.022 49.7994 127.479 49.7994 127.969C49.7994 129.324 49.5465 130.846 48.7847 132.749L44.7085 144.534C48.6758 142.221 51.3442 137.923 51.3442 133C51.3478 130.762 50.7854 128.559 49.7095 126.597Z" fill="#00749A"/>
<path d="M38 117.444C29.4228 117.444 22.4443 124.422 22.4443 133C22.4443 141.578 29.4226 148.556 38 148.556C46.577 148.556 53.5565 141.578 53.5565 133C53.5562 124.422 46.577 117.444 38 117.444ZM38 147.843C29.8162 147.843 23.1576 141.184 23.1576 133C23.1576 124.816 29.8159 118.158 38 118.158C46.1837 118.158 52.8417 124.816 52.8417 133C52.8417 141.184 46.1834 147.843 38 147.843Z" fill="#00749A"/>
</g>
<g filter="url(#filter3_d_796_23929)">
<rect x="76" y="324" width="56" height="56" rx="16" fill="#241F1F" shape-rendering="crispEdges"/>
<path d="M119.555 336.444H104.065L89.2725 352H103.972L104.041 351.93L119.555 336.444Z" fill="url(#paint2_linear_796_23929)"/>
<path d="M119.555 367.556H88.4443H119.555ZM104.041 351.93L103.973 352H104.111L104.041 351.93Z" fill="url(#paint3_linear_796_23929)"/>
<path d="M104.065 336.444H88.4443V352.871V352H89.2727L104.065 336.444Z" fill="url(#paint4_linear_796_23929)"/>
<path d="M103.973 352H89.2727L88.4443 352.871V367.556L103.973 352Z" fill="url(#paint5_linear_796_23929)"/>
<path d="M104.111 352H103.973L88.4443 367.556H119.555L104.111 352Z" fill="url(#paint6_linear_796_23929)"/>
<path d="M89.2727 352H88.4443V352.871L89.2727 352Z" fill="url(#paint7_linear_796_23929)"/>
</g>
<g filter="url(#filter4_d_796_23929)">
<rect x="1004" y="141.85" width="56" height="56" rx="16" fill="#241F1F" shape-rendering="crispEdges"/>
<path d="M1026.82 185.406C1029.68 185.406 1032 183.083 1032 180.22V175.035H1026.82C1023.95 175.035 1021.63 177.358 1021.63 180.22C1021.63 183.083 1023.95 185.406 1026.82 185.406Z" fill="#0ACF83"/>
<path d="M1021.63 169.85C1021.63 166.988 1023.95 164.665 1026.82 164.665H1032V175.035H1026.82C1023.95 175.035 1021.63 172.712 1021.63 169.85Z" fill="#A259FF"/>
<path d="M1021.63 159.48C1021.63 156.618 1023.95 154.295 1026.82 154.295H1032V164.665H1026.82C1023.95 164.665 1021.63 162.342 1021.63 159.48Z" fill="#F24E1E"/>
<path d="M1032 154.295H1037.19C1040.05 154.295 1042.37 156.618 1042.37 159.48C1042.37 162.342 1040.05 164.665 1037.19 164.665H1032V154.295Z" fill="#FF7262"/>
<path d="M1042.37 169.85C1042.37 172.712 1040.05 175.035 1037.19 175.035C1034.32 175.035 1032 172.712 1032 169.85C1032 166.988 1034.32 164.665 1037.19 164.665C1040.05 164.665 1042.37 166.988 1042.37 169.85Z" fill="#1ABCFE"/>
</g>
<g filter="url(#filter5_d_796_23929)">
<rect x="928" y="303" width="56" height="56" rx="16" fill="#241F1F" shape-rendering="crispEdges"/>
<path d="M956 333.743C957.514 333.743 958.742 332.515 958.742 331C958.742 329.485 957.514 328.257 956 328.257C954.485 328.257 953.257 329.485 953.257 331C953.257 332.515 954.485 333.743 956 333.743Z" fill="#61DAFB"/>
<path fill-rule="evenodd" clip-rule="evenodd" d="M943.109 329.555C942.488 330.116 942.282 330.606 942.282 331C942.282 331.394 942.488 331.884 943.109 332.445C943.73 333.006 944.685 333.556 945.95 334.039C948.473 335.003 952.026 335.619 956 335.619C959.974 335.619 963.527 335.003 966.05 334.039C967.315 333.556 968.27 333.006 968.891 332.445C969.512 331.884 969.717 331.394 969.717 331C969.717 330.606 969.512 330.116 968.891 329.555C968.27 328.994 967.315 328.444 966.05 327.961C963.527 326.997 959.974 326.38 956 326.38C952.026 326.38 948.473 326.997 945.95 327.961C944.685 328.444 943.73 328.994 943.109 329.555ZM945.236 326.092C948.04 325.022 951.846 324.38 956 324.38C960.154 324.38 963.96 325.022 966.763 326.092C968.162 326.626 969.362 327.286 970.231 328.07C971.099 328.854 971.717 329.843 971.717 331C971.717 332.157 971.099 333.146 970.231 333.93C969.362 334.714 968.162 335.374 966.763 335.908C963.96 336.978 960.154 337.619 956 337.619C951.846 337.619 948.04 336.978 945.236 335.908C943.838 335.374 942.637 334.714 941.769 333.93C940.9 333.146 940.282 332.157 940.282 331C940.282 329.843 940.9 328.854 941.769 328.07C942.637 327.286 943.838 326.626 945.236 326.092Z" fill="#61DAFB"/>
<path fill-rule="evenodd" clip-rule="evenodd" d="M950.806 319.114C950.01 318.856 949.483 318.923 949.141 319.12C948.8 319.317 948.478 319.74 948.303 320.559C948.128 321.377 948.129 322.479 948.343 323.816C948.77 326.482 950.013 329.868 952 333.31C953.987 336.751 956.297 339.52 958.393 341.223C959.444 342.077 960.398 342.629 961.194 342.886C961.99 343.144 962.518 343.077 962.859 342.88C963.201 342.683 963.522 342.26 963.697 341.441C963.872 340.623 963.872 339.521 963.657 338.184C963.23 335.517 961.988 332.132 960.001 328.69C958.014 325.248 955.703 322.48 953.607 320.777C952.557 319.923 951.602 319.371 950.806 319.114ZM954.869 319.224C957.198 321.117 959.656 324.093 961.733 327.69C963.81 331.288 965.158 334.904 965.632 337.868C965.869 339.346 965.898 340.716 965.653 341.86C965.408 343.004 964.861 344.033 963.859 344.612C962.857 345.191 961.692 345.149 960.579 344.789C959.465 344.429 958.293 343.72 957.132 342.775C954.803 340.883 952.345 337.907 950.268 334.31C948.191 330.712 946.843 327.096 946.368 324.132C946.131 322.654 946.103 321.284 946.348 320.14C946.592 318.996 947.139 317.967 948.141 317.388C949.144 316.809 950.309 316.851 951.422 317.211C952.535 317.571 953.707 318.28 954.869 319.224Z" fill="#61DAFB"/>
<path fill-rule="evenodd" clip-rule="evenodd" d="M963.696 320.559C963.521 319.74 963.2 319.317 962.858 319.12C962.517 318.923 961.99 318.856 961.193 319.114C960.397 319.371 959.443 319.923 958.392 320.777C956.297 322.48 953.986 325.248 951.999 328.69C950.012 332.132 948.769 335.517 948.342 338.184C948.128 339.521 948.127 340.623 948.302 341.441C948.477 342.26 948.799 342.683 949.141 342.88C949.482 343.077 950.009 343.144 950.805 342.886C951.601 342.629 952.556 342.077 953.606 341.223C955.702 339.52 958.013 336.752 960 333.31C961.987 329.868 963.229 326.483 963.657 323.816C963.871 322.479 963.871 321.377 963.696 320.559ZM965.631 324.132C965.157 327.096 963.809 330.712 961.732 334.31C959.655 337.907 957.197 340.883 954.868 342.775C953.706 343.72 952.534 344.429 951.421 344.789C950.308 345.149 949.143 345.191 948.141 344.612C947.138 344.033 946.591 343.004 946.347 341.86C946.102 340.716 946.131 339.346 946.367 337.868C946.842 334.904 948.19 331.288 950.267 327.69C952.344 324.093 954.802 321.117 957.131 319.225C958.293 318.28 959.465 317.571 960.578 317.211C961.691 316.851 962.856 316.809 963.858 317.388C964.861 317.967 965.407 318.996 965.652 320.14C965.897 321.284 965.868 322.654 965.631 324.132Z" fill="#61DAFB"/>
</g>
<g filter="url(#filter6_d_796_23929)">
<rect x="814" y="223" width="56" height="56" rx="16" fill="#241F1F" shape-rendering="crispEdges"/>
<path d="M856.975 242.543C856.986 242.584 856.992 242.626 856.992 242.669V249.306C856.992 249.392 856.97 249.475 856.927 249.549C856.884 249.623 856.823 249.684 856.749 249.726L851.178 252.934V259.291C851.178 259.464 851.086 259.623 850.936 259.711L839.308 266.405C839.281 266.42 839.252 266.43 839.223 266.44C839.212 266.443 839.202 266.45 839.19 266.453C839.109 266.475 839.024 266.475 838.942 266.453C838.929 266.45 838.917 266.442 838.904 266.437C838.878 266.428 838.85 266.419 838.824 266.405L827.198 259.711C827.124 259.668 827.063 259.607 827.02 259.533C826.978 259.46 826.955 259.376 826.955 259.291V239.379C826.955 239.335 826.961 239.293 826.972 239.252C826.976 239.238 826.984 239.225 826.989 239.211C826.998 239.186 827.006 239.16 827.02 239.136C827.029 239.121 827.042 239.108 827.053 239.093C827.067 239.074 827.08 239.054 827.096 239.037C827.11 239.023 827.128 239.013 827.144 239.001C827.161 238.986 827.177 238.971 827.197 238.959H827.198L833.011 235.612C833.085 235.57 833.168 235.547 833.253 235.547C833.338 235.547 833.421 235.57 833.495 235.612L839.308 238.959H839.31C839.329 238.971 839.345 238.986 839.363 239C839.379 239.012 839.396 239.023 839.41 239.037C839.427 239.054 839.439 239.074 839.454 239.093C839.464 239.108 839.478 239.121 839.486 239.136C839.5 239.161 839.508 239.186 839.518 239.211C839.522 239.225 839.531 239.238 839.535 239.252C839.546 239.294 839.551 239.336 839.552 239.379V251.816L844.396 249.026V242.669C844.396 242.626 844.402 242.583 844.413 242.543C844.417 242.528 844.425 242.515 844.43 242.502C844.439 242.476 844.448 242.45 844.461 242.427C844.47 242.411 844.483 242.398 844.494 242.384C844.508 242.364 844.52 242.344 844.537 242.327C844.551 242.313 844.569 242.303 844.585 242.291C844.603 242.277 844.618 242.261 844.638 242.249H844.638L850.452 238.902C850.526 238.86 850.609 238.837 850.694 238.837C850.779 238.837 850.863 238.86 850.936 238.902L856.75 242.249C856.77 242.261 856.786 242.277 856.804 242.29C856.819 242.303 856.837 242.313 856.851 242.327C856.868 242.344 856.88 242.364 856.894 242.384C856.905 242.398 856.918 242.411 856.927 242.427C856.941 242.45 856.949 242.476 856.958 242.502C856.964 242.515 856.972 242.528 856.975 242.543ZM856.023 249.026V243.507L853.989 244.678L851.178 246.296V251.816L856.024 249.026H856.023ZM850.21 259.011V253.488L847.445 255.067L839.551 259.572V265.147L850.21 259.011ZM827.924 240.217V259.011L838.582 265.146V259.573L833.014 256.422L833.012 256.42L833.01 256.419C832.991 256.408 832.975 256.393 832.958 256.379C832.943 256.367 832.925 256.357 832.912 256.344L832.911 256.342C832.895 256.327 832.884 256.308 832.871 256.292C832.859 256.275 832.844 256.261 832.834 256.244L832.834 256.243C832.823 256.224 832.816 256.203 832.808 256.182C832.801 256.164 832.79 256.147 832.785 256.128V256.127C832.779 256.104 832.778 256.08 832.776 256.056C832.773 256.038 832.768 256.02 832.768 256.002V243.006L829.959 241.387L827.924 240.217V240.217ZM833.254 236.591L828.41 239.379L833.252 242.167L838.095 239.378L833.252 236.591H833.254ZM835.773 253.991L838.582 252.373V240.217L836.548 241.388L833.738 243.006V255.163L835.773 253.991ZM850.694 239.881L845.851 242.669L850.694 245.457L855.537 242.669L850.694 239.881ZM850.21 246.296L847.399 244.678L845.365 243.507V249.026L848.175 250.644L850.21 251.816V246.296ZM839.066 258.734L846.169 254.679L849.72 252.652L844.881 249.866L839.309 253.074L834.231 255.998L839.066 258.734Z" fill="#FF2D20"/>
</g>
<g filter="url(#filter7_d_796_23929)">
<rect x="178" y="195" width="56" height="56" rx="16" fill="#241F1F" shape-rendering="crispEdges"/>
<path d="M194.778 235.455L192.282 207.444H219.718L217.223 235.44L205.977 238.556" fill="#E44D26"/>
<path d="M206 236.174V209.744H217.215L215.075 233.64" fill="#F16529"/>
<path d="M197.379 213.169H206V216.602H201.145L201.463 220.119H206V223.545H198.317L197.379 213.169ZM198.468 225.269H201.916L202.158 228.014L206 229.042V232.627L198.952 230.661" fill="#EBEBEB"/>
<path d="M214.59 213.169H205.984V216.602H214.273L214.59 213.169ZM213.963 220.119H205.984V223.552H210.219L209.818 228.014L205.984 229.042V232.612L213.017 230.661" fill="#1E2235"/>
</g>
<path d="M573 110V109H572V110H573ZM844.667 110C844.667 112.946 847.054 115.333 850 115.333C852.946 115.333 855.333 112.946 855.333 110C855.333 107.054 852.946 104.667 850 104.667C847.054 104.667 844.667 107.054 844.667 110ZM574 166V164H572V166H574ZM574 160V156H572V160H574ZM574 152V148H572V152H574ZM574 144V140H572V144H574ZM574 136V132H572V136H574ZM574 128V124H572V128H574ZM574 120V116H572V120H574ZM574 112V110H572V112H574ZM573 111H574.979V109H573V111ZM578.936 111H582.893V109H578.936V111ZM586.85 111H590.807V109H586.85V111ZM594.764 111H598.721V109H594.764V111ZM602.679 111H606.636V109H602.679V111ZM610.593 111H614.55V109H610.593V111ZM618.507 111H622.464V109H618.507V111ZM626.421 111H630.379V109H626.421V111ZM634.336 111H638.293V109H634.336V111ZM642.25 111H646.207V109H642.25V111ZM650.164 111H654.121V109H650.164V111ZM658.079 111H662.036V109H658.079V111ZM665.993 111H669.95V109H665.993V111ZM673.907 111H677.864V109H673.907V111ZM681.821 111H685.779V109H681.821V111ZM689.736 111H693.693V109H689.736V111ZM697.65 111H701.607V109H697.65V111ZM705.564 111H709.521V109H705.564V111ZM713.479 111H717.436V109H713.479V111ZM721.393 111H725.35V109H721.393V111ZM729.307 111H733.264V109H729.307V111ZM737.221 111H741.179V109H737.221V111ZM745.136 111H749.093V109H745.136V111ZM753.05 111H757.007V109H753.05V111ZM760.964 111H764.921V109H760.964V111ZM768.879 111H772.836V109H768.879V111ZM776.793 111H780.75V109H776.793V111ZM784.707 111H788.664V109H784.707V111ZM792.621 111H796.578V109H792.621V111ZM800.536 111H804.493V109H800.536V111ZM808.45 111H812.407V109H808.45V111ZM816.364 111H820.321V109H816.364V111ZM824.278 111H828.236V109H824.278V111ZM832.193 111H836.15V109H832.193V111ZM840.107 111H844.064V109H840.107V111ZM848.021 111H850V109H848.021V111Z" fill="url(#paint8_linear_796_23929)"/>
<path d="M624 169V168H623V169H624ZM978.667 169C978.667 171.946 981.054 174.333 984 174.333C986.946 174.333 989.333 171.946 989.333 169C989.333 166.054 986.946 163.667 984 163.667C981.054 163.667 978.667 166.054 978.667 169ZM625 208V206.05H623V208H625ZM625 202.15V198.25H623V202.15H625ZM625 194.35V190.45H623V194.35H625ZM625 186.55V182.65H623V186.55H625ZM625 178.75V174.85H623V178.75H625ZM625 170.95V169H623V170.95H625ZM624 170H626V168H624V170ZM630 170H634V168H630V170ZM638 170H642V168H638V170ZM646 170H650V168H646V170ZM654 170H658V168H654V170ZM662 170H666V168H662V170ZM670 170H674V168H670V170ZM678 170H682V168H678V170ZM686 170H690V168H686V170ZM694 170H698V168H694V170ZM702 170H706V168H702V170ZM710 170H714V168H710V170ZM718 170H722V168H718V170ZM726 170H730V168H726V170ZM734 170H738V168H734V170ZM742 170H746V168H742V170ZM750 170H754V168H750V170ZM758 170H762V168H758V170ZM766 170H770V168H766V170ZM774 170H778V168H774V170ZM782 170H786V168H782V170ZM790 170H794V168H790V170ZM798 170H802V168H798V170ZM806 170H810V168H806V170ZM814 170H818V168H814V170ZM822 170H826V168H822V170ZM830 170H834V168H830V170ZM838 170H842V168H838V170ZM846 170H850V168H846V170ZM854 170H858V168H854V170ZM862 170H866V168H862V170ZM870 170H874V168H870V170ZM878 170H882V168H878V170ZM886 170H890V168H886V170ZM894 170H898V168H894V170ZM902 170H906V168H902V170ZM910 170H914V168H910V170ZM918 170H922V168H918V170ZM926 170H930V168H926V170ZM934 170H938V168H934V170ZM942 170H946V168H942V170ZM950 170H954V168H950V170ZM958 170H962V168H958V170ZM966 170H970V168H966V170ZM974 170H978V168H974V170ZM982 170H984V168H982V170Z" fill="url(#paint9_linear_796_23929)"/>
<path d="M498 135V134H499V135H498ZM109.333 135C109.333 137.946 106.945 140.333 104 140.333C101.054 140.333 98.6667 137.946 98.6667 135C98.6667 132.054 101.054 129.667 104 129.667C106.945 129.667 109.333 132.054 109.333 135ZM497 191V189H499V191H497ZM497 185V181H499V185H497ZM497 177V173H499V177H497ZM497 169V165H499V169H497ZM497 161V157H499V161H497ZM497 153V149H499V153H497ZM497 145V141H499V145H497ZM497 137V135H499V137H497ZM498 136H495.99V134H498V136ZM491.969 136H487.949V134H491.969V136ZM483.929 136H479.908V134H483.929V136ZM475.888 136H471.867V134H475.888V136ZM467.847 136H463.827V134H467.847V136ZM459.806 136H455.786V134H459.806V136ZM451.765 136H447.745V134H451.765V136ZM443.724 136H439.704V134H443.724V136ZM435.684 136H431.663V134H435.684V136ZM427.643 136H423.622V134H427.643V136ZM419.602 136H415.582V134H419.602V136ZM411.561 136H407.541V134H411.561V136ZM403.52 136H399.5V134H403.52V136ZM395.48 136H391.459V134H395.48V136ZM387.439 136H383.418V134H387.439V136ZM379.398 136H375.378V134H379.398V136ZM371.357 136H367.337V134H371.357V136ZM363.316 136H359.296V134H363.316V136ZM355.276 136H351.255V134H355.276V136ZM347.235 136H343.214V134H347.235V136ZM339.194 136H335.174V134H339.194V136ZM331.153 136H327.133V134H331.153V136ZM323.112 136H319.092V134H323.112V136ZM315.072 136H311.051V134H315.072V136ZM307.031 136H303.01V134H307.031V136ZM298.99 136H294.969V134H298.99V136ZM290.949 136H286.929V134H290.949V136ZM282.908 136H278.888V134H282.908V136ZM274.867 136H270.847V134H274.867V136ZM266.827 136H262.806V134H266.827V136ZM258.786 136H254.765V134H258.786V136ZM250.745 136H246.725V134H250.745V136ZM242.704 136H238.684V134H242.704V136ZM234.663 136H230.643V134H234.663V136ZM226.623 136H222.602V134H226.623V136ZM218.582 136H214.561V134H218.582V136ZM210.541 136H206.521V134H210.541V136ZM202.5 136H198.48V134H202.5V136ZM194.459 136H190.439V134H194.459V136ZM186.418 136H182.398V134H186.418V136ZM178.378 136H174.357V134H178.378V136ZM170.337 136H166.316V134H170.337V136ZM162.296 136H158.276V134H162.296V136ZM154.255 136H150.235V134H154.255V136ZM146.214 136H142.194V134H146.214V136ZM138.173 136H134.153V134H138.173V136ZM130.133 136H126.112V134H130.133V136ZM122.092 136H118.071V134H122.092V136ZM114.051 136H110.031V134H114.051V136ZM106.01 136H104V134H106.01V136Z" fill="url(#paint10_linear_796_23929)"/>
<path d="M551 34V33H552V34H551ZM279.333 34C279.333 36.9455 276.946 39.3333 274 39.3333C271.054 39.3333 268.667 36.9455 268.667 34C268.667 31.0545 271.054 28.6667 274 28.6667C276.946 28.6667 279.333 31.0545 279.333 34ZM550 166V164.059H552V166H550ZM550 160.176V156.294H552V160.176H550ZM550 152.412V148.529H552V152.412H550ZM550 144.647V140.765H552V144.647H550ZM550 136.882V133H552V136.882H550ZM550 129.118V125.235H552V129.118H550ZM550 121.353V117.471H552V121.353H550ZM550 113.588V109.706H552V113.588H550ZM550 105.824V101.941H552V105.824H550ZM550 98.0588V94.1764H552V98.0588H550ZM550 90.2941V86.4117H552V90.2941H550ZM550 82.5294V78.647H552V82.5294H550ZM550 74.7647V70.8823H552V74.7647H550ZM550 67V63.1176H552V67H550ZM550 59.2353V55.3529H552V59.2353H550ZM550 51.4705V47.5882H552V51.4705H550ZM550 43.7058V39.8235H552V43.7058H550ZM550 35.9411V34H552V35.9411H550ZM551 35H549.021V33H551V35ZM545.064 35H541.107V33H545.064V35ZM537.15 35H533.193V33H537.15V35ZM529.236 35H525.279V33H529.236V35ZM521.321 35H517.364V33H521.321V35ZM513.407 35H509.45V33H513.407V35ZM505.493 35H501.536V33H505.493V35ZM497.579 35H493.621V33H497.579V35ZM489.664 35H485.707V33H489.664V35ZM481.75 35H477.793V33H481.75V35ZM473.836 35H469.879V33H473.836V35ZM465.921 35H461.964V33H465.921V35ZM458.007 35H454.05V33H458.007V35ZM450.093 35H446.136V33H450.093V35ZM442.179 35H438.221V33H442.179V35ZM434.264 35H430.307V33H434.264V35ZM426.35 35H422.393V33H426.35V35ZM418.436 35H414.479V33H418.436V35ZM410.521 35H406.564V33H410.521V35ZM402.607 35H398.65V33H402.607V35ZM394.693 35H390.736V33H394.693V35ZM386.779 35H382.821V33H386.779V35ZM378.864 35H374.907V33H378.864V35ZM370.95 35H366.993V33H370.95V35ZM363.036 35H359.079V33H363.036V35ZM355.121 35H351.164V33H355.121V35ZM347.207 35H343.25V33H347.207V35ZM339.293 35H335.336V33H339.293V35ZM331.379 35H327.422V33H331.379V35ZM323.464 35H319.507V33H323.464V35ZM315.55 35H311.593V33H315.55V35ZM307.636 35H303.679V33H307.636V35ZM299.722 35H295.764V33H299.722V35ZM291.807 35H287.85V33H291.807V35ZM283.893 35H279.936V33H283.893V35ZM275.979 35H274V33H275.979V35Z" fill="url(#paint11_linear_796_23929)"/>
<path d="M620 333V334H619V333H620ZM891.667 333C891.667 330.054 894.054 327.667 897 327.667C899.946 327.667 902.333 330.054 902.333 333C902.333 335.946 899.946 338.333 897 338.333C894.054 338.333 891.667 335.946 891.667 333ZM621 277V279H619V277H621ZM621 283V287H619V283H621ZM621 291V295H619V291H621ZM621 299V303H619V299H621ZM621 307V311H619V307H621ZM621 315V319H619V315H621ZM621 323V327H619V323H621ZM621 331V333H619V331H621ZM620 332H621.979V334H620V332ZM625.936 332H629.893V334H625.936V332ZM633.85 332H637.807V334H633.85V332ZM641.764 332H645.721V334H641.764V332ZM649.679 332H653.636V334H649.679V332ZM657.593 332H661.55V334H657.593V332ZM665.507 332H669.464V334H665.507V332ZM673.421 332H677.379V334H673.421V332ZM681.336 332H685.293V334H681.336V332ZM689.25 332H693.207V334H689.25V332ZM697.164 332H701.121V334H697.164V332ZM705.079 332H709.036V334H705.079V332ZM712.993 332H716.95V334H712.993V332ZM720.907 332H724.864V334H720.907V332ZM728.821 332H732.779V334H728.821V332ZM736.736 332H740.693V334H736.736V332ZM744.65 332H748.607V334H744.65V332ZM752.564 332H756.521V334H752.564V332ZM760.479 332H764.436V334H760.479V332ZM768.393 332H772.35V334H768.393V332ZM776.307 332H780.264V334H776.307V332ZM784.221 332H788.179V334H784.221V332ZM792.136 332H796.093V334H792.136V332ZM800.05 332H804.007V334H800.05V332ZM807.964 332H811.921V334H807.964V332ZM815.879 332H819.836V334H815.879V332ZM823.793 332H827.75V334H823.793V332ZM831.707 332H835.664V334H831.707V332ZM839.621 332H843.578V334H839.621V332ZM847.536 332H851.493V334H847.536V332ZM855.45 332H859.407V334H855.45V332ZM863.364 332H867.321V334H863.364V332ZM871.278 332H875.236V334H871.278V332ZM879.193 332H883.15V334H879.193V332ZM887.107 332H891.064V334H887.107V332ZM895.021 332H897V334H895.021V332Z" fill="url(#paint12_linear_796_23929)"/>
<path d="M523 354V355H524V354H523ZM167.333 354C167.333 351.054 164.946 348.667 162 348.667C159.054 348.667 156.667 351.054 156.667 354C156.667 356.946 159.054 359.333 162 359.333C164.946 359.333 167.333 356.946 167.333 354ZM522 277V278.925H524V277H522ZM522 282.775V286.625H524V282.775H522ZM522 290.475V294.325H524V290.475H522ZM522 298.175V302.025H524V298.175H522ZM522 305.875V309.725H524V305.875H522ZM522 313.575V317.425H524V313.575H522ZM522 321.275V325.125H524V321.275H522ZM522 328.975V332.825H524V328.975H522ZM522 336.675V340.525H524V336.675H522ZM522 344.375V348.225H524V344.375H522ZM522 352.075V354H524V352.075H522ZM523 353H520.994V355H523V353ZM516.983 353H512.972V355H516.983V353ZM508.961 353H504.95V355H508.961V353ZM500.939 353H496.928V355H500.939V353ZM492.917 353H488.906V355H492.917V353ZM484.894 353H480.883V355H484.894V353ZM476.872 353H472.861V355H476.872V353ZM468.85 353H464.839V355H468.85V353ZM460.828 353H456.817V355H460.828V353ZM452.806 353H448.794V355H452.806V353ZM444.783 353H440.772V355H444.783V353ZM436.761 353H432.75V355H436.761V353ZM428.739 353H424.728V355H428.739V353ZM420.717 353H416.706V355H420.717V353ZM412.694 353H408.683V355H412.694V353ZM404.672 353H400.661V355H404.672V353ZM396.65 353H392.639V355H396.65V353ZM388.628 353H384.617V355H388.628V353ZM380.606 353H376.594V355H380.606V353ZM372.583 353H368.572V355H372.583V353ZM364.561 353H360.55V355H364.561V353ZM356.539 353H352.528V355H356.539V353ZM348.517 353H344.506V355H348.517V353ZM340.495 353H336.483V355H340.495V353ZM332.472 353H328.461V355H332.472V353ZM324.45 353H320.439V355H324.45V353ZM316.428 353H312.417V355H316.428V353ZM308.406 353H304.395V355H308.406V353ZM300.383 353H296.372V355H300.383V353ZM292.361 353H288.35V355H292.361V353ZM284.339 353H280.328V355H284.339V353ZM276.317 353H272.306V355H276.317V353ZM268.295 353H264.283V355H268.295V353ZM260.272 353H256.261V355H260.272V353ZM252.25 353H248.239V355H252.25V353ZM244.228 353H240.217V355H244.228V353ZM236.206 353H232.195V355H236.206V353ZM228.183 353H224.172V355H228.183V353ZM220.161 353H216.15V355H220.161V353ZM212.139 353H208.128V355H212.139V353ZM204.117 353H200.106V355H204.117V353ZM196.095 353H192.083V355H196.095V353ZM188.072 353H184.061V355H188.072V353ZM180.05 353H176.039V355H180.05V353ZM172.028 353H168.017V355H172.028V353ZM164.006 353H162V355H164.006V353Z" fill="url(#paint13_linear_796_23929)"/>
<g filter="url(#filter8_b_796_23929)">
<rect width="304.286" height="111" transform="translate(399.124 174)" fill="#0F0202" fill-opacity="0.5"/>
<path d="M527.999 211.852C524.642 210.712 521.775 210.027 521.775 207.551C521.775 205.596 523.241 204.097 526.044 204.097C528.423 204.097 530.247 205.042 531.551 207.029L536.243 203.477C533.767 200.936 530.899 199.046 526.011 199.046C520.145 199.046 515.909 202.891 515.909 207.779C515.909 213.579 520.439 215.144 524.545 216.48C527.771 217.49 530.899 218.305 530.899 220.879C530.899 222.997 529.27 224.985 526.272 224.985C523.469 224.985 521.123 223.518 519.591 220.846L514.41 224.952C517.213 228.081 520.83 230.427 526.304 230.427C532.985 230.427 536.83 225.734 536.83 220.944C536.797 215.013 532.137 213.188 527.999 211.852Z" fill="white"/>
<path d="M551.82 204.977C544.748 204.977 539.144 210.582 539.144 217.718C539.144 224.724 544.748 230.427 551.82 230.427C558.826 230.427 564.464 224.757 564.464 217.718C564.464 210.582 558.826 204.977 551.82 204.977ZM551.82 225.116C547.779 225.116 544.716 221.759 544.716 217.718C544.716 213.58 547.779 210.288 551.82 210.288C555.828 210.288 558.924 213.58 558.924 217.718C558.924 221.792 555.828 225.116 551.82 225.116Z" fill="white"/>
<path d="M587.111 197.905L581.44 201.783V206.443H586.491V211.494H581.44V219.739C581.44 227.494 583.754 229.938 591.314 229.938H592.096V224.627C587.762 224.627 587.111 223.942 587.111 219.706V211.494H592.096V206.443H587.111V197.905Z" fill="white"/>
<path d="M629.572 198.883H623.901V229.808H629.572V198.883Z" fill="white"/>
<path d="M672.652 214.981C668.97 214.199 667.047 213.775 667.047 212.146C667.047 210.777 668.285 209.506 670.99 209.506C673.336 209.506 675.161 210.582 676.171 212.309L680.962 209.897C679.072 206.769 675.943 204.846 670.99 204.846C665.19 204.846 661.377 208.398 661.377 212.309C661.377 217.457 665.776 218.794 669.947 219.673C672.945 220.358 675.683 220.684 675.683 222.476C675.683 224.105 674.314 225.441 671.512 225.441C668.839 225.441 666.786 224.203 665.613 221.889L660.399 224.398C662.355 228.244 665.776 230.329 671.251 230.329C678.224 230.329 681.288 225.767 681.288 222.345C681.288 217.197 676.693 215.763 672.652 214.981Z" fill="white"/>
<path d="M614.908 217.913C614.68 221.759 611.682 224.822 607.836 224.822C603.926 224.822 600.928 221.694 600.733 217.816V206.508H595.16V217.392V217.425V217.816C595.356 224.659 600.895 230.134 607.804 230.134C610.443 230.134 612.887 229.319 614.875 227.983V229.156C614.875 229.221 614.875 229.319 614.875 229.384V230.134C614.777 233.783 612.138 236.814 608.651 237.238V242.549C615.201 242.126 620.317 236.749 620.448 230.101V217.392V217.359V206.475H614.875V217.913H614.908Z" fill="white"/>
<path d="M572.057 207.421C572.057 207.356 572.057 207.29 572.057 207.193V206.476C572.155 203.021 574.631 200.186 577.923 199.763V194.744C571.764 195.168 566.908 200.219 566.811 206.476V229.612H572.057V218.077C572.22 214.688 574.664 211.918 577.923 211.494V206.476C575.739 206.606 573.752 207.356 572.057 208.496V207.421Z" fill="white"/>
<path d="M652.904 217.393C652.904 221.466 649.841 224.822 645.833 224.822C641.922 224.822 638.924 221.694 638.729 217.816V206.509H633.156V217.393V217.425V217.816C633.352 224.659 638.892 230.134 645.8 230.134C652.806 230.134 658.444 224.464 658.444 217.425V217.393V206.509H652.871V217.393H652.904Z" fill="white"/>
<path d="M526.207 244.805V246.374H521.33V259.847H519.632V246.374H514.732V244.805H526.207ZM538.351 254.518C538.351 254.819 538.351 254.948 538.329 255.313H530.486C530.593 257.698 531.56 258.644 533.774 258.644C535.428 258.644 536.094 258.236 536.567 256.903L538.114 257.505C537.405 259.289 535.665 260.062 533.774 260.062C530.744 260.062 528.788 257.999 528.788 254.797C528.788 251.66 530.873 249.533 533.688 249.533C536.417 249.533 538.351 251.424 538.351 254.518ZM533.666 250.929C531.732 250.929 530.701 251.896 530.507 253.959H536.696C536.567 251.789 535.708 250.929 533.666 250.929ZM549.141 258.579C550.925 258.579 551.892 257.892 552.322 255.678L553.998 256.13C553.375 258.773 551.57 260.062 549.163 260.062C546.069 260.062 543.941 257.956 543.941 254.797C543.941 251.639 546.069 249.533 549.163 249.533C551.57 249.533 553.375 250.822 553.998 253.465L552.322 253.916C551.892 251.703 550.925 251.015 549.141 251.015C546.756 251.015 545.639 252.219 545.639 254.797C545.639 257.376 546.756 258.579 549.141 258.579ZM565.787 249.533C568.151 249.533 569.461 250.951 569.461 253.487V259.847H567.807V253.594C567.807 251.939 566.818 251.037 565.314 251.037C563.337 251.037 562.091 252.563 562.091 255.184V259.847H560.436V244.805H562.091V252.24C562.585 250.65 563.66 249.533 565.787 249.533ZM582.01 249.533C584.374 249.533 585.685 250.951 585.685 253.487V259.847H584.03V253.594C584.03 251.939 583.041 251.037 581.537 251.037C579.56 251.037 578.314 252.563 578.314 255.184V259.847H576.659V249.748H578.314V252.24C578.808 250.65 579.883 249.533 582.01 249.533ZM597.245 249.533C600.146 249.533 602.466 251.639 602.466 254.797C602.466 257.956 600.146 260.062 597.245 260.062C594.344 260.062 592.023 257.956 592.023 254.797C592.023 251.639 594.344 249.533 597.245 249.533ZM597.245 258.558C599.63 258.558 600.769 257.355 600.769 254.797C600.769 252.24 599.63 251.037 597.245 251.037C594.859 251.037 593.72 252.24 593.72 254.797C593.72 257.355 594.859 258.558 597.245 258.558ZM608.917 259.847V244.805H610.571V259.847H608.917ZM622.241 249.533C625.142 249.533 627.463 251.639 627.463 254.797C627.463 257.956 625.142 260.062 622.241 260.062C619.34 260.062 617.019 257.956 617.019 254.797C617.019 251.639 619.34 249.533 622.241 249.533ZM622.241 258.558C624.626 258.558 625.765 257.355 625.765 254.797C625.765 252.24 624.626 251.037 622.241 251.037C619.856 251.037 618.717 252.24 618.717 254.797C618.717 257.355 619.856 258.558 622.241 258.558ZM641.348 249.748H643.003V259.375C643.003 261.975 641.133 263.715 638.082 263.715C635.503 263.715 633.892 262.791 633.183 260.857L634.773 260.105C635.353 261.824 636.019 262.254 638.082 262.254C640.403 262.254 641.348 261.33 641.348 259.375V257.29C640.661 258.622 639.393 259.439 637.717 259.439C635.009 259.439 633.054 257.398 633.054 254.497C633.054 251.574 635.009 249.533 637.717 249.533C639.393 249.533 640.661 250.349 641.348 251.682V249.748ZM638.082 257.913C640.381 257.913 641.477 256.817 641.477 254.497C641.477 252.154 640.403 251.037 638.125 251.037C635.826 251.037 634.751 252.154 634.751 254.497C634.751 256.817 635.826 257.913 638.082 257.913ZM651.164 247.255C650.39 247.255 649.939 246.804 649.917 246.03C649.896 245.278 650.347 244.87 651.164 244.87C651.916 244.87 652.346 245.278 652.367 246.03C652.389 246.804 651.959 247.255 651.164 247.255ZM650.304 259.847V249.748H651.959V259.847H650.304ZM667.969 254.518C667.969 254.819 667.969 254.948 667.948 255.313H660.105C660.212 257.698 661.179 258.644 663.392 258.644C665.047 258.644 665.713 258.236 666.186 256.903L667.733 257.505C667.024 259.289 665.283 260.062 663.392 260.062C660.362 260.062 658.407 257.999 658.407 254.797C658.407 251.66 660.491 249.533 663.306 249.533C666.035 249.533 667.969 251.424 667.969 254.518ZM663.285 250.929C661.351 250.929 660.319 251.896 660.126 253.959H666.315C666.186 251.789 665.326 250.929 663.285 250.929ZM677.815 260.062C675.623 260.062 673.99 259.031 673.517 256.946L675.15 256.409C675.429 258.042 676.246 258.601 677.922 258.601C679.448 258.601 680.178 258.171 680.178 257.226C680.178 256.366 679.877 256.065 678.653 255.829L676.676 255.442C675.214 255.163 673.861 254.432 673.861 252.563C673.861 250.736 675.343 249.533 677.578 249.533C679.512 249.533 681.21 250.306 681.64 252.735L680.006 253.186C679.792 251.273 678.975 250.994 677.643 250.994C676.203 250.994 675.537 251.445 675.537 252.434C675.537 253.25 675.838 253.637 676.762 253.809L679.297 254.303C680.78 254.583 681.811 255.335 681.811 256.946C681.811 258.816 680.221 260.062 677.815 260.062Z" fill="white"/>
<g filter="url(#filter9_d_796_23929)">
<path d="M495.638 203.15L475.043 191.255L449.137 226.026L457.642 232.673V247.957L435.385 231.24C433.56 229.871 433.169 227.264 434.538 225.439L464.518 185.194C461.52 183.565 457.87 183.597 454.904 185.325L424.045 203.15C420.981 204.909 419.124 208.168 419.124 211.687V247.305C419.124 250.824 421.014 254.083 424.045 255.843L444.542 267.672L470.546 233.618L462.302 227.883V213.219L484.135 228.47C486.09 229.838 486.514 232.51 485.047 234.4L455.002 273.765C458.033 275.427 461.715 275.427 464.713 273.668L495.573 255.843C498.636 254.083 500.494 250.824 500.494 247.305V211.687C500.559 208.168 498.669 204.909 495.638 203.15Z" fill="#EC2227"/>
</g>
</g>
<defs>
<filter id="filter0_d_796_23929" x="860" y="79" width="77.1611" height="77.1615" filterUnits="userSpaceOnUse" color-interpolation-filters="sRGB">
<feFlood flood-opacity="0" result="BackgroundImageFix"/>
<feColorMatrix in="SourceAlpha" type="matrix" values="0 0 0 0 0 0 0 0 0 0 0 0 0 0 0 0 0 0 127 0" result="hardAlpha"/>
<feOffset dy="4"/>
<feGaussianBlur stdDeviation="5"/>
<feComposite in2="hardAlpha" operator="out"/>
<feColorMatrix type="matrix" values="0 0 0 0 0 0 0 0 0 0 0 0 0 0 0 0 0 0 0.4 0"/>
<feBlend mode="normal" in2="BackgroundImageFix" result="effect1_dropShadow_796_23929"/>
<feBlend mode="normal" in="SourceGraphic" in2="effect1_dropShadow_796_23929" result="shape"/>
</filter>
<filter id="filter1_d_796_23929" x="180" y="0" width="76" height="76" filterUnits="userSpaceOnUse" color-interpolation-filters="sRGB">
<feFlood flood-opacity="0" result="BackgroundImageFix"/>
<feColorMatrix in="SourceAlpha" type="matrix" values="0 0 0 0 0 0 0 0 0 0 0 0 0 0 0 0 0 0 127 0" result="hardAlpha"/>
<feOffset dy="4"/>
<feGaussianBlur stdDeviation="5"/>
<feComposite in2="hardAlpha" operator="out"/>
<feColorMatrix type="matrix" values="0 0 0 0 0 0 0 0 0 0 0 0 0 0 0 0 0 0 0.4 0"/>
<feBlend mode="normal" in2="BackgroundImageFix" result="effect1_dropShadow_796_23929"/>
<feBlend mode="normal" in="SourceGraphic" in2="effect1_dropShadow_796_23929" result="shape"/>
</filter>
<filter id="filter2_d_796_23929" x="0" y="99" width="76" height="76" filterUnits="userSpaceOnUse" color-interpolation-filters="sRGB">
<feFlood flood-opacity="0" result="BackgroundImageFix"/>
<feColorMatrix in="SourceAlpha" type="matrix" values="0 0 0 0 0 0 0 0 0 0 0 0 0 0 0 0 0 0 127 0" result="hardAlpha"/>
<feOffset dy="4"/>
<feGaussianBlur stdDeviation="5"/>
<feComposite in2="hardAlpha" operator="out"/>
<feColorMatrix type="matrix" values="0 0 0 0 0 0 0 0 0 0 0 0 0 0 0 0 0 0 0.4 0"/>
<feBlend mode="normal" in2="BackgroundImageFix" result="effect1_dropShadow_796_23929"/>
<feBlend mode="normal" in="SourceGraphic" in2="effect1_dropShadow_796_23929" result="shape"/>
</filter>
<filter id="filter3_d_796_23929" x="66" y="318" width="76" height="76" filterUnits="userSpaceOnUse" color-interpolation-filters="sRGB">
<feFlood flood-opacity="0" result="BackgroundImageFix"/>
<feColorMatrix in="SourceAlpha" type="matrix" values="0 0 0 0 0 0 0 0 0 0 0 0 0 0 0 0 0 0 127 0" result="hardAlpha"/>
<feOffset dy="4"/>
<feGaussianBlur stdDeviation="5"/>
<feComposite in2="hardAlpha" operator="out"/>
<feColorMatrix type="matrix" values="0 0 0 0 0 0 0 0 0 0 0 0 0 0 0 0 0 0 0.4 0"/>
<feBlend mode="normal" in2="BackgroundImageFix" result="effect1_dropShadow_796_23929"/>
<feBlend mode="normal" in="SourceGraphic" in2="effect1_dropShadow_796_23929" result="shape"/>
</filter>
<filter id="filter4_d_796_23929" x="994" y="135.85" width="76" height="76" filterUnits="userSpaceOnUse" color-interpolation-filters="sRGB">
<feFlood flood-opacity="0" result="BackgroundImageFix"/>
<feColorMatrix in="SourceAlpha" type="matrix" values="0 0 0 0 0 0 0 0 0 0 0 0 0 0 0 0 0 0 127 0" result="hardAlpha"/>
<feOffset dy="4"/>
<feGaussianBlur stdDeviation="5"/>
<feComposite in2="hardAlpha" operator="out"/>
<feColorMatrix type="matrix" values="0 0 0 0 0 0 0 0 0 0 0 0 0 0 0 0 0 0 0.4 0"/>
<feBlend mode="normal" in2="BackgroundImageFix" result="effect1_dropShadow_796_23929"/>
<feBlend mode="normal" in="SourceGraphic" in2="effect1_dropShadow_796_23929" result="shape"/>
</filter>
<filter id="filter5_d_796_23929" x="918" y="297" width="76" height="76" filterUnits="userSpaceOnUse" color-interpolation-filters="sRGB">
<feFlood flood-opacity="0" result="BackgroundImageFix"/>
<feColorMatrix in="SourceAlpha" type="matrix" values="0 0 0 0 0 0 0 0 0 0 0 0 0 0 0 0 0 0 127 0" result="hardAlpha"/>
<feOffset dy="4"/>
<feGaussianBlur stdDeviation="5"/>
<feComposite in2="hardAlpha" operator="out"/>
<feColorMatrix type="matrix" values="0 0 0 0 0 0 0 0 0 0 0 0 0 0 0 0 0 0 0.4 0"/>
<feBlend mode="normal" in2="BackgroundImageFix" result="effect1_dropShadow_796_23929"/>
<feBlend mode="normal" in="SourceGraphic" in2="effect1_dropShadow_796_23929" result="shape"/>
</filter>
<filter id="filter6_d_796_23929" x="804" y="217" width="76" height="76" filterUnits="userSpaceOnUse" color-interpolation-filters="sRGB">
<feFlood flood-opacity="0" result="BackgroundImageFix"/>
<feColorMatrix in="SourceAlpha" type="matrix" values="0 0 0 0 0 0 0 0 0 0 0 0 0 0 0 0 0 0 127 0" result="hardAlpha"/>
<feOffset dy="4"/>
<feGaussianBlur stdDeviation="5"/>
<feComposite in2="hardAlpha" operator="out"/>
<feColorMatrix type="matrix" values="0 0 0 0 0 0 0 0 0 0 0 0 0 0 0 0 0 0 0.4 0"/>
<feBlend mode="normal" in2="BackgroundImageFix" result="effect1_dropShadow_796_23929"/>
<feBlend mode="normal" in="SourceGraphic" in2="effect1_dropShadow_796_23929" result="shape"/>
</filter>
<filter id="filter7_d_796_23929" x="168" y="189" width="76" height="76" filterUnits="userSpaceOnUse" color-interpolation-filters="sRGB">
<feFlood flood-opacity="0" result="BackgroundImageFix"/>
<feColorMatrix in="SourceAlpha" type="matrix" values="0 0 0 0 0 0 0 0 0 0 0 0 0 0 0 0 0 0 127 0" result="hardAlpha"/>
<feOffset dy="4"/>
<feGaussianBlur stdDeviation="5"/>
<feComposite in2="hardAlpha" operator="out"/>
<feColorMatrix type="matrix" values="0 0 0 0 0 0 0 0 0 0 0 0 0 0 0 0 0 0 0.4 0"/>
<feBlend mode="normal" in2="BackgroundImageFix" result="effect1_dropShadow_796_23929"/>
<feBlend mode="normal" in="SourceGraphic" in2="effect1_dropShadow_796_23929" result="shape"/>
</filter>
<filter id="filter8_b_796_23929" x="389.124" y="164" width="324.286" height="131" filterUnits="userSpaceOnUse" color-interpolation-filters="sRGB">
<feFlood flood-opacity="0" result="BackgroundImageFix"/>
<feGaussianBlur in="BackgroundImageFix" stdDeviation="5"/>
<feComposite in2="SourceAlpha" operator="in" result="effect1_backgroundBlur_796_23929"/>
<feBlend mode="normal" in="SourceGraphic" in2="effect1_backgroundBlur_796_23929" result="shape"/>
</filter>
<filter id="filter9_d_796_23929" x="407.15" y="172.026" width="105.318" height="114.947" filterUnits="userSpaceOnUse" color-interpolation-filters="sRGB">
<feFlood flood-opacity="0" result="BackgroundImageFix"/>
<feColorMatrix in="SourceAlpha" type="matrix" values="0 0 0 0 0 0 0 0 0 0 0 0 0 0 0 0 0 0 127 0" result="hardAlpha"/>
<feOffset/>
<feGaussianBlur stdDeviation="5.98684"/>
<feComposite in2="hardAlpha" operator="out"/>
<feColorMatrix type="matrix" values="0 0 0 0 0.92549 0 0 0 0 0.133333 0 0 0 0 0.152941 0 0 0 0.24 0"/>
<feBlend mode="normal" in2="BackgroundImageFix" result="effect1_dropShadow_796_23929"/>
<feBlend mode="normal" in="SourceGraphic" in2="effect1_dropShadow_796_23929" result="shape"/>
</filter>
<linearGradient id="paint0_linear_796_23929" x1="900.175" y1="123.187" x2="900.828" y2="123.868" gradientUnits="userSpaceOnUse">
<stop offset="0.2" stop-opacity="0.15"/>
<stop offset="0.85" stop-color="#616161" stop-opacity="0.01"/>
</linearGradient>
<linearGradient id="paint1_linear_796_23929" x1="897.781" y1="123.138" x2="904.887" y2="123.287" gradientUnits="userSpaceOnUse">
<stop offset="0.2" stop-opacity="0.55"/>
<stop offset="0.85" stop-color="#616161" stop-opacity="0.01"/>
</linearGradient>
<linearGradient id="paint2_linear_796_23929" x1="82.8914" y1="364.876" x2="111.842" y2="335.925" gradientUnits="userSpaceOnUse">
<stop stop-color="#C757BC"/>
<stop offset="0.108" stop-color="#C757BC"/>
<stop offset="0.173" stop-color="#CD5CA9"/>
<stop offset="0.492" stop-color="#E8744F"/>
<stop offset="0.716" stop-color="#F88316"/>
<stop offset="0.823" stop-color="#FF8900"/>
<stop offset="1" stop-color="#FF8900"/>
</linearGradient>
<linearGradient id="paint3_linear_796_23929" x1="98.4944" y1="373.16" x2="112.605" y2="359.049" gradientUnits="userSpaceOnUse">
<stop stop-color="#00AFFF"/>
<stop offset="0.296" stop-color="#00AFFF"/>
<stop offset="0.694" stop-color="#5282FF"/>
<stop offset="1" stop-color="#945DFF"/>
</linearGradient>
<linearGradient id="paint4_linear_796_23929" x1="88.1162" y1="345.042" x2="98.0153" y2="335.143" gradientUnits="userSpaceOnUse">
<stop stop-color="#00AFFF"/>
<stop offset="0.296" stop-color="#00AFFF"/>
<stop offset="0.694" stop-color="#5282FF"/>
<stop offset="1" stop-color="#945DFF"/>
</linearGradient>
<linearGradient id="paint5_linear_796_23929" x1="83.0653" y1="365.049" x2="112.016" y2="336.099" gradientUnits="userSpaceOnUse">
<stop stop-color="#AD4CA4"/>
<stop offset="0.108" stop-color="#AD4CA4"/>
<stop offset="0.173" stop-color="#B25093"/>
<stop offset="0.492" stop-color="#CA6545"/>
<stop offset="0.716" stop-color="#D87213"/>
<stop offset="0.823" stop-color="#DE7700"/>
<stop offset="1" stop-color="#DE7700"/>
</linearGradient>
<linearGradient id="paint6_linear_796_23929" x1="98.4944" y1="373.16" x2="112.605" y2="359.049" gradientUnits="userSpaceOnUse">
<stop stop-color="#0098DE"/>
<stop offset="0.296" stop-color="#0098DE"/>
<stop offset="0.694" stop-color="#4771DE"/>
<stop offset="1" stop-color="#8151DE"/>
</linearGradient>
<linearGradient id="paint7_linear_796_23929" x1="92.0066" y1="348.933" x2="101.906" y2="339.033" gradientUnits="userSpaceOnUse">
<stop stop-color="#0098DE"/>
<stop offset="0.296" stop-color="#0098DE"/>
<stop offset="0.694" stop-color="#4771DE"/>
<stop offset="1" stop-color="#8151DE"/>
</linearGradient>
<linearGradient id="paint8_linear_796_23929" x1="711.5" y1="110" x2="711.5" y2="166" gradientUnits="userSpaceOnUse">
<stop stop-color="#F5F5F5"/>
<stop offset="1" stop-color="#F5F5F5" stop-opacity="0"/>
</linearGradient>
<linearGradient id="paint9_linear_796_23929" x1="804" y1="169" x2="804" y2="208" gradientUnits="userSpaceOnUse">
<stop stop-color="#F5F5F5"/>
<stop offset="1" stop-color="#F5F5F5" stop-opacity="0"/>
</linearGradient>
<linearGradient id="paint10_linear_796_23929" x1="301" y1="135" x2="301" y2="191" gradientUnits="userSpaceOnUse">
<stop stop-color="#F5F5F5"/>
<stop offset="1" stop-color="#F5F5F5" stop-opacity="0"/>
</linearGradient>
<linearGradient id="paint11_linear_796_23929" x1="412.5" y1="34" x2="412.5" y2="166" gradientUnits="userSpaceOnUse">
<stop stop-color="#F5F5F5"/>
<stop offset="1" stop-color="#F5F5F5" stop-opacity="0"/>
</linearGradient>
<linearGradient id="paint12_linear_796_23929" x1="758.5" y1="333" x2="758.5" y2="277" gradientUnits="userSpaceOnUse">
<stop stop-color="#F5F5F5"/>
<stop offset="1" stop-color="#F5F5F5" stop-opacity="0"/>
</linearGradient>
<linearGradient id="paint13_linear_796_23929" x1="342.5" y1="354" x2="342.5" y2="277" gradientUnits="userSpaceOnUse">
<stop stop-color="#F5F5F5"/>
<stop offset="1" stop-color="#F5F5F5" stop-opacity="0"/>
</linearGradient>
</defs>
</svg>
