<svg width="70" height="71" viewBox="0 0 70 71" fill="none" xmlns="http://www.w3.org/2000/svg">
<g filter="url(#filter0_f_782_19017)">
<circle cx="50" cy="51" r="16" fill="#043099" fill-opacity="0.5"/>
</g>
<g filter="url(#filter1_f_782_19017)">
<circle cx="15.5" cy="15.5" r="8.5" fill="#EC2227"/>
</g>
<path d="M27.7087 50.5208H26.667C18.3337 50.5208 14.167 48.4375 14.167 38.0208V27.6041C14.167 19.2708 18.3337 15.1041 26.667 15.1041H43.3337C51.667 15.1041 55.8337 19.2708 55.8337 27.6041V38.0208C55.8337 46.3541 51.667 50.5208 43.3337 50.5208H42.292C41.6462 50.5208 41.0212 50.8333 40.6254 51.3542L37.5004 55.5208C36.1254 57.3542 33.8753 57.3542 32.5003 55.5208L29.3753 51.3542C29.042 50.8958 28.292 50.5208 27.7087 50.5208Z" stroke="#F5F5F5" stroke-width="3.5" stroke-miterlimit="10" stroke-linecap="round" stroke-linejoin="round"/>
<path d="M26.6667 29.125L22.5 33.2917L26.6667 37.4583" stroke="#F5F5F5" stroke-width="3.5" stroke-miterlimit="10" stroke-linecap="round" stroke-linejoin="round"/>
<path d="M43.333 29.125L47.4997 33.2917L43.333 37.4583" stroke="#F5F5F5" stroke-width="3.5" stroke-miterlimit="10" stroke-linecap="round" stroke-linejoin="round"/>
<path d="M37.0837 28.4375L32.917 38.1459" stroke="#F5F5F5" stroke-width="3.5" stroke-miterlimit="10" stroke-linecap="round" stroke-linejoin="round"/>
<defs>
<filter id="filter0_f_782_19017" x="30" y="31" width="40" height="40" filterUnits="userSpaceOnUse" color-interpolation-filters="sRGB">
<feFlood flood-opacity="0" result="BackgroundImageFix"/>
<feBlend mode="normal" in="SourceGraphic" in2="BackgroundImageFix" result="shape"/>
<feGaussianBlur stdDeviation="2" result="effect1_foregroundBlur_782_19017"/>
</filter>
<filter id="filter1_f_782_19017" x="0" y="0" width="31" height="31" filterUnits="userSpaceOnUse" color-interpolation-filters="sRGB">
<feFlood flood-opacity="0" result="BackgroundImageFix"/>
<feBlend mode="normal" in="SourceGraphic" in2="BackgroundImageFix" result="shape"/>
<feGaussianBlur stdDeviation="3.5" result="effect1_foregroundBlur_782_19017"/>
</filter>
</defs>
</svg>
