<svg width="76" height="63" viewBox="0 0 76 63" fill="none" xmlns="http://www.w3.org/2000/svg">
<g filter="url(#filter0_f_782_19105)">
<circle cx="54.5" cy="41.5" r="17.5" fill="#043099" fill-opacity="0.5"/>
</g>
<g filter="url(#filter1_f_782_19105)">
<circle cx="15.5" cy="28.5" r="8.5" fill="#EC2227"/>
</g>
<path d="M29.0628 29.1667H19.3337C17.042 29.1667 15.167 31.0417 15.167 33.3334V45.8334H29.0628V29.1667Z" stroke="#F5F5F5" strokeWidth="3.5" stroke-miterlimit="10" strokeLinecap="round" strokeLinejoin="round"/>
<path d="M38.7712 20.8333H33.2087C30.917 20.8333 29.042 22.7083 29.042 25V45.8333H42.9378V25C42.9378 22.7083 41.0837 20.8333 38.7712 20.8333Z" stroke="#F5F5F5" strokeWidth="3.5" stroke-miterlimit="10" strokeLinecap="round" strokeLinejoin="round"/>
<path d="M52.6667 35.4167H42.9375V45.8334H56.8333V39.5834C56.8333 37.2917 54.9583 35.4167 52.6667 35.4167Z" stroke="#F5F5F5" strokeWidth="3.5" stroke-miterlimit="10" strokeLinecap="round" strokeLinejoin="round"/>
<path d="M37.0833 4.3125L38.1875 6.52083C38.3333 6.83333 38.7292 7.12499 39.0625 7.16665L41.0625 7.5C42.3333 7.70833 42.6458 8.64579 41.7292 9.54162L40.1667 11.1041C39.8958 11.375 39.75 11.875 39.8333 12.2291L40.2708 14.1458C40.625 15.6667 39.8125 16.25 38.4792 15.4583L36.6042 14.3542C36.2708 14.1458 35.7083 14.1458 35.375 14.3542L33.5 15.4583C32.1667 16.25 31.3542 15.6667 31.7083 14.1458L32.1458 12.2291C32.2292 11.875 32.0833 11.3541 31.8125 11.1041L30.2708 9.56247C29.3542 8.64581 29.6458 7.72912 30.9375 7.52079L32.9375 7.18751C33.2708 7.12501 33.6667 6.83335 33.8125 6.54168L34.9167 4.33329C35.5208 3.12495 36.4792 3.125 37.0833 4.3125Z" stroke="#F5F5F5" strokeWidth="2.5" strokeLinecap="round" strokeLinejoin="round"/>
<defs>
<filter id="filter0_f_782_19105" x="33" y="20" width="43" height="43" filterUnits="userSpaceOnUse" color-interpolation-filters="sRGB">
<feFlood flood-opacity="0" result="BackgroundImageFix"/>
<feBlend mode="normal" in="SourceGraphic" in2="BackgroundImageFix" result="shape"/>
<feGaussianBlur stdDeviation="2" result="effect1_foregroundBlur_782_19105"/>
</filter>
<filter id="filter1_f_782_19105" x="0" y="13" width="31" height="31" filterUnits="userSpaceOnUse" color-interpolation-filters="sRGB">
<feFlood flood-opacity="0" result="BackgroundImageFix"/>
<feBlend mode="normal" in="SourceGraphic" in2="BackgroundImageFix" result="shape"/>
<feGaussianBlur stdDeviation="3.5" result="effect1_foregroundBlur_782_19105"/>
</filter>
</defs>
</svg>
