<svg width="52" height="51" viewBox="0 0 52 51" fill="none" xmlns="http://www.w3.org/2000/svg">
<g clip-path="url(#clip0_493_1360)">
<path d="M42.0934 0.996472C31.3385 -0.298794 20.4621 -0.294036 9.70837 1.01064C7.14862 1.33499 4.79739 2.56344 3.09538 4.46572C1.39336 6.36801 0.457398 8.81355 0.462915 11.344V38.704C0.45745 41.2346 1.39365 43.6804 3.09601 45.5827C4.79838 47.485 7.15001 48.7133 9.71006 49.0373C15.1018 49.6936 20.5298 50.0231 25.9629 50.024C31.3549 50.0224 36.7418 49.6976 42.0934 49.0515C44.6734 48.7414 47.0491 47.5185 48.7744 45.6124C50.4996 43.7064 51.4557 41.2483 51.4629 38.7V11.3479C51.4557 8.79961 50.4996 6.34156 48.7744 4.4355C47.0491 2.52944 44.6734 1.30653 42.0934 0.996472ZM10.233 5.14481C20.6404 3.88478 31.1661 3.88002 41.5747 5.13064C43.1257 5.31574 44.5544 6.04958 45.5926 7.19436C46.6307 8.33915 47.2069 9.81612 47.2129 11.3479V15.5196C45.7563 14.4309 44.0326 13.738 42.2158 13.5106C31.4626 12.2059 20.5868 12.2012 9.83247 13.4965C7.97139 13.7249 6.20509 14.432 4.71291 15.5461V11.344C4.70641 9.8292 5.26338 8.36405 6.2795 7.22292C7.29563 6.08179 8.70122 5.34297 10.233 5.14481ZM47.2129 38.7C47.2069 40.2318 46.6307 41.7088 45.5926 42.8536C44.5544 43.9984 43.1257 44.7322 41.5747 44.9173C31.1669 46.17 20.6416 46.1652 10.2349 44.9031C8.70278 44.7054 7.29674 43.9667 6.28022 42.8256C5.2637 41.6844 4.70647 40.219 4.71291 38.704V23.8479C4.71891 22.3161 5.2951 20.8391 6.33326 19.6944C7.37143 18.5496 8.80017 17.8157 10.3512 17.6306C20.7586 16.3726 31.2846 16.3773 41.6909 17.6448C43.223 17.8425 44.6291 18.5812 45.6456 19.7224C46.6621 20.8635 47.2194 22.3289 47.2129 23.844V38.7Z" fill="white"/>
<path d="M11.0879 10.4406H13.2129C13.7765 10.4406 14.317 10.2211 14.7155 9.8304C15.114 9.4397 15.3379 8.90979 15.3379 8.35726C15.3379 7.80472 15.114 7.27482 14.7155 6.88412C14.317 6.49342 13.7765 6.27393 13.2129 6.27393H11.0879C10.5243 6.27393 9.9838 6.49342 9.58529 6.88412C9.18677 7.27482 8.96289 7.80472 8.96289 8.35726C8.96289 8.90979 9.18677 9.4397 9.58529 9.8304C9.9838 10.2211 10.5243 10.4406 11.0879 10.4406Z" fill="white"/>
<path d="M19.5879 10.4406H21.7129C22.2765 10.4406 22.817 10.2211 23.2155 9.8304C23.614 9.4397 23.8379 8.90979 23.8379 8.35726C23.8379 7.80472 23.614 7.27482 23.2155 6.88412C22.817 6.49342 22.2765 6.27393 21.7129 6.27393H19.5879C19.0243 6.27393 18.4838 6.49342 18.0853 6.88412C17.6868 7.27482 17.4629 7.80472 17.4629 8.35726C17.4629 8.90979 17.6868 9.4397 18.0853 9.8304C18.4838 10.2211 19.0243 10.4406 19.5879 10.4406Z" fill="white"/>
<path d="M28.0879 10.4406H30.2129C30.7765 10.4406 31.317 10.2211 31.7155 9.8304C32.114 9.4397 32.3379 8.90979 32.3379 8.35726C32.3379 7.80472 32.114 7.27482 31.7155 6.88412C31.317 6.49342 30.7765 6.27393 30.2129 6.27393H28.0879C27.5243 6.27393 26.9838 6.49342 26.5853 6.88412C26.1868 7.27482 25.9629 7.80472 25.9629 8.35726C25.9629 8.90979 26.1868 9.4397 26.5853 9.8304C26.9838 10.2211 27.5243 10.4406 28.0879 10.4406Z" fill="white"/>
<path d="M18.9653 25.6344C18.7681 25.4409 18.5339 25.2873 18.2761 25.1826C18.0183 25.0778 17.742 25.0239 17.463 25.0239C17.1839 25.0239 16.9076 25.0778 16.6498 25.1826C16.392 25.2873 16.1578 25.4409 15.9606 25.6344L11.7106 29.8011C11.5132 29.9944 11.3566 30.2241 11.2497 30.4768C11.1429 30.7295 11.0879 31.0004 11.0879 31.274C11.0879 31.5476 11.1429 31.8185 11.2497 32.0712C11.3566 32.3239 11.5132 32.5536 11.7106 32.7469L15.9606 36.9136C16.3614 37.2931 16.8982 37.5031 17.4553 37.4983C18.0125 37.4936 18.5455 37.2745 18.9395 36.8882C19.3334 36.5019 19.5569 35.9794 19.5618 35.4332C19.5666 34.8869 19.3524 34.3607 18.9653 33.9677L16.2179 31.274L18.9653 28.5802C19.1627 28.3869 19.3194 28.1573 19.4262 27.9045C19.533 27.6518 19.588 27.3809 19.588 27.1073C19.588 26.8338 19.533 26.5629 19.4262 26.3101C19.3194 26.0574 19.1627 25.8278 18.9653 25.6344Z" fill="white"/>
<path d="M35.966 25.6344C35.5652 25.2549 35.0284 25.0449 34.4713 25.0496C33.9141 25.0544 33.3811 25.2735 32.9871 25.6598C32.5931 26.046 32.3696 26.5685 32.3648 27.1148C32.36 27.661 32.5742 28.1873 32.9612 28.5802L35.7086 31.274L32.9612 33.9677C32.7583 34.1599 32.5964 34.3898 32.485 34.6439C32.3737 34.8981 32.315 35.1715 32.3126 35.4481C32.3101 35.7247 32.3639 35.9991 32.4707 36.2551C32.5776 36.5111 32.7354 36.7438 32.9349 36.9394C33.1344 37.135 33.3717 37.2897 33.6328 37.3944C33.894 37.4992 34.1738 37.5519 34.456 37.5495C34.7381 37.5471 35.017 37.4896 35.2762 37.3804C35.5355 37.2712 35.77 37.1125 35.966 36.9135L40.216 32.7469C40.4134 32.5535 40.57 32.3239 40.6768 32.0712C40.7837 31.8184 40.8387 31.5475 40.8387 31.274C40.8387 31.0004 40.7837 30.7295 40.6768 30.4767C40.57 30.224 40.4134 29.9944 40.216 29.801L35.966 25.6344Z" fill="white"/>
<path d="M28.7598 23.0486C28.4953 22.9614 28.2157 22.9262 27.9372 22.9452C27.6588 22.9642 27.3869 23.0369 27.1371 23.1592C26.8874 23.2815 26.6648 23.451 26.4821 23.6579C26.2994 23.8648 26.1602 24.1051 26.0726 24.3649L21.8226 36.8649C21.725 37.1265 21.6819 37.4047 21.6959 37.6829C21.7099 37.9612 21.7807 38.2338 21.9041 38.4848C22.0275 38.7357 22.2009 38.9598 22.4142 39.1439C22.6274 39.328 22.8762 39.4683 23.1457 39.5564C23.4153 39.6446 23.7001 39.6789 23.9834 39.6573C24.2667 39.6356 24.5427 39.5585 24.795 39.4305C25.0474 39.3025 25.271 39.1261 25.4526 38.9119C25.6342 38.6976 25.7702 38.4499 25.8524 38.1832L30.1024 25.6832C30.1908 25.4238 30.2263 25.1499 30.2066 24.877C30.187 24.6042 30.1127 24.3378 29.9881 24.0931C29.8634 23.8485 29.6907 23.6303 29.48 23.4511C29.2692 23.2718 29.0245 23.1351 28.7598 23.0486Z" fill="white"/>
</g>
<defs>
<clipPath id="clip0_493_1360">
<rect width="51" height="50" fill="white" transform="translate(0.462891 0.0239258)"/>
</clipPath>
</defs>
</svg>
