<svg width="24" height="25" viewBox="0 0 24 25" fill="none" xmlns="http://www.w3.org/2000/svg">
<g opacity="0.8">
<path d="M20.9 2.10034H3.1C2.80826 2.10034 2.52847 2.21623 2.32218 2.42252C2.11589 2.62881 2 2.9086 2 3.20034V21.0003C2 21.2921 2.11589 21.5719 2.32218 21.7782C2.52847 21.9844 2.80826 22.1003 3.1 22.1003H12.68V14.3503H10.08V11.3503H12.68V9.10034C12.6261 8.5721 12.6885 8.03847 12.8627 7.53688C13.0369 7.03529 13.3188 6.57789 13.6885 6.19675C14.0582 5.81562 14.5068 5.51998 15.0028 5.33058C15.4989 5.14118 16.0304 5.06259 16.56 5.10034C17.3383 5.09555 18.1163 5.13562 18.89 5.22034V7.92034H17.3C16.04 7.92034 15.8 8.52034 15.8 9.39034V11.3203H18.8L18.41 14.3203H15.8V22.1003H20.9C21.0445 22.1003 21.1875 22.0719 21.321 22.0166C21.4544 21.9613 21.5757 21.8803 21.6778 21.7782C21.78 21.676 21.861 21.5548 21.9163 21.4213C21.9715 21.2878 22 21.1448 22 21.0003V3.20034C22 3.05589 21.9715 2.91285 21.9163 2.77939C21.861 2.64593 21.78 2.52467 21.6778 2.42252C21.5757 2.32038 21.4544 2.23935 21.321 2.18407C21.1875 2.12879 21.0445 2.10034 20.9 2.10034Z" fill="white"/>
</g>
</svg>
