<svg width="70" height="62" viewBox="0 0 70 62" fill="none" xmlns="http://www.w3.org/2000/svg">
<g filter="url(#filter0_f_782_19056)">
<circle cx="50" cy="42" r="16" fill="#043099" fill-opacity="0.5"/>
</g>
<g filter="url(#filter1_f_782_19056)">
<circle cx="15.5" cy="19.5" r="8.5" fill="#EC2227"/>
</g>
<g opacity="0.9">
<path d="M33.3961 46.8751H38.6461C40.6461 46.8751 41.9378 45.4584 41.5628 43.7292L40.7086 39.9585H31.3336L30.4794 43.7292C30.1044 45.3542 31.5211 46.8751 33.3961 46.8751Z" stroke="#F5F5F5" strokeWidth="3.5" strokeLinecap="round" strokeLinejoin="round"/>
<path d="M40.7088 39.9376L44.313 36.7292C46.3338 34.9376 46.4171 33.6874 44.813 31.6666L38.4588 23.6042C37.1255 21.9167 34.938 21.9167 33.6046 23.6042L27.2505 31.6666C25.6463 33.6874 25.6463 35.0001 27.7505 36.7292L31.3546 39.9376" stroke="#F5F5F5" strokeWidth="3.5" strokeLinecap="round" strokeLinejoin="round"/>
<path d="M36.0215 23.1666V28.4375" stroke="#F5F5F5" strokeWidth="3.5" strokeLinecap="round" strokeLinejoin="round"/>
<path d="M34.2295 10.8126L32.6045 9.1875C31.6253 8.20833 31.6253 6.6251 32.6045 5.64594L34.2295 4.02087C35.2087 3.04171 36.792 3.04171 37.7712 4.02087L39.3961 5.64594C40.3753 6.6251 40.3753 8.20833 39.3961 9.1875L37.7712 10.8126C36.792 11.7917 35.2087 11.7917 34.2295 10.8126Z" stroke="#F5F5F5" strokeWidth="3.5" strokeLinecap="round" strokeLinejoin="round"/>
<path d="M51.5205 20.4375H53.8122C55.1872 20.4375 56.3122 21.5625 56.3122 22.9375V25.2291C56.3122 26.6041 55.1872 27.7293 53.8122 27.7293H51.5205C50.1455 27.7293 49.0205 26.6041 49.0205 25.2291V22.9375C49.0205 21.5625 50.1455 20.4375 51.5205 20.4375Z" stroke="#F5F5F5" strokeWidth="3.5" strokeLinecap="round" strokeLinejoin="round"/>
<path d="M20.4792 20.4375H18.1875C16.8125 20.4375 15.6875 21.5625 15.6875 22.9375V25.2291C15.6875 26.6041 16.8125 27.7293 18.1875 27.7293H20.4792C21.8542 27.7293 22.9792 26.6041 22.9792 25.2291V22.9375C22.9792 21.5625 21.8542 20.4375 20.4792 20.4375Z" stroke="#F5F5F5" strokeWidth="3.5" strokeLinecap="round" strokeLinejoin="round"/>
<path d="M49.6247 21.0416L38.583 10" stroke="#F5F5F5" strokeWidth="3.5" strokeLinecap="round" strokeLinejoin="round"/>
<path d="M22.375 21.0416L33.4167 10" stroke="#F5F5F5" strokeWidth="3.5" strokeLinecap="round" strokeLinejoin="round"/>
</g>
<defs>
<filter id="filter0_f_782_19056" x="30" y="22" width="40" height="40" filterUnits="userSpaceOnUse" color-interpolation-filters="sRGB">
<feFlood flood-opacity="0" result="BackgroundImageFix"/>
<feBlend mode="normal" in="SourceGraphic" in2="BackgroundImageFix" result="shape"/>
<feGaussianBlur stdDeviation="2" result="effect1_foregroundBlur_782_19056"/>
</filter>
<filter id="filter1_f_782_19056" x="0" y="4" width="31" height="31" filterUnits="userSpaceOnUse" color-interpolation-filters="sRGB">
<feFlood flood-opacity="0" result="BackgroundImageFix"/>
<feBlend mode="normal" in="SourceGraphic" in2="BackgroundImageFix" result="shape"/>
<feGaussianBlur stdDeviation="3.5" result="effect1_foregroundBlur_782_19056"/>
</filter>
</defs>
</svg>
