<svg width="139" height="41" viewBox="0 0 139 41" fill="none" xmlns="http://www.w3.org/2000/svg">
<path d="M18.9806 23.5465L9.12787 0.717773H0.941406L18.8599 40.9998H19.1497L37.1164 0.717773H28.8575L18.9806 23.5465Z" fill="white"/>
<path d="M92.9752 22.6488L70.2028 0H69.8164V40.0796H77.544V18.0606L100.365 40.7544H100.727V0.629759H92.9752V22.6488Z" fill="white"/>
<path d="M118.566 0.717824L107.385 0.740317V40.0103H118.566C130.978 40.0103 138.561 32.5881 138.561 20.3978C138.585 8.16247 131.002 0.695333 118.566 0.717824ZM118.614 32.1383H115.088V8.54482H118.542C126.148 8.54482 130.785 13.0206 130.785 20.3978C130.785 27.7075 126.173 32.1383 118.614 32.1383Z" fill="white"/>
<path d="M64.0904 16.1942H40.9316V24.1336H64.0904V16.1942Z" fill="white"/>
<path d="M64.0904 0.562744H40.9316V8.5022H64.0904V0.562744Z" fill="white"/>
<path d="M64.0904 32.1639H40.9316V40.1033H64.0904V32.1639Z" fill="white"/>
</svg>
