<svg width="101" height="30" viewBox="0 0 101 30" fill="none" xmlns="http://www.w3.org/2000/svg">
<g opacity="0.8">
<path d="M13.4299 17.2291L6.22057 0.525146H0.230469L13.3415 29.9998H13.5536L26.7 0.525146H20.6569L13.4299 17.2291Z" fill="white"/>
<path d="M67.5724 16.5723L50.9097 0H50.627V29.3266H56.2813V13.2151L72.9794 29.8203H73.2444V0.460799H67.5724V16.5723Z" fill="white"/>
<path d="M86.2974 0.525184L78.1162 0.541642V29.2757H86.2974C95.3797 29.2757 100.928 23.8449 100.928 14.9251C100.946 5.97248 95.3974 0.508726 86.2974 0.525184ZM86.3327 23.5158H83.7529V6.25225H86.2797C91.8457 6.25225 95.2383 9.52722 95.2383 14.9251C95.2383 20.2737 91.8634 23.5158 86.3327 23.5158Z" fill="white"/>
<path d="M46.4376 11.8494H29.4922V17.6587H46.4376V11.8494Z" fill="white"/>
<path d="M46.4376 0.411621H29.4922V6.22098H46.4376V0.411621Z" fill="white"/>
<path d="M46.4376 23.5347H29.4922V29.344H46.4376V23.5347Z" fill="white"/>
</g>
</svg>
