<svg width="19" height="20" viewBox="0 0 19 20" fill="none" xmlns="http://www.w3.org/2000/svg">
<path fill-rule="evenodd" clip-rule="evenodd" d="M18.783 9.96066L18.783 9.96453C18.7825 11.5312 18.3894 13.0706 17.6436 14.4378L18.9454 19.4001L14.0947 18.0721C12.6751 18.8913 11.0647 19.3224 9.41492 19.3217C4.25373 19.3196 0.0546873 15.1203 0.0546871 9.96075C0.0557677 7.45662 1.03062 5.10632 2.80001 3.339C4.56931 1.57168 6.92114 0.598898 9.4223 0.599889C14.5823 0.601961 18.7809 4.79956 18.783 9.96066ZM15.9492 14.2079L16.1178 13.9238C16.8266 12.7293 17.2017 11.3599 17.2023 9.96382L17.2023 9.96066C17.2023 5.67237 13.712 2.18213 9.42189 2.18042C7.34295 2.17961 5.38821 2.98812 3.91756 4.45705C2.44691 5.92599 1.63661 7.87947 1.63589 9.9576C1.63589 14.2492 5.12585 17.7395 9.41559 17.7412C10.8857 17.7418 12.3174 17.3305 13.5562 16.5516L13.8505 16.3666L16.7216 17.1526L15.9492 14.2079ZM11.4376 5.5649C11.5164 5.40177 11.5697 5.29161 11.6482 5.24457C11.7457 5.18612 12.214 5.18612 12.7605 5.38092C13.3068 5.57591 13.8054 6.51032 13.8726 6.95974C13.9328 7.36269 13.9579 7.87263 13.7799 8.43291C13.6721 8.77263 13.5282 9.20827 13.2872 9.76631C12.3404 11.959 10.2152 13.4409 9.8135 13.7209C9.78536 13.7405 9.76568 13.7543 9.75545 13.7619L9.75294 13.7638C9.58779 13.8876 8.48118 14.717 7.33589 14.717C6.25851 14.717 5.6938 14.1877 5.43386 13.9441C5.41605 13.9275 5.39968 13.9121 5.38466 13.8984C5.1505 13.684 5.09195 13.4306 5.09195 13.2746C5.09195 13.1187 5.09339 12.9626 5.10024 12.8264C5.10108 12.8095 5.10098 12.7921 5.10088 12.774C5.10008 12.6377 5.09908 12.4677 5.50174 12.3001C5.65671 12.2356 5.88645 12.1412 6.12875 12.0417C6.61873 11.8405 7.1601 11.6181 7.23844 11.579C7.35553 11.5205 7.49206 11.4815 7.64823 11.5595C7.67165 11.5712 7.69374 11.582 7.71486 11.5923C7.83441 11.6509 7.92235 11.694 8.03839 11.7934C8.08402 11.8324 8.13321 11.8728 8.1824 11.9132C8.28039 11.9937 8.37838 12.0741 8.44818 12.1442C8.56481 12.2613 8.69135 12.3832 8.92552 12.2468C9.15968 12.1103 9.92558 11.6409 10.5458 10.9456C11.2125 10.1981 11.4943 9.5485 11.6371 9.21922C11.665 9.15492 11.6876 9.10283 11.7067 9.06462C11.8238 8.83081 11.8042 8.69437 11.6482 8.55792C11.4921 8.42147 10.9652 7.97323 10.7311 7.81733C10.497 7.66143 10.536 7.50544 10.614 7.29108C10.6921 7.07664 11.2579 5.92671 11.375 5.69281C11.3978 5.64716 11.4185 5.60447 11.4376 5.5649Z" fill="#FDFDFD"/>
</svg>
