<svg width="12" height="14" viewBox="0 0 12 14" fill="none" xmlns="http://www.w3.org/2000/svg">
<path d="M11.7687 1.64062C12.1219 1.21562 12.0656 0.584375 11.6406 0.23125C11.2156 -0.121875 10.5844 -0.0656251 10.2312 0.359375L6 5.4375L1.76875 0.359375C1.41562 -0.0656251 0.784375 -0.121875 0.359375 0.23125C-0.0656251 0.584375 -0.121875 1.21562 0.23125 1.64062L4.69688 7L0.23125 12.3594C-0.121875 12.7844 -0.0656251 13.4156 0.359375 13.7687C0.784375 14.1219 1.41562 14.0656 1.76875 13.6406L6 8.5625L10.2312 13.6406C10.5844 14.0656 11.2156 14.1219 11.6406 13.7687C12.0656 13.4156 12.1219 12.7844 11.7687 12.3594L7.30312 7L11.7687 1.64062Z" fill="white"/>
</svg>
